solid ScanFrame
facet normal 0.0 -5.55111512312578e-016 1.0
  outer loop
    vertex 270.51 -6.35 -3.52495810318487e-015
    vertex 6.35 0.0 0.0
    vertex 6.35 -6.35 -3.52495810318487e-015
  endloop
endfacet
facet normal 0.0 -5.55111512312578e-016 1.0
  outer loop
    vertex 6.35 0.0 0.0
    vertex 270.51 -6.35 -3.52495810318487e-015
    vertex 270.51 0.0 0.0
  endloop
endfacet
facet normal 0.0 5.55111512312578e-016 -1.0
  outer loop
    vertex 276.86 -7.04991620636974e-015 12.7
    vertex 271.78 -6.35000000000001 12.7
    vertex 271.78 -7.04991620636974e-015 12.7
  endloop
endfacet
facet normal 0.0 5.55111512312578e-016 -1.0
  outer loop
    vertex 271.78 -6.35000000000001 12.7
    vertex 271.145 -222.5675 12.7
    vertex 271.145 -6.35000000000001 12.7
  endloop
endfacet
facet normal 0.0 5.55111512312578e-016 -1.0
  outer loop
    vertex 271.145 -222.5675 12.7
    vertex 271.78 -6.35000000000001 12.7
    vertex 276.86 -222.5675 12.7
  endloop
endfacet
facet normal 0.0 5.55111512312578e-016 -1.0
  outer loop
    vertex 276.86 -222.5675 12.7
    vertex 271.78 -6.35000000000001 12.7
    vertex 276.86 -7.04991620636974e-015 12.7
  endloop
endfacet
facet normal -1.0 0.0 0.0
  outer loop
    vertex 276.86 -7.04991620636974e-015 12.7
    vertex 276.86 -222.5675 -2.59019143582178e-014
    vertex 276.86 -222.5675 12.7
  endloop
endfacet
facet normal -1.0 0.0 0.0
  outer loop
    vertex 276.86 -222.5675 -2.59019143582178e-014
    vertex 276.86 -7.04991620636974e-015 12.7
    vertex 276.86 -222.25 0.0
  endloop
endfacet
facet normal -1.0 0.0 0.0
  outer loop
    vertex 276.86 -222.25 0.0
    vertex 276.86 -7.04991620636974e-015 12.7
    vertex 276.86 0.0 0.0
  endloop
endfacet
facet normal 0.0 5.55111512312578e-016 -1.0
  outer loop
    vertex 5.08 -7.04991620636974e-015 12.7
    vertex 1.71084200536108e-032 -222.5675 12.7
    vertex 0.0 -7.04991620636974e-015 12.7
  endloop
endfacet
facet normal 0.0 5.55111512312578e-016 -1.0
  outer loop
    vertex 1.71084200536108e-032 -222.5675 12.7
    vertex 5.08 -7.04991620636974e-015 12.7
    vertex 5.08 -6.35000000000001 12.7
  endloop
endfacet
facet normal 0.0 5.55111512312578e-016 -1.0
  outer loop
    vertex 1.71084200536108e-032 -222.5675 12.7
    vertex 5.08 -6.35000000000001 12.7
    vertex 5.715 -222.5675 12.7
  endloop
endfacet
facet normal 0.0 5.55111512312578e-016 -1.0
  outer loop
    vertex 5.715 -222.5675 12.7
    vertex 5.08 -6.35000000000001 12.7
    vertex 5.715 -6.35000000000001 12.7
  endloop
endfacet
facet normal -2.14025032120924e-017 -7.29564396662285e-017 1.0
  outer loop
    vertex 276.86 -222.5675 -2.59019143582178e-014
    vertex 6.35 -219.3925 -2.25597318603832e-014
    vertex 1.71084200536108e-032 -222.5675 -2.59019143582178e-014
  endloop
endfacet
facet normal -2.14025032120924e-017 -7.29564396662285e-017 1.0
  outer loop
    vertex 6.35 -219.3925 -2.25597318603832e-014
    vertex 276.86 -222.5675 -2.59019143582178e-014
    vertex 270.51 -219.3925 -2.22426942084991e-014
  endloop
endfacet
facet normal -2.14025032120924e-017 -7.29564396662285e-017 1.0
  outer loop
    vertex 270.51 -219.3925 -2.22426942084991e-014
    vertex 276.86 -222.5675 -2.59019143582178e-014
    vertex 270.51 -219.075 0.0
  endloop
endfacet
facet normal -2.14025032120924e-017 -7.29564396662285e-017 1.0
  outer loop
    vertex 270.51 -219.075 0.0
    vertex 276.86 -222.5675 -2.59019143582178e-014
    vertex 270.51 -6.35 -3.52495810318487e-015
  endloop
endfacet
facet normal -2.14025032120924e-017 -7.29564396662285e-017 1.0
  outer loop
    vertex 270.51 -6.35 -3.52495810318487e-015
    vertex 276.86 -222.5675 -2.59019143582178e-014
    vertex 270.51 0.0 0.0
  endloop
endfacet
facet normal -2.14025032120924e-017 -7.29564396662285e-017 1.0
  outer loop
    vertex 270.51 0.0 0.0
    vertex 276.86 -222.5675 -2.59019143582178e-014
    vertex 276.86 0.0 0.0
  endloop
endfacet
facet normal -2.14025032120924e-017 -7.29564396662285e-017 1.0
  outer loop
    vertex 276.86 0.0 0.0
    vertex 276.86 -222.5675 -2.59019143582178e-014
    vertex 276.86 -222.25 0.0
  endloop
endfacet
facet normal -2.14025032120924e-017 -7.29564396662285e-017 1.0
  outer loop
    vertex 1.71084200536108e-032 -222.5675 -2.59019143582178e-014
    vertex 6.35 0.0 0.0
    vertex 0.0 0.0 0.0
  endloop
endfacet
facet normal -2.14025032120924e-017 -7.29564396662285e-017 1.0
  outer loop
    vertex 6.35 0.0 0.0
    vertex 1.71084200536108e-032 -222.5675 -2.59019143582178e-014
    vertex 6.35 -219.3925 -2.25597318603832e-014
  endloop
endfacet
facet normal -2.14025032120924e-017 -7.29564396662285e-017 1.0
  outer loop
    vertex 6.35 0.0 0.0
    vertex 6.35 -219.3925 -2.25597318603832e-014
    vertex 6.35 -6.35 -3.52495810318487e-015
  endloop
endfacet
facet normal 1.0 0.0 0.0
  outer loop
    vertex 1.71084200536108e-032 -222.5675 -2.59019143582178e-014
    vertex 0.0 -7.04991620636974e-015 12.7
    vertex 1.71084200536108e-032 -222.5675 12.7
  endloop
endfacet
facet normal 1.0 0.0 0.0
  outer loop
    vertex 0.0 -7.04991620636974e-015 12.7
    vertex 1.71084200536108e-032 -222.5675 -2.59019143582178e-014
    vertex 0.0 0.0 0.0
  endloop
endfacet
facet normal 0.0 1.0 5.55111512312578e-016
  outer loop
    vertex 5.715 -6.35000000000001 12.7
    vertex 6.35 -6.35 9.525
    vertex 5.715 -6.35 9.525
  endloop
endfacet
facet normal 0.0 1.0 5.55111512312578e-016
  outer loop
    vertex 6.35 -6.35 9.525
    vertex 5.715 -6.35000000000001 12.7
    vertex 270.51 -6.35 9.525
  endloop
endfacet
facet normal 0.0 1.0 5.55111512312578e-016
  outer loop
    vertex 270.51 -6.35 9.525
    vertex 5.715 -6.35000000000001 12.7
    vertex 271.145 -6.35 9.525
  endloop
endfacet
facet normal 0.0 1.0 5.55111512312578e-016
  outer loop
    vertex 271.145 -6.35 9.525
    vertex 5.715 -6.35000000000001 12.7
    vertex 271.145 -6.35000000000001 12.7
  endloop
endfacet
facet normal 0.0 1.0 5.55111512312578e-016
  outer loop
    vertex 6.35 -6.35 9.525
    vertex 270.51 -6.35 -3.52495810318487e-015
    vertex 6.35 -6.35 -3.52495810318487e-015
  endloop
endfacet
facet normal 0.0 1.0 5.55111512312578e-016
  outer loop
    vertex 270.51 -6.35 -3.52495810318487e-015
    vertex 6.35 -6.35 9.525
    vertex 270.51 -6.35 9.525
  endloop
endfacet
facet normal 0.0 5.55111512312578e-016 -1.0
  outer loop
    vertex 271.78 -7.04991620636974e-015 12.7
    vertex 5.08 -6.35000000000001 12.7
    vertex 5.08 -7.04991620636974e-015 12.7
  endloop
endfacet
facet normal 0.0 5.55111512312578e-016 -1.0
  outer loop
    vertex 5.08 -6.35000000000001 12.7
    vertex 271.78 -7.04991620636974e-015 12.7
    vertex 5.715 -6.35000000000001 12.7
  endloop
endfacet
facet normal 0.0 5.55111512312578e-016 -1.0
  outer loop
    vertex 5.715 -6.35000000000001 12.7
    vertex 271.78 -7.04991620636974e-015 12.7
    vertex 271.145 -6.35000000000001 12.7
  endloop
endfacet
facet normal 0.0 5.55111512312578e-016 -1.0
  outer loop
    vertex 271.145 -6.35000000000001 12.7
    vertex 271.78 -7.04991620636974e-015 12.7
    vertex 271.78 -6.35000000000001 12.7
  endloop
endfacet
facet normal 0.0 -1.0 -5.55111512312578e-016
  outer loop
    vertex 276.86 -7.04991620636974e-015 12.7
    vertex 270.51 0.0 0.0
    vertex 276.86 0.0 0.0
  endloop
endfacet
facet normal 0.0 -1.0 -5.55111512312578e-016
  outer loop
    vertex 270.51 0.0 0.0
    vertex 276.86 -7.04991620636974e-015 12.7
    vertex 6.35 0.0 0.0
  endloop
endfacet
facet normal 0.0 -1.0 -5.55111512312578e-016
  outer loop
    vertex 6.35 0.0 0.0
    vertex 276.86 -7.04991620636974e-015 12.7
    vertex 0.0 0.0 0.0
  endloop
endfacet
facet normal 0.0 -1.0 -5.55111512312578e-016
  outer loop
    vertex 0.0 0.0 0.0
    vertex 276.86 -7.04991620636974e-015 12.7
    vertex 0.0 -7.04991620636974e-015 12.7
  endloop
endfacet
facet normal 0.0 -1.0 -5.55111512312578e-016
  outer loop
    vertex 0.0 -7.04991620636974e-015 12.7
    vertex 276.86 -7.04991620636974e-015 12.7
    vertex 271.78 -7.04991620636974e-015 12.7
  endloop
endfacet
facet normal 0.0 -1.0 -5.55111512312578e-016
  outer loop
    vertex 0.0 -7.04991620636974e-015 12.7
    vertex 271.78 -7.04991620636974e-015 12.7
    vertex 5.08 -7.04991620636974e-015 12.7
  endloop
endfacet
facet normal 1.0 0.0 -0.0
  outer loop
    vertex 270.51 -219.075 0.0
    vertex 270.51 -219.3925 3.17499999999998
    vertex 270.51 -219.3925 -2.22426942084991e-014
  endloop
endfacet
facet normal 1.0 0.0 -0.0
  outer loop
    vertex 270.51 -219.3925 3.17499999999998
    vertex 270.51 -222.5675 9.52499999999995
    vertex 270.51 -222.5675 3.17499999999997
  endloop
endfacet
facet normal 1.0 0.0 -0.0
  outer loop
    vertex 270.51 -222.5675 9.52499999999995
    vertex 270.51 -219.3925 3.17499999999998
    vertex 270.51 -6.35 9.525
  endloop
endfacet
facet normal 1.0 0.0 -0.0
  outer loop
    vertex 270.51 -6.35 9.525
    vertex 270.51 -219.3925 3.17499999999998
    vertex 270.51 -219.075 0.0
  endloop
endfacet
facet normal 1.0 0.0 -0.0
  outer loop
    vertex 270.51 -6.35 9.525
    vertex 270.51 -219.075 0.0
    vertex 270.51 -6.35 -3.52495810318487e-015
  endloop
endfacet
facet normal 0.0 5.55111512312578e-016 -1.0
  outer loop
    vertex 271.145 -6.35 9.525
    vertex 270.51 -222.5675 9.52499999999995
    vertex 270.51 -6.35 9.525
  endloop
endfacet
facet normal 0.0 5.55111512312578e-016 -1.0
  outer loop
    vertex 270.51 -222.5675 9.52499999999995
    vertex 271.145 -6.35 9.525
    vertex 271.145 -222.5675 9.52499999999995
  endloop
endfacet
facet normal 0.0 5.55111512312578e-016 -1.0
  outer loop
    vertex 6.35 -6.35 9.525
    vertex 5.715 -222.5675 9.52499999999995
    vertex 5.715 -6.35 9.525
  endloop
endfacet
facet normal 0.0 5.55111512312578e-016 -1.0
  outer loop
    vertex 5.715 -222.5675 9.52499999999995
    vertex 6.35 -6.35 9.525
    vertex 6.35 -222.5675 9.52499999999995
  endloop
endfacet
facet normal 1.0 0.0 0.0
  outer loop
    vertex 271.145 -222.5675 9.52499999999995
    vertex 271.145 -6.35000000000001 12.7
    vertex 271.145 -222.5675 12.7
  endloop
endfacet
facet normal 1.0 0.0 0.0
  outer loop
    vertex 271.145 -6.35000000000001 12.7
    vertex 271.145 -222.5675 9.52499999999995
    vertex 271.145 -6.35 9.525
  endloop
endfacet
facet normal -1.0 0.0 0.0
  outer loop
    vertex 5.715 -6.35000000000001 12.7
    vertex 5.715 -222.5675 9.52499999999995
    vertex 5.715 -222.5675 12.7
  endloop
endfacet
facet normal -1.0 0.0 0.0
  outer loop
    vertex 5.715 -222.5675 9.52499999999995
    vertex 5.715 -6.35000000000001 12.7
    vertex 5.715 -6.35 9.525
  endloop
endfacet
facet normal -1.0 0.0 0.0
  outer loop
    vertex 6.35 -222.5675 9.52499999999995
    vertex 6.35 -219.3925 3.17499999999998
    vertex 6.35 -222.5675 3.17499999999997
  endloop
endfacet
facet normal -1.0 0.0 0.0
  outer loop
    vertex 6.35 -219.3925 3.17499999999998
    vertex 6.35 -222.5675 9.52499999999995
    vertex 6.35 -6.35 9.525
  endloop
endfacet
facet normal -1.0 0.0 0.0
  outer loop
    vertex 6.35 -219.3925 3.17499999999998
    vertex 6.35 -6.35 9.525
    vertex 6.35 -219.3925 -2.25597318603832e-014
  endloop
endfacet
facet normal -1.0 0.0 0.0
  outer loop
    vertex 6.35 -219.3925 -2.25597318603832e-014
    vertex 6.35 -6.35 9.525
    vertex 6.35 -6.35 -3.52495810318487e-015
  endloop
endfacet
facet normal 0.0 0.0 -1.0
  outer loop
    vertex 270.51 -219.3925 3.17499999999998
    vertex 6.35 -222.5675 3.17499999999997
    vertex 6.35 -219.3925 3.17499999999998
  endloop
endfacet
facet normal 0.0 0.0 -1.0
  outer loop
    vertex 6.35 -222.5675 3.17499999999997
    vertex 270.51 -219.3925 3.17499999999998
    vertex 270.51 -222.5675 3.17499999999997
  endloop
endfacet
facet normal 0.0 1.0 -0.0
  outer loop
    vertex 6.35 -219.3925 3.17499999999998
    vertex 270.51 -219.3925 -2.22426942084991e-014
    vertex 6.35 -219.3925 -2.25597318603832e-014
  endloop
endfacet
facet normal 0.0 1.0 -0.0
  outer loop
    vertex 270.51 -219.3925 -2.22426942084991e-014
    vertex 6.35 -219.3925 3.17499999999998
    vertex 270.51 -219.3925 3.17499999999998
  endloop
endfacet
facet normal -1.07769575140855e-032 1.0 2.1053118096596e-015
  outer loop
    vertex 1.71084200536108e-032 -222.5675 -2.59019143582178e-014
    vertex 6.35 -222.5675 3.17499999999997
    vertex 276.86 -222.5675 -2.59019143582178e-014
  endloop
endfacet
facet normal -1.07769575140855e-032 1.0 2.1053118096596e-015
  outer loop
    vertex 6.35 -222.5675 3.17499999999997
    vertex 1.71084200536108e-032 -222.5675 -2.59019143582178e-014
    vertex 1.71084200536108e-032 -222.5675 12.7
  endloop
endfacet
facet normal -1.07769575140855e-032 1.0 2.1053118096596e-015
  outer loop
    vertex 6.35 -222.5675 3.17499999999997
    vertex 1.71084200536108e-032 -222.5675 12.7
    vertex 5.715 -222.5675 9.52499999999995
  endloop
endfacet
facet normal -1.07769575140855e-032 1.0 2.1053118096596e-015
  outer loop
    vertex 5.715 -222.5675 9.52499999999995
    vertex 1.71084200536108e-032 -222.5675 12.7
    vertex 5.715 -222.5675 12.7
  endloop
endfacet
facet normal -1.07769575140855e-032 1.0 2.1053118096596e-015
  outer loop
    vertex 6.35 -222.5675 9.52499999999995
    vertex 6.35 -222.5675 3.17499999999997
    vertex 5.715 -222.5675 9.52499999999995
  endloop
endfacet
facet normal -1.07769575140855e-032 1.0 2.1053118096596e-015
  outer loop
    vertex 276.86 -222.5675 -2.59019143582178e-014
    vertex 270.51 -222.5675 3.17499999999997
    vertex 276.86 -222.5675 12.7
  endloop
endfacet
facet normal -1.07769575140855e-032 1.0 2.1053118096596e-015
  outer loop
    vertex 270.51 -222.5675 3.17499999999997
    vertex 276.86 -222.5675 -2.59019143582178e-014
    vertex 6.35 -222.5675 3.17499999999997
  endloop
endfacet
facet normal -1.07769575140855e-032 1.0 2.1053118096596e-015
  outer loop
    vertex 276.86 -222.5675 12.7
    vertex 270.51 -222.5675 3.17499999999997
    vertex 271.145 -222.5675 9.52499999999995
  endloop
endfacet
facet normal -1.07769575140855e-032 1.0 2.1053118096596e-015
  outer loop
    vertex 271.145 -222.5675 9.52499999999995
    vertex 270.51 -222.5675 3.17499999999997
    vertex 270.51 -222.5675 9.52499999999995
  endloop
endfacet
facet normal -1.07769575140855e-032 1.0 2.1053118096596e-015
  outer loop
    vertex 276.86 -222.5675 12.7
    vertex 271.145 -222.5675 9.52499999999995
    vertex 271.145 -222.5675 12.7
  endloop
endfacet
endsolid ScanFrame
