solid Untitled-542e37ca
facet normal -1.66155851020822e-016 1.0 -3.60128593612785e-015
  outer loop
    vertex 0.231501068298057 -4.23272528138341e-016 0.494790482469694
    vertex 0.285076215210026 -3.57353036051222e-016 0.494551363811312
    vertex 0.307717898517574 -4.61436444609831e-016 0.479276064848933
  endloop
endfacet
facet normal -1.66155851020822e-016 1.0 -3.60128593612785e-015
  outer loop
    vertex 0.285076215210026 -3.57353036051222e-016 0.494551363811312
    vertex 0.231501068298057 -4.23272528138341e-016 0.494790482469694
    vertex 0.258312423583253 -4.09394740330526e-016 0.49999930279299
  endloop
endfacet
facet normal -2.52935593297775e-016 1.0 -4.5102810375397e-016
  outer loop
    vertex 1.99982943065795 3.81639164714898e-017 0.522203446184502
    vertex 0.307717898517574 -4.61436444609831e-016 0.479276064848933
    vertex 0.285076215210026 -3.57353036051222e-016 0.494551363811312
  endloop
endfacet
facet normal -2.66633583548969e-016 1.0 -6.24500451351651e-017
  outer loop
    vertex 0.307717898517574 -4.61436444609831e-016 0.479276064848933
    vertex 1.97481624114801 7.28583859910259e-017 0.501892090698022
    vertex 0.322790482469694 -4.28476698566271e-016 0.456498931701943
  endloop
endfacet
facet normal -2.66633583548969e-016 1.0 -6.24500451351651e-017
  outer loop
    vertex 1.97481624114801 7.28583859910259e-017 0.501892090698022
    vertex 0.307717898517574 -4.61436444609831e-016 0.479276064848933
    vertex 1.99982943065795 3.81639164714898e-017 0.522203446184502
  endloop
endfacet
facet normal -4.76910528026993e-016 1.0 5.21804821573824e-015
  outer loop
    vertex 0.322790482469694 -4.28476698566271e-016 0.456498931701943
    vertex 1.07047631249187 7.63278329429795e-017 0.444465315184999
    vertex 0.32799930279299 -4.33680868994202e-016 0.429687576416747
  endloop
endfacet
facet normal -4.76910528026993e-016 1.0 5.21804821573824e-015
  outer loop
    vertex 1.07047631249187 7.63278329429795e-017 0.444465315184999
    vertex 0.322790482469694 -4.28476698566271e-016 0.456498931701943
    vertex 1.09640636975636 5.03069808033274e-017 0.450770034992543
  endloop
endfacet
facet normal -4.76910528026993e-016 1.0 5.21804821573824e-015
  outer loop
    vertex 1.12309125765311 3.46944695195361e-017 0.450585320269468
    vertex 1.97481624114801 7.28583859910259e-017 0.501892090698022
    vertex 1.14893155088431 7.11236625150491e-017 0.443922242353309
  endloop
endfacet
facet normal -4.76910528026993e-016 1.0 5.21804821573824e-015
  outer loop
    vertex 1.97481624114801 7.28583859910259e-017 0.501892090698022
    vertex 1.12309125765311 3.46944695195361e-017 0.450585320269468
    vertex 1.09640636975636 5.03069808033274e-017 0.450770034992543
  endloop
endfacet
facet normal -4.76910528026993e-016 1.0 5.21804821573824e-015
  outer loop
    vertex 1.97481624114801 7.28583859910259e-017 0.501892090698022
    vertex 1.09640636975636 5.03069808033274e-017 0.450770034992543
    vertex 0.322790482469694 -4.28476698566271e-016 0.456498931701943
  endloop
endfacet
facet normal -6.20051041335039e-016 1.0 6.45317133063372e-016
  outer loop
    vertex 1.04685526850127 2.77555756156289e-017 0.432049049950019
    vertex 1.02695902395783 2.60208521396521e-017 0.414265439105796
    vertex 0.32799930279299 -4.33680868994202e-016 0.429687576416747
  endloop
endfacet
facet normal -6.25989488395227e-016 1.0 3.46944695195361e-016
  outer loop
    vertex 0.32799930279299 -4.33680868994202e-016 0.429687576416747
    vertex 1.02695902395783 2.60208521396521e-017 0.414265439105796
    vertex 1.01198010989175 5.72458747072346e-017 0.392180387713686
  endloop
endfacet
facet normal -6.36509375776215e-016 1.0 2.0122792321331e-016
  outer loop
    vertex 0.32799930279299 -4.33680868994202e-016 0.429687576416747
    vertex 1.01198010989175 5.72458747072346e-017 0.392180387713686
    vertex 1.00281632486916 3.46944695195361e-018 0.367117618400399
  endloop
endfacet
facet normal -6.5171408159871e-016 1.0 -6.24500451351651e-017
  outer loop
    vertex 0.32799930279299 -4.33680868994202e-016 0.429687576416747
    vertex 1.00281632486916 3.46944695195361e-018 0.367117618400399
    vertex 1.00001692319631 -5.20417042793042e-018 0.340579330741523
  endloop
endfacet
facet normal 0.0 1.0 -1.17961196366423e-016
  outer loop
    vertex 1.97481624114801 7.28583859910259e-017 0.501892090698022
    vertex 1.17237844703951 2.77555756156289e-017 0.431180169434094
    vertex 1.14893155088431 7.11236625150491e-017 0.443922242353309
  endloop
endfacet
facet normal 0.0 1.0 -1.17961196366423e-016
  outer loop
    vertex 1.97481624114801 7.28583859910259e-017 0.501892090698022
    vertex 1.19202659793021 2.42861286636753e-017 0.413122829426008
    vertex 1.17237844703951 2.77555756156289e-017 0.431180169434094
  endloop
endfacet
facet normal 0.0 1.0 -1.17961196366423e-016
  outer loop
    vertex 1.97481624114801 7.28583859910259e-017 0.501892090698022
    vertex 1.20669834263793 3.12250225675825e-017 0.390832534030416
    vertex 1.19202659793021 2.42861286636753e-017 0.413122829426008
  endloop
endfacet
facet normal 0.0 1.0 -1.17961196366423e-016
  outer loop
    vertex 1.20669834263793 3.12250225675825e-017 0.390832534030416
    vertex 1.95305407647284 7.28583859910259e-017 0.478130377800816
    vertex 1.21551429355799 3.98986399474666e-017 0.365645307685177
  endloop
endfacet
facet normal 0.0 1.0 -1.17961196366423e-016
  outer loop
    vertex 1.95305407647284 7.28583859910259e-017 0.478130377800816
    vertex 1.20669834263793 3.12250225675825e-017 0.390832534030416
    vertex 1.97481624114801 7.28583859910259e-017 0.501892090698022
  endloop
endfacet
facet normal 0.0 1.0 -1.17961196366423e-016
  outer loop
    vertex 1.95305407647284 7.28583859910259e-017 0.478130377800816
    vertex 1.93501402177746 7.28583859910259e-017 0.451432676818411
    vertex 1.21551429355799 3.98986399474666e-017 0.365645307685177
  endloop
endfacet
facet normal 0.0 1.0 -1.17961196366423e-016
  outer loop
    vertex 1.93501402177746 7.28583859910259e-017 0.451432676818411
    vertex 1.92108658976632 6.07153216591882e-017 0.422376912351898
    vertex 1.21551429355799 3.98986399474666e-017 0.365645307685177
  endloop
endfacet
facet normal 0.0 1.0 -1.17961196366423e-016
  outer loop
    vertex 1.92108658976632 6.07153216591882e-017 0.422376912351898
    vertex 1.91157326728261 3.98986399474666e-017 0.391592053955615
    vertex 1.21551429355799 3.98986399474666e-017 0.365645307685177
  endloop
endfacet
facet normal 0.0 1.0 -1.17961196366423e-016
  outer loop
    vertex 1.91157326728261 3.98986399474666e-017 0.391592053955615
    vertex 1.90667998902853 1.56125112837913e-017 0.359744500845738
    vertex 1.21551429355799 3.98986399474666e-017 0.365645307685177
  endloop
endfacet
facet normal 0.0 1.0 -1.17961196366423e-016
  outer loop
    vertex 4.25 6.93889390390723e-018 0.625
    vertex 2.24312363274469 5.89805981832114e-017 0.526912058681628
    vertex 2.21478625391711 3.81639164714898e-017 0.542248413279134
  endloop
endfacet
facet normal 0.0 1.0 -1.17961196366423e-016
  outer loop
    vertex 4.25 6.93889390390723e-018 0.625
    vertex 2.2689039916484 5.89805981832114e-017 0.507583739925094
    vertex 2.24312363274469 5.89805981832114e-017 0.526912058681628
  endloop
endfacet
facet normal 0.0 1.0 -1.17961196366423e-016
  outer loop
    vertex 4.25 6.93889390390723e-018 0.625
    vertex 2.29156926371285 3.46944695195361e-017 0.484681856740445
    vertex 2.2689039916484 5.89805981832114e-017 0.507583739925094
  endloop
endfacet
facet normal 0.0 1.0 -1.17961196366423e-016
  outer loop
    vertex 4.25 6.93889390390723e-018 0.625
    vertex 2.31062881424535 5.72458747072346e-017 0.45870216573656
    vertex 2.29156926371285 3.46944695195361e-017 0.484681856740445
  endloop
endfacet
facet normal 0.0 1.0 -1.17961196366423e-016
  outer loop
    vertex 4.25 6.93889390390723e-018 0.625
    vertex 2.32567006153538 3.46944695195361e-017 0.430207048766833
    vertex 2.31062881424535 5.72458747072346e-017 0.45870216573656
  endloop
endfacet
facet normal 0.0 1.0 -1.17961196366423e-016
  outer loop
    vertex 4.25 6.93889390390723e-018 0.625
    vertex 2.33636740800262 3.64291929955129e-017 0.399813339060415
    vertex 2.32567006153538 3.46944695195361e-017 0.430207048766833
  endloop
endfacet
facet normal 0.0 1.0 -1.17961196366423e-016
  outer loop
    vertex 2.33636740800262 3.64291929955129e-017 0.399813339060415
    vertex 3.09885810893238 7.11236625150491e-017 0.443023932559591
    vertex 2.34248928840129 -2.08166817117217e-017 0.368178968645585
  endloop
endfacet
facet normal 0.0 1.0 -1.17961196366423e-016
  outer loop
    vertex 3.09885810893238 7.11236625150491e-017 0.443023932559591
    vertex 2.33636740800262 3.64291929955129e-017 0.399813339060415
    vertex 3.12454637181361 9.71445146547012e-017 0.450251000549897
  endloop
endfacet
facet normal 0.0 1.0 -1.17961196366423e-016
  outer loop
    vertex 3.12454637181361 9.71445146547012e-017 0.450251000549897
    vertex 2.33636740800262 3.64291929955129e-017 0.399813339060415
    vertex 4.25 6.93889390390723e-018 0.625
  endloop
endfacet
facet normal 0.0 1.0 -1.17961196366423e-016
  outer loop
    vertex 3.12454637181361 9.71445146547012e-017 0.450251000549897
    vertex 4.25 6.93889390390723e-018 0.625
    vertex 3.15122082392913 3.29597460435593e-017 0.451019743633174
  endloop
endfacet
facet normal 0.0 1.0 -1.17961196366423e-016
  outer loop
    vertex 4.25 6.93889390390723e-018 0.625
    vertex 3.1772826654757 3.98986399474666e-017 0.44528408527578
    vertex 3.15122082392913 3.29597460435593e-017 0.451019743633174
  endloop
endfacet
facet normal 0.0 1.0 -1.17961196366423e-016
  outer loop
    vertex 3.07569572537778 8.67361737988404e-017 0.429771712003751
    vertex 3.05644751636611 -3.12250225675825e-017 0.411288643767273
    vertex 2.34248928840129 -2.08166817117217e-017 0.368178968645585
  endloop
endfacet
facet normal 0.0 1.0 -1.17961196366423e-016
  outer loop
    vertex 3.05644751636611 -3.12250225675825e-017 0.411288643767273
    vertex 3.04226717130203 4.16333634234434e-017 0.38868255663449
    vertex 2.34248928840129 -2.08166817117217e-017 0.368178968645585
  endloop
endfacet
facet normal 0.0 1.0 -1.17961196366423e-016
  outer loop
    vertex 3.04226717130203 4.16333634234434e-017 0.38868255663449
    vertex 3.03400462452723 3.46944695195361e-017 0.363308402808493
    vertex 2.34248928840129 -2.08166817117217e-017 0.368178968645585
  endloop
endfacet
facet normal 0.0 1.0 -1.17961196366423e-016
  outer loop
    vertex 4.25 6.93889390390723e-018 0.625
    vertex 3.20116981499213 3.12250225675825e-017 0.433387806463865
    vertex 3.1772826654757 3.98986399474666e-017 0.44528408527578
  endloop
endfacet
facet normal 0.0 1.0 -1.17961196366423e-016
  outer loop
    vertex 4.25 6.93889390390723e-018 0.625
    vertex 3.2214505366069 3.98986399474666e-017 0.416043940332713
    vertex 3.20116981499213 3.12250225675825e-017 0.433387806463865
  endloop
endfacet
facet normal 0.0 1.0 -1.17961196366423e-016
  outer loop
    vertex 4.25 6.93889390390723e-018 0.625
    vertex 3.2369092546978 8.32667268468867e-017 0.394292034747747
    vertex 3.2214505366069 3.98986399474666e-017 0.416043940332713
  endloop
endfacet
facet normal 0.0 1.0 -1.17961196366423e-016
  outer loop
    vertex 4.25 6.93889390390723e-018 0.625
    vertex 3.24661941244803 2.77555756156289e-017 0.369435844410992
    vertex 3.2369092546978 8.32667268468867e-017 0.394292034747747
  endloop
endfacet
facet normal 0.0 1.0 -1.17961196366423e-016
  outer loop
    vertex 4.25 6.93889390390723e-018 0.625
    vertex 3.24999900733946 4.5102810375397e-017 0.342965187071949
    vertex 3.24661941244803 2.77555756156289e-017 0.369435844410992
  endloop
endfacet
facet normal 6.13739836060981e-016 1.0 -2.33146835171283e-015
  outer loop
    vertex 4.25 6.93889390390723e-018 0.625
    vertex 3.96351001407131 -9.71445146547012e-017 0.49393997733643
    vertex 3.24999900733946 4.5102810375397e-017 0.342965187071949
  endloop
endfacet
facet normal 6.13739836060981e-016 1.0 -2.33146835171283e-015
  outer loop
    vertex 3.96351001407131 -9.71445146547012e-017 0.49393997733643
    vertex 4.25 6.93889390390723e-018 0.625
    vertex 3.9901474551114 -6.24500451351651e-017 0.499975481973586
  endloop
endfacet
facet normal 1.83218014606762e-016 1.0 -2.28983498828939e-016
  outer loop
    vertex 3.9412099151265 -5.55111512312578e-017 0.47817019076714
    vertex 3.92664214619041 -8.15320033709099e-017 0.455066929317419
    vertex 3.24999900733946 4.5102810375397e-017 0.342965187071949
  endloop
endfacet
facet normal 3.57621354457422e-016 1.0 9.22872889219661e-016
  outer loop
    vertex 0.221745191696717 -4.38885039422132e-016 0.370120213135882
    vertex 0.247419927019927 -3.76434994286967e-016 0.360804176023864
    vertex 0.0 0.0 0.0
  endloop
endfacet
facet normal 7.08881151729016e-016 1.0 7.56339435525888e-016
  outer loop
    vertex 0.201589922287026 -4.64905891561784e-016 0.388552404986342
    vertex 0.221745191696717 -4.38885039422132e-016 0.370120213135882
    vertex 0.0 0.0 0.0
  endloop
endfacet
facet normal 1.3538080687539e-015 1.0 3.46944695195361e-016
  outer loop
    vertex 0.18800069720701 -3.97251675998689e-016 0.430312423583253
    vertex 0.201589922287026 -4.64905891561784e-016 0.388552404986342
    vertex 0.0 0.0 0.0
  endloop
endfacet
facet normal -3.40150363529399e-016 1.0 1.46585035077872e-015
  outer loop
    vertex 0.274705382545753 -3.67761376907083e-016 0.362022575850507
    vertex 0.899943080564844 -5.49289711353283e-017 0.28952126617947
    vertex 1.04562155296049 3.81639164714898e-017 0.253819830565906
  endloop
endfacet
facet normal -3.40150363529399e-016 1.0 1.46585035077872e-015
  outer loop
    vertex 0.899943080564844 -5.49289711353283e-017 0.28952126617947
    vertex 0.274705382545753 -3.67761376907083e-016 0.362022575850507
    vertex 0.299447595013658 -3.92047505570758e-016 0.373589922287026
  endloop
endfacet
facet normal -2.60433595671642e-016 1.0 2.17953600704015e-015
  outer loop
    vertex 0.299447595013658 -3.92047505570758e-016 0.373589922287026
    vertex 0.844481551938313 -9.53046072526813e-017 0.303113227714544
    vertex 0.899943080564844 -5.49289711353283e-017 0.28952126617947
  endloop
endfacet
facet normal -2.60433595671642e-016 1.0 2.17953600704015e-015
  outer loop
    vertex 0.844481551938313 -9.53046072526813e-017 0.303113227714544
    vertex 0.299447595013658 -3.92047505570758e-016 0.373589922287026
    vertex 0.317879786864118 -4.31946145518225e-016 0.393745191696717
  endloop
endfacet
facet normal -6.01803695141652e-016 1.0 2.17700790194256e-016
  outer loop
    vertex 0.32799930279299 -4.33680868994202e-016 0.429687576416747
    vertex 0.844481551938313 -9.53046072526813e-017 0.303113227714544
    vertex 0.317879786864118 -4.31946145518225e-016 0.393745191696717
  endloop
endfacet
facet normal -7.47497376535513e-016 1.0 -5.41233724504764e-016
  outer loop
    vertex 0.32799930279299 -4.33680868994202e-016 0.429687576416747
    vertex 1.01130165736207 2.25514051876985e-017 0.294167465969583
    vertex 1.02597340206979 1.90819582357449e-017 0.271877170573991
  endloop
endfacet
facet normal -6.82844858034425e-016 1.0 -2.84494650060196e-016
  outer loop
    vertex 0.32799930279299 -4.33680868994202e-016 0.429687576416747
    vertex 1.00001692319631 -5.20417042793042e-018 0.340579330741523
    vertex 1.01130165736207 2.25514051876985e-017 0.294167465969583
  endloop
endfacet
facet normal 0.0 1.0 -1.17961196366423e-016
  outer loop
    vertex 1.17114473149873 8.67361737988404e-018 0.252950950049981
    vertex 1.96560790930198 2.94902990916057e-017 0.192316241148008
    vertex 1.14752368750813 1.82145964977565e-017 0.240534684815001
  endloop
endfacet
facet normal 0.0 1.0 -1.17961196366423e-016
  outer loop
    vertex 1.19104097604217 3.46944695195361e-017 0.270734560894203
    vertex 1.96560790930198 2.94902990916057e-017 0.192316241148008
    vertex 1.17114473149873 8.67361737988404e-018 0.252950950049981
  endloop
endfacet
facet normal 0.0 1.0 -1.17961196366423e-016
  outer loop
    vertex 1.20601989010825 1.56125112837913e-017 0.292819612286313
    vertex 1.96560790930198 2.94902990916057e-017 0.192316241148008
    vertex 1.19104097604217 3.46944695195361e-017 0.270734560894203
  endloop
endfacet
facet normal 0.0 1.0 -1.17961196366423e-016
  outer loop
    vertex 1.21518367513084 3.64291929955129e-017 0.3178823815996
    vertex 1.96560790930198 2.94902990916057e-017 0.192316241148008
    vertex 1.20601989010825 1.56125112837913e-017 0.292819612286313
  endloop
endfacet
facet normal 0.0 1.0 -1.17961196366423e-016
  outer loop
    vertex 1.21518367513084 3.64291929955129e-017 0.3178823815996
    vertex 1.9452965538155 2.34187669256869e-017 0.217329430657947
    vertex 1.96560790930198 2.94902990916057e-017 0.192316241148008
  endloop
endfacet
facet normal 0.0 1.0 -1.17961196366423e-016
  outer loop
    vertex 1.9452965538155 2.34187669256869e-017 0.217329430657947
    vertex 1.21518367513084 3.64291929955129e-017 0.3178823815996
    vertex 1.21551429355799 3.98986399474666e-017 0.365645307685177
  endloop
endfacet
facet normal 0.0 1.0 -1.17961196366423e-016
  outer loop
    vertex 1.21551429355799 3.98986399474666e-017 0.365645307685177
    vertex 1.92887523524716 3.81639164714898e-017 0.245052184987838
    vertex 1.9452965538155 2.34187669256869e-017 0.217329430657947
  endloop
endfacet
facet normal 0.0 1.0 -1.17961196366423e-016
  outer loop
    vertex 1.21551429355799 3.98986399474666e-017 0.365645307685177
    vertex 1.91669942555275 0.0 0.274884390227206
    vertex 1.92887523524716 3.81639164714898e-017 0.245052184987838
  endloop
endfacet
facet normal 0.0 1.0 -1.17961196366423e-016
  outer loop
    vertex 1.21551429355799 3.98986399474666e-017 0.365645307685177
    vertex 1.90903269424206 4.5102810375397e-017 0.306180269223776
    vertex 1.91669942555275 0.0 0.274884390227206
  endloop
endfacet
facet normal 0.0 1.0 -1.17961196366423e-016
  outer loop
    vertex 1.21551429355799 3.98986399474666e-017 0.365645307685177
    vertex 1.90667998902853 1.56125112837913e-017 0.359744500845738
    vertex 1.90903269424206 4.5102810375397e-017 0.306180269223776
  endloop
endfacet
facet normal 0.0 1.0 -1.17961196366423e-016
  outer loop
    vertex 2.28282385513392 1.90819582357449e-017 0.190669071824389
    vertex 4.25 0.0 0.0
    vertex 2.25883742608235 -1.73472347597681e-018 0.169154843218361
  endloop
endfacet
facet normal 0.0 1.0 -1.17961196366423e-016
  outer loop
    vertex 2.30339387433876 2.86229373536173e-017 0.21546998150671
    vertex 4.25 0.0 0.0
    vertex 2.28282385513392 1.90819582357449e-017 0.190669071824389
  endloop
endfacet
facet normal 0.0 1.0 -1.17961196366423e-016
  outer loop
    vertex 2.32010220490111 2.25514051876985e-017 0.243020707467702
    vertex 4.25 0.0 0.0
    vertex 2.30339387433876 2.86229373536173e-017 0.21546998150671
  endloop
endfacet
facet normal 0.0 1.0 -1.17961196366423e-016
  outer loop
    vertex 2.33258716192226 4.5102810375397e-017 0.272724859691563
    vertex 4.25 0.0 0.0
    vertex 2.32010220490111 2.25514051876985e-017 0.243020707467702
  endloop
endfacet
facet normal 0.0 1.0 -1.17961196366423e-016
  outer loop
    vertex 2.3405784837864 -1.56125112837913e-017 0.303939432987092
    vertex 4.25 0.0 0.0
    vertex 2.33258716192226 4.5102810375397e-017 0.272724859691563
  endloop
endfacet
facet normal 0.0 1.0 -1.17961196366423e-016
  outer loop
    vertex 2.3439031825084 3.64291929955129e-017 0.335988726108255
    vertex 4.25 0.0 0.0
    vertex 2.3405784837864 -1.56125112837913e-017 0.303939432987092
  endloop
endfacet
facet normal 0.0 1.0 -1.17961196366423e-016
  outer loop
    vertex 2.34248928840129 -2.08166817117217e-017 0.368178968645585
    vertex 3.05372828799625 1.73472347597681e-018 0.27719572537778
    vertex 3.07221135623273 4.68375338513738e-017 0.25794751636611
  endloop
endfacet
facet normal 0.0 1.0 -1.17961196366423e-016
  outer loop
    vertex 2.34248928840129 -2.08166817117217e-017 0.368178968645585
    vertex 3.04047606744041 1.38777878078145e-017 0.300358108932385
    vertex 3.05372828799625 1.73472347597681e-018 0.27719572537778
  endloop
endfacet
facet normal 0.0 1.0 -1.17961196366423e-016
  outer loop
    vertex 2.34248928840129 -2.08166817117217e-017 0.368178968645585
    vertex 3.0332489994501 4.16333634234434e-017 0.326046371813606
    vertex 3.04047606744041 1.38777878078145e-017 0.300358108932385
  endloop
endfacet
facet normal 0.0 1.0 -1.17961196366423e-016
  outer loop
    vertex 2.34248928840129 -2.08166817117217e-017 0.368178968645585
    vertex 3.03400462452723 3.46944695195361e-017 0.363308402808493
    vertex 3.0332489994501 4.16333634234434e-017 0.326046371813606
  endloop
endfacet
facet normal 0.0 1.0 -1.17961196366423e-016
  outer loop
    vertex 3.1730858979394 6.93889390390723e-018 0.238329490001141
    vertex 4.25 0.0 0.0
    vertex 3.14681295452789 2.86229373536173e-017 0.233655112386219
  endloop
endfacet
facet normal 0.0 1.0 -1.17961196366423e-016
  outer loop
    vertex 3.19743569304817 3.98986399474666e-017 0.249247586893566
    vertex 4.25 0.0 0.0
    vertex 3.1730858979394 6.93889390390723e-018 0.238329490001141
  endloop
endfacet
facet normal 0.0 1.0 -1.17961196366423e-016
  outer loop
    vertex 3.21840287416543 2.94902990916057e-017 0.265754999700759
    vertex 4.25 0.0 0.0
    vertex 3.19743569304817 3.98986399474666e-017 0.249247586893566
  endloop
endfacet
facet normal 0.0 1.0 -1.17961196366423e-016
  outer loop
    vertex 3.23473072100694 4.68375338513738e-017 0.286862315473058
    vertex 4.25 0.0 0.0
    vertex 3.21840287416543 2.94902990916057e-017 0.265754999700759
  endloop
endfacet
facet normal 0.0 1.0 -1.17961196366423e-016
  outer loop
    vertex 3.24544058335695 1.38777878078145e-017 0.311304414606217
    vertex 4.25 0.0 0.0
    vertex 3.23473072100694 4.68375338513738e-017 0.286862315473058
  endloop
endfacet
facet normal 0.0 1.0 -1.17961196366423e-016
  outer loop
    vertex 3.24999900733946 4.5102810375397e-017 0.342965187071949
    vertex 4.25 0.0 0.0
    vertex 3.24544058335695 1.38777878078145e-017 0.311304414606217
  endloop
endfacet
facet normal 1.56571409724165e-016 1.0 -6.24500451351651e-017
  outer loop
    vertex 3.92457172721858 -9.71445146547012e-017 0.411200318361355
    vertex 3.93689872556151 -7.11236625150491e-017 0.386827676049884
    vertex 3.24999900733946 4.5102810375397e-017 0.342965187071949
  endloop
endfacet
facet normal 1.65371186791632e-016 1.0 -1.17961196366423e-016
  outer loop
    vertex 3.92664214619041 -8.15320033709099e-017 0.455066929317419
    vertex 3.92457172721858 -9.71445146547012e-017 0.411200318361355
    vertex 3.24999900733946 4.5102810375397e-017 0.342965187071949
  endloop
endfacet
facet normal -1.16123813360665e-016 1.0 2.0122792321331e-016
  outer loop
    vertex 4.03517232395012 -9.0205620750794e-017 0.374898725561506
    vertex 4.25 0.0 0.0
    vertex 4.01079968163865 -1.04083408558608e-016 0.36257172721858
  endloop
endfacet
facet normal 0.0 1.17961196366423e-016 1.0
  outer loop
    vertex 4.25 6.93889390390723e-018 0.625
    vertex 0.0 6.93889390390723e-018 0.625
    vertex 0.915 -0.125 0.625
  endloop
endfacet
facet normal 0.0 1.17961196366423e-016 1.0
  outer loop
    vertex 0.915 -0.125 0.625
    vertex 0.0 6.93889390390723e-018 0.625
    vertex 0.0 -0.3125 0.625
  endloop
endfacet
facet normal 0.0 1.17961196366423e-016 1.0
  outer loop
    vertex 0.915 -0.125 0.625
    vertex 0.0 -0.3125 0.625
    vertex 0.915 -0.3125 0.625
  endloop
endfacet
facet normal 0.0 1.17961196366423e-016 1.0
  outer loop
    vertex 4.25 6.93889390390723e-018 0.625
    vertex 3.335 -0.125 0.625
    vertex 4.25 -0.3125 0.625
  endloop
endfacet
facet normal 0.0 1.17961196366423e-016 1.0
  outer loop
    vertex 4.25 6.93889390390723e-018 0.625
    vertex 0.915 -0.125 0.625
    vertex 3.335 -0.125 0.625
  endloop
endfacet
facet normal 0.0 1.17961196366423e-016 1.0
  outer loop
    vertex 4.25 -0.3125 0.625
    vertex 3.335 -0.125 0.625
    vertex 3.335 -0.3125 0.625
  endloop
endfacet
facet normal 1.0 0.0 0.0
  outer loop
    vertex 4.25 6.93889390390723e-018 0.625
    vertex 4.25 -0.125 0.25
    vertex 4.25 -0.125 7.80625564189563e-018
  endloop
endfacet
facet normal 1.0 0.0 0.0
  outer loop
    vertex 4.25 6.93889390390723e-018 0.625
    vertex 4.25 -0.3125 0.25
    vertex 4.25 -0.125 0.25
  endloop
endfacet
facet normal 1.0 0.0 0.0
  outer loop
    vertex 4.25 6.93889390390723e-018 0.625
    vertex 4.25 -0.3125 0.625
    vertex 4.25 -0.3125 0.25
  endloop
endfacet
facet normal 0.0 -1.17961196366423e-016 -1.0
  outer loop
    vertex 4.25 -0.125 7.80625564189563e-018
    vertex 0.0 0.0 0.0
    vertex 4.25 0.0 0.0
  endloop
endfacet
facet normal 0.0 -1.17961196366423e-016 -1.0
  outer loop
    vertex 4.25 -0.125 7.80625564189563e-018
    vertex 0.0 -0.125 7.80625564189563e-018
    vertex 0.0 0.0 0.0
  endloop
endfacet
facet normal -1.0 0.0 0.0
  outer loop
    vertex 0.0 -0.125 0.25
    vertex 0.0 -0.3125 0.25
    vertex 0.0 -0.3125 0.625
  endloop
endfacet
facet normal -1.0 0.0 0.0
  outer loop
    vertex 0.0 0.0 0.0
    vertex 0.0 -0.125 7.80625564189563e-018
    vertex 0.0 -0.125 0.25
  endloop
endfacet
facet normal -1.0 0.0 0.0
  outer loop
    vertex 0.0 6.93889390390723e-018 0.625
    vertex 0.0 -0.125 0.25
    vertex 0.0 -0.3125 0.625
  endloop
endfacet
facet normal 0.0 -1.0 1.17961196366423e-016
  outer loop
    vertex 0.203691607789886 -0.3125 0.385834419107721
    vertex 0.0 -0.3125 0.625
    vertex 0.0 -0.3125 0.25
  endloop
endfacet
facet normal 0.0 -1.0 1.17961196366423e-016
  outer loop
    vertex 0.0 -0.3125 0.625
    vertex 0.203691607789886 -0.3125 0.385834419107721
    vertex 0.190924151905225 -0.3125 0.409979245709348
  endloop
endfacet
facet normal 0.0 -1.0 1.17961196366423e-016
  outer loop
    vertex 0.0 -0.3125 0.625
    vertex 0.190924151905225 -0.3125 0.409979245709348
    vertex 0.189406664999609 -0.3125 0.443962606974494
  endloop
endfacet
facet normal 0.0 -1.0 1.17961196366423e-016
  outer loop
    vertex 0.278020754290652 -0.3125 0.362924151905225
    vertex 0.0 -0.3125 0.25
    vertex 0.915 -0.3125 0.25
  endloop
endfacet
facet normal 0.0 -1.0 1.17961196366423e-016
  outer loop
    vertex 0.0 -0.3125 0.25
    vertex 0.278020754290652 -0.3125 0.362924151905225
    vertex 0.250827949336863 -0.3125 0.360368385848916
  endloop
endfacet
facet normal 0.0 -1.0 1.17961196366423e-016
  outer loop
    vertex 0.224727024081735 -0.3125 0.368413401834956
    vertex 0.0 -0.3125 0.25
    vertex 0.250827949336863 -0.3125 0.360368385848916
  endloop
endfacet
facet normal 0.0 -1.0 1.17961196366423e-016
  outer loop
    vertex 0.656845574736446 -0.3125 0.33600380325053
    vertex 0.302165580892279 -0.3125 0.375691607789886
    vertex 0.915 -0.3125 0.25
  endloop
endfacet
facet normal 0.0 -1.0 1.17961196366423e-016
  outer loop
    vertex 0.302165580892279 -0.3125 0.375691607789886
    vertex 0.656845574736446 -0.3125 0.33600380325053
    vertex 0.629523508935615 -0.3125 0.339805790535548
  endloop
endfacet
facet normal 0.0 -1.0 1.17961196366423e-016
  outer loop
    vertex 0.302165580892279 -0.3125 0.375691607789886
    vertex 0.629523508935615 -0.3125 0.339805790535548
    vertex 0.604481580767226 -0.3125 0.351375242577441
  endloop
endfacet
facet normal 0.0 -1.0 1.17961196366423e-016
  outer loop
    vertex 0.302165580892279 -0.3125 0.375691607789886
    vertex 0.604481580767226 -0.3125 0.351375242577441
    vertex 0.319586598165044 -0.3125 0.396727024081735
  endloop
endfacet
facet normal 0.0 -1.0 1.17961196366423e-016
  outer loop
    vertex 0.327631614151084 -0.3125 0.422827949336863
    vertex 0.319586598165044 -0.3125 0.396727024081735
    vertex 0.604481580767226 -0.3125 0.351375242577441
  endloop
endfacet
facet normal 0.0 -1.0 1.17961196366423e-016
  outer loop
    vertex 0.915 -0.3125 0.625
    vertex 0.244650233928917 -0.3125 0.498715236635315
    vertex 0.271962606974494 -0.3125 0.498593335000391
  endloop
endfacet
facet normal 0.0 -1.0 1.17961196366423e-016
  outer loop
    vertex 0.244650233928917 -0.3125 0.498715236635315
    vertex 0.915 -0.3125 0.625
    vertex 0.0 -0.3125 0.625
  endloop
endfacet
facet normal 0.0 -1.0 1.17961196366423e-016
  outer loop
    vertex 0.915 -0.3125 0.625
    vertex 0.297149299679552 -0.3125 0.488028719911787
    vertex 0.316375866397684 -0.3125 0.468629758248269
  endloop
endfacet
facet normal 0.0 -1.0 1.17961196366423e-016
  outer loop
    vertex 0.599327358974663 -0.3125 0.504994744877314
    vertex 0.316375866397684 -0.3125 0.468629758248269
    vertex 0.327631614151084 -0.3125 0.422827949336863
  endloop
endfacet
facet normal 0.0 -1.0 1.17961196366423e-016
  outer loop
    vertex 0.316375866397684 -0.3125 0.468629758248269
    vertex 0.599327358974663 -0.3125 0.504994744877314
    vertex 0.623537489182875 -0.3125 0.518216695650246
  endloop
endfacet
facet normal 0.0 -1.0 1.17961196366423e-016
  outer loop
    vertex 0.316375866397684 -0.3125 0.468629758248269
    vertex 0.623537489182875 -0.3125 0.518216695650246
    vertex 0.915 -0.3125 0.625
  endloop
endfacet
facet normal 0.0 -1.0 1.17961196366423e-016
  outer loop
    vertex 0.915 -0.3125 0.625
    vertex 0.623537489182875 -0.3125 0.518216695650246
    vertex 0.650543269025237 -0.3125 0.523841483828151
  endloop
endfacet
facet normal 0.0 -1.0 1.17961196366423e-016
  outer loop
    vertex 0.915 -0.3125 0.625
    vertex 0.749626460187949 -0.3125 0.421628264655733
    vertex 0.915 -0.3125 0.25
  endloop
endfacet
facet normal 0.0 -1.17961196366423e-016 -1.0
  outer loop
    vertex 0.915 -0.3125 0.25
    vertex 0.0 -0.125 0.25
    vertex 0.915 -0.125 0.25
  endloop
endfacet
facet normal 0.0 -1.17961196366423e-016 -1.0
  outer loop
    vertex 0.915 -0.3125 0.25
    vertex 0.0 -0.3125 0.25
    vertex 0.0 -0.125 0.25
  endloop
endfacet
facet normal 1.0 0.0 0.0
  outer loop
    vertex 0.915 -0.125 0.25
    vertex 0.915 -0.125 0.625
    vertex 0.915 -0.3125 0.25
  endloop
endfacet
facet normal 1.0 0.0 0.0
  outer loop
    vertex 0.915 -0.125 0.625
    vertex 0.915 -0.3125 0.625
    vertex 0.915 -0.3125 0.25
  endloop
endfacet
facet normal 0.0 -1.0 1.17961196366423e-016
  outer loop
    vertex 1.00374969399308 -0.125 0.314156163184055
    vertex 0.915 -0.125 0.625
    vertex 0.915 -0.125 0.25
  endloop
endfacet
facet normal 0.0 -1.0 1.17961196366423e-016
  outer loop
    vertex 0.915 -0.125 0.625
    vertex 1.00374969399308 -0.125 0.314156163184055
    vertex 1.00001692319631 -0.125 0.340579330741523
  endloop
endfacet
facet normal 0.0 -1.0 1.17961196366423e-016
  outer loop
    vertex 1.1754638390673 -0.125 0.256108113248775
    vertex 1.15248048491758 -0.125 0.242547774255235
    vertex 1.96560790930198 -0.125 0.192316241148008
  endloop
endfacet
facet normal 0.0 -1.0 1.17961196366423e-016
  outer loop
    vertex 1.19446351728757 -0.125 0.274846565402502
    vertex 1.1754638390673 -0.125 0.256108113248775
    vertex 1.96560790930198 -0.125 0.192316241148008
  endloop
endfacet
facet normal 0.0 -1.0 1.17961196366423e-016
  outer loop
    vertex 1.20834072648644 -0.125 0.297639994860172
    vertex 1.19446351728757 -0.125 0.274846565402502
    vertex 1.96560790930198 -0.125 0.192316241148008
  endloop
endfacet
facet normal 0.0 -1.0 1.17961196366423e-016
  outer loop
    vertex 1.21626370152624 -0.125 0.323122220589296
    vertex 1.96560790930198 -0.125 0.192316241148008
    vertex 1.9452965538155 -0.125 0.217329430657947
  endloop
endfacet
facet normal 0.0 -1.0 1.17961196366423e-016
  outer loop
    vertex 1.21626370152624 -0.125 0.323122220589296
    vertex 1.9452965538155 -0.125 0.217329430657947
    vertex 1.92887523524716 -0.125 0.245052184987838
  endloop
endfacet
facet normal 0.0 -1.0 1.17961196366423e-016
  outer loop
    vertex 1.21626370152624 -0.125 0.323122220589296
    vertex 1.92887523524716 -0.125 0.245052184987838
    vertex 1.91669942555275 -0.125 0.274884390227206
  endloop
endfacet
facet normal 0.0 -1.0 1.17961196366423e-016
  outer loop
    vertex 1.21626370152624 -0.125 0.323122220589296
    vertex 1.91669942555275 -0.125 0.274884390227206
    vertex 1.90903269424206 -0.125 0.306180269223776
  endloop
endfacet
facet normal 0.0 -1.0 1.17961196366423e-016
  outer loop
    vertex 1.90604100289498 -0.125 0.338262360708623
    vertex 1.21626370152624 -0.125 0.323122220589296
    vertex 1.90903269424206 -0.125 0.306180269223776
  endloop
endfacet
facet normal 0.0 -1.0 1.17961196366423e-016
  outer loop
    vertex 2.28282385513392 -0.125 0.190669071824389
    vertex 2.25883742608235 -0.125 0.169154843218361
    vertex 4.25 -0.125 7.80625564189563e-018
  endloop
endfacet
facet normal 0.0 -1.0 1.17961196366423e-016
  outer loop
    vertex 2.30339387433876 -0.125 0.21546998150671
    vertex 2.28282385513392 -0.125 0.190669071824389
    vertex 4.25 -0.125 7.80625564189563e-018
  endloop
endfacet
facet normal 0.0 -1.0 1.17961196366423e-016
  outer loop
    vertex 2.32010220490111 -0.125 0.243020707467702
    vertex 2.30339387433876 -0.125 0.21546998150671
    vertex 4.25 -0.125 7.80625564189563e-018
  endloop
endfacet
facet normal 0.0 -1.0 1.17961196366423e-016
  outer loop
    vertex 2.33258716192226 -0.125 0.272724859691563
    vertex 2.32010220490111 -0.125 0.243020707467702
    vertex 4.25 -0.125 7.80625564189563e-018
  endloop
endfacet
facet normal 0.0 -1.0 1.17961196366423e-016
  outer loop
    vertex 2.3405784837864 -0.125 0.303939432987092
    vertex 2.33258716192226 -0.125 0.272724859691563
    vertex 4.25 -0.125 7.80625564189563e-018
  endloop
endfacet
facet normal 0.0 -1.0 1.17961196366423e-016
  outer loop
    vertex 2.3439031825084 -0.125 0.335988726108255
    vertex 2.3405784837864 -0.125 0.303939432987092
    vertex 4.25 -0.125 7.80625564189563e-018
  endloop
endfacet
facet normal 0.0 -1.0 1.17961196366423e-016
  outer loop
    vertex 2.3439031825084 -0.125 0.335988726108255
    vertex 3.06425499970076 -0.125 0.265097125834569
    vertex 3.04774758689357 -0.125 0.286064306951833
  endloop
endfacet
facet normal 0.0 -1.0 1.17961196366423e-016
  outer loop
    vertex 2.3439031825084 -0.125 0.335988726108255
    vertex 3.04774758689357 -0.125 0.286064306951833
    vertex 3.03682949000114 -0.125 0.310414102060598
  endloop
endfacet
facet normal 0.0 -1.0 1.17961196366423e-016
  outer loop
    vertex 3.03215511238622 -0.125 0.336687045472107
    vertex 2.3439031825084 -0.125 0.335988726108255
    vertex 3.03682949000114 -0.125 0.310414102060598
  endloop
endfacet
facet normal 0.0 -1.0 1.17961196366423e-016
  outer loop
    vertex 3.03400462452723 -0.125 0.363308402808493
    vertex 2.3439031825084 -0.125 0.335988726108255
    vertex 3.03215511238622 -0.125 0.336687045472107
  endloop
endfacet
facet normal 0.0 -1.0 1.17961196366423e-016
  outer loop
    vertex 3.18802360489917 -0.125 0.244164957506052
    vertex 3.1627209000741 -0.125 0.235686131518556
    vertex 4.25 -0.125 7.80625564189563e-018
  endloop
endfacet
facet normal 0.0 -1.0 1.17961196366423e-016
  outer loop
    vertex 3.22882593523419 -0.125 0.277943008897254
    vertex 3.21050783270604 -0.125 0.258537739474758
    vertex 3.335 -0.125 0.25
  endloop
endfacet
facet normal 0.0 -1.0 1.17961196366423e-016
  outer loop
    vertex 3.335 -0.125 0.25
    vertex 4.25 -0.125 7.80625564189563e-018
    vertex 4.25 -0.125 0.25
  endloop
endfacet
facet normal 0.0 -1.0 1.17961196366423e-016
  outer loop
    vertex 3.335 -0.125 0.625
    vertex 2.2244792925323 -0.125 0.537602204901108
    vertex 2.25203001849329 -0.125 0.520893874338764
  endloop
endfacet
facet normal 0.0 -1.0 1.17961196366423e-016
  outer loop
    vertex 2.2244792925323 -0.125 0.537602204901108
    vertex 3.335 -0.125 0.625
    vertex 2.19477514030844 -0.125 0.550087161922259
  endloop
endfacet
facet normal 0.0 -1.0 1.17961196366423e-016
  outer loop
    vertex 2.19477514030844 -0.125 0.550087161922259
    vertex 3.335 -0.125 0.625
    vertex 2.16356056701291 -0.125 0.5580784837864
  endloop
endfacet
facet normal 0.0 -1.0 1.17961196366423e-016
  outer loop
    vertex 2.16356056701291 -0.125 0.5580784837864
    vertex 3.335 -0.125 0.625
    vertex 2.13151127389174 -0.125 0.561403182508402
  endloop
endfacet
facet normal 0.0 -1.0 1.17961196366423e-016
  outer loop
    vertex 2.06768666093958 -0.125 0.553867408002619
    vertex 0.915 -0.125 0.625
    vertex 2.03729295123316 -0.125 0.543170061535377
  endloop
endfacet
facet normal 0.0 -1.0 1.17961196366423e-016
  outer loop
    vertex 0.915 -0.125 0.625
    vertex 2.06768666093958 -0.125 0.553867408002619
    vertex 2.09932103135441 -0.125 0.559989288401289
  endloop
endfacet
facet normal 0.0 -1.0 1.17961196366423e-016
  outer loop
    vertex 0.915 -0.125 0.625
    vertex 2.09932103135441 -0.125 0.559989288401289
    vertex 2.13151127389174 -0.125 0.561403182508402
  endloop
endfacet
facet normal 0.0 -1.0 1.17961196366423e-016
  outer loop
    vertex 0.915 -0.125 0.625
    vertex 2.13151127389174 -0.125 0.561403182508402
    vertex 3.335 -0.125 0.625
  endloop
endfacet
facet normal 0.0 -1.0 1.17961196366423e-016
  outer loop
    vertex 2.00879783426344 -0.125 0.528128814245344
    vertex 1.12309125765311 -0.125 0.450585320269468
    vertex 1.14893155088431 -0.125 0.443922242353309
  endloop
endfacet
facet normal 0.0 -1.0 1.17961196366423e-016
  outer loop
    vertex 1.12309125765311 -0.125 0.450585320269468
    vertex 2.00879783426344 -0.125 0.528128814245344
    vertex 1.09640636975636 -0.125 0.450770034992543
  endloop
endfacet
facet normal 0.0 -1.0 1.17961196366423e-016
  outer loop
    vertex 1.09640636975636 -0.125 0.450770034992543
    vertex 2.00879783426344 -0.125 0.528128814245344
    vertex 0.915 -0.125 0.625
  endloop
endfacet
facet normal 0.0 -1.0 1.17961196366423e-016
  outer loop
    vertex 0.915 -0.125 0.625
    vertex 2.00879783426344 -0.125 0.528128814245344
    vertex 2.03729295123316 -0.125 0.543170061535377
  endloop
endfacet
facet normal 0.0 -1.0 1.17961196366423e-016
  outer loop
    vertex 2.00879783426344 -0.125 0.528128814245344
    vertex 1.14893155088431 -0.125 0.443922242353309
    vertex 1.17237844703951 -0.125 0.431180169434094
  endloop
endfacet
facet normal 0.0 -1.0 1.17961196366423e-016
  outer loop
    vertex 2.00879783426344 -0.125 0.528128814245344
    vertex 1.17237844703951 -0.125 0.431180169434094
    vertex 1.20149048164391 -0.125 0.400175911828742
  endloop
endfacet
facet normal 0.0 -1.0 1.17961196366423e-016
  outer loop
    vertex 2.00879783426344 -0.125 0.528128814245344
    vertex 1.20149048164391 -0.125 0.400175911828742
    vertex 1.21273276124985 -0.125 0.375974083161195
  endloop
endfacet
facet normal 0.0 -1.0 1.17961196366423e-016
  outer loop
    vertex 1.98281814325955 -0.125 0.509069263712844
    vertex 1.21273276124985 -0.125 0.375974083161195
    vertex 1.21775755914112 -0.125 0.349765901848043
  endloop
endfacet
facet normal 0.0 -1.0 1.17961196366423e-016
  outer loop
    vertex 1.21273276124985 -0.125 0.375974083161195
    vertex 1.98281814325955 -0.125 0.509069263712844
    vertex 2.00879783426344 -0.125 0.528128814245344
  endloop
endfacet
facet normal 0.0 -1.0 1.17961196366423e-016
  outer loop
    vertex 1.98281814325955 -0.125 0.509069263712844
    vertex 1.21775755914112 -0.125 0.349765901848043
    vertex 1.21626370152624 -0.125 0.323122220589296
  endloop
endfacet
facet normal 0.0 -1.0 1.17961196366423e-016
  outer loop
    vertex 1.98281814325955 -0.125 0.509069263712844
    vertex 1.21626370152624 -0.125 0.323122220589296
    vertex 1.95991626007491 -0.125 0.486403991648404
  endloop
endfacet
facet normal 0.0 -1.0 1.17961196366423e-016
  outer loop
    vertex 1.95991626007491 -0.125 0.486403991648404
    vertex 1.21626370152624 -0.125 0.323122220589296
    vertex 1.94058794131837 -0.125 0.460623632744695
  endloop
endfacet
facet normal 0.0 -1.0 1.17961196366423e-016
  outer loop
    vertex 1.94058794131837 -0.125 0.460623632744695
    vertex 1.21626370152624 -0.125 0.323122220589296
    vertex 1.92525158672087 -0.125 0.432286253917113
  endloop
endfacet
facet normal 0.0 -1.0 1.17961196366423e-016
  outer loop
    vertex 1.92525158672087 -0.125 0.432286253917113
    vertex 1.21626370152624 -0.125 0.323122220589296
    vertex 1.91423918204472 -0.125 0.402005273840389
  endloop
endfacet
facet normal 0.0 -1.0 1.17961196366423e-016
  outer loop
    vertex 1.91423918204472 -0.125 0.402005273840389
    vertex 1.21626370152624 -0.125 0.323122220589296
    vertex 1.90778911259447 -0.125 0.370436184286756
  endloop
endfacet
facet normal 0.0 -1.0 1.17961196366423e-016
  outer loop
    vertex 1.90778911259447 -0.125 0.370436184286756
    vertex 1.21626370152624 -0.125 0.323122220589296
    vertex 1.90604100289498 -0.125 0.338262360708623
  endloop
endfacet
facet normal 0.0 -1.0 1.17961196366423e-016
  outer loop
    vertex 3.335 -0.125 0.625
    vertex 2.25203001849329 -0.125 0.520893874338764
    vertex 2.27683092817561 -0.125 0.500323855133919
  endloop
endfacet
facet normal 0.0 -1.0 1.17961196366423e-016
  outer loop
    vertex 3.335 -0.125 0.625
    vertex 2.27683092817561 -0.125 0.500323855133919
    vertex 2.31062881424535 -0.125 0.45870216573656
  endloop
endfacet
facet normal 0.0 -1.0 1.17961196366423e-016
  outer loop
    vertex 3.335 -0.125 0.625
    vertex 2.31062881424535 -0.125 0.45870216573656
    vertex 2.32567006153538 -0.125 0.430207048766833
  endloop
endfacet
facet normal 0.0 -1.0 1.17961196366423e-016
  outer loop
    vertex 3.335 -0.125 0.625
    vertex 2.32567006153538 -0.125 0.430207048766833
    vertex 2.33636740800262 -0.125 0.399813339060415
  endloop
endfacet
facet normal 0.0 -1.0 1.17961196366423e-016
  outer loop
    vertex 3.335 -0.125 0.625
    vertex 2.33636740800262 -0.125 0.399813339060415
    vertex 2.34248928840129 -0.125 0.368178968645585
  endloop
endfacet
facet normal 0.0 -1.0 1.17961196366423e-016
  outer loop
    vertex 3.335 -0.125 0.625
    vertex 2.34248928840129 -0.125 0.368178968645585
    vertex 2.3439031825084 -0.125 0.335988726108255
  endloop
endfacet
facet normal 0.0 -1.0 1.17961196366423e-016
  outer loop
    vertex 3.07569572537778 -0.125 0.429771712003751
    vertex 3.335 -0.125 0.625
    vertex 2.3439031825084 -0.125 0.335988726108255
  endloop
endfacet
facet normal 0.0 -1.0 1.17961196366423e-016
  outer loop
    vertex 3.335 -0.125 0.625
    vertex 3.07569572537778 -0.125 0.429771712003751
    vertex 3.09885810893238 -0.125 0.443023932559591
  endloop
endfacet
facet normal 0.0 -1.0 1.17961196366423e-016
  outer loop
    vertex 3.07569572537778 -0.125 0.429771712003751
    vertex 2.3439031825084 -0.125 0.335988726108255
    vertex 3.05644751636611 -0.125 0.411288643767273
  endloop
endfacet
facet normal 0.0 -1.0 1.17961196366423e-016
  outer loop
    vertex 3.05644751636611 -0.125 0.411288643767273
    vertex 2.3439031825084 -0.125 0.335988726108255
    vertex 3.04226717130203 -0.125 0.38868255663449
  endloop
endfacet
facet normal 0.0 -1.0 1.17961196366423e-016
  outer loop
    vertex 3.04226717130203 -0.125 0.38868255663449
    vertex 2.3439031825084 -0.125 0.335988726108255
    vertex 3.03400462452723 -0.125 0.363308402808493
  endloop
endfacet
facet normal 0.0 -1.0 1.17961196366423e-016
  outer loop
    vertex 3.335 -0.125 0.625
    vertex 3.24888751478945 -0.125 0.326966676062228
    vertex 3.335 -0.125 0.25
  endloop
endfacet
facet normal 0.0 -1.0 1.17961196366423e-016
  outer loop
    vertex 3.24888751478945 -0.125 0.326966676062228
    vertex 3.335 -0.125 0.625
    vertex 3.24661941244803 -0.125 0.369435844410992
  endloop
endfacet
facet normal 0.0 -1.0 1.17961196366423e-016
  outer loop
    vertex 3.51701044747117 -0.3125 0.37606848044594
    vertex 3.335 -0.3125 0.625
    vertex 3.335 -0.3125 0.25
  endloop
endfacet
facet normal 0.0 -1.0 1.17961196366423e-016
  outer loop
    vertex 3.335 -0.3125 0.625
    vertex 3.51701044747117 -0.3125 0.37606848044594
    vertex 3.50467009800759 -0.3125 0.400739640979188
  endloop
endfacet
facet normal 0.0 -1.0 1.17961196366423e-016
  outer loop
    vertex 3.61436360085524 -0.3125 0.338232229185795
    vertex 3.335 -0.3125 0.25
    vertex 4.25 -0.3125 0.25
  endloop
endfacet
facet normal 0.0 -1.0 1.17961196366423e-016
  outer loop
    vertex 3.335 -0.3125 0.25
    vertex 3.61436360085524 -0.3125 0.338232229185795
    vertex 3.58684797330597 -0.3125 0.336272477285656
  endloop
endfacet
facet normal 0.0 -1.0 1.17961196366423e-016
  outer loop
    vertex 3.55994827349325 -0.3125 0.342384476706979
    vertex 3.335 -0.3125 0.25
    vertex 3.58684797330597 -0.3125 0.336272477285656
  endloop
endfacet
facet normal 0.0 -1.0 1.17961196366423e-016
  outer loop
    vertex 3.66191515712313 -0.3125 0.365011297651509
    vertex 3.64012552877229 -0.3125 0.348094959889661
    vertex 4.25 -0.3125 0.25
  endloop
endfacet
facet normal 0.0 -1.0 1.17961196366423e-016
  outer loop
    vertex 3.67785597774513 -0.3125 0.387524418822008
    vertex 3.66191515712313 -0.3125 0.365011297651509
    vertex 4.25 -0.3125 0.25
  endloop
endfacet
facet normal 0.0 -1.0 1.17961196366423e-016
  outer loop
    vertex 3.68657517787003 -0.3125 0.413695508522714
    vertex 3.67785597774513 -0.3125 0.387524418822008
    vertex 4.25 -0.3125 0.25
  endloop
endfacet
facet normal 0.0 -1.0 1.17961196366423e-016
  outer loop
    vertex 4.25 -0.3125 0.25
    vertex 3.96693307068258 -0.3125 0.364642146190412
    vertex 3.68657517787003 -0.3125 0.413695508522714
  endloop
endfacet
facet normal 0.0 -1.0 1.17961196366423e-016
  outer loop
    vertex 3.96693307068258 -0.3125 0.364642146190412
    vertex 4.25 -0.3125 0.25
    vertex 3.9938525448886 -0.3125 0.360024518026414
  endloop
endfacet
facet normal 0.0 -1.0 1.17961196366423e-016
  outer loop
    vertex 3.60574240332472 -0.3125 0.52326369049185
    vertex 3.335 -0.3125 0.625
    vertex 3.57816375908587 -0.3125 0.522656427050204
  endloop
endfacet
facet normal 0.0 -1.0 1.17961196366423e-016
  outer loop
    vertex 3.335 -0.3125 0.625
    vertex 3.60574240332472 -0.3125 0.52326369049185
    vertex 4.25 -0.3125 0.625
  endloop
endfacet
facet normal 0.0 -1.0 1.17961196366423e-016
  outer loop
    vertex 4.25 -0.3125 0.625
    vertex 3.63230979967385 -0.3125 0.515839147531588
    vertex 3.65557798179873 -0.3125 0.501022194823839
  endloop
endfacet
facet normal 0.0 -1.0 1.17961196366423e-016
  outer loop
    vertex 4.25 -0.3125 0.625
    vertex 3.65557798179873 -0.3125 0.501022194823839
    vertex 3.67354310947853 -0.3125 0.480088858386737
  endloop
endfacet
facet normal 0.0 -1.0 1.17961196366423e-016
  outer loop
    vertex 4.25 -0.3125 0.625
    vertex 3.67354310947853 -0.3125 0.480088858386737
    vertex 3.68465803798041 -0.3125 0.454841903098256
  endloop
endfacet
facet normal 0.0 -1.0 1.17961196366423e-016
  outer loop
    vertex 3.96351001407131 -0.3125 0.49393997733643
    vertex 3.68465803798041 -0.3125 0.454841903098256
    vertex 3.68657517787003 -0.3125 0.413695508522714
  endloop
endfacet
facet normal 0.0 -1.0 1.17961196366423e-016
  outer loop
    vertex 3.68465803798041 -0.3125 0.454841903098256
    vertex 3.96351001407131 -0.3125 0.49393997733643
    vertex 4.25 -0.3125 0.625
  endloop
endfacet
facet normal 0.0 -1.0 1.17961196366423e-016
  outer loop
    vertex 4.25 -0.3125 0.625
    vertex 3.96351001407131 -0.3125 0.49393997733643
    vertex 3.9901474551114 -0.3125 0.499975481973586
  endloop
endfacet
facet normal 0.0 -1.0 1.17961196366423e-016
  outer loop
    vertex 4.25 -0.3125 0.625
    vertex 4.05735785380959 -0.3125 0.404933070682581
    vertex 4.25 -0.3125 0.25
  endloop
endfacet
facet normal -1.0 0.0 0.0
  outer loop
    vertex 3.335 -0.125 0.25
    vertex 3.335 -0.3125 0.25
    vertex 3.335 -0.3125 0.625
  endloop
endfacet
facet normal -1.0 0.0 0.0
  outer loop
    vertex 3.335 -0.125 0.25
    vertex 3.335 -0.3125 0.625
    vertex 3.335 -0.125 0.625
  endloop
endfacet
facet normal 0.0 -1.17961196366423e-016 -1.0
  outer loop
    vertex 4.25 -0.3125 0.25
    vertex 3.335 -0.125 0.25
    vertex 4.25 -0.125 0.25
  endloop
endfacet
facet normal 0.0 -1.17961196366423e-016 -1.0
  outer loop
    vertex 4.25 -0.3125 0.25
    vertex 3.335 -0.3125 0.25
    vertex 3.335 -0.125 0.25
  endloop
endfacet
facet normal 0.950912222882942 0.00370390010692388 0.309438564978285
  outer loop
    vertex 0.18800069720701 -3.97251675998689e-016 0.430312423583253
    vertex 0.203691607789886 -0.3125 0.385834419107721
    vertex 0.201589922287026 -4.64905891561784e-016 0.388552404986342
  endloop
endfacet
facet normal -0.962572640964338 -0.00267142885803276 0.271010653544829
  outer loop
    vertex 0.317879786864118 -4.31946145518225e-016 0.393745191696717
    vertex 0.319586598165044 -0.3125 0.396727024081735
    vertex 0.32799930279299 -4.33680868994202e-016 0.429687576416747
  endloop
endfacet
facet normal -0.971050787763115 0.0106690603558396 -0.238634739163765
  outer loop
    vertex 0.322790482469694 -4.28476698566271e-016 0.456498931701943
    vertex 0.327631614151084 -0.3125 0.422827949336863
    vertex 0.316375866397684 -0.3125 0.468629758248269
  endloop
endfacet
facet normal 0.998830865923461 -0.0106981375889234 -0.047142879957814
  outer loop
    vertex 3.92664214619041 -8.15320033709099e-017 0.455066929317419
    vertex 3.92202451802641 -0.3125 0.428147455111402
    vertex 3.92457172721858 -9.71445146547012e-017 0.411200318361355
  endloop
endfacet
facet normal -0.970476970341861 -0.00642944411843966 0.241108092531983
  outer loop
    vertex 4.06197548197359 -6.59194920871187e-017 0.431852544888598
    vertex 4.05297237129827 -9.8879238130678e-017 0.395614393443396
    vertex 4.05735785380959 -0.3125 0.404933070682581
  endloop
endfacet
facet normal 0.998343147522957 0.0540863854767541 -0.0196372783250351
  outer loop
    vertex 0.74999619674947 -0.481060051851957 0.430422787368223
    vertex 0.772399385739023 -0.529454159885121 0.461189121408251
    vertex 0.746973790626826 -0.5625 0.453659446717673
  endloop
endfacet
facet normal 0.998343147522957 0.0540863854767541 -0.0196372783250351
  outer loop
    vertex 0.772399385739023 -0.529454159885121 0.461189121408251
    vertex 0.74999619674947 -0.481060051851957 0.430422787368223
    vertex 0.760360834229036 -0.4993652715505 0.457963401253109
  endloop
endfacet
facet normal 0.998343147522957 0.0540863854767541 -0.0196372783250351
  outer loop
    vertex 0.760360834229036 -0.4993652715505 0.457963401253109
    vertex 0.74999619674947 -0.481060051851957 0.430422787368223
    vertex 0.740610025670402 -0.3125 0.470952943191594
  endloop
endfacet
facet normal 0.998343147522957 0.0540863854767541 -0.0196372783250351
  outer loop
    vertex 0.740610025670402 -0.3125 0.470952943191594
    vertex 0.74999619674947 -0.481060051851957 0.430422787368223
    vertex 0.749626460187949 -0.3125 0.421628264655733
  endloop
endfacet
facet normal 0.996665725480357 0.0766446556583203 0.0279826448308688
  outer loop
    vertex 0.760360834229036 -0.4993652715505 0.457963401253109
    vertex 0.74956736422475 -0.4993652715505 0.484021142922524
    vertex 0.760360834229036 -0.513589308327052 0.473227672918238
  endloop
endfacet
facet normal 0.996665725480357 0.0766446556583203 0.0279826448308688
  outer loop
    vertex 0.74956736422475 -0.4993652715505 0.484021142922524
    vertex 0.760360834229036 -0.4993652715505 0.457963401253109
    vertex 0.732397432975928 -0.473527357378904 0.474108078494049
  endloop
endfacet
facet normal 0.996665725480357 0.0766446556583203 0.0279826448308688
  outer loop
    vertex 0.732397432975928 -0.473527357378904 0.474108078494049
    vertex 0.760360834229036 -0.4993652715505 0.457963401253109
    vertex 0.74999619674947 -0.481060051851957 0.430422787368223
  endloop
endfacet
facet normal 0.996665725480357 0.0766446556583203 0.0279826448308688
  outer loop
    vertex 0.732397432975928 -0.473527357378904 0.474108078494049
    vertex 0.74999619674947 -0.481060051851957 0.430422787368223
    vertex 0.740610025670402 -0.3125 0.470952943191594
  endloop
endfacet
facet normal -0.997399118031421 0.0663023757707999 0.0282664875301426
  outer loop
    vertex 3.47760061426098 -0.530454159885121 0.46118912140825
    vertex 3.48595771415495 -0.5003652715505 0.43
    vertex 3.50233635646391 -0.5625 0.450827300681778
  endloop
endfacet
facet normal -0.997399118031421 0.0663023757707999 0.0282664875301426
  outer loop
    vertex 3.48595771415495 -0.5003652715505 0.43
    vertex 3.47760061426098 -0.530454159885121 0.46118912140825
    vertex 3.48963916577096 -0.5003652715505 0.457963401253108
  endloop
endfacet
facet normal -0.997399118031421 0.0663023757707999 0.0282664875301426
  outer loop
    vertex 3.48595771415495 -0.5003652715505 0.43
    vertex 3.48963916577096 -0.5003652715505 0.457963401253108
    vertex 3.51232920843663 -0.3125 0.476539035286658
  endloop
endfacet
facet normal -0.997399118031421 0.0663023757707999 0.0282664875301426
  outer loop
    vertex 3.48595771415495 -0.5003652715505 0.43
    vertex 3.51232920843663 -0.3125 0.476539035286658
    vertex 3.5057838430119 -0.474527357378904 0.43
  endloop
endfacet
facet normal -0.997399118031421 0.0663023757707999 0.0282664875301426
  outer loop
    vertex 3.5057838430119 -0.474527357378904 0.43
    vertex 3.51232920843663 -0.3125 0.476539035286658
    vertex 3.50002277972175 -0.3125 0.427930683984018
  endloop
endfacet
facet normal 0.0 -1.0 1.17961196366423e-016
  outer loop
    vertex 1.21626370152624 -0.125 0.323122220589296
    vertex 1.20834072648644 -0.125 0.297639994860172
    vertex 1.96560790930198 -0.125 0.192316241148008
  endloop
endfacet
facet normal 0.0 -1.0 1.17961196366423e-016
  outer loop
    vertex 3.335 -0.125 0.25
    vertex 3.18802360489917 -0.125 0.244164957506052
    vertex 4.25 -0.125 7.80625564189563e-018
  endloop
endfacet
facet normal 0.0 -1.0 1.17961196366423e-016
  outer loop
    vertex 3.18802360489917 -0.125 0.244164957506052
    vertex 3.335 -0.125 0.25
    vertex 3.21050783270604 -0.125 0.258537739474758
  endloop
endfacet
facet normal 0.0 -1.0 1.17961196366423e-016
  outer loop
    vertex 3.1627209000741 -0.125 0.235686131518556
    vertex 3.1361162989396 -0.125 0.233609461090723
    vertex 4.25 -0.125 7.80625564189563e-018
  endloop
endfacet
facet normal 0.0 -1.0 1.17961196366423e-016
  outer loop
    vertex 3.1361162989396 -0.125 0.233609461090723
    vertex 2.3439031825084 -0.125 0.335988726108255
    vertex 4.25 -0.125 7.80625564189563e-018
  endloop
endfacet
facet normal 0.0 -1.0 1.17961196366423e-016
  outer loop
    vertex 2.3439031825084 -0.125 0.335988726108255
    vertex 3.1361162989396 -0.125 0.233609461090723
    vertex 3.10980441460622 -0.125 0.238059416643054
  endloop
endfacet
facet normal 0.0 -1.0 1.17961196366423e-016
  outer loop
    vertex 2.3439031825084 -0.125 0.335988726108255
    vertex 3.10980441460622 -0.125 0.238059416643054
    vertex 3.08536231547306 -0.125 0.248769278993062
  endloop
endfacet
facet normal 0.0 -1.0 1.17961196366423e-016
  outer loop
    vertex 4.25 -0.125 7.80625564189563e-018
    vertex 2.2319538209357 -0.125 0.151393013766493
    vertex 2.2027549885588 -0.125 0.137768073436943
  endloop
endfacet
facet normal 0.0 -1.0 1.17961196366423e-016
  outer loop
    vertex 2.2319538209357 -0.125 0.151393013766493
    vertex 4.25 -0.125 7.80625564189563e-018
    vertex 2.25883742608235 -0.125 0.169154843218361
  endloop
endfacet
facet normal 0.0 -1.0 1.17961196366423e-016
  outer loop
    vertex 1.96560790930198 -0.125 0.192316241148008
    vertex 1.12689101948091 -0.125 0.234978321153668
    vertex 1.10022921117841 -0.125 0.233853447990987
  endloop
endfacet
facet normal 0.0 -1.0 1.17961196366423e-016
  outer loop
    vertex 1.12689101948091 -0.125 0.234978321153668
    vertex 1.96560790930198 -0.125 0.192316241148008
    vertex 1.15248048491758 -0.125 0.242547774255235
  endloop
endfacet
facet normal 0.0 -1.0 1.17961196366423e-016
  outer loop
    vertex 1.96560790930198 -0.125 0.192316241148008
    vertex 0.0 -0.125 0.25
    vertex 1.98936962219918 -0.125 0.170554076472841
  endloop
endfacet
facet normal 0.0 -1.0 1.17961196366423e-016
  outer loop
    vertex 0.0 -0.125 0.25
    vertex 1.96560790930198 -0.125 0.192316241148008
    vertex 1.10022921117841 -0.125 0.233853447990987
  endloop
endfacet
facet normal 0.0 -1.0 1.17961196366423e-016
  outer loop
    vertex 0.0 -0.125 0.25
    vertex 1.10022921117841 -0.125 0.233853447990987
    vertex 1.07409310197487 -0.125 0.239240576845195
  endloop
endfacet
facet normal 0.0 -1.0 1.17961196366423e-016
  outer loop
    vertex 0.0 -0.125 0.25
    vertex 1.07409310197487 -0.125 0.239240576845195
    vertex 0.915 -0.125 0.25
  endloop
endfacet
facet normal 0.0 -1.0 1.17961196366423e-016
  outer loop
    vertex 4.25 -0.125 7.80625564189563e-018
    vertex 2.13997634363027 -0.125 0.124012679700931
    vertex 0.0 -0.125 7.80625564189563e-018
  endloop
endfacet
facet normal 0.0 -1.0 1.17961196366423e-016
  outer loop
    vertex 2.13997634363027 -0.125 0.124012679700931
    vertex 4.25 -0.125 7.80625564189563e-018
    vertex 2.17187299549419 -0.125 0.128574961041485
  endloop
endfacet
facet normal 0.0 -1.0 1.17961196366423e-016
  outer loop
    vertex 2.17187299549419 -0.125 0.128574961041485
    vertex 4.25 -0.125 7.80625564189563e-018
    vertex 2.2027549885588 -0.125 0.137768073436943
  endloop
endfacet
facet normal 0.0 -1.0 1.17961196366423e-016
  outer loop
    vertex 0.0 -0.125 7.80625564189563e-018
    vertex 2.07590794604438 -0.125 0.129073267282613
    vertex 2.0451230876481 -0.125 0.138586589766325
  endloop
endfacet
facet normal 0.0 -1.0 1.17961196366423e-016
  outer loop
    vertex 2.07590794604438 -0.125 0.129073267282613
    vertex 0.0 -0.125 7.80625564189563e-018
    vertex 2.10775549915426 -0.125 0.124179989028533
  endloop
endfacet
facet normal 0.0 -1.0 1.17961196366423e-016
  outer loop
    vertex 2.10775549915426 -0.125 0.124179989028533
    vertex 0.0 -0.125 7.80625564189563e-018
    vertex 2.13997634363027 -0.125 0.124012679700931
  endloop
endfacet
facet normal 0.0 -1.0 1.17961196366423e-016
  outer loop
    vertex 2.0451230876481 -0.125 0.138586589766325
    vertex 0.0 -0.125 0.25
    vertex 0.0 -0.125 7.80625564189563e-018
  endloop
endfacet
facet normal 0.0 -1.0 1.17961196366423e-016
  outer loop
    vertex 0.0 -0.125 0.25
    vertex 2.0451230876481 -0.125 0.138586589766325
    vertex 2.01606732318159 -0.125 0.15251402177746
  endloop
endfacet
facet normal 0.0 -1.0 1.17961196366423e-016
  outer loop
    vertex 0.0 -0.125 0.25
    vertex 2.01606732318159 -0.125 0.15251402177746
    vertex 1.98936962219918 -0.125 0.170554076472841
  endloop
endfacet
facet normal -5.75749190018242e-016 1.0 -1.17961196366423e-016
  outer loop
    vertex 4.05297237129827 -9.8879238130678e-017 0.395614393443396
    vertex 4.25 6.93889390390723e-018 0.625
    vertex 4.25 0.0 0.0
  endloop
endfacet
facet normal -5.75749190018242e-016 1.0 -1.17961196366423e-016
  outer loop
    vertex 4.25 6.93889390390723e-018 0.625
    vertex 4.05297237129827 -9.8879238130678e-017 0.395614393443396
    vertex 4.06197548197359 -6.59194920871187e-017 0.431852544888598
  endloop
endfacet
facet normal 1.3981754364054e-016 1.0 3.46944695195361e-016
  outer loop
    vertex 3.24999900733946 4.5102810375397e-017 0.342965187071949
    vertex 3.9576143934434 -9.0205620750794e-017 0.369027628701727
    vertex 4.25 0.0 0.0
  endloop
endfacet
facet normal 1.3981754364054e-016 1.0 3.46944695195361e-016
  outer loop
    vertex 3.9576143934434 -9.0205620750794e-017 0.369027628701727
    vertex 3.24999900733946 4.5102810375397e-017 0.342965187071949
    vertex 3.93689872556151 -7.11236625150491e-017 0.386827676049884
  endloop
endfacet
facet normal 0.0 1.0 -1.17961196366423e-016
  outer loop
    vertex 4.25 0.0 0.0
    vertex 3.12019159719151 3.64291929955129e-017 0.235504624527228
    vertex 3.14681295452789 2.86229373536173e-017 0.233655112386219
  endloop
endfacet
facet normal 0.0 1.0 -1.17961196366423e-016
  outer loop
    vertex 3.12019159719151 3.64291929955129e-017 0.235504624527228
    vertex 4.25 0.0 0.0
    vertex 2.3439031825084 3.64291929955129e-017 0.335988726108255
  endloop
endfacet
facet normal 0.0 1.0 -1.17961196366423e-016
  outer loop
    vertex 3.12019159719151 3.64291929955129e-017 0.235504624527228
    vertex 2.3439031825084 3.64291929955129e-017 0.335988726108255
    vertex 3.09481744336551 2.42861286636753e-017 0.243767171302033
  endloop
endfacet
facet normal 0.0 1.0 -1.17961196366423e-016
  outer loop
    vertex 3.09481744336551 2.42861286636753e-017 0.243767171302033
    vertex 2.3439031825084 3.64291929955129e-017 0.335988726108255
    vertex 2.34248928840129 -2.08166817117217e-017 0.368178968645585
  endloop
endfacet
facet normal -3.32758606910073e-016 1.0 1.36696209906972e-015
  outer loop
    vertex 0.247419927019927 -3.76434994286967e-016 0.360804176023864
    vertex 1.09490874234689 6.93889390390723e-018 0.234414679730532
    vertex 0.0 0.0 0.0
  endloop
endfacet
facet normal -3.32758606910073e-016 1.0 1.36696209906972e-015
  outer loop
    vertex 1.09490874234689 6.93889390390723e-018 0.234414679730532
    vertex 0.247419927019927 -3.76434994286967e-016 0.360804176023864
    vertex 1.06906844911569 2.25514051876985e-017 0.241077757646691
  endloop
endfacet
facet normal -3.32758606910073e-016 1.0 1.36696209906972e-015
  outer loop
    vertex 1.06906844911569 2.25514051876985e-017 0.241077757646691
    vertex 0.247419927019927 -3.76434994286967e-016 0.360804176023864
    vertex 1.04562155296049 3.81639164714898e-017 0.253819830565906
  endloop
endfacet
facet normal -3.32758606910073e-016 1.0 1.36696209906972e-015
  outer loop
    vertex 1.04562155296049 3.81639164714898e-017 0.253819830565906
    vertex 0.247419927019927 -3.76434994286967e-016 0.360804176023864
    vertex 0.274705382545753 -3.67761376907083e-016 0.362022575850507
  endloop
endfacet
facet normal 0.0 1.0 -1.17961196366423e-016
  outer loop
    vertex 1.09490874234689 6.93889390390723e-018 0.234414679730532
    vertex 2.0451230876481 1.73472347597681e-017 0.138586589766325
    vertex 0.0 0.0 0.0
  endloop
endfacet
facet normal 0.0 1.0 -1.17961196366423e-016
  outer loop
    vertex 2.0451230876481 1.73472347597681e-017 0.138586589766325
    vertex 1.09490874234689 6.93889390390723e-018 0.234414679730532
    vertex 2.01606732318159 -8.67361737988404e-018 0.15251402177746
  endloop
endfacet
facet normal 0.0 1.0 -1.17961196366423e-016
  outer loop
    vertex 2.01606732318159 -8.67361737988404e-018 0.15251402177746
    vertex 1.09490874234689 6.93889390390723e-018 0.234414679730532
    vertex 1.98936962219918 1.99493199737333e-017 0.170554076472841
  endloop
endfacet
facet normal 0.0 1.0 -1.17961196366423e-016
  outer loop
    vertex 1.98936962219918 1.99493199737333e-017 0.170554076472841
    vertex 1.09490874234689 6.93889390390723e-018 0.234414679730532
    vertex 1.96560790930198 2.94902990916057e-017 0.192316241148008
  endloop
endfacet
facet normal 0.0 1.0 -1.17961196366423e-016
  outer loop
    vertex 1.96560790930198 2.94902990916057e-017 0.192316241148008
    vertex 1.09490874234689 6.93889390390723e-018 0.234414679730532
    vertex 1.12159363024364 2.34187669256869e-017 0.234229965007457
  endloop
endfacet
facet normal 0.0 1.0 -1.17961196366423e-016
  outer loop
    vertex 1.14752368750813 1.82145964977565e-017 0.240534684815001
    vertex 1.96560790930198 2.94902990916057e-017 0.192316241148008
    vertex 1.12159363024364 2.34187669256869e-017 0.234229965007457
  endloop
endfacet
facet normal 0.0 1.0 -1.17961196366423e-016
  outer loop
    vertex 0.0 0.0 0.0
    vertex 2.10775549915426 -2.60208521396521e-018 0.124179989028533
    vertex 4.25 0.0 0.0
  endloop
endfacet
facet normal 0.0 1.0 -1.17961196366423e-016
  outer loop
    vertex 2.10775549915426 -2.60208521396521e-018 0.124179989028533
    vertex 0.0 0.0 0.0
    vertex 2.07590794604438 1.38777878078145e-017 0.129073267282613
  endloop
endfacet
facet normal 0.0 1.0 -1.17961196366423e-016
  outer loop
    vertex 2.07590794604438 1.38777878078145e-017 0.129073267282613
    vertex 0.0 0.0 0.0
    vertex 2.0451230876481 1.73472347597681e-017 0.138586589766325
  endloop
endfacet
facet normal 0.0 1.0 -1.17961196366423e-016
  outer loop
    vertex 4.25 0.0 0.0
    vertex 2.10775549915426 -2.60208521396521e-018 0.124179989028533
    vertex 2.13997634363027 1.64798730217797e-017 0.124012679700931
  endloop
endfacet
facet normal 0.0 1.0 -1.17961196366423e-016
  outer loop
    vertex 4.25 0.0 0.0
    vertex 2.2319538209357 9.54097911787244e-018 0.151393013766493
    vertex 2.25883742608235 -1.73472347597681e-018 0.169154843218361
  endloop
endfacet
facet normal 0.0 1.0 -1.17961196366423e-016
  outer loop
    vertex 2.2319538209357 9.54097911787244e-018 0.151393013766493
    vertex 4.25 0.0 0.0
    vertex 2.2027549885588 2.60208521396521e-017 0.137768073436943
  endloop
endfacet
facet normal 0.0 1.0 -1.17961196366423e-016
  outer loop
    vertex 2.2027549885588 2.60208521396521e-017 0.137768073436943
    vertex 4.25 0.0 0.0
    vertex 2.17187299549419 5.20417042793042e-018 0.128574961041485
  endloop
endfacet
facet normal 0.0 1.0 -1.17961196366423e-016
  outer loop
    vertex 2.17187299549419 5.20417042793042e-018 0.128574961041485
    vertex 4.25 0.0 0.0
    vertex 2.13997634363027 1.64798730217797e-017 0.124012679700931
  endloop
endfacet
facet normal 0.0 1.0 -1.17961196366423e-016
  outer loop
    vertex 0.0 6.93889390390723e-018 0.625
    vertex 2.05738439022721 3.81639164714898e-017 0.550800574447247
    vertex 2.02755218498784 2.42861286636753e-017 0.538624764752836
  endloop
endfacet
facet normal 0.0 1.0 -1.17961196366423e-016
  outer loop
    vertex 2.05738439022721 3.81639164714898e-017 0.550800574447247
    vertex 0.0 6.93889390390723e-018 0.625
    vertex 2.08868026922378 6.24500451351651e-017 0.558467305757938
  endloop
endfacet
facet normal 0.0 1.0 -1.17961196366423e-016
  outer loop
    vertex 2.08868026922378 6.24500451351651e-017 0.558467305757938
    vertex 0.0 6.93889390390723e-018 0.625
    vertex 2.12076236070862 4.85722573273506e-017 0.56145899710502
  endloop
endfacet
facet normal 0.0 1.0 -1.17961196366423e-016
  outer loop
    vertex 2.18450527384039 7.28583859910259e-017 0.553260817955284
    vertex 4.25 6.93889390390723e-018 0.625
    vertex 2.21478625391711 3.81639164714898e-017 0.542248413279134
  endloop
endfacet
facet normal 0.0 1.0 -1.17961196366423e-016
  outer loop
    vertex 4.25 6.93889390390723e-018 0.625
    vertex 2.18450527384039 7.28583859910259e-017 0.553260817955284
    vertex 2.15293618428676 -1.04083408558608e-017 0.559710887405527
  endloop
endfacet
facet normal 0.0 1.0 -1.17961196366423e-016
  outer loop
    vertex 4.25 6.93889390390723e-018 0.625
    vertex 2.15293618428676 -1.04083408558608e-017 0.559710887405527
    vertex 2.12076236070862 4.85722573273506e-017 0.56145899710502
  endloop
endfacet
facet normal 0.0 1.0 -1.17961196366423e-016
  outer loop
    vertex 4.25 6.93889390390723e-018 0.625
    vertex 2.12076236070862 4.85722573273506e-017 0.56145899710502
    vertex 0.0 6.93889390390723e-018 0.625
  endloop
endfacet
facet normal 2.32799590451821e-015 1.0 -1.17961196366423e-016
  outer loop
    vertex 0.0 6.93889390390723e-018 0.625
    vertex 0.18800069720701 -3.97251675998689e-016 0.430312423583253
    vertex 0.0 0.0 0.0
  endloop
endfacet
facet normal 2.32799590451821e-015 1.0 -1.17961196366423e-016
  outer loop
    vertex 0.18800069720701 -3.97251675998689e-016 0.430312423583253
    vertex 0.0 6.93889390390723e-018 0.625
    vertex 0.193448636188688 -4.42354486374086e-016 0.457076215210026
  endloop
endfacet
facet normal 1.0 0.0 0.0
  outer loop
    vertex 4.25 6.93889390390723e-018 0.625
    vertex 4.25 -0.125 7.80625564189563e-018
    vertex 4.25 0.0 0.0
  endloop
endfacet
facet normal -1.0 0.0 0.0
  outer loop
    vertex 0.0 6.93889390390723e-018 0.625
    vertex 0.0 0.0 0.0
    vertex 0.0 -0.125 0.25
  endloop
endfacet
facet normal -5.71526298985522e-016 1.0 3.4124665730975e-016
  outer loop
    vertex 0.32799930279299 -4.33680868994202e-016 0.429687576416747
    vertex 1.02597340206979 1.90819582357449e-017 0.271877170573991
    vertex 0.844481551938313 -9.53046072526813e-017 0.303113227714544
  endloop
endfacet
endsolid Untitled-542e37ca
