solid CardHandle
facet normal -0.917377280350641 -0.398018750182026 0.0
  outer loop
    vertex -11.3167363483518 17.7906288375306 12.192
    vertex -11.2213494449149 17.6272804797843 -9.16489106828067e-015
    vertex -11.2213494449149 17.6272804797843 12.192
  endloop
endfacet
facet normal -0.797467987541765 -0.60336125898676 0.0
  outer loop
    vertex -11.2213494449149 17.6272804797843 -9.16489106828067e-015
    vertex -11.3167363483518 17.7906288375306 12.192
    vertex -11.3167363483518 17.7906288375306 -9.16489106828067e-015
  endloop
endfacet
facet normal 0.26545804034299 -0.964122413813339 0.0
  outer loop
    vertex -10.3758001133544 17.3402978061888 12.192
    vertex -10.5628496801917 17.3121232277236 -9.16489106828067e-015
    vertex -10.3758001133544 17.3402978061888 -9.16489106828067e-015
  endloop
endfacet
facet normal 0.0303211350497404 -0.999540208680619 0.0
  outer loop
    vertex -10.5628496801917 17.3121232277236 -9.16489106828067e-015
    vertex -10.3758001133544 17.3402978061888 12.192
    vertex -10.5628496801917 17.3121232277236 12.192
  endloop
endfacet
facet normal -0.206530241967259 -0.978440217464995 0.0
  outer loop
    vertex -10.7512630958594 17.3289081055046 12.192
    vertex -10.9303867527995 17.389703359021 -9.16489106828067e-015
    vertex -10.7512630958594 17.3289081055046 -9.16489106828067e-015
  endloop
endfacet
facet normal -0.431703617505391 -0.902015513521114 0.0
  outer loop
    vertex -10.9303867527995 17.389703359021 -9.16489106828067e-015
    vertex -10.7512630958594 17.3289081055046 12.192
    vertex -10.9303867527995 17.389703359021 12.192
  endloop
endfacet
facet normal -0.846686851428098 -0.532091510568224 6.4479669233622e-016
  outer loop
    vertex -11.5181120901912 43.7540112455491 12.192
    vertex -7.45411209019115 37.2872 0.0
    vertex -7.45411209019115 37.2872 12.192
  endloop
endfacet
facet normal -0.846686851428098 -0.532091510568224 6.4479669233622e-016
  outer loop
    vertex -7.45411209019115 37.2872 0.0
    vertex -11.5181120901912 43.7540112455491 12.192
    vertex -11.5181120901912 43.7540112455491 -1.05748743095546e-014
  endloop
endfacet
facet normal -0.98541458998376 -0.170170754970233 0.0
  outer loop
    vertex -11.3708594953745 17.9718801334765 12.192
    vertex -11.3167363483518 17.7906288375306 -9.16489106828067e-015
    vertex -11.3167363483518 17.7906288375306 12.192
  endloop
endfacet
facet normal -0.917377280350641 -0.398018750182026 0.0
  outer loop
    vertex -11.3167363483518 17.7906288375306 -9.16489106828067e-015
    vertex -11.3708594953745 17.9718801334765 12.192
    vertex -11.3708594953745 17.9718801334765 -9.16489106828067e-015
  endloop
endfacet
facet normal 0.0 -1.0 0.0
  outer loop
    vertex 2.032 26.6192 6.096
    vertex -5.54911209019115 26.6192 2.032
    vertex 2.032 26.6192 2.032
  endloop
endfacet
facet normal 0.0 -1.0 0.0
  outer loop
    vertex -5.54911209019115 26.6192 2.032
    vertex 2.032 26.6192 6.096
    vertex -4.27911209019115 26.6192 10.4236197189882
  endloop
endfacet
facet normal 0.0 -1.0 0.0
  outer loop
    vertex -5.54911209019115 26.6192 2.032
    vertex -4.27911209019115 26.6192 10.4236197189882
    vertex -5.54911209019115 26.6192 12.192
  endloop
endfacet
facet normal 0.0 -1.0 0.0
  outer loop
    vertex -5.54911209019115 26.6192 12.192
    vertex -4.27911209019115 26.6192 10.4236197189882
    vertex -4.27911209019115 26.6192 12.192
  endloop
endfacet
facet normal 0.0303211350497404 -0.999540208680619 0.0
  outer loop
    vertex -10.5628496801917 17.3121232277236 12.192
    vertex -10.7512630958594 17.3289081055046 -9.16489106828067e-015
    vertex -10.5628496801917 17.3121232277236 -9.16489106828067e-015
  endloop
endfacet
facet normal -0.206530241967259 -0.978440217464995 0.0
  outer loop
    vertex -10.7512630958594 17.3289081055046 -9.16489106828067e-015
    vertex -10.5628496801917 17.3121232277236 12.192
    vertex -10.7512630958594 17.3289081055046 12.192
  endloop
endfacet
facet normal -0.431703617505391 -0.902015513521114 0.0
  outer loop
    vertex -10.9303867527995 17.389703359021 12.192
    vertex -11.0900923215686 17.491071394564 -9.16489106828067e-015
    vertex -10.9303867527995 17.389703359021 -9.16489106828067e-015
  endloop
endfacet
facet normal -0.632466836760167 -0.774587438833466 0.0
  outer loop
    vertex -11.0900923215686 17.491071394564 -9.16489106828067e-015
    vertex -10.9303867527995 17.389703359021 12.192
    vertex -11.0900923215686 17.491071394564 12.192
  endloop
endfacet
facet normal -0.911088190535665 0.412211485849737 4.07823865195875e-020
  outer loop
    vertex -11.2676057091857 18.5190052607914 12.192
    vertex -11.3455794613957 18.3466641998337 -9.16489106828067e-015
    vertex -11.3455794613957 18.3466641998337 12.192
  endloop
endfacet
facet normal -0.953635478938515 0.300964073121209 2.05368638906761e-020
  outer loop
    vertex -11.3455794613957 18.3466641998337 -9.16489106828067e-015
    vertex -11.2676057091857 18.5190052607914 12.192
    vertex -11.2676057091857 18.5190052607914 -7.04991620636974e-015
  endloop
endfacet
facet normal -0.797467987541765 -0.60336125898676 0.0
  outer loop
    vertex -11.2213494449149 17.6272804797843 12.192
    vertex -11.0900923215686 17.491071394564 -9.16489106828067e-015
    vertex -11.0900923215686 17.491071394564 12.192
  endloop
endfacet
facet normal -0.632466836760167 -0.774587438833466 0.0
  outer loop
    vertex -11.0900923215686 17.491071394564 -9.16489106828067e-015
    vertex -11.2213494449149 17.6272804797843 12.192
    vertex -11.2213494449149 17.6272804797843 -9.16489106828067e-015
  endloop
endfacet
facet normal 0.776929704356476 0.629587352548127 -5.32053820612621e-016
  outer loop
    vertex -10.1498260948302 44.531837424061 -2.18547402397462e-014
    vertex -4.27911209019115 37.2872 10.4236197189882
    vertex -4.27911209019115 37.2872 -9.86988268891764e-015
  endloop
endfacet
facet normal 0.776929704356476 0.629587352548127 -5.32053820612621e-016
  outer loop
    vertex -4.27911209019115 37.2872 10.4236197189882
    vertex -10.1498260948302 44.531837424061 -2.18547402397462e-014
    vertex -4.27911209019115 37.2872 12.192
  endloop
endfacet
facet normal 0.776929704356476 0.629587352548127 -5.32053820612621e-016
  outer loop
    vertex -4.27911209019115 37.2872 12.192
    vertex -10.1498260948302 44.531837424061 -2.18547402397462e-014
    vertex -10.1498260948302 44.531837424061 12.192
  endloop
endfacet
facet normal 0.485584943429425 -0.874189489020912 -8.57583857920077e-020
  outer loop
    vertex -10.2006908857315 17.4118387436093 12.192
    vertex -10.3758001133544 17.3402978061888 -9.16489106828067e-015
    vertex -10.2006908857315 17.4118387436093 -9.16489106828067e-015
  endloop
endfacet
facet normal 0.26545804034299 -0.964122413813339 0.0
  outer loop
    vertex -10.3758001133544 17.3402978061888 -9.16489106828067e-015
    vertex -10.2006908857315 17.4118387436093 12.192
    vertex -10.3758001133544 17.3402978061888 12.192
  endloop
endfacet
facet normal 0.61405345984894 0.789264435058078 -2.06539449650323e-015
  outer loop
    vertex -10.2953627792106 44.6793338457808 -2.18547402397462e-014
    vertex -10.1498260948302 44.531837424061 12.192
    vertex -10.1498260948302 44.531837424061 -2.18547402397462e-014
  endloop
endfacet
facet normal 0.711819828738881 0.702362108469805 -1.07020045311321e-015
  outer loop
    vertex -10.1498260948302 44.531837424061 12.192
    vertex -10.2953627792106 44.6793338457808 -2.18547402397462e-014
    vertex -10.2953627792106 44.6793338457808 12.192
  endloop
endfacet
facet normal 0.0 1.0 0.0
  outer loop
    vertex -5.54911209019115 35.2552 2.032
    vertex -4.27911209019115 35.2552 10.4236197189882
    vertex 2.032 35.2552 2.032
  endloop
endfacet
facet normal 0.0 1.0 0.0
  outer loop
    vertex -4.27911209019115 35.2552 10.4236197189882
    vertex -5.54911209019115 35.2552 2.032
    vertex -5.54911209019115 35.2552 12.192
  endloop
endfacet
facet normal 0.0 1.0 0.0
  outer loop
    vertex 2.032 35.2552 2.032
    vertex -4.27911209019115 35.2552 10.4236197189882
    vertex 2.032 35.2552 6.096
  endloop
endfacet
facet normal 0.0 1.0 0.0
  outer loop
    vertex -4.27911209019115 35.2552 10.4236197189882
    vertex -5.54911209019115 35.2552 12.192
    vertex -4.27911209019115 35.2552 12.192
  endloop
endfacet
facet normal 0.774587438833463 -0.632466836760171 7.24476194650374e-018
  outer loop
    vertex -4.27911209019115 24.5872 -7.04991620636974e-015
    vertex -10.0474233357403 17.5227008446421 12.192
    vertex -10.0474233357403 17.5227008446421 -7.75490782700672e-015
  endloop
endfacet
facet normal 0.774587438833463 -0.632466836760171 7.24476194650374e-018
  outer loop
    vertex -10.0474233357403 17.5227008446421 12.192
    vertex -4.27911209019115 24.5872 -7.04991620636974e-015
    vertex -4.27911209019115 24.5872 12.192
  endloop
endfacet
facet normal 0.774587438833463 -0.632466836760171 7.24476194650374e-018
  outer loop
    vertex -4.27911209019115 24.5872 12.192
    vertex -4.27911209019115 24.5872 -7.04991620636974e-015
    vertex -4.27911209019115 24.5872 10.4236197189882
  endloop
endfacet
facet normal 0.5 -0.866025403784438 0.0
  outer loop
    vertex 7.8486 4.04140092258352 2.032
    vertex 7.43203225470107 3.86885291283352 1.05748743095546e-015
    vertex 7.8486 4.04140092258352 1.05748743095546e-015
  endloop
endfacet
facet normal 0.258819045102521 -0.965925826289068 0.0
  outer loop
    vertex 7.43203225470107 3.86885291283352 1.05748743095546e-015
    vertex 7.8486 4.04140092258352 2.032
    vertex 7.43203225470107 3.86885291283352 2.032
  endloop
endfacet
facet normal -0.499999999999999 -0.866025403784439 0.0
  outer loop
    vertex 6.1214 4.04140092258352 2.032
    vertex 5.7636851675346 4.3158851675346 1.05748743095546e-015
    vertex 6.1214 4.04140092258352 1.05748743095546e-015
  endloop
endfacet
facet normal -0.707106781186547 -0.707106781186548 0.0
  outer loop
    vertex 5.7636851675346 4.3158851675346 1.05748743095546e-015
    vertex 6.1214 4.04140092258352 2.032
    vertex 5.7636851675346 4.3158851675346 2.032
  endloop
endfacet
facet normal 1.0 0.0 0.0
  outer loop
    vertex 0.0 61.8744 0.0
    vertex 0.0 37.2872 6.096
    vertex 0.0 37.2872 0.0
  endloop
endfacet
facet normal 1.0 0.0 0.0
  outer loop
    vertex 0.0 37.2872 6.096
    vertex 0.0 61.8744 0.0
    vertex 0.0 61.8744 6.096
  endloop
endfacet
facet normal -0.866025403784438 -0.500000000000001 0.0
  outer loop
    vertex 5.48920092258352 4.6736 2.032
    vertex 5.7636851675346 4.3158851675346 1.05748743095546e-015
    vertex 5.7636851675346 4.3158851675346 2.032
  endloop
endfacet
facet normal -0.707106781186547 -0.707106781186548 0.0
  outer loop
    vertex 5.7636851675346 4.3158851675346 1.05748743095546e-015
    vertex 5.48920092258352 4.6736 2.032
    vertex 5.48920092258352 4.6736 1.05748743095546e-015
  endloop
endfacet
facet normal -0.965925826289068 -0.258819045102522 0.0
  outer loop
    vertex 5.31665291283352 5.09016774529893 2.032
    vertex 5.48920092258352 4.6736 1.05748743095546e-015
    vertex 5.48920092258352 4.6736 2.032
  endloop
endfacet
facet normal -0.866025403784438 -0.500000000000001 0.0
  outer loop
    vertex 5.48920092258352 4.6736 1.05748743095546e-015
    vertex 5.31665291283352 5.09016774529893 2.032
    vertex 5.31665291283352 5.09016774529893 1.05748743095546e-015
  endloop
endfacet
facet normal -1.0 -8.6437765987775e-016 0.0
  outer loop
    vertex 5.2578 5.5372 2.032
    vertex 5.31665291283352 5.09016774529893 1.05748743095546e-015
    vertex 5.31665291283352 5.09016774529893 2.032
  endloop
endfacet
facet normal -0.965925826289068 -0.258819045102522 0.0
  outer loop
    vertex 5.31665291283352 5.09016774529893 1.05748743095546e-015
    vertex 5.2578 5.5372 2.032
    vertex 5.2578 5.5372 1.05748743095546e-015
  endloop
endfacet
facet normal -1.0 0.0 0.0
  outer loop
    vertex 2.032 37.2872 6.096
    vertex 2.032 35.2552 2.032
    vertex 2.032 35.2552 6.096
  endloop
endfacet
facet normal -1.0 0.0 0.0
  outer loop
    vertex 2.032 35.2552 2.032
    vertex 2.032 37.2872 6.096
    vertex 2.032 61.8744 2.032
  endloop
endfacet
facet normal -1.0 0.0 0.0
  outer loop
    vertex 2.032 61.8744 2.032
    vertex 2.032 37.2872 6.096
    vertex 2.032 61.8744 6.096
  endloop
endfacet
facet normal -0.866025403784439 0.499999999999999 0.0
  outer loop
    vertex 5.48920092258352 6.4008 2.032
    vertex 5.31665291283352 5.98423225470107 1.05748743095546e-015
    vertex 5.31665291283352 5.98423225470107 2.032
  endloop
endfacet
facet normal -0.965925826289069 0.25881904510252 0.0
  outer loop
    vertex 5.31665291283352 5.98423225470107 1.05748743095546e-015
    vertex 5.48920092258352 6.4008 2.032
    vertex 5.48920092258352 6.4008 1.05748743095546e-015
  endloop
endfacet
facet normal -0.707106781186547 0.707106781186548 0.0
  outer loop
    vertex 5.76368516753459 6.75851483246541 2.032
    vertex 5.48920092258352 6.4008 1.05748743095546e-015
    vertex 5.48920092258352 6.4008 2.032
  endloop
endfacet
facet normal -0.866025403784439 0.499999999999999 0.0
  outer loop
    vertex 5.48920092258352 6.4008 1.05748743095546e-015
    vertex 5.76368516753459 6.75851483246541 2.032
    vertex 5.76368516753459 6.75851483246541 1.05748743095546e-015
  endloop
endfacet
facet normal -0.258819045102522 0.965925826289068 0.0
  outer loop
    vertex 6.53796774529892 7.20554708716648 2.032
    vertex 6.985 7.2644 1.05748743095546e-015
    vertex 6.53796774529892 7.20554708716648 1.05748743095546e-015
  endloop
endfacet
facet normal 2.04955527599879e-016 1.0 0.0
  outer loop
    vertex 6.985 7.2644 1.05748743095546e-015
    vertex 6.53796774529892 7.20554708716648 2.032
    vertex 6.985 7.2644 2.032
  endloop
endfacet
facet normal 0.258819045102521 0.965925826289068 0.0
  outer loop
    vertex 7.43203225470107 7.20554708716648 2.032
    vertex 7.8486 7.03299907741648 1.05748743095546e-015
    vertex 7.43203225470107 7.20554708716648 1.05748743095546e-015
  endloop
endfacet
facet normal 0.499999999999998 0.866025403784439 0.0
  outer loop
    vertex 7.8486 7.03299907741648 1.05748743095546e-015
    vertex 7.43203225470107 7.20554708716648 2.032
    vertex 7.8486 7.03299907741648 2.032
  endloop
endfacet
facet normal -1.0 0.0 -0.0
  outer loop
    vertex 11.7602 61.8744 2.032
    vertex 11.7602 0.0 0.0
    vertex 11.7602 0.0 2.032
  endloop
endfacet
facet normal -1.0 0.0 -0.0
  outer loop
    vertex 11.7602 0.0 0.0
    vertex 11.7602 61.8744 2.032
    vertex 11.7602 61.8744 0.0
  endloop
endfacet
facet normal 1.0 -2.15648859474655e-015 0.0
  outer loop
    vertex 8.7122 5.5372 1.05748743095546e-015
    vertex 8.65334708716648 5.09016774529893 2.032
    vertex 8.65334708716648 5.09016774529893 1.05748743095546e-015
  endloop
endfacet
facet normal 0.965925826289068 -0.258819045102523 0.0
  outer loop
    vertex 8.65334708716648 5.09016774529893 2.032
    vertex 8.7122 5.5372 1.05748743095546e-015
    vertex 8.7122 5.5372 2.032
  endloop
endfacet
facet normal 0.707106781186547 -0.707106781186548 0.0
  outer loop
    vertex 8.2063148324654 4.3158851675346 2.032
    vertex 7.8486 4.04140092258352 1.05748743095546e-015
    vertex 8.2063148324654 4.3158851675346 1.05748743095546e-015
  endloop
endfacet
facet normal 0.5 -0.866025403784438 0.0
  outer loop
    vertex 7.8486 4.04140092258352 1.05748743095546e-015
    vertex 8.2063148324654 4.3158851675346 2.032
    vertex 7.8486 4.04140092258352 2.032
  endloop
endfacet
facet normal -0.25881904510252 -0.965925826289068 0.0
  outer loop
    vertex 6.53796774529893 3.86885291283352 2.032
    vertex 6.1214 4.04140092258352 1.05748743095546e-015
    vertex 6.53796774529893 3.86885291283352 1.05748743095546e-015
  endloop
endfacet
facet normal -0.499999999999999 -0.866025403784439 0.0
  outer loop
    vertex 6.1214 4.04140092258352 1.05748743095546e-015
    vertex 6.53796774529893 3.86885291283352 2.032
    vertex 6.1214 4.04140092258352 2.032
  endloop
endfacet
facet normal -0.707106781186547 0.707106781186548 0.0
  outer loop
    vertex 5.76368516753459 6.75851483246541 2.032
    vertex 6.1214 7.03299907741648 1.05748743095546e-015
    vertex 5.76368516753459 6.75851483246541 1.05748743095546e-015
  endloop
endfacet
facet normal -0.5 0.866025403784439 0.0
  outer loop
    vertex 6.1214 7.03299907741648 1.05748743095546e-015
    vertex 5.76368516753459 6.75851483246541 2.032
    vertex 6.1214 7.03299907741648 2.032
  endloop
endfacet
facet normal 0.0 -1.0 0.0
  outer loop
    vertex 11.7602 61.8744 2.032
    vertex 0.0 61.8744 0.0
    vertex 11.7602 61.8744 0.0
  endloop
endfacet
facet normal 0.0 -1.0 0.0
  outer loop
    vertex 0.0 61.8744 0.0
    vertex 11.7602 61.8744 2.032
    vertex 2.032 61.8744 2.032
  endloop
endfacet
facet normal 0.0 -1.0 0.0
  outer loop
    vertex 0.0 61.8744 0.0
    vertex 2.032 61.8744 2.032
    vertex 0.0 61.8744 6.096
  endloop
endfacet
facet normal 0.0 -1.0 0.0
  outer loop
    vertex 0.0 61.8744 6.096
    vertex 2.032 61.8744 2.032
    vertex 2.032 61.8744 6.096
  endloop
endfacet
facet normal -0.5 0.866025403784439 0.0
  outer loop
    vertex 6.1214 7.03299907741648 2.032
    vertex 6.53796774529892 7.20554708716648 1.05748743095546e-015
    vertex 6.1214 7.03299907741648 1.05748743095546e-015
  endloop
endfacet
facet normal -0.258819045102522 0.965925826289068 0.0
  outer loop
    vertex 6.53796774529892 7.20554708716648 1.05748743095546e-015
    vertex 6.1214 7.03299907741648 2.032
    vertex 6.53796774529892 7.20554708716648 2.032
  endloop
endfacet
facet normal 2.04955527599879e-016 1.0 0.0
  outer loop
    vertex 6.985 7.2644 2.032
    vertex 7.43203225470107 7.20554708716648 1.05748743095546e-015
    vertex 6.985 7.2644 1.05748743095546e-015
  endloop
endfacet
facet normal 0.258819045102521 0.965925826289068 0.0
  outer loop
    vertex 7.43203225470107 7.20554708716648 1.05748743095546e-015
    vertex 6.985 7.2644 2.032
    vertex 7.43203225470107 7.20554708716648 2.032
  endloop
endfacet
facet normal 0.499999999999998 0.866025403784439 0.0
  outer loop
    vertex 7.8486 7.03299907741648 2.032
    vertex 8.2063148324654 6.75851483246541 1.05748743095546e-015
    vertex 7.8486 7.03299907741648 1.05748743095546e-015
  endloop
endfacet
facet normal 0.707106781186547 0.707106781186548 0.0
  outer loop
    vertex 8.2063148324654 6.75851483246541 1.05748743095546e-015
    vertex 7.8486 7.03299907741648 2.032
    vertex 8.2063148324654 6.75851483246541 2.032
  endloop
endfacet
facet normal 0.866025403784438 -0.500000000000002 0.0
  outer loop
    vertex 8.48079907741648 4.6736 1.05748743095546e-015
    vertex 8.2063148324654 4.3158851675346 2.032
    vertex 8.2063148324654 4.3158851675346 1.05748743095546e-015
  endloop
endfacet
facet normal 0.707106781186547 -0.707106781186548 0.0
  outer loop
    vertex 8.2063148324654 4.3158851675346 2.032
    vertex 8.48079907741648 4.6736 1.05748743095546e-015
    vertex 8.48079907741648 4.6736 2.032
  endloop
endfacet
facet normal 0.0 1.0 0.0
  outer loop
    vertex 0.0 0.0 0.0
    vertex 2.032 0.0 2.032
    vertex 11.7602 0.0 0.0
  endloop
endfacet
facet normal 0.0 1.0 0.0
  outer loop
    vertex 2.032 0.0 2.032
    vertex 0.0 0.0 0.0
    vertex 0.0 0.0 6.096
  endloop
endfacet
facet normal 0.0 1.0 0.0
  outer loop
    vertex 2.032 0.0 2.032
    vertex 0.0 0.0 6.096
    vertex 2.032 0.0 6.096
  endloop
endfacet
facet normal 0.0 1.0 0.0
  outer loop
    vertex 11.7602 0.0 2.032
    vertex 11.7602 0.0 0.0
    vertex 2.032 0.0 2.032
  endloop
endfacet
facet normal -1.78222197912938e-016 -1.0 0.0
  outer loop
    vertex 6.985 3.81 2.032
    vertex 6.53796774529893 3.86885291283352 1.05748743095546e-015
    vertex 6.985 3.81 1.05748743095546e-015
  endloop
endfacet
facet normal -0.25881904510252 -0.965925826289068 0.0
  outer loop
    vertex 6.53796774529893 3.86885291283352 1.05748743095546e-015
    vertex 6.985 3.81 2.032
    vertex 6.53796774529893 3.86885291283352 2.032
  endloop
endfacet
facet normal -0.965925826289069 0.25881904510252 0.0
  outer loop
    vertex 5.31665291283352 5.98423225470107 2.032
    vertex 5.2578 5.5372 1.05748743095546e-015
    vertex 5.2578 5.5372 2.032
  endloop
endfacet
facet normal -1.0 -8.6437765987775e-016 0.0
  outer loop
    vertex 5.2578 5.5372 1.05748743095546e-015
    vertex 5.31665291283352 5.98423225470107 2.032
    vertex 5.31665291283352 5.98423225470107 1.05748743095546e-015
  endloop
endfacet
facet normal 0.258819045102521 -0.965925826289068 0.0
  outer loop
    vertex 7.43203225470107 3.86885291283352 2.032
    vertex 6.985 3.81 1.05748743095546e-015
    vertex 7.43203225470107 3.86885291283352 1.05748743095546e-015
  endloop
endfacet
facet normal -1.78222197912938e-016 -1.0 0.0
  outer loop
    vertex 6.985 3.81 1.05748743095546e-015
    vertex 7.43203225470107 3.86885291283352 2.032
    vertex 6.985 3.81 2.032
  endloop
endfacet
facet normal 0.965925826289068 0.25881904510252 0.0
  outer loop
    vertex 8.65334708716648 5.98423225470108 1.05748743095546e-015
    vertex 8.7122 5.5372 2.032
    vertex 8.7122 5.5372 1.05748743095546e-015
  endloop
endfacet
facet normal 1.0 -2.15648859474655e-015 0.0
  outer loop
    vertex 8.7122 5.5372 2.032
    vertex 8.65334708716648 5.98423225470108 1.05748743095546e-015
    vertex 8.65334708716648 5.98423225470108 2.032
  endloop
endfacet
facet normal 0.965925826289068 -0.258819045102523 0.0
  outer loop
    vertex 8.65334708716648 5.09016774529893 1.05748743095546e-015
    vertex 8.48079907741648 4.6736 2.032
    vertex 8.48079907741648 4.6736 1.05748743095546e-015
  endloop
endfacet
facet normal 0.866025403784438 -0.500000000000002 0.0
  outer loop
    vertex 8.48079907741648 4.6736 2.032
    vertex 8.65334708716648 5.09016774529893 1.05748743095546e-015
    vertex 8.65334708716648 5.09016774529893 2.032
  endloop
endfacet
facet normal 0.783246416173805 -0.621711389272298 0.0
  outer loop
    vertex 8.40661283325768 55.2811261086149 2.032
    vertex 8.0825914560797 54.9675792234066 -1.26898491714655e-014
    vertex 8.40661283325768 55.2811261086149 -1.26898491714655e-014
  endloop
endfacet
facet normal 0.595647193629816 -0.803246176910245 0.0
  outer loop
    vertex 8.0825914560797 54.9675792234066 -1.26898491714655e-014
    vertex 8.40661283325768 55.2811261086149 2.032
    vertex 8.0825914560797 54.9675792234066 2.032
  endloop
endfacet
facet normal -0.783246416173805 0.621711389272298 0.0
  outer loop
    vertex 5.7009664132269 57.4287659317171 2.032
    vertex 6.02498779040488 57.7423128169254 -1.26898491714655e-014
    vertex 5.7009664132269 57.4287659317171 -1.26898491714655e-014
  endloop
endfacet
facet normal -0.595647193629807 0.803246176910251 0.0
  outer loop
    vertex 6.02498779040488 57.7423128169254 -1.26898491714655e-014
    vertex 5.7009664132269 57.4287659317171 2.032
    vertex 6.02498779040488 57.7423128169254 2.032
  endloop
endfacet
facet normal -0.803246176910244 -0.595647193629818 0.0
  outer loop
    vertex 5.66642282648291 55.3261441873286 2.032
    vertex 5.97996971169117 55.0021228101506 -1.26898491714655e-014
    vertex 5.97996971169117 55.0021228101506 2.032
  endloop
endfacet
facet normal -0.621711389272309 -0.783246416173796 0.0
  outer loop
    vertex 5.97996971169117 55.0021228101506 -1.26898491714655e-014
    vertex 5.66642282648291 55.3261441873286 2.032
    vertex 5.66642282648291 55.3261441873286 -1.26898491714655e-014
  endloop
endfacet
facet normal 0.930041065018831 0.36745559919348 0.0
  outer loop
    vertex 8.66015655074282 56.989615331093 -1.26898491714655e-014
    vertex 8.76968543002166 56.5522311444835 2.032
    vertex 8.76968543002166 56.5522311444835 -1.26898491714655e-014
  endloop
endfacet
facet normal 0.993455191511911 0.114222512921199 0.0
  outer loop
    vertex 8.76968543002166 56.5522311444835 2.032
    vertex 8.66015655074282 56.989615331093 -1.26898491714655e-014
    vertex 8.66015655074282 56.989615331093 2.032
  endloop
endfacet
facet normal -0.989166988465782 0.146794648845032 0.0
  outer loop
    vertex 5.34530040076419 56.6084897376511 2.032
    vertex 5.33789381646292 56.1576608958485 -1.26898491714655e-014
    vertex 5.33789381646292 56.1576608958485 2.032
  endloop
endfacet
facet normal -0.993455191511911 -0.114222512921198 0.0
  outer loop
    vertex 5.33789381646292 56.1576608958485 -1.26898491714655e-014
    vertex 5.34530040076419 56.6084897376511 2.032
    vertex 5.34530040076419 56.6084897376511 -1.26898491714655e-014
  endloop
endfacet
facet normal 0.866025403784438 0.500000000000001 0.0
  outer loop
    vertex 8.48079907741648 6.4008 1.05748743095546e-015
    vertex 8.65334708716648 5.98423225470108 2.032
    vertex 8.65334708716648 5.98423225470108 1.05748743095546e-015
  endloop
endfacet
facet normal 0.965925826289068 0.25881904510252 0.0
  outer loop
    vertex 8.65334708716648 5.98423225470108 2.032
    vertex 8.48079907741648 6.4008 1.05748743095546e-015
    vertex 8.48079907741648 6.4008 2.032
  endloop
endfacet
facet normal -0.993455191511911 -0.114222512921198 0.0
  outer loop
    vertex 5.33789381646292 56.1576608958485 2.032
    vertex 5.44742269574177 55.720276709239 -1.26898491714655e-014
    vertex 5.44742269574177 55.720276709239 2.032
  endloop
endfacet
facet normal -0.930041065018831 -0.36745559919348 0.0
  outer loop
    vertex 5.44742269574177 55.720276709239 -1.26898491714655e-014
    vertex 5.33789381646292 56.1576608958485 2.032
    vertex 5.33789381646292 56.1576608958485 -1.26898491714655e-014
  endloop
endfacet
facet normal 0.989166988465781 -0.146794648845035 0.0
  outer loop
    vertex 8.76227884572039 56.1014023026808 -1.26898491714655e-014
    vertex 8.63844154431917 55.667852046224 2.032
    vertex 8.63844154431917 55.667852046224 -1.26898491714655e-014
  endloop
endfacet
facet normal 0.917468689831447 -0.397807997882103 0.0
  outer loop
    vertex 8.63844154431917 55.667852046224 2.032
    vertex 8.76227884572039 56.1014023026808 -1.26898491714655e-014
    vertex 8.76227884572039 56.1014023026808 2.032
  endloop
endfacet
facet normal 0.146794648845023 0.989166988465783 0.0
  outer loop
    vertex 7.30733334072743 58.0634352426441 2.032
    vertex 7.74088359718425 57.9395979412429 -1.26898491714655e-014
    vertex 7.30733334072743 58.0634352426441 -1.26898491714655e-014
  endloop
endfacet
facet normal 0.397807997882099 0.917468689831449 0.0
  outer loop
    vertex 7.74088359718425 57.9395979412429 -1.26898491714655e-014
    vertex 7.30733334072743 58.0634352426441 2.032
    vertex 7.74088359718425 57.9395979412429 2.032
  endloop
endfacet
facet normal -0.146794648845024 -0.989166988465783 0.0
  outer loop
    vertex 6.80024590575715 54.6464567976879 2.032
    vertex 6.36669564930033 54.7702940990891 -1.26898491714655e-014
    vertex 6.80024590575715 54.6464567976879 -1.26898491714655e-014
  endloop
endfacet
facet normal -0.397807997882099 -0.917468689831449 0.0
  outer loop
    vertex 6.36669564930033 54.7702940990891 -1.26898491714655e-014
    vertex 6.80024590575715 54.6464567976879 2.032
    vertex 6.36669564930033 54.7702940990891 2.032
  endloop
endfacet
facet normal 0.397807997882099 0.917468689831449 0.0
  outer loop
    vertex 7.74088359718425 57.9395979412429 2.032
    vertex 8.12760953479341 57.7077692301814 -1.26898491714655e-014
    vertex 7.74088359718425 57.9395979412429 -1.26898491714655e-014
  endloop
endfacet
facet normal 0.621711389272309 0.783246416173796 0.0
  outer loop
    vertex 8.12760953479341 57.7077692301814 -1.26898491714655e-014
    vertex 7.74088359718425 57.9395979412429 2.032
    vertex 8.12760953479341 57.7077692301814 2.032
  endloop
endfacet
facet normal 0.621711389272309 0.783246416173796 0.0
  outer loop
    vertex 8.12760953479341 57.7077692301814 -1.26898491714655e-014
    vertex 8.44115642000167 57.3837478530034 2.032
    vertex 8.44115642000167 57.3837478530034 -1.26898491714655e-014
  endloop
endfacet
facet normal 0.803246176910244 0.595647193629818 0.0
  outer loop
    vertex 8.44115642000167 57.3837478530034 2.032
    vertex 8.12760953479341 57.7077692301814 -1.26898491714655e-014
    vertex 8.12760953479341 57.7077692301814 2.032
  endloop
endfacet
facet normal 0.114222512921185 -0.993455191511912 0.0
  outer loop
    vertex 7.25107474755978 54.6390502133866 2.032
    vertex 6.80024590575715 54.6464567976879 -1.26898491714655e-014
    vertex 7.25107474755978 54.6390502133866 -1.26898491714655e-014
  endloop
endfacet
facet normal -0.146794648845024 -0.989166988465783 0.0
  outer loop
    vertex 6.80024590575715 54.6464567976879 -1.26898491714655e-014
    vertex 7.25107474755978 54.6390502133866 2.032
    vertex 6.80024590575715 54.6464567976879 2.032
  endloop
endfacet
facet normal -0.367455599193471 0.930041065018834 0.0
  outer loop
    vertex 6.41912031231531 57.9613129476665 2.032
    vertex 6.85650449892479 58.0708418269453 -1.26898491714655e-014
    vertex 6.41912031231531 57.9613129476665 -1.26898491714655e-014
  endloop
endfacet
facet normal -0.114222512921198 0.993455191511911 0.0
  outer loop
    vertex 6.85650449892479 58.0708418269453 -1.26898491714655e-014
    vertex 6.41912031231531 57.9613129476665 2.032
    vertex 6.85650449892479 58.0708418269453 2.032
  endloop
endfacet
facet normal 0.803246176910244 0.595647193629818 0.0
  outer loop
    vertex 8.44115642000167 57.3837478530034 -1.26898491714655e-014
    vertex 8.66015655074282 56.989615331093 2.032
    vertex 8.66015655074282 56.989615331093 -1.26898491714655e-014
  endloop
endfacet
facet normal 0.930041065018831 0.36745559919348 0.0
  outer loop
    vertex 8.66015655074282 56.989615331093 2.032
    vertex 8.44115642000167 57.3837478530034 -1.26898491714655e-014
    vertex 8.44115642000167 57.3837478530034 2.032
  endloop
endfacet
facet normal 0.917468689831447 -0.397807997882103 0.0
  outer loop
    vertex 8.63844154431917 55.667852046224 -1.26898491714655e-014
    vertex 8.40661283325768 55.2811261086149 2.032
    vertex 8.40661283325768 55.2811261086149 -1.26898491714655e-014
  endloop
endfacet
facet normal 0.783246416173805 -0.621711389272298 0.0
  outer loop
    vertex 8.40661283325768 55.2811261086149 2.032
    vertex 8.63844154431917 55.667852046224 -1.26898491714655e-014
    vertex 8.63844154431917 55.667852046224 2.032
  endloop
endfacet
facet normal -0.917468689831448 0.397807997882101 0.0
  outer loop
    vertex 5.46913770216541 57.0420399941079 2.032
    vertex 5.34530040076419 56.6084897376511 -1.26898491714655e-014
    vertex 5.34530040076419 56.6084897376511 2.032
  endloop
endfacet
facet normal -0.989166988465782 0.146794648845032 0.0
  outer loop
    vertex 5.34530040076419 56.6084897376511 -1.26898491714655e-014
    vertex 5.46913770216541 57.0420399941079 2.032
    vertex 5.46913770216541 57.0420399941079 -1.26898491714655e-014
  endloop
endfacet
facet normal 0.707106781186547 0.707106781186548 0.0
  outer loop
    vertex 8.2063148324654 6.75851483246541 1.05748743095546e-015
    vertex 8.48079907741648 6.4008 2.032
    vertex 8.48079907741648 6.4008 1.05748743095546e-015
  endloop
endfacet
facet normal 0.866025403784438 0.500000000000001 0.0
  outer loop
    vertex 8.48079907741648 6.4008 2.032
    vertex 8.2063148324654 6.75851483246541 1.05748743095546e-015
    vertex 8.2063148324654 6.75851483246541 2.032
  endloop
endfacet
facet normal -0.114222512921198 0.993455191511911 0.0
  outer loop
    vertex 6.85650449892479 58.0708418269453 2.032
    vertex 7.30733334072743 58.0634352426441 -1.26898491714655e-014
    vertex 6.85650449892479 58.0708418269453 -1.26898491714655e-014
  endloop
endfacet
facet normal 0.146794648845023 0.989166988465783 0.0
  outer loop
    vertex 7.30733334072743 58.0634352426441 -1.26898491714655e-014
    vertex 6.85650449892479 58.0708418269453 2.032
    vertex 7.30733334072743 58.0634352426441 2.032
  endloop
endfacet
facet normal -0.397807997882099 -0.917468689831449 0.0
  outer loop
    vertex 6.36669564930033 54.7702940990891 2.032
    vertex 5.97996971169117 55.0021228101506 -1.26898491714655e-014
    vertex 6.36669564930033 54.7702940990891 -1.26898491714655e-014
  endloop
endfacet
facet normal -0.621711389272309 -0.783246416173796 0.0
  outer loop
    vertex 5.97996971169117 55.0021228101506 -1.26898491714655e-014
    vertex 6.36669564930033 54.7702940990891 2.032
    vertex 5.97996971169117 55.0021228101506 2.032
  endloop
endfacet
facet normal 0.0 0.0 -1.0
  outer loop
    vertex 2.032 61.8744 6.096
    vertex 0.0 37.2872 6.096
    vertex 0.0 61.8744 6.096
  endloop
endfacet
facet normal 0.0 0.0 -1.0
  outer loop
    vertex 0.0 37.2872 6.096
    vertex 2.032 61.8744 6.096
    vertex 2.032 37.2872 6.096
  endloop
endfacet
facet normal 0.595647193629816 -0.803246176910245 0.0
  outer loop
    vertex 8.0825914560797 54.9675792234066 2.032
    vertex 7.68845893416926 54.7485790926654 -1.26898491714655e-014
    vertex 8.0825914560797 54.9675792234066 -1.26898491714655e-014
  endloop
endfacet
facet normal 0.36745559919347 -0.930041065018835 0.0
  outer loop
    vertex 7.68845893416926 54.7485790926654 -1.26898491714655e-014
    vertex 8.0825914560797 54.9675792234066 2.032
    vertex 7.68845893416926 54.7485790926654 2.032
  endloop
endfacet
facet normal 1.0 0.0 0.0
  outer loop
    vertex -7.45411209019115 37.2872 0.0
    vertex -7.45411209019115 24.5872 12.192
    vertex -7.45411209019115 24.5872 0.0
  endloop
endfacet
facet normal 1.0 0.0 0.0
  outer loop
    vertex -7.45411209019115 24.5872 12.192
    vertex -7.45411209019115 37.2872 0.0
    vertex -7.45411209019115 37.2872 12.192
  endloop
endfacet
facet normal 0.993455191511911 0.114222512921199 0.0
  outer loop
    vertex 8.76968543002166 56.5522311444835 -1.26898491714655e-014
    vertex 8.76227884572039 56.1014023026808 2.032
    vertex 8.76227884572039 56.1014023026808 -1.26898491714655e-014
  endloop
endfacet
facet normal 0.989166988465781 -0.146794648845035 0.0
  outer loop
    vertex 8.76227884572039 56.1014023026808 2.032
    vertex 8.76968543002166 56.5522311444835 -1.26898491714655e-014
    vertex 8.76968543002166 56.5522311444835 2.032
  endloop
endfacet
facet normal 0.36745559919347 -0.930041065018835 0.0
  outer loop
    vertex 7.68845893416926 54.7485790926654 2.032
    vertex 7.25107474755978 54.6390502133866 -1.26898491714655e-014
    vertex 7.68845893416926 54.7485790926654 -1.26898491714655e-014
  endloop
endfacet
facet normal 0.114222512921185 -0.993455191511912 0.0
  outer loop
    vertex 7.25107474755978 54.6390502133866 -1.26898491714655e-014
    vertex 7.68845893416926 54.7485790926654 2.032
    vertex 7.25107474755978 54.6390502133866 2.032
  endloop
endfacet
facet normal -0.783246416173805 0.621711389272298 0.0
  outer loop
    vertex 5.7009664132269 57.4287659317171 2.032
    vertex 5.46913770216541 57.0420399941079 -1.26898491714655e-014
    vertex 5.46913770216541 57.0420399941079 2.032
  endloop
endfacet
facet normal -0.917468689831448 0.397807997882101 0.0
  outer loop
    vertex 5.46913770216541 57.0420399941079 -1.26898491714655e-014
    vertex 5.7009664132269 57.4287659317171 2.032
    vertex 5.7009664132269 57.4287659317171 -1.26898491714655e-014
  endloop
endfacet
facet normal -0.595647193629807 0.803246176910251 0.0
  outer loop
    vertex 6.02498779040488 57.7423128169254 2.032
    vertex 6.41912031231531 57.9613129476665 -1.26898491714655e-014
    vertex 6.02498779040488 57.7423128169254 -1.26898491714655e-014
  endloop
endfacet
facet normal -0.367455599193471 0.930041065018834 0.0
  outer loop
    vertex 6.41912031231531 57.9613129476665 -1.26898491714655e-014
    vertex 6.02498779040488 57.7423128169254 2.032
    vertex 6.41912031231531 57.9613129476665 2.032
  endloop
endfacet
facet normal -0.930041065018831 -0.36745559919348 0.0
  outer loop
    vertex 5.44742269574177 55.720276709239 2.032
    vertex 5.66642282648291 55.3261441873286 -1.26898491714655e-014
    vertex 5.66642282648291 55.3261441873286 2.032
  endloop
endfacet
facet normal -0.803246176910244 -0.595647193629818 0.0
  outer loop
    vertex 5.66642282648291 55.3261441873286 -1.26898491714655e-014
    vertex 5.44742269574177 55.720276709239 2.032
    vertex 5.44742269574177 55.720276709239 -1.26898491714655e-014
  endloop
endfacet
facet normal -1.0 0.0 0.0
  outer loop
    vertex 2.032 24.5872 6.096
    vertex 2.032 0.0 2.032
    vertex 2.032 0.0 6.096
  endloop
endfacet
facet normal -1.0 0.0 0.0
  outer loop
    vertex 2.032 0.0 2.032
    vertex 2.032 24.5872 6.096
    vertex 2.032 26.6192 2.032
  endloop
endfacet
facet normal -1.0 0.0 0.0
  outer loop
    vertex 2.032 26.6192 2.032
    vertex 2.032 24.5872 6.096
    vertex 2.032 26.6192 6.096
  endloop
endfacet
facet normal 0.0 0.0 -1.0
  outer loop
    vertex 2.032 24.5872 6.096
    vertex 0.0 0.0 6.096
    vertex 0.0 24.5872 6.096
  endloop
endfacet
facet normal 0.0 0.0 -1.0
  outer loop
    vertex 0.0 0.0 6.096
    vertex 2.032 24.5872 6.096
    vertex 2.032 0.0 6.096
  endloop
endfacet
facet normal 1.0 0.0 0.0
  outer loop
    vertex 0.0 24.5872 0.0
    vertex 0.0 0.0 6.096
    vertex 0.0 0.0 0.0
  endloop
endfacet
facet normal 1.0 0.0 0.0
  outer loop
    vertex 0.0 0.0 6.096
    vertex 0.0 24.5872 0.0
    vertex 0.0 24.5872 6.096
  endloop
endfacet
facet normal 0.0 -1.0 0.0
  outer loop
    vertex -4.27911209019115 37.2872 10.4236197189882
    vertex 0.0 37.2872 6.096
    vertex 2.032 37.2872 6.096
  endloop
endfacet
facet normal 0.0 -1.0 0.0
  outer loop
    vertex 0.0 37.2872 0.0
    vertex -4.27911209019115 37.2872 10.4236197189882
    vertex -4.27911209019115 37.2872 -9.86988268891764e-015
  endloop
endfacet
facet normal 0.0 -1.0 0.0
  outer loop
    vertex -4.27911209019115 37.2872 10.4236197189882
    vertex 0.0 37.2872 0.0
    vertex 0.0 37.2872 6.096
  endloop
endfacet
facet normal -1.0 0.0 0.0
  outer loop
    vertex -4.27911209019115 26.6192 12.192
    vertex -4.27911209019115 24.5872 10.4236197189882
    vertex -4.27911209019115 24.5872 12.192
  endloop
endfacet
facet normal -1.0 0.0 0.0
  outer loop
    vertex -4.27911209019115 24.5872 10.4236197189882
    vertex -4.27911209019115 26.6192 12.192
    vertex -4.27911209019115 26.6192 10.4236197189882
  endloop
endfacet
facet normal 0.0 1.0 0.0
  outer loop
    vertex -4.27911209019115 24.5872 10.4236197189882
    vertex 0.0 24.5872 0.0
    vertex -4.27911209019115 24.5872 -7.04991620636974e-015
  endloop
endfacet
facet normal 0.0 1.0 0.0
  outer loop
    vertex 0.0 24.5872 0.0
    vertex -4.27911209019115 24.5872 10.4236197189882
    vertex 0.0 24.5872 6.096
  endloop
endfacet
facet normal 0.0 1.0 0.0
  outer loop
    vertex 0.0 24.5872 6.096
    vertex -4.27911209019115 24.5872 10.4236197189882
    vertex 2.032 24.5872 6.096
  endloop
endfacet
facet normal -0.494559945946 0.869143520867463 -7.12096717071782e-016
  outer loop
    vertex -11.1837283944377 44.7305197870401 12.192
    vertex -11.0816116678701 44.7881995776789 -1.62148072746504e-014
    vertex -11.1837283944377 44.7305197870401 -1.62148072746504e-014
  endloop
endfacet
facet normal -0.37522467565315 0.926933893425518 -1.1135446134359e-015
  outer loop
    vertex -11.0816116678701 44.7881995776789 -1.62148072746504e-014
    vertex -11.1837283944377 44.7305197870401 12.192
    vertex -11.0816116678701 44.7881995776789 12.192
  endloop
endfacet
facet normal -1.0 0.0 0.0
  outer loop
    vertex -4.27911209019115 37.2872 12.192
    vertex -4.27911209019115 35.2552 10.4236197189882
    vertex -4.27911209019115 35.2552 12.192
  endloop
endfacet
facet normal -1.0 0.0 0.0
  outer loop
    vertex -4.27911209019115 35.2552 10.4236197189882
    vertex -4.27911209019115 37.2872 12.192
    vertex -4.27911209019115 37.2872 10.4236197189882
  endloop
endfacet
facet normal -0.565528355551528 2.79429004025901e-016 -0.824728851845978
  outer loop
    vertex 2.032 37.2872 6.096
    vertex -4.27911209019115 35.2552 10.4236197189882
    vertex -4.27911209019115 37.2872 10.4236197189882
  endloop
endfacet
facet normal -0.565528355551528 2.79429004025901e-016 -0.824728851845978
  outer loop
    vertex -4.27911209019115 35.2552 10.4236197189882
    vertex 2.032 37.2872 6.096
    vertex 2.032 35.2552 6.096
  endloop
endfacet
facet normal -0.565528355551528 0.0 -0.824728851845978
  outer loop
    vertex 2.032 26.6192 6.096
    vertex -4.27911209019115 24.5872 10.4236197189882
    vertex -4.27911209019115 26.6192 10.4236197189882
  endloop
endfacet
facet normal -0.565528355551528 0.0 -0.824728851845978
  outer loop
    vertex -4.27911209019115 24.5872 10.4236197189882
    vertex 2.032 26.6192 6.096
    vertex 2.032 24.5872 6.096
  endloop
endfacet
facet normal -0.92129963171405 0.388853428175136 1.30986372255657e-015
  outer loop
    vertex -11.5140492956387 44.3615076090675 12.192
    vertex -11.5690166016252 44.1617209323516 -1.33948407921025e-014
    vertex -11.5690166016252 44.1617209323516 12.192
  endloop
endfacet
facet normal -0.990549780988338 0.137153677981874 2.01034715709234e-015
  outer loop
    vertex -11.5690166016252 44.1617209323516 -1.33948407921025e-014
    vertex -11.5140492956387 44.3615076090675 12.192
    vertex -11.5140492956387 44.3615076090675 -1.33948407921025e-014
  endloop
endfacet
facet normal 2.02090454246589e-017 3.04229838999343e-035 -1.0
  outer loop
    vertex 5.33789381646292 56.1576608958485 2.032
    vertex 5.48920092258352 6.4008 2.032
    vertex 5.31665291283352 5.98423225470107 2.032
  endloop
endfacet
facet normal 2.02090454246589e-017 3.04229838999343e-035 -1.0
  outer loop
    vertex 5.48920092258352 6.4008 2.032
    vertex 5.33789381646292 56.1576608958485 2.032
    vertex 5.44742269574177 55.720276709239 2.032
  endloop
endfacet
facet normal 2.02090454246589e-017 3.04229838999343e-035 -1.0
  outer loop
    vertex 5.48920092258352 6.4008 2.032
    vertex 5.44742269574177 55.720276709239 2.032
    vertex 5.66642282648291 55.3261441873286 2.032
  endloop
endfacet
facet normal 2.02090454246589e-017 3.04229838999343e-035 -1.0
  outer loop
    vertex 5.48920092258352 6.4008 2.032
    vertex 5.66642282648291 55.3261441873286 2.032
    vertex 5.76368516753459 6.75851483246541 2.032
  endloop
endfacet
facet normal 2.02090454246589e-017 3.04229838999343e-035 -1.0
  outer loop
    vertex 5.76368516753459 6.75851483246541 2.032
    vertex 5.66642282648291 55.3261441873286 2.032
    vertex 5.97996971169117 55.0021228101506 2.032
  endloop
endfacet
facet normal 2.02090454246589e-017 3.04229838999343e-035 -1.0
  outer loop
    vertex 5.76368516753459 6.75851483246541 2.032
    vertex 5.97996971169117 55.0021228101506 2.032
    vertex 6.1214 7.03299907741648 2.032
  endloop
endfacet
facet normal 2.02090454246589e-017 3.04229838999343e-035 -1.0
  outer loop
    vertex 6.1214 7.03299907741648 2.032
    vertex 5.97996971169117 55.0021228101506 2.032
    vertex 6.36669564930033 54.7702940990891 2.032
  endloop
endfacet
facet normal 2.02090454246589e-017 3.04229838999343e-035 -1.0
  outer loop
    vertex 6.1214 7.03299907741648 2.032
    vertex 6.36669564930033 54.7702940990891 2.032
    vertex 6.53796774529892 7.20554708716648 2.032
  endloop
endfacet
facet normal 2.02090454246589e-017 3.04229838999343e-035 -1.0
  outer loop
    vertex 6.53796774529892 7.20554708716648 2.032
    vertex 6.36669564930033 54.7702940990891 2.032
    vertex 6.80024590575715 54.6464567976879 2.032
  endloop
endfacet
facet normal 2.02090454246589e-017 3.04229838999343e-035 -1.0
  outer loop
    vertex 6.53796774529892 7.20554708716648 2.032
    vertex 6.80024590575715 54.6464567976879 2.032
    vertex 6.985 7.2644 2.032
  endloop
endfacet
facet normal 2.02090454246589e-017 3.04229838999343e-035 -1.0
  outer loop
    vertex 6.985 7.2644 2.032
    vertex 6.80024590575715 54.6464567976879 2.032
    vertex 7.25107474755978 54.6390502133866 2.032
  endloop
endfacet
facet normal 2.02090454246589e-017 3.04229838999343e-035 -1.0
  outer loop
    vertex 6.985 7.2644 2.032
    vertex 7.25107474755978 54.6390502133866 2.032
    vertex 7.43203225470107 7.20554708716648 2.032
  endloop
endfacet
facet normal 2.02090454246589e-017 3.04229838999343e-035 -1.0
  outer loop
    vertex 7.43203225470107 7.20554708716648 2.032
    vertex 7.25107474755978 54.6390502133866 2.032
    vertex 7.68845893416926 54.7485790926654 2.032
  endloop
endfacet
facet normal 2.02090454246589e-017 3.04229838999343e-035 -1.0
  outer loop
    vertex 7.43203225470107 7.20554708716648 2.032
    vertex 7.68845893416926 54.7485790926654 2.032
    vertex 7.8486 7.03299907741648 2.032
  endloop
endfacet
facet normal 2.02090454246589e-017 3.04229838999343e-035 -1.0
  outer loop
    vertex 7.8486 7.03299907741648 2.032
    vertex 7.68845893416926 54.7485790926654 2.032
    vertex 8.0825914560797 54.9675792234066 2.032
  endloop
endfacet
facet normal 2.02090454246589e-017 3.04229838999343e-035 -1.0
  outer loop
    vertex 7.8486 7.03299907741648 2.032
    vertex 8.0825914560797 54.9675792234066 2.032
    vertex 8.2063148324654 6.75851483246541 2.032
  endloop
endfacet
facet normal 2.02090454246589e-017 3.04229838999343e-035 -1.0
  outer loop
    vertex 8.2063148324654 6.75851483246541 2.032
    vertex 8.0825914560797 54.9675792234066 2.032
    vertex 8.40661283325768 55.2811261086149 2.032
  endloop
endfacet
facet normal 2.02090454246589e-017 3.04229838999343e-035 -1.0
  outer loop
    vertex 8.2063148324654 6.75851483246541 2.032
    vertex 8.40661283325768 55.2811261086149 2.032
    vertex 8.48079907741648 6.4008 2.032
  endloop
endfacet
facet normal 2.02090454246589e-017 3.04229838999343e-035 -1.0
  outer loop
    vertex 8.48079907741648 6.4008 2.032
    vertex 8.40661283325768 55.2811261086149 2.032
    vertex 8.63844154431917 55.667852046224 2.032
  endloop
endfacet
facet normal 2.02090454246589e-017 3.04229838999343e-035 -1.0
  outer loop
    vertex 8.48079907741648 6.4008 2.032
    vertex 8.63844154431917 55.667852046224 2.032
    vertex 8.65334708716648 5.98423225470108 2.032
  endloop
endfacet
facet normal 2.02090454246589e-017 3.04229838999343e-035 -1.0
  outer loop
    vertex 8.65334708716648 5.98423225470108 2.032
    vertex 8.63844154431917 55.667852046224 2.032
    vertex 8.76227884572039 56.1014023026808 2.032
  endloop
endfacet
facet normal 2.02090454246589e-017 3.04229838999343e-035 -1.0
  outer loop
    vertex 8.65334708716648 5.98423225470108 2.032
    vertex 8.76227884572039 56.1014023026808 2.032
    vertex 8.7122 5.5372 2.032
  endloop
endfacet
facet normal 2.02090454246589e-017 3.04229838999343e-035 -1.0
  outer loop
    vertex 2.032 61.8744 2.032
    vertex 5.34530040076419 56.6084897376511 2.032
    vertex 2.032 35.2552 2.032
  endloop
endfacet
facet normal 2.02090454246589e-017 3.04229838999343e-035 -1.0
  outer loop
    vertex 5.34530040076419 56.6084897376511 2.032
    vertex 2.032 61.8744 2.032
    vertex 5.46913770216541 57.0420399941079 2.032
  endloop
endfacet
facet normal 2.02090454246589e-017 3.04229838999343e-035 -1.0
  outer loop
    vertex 5.46913770216541 57.0420399941079 2.032
    vertex 2.032 61.8744 2.032
    vertex 5.7009664132269 57.4287659317171 2.032
  endloop
endfacet
facet normal 2.02090454246589e-017 3.04229838999343e-035 -1.0
  outer loop
    vertex 5.7009664132269 57.4287659317171 2.032
    vertex 2.032 61.8744 2.032
    vertex 6.02498779040488 57.7423128169254 2.032
  endloop
endfacet
facet normal 2.02090454246589e-017 3.04229838999343e-035 -1.0
  outer loop
    vertex 6.02498779040488 57.7423128169254 2.032
    vertex 2.032 61.8744 2.032
    vertex 11.7602 61.8744 2.032
  endloop
endfacet
facet normal 2.02090454246589e-017 3.04229838999343e-035 -1.0
  outer loop
    vertex 2.032 35.2552 2.032
    vertex 5.34530040076419 56.6084897376511 2.032
    vertex 2.032 26.6192 2.032
  endloop
endfacet
facet normal 2.02090454246589e-017 3.04229838999343e-035 -1.0
  outer loop
    vertex 2.032 26.6192 2.032
    vertex 5.34530040076419 56.6084897376511 2.032
    vertex 2.032 0.0 2.032
  endloop
endfacet
facet normal 2.02090454246589e-017 3.04229838999343e-035 -1.0
  outer loop
    vertex 2.032 0.0 2.032
    vertex 5.34530040076419 56.6084897376511 2.032
    vertex 5.33789381646292 56.1576608958485 2.032
  endloop
endfacet
facet normal 2.02090454246589e-017 3.04229838999343e-035 -1.0
  outer loop
    vertex 2.032 0.0 2.032
    vertex 5.33789381646292 56.1576608958485 2.032
    vertex 5.2578 5.5372 2.032
  endloop
endfacet
facet normal 2.02090454246589e-017 3.04229838999343e-035 -1.0
  outer loop
    vertex 5.2578 5.5372 2.032
    vertex 5.33789381646292 56.1576608958485 2.032
    vertex 5.31665291283352 5.98423225470107 2.032
  endloop
endfacet
facet normal 2.02090454246589e-017 3.04229838999343e-035 -1.0
  outer loop
    vertex 6.02498779040488 57.7423128169254 2.032
    vertex 11.7602 61.8744 2.032
    vertex 6.41912031231531 57.9613129476665 2.032
  endloop
endfacet
facet normal 2.02090454246589e-017 3.04229838999343e-035 -1.0
  outer loop
    vertex 6.41912031231531 57.9613129476665 2.032
    vertex 11.7602 61.8744 2.032
    vertex 6.85650449892479 58.0708418269453 2.032
  endloop
endfacet
facet normal 2.02090454246589e-017 3.04229838999343e-035 -1.0
  outer loop
    vertex 6.85650449892479 58.0708418269453 2.032
    vertex 11.7602 61.8744 2.032
    vertex 7.30733334072743 58.0634352426441 2.032
  endloop
endfacet
facet normal 2.02090454246589e-017 3.04229838999343e-035 -1.0
  outer loop
    vertex 7.30733334072743 58.0634352426441 2.032
    vertex 11.7602 61.8744 2.032
    vertex 7.74088359718425 57.9395979412429 2.032
  endloop
endfacet
facet normal 2.02090454246589e-017 3.04229838999343e-035 -1.0
  outer loop
    vertex 7.74088359718425 57.9395979412429 2.032
    vertex 11.7602 61.8744 2.032
    vertex 8.12760953479341 57.7077692301814 2.032
  endloop
endfacet
facet normal 2.02090454246589e-017 3.04229838999343e-035 -1.0
  outer loop
    vertex 8.12760953479341 57.7077692301814 2.032
    vertex 11.7602 61.8744 2.032
    vertex 8.44115642000167 57.3837478530034 2.032
  endloop
endfacet
facet normal 2.02090454246589e-017 3.04229838999343e-035 -1.0
  outer loop
    vertex 8.44115642000167 57.3837478530034 2.032
    vertex 11.7602 61.8744 2.032
    vertex 8.66015655074282 56.989615331093 2.032
  endloop
endfacet
facet normal 2.02090454246589e-017 3.04229838999343e-035 -1.0
  outer loop
    vertex 8.66015655074282 56.989615331093 2.032
    vertex 11.7602 61.8744 2.032
    vertex 8.76968543002166 56.5522311444835 2.032
  endloop
endfacet
facet normal 2.02090454246589e-017 3.04229838999343e-035 -1.0
  outer loop
    vertex 2.032 0.0 2.032
    vertex 6.1214 4.04140092258352 2.032
    vertex 11.7602 0.0 2.032
  endloop
endfacet
facet normal 2.02090454246589e-017 3.04229838999343e-035 -1.0
  outer loop
    vertex 6.1214 4.04140092258352 2.032
    vertex 2.032 0.0 2.032
    vertex 5.7636851675346 4.3158851675346 2.032
  endloop
endfacet
facet normal 2.02090454246589e-017 3.04229838999343e-035 -1.0
  outer loop
    vertex 5.7636851675346 4.3158851675346 2.032
    vertex 2.032 0.0 2.032
    vertex 5.48920092258352 4.6736 2.032
  endloop
endfacet
facet normal 2.02090454246589e-017 3.04229838999343e-035 -1.0
  outer loop
    vertex 5.48920092258352 4.6736 2.032
    vertex 2.032 0.0 2.032
    vertex 5.31665291283352 5.09016774529893 2.032
  endloop
endfacet
facet normal 2.02090454246589e-017 3.04229838999343e-035 -1.0
  outer loop
    vertex 5.31665291283352 5.09016774529893 2.032
    vertex 2.032 0.0 2.032
    vertex 5.2578 5.5372 2.032
  endloop
endfacet
facet normal 2.02090454246589e-017 3.04229838999343e-035 -1.0
  outer loop
    vertex 11.7602 0.0 2.032
    vertex 6.1214 4.04140092258352 2.032
    vertex 6.53796774529893 3.86885291283352 2.032
  endloop
endfacet
facet normal 2.02090454246589e-017 3.04229838999343e-035 -1.0
  outer loop
    vertex 11.7602 0.0 2.032
    vertex 6.53796774529893 3.86885291283352 2.032
    vertex 6.985 3.81 2.032
  endloop
endfacet
facet normal 2.02090454246589e-017 3.04229838999343e-035 -1.0
  outer loop
    vertex 11.7602 0.0 2.032
    vertex 6.985 3.81 2.032
    vertex 7.43203225470107 3.86885291283352 2.032
  endloop
endfacet
facet normal 2.02090454246589e-017 3.04229838999343e-035 -1.0
  outer loop
    vertex 11.7602 0.0 2.032
    vertex 7.43203225470107 3.86885291283352 2.032
    vertex 7.8486 4.04140092258352 2.032
  endloop
endfacet
facet normal 2.02090454246589e-017 3.04229838999343e-035 -1.0
  outer loop
    vertex 11.7602 0.0 2.032
    vertex 7.8486 4.04140092258352 2.032
    vertex 8.2063148324654 4.3158851675346 2.032
  endloop
endfacet
facet normal 2.02090454246589e-017 3.04229838999343e-035 -1.0
  outer loop
    vertex 11.7602 0.0 2.032
    vertex 8.2063148324654 4.3158851675346 2.032
    vertex 8.48079907741648 4.6736 2.032
  endloop
endfacet
facet normal 2.02090454246589e-017 3.04229838999343e-035 -1.0
  outer loop
    vertex 11.7602 0.0 2.032
    vertex 8.48079907741648 4.6736 2.032
    vertex 8.65334708716648 5.09016774529893 2.032
  endloop
endfacet
facet normal 2.02090454246589e-017 3.04229838999343e-035 -1.0
  outer loop
    vertex 11.7602 0.0 2.032
    vertex 8.65334708716648 5.09016774529893 2.032
    vertex 8.7122 5.5372 2.032
  endloop
endfacet
facet normal 2.02090454246589e-017 3.04229838999343e-035 -1.0
  outer loop
    vertex 11.7602 0.0 2.032
    vertex 8.7122 5.5372 2.032
    vertex 8.76227884572039 56.1014023026808 2.032
  endloop
endfacet
facet normal 2.02090454246589e-017 3.04229838999343e-035 -1.0
  outer loop
    vertex 11.7602 0.0 2.032
    vertex 8.76227884572039 56.1014023026808 2.032
    vertex 8.76968543002166 56.5522311444835 2.032
  endloop
endfacet
facet normal 2.02090454246589e-017 3.04229838999343e-035 -1.0
  outer loop
    vertex 11.7602 0.0 2.032
    vertex 8.76968543002166 56.5522311444835 2.032
    vertex 11.7602 61.8744 2.032
  endloop
endfacet
facet normal 2.02090454246589e-017 3.04229838999343e-035 -1.0
  outer loop
    vertex 2.032 35.2552 2.032
    vertex -5.54911209019115 26.6192 2.032
    vertex -5.54911209019115 35.2552 2.032
  endloop
endfacet
facet normal 2.02090454246589e-017 3.04229838999343e-035 -1.0
  outer loop
    vertex -5.54911209019115 26.6192 2.032
    vertex 2.032 35.2552 2.032
    vertex 2.032 26.6192 2.032
  endloop
endfacet
facet normal -0.992295599649183 -0.123892868708688 1.89959615588279e-015
  outer loop
    vertex -11.5704023451872 43.954515235916 12.192
    vertex -11.5181120901912 43.7540112455491 -1.05748743095546e-014
    vertex -11.5181120901912 43.7540112455491 12.192
  endloop
endfacet
facet normal -0.967635108840262 -0.252353514221011 1.45482340214117e-015
  outer loop
    vertex -11.5181120901912 43.7540112455491 -1.05748743095546e-014
    vertex -11.5704023451872 43.954515235916 12.192
    vertex -11.5704023451873 43.954515235916 -1.05748743095546e-014
  endloop
endfacet
facet normal -0.997732829472428 0.0672993387258927 0.0
  outer loop
    vertex -11.3806585584254 18.1607857334174 12.192
    vertex -11.3708594953745 17.9718801334765 -9.16489106828067e-015
    vertex -11.3708594953745 17.9718801334765 12.192
  endloop
endfacet
facet normal -0.98541458998376 -0.170170754970233 0.0
  outer loop
    vertex -11.3708594953745 17.9718801334765 -9.16489106828067e-015
    vertex -11.3806585584254 18.1607857334174 12.192
    vertex -11.3806585584254 18.1607857334174 -9.16489106828067e-015
  endloop
endfacet
facet normal -0.953635478938515 0.30096407312121 2.05368638906762e-020
  outer loop
    vertex -11.3455794613957 18.3466641998337 12.192
    vertex -11.3806585584254 18.1607857334174 -9.16489106828067e-015
    vertex -11.3806585584254 18.1607857334174 12.192
  endloop
endfacet
facet normal -0.997732829472428 0.0672993387258927 0.0
  outer loop
    vertex -11.3806585584254 18.1607857334174 -9.16489106828067e-015
    vertex -11.3455794613957 18.3466641998337 12.192
    vertex -11.3455794613957 18.3466641998337 -9.16489106828067e-015
  endloop
endfacet
facet normal 0.586077110513682 -0.81025528108858 -1.70300180946975e-019
  outer loop
    vertex -10.0474233357403 17.5227008446421 -7.75490782700672e-015
    vertex -10.2006908857315 17.4118387436093 12.192
    vertex -10.2006908857315 17.4118387436093 -9.16489106828067e-015
  endloop
endfacet
facet normal 0.485584943429425 -0.874189489020912 -8.57583857920077e-020
  outer loop
    vertex -10.2006908857315 17.4118387436093 12.192
    vertex -10.0474233357403 17.5227008446421 -7.75490782700672e-015
    vertex -10.0474233357403 17.5227008446421 12.192
  endloop
endfacet
facet normal -0.604868250398927 0.796325561349967 -2.99443815463652e-016
  outer loop
    vertex -11.2617499365732 44.685796818589 12.192
    vertex -11.1837283944377 44.7305197870401 -1.62148072746504e-014
    vertex -11.2617499365732 44.685796818589 -1.62148072746504e-014
  endloop
endfacet
facet normal -0.494559945946 0.869143520867463 -7.12096717071782e-016
  outer loop
    vertex -11.1837283944377 44.7305197870401 -1.62148072746504e-014
    vertex -11.2617499365732 44.685796818589 12.192
    vertex -11.1837283944377 44.7305197870401 12.192
  endloop
endfacet
facet normal 0.388853428175139 0.921299631714049 -2.87890699179678e-015
  outer loop
    vertex -10.4741153043517 44.7841367831265 12.192
    vertex -10.2953627792106 44.6793338457808 -2.18547402397462e-014
    vertex -10.4741153043517 44.7841367831265 -2.18547402397462e-014
  endloop
endfacet
facet normal 0.61405345984894 0.789264435058078 -2.06539449650323e-015
  outer loop
    vertex -10.2953627792106 44.6793338457808 -2.18547402397462e-014
    vertex -10.4741153043517 44.7841367831265 12.192
    vertex -10.2953627792106 44.6793338457808 12.192
  endloop
endfacet
facet normal -0.789264435058076 0.614053459848943 5.20115239980708e-016
  outer loop
    vertex -11.4092463582931 44.5402601342086 -1.33948407921025e-014
    vertex -11.2617499365732 44.685796818589 12.192
    vertex -11.2617499365732 44.685796818589 -1.62148072746504e-014
  endloop
endfacet
facet normal -0.604868250398927 0.796325561349967 -2.99443815463652e-016
  outer loop
    vertex -11.2617499365732 44.685796818589 12.192
    vertex -11.4092463582931 44.5402601342086 -1.33948407921025e-014
    vertex -11.409246358293 44.5402601342086 12.192
  endloop
endfacet
facet normal -0.37522467565315 0.926933893425518 -1.1135446134359e-015
  outer loop
    vertex -11.0816116678701 44.7881995776789 -1.62148072746504e-014
    vertex -10.8811076775032 44.840489832675 12.192
    vertex -10.8811076775032 44.840489832675 -1.90347737571983e-014
  endloop
endfacet
facet normal -0.123892868708688 0.992295599649183 -1.83827472875036e-015
  outer loop
    vertex -10.8811076775032 44.840489832675 12.192
    vertex -11.0816116678701 44.7881995776789 -1.62148072746504e-014
    vertex -11.0816116678701 44.7881995776789 12.192
  endloop
endfacet
facet normal -0.123892868708688 0.992295599649183 -1.83827472875036e-015
  outer loop
    vertex -10.8811076775032 44.840489832675 12.192
    vertex -10.6739019810676 44.839104089113 -1.90347737571983e-014
    vertex -10.8811076775032 44.840489832675 -1.90347737571983e-014
  endloop
endfacet
facet normal 0.137153677981873 0.990549780988338 -2.44179293697415e-015
  outer loop
    vertex -10.6739019810676 44.839104089113 -1.90347737571983e-014
    vertex -10.8811076775032 44.840489832675 12.192
    vertex -10.6739019810676 44.839104089113 12.192
  endloop
endfacet
facet normal 0.137153677981873 0.990549780988338 -2.44179293697415e-015
  outer loop
    vertex -10.6739019810676 44.839104089113 -1.90347737571983e-014
    vertex -10.4741153043517 44.7841367831265 12.192
    vertex -10.4741153043517 44.7841367831265 -2.18547402397462e-014
  endloop
endfacet
facet normal 0.388853428175139 0.921299631714049 -2.87890699179678e-015
  outer loop
    vertex -10.4741153043517 44.7841367831265 12.192
    vertex -10.6739019810676 44.839104089113 -1.90347737571983e-014
    vertex -10.6739019810676 44.839104089113 12.192
  endloop
endfacet
facet normal -1.0 0.0 0.0
  outer loop
    vertex -5.54911209019115 35.2552 12.192
    vertex -5.54911209019115 26.6192 2.032
    vertex -5.54911209019115 26.6192 12.192
  endloop
endfacet
facet normal -1.0 0.0 0.0
  outer loop
    vertex -5.54911209019115 26.6192 2.032
    vertex -5.54911209019115 35.2552 12.192
    vertex -5.54911209019115 35.2552 2.032
  endloop
endfacet
facet normal -0.990549780988338 0.137153677981873 2.01034715709234e-015
  outer loop
    vertex -11.5690166016252 44.1617209323516 12.192
    vertex -11.5704023451873 43.954515235916 -1.05748743095546e-014
    vertex -11.5704023451872 43.954515235916 12.192
  endloop
endfacet
facet normal -0.992295599649183 -0.123892868708687 1.89959615588279e-015
  outer loop
    vertex -11.5704023451873 43.954515235916 -1.05748743095546e-014
    vertex -11.5690166016252 44.1617209323516 12.192
    vertex -11.5690166016252 44.1617209323516 -1.33948407921025e-014
  endloop
endfacet
facet normal -0.789264435058076 0.614053459848942 5.20115239980711e-016
  outer loop
    vertex -11.409246358293 44.5402601342086 12.192
    vertex -11.5140492956387 44.3615076090675 -1.33948407921025e-014
    vertex -11.5140492956387 44.3615076090675 12.192
  endloop
endfacet
facet normal -0.92129963171405 0.388853428175136 1.30986372255657e-015
  outer loop
    vertex -11.5140492956387 44.3615076090675 -1.33948407921025e-014
    vertex -11.409246358293 44.5402601342086 12.192
    vertex -11.4092463582931 44.5402601342086 -1.33948407921025e-014
  endloop
endfacet
facet normal -2.98936326405638e-016 1.82167400539461e-016 1.0
  outer loop
    vertex -11.3708594953745 17.9718801334765 12.192
    vertex -11.3455794613957 18.3466641998337 12.192
    vertex -11.3806585584254 18.1607857334174 12.192
  endloop
endfacet
facet normal -2.98936326405638e-016 1.82167400539461e-016 1.0
  outer loop
    vertex -11.3455794613957 18.3466641998337 12.192
    vertex -11.3708594953745 17.9718801334765 12.192
    vertex -11.3167363483518 17.7906288375306 12.192
  endloop
endfacet
facet normal -2.98936326405638e-016 1.82167400539461e-016 1.0
  outer loop
    vertex -11.3455794613957 18.3466641998337 12.192
    vertex -11.3167363483518 17.7906288375306 12.192
    vertex -11.2676057091857 18.5190052607914 12.192
  endloop
endfacet
facet normal -2.98936326405638e-016 1.82167400539461e-016 1.0
  outer loop
    vertex -11.2676057091857 18.5190052607914 12.192
    vertex -11.3167363483518 17.7906288375306 12.192
    vertex -11.2213494449149 17.6272804797843 12.192
  endloop
endfacet
facet normal -2.98936326405638e-016 1.82167400539461e-016 1.0
  outer loop
    vertex -11.2676057091857 18.5190052607914 12.192
    vertex -11.2213494449149 17.6272804797843 12.192
    vertex -7.45411209019115 24.5872 12.192
  endloop
endfacet
facet normal -2.98936326405638e-016 1.82167400539461e-016 1.0
  outer loop
    vertex -7.45411209019115 24.5872 12.192
    vertex -11.2213494449149 17.6272804797843 12.192
    vertex -11.0900923215686 17.491071394564 12.192
  endloop
endfacet
facet normal -2.98936326405638e-016 1.82167400539461e-016 1.0
  outer loop
    vertex -7.45411209019115 24.5872 12.192
    vertex -11.0900923215686 17.491071394564 12.192
    vertex -10.9303867527995 17.389703359021 12.192
  endloop
endfacet
facet normal -2.98936326405638e-016 1.82167400539461e-016 1.0
  outer loop
    vertex -7.45411209019115 24.5872 12.192
    vertex -10.9303867527995 17.389703359021 12.192
    vertex -10.7512630958594 17.3289081055046 12.192
  endloop
endfacet
facet normal -2.98936326405638e-016 1.82167400539461e-016 1.0
  outer loop
    vertex -7.45411209019115 24.5872 12.192
    vertex -10.7512630958594 17.3289081055046 12.192
    vertex -10.5628496801917 17.3121232277236 12.192
  endloop
endfacet
facet normal -2.98936326405638e-016 1.82167400539461e-016 1.0
  outer loop
    vertex -7.45411209019115 24.5872 12.192
    vertex -10.5628496801917 17.3121232277236 12.192
    vertex -10.3758001133544 17.3402978061888 12.192
  endloop
endfacet
facet normal -2.98936326405638e-016 1.82167400539461e-016 1.0
  outer loop
    vertex -7.45411209019115 24.5872 12.192
    vertex -10.3758001133544 17.3402978061888 12.192
    vertex -10.2006908857315 17.4118387436093 12.192
  endloop
endfacet
facet normal -2.98936326405638e-016 1.82167400539461e-016 1.0
  outer loop
    vertex -7.45411209019115 24.5872 12.192
    vertex -10.2006908857315 17.4118387436093 12.192
    vertex -10.0474233357403 17.5227008446421 12.192
  endloop
endfacet
facet normal -2.98936326405638e-016 1.82167400539461e-016 1.0
  outer loop
    vertex -7.45411209019115 24.5872 12.192
    vertex -10.0474233357403 17.5227008446421 12.192
    vertex -4.27911209019115 24.5872 12.192
  endloop
endfacet
facet normal -2.98936326405638e-016 1.82167400539461e-016 1.0
  outer loop
    vertex -7.45411209019115 24.5872 12.192
    vertex -4.27911209019115 24.5872 12.192
    vertex -5.54911209019115 26.6192 12.192
  endloop
endfacet
facet normal -2.98936326405638e-016 1.82167400539461e-016 1.0
  outer loop
    vertex -7.45411209019115 24.5872 12.192
    vertex -5.54911209019115 26.6192 12.192
    vertex -7.45411209019115 37.2872 12.192
  endloop
endfacet
facet normal -2.98936326405638e-016 1.82167400539461e-016 1.0
  outer loop
    vertex -5.54911209019115 26.6192 12.192
    vertex -4.27911209019115 24.5872 12.192
    vertex -4.27911209019115 26.6192 12.192
  endloop
endfacet
facet normal -2.98936326405638e-016 1.82167400539461e-016 1.0
  outer loop
    vertex -11.5181120901912 43.7540112455491 12.192
    vertex -11.5690166016252 44.1617209323516 12.192
    vertex -11.5704023451872 43.954515235916 12.192
  endloop
endfacet
facet normal -2.98936326405638e-016 1.82167400539461e-016 1.0
  outer loop
    vertex -11.5690166016252 44.1617209323516 12.192
    vertex -11.5181120901912 43.7540112455491 12.192
    vertex -11.5140492956387 44.3615076090675 12.192
  endloop
endfacet
facet normal -2.98936326405638e-016 1.82167400539461e-016 1.0
  outer loop
    vertex -11.5140492956387 44.3615076090675 12.192
    vertex -11.5181120901912 43.7540112455491 12.192
    vertex -7.45411209019115 37.2872 12.192
  endloop
endfacet
facet normal -2.98936326405638e-016 1.82167400539461e-016 1.0
  outer loop
    vertex -11.5140492956387 44.3615076090675 12.192
    vertex -7.45411209019115 37.2872 12.192
    vertex -11.409246358293 44.5402601342086 12.192
  endloop
endfacet
facet normal -2.98936326405638e-016 1.82167400539461e-016 1.0
  outer loop
    vertex -11.409246358293 44.5402601342086 12.192
    vertex -7.45411209019115 37.2872 12.192
    vertex -11.2617499365732 44.685796818589 12.192
  endloop
endfacet
facet normal -2.98936326405638e-016 1.82167400539461e-016 1.0
  outer loop
    vertex -11.2617499365732 44.685796818589 12.192
    vertex -7.45411209019115 37.2872 12.192
    vertex -11.1837283944377 44.7305197870401 12.192
  endloop
endfacet
facet normal -2.98936326405638e-016 1.82167400539461e-016 1.0
  outer loop
    vertex -11.1837283944377 44.7305197870401 12.192
    vertex -7.45411209019115 37.2872 12.192
    vertex -11.0816116678701 44.7881995776789 12.192
  endloop
endfacet
facet normal -2.98936326405638e-016 1.82167400539461e-016 1.0
  outer loop
    vertex -11.0816116678701 44.7881995776789 12.192
    vertex -7.45411209019115 37.2872 12.192
    vertex -10.8811076775032 44.840489832675 12.192
  endloop
endfacet
facet normal -2.98936326405638e-016 1.82167400539461e-016 1.0
  outer loop
    vertex -10.8811076775032 44.840489832675 12.192
    vertex -7.45411209019115 37.2872 12.192
    vertex -10.6739019810676 44.839104089113 12.192
  endloop
endfacet
facet normal -2.98936326405638e-016 1.82167400539461e-016 1.0
  outer loop
    vertex -10.6739019810676 44.839104089113 12.192
    vertex -7.45411209019115 37.2872 12.192
    vertex -10.4741153043517 44.7841367831265 12.192
  endloop
endfacet
facet normal -2.98936326405638e-016 1.82167400539461e-016 1.0
  outer loop
    vertex -10.4741153043517 44.7841367831265 12.192
    vertex -7.45411209019115 37.2872 12.192
    vertex -10.2953627792106 44.6793338457808 12.192
  endloop
endfacet
facet normal -2.98936326405638e-016 1.82167400539461e-016 1.0
  outer loop
    vertex -10.2953627792106 44.6793338457808 12.192
    vertex -7.45411209019115 37.2872 12.192
    vertex -10.1498260948302 44.531837424061 12.192
  endloop
endfacet
facet normal -2.98936326405638e-016 1.82167400539461e-016 1.0
  outer loop
    vertex -10.1498260948302 44.531837424061 12.192
    vertex -7.45411209019115 37.2872 12.192
    vertex -4.27911209019115 37.2872 12.192
  endloop
endfacet
facet normal -2.98936326405638e-016 1.82167400539461e-016 1.0
  outer loop
    vertex -4.27911209019115 37.2872 12.192
    vertex -7.45411209019115 37.2872 12.192
    vertex -5.54911209019115 35.2552 12.192
  endloop
endfacet
facet normal -2.98936326405638e-016 1.82167400539461e-016 1.0
  outer loop
    vertex -5.54911209019115 35.2552 12.192
    vertex -7.45411209019115 37.2872 12.192
    vertex -5.54911209019115 26.6192 12.192
  endloop
endfacet
facet normal -2.98936326405638e-016 1.82167400539461e-016 1.0
  outer loop
    vertex -4.27911209019115 37.2872 12.192
    vertex -5.54911209019115 35.2552 12.192
    vertex -4.27911209019115 35.2552 12.192
  endloop
endfacet
facet normal -0.846686851428099 0.532091510568223 -3.62596353877881e-018
  outer loop
    vertex -7.45411209019115 24.5872 12.192
    vertex -11.2676057091857 18.5190052607914 -7.04991620636974e-015
    vertex -11.2676057091857 18.5190052607914 12.192
  endloop
endfacet
facet normal -0.846686851428099 0.532091510568223 -3.62596353877881e-018
  outer loop
    vertex -11.2676057091857 18.5190052607914 -7.04991620636974e-015
    vertex -7.45411209019115 24.5872 12.192
    vertex -7.45411209019115 24.5872 0.0
  endloop
endfacet
facet normal 7.07315085455014e-016 -1.52149479718047e-016 -1.0
  outer loop
    vertex 5.33789381646292 56.1576608958485 -1.26898491714655e-014
    vertex 5.48920092258352 6.4008 1.05748743095546e-015
    vertex 5.31665291283352 5.98423225470107 1.05748743095546e-015
  endloop
endfacet
facet normal 7.07315085455014e-016 -1.52149479718047e-016 -1.0
  outer loop
    vertex 5.48920092258352 6.4008 1.05748743095546e-015
    vertex 5.33789381646292 56.1576608958485 -1.26898491714655e-014
    vertex 5.44742269574177 55.720276709239 -1.26898491714655e-014
  endloop
endfacet
facet normal 7.07315085455014e-016 -1.52149479718047e-016 -1.0
  outer loop
    vertex 5.48920092258352 6.4008 1.05748743095546e-015
    vertex 5.44742269574177 55.720276709239 -1.26898491714655e-014
    vertex 5.66642282648291 55.3261441873286 -1.26898491714655e-014
  endloop
endfacet
facet normal 7.07315085455014e-016 -1.52149479718047e-016 -1.0
  outer loop
    vertex 5.48920092258352 6.4008 1.05748743095546e-015
    vertex 5.66642282648291 55.3261441873286 -1.26898491714655e-014
    vertex 5.76368516753459 6.75851483246541 1.05748743095546e-015
  endloop
endfacet
facet normal 7.07315085455014e-016 -1.52149479718047e-016 -1.0
  outer loop
    vertex 5.76368516753459 6.75851483246541 1.05748743095546e-015
    vertex 5.66642282648291 55.3261441873286 -1.26898491714655e-014
    vertex 5.97996971169117 55.0021228101506 -1.26898491714655e-014
  endloop
endfacet
facet normal 7.07315085455014e-016 -1.52149479718047e-016 -1.0
  outer loop
    vertex 5.76368516753459 6.75851483246541 1.05748743095546e-015
    vertex 5.97996971169117 55.0021228101506 -1.26898491714655e-014
    vertex 6.1214 7.03299907741648 1.05748743095546e-015
  endloop
endfacet
facet normal 7.07315085455014e-016 -1.52149479718047e-016 -1.0
  outer loop
    vertex 6.1214 7.03299907741648 1.05748743095546e-015
    vertex 5.97996971169117 55.0021228101506 -1.26898491714655e-014
    vertex 6.36669564930033 54.7702940990891 -1.26898491714655e-014
  endloop
endfacet
facet normal 7.07315085455014e-016 -1.52149479718047e-016 -1.0
  outer loop
    vertex 6.1214 7.03299907741648 1.05748743095546e-015
    vertex 6.36669564930033 54.7702940990891 -1.26898491714655e-014
    vertex 6.53796774529892 7.20554708716648 1.05748743095546e-015
  endloop
endfacet
facet normal 7.07315085455014e-016 -1.52149479718047e-016 -1.0
  outer loop
    vertex 6.53796774529892 7.20554708716648 1.05748743095546e-015
    vertex 6.36669564930033 54.7702940990891 -1.26898491714655e-014
    vertex 6.80024590575715 54.6464567976879 -1.26898491714655e-014
  endloop
endfacet
facet normal 7.07315085455014e-016 -1.52149479718047e-016 -1.0
  outer loop
    vertex 6.53796774529892 7.20554708716648 1.05748743095546e-015
    vertex 6.80024590575715 54.6464567976879 -1.26898491714655e-014
    vertex 6.985 7.2644 1.05748743095546e-015
  endloop
endfacet
facet normal 7.07315085455014e-016 -1.52149479718047e-016 -1.0
  outer loop
    vertex 6.985 7.2644 1.05748743095546e-015
    vertex 6.80024590575715 54.6464567976879 -1.26898491714655e-014
    vertex 7.25107474755978 54.6390502133866 -1.26898491714655e-014
  endloop
endfacet
facet normal 7.07315085455014e-016 -1.52149479718047e-016 -1.0
  outer loop
    vertex 6.985 7.2644 1.05748743095546e-015
    vertex 7.25107474755978 54.6390502133866 -1.26898491714655e-014
    vertex 7.43203225470107 7.20554708716648 1.05748743095546e-015
  endloop
endfacet
facet normal 7.07315085455014e-016 -1.52149479718047e-016 -1.0
  outer loop
    vertex 7.43203225470107 7.20554708716648 1.05748743095546e-015
    vertex 7.25107474755978 54.6390502133866 -1.26898491714655e-014
    vertex 7.68845893416926 54.7485790926654 -1.26898491714655e-014
  endloop
endfacet
facet normal 7.07315085455014e-016 -1.52149479718047e-016 -1.0
  outer loop
    vertex 7.43203225470107 7.20554708716648 1.05748743095546e-015
    vertex 7.68845893416926 54.7485790926654 -1.26898491714655e-014
    vertex 7.8486 7.03299907741648 1.05748743095546e-015
  endloop
endfacet
facet normal 7.07315085455014e-016 -1.52149479718047e-016 -1.0
  outer loop
    vertex 7.8486 7.03299907741648 1.05748743095546e-015
    vertex 7.68845893416926 54.7485790926654 -1.26898491714655e-014
    vertex 8.0825914560797 54.9675792234066 -1.26898491714655e-014
  endloop
endfacet
facet normal 7.07315085455014e-016 -1.52149479718047e-016 -1.0
  outer loop
    vertex 7.8486 7.03299907741648 1.05748743095546e-015
    vertex 8.0825914560797 54.9675792234066 -1.26898491714655e-014
    vertex 8.2063148324654 6.75851483246541 1.05748743095546e-015
  endloop
endfacet
facet normal 7.07315085455014e-016 -1.52149479718047e-016 -1.0
  outer loop
    vertex 8.2063148324654 6.75851483246541 1.05748743095546e-015
    vertex 8.0825914560797 54.9675792234066 -1.26898491714655e-014
    vertex 8.40661283325768 55.2811261086149 -1.26898491714655e-014
  endloop
endfacet
facet normal 7.07315085455014e-016 -1.52149479718047e-016 -1.0
  outer loop
    vertex 8.2063148324654 6.75851483246541 1.05748743095546e-015
    vertex 8.40661283325768 55.2811261086149 -1.26898491714655e-014
    vertex 8.48079907741648 6.4008 1.05748743095546e-015
  endloop
endfacet
facet normal 7.07315085455014e-016 -1.52149479718047e-016 -1.0
  outer loop
    vertex 8.48079907741648 6.4008 1.05748743095546e-015
    vertex 8.40661283325768 55.2811261086149 -1.26898491714655e-014
    vertex 8.63844154431917 55.667852046224 -1.26898491714655e-014
  endloop
endfacet
facet normal 7.07315085455014e-016 -1.52149479718047e-016 -1.0
  outer loop
    vertex 8.48079907741648 6.4008 1.05748743095546e-015
    vertex 8.63844154431917 55.667852046224 -1.26898491714655e-014
    vertex 8.65334708716648 5.98423225470108 1.05748743095546e-015
  endloop
endfacet
facet normal 7.07315085455014e-016 -1.52149479718047e-016 -1.0
  outer loop
    vertex 8.65334708716648 5.98423225470108 1.05748743095546e-015
    vertex 8.63844154431917 55.667852046224 -1.26898491714655e-014
    vertex 8.76227884572039 56.1014023026808 -1.26898491714655e-014
  endloop
endfacet
facet normal 7.07315085455014e-016 -1.52149479718047e-016 -1.0
  outer loop
    vertex 8.65334708716648 5.98423225470108 1.05748743095546e-015
    vertex 8.76227884572039 56.1014023026808 -1.26898491714655e-014
    vertex 8.7122 5.5372 1.05748743095546e-015
  endloop
endfacet
facet normal 7.07315085455014e-016 -1.52149479718047e-016 -1.0
  outer loop
    vertex 0.0 61.8744 0.0
    vertex 5.34530040076419 56.6084897376511 -1.26898491714655e-014
    vertex 0.0 37.2872 0.0
  endloop
endfacet
facet normal 7.07315085455014e-016 -1.52149479718047e-016 -1.0
  outer loop
    vertex 5.34530040076419 56.6084897376511 -1.26898491714655e-014
    vertex 0.0 61.8744 0.0
    vertex 5.46913770216541 57.0420399941079 -1.26898491714655e-014
  endloop
endfacet
facet normal 7.07315085455014e-016 -1.52149479718047e-016 -1.0
  outer loop
    vertex 5.46913770216541 57.0420399941079 -1.26898491714655e-014
    vertex 0.0 61.8744 0.0
    vertex 5.7009664132269 57.4287659317171 -1.26898491714655e-014
  endloop
endfacet
facet normal 7.07315085455014e-016 -1.52149479718047e-016 -1.0
  outer loop
    vertex 5.7009664132269 57.4287659317171 -1.26898491714655e-014
    vertex 0.0 61.8744 0.0
    vertex 6.02498779040488 57.7423128169254 -1.26898491714655e-014
  endloop
endfacet
facet normal 7.07315085455014e-016 -1.52149479718047e-016 -1.0
  outer loop
    vertex 6.02498779040488 57.7423128169254 -1.26898491714655e-014
    vertex 0.0 61.8744 0.0
    vertex 11.7602 61.8744 0.0
  endloop
endfacet
facet normal 7.07315085455014e-016 -1.52149479718047e-016 -1.0
  outer loop
    vertex 0.0 37.2872 0.0
    vertex 5.34530040076419 56.6084897376511 -1.26898491714655e-014
    vertex 0.0 24.5872 0.0
  endloop
endfacet
facet normal 7.07315085455014e-016 -1.52149479718047e-016 -1.0
  outer loop
    vertex 0.0 24.5872 0.0
    vertex 5.34530040076419 56.6084897376511 -1.26898491714655e-014
    vertex 0.0 0.0 0.0
  endloop
endfacet
facet normal 7.07315085455014e-016 -1.52149479718047e-016 -1.0
  outer loop
    vertex 0.0 0.0 0.0
    vertex 5.34530040076419 56.6084897376511 -1.26898491714655e-014
    vertex 5.33789381646292 56.1576608958485 -1.26898491714655e-014
  endloop
endfacet
facet normal 7.07315085455014e-016 -1.52149479718047e-016 -1.0
  outer loop
    vertex 0.0 0.0 0.0
    vertex 5.33789381646292 56.1576608958485 -1.26898491714655e-014
    vertex 5.2578 5.5372 1.05748743095546e-015
  endloop
endfacet
facet normal 7.07315085455014e-016 -1.52149479718047e-016 -1.0
  outer loop
    vertex 5.2578 5.5372 1.05748743095546e-015
    vertex 5.33789381646292 56.1576608958485 -1.26898491714655e-014
    vertex 5.31665291283352 5.98423225470107 1.05748743095546e-015
  endloop
endfacet
facet normal 7.07315085455014e-016 -1.52149479718047e-016 -1.0
  outer loop
    vertex 6.02498779040488 57.7423128169254 -1.26898491714655e-014
    vertex 11.7602 61.8744 0.0
    vertex 6.41912031231531 57.9613129476665 -1.26898491714655e-014
  endloop
endfacet
facet normal 7.07315085455014e-016 -1.52149479718047e-016 -1.0
  outer loop
    vertex 6.41912031231531 57.9613129476665 -1.26898491714655e-014
    vertex 11.7602 61.8744 0.0
    vertex 6.85650449892479 58.0708418269453 -1.26898491714655e-014
  endloop
endfacet
facet normal 7.07315085455014e-016 -1.52149479718047e-016 -1.0
  outer loop
    vertex 6.85650449892479 58.0708418269453 -1.26898491714655e-014
    vertex 11.7602 61.8744 0.0
    vertex 7.30733334072743 58.0634352426441 -1.26898491714655e-014
  endloop
endfacet
facet normal 7.07315085455014e-016 -1.52149479718047e-016 -1.0
  outer loop
    vertex 7.30733334072743 58.0634352426441 -1.26898491714655e-014
    vertex 11.7602 61.8744 0.0
    vertex 7.74088359718425 57.9395979412429 -1.26898491714655e-014
  endloop
endfacet
facet normal 7.07315085455014e-016 -1.52149479718047e-016 -1.0
  outer loop
    vertex 7.74088359718425 57.9395979412429 -1.26898491714655e-014
    vertex 11.7602 61.8744 0.0
    vertex 8.12760953479341 57.7077692301814 -1.26898491714655e-014
  endloop
endfacet
facet normal 7.07315085455014e-016 -1.52149479718047e-016 -1.0
  outer loop
    vertex 8.12760953479341 57.7077692301814 -1.26898491714655e-014
    vertex 11.7602 61.8744 0.0
    vertex 8.44115642000167 57.3837478530034 -1.26898491714655e-014
  endloop
endfacet
facet normal 7.07315085455014e-016 -1.52149479718047e-016 -1.0
  outer loop
    vertex 8.44115642000167 57.3837478530034 -1.26898491714655e-014
    vertex 11.7602 61.8744 0.0
    vertex 8.66015655074282 56.989615331093 -1.26898491714655e-014
  endloop
endfacet
facet normal 7.07315085455014e-016 -1.52149479718047e-016 -1.0
  outer loop
    vertex 8.66015655074282 56.989615331093 -1.26898491714655e-014
    vertex 11.7602 61.8744 0.0
    vertex 8.76968543002166 56.5522311444835 -1.26898491714655e-014
  endloop
endfacet
facet normal 7.07315085455014e-016 -1.52149479718047e-016 -1.0
  outer loop
    vertex 0.0 0.0 0.0
    vertex 6.1214 4.04140092258352 1.05748743095546e-015
    vertex 11.7602 0.0 0.0
  endloop
endfacet
facet normal 7.07315085455014e-016 -1.52149479718047e-016 -1.0
  outer loop
    vertex 6.1214 4.04140092258352 1.05748743095546e-015
    vertex 0.0 0.0 0.0
    vertex 5.7636851675346 4.3158851675346 1.05748743095546e-015
  endloop
endfacet
facet normal 7.07315085455014e-016 -1.52149479718047e-016 -1.0
  outer loop
    vertex 5.7636851675346 4.3158851675346 1.05748743095546e-015
    vertex 0.0 0.0 0.0
    vertex 5.48920092258352 4.6736 1.05748743095546e-015
  endloop
endfacet
facet normal 7.07315085455014e-016 -1.52149479718047e-016 -1.0
  outer loop
    vertex 5.48920092258352 4.6736 1.05748743095546e-015
    vertex 0.0 0.0 0.0
    vertex 5.31665291283352 5.09016774529893 1.05748743095546e-015
  endloop
endfacet
facet normal 7.07315085455014e-016 -1.52149479718047e-016 -1.0
  outer loop
    vertex 5.31665291283352 5.09016774529893 1.05748743095546e-015
    vertex 0.0 0.0 0.0
    vertex 5.2578 5.5372 1.05748743095546e-015
  endloop
endfacet
facet normal 7.07315085455014e-016 -1.52149479718047e-016 -1.0
  outer loop
    vertex 11.7602 0.0 0.0
    vertex 6.1214 4.04140092258352 1.05748743095546e-015
    vertex 6.53796774529893 3.86885291283352 1.05748743095546e-015
  endloop
endfacet
facet normal 7.07315085455014e-016 -1.52149479718047e-016 -1.0
  outer loop
    vertex 11.7602 0.0 0.0
    vertex 6.53796774529893 3.86885291283352 1.05748743095546e-015
    vertex 6.985 3.81 1.05748743095546e-015
  endloop
endfacet
facet normal 7.07315085455014e-016 -1.52149479718047e-016 -1.0
  outer loop
    vertex 11.7602 0.0 0.0
    vertex 6.985 3.81 1.05748743095546e-015
    vertex 7.43203225470107 3.86885291283352 1.05748743095546e-015
  endloop
endfacet
facet normal 7.07315085455014e-016 -1.52149479718047e-016 -1.0
  outer loop
    vertex 11.7602 0.0 0.0
    vertex 7.43203225470107 3.86885291283352 1.05748743095546e-015
    vertex 7.8486 4.04140092258352 1.05748743095546e-015
  endloop
endfacet
facet normal 7.07315085455014e-016 -1.52149479718047e-016 -1.0
  outer loop
    vertex 11.7602 0.0 0.0
    vertex 7.8486 4.04140092258352 1.05748743095546e-015
    vertex 8.2063148324654 4.3158851675346 1.05748743095546e-015
  endloop
endfacet
facet normal 7.07315085455014e-016 -1.52149479718047e-016 -1.0
  outer loop
    vertex 11.7602 0.0 0.0
    vertex 8.2063148324654 4.3158851675346 1.05748743095546e-015
    vertex 8.48079907741648 4.6736 1.05748743095546e-015
  endloop
endfacet
facet normal 7.07315085455014e-016 -1.52149479718047e-016 -1.0
  outer loop
    vertex 11.7602 0.0 0.0
    vertex 8.48079907741648 4.6736 1.05748743095546e-015
    vertex 8.65334708716648 5.09016774529893 1.05748743095546e-015
  endloop
endfacet
facet normal 7.07315085455014e-016 -1.52149479718047e-016 -1.0
  outer loop
    vertex 11.7602 0.0 0.0
    vertex 8.65334708716648 5.09016774529893 1.05748743095546e-015
    vertex 8.7122 5.5372 1.05748743095546e-015
  endloop
endfacet
facet normal 7.07315085455014e-016 -1.52149479718047e-016 -1.0
  outer loop
    vertex 11.7602 0.0 0.0
    vertex 8.7122 5.5372 1.05748743095546e-015
    vertex 8.76227884572039 56.1014023026808 -1.26898491714655e-014
  endloop
endfacet
facet normal 7.07315085455014e-016 -1.52149479718047e-016 -1.0
  outer loop
    vertex 11.7602 0.0 0.0
    vertex 8.76227884572039 56.1014023026808 -1.26898491714655e-014
    vertex 8.76968543002166 56.5522311444835 -1.26898491714655e-014
  endloop
endfacet
facet normal 7.07315085455014e-016 -1.52149479718047e-016 -1.0
  outer loop
    vertex 11.7602 0.0 0.0
    vertex 8.76968543002166 56.5522311444835 -1.26898491714655e-014
    vertex 11.7602 61.8744 0.0
  endloop
endfacet
facet normal 7.07315085455014e-016 -1.52149479718047e-016 -1.0
  outer loop
    vertex -11.5690166016252 44.1617209323516 -1.33948407921025e-014
    vertex -11.5181120901912 43.7540112455491 -1.05748743095546e-014
    vertex -11.5704023451873 43.954515235916 -1.05748743095546e-014
  endloop
endfacet
facet normal 7.07315085455014e-016 -1.52149479718047e-016 -1.0
  outer loop
    vertex -11.5181120901912 43.7540112455491 -1.05748743095546e-014
    vertex -11.5690166016252 44.1617209323516 -1.33948407921025e-014
    vertex -11.5140492956387 44.3615076090675 -1.33948407921025e-014
  endloop
endfacet
facet normal 7.07315085455014e-016 -1.52149479718047e-016 -1.0
  outer loop
    vertex -11.5181120901912 43.7540112455491 -1.05748743095546e-014
    vertex -11.5140492956387 44.3615076090675 -1.33948407921025e-014
    vertex -7.45411209019115 37.2872 0.0
  endloop
endfacet
facet normal 7.07315085455014e-016 -1.52149479718047e-016 -1.0
  outer loop
    vertex -7.45411209019115 37.2872 0.0
    vertex -11.5140492956387 44.3615076090675 -1.33948407921025e-014
    vertex -11.4092463582931 44.5402601342086 -1.33948407921025e-014
  endloop
endfacet
facet normal 7.07315085455014e-016 -1.52149479718047e-016 -1.0
  outer loop
    vertex -7.45411209019115 37.2872 0.0
    vertex -11.4092463582931 44.5402601342086 -1.33948407921025e-014
    vertex -11.2617499365732 44.685796818589 -1.62148072746504e-014
  endloop
endfacet
facet normal 7.07315085455014e-016 -1.52149479718047e-016 -1.0
  outer loop
    vertex -7.45411209019115 37.2872 0.0
    vertex -11.2617499365732 44.685796818589 -1.62148072746504e-014
    vertex -11.1837283944377 44.7305197870401 -1.62148072746504e-014
  endloop
endfacet
facet normal 7.07315085455014e-016 -1.52149479718047e-016 -1.0
  outer loop
    vertex -7.45411209019115 37.2872 0.0
    vertex -11.1837283944377 44.7305197870401 -1.62148072746504e-014
    vertex -11.0816116678701 44.7881995776789 -1.62148072746504e-014
  endloop
endfacet
facet normal 7.07315085455014e-016 -1.52149479718047e-016 -1.0
  outer loop
    vertex -7.45411209019115 37.2872 0.0
    vertex -11.0816116678701 44.7881995776789 -1.62148072746504e-014
    vertex -10.8811076775032 44.840489832675 -1.90347737571983e-014
  endloop
endfacet
facet normal 7.07315085455014e-016 -1.52149479718047e-016 -1.0
  outer loop
    vertex -7.45411209019115 37.2872 0.0
    vertex -10.8811076775032 44.840489832675 -1.90347737571983e-014
    vertex -10.6739019810676 44.839104089113 -1.90347737571983e-014
  endloop
endfacet
facet normal 7.07315085455014e-016 -1.52149479718047e-016 -1.0
  outer loop
    vertex -7.45411209019115 37.2872 0.0
    vertex -10.6739019810676 44.839104089113 -1.90347737571983e-014
    vertex -10.4741153043517 44.7841367831265 -2.18547402397462e-014
  endloop
endfacet
facet normal 7.07315085455014e-016 -1.52149479718047e-016 -1.0
  outer loop
    vertex -7.45411209019115 37.2872 0.0
    vertex -10.4741153043517 44.7841367831265 -2.18547402397462e-014
    vertex -10.2953627792106 44.6793338457808 -2.18547402397462e-014
  endloop
endfacet
facet normal 7.07315085455014e-016 -1.52149479718047e-016 -1.0
  outer loop
    vertex -7.45411209019115 37.2872 0.0
    vertex -10.2953627792106 44.6793338457808 -2.18547402397462e-014
    vertex -10.1498260948302 44.531837424061 -2.18547402397462e-014
  endloop
endfacet
facet normal 7.07315085455014e-016 -1.52149479718047e-016 -1.0
  outer loop
    vertex -7.45411209019115 37.2872 0.0
    vertex -10.1498260948302 44.531837424061 -2.18547402397462e-014
    vertex -4.27911209019115 37.2872 -9.86988268891764e-015
  endloop
endfacet
facet normal 7.07315085455014e-016 -1.52149479718047e-016 -1.0
  outer loop
    vertex -7.45411209019115 37.2872 0.0
    vertex -4.27911209019115 37.2872 -9.86988268891764e-015
    vertex -7.45411209019115 24.5872 0.0
  endloop
endfacet
facet normal 7.07315085455014e-016 -1.52149479718047e-016 -1.0
  outer loop
    vertex -11.3455794613957 18.3466641998337 -9.16489106828067e-015
    vertex -11.3708594953745 17.9718801334765 -9.16489106828067e-015
    vertex -11.3806585584254 18.1607857334174 -9.16489106828067e-015
  endloop
endfacet
facet normal 7.07315085455014e-016 -1.52149479718047e-016 -1.0
  outer loop
    vertex -11.3708594953745 17.9718801334765 -9.16489106828067e-015
    vertex -11.3455794613957 18.3466641998337 -9.16489106828067e-015
    vertex -11.3167363483518 17.7906288375306 -9.16489106828067e-015
  endloop
endfacet
facet normal 7.07315085455014e-016 -1.52149479718047e-016 -1.0
  outer loop
    vertex -11.3167363483518 17.7906288375306 -9.16489106828067e-015
    vertex -11.3455794613957 18.3466641998337 -9.16489106828067e-015
    vertex -11.2676057091857 18.5190052607914 -7.04991620636974e-015
  endloop
endfacet
facet normal 7.07315085455014e-016 -1.52149479718047e-016 -1.0
  outer loop
    vertex -11.3167363483518 17.7906288375306 -9.16489106828067e-015
    vertex -11.2676057091857 18.5190052607914 -7.04991620636974e-015
    vertex -11.2213494449149 17.6272804797843 -9.16489106828067e-015
  endloop
endfacet
facet normal 7.07315085455014e-016 -1.52149479718047e-016 -1.0
  outer loop
    vertex -11.2213494449149 17.6272804797843 -9.16489106828067e-015
    vertex -11.2676057091857 18.5190052607914 -7.04991620636974e-015
    vertex -7.45411209019115 24.5872 0.0
  endloop
endfacet
facet normal 7.07315085455014e-016 -1.52149479718047e-016 -1.0
  outer loop
    vertex -11.2213494449149 17.6272804797843 -9.16489106828067e-015
    vertex -7.45411209019115 24.5872 0.0
    vertex -11.0900923215686 17.491071394564 -9.16489106828067e-015
  endloop
endfacet
facet normal 7.07315085455014e-016 -1.52149479718047e-016 -1.0
  outer loop
    vertex -11.0900923215686 17.491071394564 -9.16489106828067e-015
    vertex -7.45411209019115 24.5872 0.0
    vertex -10.9303867527995 17.389703359021 -9.16489106828067e-015
  endloop
endfacet
facet normal 7.07315085455014e-016 -1.52149479718047e-016 -1.0
  outer loop
    vertex -10.9303867527995 17.389703359021 -9.16489106828067e-015
    vertex -7.45411209019115 24.5872 0.0
    vertex -10.7512630958594 17.3289081055046 -9.16489106828067e-015
  endloop
endfacet
facet normal 7.07315085455014e-016 -1.52149479718047e-016 -1.0
  outer loop
    vertex -10.7512630958594 17.3289081055046 -9.16489106828067e-015
    vertex -7.45411209019115 24.5872 0.0
    vertex -10.5628496801917 17.3121232277236 -9.16489106828067e-015
  endloop
endfacet
facet normal 7.07315085455014e-016 -1.52149479718047e-016 -1.0
  outer loop
    vertex -10.5628496801917 17.3121232277236 -9.16489106828067e-015
    vertex -7.45411209019115 24.5872 0.0
    vertex -10.3758001133544 17.3402978061888 -9.16489106828067e-015
  endloop
endfacet
facet normal 7.07315085455014e-016 -1.52149479718047e-016 -1.0
  outer loop
    vertex -10.3758001133544 17.3402978061888 -9.16489106828067e-015
    vertex -7.45411209019115 24.5872 0.0
    vertex -10.2006908857315 17.4118387436093 -9.16489106828067e-015
  endloop
endfacet
facet normal 7.07315085455014e-016 -1.52149479718047e-016 -1.0
  outer loop
    vertex -10.2006908857315 17.4118387436093 -9.16489106828067e-015
    vertex -7.45411209019115 24.5872 0.0
    vertex -10.0474233357403 17.5227008446421 -7.75490782700672e-015
  endloop
endfacet
facet normal 7.07315085455014e-016 -1.52149479718047e-016 -1.0
  outer loop
    vertex -10.0474233357403 17.5227008446421 -7.75490782700672e-015
    vertex -7.45411209019115 24.5872 0.0
    vertex -4.27911209019115 24.5872 -7.04991620636974e-015
  endloop
endfacet
facet normal 7.07315085455014e-016 -1.52149479718047e-016 -1.0
  outer loop
    vertex -4.27911209019115 24.5872 -7.04991620636974e-015
    vertex -7.45411209019115 24.5872 0.0
    vertex -4.27911209019115 37.2872 -9.86988268891764e-015
  endloop
endfacet
facet normal 7.07315085455014e-016 -1.52149479718047e-016 -1.0
  outer loop
    vertex -4.27911209019115 24.5872 -7.04991620636974e-015
    vertex -4.27911209019115 37.2872 -9.86988268891764e-015
    vertex 0.0 37.2872 0.0
  endloop
endfacet
facet normal 7.07315085455014e-016 -1.52149479718047e-016 -1.0
  outer loop
    vertex -4.27911209019115 24.5872 -7.04991620636974e-015
    vertex 0.0 37.2872 0.0
    vertex 0.0 24.5872 0.0
  endloop
endfacet
endsolid CardHandle
