solid CardHandle
facet normal -0.0 1.0 -0.0
  outer loop
    vertex 0.0 0.0 0.0
    vertex 0.08 0.0 0.08
    vertex 0.463 0.0 0.0
  endloop
endfacet
facet normal -0.0 1.0 -0.0
  outer loop
    vertex 0.08 0.0 0.08
    vertex 0.0 0.0 0.0
    vertex 0.0 0.0 0.24
  endloop
endfacet
facet normal -0.0 1.0 -0.0
  outer loop
    vertex 0.08 0.0 0.08
    vertex 0.0 0.0 0.24
    vertex 0.08 0.0 0.24
  endloop
endfacet
facet normal -0.0 1.0 -0.0
  outer loop
    vertex 0.463 0.0 0.08
    vertex 0.463 0.0 0.0
    vertex 0.08 0.0 0.08
  endloop
endfacet
facet normal -1.0 -0.0 -0.0
  outer loop
    vertex 0.463 2.436 0.08
    vertex 0.463 0.0 0.0
    vertex 0.463 0.0 0.08
  endloop
endfacet
facet normal -1.0 -0.0 -0.0
  outer loop
    vertex 0.463 0.0 0.0
    vertex 0.463 2.436 0.08
    vertex 0.463 2.436 0.0
  endloop
endfacet
facet normal 0.0 -1.0 0.0
  outer loop
    vertex 0.463 2.436 0.08
    vertex 0.0 2.436 0.0
    vertex 0.463 2.436 0.0
  endloop
endfacet
facet normal 0.0 -1.0 0.0
  outer loop
    vertex 0.0 2.436 0.0
    vertex 0.463 2.436 0.08
    vertex 0.08 2.436 0.08
  endloop
endfacet
facet normal 0.0 -1.0 0.0
  outer loop
    vertex 0.0 2.436 0.0
    vertex 0.08 2.436 0.08
    vertex 0.0 2.436 0.24
  endloop
endfacet
facet normal 0.0 -1.0 0.0
  outer loop
    vertex 0.0 2.436 0.24
    vertex 0.08 2.436 0.08
    vertex 0.08 2.436 0.24
  endloop
endfacet
facet normal 1.0 -0.0 -0.0
  outer loop
    vertex 0.0 2.436 0.0
    vertex 0.0 1.468 0.24
    vertex 0.0 1.468 0.0
  endloop
endfacet
facet normal 1.0 -0.0 -0.0
  outer loop
    vertex 0.0 1.468 0.24
    vertex 0.0 2.436 0.0
    vertex 0.0 2.436 0.24
  endloop
endfacet
facet normal -1.0 0.0 0.0
  outer loop
    vertex 0.08 1.468 0.24
    vertex 0.08 1.388 0.08
    vertex 0.08 1.388 0.24
  endloop
endfacet
facet normal -1.0 0.0 0.0
  outer loop
    vertex 0.08 1.388 0.08
    vertex 0.08 1.468 0.24
    vertex 0.08 2.436 0.08
  endloop
endfacet
facet normal -1.0 0.0 0.0
  outer loop
    vertex 0.08 2.436 0.08
    vertex 0.08 1.468 0.24
    vertex 0.08 2.436 0.24
  endloop
endfacet
facet normal 0.965925826289068 0.25881904510252 0.0
  outer loop
    vertex 0.340682956187657 0.235599695066972 4.16333634234434e-017
    vertex 0.343 0.218 0.08
    vertex 0.343 0.218 4.16333634234434e-017
  endloop
endfacet
facet normal 1.0 -2.15648859474655e-015 0.0
  outer loop
    vertex 0.343 0.218 0.08
    vertex 0.340682956187657 0.235599695066972 4.16333634234434e-017
    vertex 0.340682956187657 0.235599695066972 0.08
  endloop
endfacet
facet normal 1.0 -2.15648859474655e-015 0.0
  outer loop
    vertex 0.343 0.218 4.16333634234434e-017
    vertex 0.340682956187657 0.200400304933029 0.08
    vertex 0.340682956187657 0.200400304933029 4.16333634234434e-017
  endloop
endfacet
facet normal 0.965925826289068 -0.258819045102523 0.0
  outer loop
    vertex 0.340682956187657 0.200400304933029 0.08
    vertex 0.343 0.218 4.16333634234434e-017
    vertex 0.343 0.218 0.08
  endloop
endfacet
facet normal 0.965925826289068 -0.258819045102523 0.0
  outer loop
    vertex 0.340682956187657 0.200400304933029 4.16333634234434e-017
    vertex 0.333889727457342 0.184 0.08
    vertex 0.333889727457342 0.184 4.16333634234434e-017
  endloop
endfacet
facet normal 0.866025403784438 -0.500000000000002 0.0
  outer loop
    vertex 0.333889727457342 0.184 0.08
    vertex 0.340682956187657 0.200400304933029 4.16333634234434e-017
    vertex 0.340682956187657 0.200400304933029 0.08
  endloop
endfacet
facet normal 0.866025403784438 -0.500000000000002 0.0
  outer loop
    vertex 0.333889727457342 0.184 4.16333634234434e-017
    vertex 0.323083261120685 0.169916738879315 0.08
    vertex 0.323083261120685 0.169916738879315 4.16333634234434e-017
  endloop
endfacet
facet normal 0.707106781186547 -0.707106781186548 0.0
  outer loop
    vertex 0.323083261120685 0.169916738879315 0.08
    vertex 0.333889727457342 0.184 4.16333634234434e-017
    vertex 0.333889727457342 0.184 0.08
  endloop
endfacet
facet normal 0.707106781186547 -0.707106781186548 0.0
  outer loop
    vertex 0.323083261120685 0.169916738879315 0.08
    vertex 0.309 0.159110272542658 4.16333634234434e-017
    vertex 0.323083261120685 0.169916738879315 4.16333634234434e-017
  endloop
endfacet
facet normal 0.5 -0.866025403784438 0.0
  outer loop
    vertex 0.309 0.159110272542658 4.16333634234434e-017
    vertex 0.323083261120685 0.169916738879315 0.08
    vertex 0.309 0.159110272542658 0.08
  endloop
endfacet
facet normal 0.5 -0.866025403784438 0.0
  outer loop
    vertex 0.309 0.159110272542658 0.08
    vertex 0.292599695066971 0.152317043812343 4.16333634234434e-017
    vertex 0.309 0.159110272542658 4.16333634234434e-017
  endloop
endfacet
facet normal 0.258819045102521 -0.965925826289068 0.0
  outer loop
    vertex 0.292599695066971 0.152317043812343 4.16333634234434e-017
    vertex 0.309 0.159110272542658 0.08
    vertex 0.292599695066971 0.152317043812343 0.08
  endloop
endfacet
facet normal 0.258819045102521 -0.965925826289068 0.0
  outer loop
    vertex 0.292599695066971 0.152317043812343 0.08
    vertex 0.275 0.15 4.16333634234434e-017
    vertex 0.292599695066971 0.152317043812343 4.16333634234434e-017
  endloop
endfacet
facet normal -1.78222197912938e-016 -1.0 0.0
  outer loop
    vertex 0.275 0.15 4.16333634234434e-017
    vertex 0.292599695066971 0.152317043812343 0.08
    vertex 0.275 0.15 0.08
  endloop
endfacet
facet normal -1.78222197912938e-016 -1.0 0.0
  outer loop
    vertex 0.275 0.15 0.08
    vertex 0.257400304933029 0.152317043812343 4.16333634234434e-017
    vertex 0.275 0.15 4.16333634234434e-017
  endloop
endfacet
facet normal -0.25881904510252 -0.965925826289068 0.0
  outer loop
    vertex 0.257400304933029 0.152317043812343 4.16333634234434e-017
    vertex 0.275 0.15 0.08
    vertex 0.257400304933029 0.152317043812343 0.08
  endloop
endfacet
facet normal -0.25881904510252 -0.965925826289068 0.0
  outer loop
    vertex 0.257400304933029 0.152317043812343 0.08
    vertex 0.241 0.159110272542658 4.16333634234434e-017
    vertex 0.257400304933029 0.152317043812343 4.16333634234434e-017
  endloop
endfacet
facet normal -0.499999999999999 -0.866025403784439 0.0
  outer loop
    vertex 0.241 0.159110272542658 4.16333634234434e-017
    vertex 0.257400304933029 0.152317043812343 0.08
    vertex 0.241 0.159110272542658 0.08
  endloop
endfacet
facet normal -0.499999999999999 -0.866025403784439 0.0
  outer loop
    vertex 0.241 0.159110272542658 0.08
    vertex 0.226916738879315 0.169916738879315 4.16333634234434e-017
    vertex 0.241 0.159110272542658 4.16333634234434e-017
  endloop
endfacet
facet normal -0.707106781186547 -0.707106781186548 0.0
  outer loop
    vertex 0.226916738879315 0.169916738879315 4.16333634234434e-017
    vertex 0.241 0.159110272542658 0.08
    vertex 0.226916738879315 0.169916738879315 0.08
  endloop
endfacet
facet normal -0.866025403784438 -0.500000000000001 0.0
  outer loop
    vertex 0.216110272542658 0.184 0.08
    vertex 0.226916738879315 0.169916738879315 4.16333634234434e-017
    vertex 0.226916738879315 0.169916738879315 0.08
  endloop
endfacet
facet normal -0.707106781186547 -0.707106781186548 0.0
  outer loop
    vertex 0.226916738879315 0.169916738879315 4.16333634234434e-017
    vertex 0.216110272542658 0.184 0.08
    vertex 0.216110272542658 0.184 4.16333634234434e-017
  endloop
endfacet
facet normal -0.965925826289068 -0.258819045102522 0.0
  outer loop
    vertex 0.209317043812343 0.200400304933029 0.08
    vertex 0.216110272542658 0.184 4.16333634234434e-017
    vertex 0.216110272542658 0.184 0.08
  endloop
endfacet
facet normal -0.866025403784438 -0.500000000000001 0.0
  outer loop
    vertex 0.216110272542658 0.184 4.16333634234434e-017
    vertex 0.209317043812343 0.200400304933029 0.08
    vertex 0.209317043812343 0.200400304933029 4.16333634234434e-017
  endloop
endfacet
facet normal -1.0 -8.6437765987775e-016 0.0
  outer loop
    vertex 0.207 0.218 0.08
    vertex 0.209317043812343 0.200400304933029 4.16333634234434e-017
    vertex 0.209317043812343 0.200400304933029 0.08
  endloop
endfacet
facet normal -0.965925826289068 -0.258819045102522 0.0
  outer loop
    vertex 0.209317043812343 0.200400304933029 4.16333634234434e-017
    vertex 0.207 0.218 0.08
    vertex 0.207 0.218 4.16333634234434e-017
  endloop
endfacet
facet normal -0.965925826289069 0.25881904510252 0.0
  outer loop
    vertex 0.209317043812343 0.235599695066971 0.08
    vertex 0.207 0.218 4.16333634234434e-017
    vertex 0.207 0.218 0.08
  endloop
endfacet
facet normal -1.0 -8.6437765987775e-016 0.0
  outer loop
    vertex 0.207 0.218 4.16333634234434e-017
    vertex 0.209317043812343 0.235599695066971 0.08
    vertex 0.209317043812343 0.235599695066971 4.16333634234434e-017
  endloop
endfacet
facet normal -0.866025403784439 0.499999999999999 0.0
  outer loop
    vertex 0.216110272542658 0.252 0.08
    vertex 0.209317043812343 0.235599695066971 4.16333634234434e-017
    vertex 0.209317043812343 0.235599695066971 0.08
  endloop
endfacet
facet normal -0.965925826289069 0.25881904510252 0.0
  outer loop
    vertex 0.209317043812343 0.235599695066971 4.16333634234434e-017
    vertex 0.216110272542658 0.252 0.08
    vertex 0.216110272542658 0.252 4.16333634234434e-017
  endloop
endfacet
facet normal -0.707106781186547 0.707106781186548 0.0
  outer loop
    vertex 0.226916738879315 0.266083261120685 0.08
    vertex 0.216110272542658 0.252 4.16333634234434e-017
    vertex 0.216110272542658 0.252 0.08
  endloop
endfacet
facet normal -0.866025403784439 0.499999999999999 0.0
  outer loop
    vertex 0.216110272542658 0.252 4.16333634234434e-017
    vertex 0.226916738879315 0.266083261120685 0.08
    vertex 0.226916738879315 0.266083261120685 4.16333634234434e-017
  endloop
endfacet
facet normal -0.707106781186547 0.707106781186548 0.0
  outer loop
    vertex 0.226916738879315 0.266083261120685 0.08
    vertex 0.241 0.276889727457342 4.16333634234434e-017
    vertex 0.226916738879315 0.266083261120685 4.16333634234434e-017
  endloop
endfacet
facet normal -0.5 0.866025403784439 0.0
  outer loop
    vertex 0.241 0.276889727457342 4.16333634234434e-017
    vertex 0.226916738879315 0.266083261120685 0.08
    vertex 0.241 0.276889727457342 0.08
  endloop
endfacet
facet normal -0.5 0.866025403784439 0.0
  outer loop
    vertex 0.241 0.276889727457342 0.08
    vertex 0.257400304933029 0.283682956187657 4.16333634234434e-017
    vertex 0.241 0.276889727457342 4.16333634234434e-017
  endloop
endfacet
facet normal -0.258819045102522 0.965925826289068 0.0
  outer loop
    vertex 0.257400304933029 0.283682956187657 4.16333634234434e-017
    vertex 0.241 0.276889727457342 0.08
    vertex 0.257400304933029 0.283682956187657 0.08
  endloop
endfacet
facet normal -0.258819045102522 0.965925826289068 0.0
  outer loop
    vertex 0.257400304933029 0.283682956187657 0.08
    vertex 0.275 0.286 4.16333634234434e-017
    vertex 0.257400304933029 0.283682956187657 4.16333634234434e-017
  endloop
endfacet
facet normal 2.04955527599879e-016 1.0 0.0
  outer loop
    vertex 0.275 0.286 4.16333634234434e-017
    vertex 0.257400304933029 0.283682956187657 0.08
    vertex 0.275 0.286 0.08
  endloop
endfacet
facet normal 2.04955527599879e-016 1.0 0.0
  outer loop
    vertex 0.275 0.286 0.08
    vertex 0.292599695066971 0.283682956187657 4.16333634234434e-017
    vertex 0.275 0.286 4.16333634234434e-017
  endloop
endfacet
facet normal 0.258819045102521 0.965925826289068 0.0
  outer loop
    vertex 0.292599695066971 0.283682956187657 4.16333634234434e-017
    vertex 0.275 0.286 0.08
    vertex 0.292599695066971 0.283682956187657 0.08
  endloop
endfacet
facet normal 0.258819045102521 0.965925826289068 0.0
  outer loop
    vertex 0.292599695066971 0.283682956187657 0.08
    vertex 0.309 0.276889727457342 4.16333634234434e-017
    vertex 0.292599695066971 0.283682956187657 4.16333634234434e-017
  endloop
endfacet
facet normal 0.499999999999999 0.86602540378444 0.0
  outer loop
    vertex 0.309 0.276889727457342 4.16333634234434e-017
    vertex 0.292599695066971 0.283682956187657 0.08
    vertex 0.309 0.276889727457342 0.08
  endloop
endfacet
facet normal 0.499999999999999 0.86602540378444 0.0
  outer loop
    vertex 0.309 0.276889727457342 0.08
    vertex 0.323083261120685 0.266083261120685 4.16333634234434e-017
    vertex 0.309 0.276889727457342 4.16333634234434e-017
  endloop
endfacet
facet normal 0.707106781186547 0.707106781186548 0.0
  outer loop
    vertex 0.323083261120685 0.266083261120685 4.16333634234434e-017
    vertex 0.309 0.276889727457342 0.08
    vertex 0.323083261120685 0.266083261120685 0.08
  endloop
endfacet
facet normal 0.707106781186547 0.707106781186548 0.0
  outer loop
    vertex 0.323083261120685 0.266083261120685 4.16333634234434e-017
    vertex 0.333889727457342 0.252 0.08
    vertex 0.333889727457342 0.252 4.16333634234434e-017
  endloop
endfacet
facet normal 0.866025403784438 0.500000000000001 0.0
  outer loop
    vertex 0.333889727457342 0.252 0.08
    vertex 0.323083261120685 0.266083261120685 4.16333634234434e-017
    vertex 0.323083261120685 0.266083261120685 0.08
  endloop
endfacet
facet normal 0.866025403784438 0.500000000000001 0.0
  outer loop
    vertex 0.333889727457342 0.252 4.16333634234434e-017
    vertex 0.340682956187657 0.235599695066972 0.08
    vertex 0.340682956187657 0.235599695066972 4.16333634234434e-017
  endloop
endfacet
facet normal 0.965925826289068 0.25881904510252 0.0
  outer loop
    vertex 0.340682956187657 0.235599695066972 0.08
    vertex 0.333889727457342 0.252 4.16333634234434e-017
    vertex 0.333889727457342 0.252 0.08
  endloop
endfacet
facet normal 0.993455191511911 0.114222512921199 0.0
  outer loop
    vertex 0.345263205906365 2.2624657930899 -4.9960036108132e-016
    vertex 0.344971608099228 2.2447166260898 0.08
    vertex 0.344971608099228 2.2447166260898 -4.9960036108132e-016
  endloop
endfacet
facet normal 0.989166988465781 -0.146794648845035 0.0
  outer loop
    vertex 0.344971608099228 2.2447166260898 0.08
    vertex 0.345263205906365 2.2624657930899 -4.9960036108132e-016
    vertex 0.345263205906365 2.2624657930899 0.08
  endloop
endfacet
facet normal 0.989166988465781 -0.146794648845035 0.0
  outer loop
    vertex 0.344971608099228 2.2447166260898 -4.9960036108132e-016
    vertex 0.340096123792093 2.22764771835528 0.08
    vertex 0.340096123792093 2.22764771835528 -4.9960036108132e-016
  endloop
endfacet
facet normal 0.917468689831447 -0.397807997882103 0.0
  outer loop
    vertex 0.340096123792093 2.22764771835528 0.08
    vertex 0.344971608099228 2.2447166260898 -4.9960036108132e-016
    vertex 0.344971608099228 2.2447166260898 0.08
  endloop
endfacet
facet normal 0.917468689831447 -0.397807997882103 0.0
  outer loop
    vertex 0.340096123792093 2.22764771835528 -4.9960036108132e-016
    vertex 0.330969009183373 2.21242228774074 0.08
    vertex 0.330969009183373 2.21242228774074 -4.9960036108132e-016
  endloop
endfacet
facet normal 0.783246416173805 -0.621711389272298 0.0
  outer loop
    vertex 0.330969009183373 2.21242228774074 0.08
    vertex 0.340096123792093 2.22764771835528 -4.9960036108132e-016
    vertex 0.340096123792093 2.22764771835528 0.08
  endloop
endfacet
facet normal 0.783246416173805 -0.621711389272298 0.0
  outer loop
    vertex 0.330969009183373 2.21242228774074 0.08
    vertex 0.318212262050382 2.20007792218136 -4.9960036108132e-016
    vertex 0.330969009183373 2.21242228774074 -4.9960036108132e-016
  endloop
endfacet
facet normal 0.595647193629816 -0.803246176910245 0.0
  outer loop
    vertex 0.318212262050382 2.20007792218136 -4.9960036108132e-016
    vertex 0.330969009183373 2.21242228774074 0.08
    vertex 0.318212262050382 2.20007792218136 0.08
  endloop
endfacet
facet normal 0.595647193629816 -0.803246176910245 0.0
  outer loop
    vertex 0.318212262050382 2.20007792218136 0.08
    vertex 0.302695233628711 2.19145586978998 -4.9960036108132e-016
    vertex 0.318212262050382 2.20007792218136 -4.9960036108132e-016
  endloop
endfacet
facet normal 0.36745559919347 -0.930041065018834 0.0
  outer loop
    vertex 0.302695233628711 2.19145586978998 -4.9960036108132e-016
    vertex 0.318212262050382 2.20007792218136 0.08
    vertex 0.302695233628711 2.19145586978998 0.08
  endloop
endfacet
facet normal 0.36745559919347 -0.930041065018834 0.0
  outer loop
    vertex 0.302695233628711 2.19145586978998 0.08
    vertex 0.285475383762196 2.18714370918845 -4.9960036108132e-016
    vertex 0.302695233628711 2.19145586978998 -4.9960036108132e-016
  endloop
endfacet
facet normal 0.114222512921185 -0.993455191511912 0.0
  outer loop
    vertex 0.285475383762196 2.18714370918845 -4.9960036108132e-016
    vertex 0.302695233628711 2.19145586978998 0.08
    vertex 0.285475383762196 2.18714370918845 0.08
  endloop
endfacet
facet normal 0.114222512921185 -0.993455191511912 0.0
  outer loop
    vertex 0.285475383762196 2.18714370918845 0.08
    vertex 0.267726216762093 2.18743530699559 -4.9960036108132e-016
    vertex 0.285475383762196 2.18714370918845 -4.9960036108132e-016
  endloop
endfacet
facet normal -0.146794648845024 -0.989166988465783 0.0
  outer loop
    vertex 0.267726216762093 2.18743530699559 -4.9960036108132e-016
    vertex 0.285475383762196 2.18714370918845 0.08
    vertex 0.267726216762093 2.18743530699559 0.08
  endloop
endfacet
facet normal -0.146794648845024 -0.989166988465783 0.0
  outer loop
    vertex 0.267726216762093 2.18743530699559 0.08
    vertex 0.250657309027572 2.19231079130272 -4.9960036108132e-016
    vertex 0.267726216762093 2.18743530699559 -4.9960036108132e-016
  endloop
endfacet
facet normal -0.397807997882099 -0.917468689831449 0.0
  outer loop
    vertex 0.250657309027572 2.19231079130272 -4.9960036108132e-016
    vertex 0.267726216762093 2.18743530699559 0.08
    vertex 0.250657309027572 2.19231079130272 0.08
  endloop
endfacet
facet normal -0.397807997882099 -0.917468689831449 0.0
  outer loop
    vertex 0.250657309027572 2.19231079130272 0.08
    vertex 0.235431878413038 2.20143790591144 -4.9960036108132e-016
    vertex 0.250657309027572 2.19231079130272 -4.9960036108132e-016
  endloop
endfacet
facet normal -0.621711389272309 -0.783246416173796 0.0
  outer loop
    vertex 0.235431878413038 2.20143790591144 -4.9960036108132e-016
    vertex 0.250657309027572 2.19231079130272 0.08
    vertex 0.235431878413038 2.20143790591144 0.08
  endloop
endfacet
facet normal -0.803246176910244 -0.595647193629818 0.0
  outer loop
    vertex 0.223087512853658 2.21419465304443 0.08
    vertex 0.235431878413038 2.20143790591144 -4.9960036108132e-016
    vertex 0.235431878413038 2.20143790591144 0.08
  endloop
endfacet
facet normal -0.621711389272309 -0.783246416173796 0.0
  outer loop
    vertex 0.235431878413038 2.20143790591144 -4.9960036108132e-016
    vertex 0.223087512853658 2.21419465304443 0.08
    vertex 0.223087512853658 2.21419465304443 -4.9960036108132e-016
  endloop
endfacet
facet normal -0.93004106501883 -0.36745559919348 0.0
  outer loop
    vertex 0.214465460462274 2.2297116814661 0.08
    vertex 0.223087512853658 2.21419465304443 -4.9960036108132e-016
    vertex 0.223087512853658 2.21419465304443 0.08
  endloop
endfacet
facet normal -0.803246176910244 -0.595647193629818 0.0
  outer loop
    vertex 0.223087512853658 2.21419465304443 -4.9960036108132e-016
    vertex 0.214465460462274 2.2297116814661 0.08
    vertex 0.214465460462274 2.2297116814661 -4.9960036108132e-016
  endloop
endfacet
facet normal -0.993455191511911 -0.114222512921198 0.0
  outer loop
    vertex 0.210153299860745 2.24693153133262 0.08
    vertex 0.214465460462274 2.2297116814661 -4.9960036108132e-016
    vertex 0.214465460462274 2.2297116814661 0.08
  endloop
endfacet
facet normal -0.93004106501883 -0.36745559919348 0.0
  outer loop
    vertex 0.214465460462274 2.2297116814661 -4.9960036108132e-016
    vertex 0.210153299860745 2.24693153133262 0.08
    vertex 0.210153299860745 2.24693153133262 -4.9960036108132e-016
  endloop
endfacet
facet normal -0.989166988465782 0.146794648845032 0.0
  outer loop
    vertex 0.210444897667882 2.26468069833272 0.08
    vertex 0.210153299860745 2.24693153133262 -4.9960036108132e-016
    vertex 0.210153299860745 2.24693153133262 0.08
  endloop
endfacet
facet normal -0.993455191511911 -0.114222512921198 0.0
  outer loop
    vertex 0.210153299860745 2.24693153133262 -4.9960036108132e-016
    vertex 0.210444897667882 2.26468069833272 0.08
    vertex 0.210444897667882 2.26468069833272 -4.9960036108132e-016
  endloop
endfacet
facet normal -0.917468689831448 0.397807997882101 0.0
  outer loop
    vertex 0.215320381975016 2.28174960606724 0.08
    vertex 0.210444897667882 2.26468069833272 -4.9960036108132e-016
    vertex 0.210444897667882 2.26468069833272 0.08
  endloop
endfacet
facet normal -0.989166988465782 0.146794648845032 0.0
  outer loop
    vertex 0.210444897667882 2.26468069833272 -4.9960036108132e-016
    vertex 0.215320381975016 2.28174960606724 0.08
    vertex 0.215320381975016 2.28174960606724 -4.9960036108132e-016
  endloop
endfacet
facet normal -0.783246416173805 0.621711389272298 0.0
  outer loop
    vertex 0.224447496583736 2.29697503668178 0.08
    vertex 0.215320381975016 2.28174960606724 -4.9960036108132e-016
    vertex 0.215320381975016 2.28174960606724 0.08
  endloop
endfacet
facet normal -0.917468689831448 0.397807997882101 0.0
  outer loop
    vertex 0.215320381975016 2.28174960606724 -4.9960036108132e-016
    vertex 0.224447496583736 2.29697503668178 0.08
    vertex 0.224447496583736 2.29697503668178 -4.9960036108132e-016
  endloop
endfacet
facet normal -0.783246416173805 0.621711389272298 0.0
  outer loop
    vertex 0.224447496583736 2.29697503668178 0.08
    vertex 0.237204243716728 2.30931940224116 -4.9960036108132e-016
    vertex 0.224447496583736 2.29697503668178 -4.9960036108132e-016
  endloop
endfacet
facet normal -0.595647193629807 0.803246176910251 0.0
  outer loop
    vertex 0.237204243716728 2.30931940224116 -4.9960036108132e-016
    vertex 0.224447496583736 2.29697503668178 0.08
    vertex 0.237204243716728 2.30931940224116 0.08
  endloop
endfacet
facet normal -0.595647193629807 0.803246176910251 0.0
  outer loop
    vertex 0.237204243716728 2.30931940224116 0.08
    vertex 0.252721272138398 2.31794145463254 -4.9960036108132e-016
    vertex 0.237204243716728 2.30931940224116 -4.9960036108132e-016
  endloop
endfacet
facet normal -0.367455599193471 0.930041065018834 0.0
  outer loop
    vertex 0.252721272138398 2.31794145463254 -4.9960036108132e-016
    vertex 0.237204243716728 2.30931940224116 0.08
    vertex 0.252721272138398 2.31794145463254 0.08
  endloop
endfacet
facet normal -0.367455599193471 0.930041065018834 0.0
  outer loop
    vertex 0.252721272138398 2.31794145463254 0.08
    vertex 0.269941122004913 2.32225361523407 -4.9960036108132e-016
    vertex 0.252721272138398 2.31794145463254 -4.9960036108132e-016
  endloop
endfacet
facet normal -0.114222512921198 0.993455191511911 0.0
  outer loop
    vertex 0.269941122004913 2.32225361523407 -4.9960036108132e-016
    vertex 0.252721272138398 2.31794145463254 0.08
    vertex 0.269941122004913 2.32225361523407 0.08
  endloop
endfacet
facet normal -0.114222512921198 0.993455191511911 0.0
  outer loop
    vertex 0.269941122004913 2.32225361523407 0.08
    vertex 0.287690289005017 2.32196201742693 -4.9960036108132e-016
    vertex 0.269941122004913 2.32225361523407 -4.9960036108132e-016
  endloop
endfacet
facet normal 0.146794648845023 0.989166988465783 0.0
  outer loop
    vertex 0.287690289005017 2.32196201742693 -4.9960036108132e-016
    vertex 0.269941122004913 2.32225361523407 0.08
    vertex 0.287690289005017 2.32196201742693 0.08
  endloop
endfacet
facet normal 0.146794648845023 0.989166988465783 0.0
  outer loop
    vertex 0.287690289005017 2.32196201742693 0.08
    vertex 0.304759196739538 2.3170865331198 -4.9960036108132e-016
    vertex 0.287690289005017 2.32196201742693 -4.9960036108132e-016
  endloop
endfacet
facet normal 0.397807997882099 0.917468689831449 0.0
  outer loop
    vertex 0.304759196739538 2.3170865331198 -4.9960036108132e-016
    vertex 0.287690289005017 2.32196201742693 0.08
    vertex 0.304759196739538 2.3170865331198 0.08
  endloop
endfacet
facet normal 0.397807997882099 0.917468689831449 0.0
  outer loop
    vertex 0.304759196739538 2.3170865331198 0.08
    vertex 0.319984627354071 2.30795941851108 -4.9960036108132e-016
    vertex 0.304759196739538 2.3170865331198 -4.9960036108132e-016
  endloop
endfacet
facet normal 0.621711389272309 0.783246416173796 0.0
  outer loop
    vertex 0.319984627354071 2.30795941851108 -4.9960036108132e-016
    vertex 0.304759196739538 2.3170865331198 0.08
    vertex 0.319984627354071 2.30795941851108 0.08
  endloop
endfacet
facet normal 0.621711389272309 0.783246416173796 0.0
  outer loop
    vertex 0.319984627354071 2.30795941851108 -4.9960036108132e-016
    vertex 0.332328992913452 2.29520267137809 0.08
    vertex 0.332328992913452 2.29520267137809 -4.9960036108132e-016
  endloop
endfacet
facet normal 0.803246176910244 0.595647193629818 0.0
  outer loop
    vertex 0.332328992913452 2.29520267137809 0.08
    vertex 0.319984627354071 2.30795941851108 -4.9960036108132e-016
    vertex 0.319984627354071 2.30795941851108 0.08
  endloop
endfacet
facet normal 0.803246176910244 0.595647193629818 0.0
  outer loop
    vertex 0.332328992913452 2.29520267137809 -4.9960036108132e-016
    vertex 0.340951045304835 2.27968564295642 0.08
    vertex 0.340951045304835 2.27968564295642 -4.9960036108132e-016
  endloop
endfacet
facet normal 0.930041065018831 0.36745559919348 0.0
  outer loop
    vertex 0.340951045304835 2.27968564295642 0.08
    vertex 0.332328992913452 2.29520267137809 -4.9960036108132e-016
    vertex 0.332328992913452 2.29520267137809 0.08
  endloop
endfacet
facet normal 0.930041065018831 0.36745559919348 0.0
  outer loop
    vertex 0.340951045304835 2.27968564295642 -4.9960036108132e-016
    vertex 0.345263205906365 2.2624657930899 0.08
    vertex 0.345263205906365 2.2624657930899 -4.9960036108132e-016
  endloop
endfacet
facet normal 0.993455191511911 0.114222512921199 0.0
  outer loop
    vertex 0.345263205906365 2.2624657930899 0.08
    vertex 0.340951045304835 2.27968564295642 -4.9960036108132e-016
    vertex 0.340951045304835 2.27968564295642 0.08
  endloop
endfacet
facet normal 0.0 0.0 -1.0
  outer loop
    vertex 0.08 2.436 0.24
    vertex 0.0 1.468 0.24
    vertex 0.0 2.436 0.24
  endloop
endfacet
facet normal 0.0 0.0 -1.0
  outer loop
    vertex 0.0 1.468 0.24
    vertex 0.08 2.436 0.24
    vertex 0.08 1.468 0.24
  endloop
endfacet
facet normal 1.0 -0.0 -0.0
  outer loop
    vertex -0.35 1.468 0.0
    vertex -0.35 0.968 0.48
    vertex -0.35 0.968 0.0
  endloop
endfacet
facet normal 1.0 -0.0 -0.0
  outer loop
    vertex -0.35 0.968 0.48
    vertex -0.35 1.468 0.0
    vertex -0.35 1.218 0.48
  endloop
endfacet
facet normal 1.0 -0.0 -0.0
  outer loop
    vertex -0.35 1.218 0.48
    vertex -0.35 1.468 0.0
    vertex -0.35 1.468 0.48
  endloop
endfacet
facet normal -1.0 0.0 0.0
  outer loop
    vertex 0.08 0.968 0.24
    vertex 0.08 0.0 0.08
    vertex 0.08 0.0 0.24
  endloop
endfacet
facet normal -1.0 0.0 0.0
  outer loop
    vertex 0.08 0.0 0.08
    vertex 0.08 0.968 0.24
    vertex 0.08 1.048 0.08
  endloop
endfacet
facet normal -1.0 0.0 0.0
  outer loop
    vertex 0.08 1.048 0.08
    vertex 0.08 0.968 0.24
    vertex 0.08 1.048 0.24
  endloop
endfacet
facet normal 0.0 0.0 -1.0
  outer loop
    vertex 0.08 0.968 0.24
    vertex 0.0 0.0 0.24
    vertex 0.0 0.968 0.24
  endloop
endfacet
facet normal 0.0 0.0 -1.0
  outer loop
    vertex 0.0 0.0 0.24
    vertex 0.08 0.968 0.24
    vertex 0.08 0.0 0.24
  endloop
endfacet
facet normal 1.0 -0.0 -0.0
  outer loop
    vertex 0.0 0.968 0.0
    vertex 0.0 0.0 0.24
    vertex 0.0 0.0 0.0
  endloop
endfacet
facet normal 1.0 -0.0 -0.0
  outer loop
    vertex 0.0 0.0 0.24
    vertex 0.0 0.968 0.0
    vertex 0.0 0.968 0.24
  endloop
endfacet
facet normal 0.0 -1.0 0.0
  outer loop
    vertex -0.19 1.468 0.425142857142857
    vertex 0.0 1.468 0.24
    vertex 0.08 1.468 0.24
  endloop
endfacet
facet normal 0.0 -1.0 0.0
  outer loop
    vertex 0.0 1.468 0.0
    vertex -0.19 1.468 0.425142857142857
    vertex -0.190000000000001 1.468 -4.16333634234434e-016
  endloop
endfacet
facet normal 0.0 -1.0 0.0
  outer loop
    vertex -0.19 1.468 0.425142857142857
    vertex 0.0 1.468 0.0
    vertex 0.0 1.468 0.24
  endloop
endfacet
facet normal -1.0 0.0 0.0
  outer loop
    vertex -0.27 1.388 0.48
    vertex -0.27 1.048 0.08
    vertex -0.27 1.048 0.48
  endloop
endfacet
facet normal -1.0 0.0 0.0
  outer loop
    vertex -0.27 1.048 0.08
    vertex -0.27 1.388 0.48
    vertex -0.27 1.388 0.08
  endloop
endfacet
facet normal -0.565528355551528 1.75641088244852e-016 -0.824728851845978
  outer loop
    vertex 0.08 1.468 0.24
    vertex -0.19 1.388 0.425142857142857
    vertex -0.19 1.468 0.425142857142857
  endloop
endfacet
facet normal -0.565528355551528 1.75641088244852e-016 -0.824728851845978
  outer loop
    vertex -0.19 1.388 0.425142857142857
    vertex 0.08 1.468 0.24
    vertex 0.08 1.388 0.24
  endloop
endfacet
facet normal -1.0 -6.93889390390722e-016 -5.0596101382657e-016
  outer loop
    vertex -0.19 1.468 0.48
    vertex -0.19 1.388 0.425142857142857
    vertex -0.19 1.388 0.48
  endloop
endfacet
facet normal -1.0 -6.93889390390722e-016 -5.0596101382657e-016
  outer loop
    vertex -0.19 1.388 0.425142857142857
    vertex -0.19 1.468 0.48
    vertex -0.19 1.468 0.425142857142857
  endloop
endfacet
facet normal -0.565528355551528 0.0 -0.824728851845978
  outer loop
    vertex 0.08 1.048 0.24
    vertex -0.19 0.968 0.425142857142857
    vertex -0.19 1.048 0.425142857142857
  endloop
endfacet
facet normal -0.565528355551528 0.0 -0.824728851845978
  outer loop
    vertex -0.19 0.968 0.425142857142857
    vertex 0.08 1.048 0.24
    vertex 0.08 0.968 0.24
  endloop
endfacet
facet normal -1.0 0.0 0.0
  outer loop
    vertex -0.19 1.048 0.48
    vertex -0.19 0.968 0.425142857142857
    vertex -0.19 0.968 0.48
  endloop
endfacet
facet normal -1.0 0.0 0.0
  outer loop
    vertex -0.19 0.968 0.425142857142857
    vertex -0.19 1.048 0.48
    vertex -0.19 1.048 0.425142857142857
  endloop
endfacet
facet normal -0.0 -0.0 1.0
  outer loop
    vertex -0.451813851140723 0.707452485544405 0.48
    vertex -0.35 0.968 0.48
    vertex -0.453468979928786 0.713401132064996 0.48
  endloop
endfacet
facet normal -0.0 -0.0 1.0
  outer loop
    vertex -0.35 0.968 0.48
    vertex -0.451813851140723 0.707452485544405 0.48
    vertex -0.449198108448563 0.701859298894522 0.48
  endloop
endfacet
facet normal -0.0 -0.0 1.0
  outer loop
    vertex -0.35 0.968 0.48
    vertex -0.449198108448563 0.701859298894522 0.48
    vertex -0.445693730744283 0.696775483040484 0.48
  endloop
endfacet
facet normal -0.0 -0.0 1.0
  outer loop
    vertex -0.35 0.968 0.48
    vertex -0.445693730744283 0.696775483040484 0.48
    vertex -0.441397149999183 0.69234093225908 0.48
  endloop
endfacet
facet normal -0.0 -0.0 1.0
  outer loop
    vertex -0.35 0.968 0.48
    vertex -0.441397149999183 0.69234093225908 0.48
    vertex -0.436426597690022 0.688677674627695 0.48
  endloop
endfacet
facet normal -0.0 -0.0 1.0
  outer loop
    vertex -0.35 0.968 0.48
    vertex -0.436426597690022 0.688677674627695 0.48
    vertex -0.430918851355658 0.68588651410771 0.48
  endloop
endfacet
facet normal -0.0 -0.0 1.0
  outer loop
    vertex -0.35 0.968 0.48
    vertex -0.430918851355658 0.68588651410771 0.48
    vertex -0.425025470811062 0.684044256664085 0.48
  endloop
endfacet
facet normal -0.0 -0.0 1.0
  outer loop
    vertex -0.35 0.968 0.48
    vertex -0.425025470811062 0.684044256664085 0.48
    vertex -0.418908627588954 0.683201596751563 0.48
  endloop
endfacet
facet normal -0.0 -0.0 1.0
  outer loop
    vertex -0.35 0.968 0.48
    vertex -0.418908627588954 0.683201596751563 0.48
    vertex -0.412736642372725 0.683381722326283 0.48
  endloop
endfacet
facet normal -0.0 -0.0 1.0
  outer loop
    vertex -0.35 0.968 0.48
    vertex -0.412736642372725 0.683381722326283 0.48
    vertex -0.406679353219645 0.684579676769489 0.48
  endloop
endfacet
facet normal -0.0 -0.0 1.0
  outer loop
    vertex -0.35 0.968 0.48
    vertex -0.406679353219645 0.684579676769489 0.48
    vertex -0.400903442029629 0.686762495281656 0.48
  endloop
endfacet
facet normal -0.0 -0.0 1.0
  outer loop
    vertex -0.35 0.968 0.48
    vertex -0.400903442029629 0.686762495281656 0.48
    vertex -0.39556784786379 0.689870111993782 0.48
  endloop
endfacet
facet normal -0.0 -0.0 1.0
  outer loop
    vertex -0.35 0.968 0.48
    vertex -0.39556784786379 0.689870111993782 0.48
    vertex -0.19 0.968 0.48
  endloop
endfacet
facet normal -0.0 1.0 -0.0
  outer loop
    vertex -0.19 0.968 0.425142857142857
    vertex 0.0 0.968 0.0
    vertex -0.19 0.968 -3.05311331771918e-016
  endloop
endfacet
facet normal -0.0 1.0 -0.0
  outer loop
    vertex 0.0 0.968 0.0
    vertex -0.19 0.968 0.425142857142857
    vertex 0.0 0.968 0.24
  endloop
endfacet
facet normal -0.0 1.0 -0.0
  outer loop
    vertex 0.0 0.968 0.24
    vertex -0.19 0.968 0.425142857142857
    vertex 0.08 0.968 0.24
  endloop
endfacet
facet normal 0.0 0.0 -1.0
  outer loop
    vertex -0.35 0.968 0.48
    vertex -0.27 1.048 0.48
    vertex -0.19 0.968 0.48
  endloop
endfacet
facet normal 0.0 0.0 -1.0
  outer loop
    vertex -0.27 1.048 0.48
    vertex -0.35 0.968 0.48
    vertex -0.27 1.388 0.48
  endloop
endfacet
facet normal 0.0 0.0 -1.0
  outer loop
    vertex -0.19 0.968 0.48
    vertex -0.27 1.048 0.48
    vertex -0.19 1.048 0.48
  endloop
endfacet
facet normal 0.0 0.0 -1.0
  outer loop
    vertex -0.35 1.468 0.48
    vertex -0.27 1.388 0.48
    vertex -0.35 1.218 0.48
  endloop
endfacet
facet normal 0.0 0.0 -1.0
  outer loop
    vertex -0.27 1.388 0.48
    vertex -0.35 1.468 0.48
    vertex -0.19 1.468 0.48
  endloop
endfacet
facet normal 0.0 0.0 -1.0
  outer loop
    vertex -0.35 1.218 0.48
    vertex -0.27 1.388 0.48
    vertex -0.35 0.968 0.48
  endloop
endfacet
facet normal 0.0 0.0 -1.0
  outer loop
    vertex -0.27 1.388 0.48
    vertex -0.19 1.468 0.48
    vertex -0.19 1.388 0.48
  endloop
endfacet
facet normal 2.32624981834451e-015 2.14299095232301e-015 1.0
  outer loop
    vertex -0.453468979928786 1.722598867935 0.48
    vertex -0.455473094552173 1.73865043040754 0.48
    vertex -0.455527651385324 1.73049272582346 0.48
  endloop
endfacet
facet normal 2.32624981834451e-015 2.14299095232301e-015 1.0
  outer loop
    vertex -0.455473094552173 1.73865043040754 0.48
    vertex -0.453468979928786 1.722598867935 0.48
    vertex -0.453309027387351 1.74651604760108 0.48
  endloop
endfacet
facet normal 2.32624981834451e-015 2.14299095232301e-015 1.0
  outer loop
    vertex -0.453309027387351 1.74651604760108 0.48
    vertex -0.453468979928786 1.722598867935 0.48
    vertex -0.35 1.468 0.48
  endloop
endfacet
facet normal 2.32624981834451e-015 2.14299095232301e-015 1.0
  outer loop
    vertex -0.453309027387351 1.74651604760108 0.48
    vertex -0.35 1.468 0.48
    vertex -0.449182927491852 1.75355354859089 0.48
  endloop
endfacet
facet normal 2.32624981834451e-015 2.14299095232301e-015 1.0
  outer loop
    vertex -0.449182927491852 1.75355354859089 0.48
    vertex -0.35 1.468 0.48
    vertex -0.443375981754851 1.75928333931453 0.48
  endloop
endfacet
facet normal 2.32624981834451e-015 2.14299095232301e-015 1.0
  outer loop
    vertex -0.443375981754851 1.75928333931453 0.48
    vertex -0.35 1.468 0.48
    vertex -0.440304267497546 1.76104408610394 0.48
  endloop
endfacet
facet normal 2.32624981834451e-015 2.14299095232301e-015 1.0
  outer loop
    vertex -0.440304267497546 1.76104408610394 0.48
    vertex -0.35 1.468 0.48
    vertex -0.436283923931894 1.76331494400311 0.48
  endloop
endfacet
facet normal 2.32624981834451e-015 2.14299095232301e-015 1.0
  outer loop
    vertex -0.436283923931894 1.76331494400311 0.48
    vertex -0.35 1.468 0.48
    vertex -0.428390066043434 1.76537361545965 0.48
  endloop
endfacet
facet normal 2.32624981834451e-015 2.14299095232301e-015 1.0
  outer loop
    vertex -0.428390066043434 1.76537361545965 0.48
    vertex -0.35 1.468 0.48
    vertex -0.420232361459354 1.7653190586265 0.48
  endloop
endfacet
facet normal 2.32624981834451e-015 2.14299095232301e-015 1.0
  outer loop
    vertex -0.420232361459354 1.7653190586265 0.48
    vertex -0.35 1.468 0.48
    vertex -0.412366744265815 1.76315499146167 0.48
  endloop
endfacet
facet normal 2.32624981834451e-015 2.14299095232301e-015 1.0
  outer loop
    vertex -0.412366744265815 1.76315499146167 0.48
    vertex -0.35 1.468 0.48
    vertex -0.405329243276009 1.75902889156617 0.48
  endloop
endfacet
facet normal 2.32624981834451e-015 2.14299095232301e-015 1.0
  outer loop
    vertex -0.405329243276009 1.75902889156617 0.48
    vertex -0.35 1.468 0.48
    vertex -0.399599452552371 1.75322194582917 0.48
  endloop
endfacet
facet normal 2.32624981834451e-015 2.14299095232301e-015 1.0
  outer loop
    vertex -0.399599452552371 1.75322194582917 0.48
    vertex -0.35 1.468 0.48
    vertex -0.39556784786379 1.74612988800622 0.48
  endloop
endfacet
facet normal 2.32624981834451e-015 2.14299095232301e-015 1.0
  outer loop
    vertex -0.39556784786379 1.74612988800622 0.48
    vertex -0.35 1.468 0.48
    vertex -0.19 1.468 0.48
  endloop
endfacet
facet normal -0.604868250398927 0.796325561349967 -2.99443815463653e-016
  outer loop
    vertex -0.443375981754851 1.75928333931453 0.48
    vertex -0.440304267497546 1.76104408610394 -6.38378239159465e-016
    vertex -0.443375981754852 1.75928333931453 -6.38378239159465e-016
  endloop
endfacet
facet normal -0.494559945946 0.869143520867463 -7.12096717071782e-016
  outer loop
    vertex -0.440304267497546 1.76104408610394 -6.38378239159465e-016
    vertex -0.443375981754851 1.75928333931453 0.48
    vertex -0.440304267497546 1.76104408610394 0.48
  endloop
endfacet
facet normal -0.494559945946 0.869143520867463 -7.12096717071782e-016
  outer loop
    vertex -0.440304267497546 1.76104408610394 0.48
    vertex -0.436283923931894 1.76331494400311 -6.38378239159465e-016
    vertex -0.440304267497546 1.76104408610394 -6.38378239159465e-016
  endloop
endfacet
facet normal -0.37522467565315 0.926933893425517 -1.1135446134359e-015
  outer loop
    vertex -0.436283923931894 1.76331494400311 -6.38378239159465e-016
    vertex -0.440304267497546 1.76104408610394 0.48
    vertex -0.436283923931894 1.76331494400311 0.48
  endloop
endfacet
facet normal -0.37522467565315 0.926933893425517 -1.1135446134359e-015
  outer loop
    vertex -0.436283923931894 1.76331494400311 -6.38378239159465e-016
    vertex -0.428390066043434 1.76537361545965 0.48
    vertex -0.428390066043435 1.76537361545965 -7.49400541621981e-016
  endloop
endfacet
facet normal -0.123892868708688 0.992295599649183 -1.83827472875036e-015
  outer loop
    vertex -0.428390066043434 1.76537361545965 0.48
    vertex -0.436283923931894 1.76331494400311 -6.38378239159465e-016
    vertex -0.436283923931894 1.76331494400311 0.48
  endloop
endfacet
facet normal -0.123892868708688 0.992295599649183 -1.83827472875036e-015
  outer loop
    vertex -0.428390066043434 1.76537361545965 0.48
    vertex -0.420232361459355 1.7653190586265 -7.49400541621981e-016
    vertex -0.428390066043435 1.76537361545965 -7.49400541621981e-016
  endloop
endfacet
facet normal 0.137153677981873 0.990549780988338 -2.44179293697415e-015
  outer loop
    vertex -0.420232361459355 1.7653190586265 -7.49400541621981e-016
    vertex -0.428390066043434 1.76537361545965 0.48
    vertex -0.420232361459354 1.7653190586265 0.48
  endloop
endfacet
facet normal 0.137153677981873 0.990549780988338 -2.44179293697415e-015
  outer loop
    vertex -0.420232361459355 1.7653190586265 -7.49400541621981e-016
    vertex -0.412366744265815 1.76315499146167 0.48
    vertex -0.412366744265816 1.76315499146167 -8.60422844084496e-016
  endloop
endfacet
facet normal 0.388853428175139 0.921299631714049 -2.87890699179678e-015
  outer loop
    vertex -0.412366744265815 1.76315499146167 0.48
    vertex -0.420232361459355 1.7653190586265 -7.49400541621981e-016
    vertex -0.420232361459354 1.7653190586265 0.48
  endloop
endfacet
facet normal 0.388853428175139 0.921299631714049 -2.87890699179678e-015
  outer loop
    vertex -0.412366744265815 1.76315499146167 0.48
    vertex -0.405329243276009 1.75902889156617 -8.60422844084496e-016
    vertex -0.412366744265816 1.76315499146167 -8.60422844084496e-016
  endloop
endfacet
facet normal 0.61405345984894 0.789264435058078 -3.1198282927472e-015
  outer loop
    vertex -0.405329243276009 1.75902889156617 -8.60422844084496e-016
    vertex -0.412366744265815 1.76315499146167 0.48
    vertex -0.405329243276009 1.75902889156617 0.48
  endloop
endfacet
facet normal 0.61405345984894 0.789264435058078 -3.1198282927472e-015
  outer loop
    vertex -0.405329243276009 1.75902889156617 -8.60422844084496e-016
    vertex -0.399599452552371 1.75322194582917 0.48
    vertex -0.399599452552371 1.75322194582917 -8.60422844084496e-016
  endloop
endfacet
facet normal 0.797406763005361 0.603442171474046 -3.14813845130693e-015
  outer loop
    vertex -0.399599452552371 1.75322194582917 0.48
    vertex -0.405329243276009 1.75902889156617 -8.60422844084496e-016
    vertex -0.405329243276009 1.75902889156617 0.48
  endloop
endfacet
facet normal 0.797406763005361 0.603442171474046 -3.14813845130693e-015
  outer loop
    vertex -0.399599452552371 1.75322194582917 -8.60422844084496e-016
    vertex -0.39556784786379 1.74612988800622 0.48
    vertex -0.39556784786379 1.74612988800622 -8.60422844084496e-016
  endloop
endfacet
facet normal 0.869349846473897 0.494197171618587 -3.08138498987998e-015
  outer loop
    vertex -0.39556784786379 1.74612988800622 0.48
    vertex -0.399599452552371 1.75322194582917 -8.60422844084496e-016
    vertex -0.399599452552371 1.75322194582917 0.48
  endloop
endfacet
facet normal 0.804185010409946 0.594379061737504 -1.58737926954003e-015
  outer loop
    vertex -0.39556784786379 1.74612988800622 -8.60422844084496e-016
    vertex -0.19 1.468 0.425142857142857
    vertex -0.190000000000001 1.468 -4.16333634234434e-016
  endloop
endfacet
facet normal 0.804185010409946 0.594379061737504 -1.58737926954003e-015
  outer loop
    vertex -0.19 1.468 0.425142857142857
    vertex -0.39556784786379 1.74612988800622 -8.60422844084496e-016
    vertex -0.19 1.468 0.48
  endloop
endfacet
facet normal 0.804185010409946 0.594379061737504 -1.58737926954003e-015
  outer loop
    vertex -0.19 1.468 0.48
    vertex -0.39556784786379 1.74612988800622 -8.60422844084496e-016
    vertex -0.39556784786379 1.74612988800622 0.48
  endloop
endfacet
facet normal -0.926418113039935 -0.376496321139431 7.03152972914294e-016
  outer loop
    vertex -0.453468979928786 1.722598867935 0.48
    vertex -0.35 1.468 0.0
    vertex -0.35 1.468 0.48
  endloop
endfacet
facet normal -0.926418113039935 -0.376496321139431 7.03152972914294e-016
  outer loop
    vertex -0.35 1.468 0.0
    vertex -0.453468979928786 1.722598867935 0.48
    vertex -0.453468979928786 1.722598867935 -4.16333634234434e-016
  endloop
endfacet
facet normal -0.992295599649183 -0.123892868708688 1.89959615588279e-015
  outer loop
    vertex -0.455527651385324 1.73049272582346 0.48
    vertex -0.453468979928786 1.722598867935 -4.16333634234434e-016
    vertex -0.453468979928786 1.722598867935 0.48
  endloop
endfacet
facet normal -0.967635108840262 -0.252353514221011 1.45482340214117e-015
  outer loop
    vertex -0.453468979928786 1.722598867935 -4.16333634234434e-016
    vertex -0.455527651385324 1.73049272582346 0.48
    vertex -0.455527651385325 1.73049272582346 -4.16333634234434e-016
  endloop
endfacet
facet normal -0.990549780988338 0.137153677981873 2.01034715709234e-015
  outer loop
    vertex -0.455473094552173 1.73865043040754 0.48
    vertex -0.455527651385325 1.73049272582346 -4.16333634234434e-016
    vertex -0.455527651385324 1.73049272582346 0.48
  endloop
endfacet
facet normal -0.992295599649183 -0.123892868708687 1.89959615588279e-015
  outer loop
    vertex -0.455527651385325 1.73049272582346 -4.16333634234434e-016
    vertex -0.455473094552173 1.73865043040754 0.48
    vertex -0.455473094552174 1.73865043040754 -5.27355936696949e-016
  endloop
endfacet
facet normal -0.92129963171405 0.388853428175135 1.30986372255657e-015
  outer loop
    vertex -0.453309027387351 1.74651604760108 0.48
    vertex -0.455473094552174 1.73865043040754 -5.27355936696949e-016
    vertex -0.455473094552173 1.73865043040754 0.48
  endloop
endfacet
facet normal -0.990549780988338 0.137153677981874 2.01034715709234e-015
  outer loop
    vertex -0.455473094552174 1.73865043040754 -5.27355936696949e-016
    vertex -0.453309027387351 1.74651604760108 0.48
    vertex -0.453309027387352 1.74651604760108 -5.27355936696949e-016
  endloop
endfacet
facet normal -0.789264435058076 0.614053459848942 5.20115239980711e-016
  outer loop
    vertex -0.449182927491852 1.75355354859089 0.48
    vertex -0.453309027387352 1.74651604760108 -5.27355936696949e-016
    vertex -0.453309027387351 1.74651604760108 0.48
  endloop
endfacet
facet normal -0.92129963171405 0.388853428175136 1.30986372255657e-015
  outer loop
    vertex -0.453309027387352 1.74651604760108 -5.27355936696949e-016
    vertex -0.449182927491852 1.75355354859089 0.48
    vertex -0.449182927491853 1.75355354859089 -5.27355936696949e-016
  endloop
endfacet
facet normal -0.789264435058075 0.614053459848943 5.20115239980707e-016
  outer loop
    vertex -0.449182927491853 1.75355354859089 -5.27355936696949e-016
    vertex -0.443375981754851 1.75928333931453 0.48
    vertex -0.443375981754852 1.75928333931453 -6.38378239159465e-016
  endloop
endfacet
facet normal -0.604868250398927 0.796325561349967 -2.99443815463653e-016
  outer loop
    vertex -0.443375981754851 1.75928333931453 0.48
    vertex -0.449182927491853 1.75355354859089 -5.27355936696949e-016
    vertex -0.449182927491852 1.75355354859089 0.48
  endloop
endfacet
facet normal -3.83229958896428e-015 -3.80938198081401e-015 -1.0
  outer loop
    vertex -0.455473094552174 1.73865043040754 -5.27355936696949e-016
    vertex -0.453468979928786 1.722598867935 -4.16333634234434e-016
    vertex -0.455527651385325 1.73049272582346 -4.16333634234434e-016
  endloop
endfacet
facet normal -3.83229958896428e-015 -3.80938198081401e-015 -1.0
  outer loop
    vertex -0.453468979928786 1.722598867935 -4.16333634234434e-016
    vertex -0.455473094552174 1.73865043040754 -5.27355936696949e-016
    vertex -0.453309027387352 1.74651604760108 -5.27355936696949e-016
  endloop
endfacet
facet normal -3.83229958896428e-015 -3.80938198081401e-015 -1.0
  outer loop
    vertex -0.453468979928786 1.722598867935 -4.16333634234434e-016
    vertex -0.453309027387352 1.74651604760108 -5.27355936696949e-016
    vertex -0.35 1.468 0.0
  endloop
endfacet
facet normal -3.83229958896428e-015 -3.80938198081401e-015 -1.0
  outer loop
    vertex -0.35 1.468 0.0
    vertex -0.453309027387352 1.74651604760108 -5.27355936696949e-016
    vertex -0.449182927491853 1.75355354859089 -5.27355936696949e-016
  endloop
endfacet
facet normal -3.83229958896428e-015 -3.80938198081401e-015 -1.0
  outer loop
    vertex -0.35 1.468 0.0
    vertex -0.449182927491853 1.75355354859089 -5.27355936696949e-016
    vertex -0.443375981754852 1.75928333931453 -6.38378239159465e-016
  endloop
endfacet
facet normal -3.83229958896428e-015 -3.80938198081401e-015 -1.0
  outer loop
    vertex -0.35 1.468 0.0
    vertex -0.443375981754852 1.75928333931453 -6.38378239159465e-016
    vertex -0.440304267497546 1.76104408610394 -6.38378239159465e-016
  endloop
endfacet
facet normal -3.83229958896428e-015 -3.80938198081401e-015 -1.0
  outer loop
    vertex -0.35 1.468 0.0
    vertex -0.440304267497546 1.76104408610394 -6.38378239159465e-016
    vertex -0.436283923931894 1.76331494400311 -6.38378239159465e-016
  endloop
endfacet
facet normal -3.83229958896428e-015 -3.80938198081401e-015 -1.0
  outer loop
    vertex -0.35 1.468 0.0
    vertex -0.436283923931894 1.76331494400311 -6.38378239159465e-016
    vertex -0.428390066043435 1.76537361545965 -7.49400541621981e-016
  endloop
endfacet
facet normal -3.83229958896428e-015 -3.80938198081401e-015 -1.0
  outer loop
    vertex -0.35 1.468 0.0
    vertex -0.428390066043435 1.76537361545965 -7.49400541621981e-016
    vertex -0.420232361459355 1.7653190586265 -7.49400541621981e-016
  endloop
endfacet
facet normal -3.83229958896428e-015 -3.80938198081401e-015 -1.0
  outer loop
    vertex -0.35 1.468 0.0
    vertex -0.420232361459355 1.7653190586265 -7.49400541621981e-016
    vertex -0.412366744265816 1.76315499146167 -8.60422844084496e-016
  endloop
endfacet
facet normal -3.83229958896428e-015 -3.80938198081401e-015 -1.0
  outer loop
    vertex -0.35 1.468 0.0
    vertex -0.412366744265816 1.76315499146167 -8.60422844084496e-016
    vertex -0.405329243276009 1.75902889156617 -8.60422844084496e-016
  endloop
endfacet
facet normal -3.83229958896428e-015 -3.80938198081401e-015 -1.0
  outer loop
    vertex -0.35 1.468 0.0
    vertex -0.405329243276009 1.75902889156617 -8.60422844084496e-016
    vertex -0.399599452552371 1.75322194582917 -8.60422844084496e-016
  endloop
endfacet
facet normal -3.83229958896428e-015 -3.80938198081401e-015 -1.0
  outer loop
    vertex -0.35 1.468 0.0
    vertex -0.399599452552371 1.75322194582917 -8.60422844084496e-016
    vertex -0.39556784786379 1.74612988800622 -8.60422844084496e-016
  endloop
endfacet
facet normal -3.83229958896428e-015 -3.80938198081401e-015 -1.0
  outer loop
    vertex -0.35 1.468 0.0
    vertex -0.39556784786379 1.74612988800622 -8.60422844084496e-016
    vertex -0.190000000000001 1.468 -4.16333634234434e-016
  endloop
endfacet
facet normal -1.15598442672498e-015 1.19109827010136e-015 -1.0
  outer loop
    vertex -0.35 0.968 0.0
    vertex -0.451813851140723 0.707452485544405 -3.05311331771918e-016
    vertex -0.453468979928786 0.713401132064996 -3.05311331771918e-016
  endloop
endfacet
facet normal -1.15598442672498e-015 1.19109827010136e-015 -1.0
  outer loop
    vertex -0.451813851140723 0.707452485544405 -3.05311331771918e-016
    vertex -0.35 0.968 0.0
    vertex -0.449198108448563 0.701859298894522 -3.05311331771918e-016
  endloop
endfacet
facet normal -1.15598442672498e-015 1.19109827010136e-015 -1.0
  outer loop
    vertex -0.449198108448563 0.701859298894522 -3.05311331771918e-016
    vertex -0.35 0.968 0.0
    vertex -0.445693730744283 0.696775483040484 -3.05311331771918e-016
  endloop
endfacet
facet normal -1.15598442672498e-015 1.19109827010136e-015 -1.0
  outer loop
    vertex -0.445693730744283 0.696775483040484 -3.05311331771918e-016
    vertex -0.35 0.968 0.0
    vertex -0.441397149999183 0.69234093225908 -3.05311331771918e-016
  endloop
endfacet
facet normal -1.15598442672498e-015 1.19109827010136e-015 -1.0
  outer loop
    vertex -0.441397149999183 0.69234093225908 -3.05311331771918e-016
    vertex -0.35 0.968 0.0
    vertex -0.436426597690022 0.688677674627695 -3.05311331771918e-016
  endloop
endfacet
facet normal -1.15598442672498e-015 1.19109827010136e-015 -1.0
  outer loop
    vertex -0.436426597690022 0.688677674627695 -3.05311331771918e-016
    vertex -0.35 0.968 0.0
    vertex -0.430918851355658 0.68588651410771 -3.05311331771918e-016
  endloop
endfacet
facet normal -1.15598442672498e-015 1.19109827010136e-015 -1.0
  outer loop
    vertex -0.430918851355658 0.68588651410771 -3.05311331771918e-016
    vertex -0.35 0.968 0.0
    vertex -0.425025470811062 0.684044256664085 -3.05311331771918e-016
  endloop
endfacet
facet normal -1.15598442672498e-015 1.19109827010136e-015 -1.0
  outer loop
    vertex -0.425025470811062 0.684044256664085 -3.05311331771918e-016
    vertex -0.35 0.968 0.0
    vertex -0.418908627588954 0.683201596751563 -3.05311331771918e-016
  endloop
endfacet
facet normal -1.15598442672498e-015 1.19109827010136e-015 -1.0
  outer loop
    vertex -0.418908627588954 0.683201596751563 -3.05311331771918e-016
    vertex -0.35 0.968 0.0
    vertex -0.412736642372725 0.683381722326283 -3.05311331771918e-016
  endloop
endfacet
facet normal -1.15598442672498e-015 1.19109827010136e-015 -1.0
  outer loop
    vertex -0.412736642372725 0.683381722326283 -3.05311331771918e-016
    vertex -0.35 0.968 0.0
    vertex -0.406679353219645 0.684579676769489 -3.05311331771918e-016
  endloop
endfacet
facet normal -1.15598442672498e-015 1.19109827010136e-015 -1.0
  outer loop
    vertex -0.406679353219645 0.684579676769489 -3.05311331771918e-016
    vertex -0.35 0.968 0.0
    vertex -0.400903442029629 0.686762495281656 -3.05311331771918e-016
  endloop
endfacet
facet normal -1.15598442672498e-015 1.19109827010136e-015 -1.0
  outer loop
    vertex -0.400903442029629 0.686762495281656 -3.05311331771918e-016
    vertex -0.35 0.968 0.0
    vertex -0.39556784786379 0.689870111993782 -3.05311331771918e-016
  endloop
endfacet
facet normal -1.15598442672498e-015 1.19109827010136e-015 -1.0
  outer loop
    vertex -0.39556784786379 0.689870111993782 -3.05311331771918e-016
    vertex -0.35 0.968 0.0
    vertex -0.19 0.968 -3.05311331771918e-016
  endloop
endfacet
facet normal 0.804185010409948 -0.594379061737501 -1.48353202760748e-017
  outer loop
    vertex -0.19 0.968 -3.05311331771918e-016
    vertex -0.39556784786379 0.689870111993782 0.48
    vertex -0.39556784786379 0.689870111993782 -3.05311331771918e-016
  endloop
endfacet
facet normal 0.804185010409948 -0.594379061737501 -1.48353202760748e-017
  outer loop
    vertex -0.39556784786379 0.689870111993782 0.48
    vertex -0.19 0.968 -3.05311331771918e-016
    vertex -0.19 0.968 0.48
  endloop
endfacet
facet normal 0.804185010409948 -0.594379061737501 -1.48353202760748e-017
  outer loop
    vertex -0.19 0.968 0.48
    vertex -0.19 0.968 -3.05311331771918e-016
    vertex -0.19 0.968 0.425142857142857
  endloop
endfacet
facet normal 0.50328930251282 -0.864117976885194 0.0
  outer loop
    vertex -0.39556784786379 0.689870111993782 0.48
    vertex -0.400903442029629 0.686762495281656 -3.05311331771918e-016
    vertex -0.39556784786379 0.689870111993782 -3.05311331771918e-016
  endloop
endfacet
facet normal 0.429883385184833 -0.902884419592025 0.0
  outer loop
    vertex -0.400903442029629 0.686762495281656 -3.05311331771918e-016
    vertex -0.39556784786379 0.689870111993782 0.48
    vertex -0.400903442029629 0.686762495281656 0.48
  endloop
endfacet
facet normal 0.429883385184833 -0.902884419592025 0.0
  outer loop
    vertex -0.400903442029629 0.686762495281656 0.48
    vertex -0.406679353219645 0.684579676769489 -3.05311331771918e-016
    vertex -0.400903442029629 0.686762495281656 -3.05311331771918e-016
  endloop
endfacet
facet normal 0.274710503197129 -0.961526983205973 0.0
  outer loop
    vertex -0.406679353219645 0.684579676769489 -3.05311331771918e-016
    vertex -0.400903442029629 0.686762495281656 0.48
    vertex -0.406679353219645 0.684579676769489 0.48
  endloop
endfacet
facet normal 0.274710503197129 -0.961526983205973 0.0
  outer loop
    vertex -0.406679353219645 0.684579676769489 0.48
    vertex -0.412736642372725 0.683381722326283 -3.05311331771918e-016
    vertex -0.406679353219645 0.684579676769489 -3.05311331771918e-016
  endloop
endfacet
facet normal 0.111978254726813 -0.993710657318486 0.0
  outer loop
    vertex -0.412736642372725 0.683381722326283 -3.05311331771918e-016
    vertex -0.406679353219645 0.684579676769489 0.48
    vertex -0.412736642372725 0.683381722326283 0.48
  endloop
endfacet
facet normal 0.111978254726813 -0.993710657318486 0.0
  outer loop
    vertex -0.412736642372725 0.683381722326283 0.48
    vertex -0.418908627588954 0.683201596751563 -3.05311331771918e-016
    vertex -0.412736642372725 0.683381722326283 -3.05311331771918e-016
  endloop
endfacet
facet normal -0.0538353636063598 -0.998549825309369 0.0
  outer loop
    vertex -0.418908627588954 0.683201596751563 -3.05311331771918e-016
    vertex -0.412736642372725 0.683381722326283 0.48
    vertex -0.418908627588954 0.683201596751563 0.48
  endloop
endfacet
facet normal -0.0538353636063598 -0.998549825309369 0.0
  outer loop
    vertex -0.418908627588954 0.683201596751563 0.48
    vertex -0.425025470811062 0.684044256664085 -3.05311331771918e-016
    vertex -0.418908627588954 0.683201596751563 -3.05311331771918e-016
  endloop
endfacet
facet normal -0.218167563360757 -0.975911325017407 0.0
  outer loop
    vertex -0.425025470811062 0.684044256664085 -3.05311331771918e-016
    vertex -0.418908627588954 0.683201596751563 0.48
    vertex -0.425025470811062 0.684044256664085 0.48
  endloop
endfacet
facet normal -0.218167563360757 -0.975911325017407 0.0
  outer loop
    vertex -0.425025470811062 0.684044256664085 0.48
    vertex -0.430918851355658 0.68588651410771 -3.05311331771918e-016
    vertex -0.425025470811062 0.684044256664085 -3.05311331771918e-016
  endloop
endfacet
facet normal -0.376496321139437 -0.926418113039933 0.0
  outer loop
    vertex -0.430918851355658 0.68588651410771 -3.05311331771918e-016
    vertex -0.425025470811062 0.684044256664085 0.48
    vertex -0.430918851355658 0.68588651410771 0.48
  endloop
endfacet
facet normal -0.376496321139437 -0.926418113039933 0.0
  outer loop
    vertex -0.430918851355658 0.68588651410771 0.48
    vertex -0.436426597690022 0.688677674627695 -3.05311331771918e-016
    vertex -0.430918851355658 0.68588651410771 -3.05311331771918e-016
  endloop
endfacet
facet normal -0.524464813701719 -0.851432122478839 0.0
  outer loop
    vertex -0.436426597690022 0.688677674627695 -3.05311331771918e-016
    vertex -0.430918851355658 0.68588651410771 0.48
    vertex -0.436426597690022 0.688677674627695 0.48
  endloop
endfacet
facet normal -0.524464813701719 -0.851432122478839 0.0
  outer loop
    vertex -0.436426597690022 0.688677674627695 0.48
    vertex -0.441397149999183 0.69234093225908 -3.05311331771918e-016
    vertex -0.436426597690022 0.688677674627695 -3.05311331771918e-016
  endloop
endfacet
facet normal -0.658001307167261 -0.753016785846223 0.0
  outer loop
    vertex -0.441397149999183 0.69234093225908 -3.05311331771918e-016
    vertex -0.436426597690022 0.688677674627695 0.48
    vertex -0.441397149999183 0.69234093225908 0.48
  endloop
endfacet
facet normal -0.773431201252632 -0.633880254408441 0.0
  outer loop
    vertex -0.445693730744283 0.696775483040484 0.48
    vertex -0.441397149999183 0.69234093225908 -3.05311331771918e-016
    vertex -0.441397149999183 0.69234093225908 0.48
  endloop
endfacet
facet normal -0.658001307167261 -0.753016785846223 0.0
  outer loop
    vertex -0.441397149999183 0.69234093225908 -3.05311331771918e-016
    vertex -0.445693730744283 0.696775483040484 0.48
    vertex -0.445693730744283 0.696775483040484 -3.05311331771918e-016
  endloop
endfacet
facet normal -0.867578145354977 -0.497300876434396 0.0
  outer loop
    vertex -0.449198108448563 0.701859298894522 0.48
    vertex -0.445693730744283 0.696775483040484 -3.05311331771918e-016
    vertex -0.445693730744283 0.696775483040484 0.48
  endloop
endfacet
facet normal -0.773431201252632 -0.633880254408441 0.0
  outer loop
    vertex -0.445693730744283 0.696775483040484 -3.05311331771918e-016
    vertex -0.449198108448563 0.701859298894522 0.48
    vertex -0.449198108448563 0.701859298894522 -3.05311331771918e-016
  endloop
endfacet
facet normal -0.937851444013413 -0.347036985005858 -1.79874270213269e-033
  outer loop
    vertex -0.451813851140723 0.707452485544405 0.48
    vertex -0.449198108448563 0.701859298894522 -3.05311331771918e-016
    vertex -0.449198108448563 0.701859298894522 0.48
  endloop
endfacet
facet normal -0.867578145354977 -0.497300876434396 0.0
  outer loop
    vertex -0.449198108448563 0.701859298894522 -3.05311331771918e-016
    vertex -0.451813851140723 0.707452485544405 0.48
    vertex -0.451813851140723 0.707452485544405 -3.05311331771918e-016
  endloop
endfacet
facet normal -0.963403931560114 -0.268053846557954 -3.58508979023711e-033
  outer loop
    vertex -0.453468979928786 0.713401132064996 0.48
    vertex -0.451813851140723 0.707452485544405 -3.05311331771918e-016
    vertex -0.451813851140723 0.707452485544405 0.48
  endloop
endfacet
facet normal -0.937851444013413 -0.347036985005858 -1.79874270213269e-033
  outer loop
    vertex -0.451813851140723 0.707452485544405 -3.05311331771918e-016
    vertex -0.453468979928786 0.713401132064996 0.48
    vertex -0.453468979928786 0.713401132064996 -3.05311331771918e-016
  endloop
endfacet
facet normal -0.926418113039936 0.37649632113943 4.12930084879437e-019
  outer loop
    vertex -0.35 0.968 0.48
    vertex -0.453468979928786 0.713401132064996 -3.05311331771918e-016
    vertex -0.453468979928786 0.713401132064996 0.48
  endloop
endfacet
facet normal -0.926418113039936 0.37649632113943 4.12930084879437e-019
  outer loop
    vertex -0.453468979928786 0.713401132064996 -3.05311331771918e-016
    vertex -0.35 0.968 0.48
    vertex -0.35 0.968 0.0
  endloop
endfacet
facet normal 0.0 -1.0 0.0
  outer loop
    vertex 0.08 1.048 0.24
    vertex -0.27 1.048 0.08
    vertex 0.08 1.048 0.08
  endloop
endfacet
facet normal 0.0 -1.0 0.0
  outer loop
    vertex -0.27 1.048 0.08
    vertex 0.08 1.048 0.24
    vertex -0.19 1.048 0.425142857142857
  endloop
endfacet
facet normal 0.0 -1.0 0.0
  outer loop
    vertex -0.27 1.048 0.08
    vertex -0.19 1.048 0.425142857142857
    vertex -0.27 1.048 0.48
  endloop
endfacet
facet normal 0.0 -1.0 0.0
  outer loop
    vertex -0.27 1.048 0.48
    vertex -0.19 1.048 0.425142857142857
    vertex -0.19 1.048 0.48
  endloop
endfacet
facet normal -0.0 1.0 -0.0
  outer loop
    vertex -0.27 1.388 0.48
    vertex 0.08 1.388 0.08
    vertex -0.27 1.388 0.08
  endloop
endfacet
facet normal -0.0 1.0 -0.0
  outer loop
    vertex 0.08 1.388 0.08
    vertex -0.27 1.388 0.48
    vertex -0.19 1.388 0.425142857142857
  endloop
endfacet
facet normal -0.0 1.0 -0.0
  outer loop
    vertex 0.08 1.388 0.08
    vertex -0.19 1.388 0.425142857142857
    vertex 0.08 1.388 0.24
  endloop
endfacet
facet normal -0.0 1.0 -0.0
  outer loop
    vertex -0.19 1.388 0.425142857142857
    vertex -0.27 1.388 0.48
    vertex -0.19 1.388 0.48
  endloop
endfacet
facet normal -1.69452534521072e-016 4.39929517883844e-018 1.0
  outer loop
    vertex 0.0 0.0 0.0
    vertex 0.209317043812343 0.200400304933029 4.16333634234434e-017
    vertex 0.0 0.968 0.0
  endloop
endfacet
facet normal -1.69452534521072e-016 4.39929517883844e-018 1.0
  outer loop
    vertex 0.209317043812343 0.200400304933029 4.16333634234434e-017
    vertex 0.0 0.0 0.0
    vertex 0.216110272542658 0.184 4.16333634234434e-017
  endloop
endfacet
facet normal -1.69452534521072e-016 4.39929517883844e-018 1.0
  outer loop
    vertex 0.216110272542658 0.184 4.16333634234434e-017
    vertex 0.0 0.0 0.0
    vertex 0.226916738879315 0.169916738879315 4.16333634234434e-017
  endloop
endfacet
facet normal -1.69452534521072e-016 4.39929517883844e-018 1.0
  outer loop
    vertex 0.226916738879315 0.169916738879315 4.16333634234434e-017
    vertex 0.0 0.0 0.0
    vertex 0.241 0.159110272542658 4.16333634234434e-017
  endloop
endfacet
facet normal -1.69452534521072e-016 4.39929517883844e-018 1.0
  outer loop
    vertex 0.241 0.159110272542658 4.16333634234434e-017
    vertex 0.0 0.0 0.0
    vertex 0.463 0.0 0.0
  endloop
endfacet
facet normal -1.69452534521072e-016 4.39929517883844e-018 1.0
  outer loop
    vertex 0.0 0.968 0.0
    vertex 0.209317043812343 0.200400304933029 4.16333634234434e-017
    vertex 0.0 1.468 0.0
  endloop
endfacet
facet normal -1.69452534521072e-016 4.39929517883844e-018 1.0
  outer loop
    vertex 0.0 1.468 0.0
    vertex 0.209317043812343 0.200400304933029 4.16333634234434e-017
    vertex 0.207 0.218 4.16333634234434e-017
  endloop
endfacet
facet normal -1.69452534521072e-016 4.39929517883844e-018 1.0
  outer loop
    vertex 0.0 1.468 0.0
    vertex 0.207 0.218 4.16333634234434e-017
    vertex 0.0 2.436 0.0
  endloop
endfacet
facet normal -1.69452534521072e-016 4.39929517883844e-018 1.0
  outer loop
    vertex 0.241 0.159110272542658 4.16333634234434e-017
    vertex 0.463 0.0 0.0
    vertex 0.257400304933029 0.152317043812343 4.16333634234434e-017
  endloop
endfacet
facet normal -1.69452534521072e-016 4.39929517883844e-018 1.0
  outer loop
    vertex 0.257400304933029 0.152317043812343 4.16333634234434e-017
    vertex 0.463 0.0 0.0
    vertex 0.275 0.15 4.16333634234434e-017
  endloop
endfacet
facet normal -1.69452534521072e-016 4.39929517883844e-018 1.0
  outer loop
    vertex 0.275 0.15 4.16333634234434e-017
    vertex 0.463 0.0 0.0
    vertex 0.292599695066971 0.152317043812343 4.16333634234434e-017
  endloop
endfacet
facet normal -1.69452534521072e-016 4.39929517883844e-018 1.0
  outer loop
    vertex 0.292599695066971 0.152317043812343 4.16333634234434e-017
    vertex 0.463 0.0 0.0
    vertex 0.309 0.159110272542658 4.16333634234434e-017
  endloop
endfacet
facet normal -1.69452534521072e-016 4.39929517883844e-018 1.0
  outer loop
    vertex 0.309 0.159110272542658 4.16333634234434e-017
    vertex 0.463 0.0 0.0
    vertex 0.323083261120685 0.169916738879315 4.16333634234434e-017
  endloop
endfacet
facet normal -1.69452534521072e-016 4.39929517883844e-018 1.0
  outer loop
    vertex 0.323083261120685 0.169916738879315 4.16333634234434e-017
    vertex 0.463 0.0 0.0
    vertex 0.333889727457342 0.184 4.16333634234434e-017
  endloop
endfacet
facet normal -1.69452534521072e-016 4.39929517883844e-018 1.0
  outer loop
    vertex 0.333889727457342 0.184 4.16333634234434e-017
    vertex 0.463 0.0 0.0
    vertex 0.340682956187657 0.200400304933029 4.16333634234434e-017
  endloop
endfacet
facet normal -1.69452534521072e-016 4.39929517883844e-018 1.0
  outer loop
    vertex 0.340682956187657 0.200400304933029 4.16333634234434e-017
    vertex 0.463 0.0 0.0
    vertex 0.343 0.218 4.16333634234434e-017
  endloop
endfacet
facet normal -1.69452534521072e-016 4.39929517883844e-018 1.0
  outer loop
    vertex 0.343 0.218 4.16333634234434e-017
    vertex 0.463 0.0 0.0
    vertex 0.344971608099228 2.2447166260898 -4.9960036108132e-016
  endloop
endfacet
facet normal -1.69452534521072e-016 4.39929517883844e-018 1.0
  outer loop
    vertex 0.344971608099228 2.2447166260898 -4.9960036108132e-016
    vertex 0.463 0.0 0.0
    vertex 0.345263205906365 2.2624657930899 -4.9960036108132e-016
  endloop
endfacet
facet normal -1.69452534521072e-016 4.39929517883844e-018 1.0
  outer loop
    vertex 0.0 2.436 0.0
    vertex 0.237204243716728 2.30931940224116 -4.9960036108132e-016
    vertex 0.463 2.436 0.0
  endloop
endfacet
facet normal -1.69452534521072e-016 4.39929517883844e-018 1.0
  outer loop
    vertex 0.237204243716728 2.30931940224116 -4.9960036108132e-016
    vertex 0.0 2.436 0.0
    vertex 0.224447496583736 2.29697503668178 -4.9960036108132e-016
  endloop
endfacet
facet normal -1.69452534521072e-016 4.39929517883844e-018 1.0
  outer loop
    vertex 0.224447496583736 2.29697503668178 -4.9960036108132e-016
    vertex 0.0 2.436 0.0
    vertex 0.215320381975016 2.28174960606724 -4.9960036108132e-016
  endloop
endfacet
facet normal -1.69452534521072e-016 4.39929517883844e-018 1.0
  outer loop
    vertex 0.215320381975016 2.28174960606724 -4.9960036108132e-016
    vertex 0.0 2.436 0.0
    vertex 0.210444897667882 2.26468069833272 -4.9960036108132e-016
  endloop
endfacet
facet normal -1.69452534521072e-016 4.39929517883844e-018 1.0
  outer loop
    vertex 0.210444897667882 2.26468069833272 -4.9960036108132e-016
    vertex 0.0 2.436 0.0
    vertex 0.210153299860745 2.24693153133262 -4.9960036108132e-016
  endloop
endfacet
facet normal -1.69452534521072e-016 4.39929517883844e-018 1.0
  outer loop
    vertex 0.210153299860745 2.24693153133262 -4.9960036108132e-016
    vertex 0.0 2.436 0.0
    vertex 0.207 0.218 4.16333634234434e-017
  endloop
endfacet
facet normal -1.69452534521072e-016 4.39929517883844e-018 1.0
  outer loop
    vertex 0.210153299860745 2.24693153133262 -4.9960036108132e-016
    vertex 0.207 0.218 4.16333634234434e-017
    vertex 0.209317043812343 0.235599695066971 4.16333634234434e-017
  endloop
endfacet
facet normal -1.69452534521072e-016 4.39929517883844e-018 1.0
  outer loop
    vertex 0.463 2.436 0.0
    vertex 0.237204243716728 2.30931940224116 -4.9960036108132e-016
    vertex 0.252721272138398 2.31794145463254 -4.9960036108132e-016
  endloop
endfacet
facet normal -1.69452534521072e-016 4.39929517883844e-018 1.0
  outer loop
    vertex 0.463 2.436 0.0
    vertex 0.252721272138398 2.31794145463254 -4.9960036108132e-016
    vertex 0.269941122004913 2.32225361523407 -4.9960036108132e-016
  endloop
endfacet
facet normal -1.69452534521072e-016 4.39929517883844e-018 1.0
  outer loop
    vertex 0.463 2.436 0.0
    vertex 0.269941122004913 2.32225361523407 -4.9960036108132e-016
    vertex 0.287690289005017 2.32196201742693 -4.9960036108132e-016
  endloop
endfacet
facet normal -1.69452534521072e-016 4.39929517883844e-018 1.0
  outer loop
    vertex 0.463 2.436 0.0
    vertex 0.287690289005017 2.32196201742693 -4.9960036108132e-016
    vertex 0.304759196739538 2.3170865331198 -4.9960036108132e-016
  endloop
endfacet
facet normal -1.69452534521072e-016 4.39929517883844e-018 1.0
  outer loop
    vertex 0.463 2.436 0.0
    vertex 0.304759196739538 2.3170865331198 -4.9960036108132e-016
    vertex 0.319984627354071 2.30795941851108 -4.9960036108132e-016
  endloop
endfacet
facet normal -1.69452534521072e-016 4.39929517883844e-018 1.0
  outer loop
    vertex 0.463 2.436 0.0
    vertex 0.319984627354071 2.30795941851108 -4.9960036108132e-016
    vertex 0.332328992913452 2.29520267137809 -4.9960036108132e-016
  endloop
endfacet
facet normal -1.69452534521072e-016 4.39929517883844e-018 1.0
  outer loop
    vertex 0.463 2.436 0.0
    vertex 0.332328992913452 2.29520267137809 -4.9960036108132e-016
    vertex 0.340951045304835 2.27968564295642 -4.9960036108132e-016
  endloop
endfacet
facet normal -1.69452534521072e-016 4.39929517883844e-018 1.0
  outer loop
    vertex 0.463 2.436 0.0
    vertex 0.340951045304835 2.27968564295642 -4.9960036108132e-016
    vertex 0.345263205906365 2.2624657930899 -4.9960036108132e-016
  endloop
endfacet
facet normal -1.69452534521072e-016 4.39929517883844e-018 1.0
  outer loop
    vertex 0.463 2.436 0.0
    vertex 0.345263205906365 2.2624657930899 -4.9960036108132e-016
    vertex 0.463 0.0 0.0
  endloop
endfacet
facet normal -1.69452534521072e-016 4.39929517883844e-018 1.0
  outer loop
    vertex 0.216110272542658 0.252 4.16333634234434e-017
    vertex 0.210153299860745 2.24693153133262 -4.9960036108132e-016
    vertex 0.209317043812343 0.235599695066971 4.16333634234434e-017
  endloop
endfacet
facet normal -1.69452534521072e-016 4.39929517883844e-018 1.0
  outer loop
    vertex 0.210153299860745 2.24693153133262 -4.9960036108132e-016
    vertex 0.216110272542658 0.252 4.16333634234434e-017
    vertex 0.214465460462274 2.2297116814661 -4.9960036108132e-016
  endloop
endfacet
facet normal -1.69452534521072e-016 4.39929517883844e-018 1.0
  outer loop
    vertex 0.214465460462274 2.2297116814661 -4.9960036108132e-016
    vertex 0.216110272542658 0.252 4.16333634234434e-017
    vertex 0.223087512853658 2.21419465304443 -4.9960036108132e-016
  endloop
endfacet
facet normal -1.69452534521072e-016 4.39929517883844e-018 1.0
  outer loop
    vertex 0.223087512853658 2.21419465304443 -4.9960036108132e-016
    vertex 0.216110272542658 0.252 4.16333634234434e-017
    vertex 0.226916738879315 0.266083261120685 4.16333634234434e-017
  endloop
endfacet
facet normal -1.69452534521072e-016 4.39929517883844e-018 1.0
  outer loop
    vertex 0.223087512853658 2.21419465304443 -4.9960036108132e-016
    vertex 0.226916738879315 0.266083261120685 4.16333634234434e-017
    vertex 0.235431878413038 2.20143790591144 -4.9960036108132e-016
  endloop
endfacet
facet normal -1.69452534521072e-016 4.39929517883844e-018 1.0
  outer loop
    vertex 0.235431878413038 2.20143790591144 -4.9960036108132e-016
    vertex 0.226916738879315 0.266083261120685 4.16333634234434e-017
    vertex 0.241 0.276889727457342 4.16333634234434e-017
  endloop
endfacet
facet normal -1.69452534521072e-016 4.39929517883844e-018 1.0
  outer loop
    vertex 0.235431878413038 2.20143790591144 -4.9960036108132e-016
    vertex 0.241 0.276889727457342 4.16333634234434e-017
    vertex 0.250657309027572 2.19231079130272 -4.9960036108132e-016
  endloop
endfacet
facet normal -1.69452534521072e-016 4.39929517883844e-018 1.0
  outer loop
    vertex 0.250657309027572 2.19231079130272 -4.9960036108132e-016
    vertex 0.241 0.276889727457342 4.16333634234434e-017
    vertex 0.257400304933029 0.283682956187657 4.16333634234434e-017
  endloop
endfacet
facet normal -1.69452534521072e-016 4.39929517883844e-018 1.0
  outer loop
    vertex 0.250657309027572 2.19231079130272 -4.9960036108132e-016
    vertex 0.257400304933029 0.283682956187657 4.16333634234434e-017
    vertex 0.267726216762093 2.18743530699559 -4.9960036108132e-016
  endloop
endfacet
facet normal -1.69452534521072e-016 4.39929517883844e-018 1.0
  outer loop
    vertex 0.267726216762093 2.18743530699559 -4.9960036108132e-016
    vertex 0.257400304933029 0.283682956187657 4.16333634234434e-017
    vertex 0.275 0.286 4.16333634234434e-017
  endloop
endfacet
facet normal -1.69452534521072e-016 4.39929517883844e-018 1.0
  outer loop
    vertex 0.267726216762093 2.18743530699559 -4.9960036108132e-016
    vertex 0.275 0.286 4.16333634234434e-017
    vertex 0.285475383762196 2.18714370918845 -4.9960036108132e-016
  endloop
endfacet
facet normal -1.69452534521072e-016 4.39929517883844e-018 1.0
  outer loop
    vertex 0.285475383762196 2.18714370918845 -4.9960036108132e-016
    vertex 0.275 0.286 4.16333634234434e-017
    vertex 0.292599695066971 0.283682956187657 4.16333634234434e-017
  endloop
endfacet
facet normal -1.69452534521072e-016 4.39929517883844e-018 1.0
  outer loop
    vertex 0.285475383762196 2.18714370918845 -4.9960036108132e-016
    vertex 0.292599695066971 0.283682956187657 4.16333634234434e-017
    vertex 0.302695233628711 2.19145586978998 -4.9960036108132e-016
  endloop
endfacet
facet normal -1.69452534521072e-016 4.39929517883844e-018 1.0
  outer loop
    vertex 0.302695233628711 2.19145586978998 -4.9960036108132e-016
    vertex 0.292599695066971 0.283682956187657 4.16333634234434e-017
    vertex 0.309 0.276889727457342 4.16333634234434e-017
  endloop
endfacet
facet normal -1.69452534521072e-016 4.39929517883844e-018 1.0
  outer loop
    vertex 0.302695233628711 2.19145586978998 -4.9960036108132e-016
    vertex 0.309 0.276889727457342 4.16333634234434e-017
    vertex 0.318212262050382 2.20007792218136 -4.9960036108132e-016
  endloop
endfacet
facet normal -1.69452534521072e-016 4.39929517883844e-018 1.0
  outer loop
    vertex 0.318212262050382 2.20007792218136 -4.9960036108132e-016
    vertex 0.309 0.276889727457342 4.16333634234434e-017
    vertex 0.323083261120685 0.266083261120685 4.16333634234434e-017
  endloop
endfacet
facet normal -1.69452534521072e-016 4.39929517883844e-018 1.0
  outer loop
    vertex 0.318212262050382 2.20007792218136 -4.9960036108132e-016
    vertex 0.323083261120685 0.266083261120685 4.16333634234434e-017
    vertex 0.330969009183373 2.21242228774074 -4.9960036108132e-016
  endloop
endfacet
facet normal -1.69452534521072e-016 4.39929517883844e-018 1.0
  outer loop
    vertex 0.330969009183373 2.21242228774074 -4.9960036108132e-016
    vertex 0.323083261120685 0.266083261120685 4.16333634234434e-017
    vertex 0.333889727457342 0.252 4.16333634234434e-017
  endloop
endfacet
facet normal -1.69452534521072e-016 4.39929517883844e-018 1.0
  outer loop
    vertex 0.330969009183373 2.21242228774074 -4.9960036108132e-016
    vertex 0.333889727457342 0.252 4.16333634234434e-017
    vertex 0.340096123792093 2.22764771835528 -4.9960036108132e-016
  endloop
endfacet
facet normal -1.69452534521072e-016 4.39929517883844e-018 1.0
  outer loop
    vertex 0.340096123792093 2.22764771835528 -4.9960036108132e-016
    vertex 0.333889727457342 0.252 4.16333634234434e-017
    vertex 0.340682956187657 0.235599695066972 4.16333634234434e-017
  endloop
endfacet
facet normal -1.69452534521072e-016 4.39929517883844e-018 1.0
  outer loop
    vertex 0.340096123792093 2.22764771835528 -4.9960036108132e-016
    vertex 0.340682956187657 0.235599695066972 4.16333634234434e-017
    vertex 0.344971608099228 2.2447166260898 -4.9960036108132e-016
  endloop
endfacet
facet normal -1.69452534521072e-016 4.39929517883844e-018 1.0
  outer loop
    vertex 0.344971608099228 2.2447166260898 -4.9960036108132e-016
    vertex 0.340682956187657 0.235599695066972 4.16333634234434e-017
    vertex 0.343 0.218 4.16333634234434e-017
  endloop
endfacet
facet normal -1.69452534521072e-016 4.39929517883844e-018 1.0
  outer loop
    vertex -0.19 0.968 -3.05311331771918e-016
    vertex -0.35 1.468 0.0
    vertex -0.35 0.968 0.0
  endloop
endfacet
facet normal -1.69452534521072e-016 4.39929517883844e-018 1.0
  outer loop
    vertex -0.35 1.468 0.0
    vertex -0.19 0.968 -3.05311331771918e-016
    vertex -0.190000000000001 1.468 -4.16333634234434e-016
  endloop
endfacet
facet normal -1.69452534521072e-016 4.39929517883844e-018 1.0
  outer loop
    vertex -0.190000000000001 1.468 -4.16333634234434e-016
    vertex -0.19 0.968 -3.05311331771918e-016
    vertex 0.0 1.468 0.0
  endloop
endfacet
facet normal -1.69452534521072e-016 4.39929517883844e-018 1.0
  outer loop
    vertex 0.0 1.468 0.0
    vertex -0.19 0.968 -3.05311331771918e-016
    vertex 0.0 0.968 0.0
  endloop
endfacet
facet normal 1.89136944112406e-017 4.33873433807325e-035 -1.0
  outer loop
    vertex 0.210153299860745 2.24693153133262 0.08
    vertex 0.216110272542658 0.252 0.08
    vertex 0.209317043812343 0.235599695066971 0.08
  endloop
endfacet
facet normal 1.89136944112406e-017 4.33873433807325e-035 -1.0
  outer loop
    vertex 0.216110272542658 0.252 0.08
    vertex 0.210153299860745 2.24693153133262 0.08
    vertex 0.214465460462274 2.2297116814661 0.08
  endloop
endfacet
facet normal 1.89136944112406e-017 4.33873433807325e-035 -1.0
  outer loop
    vertex 0.216110272542658 0.252 0.08
    vertex 0.214465460462274 2.2297116814661 0.08
    vertex 0.223087512853658 2.21419465304443 0.08
  endloop
endfacet
facet normal 1.89136944112406e-017 4.33873433807325e-035 -1.0
  outer loop
    vertex 0.216110272542658 0.252 0.08
    vertex 0.223087512853658 2.21419465304443 0.08
    vertex 0.226916738879315 0.266083261120685 0.08
  endloop
endfacet
facet normal 1.89136944112406e-017 4.33873433807325e-035 -1.0
  outer loop
    vertex 0.226916738879315 0.266083261120685 0.08
    vertex 0.223087512853658 2.21419465304443 0.08
    vertex 0.235431878413038 2.20143790591144 0.08
  endloop
endfacet
facet normal 1.89136944112406e-017 4.33873433807325e-035 -1.0
  outer loop
    vertex 0.226916738879315 0.266083261120685 0.08
    vertex 0.235431878413038 2.20143790591144 0.08
    vertex 0.241 0.276889727457342 0.08
  endloop
endfacet
facet normal 1.89136944112406e-017 4.33873433807325e-035 -1.0
  outer loop
    vertex 0.241 0.276889727457342 0.08
    vertex 0.235431878413038 2.20143790591144 0.08
    vertex 0.250657309027572 2.19231079130272 0.08
  endloop
endfacet
facet normal 1.89136944112406e-017 4.33873433807325e-035 -1.0
  outer loop
    vertex 0.241 0.276889727457342 0.08
    vertex 0.250657309027572 2.19231079130272 0.08
    vertex 0.257400304933029 0.283682956187657 0.08
  endloop
endfacet
facet normal 1.89136944112406e-017 4.33873433807325e-035 -1.0
  outer loop
    vertex 0.257400304933029 0.283682956187657 0.08
    vertex 0.250657309027572 2.19231079130272 0.08
    vertex 0.267726216762093 2.18743530699559 0.08
  endloop
endfacet
facet normal 1.89136944112406e-017 4.33873433807325e-035 -1.0
  outer loop
    vertex 0.257400304933029 0.283682956187657 0.08
    vertex 0.267726216762093 2.18743530699559 0.08
    vertex 0.275 0.286 0.08
  endloop
endfacet
facet normal 1.89136944112406e-017 4.33873433807325e-035 -1.0
  outer loop
    vertex 0.275 0.286 0.08
    vertex 0.267726216762093 2.18743530699559 0.08
    vertex 0.285475383762196 2.18714370918845 0.08
  endloop
endfacet
facet normal 1.89136944112406e-017 4.33873433807325e-035 -1.0
  outer loop
    vertex 0.275 0.286 0.08
    vertex 0.285475383762196 2.18714370918845 0.08
    vertex 0.292599695066971 0.283682956187657 0.08
  endloop
endfacet
facet normal 1.89136944112406e-017 4.33873433807325e-035 -1.0
  outer loop
    vertex 0.292599695066971 0.283682956187657 0.08
    vertex 0.285475383762196 2.18714370918845 0.08
    vertex 0.302695233628711 2.19145586978998 0.08
  endloop
endfacet
facet normal 1.89136944112406e-017 4.33873433807325e-035 -1.0
  outer loop
    vertex 0.292599695066971 0.283682956187657 0.08
    vertex 0.302695233628711 2.19145586978998 0.08
    vertex 0.309 0.276889727457342 0.08
  endloop
endfacet
facet normal 1.89136944112406e-017 4.33873433807325e-035 -1.0
  outer loop
    vertex 0.309 0.276889727457342 0.08
    vertex 0.302695233628711 2.19145586978998 0.08
    vertex 0.318212262050382 2.20007792218136 0.08
  endloop
endfacet
facet normal 1.89136944112406e-017 4.33873433807325e-035 -1.0
  outer loop
    vertex 0.309 0.276889727457342 0.08
    vertex 0.318212262050382 2.20007792218136 0.08
    vertex 0.323083261120685 0.266083261120685 0.08
  endloop
endfacet
facet normal 1.89136944112406e-017 4.33873433807325e-035 -1.0
  outer loop
    vertex 0.323083261120685 0.266083261120685 0.08
    vertex 0.318212262050382 2.20007792218136 0.08
    vertex 0.330969009183373 2.21242228774074 0.08
  endloop
endfacet
facet normal 1.89136944112406e-017 4.33873433807325e-035 -1.0
  outer loop
    vertex 0.323083261120685 0.266083261120685 0.08
    vertex 0.330969009183373 2.21242228774074 0.08
    vertex 0.333889727457342 0.252 0.08
  endloop
endfacet
facet normal 1.89136944112406e-017 4.33873433807325e-035 -1.0
  outer loop
    vertex 0.333889727457342 0.252 0.08
    vertex 0.330969009183373 2.21242228774074 0.08
    vertex 0.340096123792093 2.22764771835528 0.08
  endloop
endfacet
facet normal 1.89136944112406e-017 4.33873433807325e-035 -1.0
  outer loop
    vertex 0.333889727457342 0.252 0.08
    vertex 0.340096123792093 2.22764771835528 0.08
    vertex 0.340682956187657 0.235599695066972 0.08
  endloop
endfacet
facet normal 1.89136944112406e-017 4.33873433807325e-035 -1.0
  outer loop
    vertex 0.340682956187657 0.235599695066972 0.08
    vertex 0.340096123792093 2.22764771835528 0.08
    vertex 0.344971608099228 2.2447166260898 0.08
  endloop
endfacet
facet normal 1.89136944112406e-017 4.33873433807325e-035 -1.0
  outer loop
    vertex 0.340682956187657 0.235599695066972 0.08
    vertex 0.344971608099228 2.2447166260898 0.08
    vertex 0.343 0.218 0.08
  endloop
endfacet
facet normal 1.89136944112406e-017 4.33873433807325e-035 -1.0
  outer loop
    vertex 0.08 2.436 0.08
    vertex 0.210444897667882 2.26468069833272 0.08
    vertex 0.08 1.388 0.08
  endloop
endfacet
facet normal 1.89136944112406e-017 4.33873433807325e-035 -1.0
  outer loop
    vertex 0.210444897667882 2.26468069833272 0.08
    vertex 0.08 2.436 0.08
    vertex 0.215320381975016 2.28174960606724 0.08
  endloop
endfacet
facet normal 1.89136944112406e-017 4.33873433807325e-035 -1.0
  outer loop
    vertex 0.215320381975016 2.28174960606724 0.08
    vertex 0.08 2.436 0.08
    vertex 0.224447496583736 2.29697503668178 0.08
  endloop
endfacet
facet normal 1.89136944112406e-017 4.33873433807325e-035 -1.0
  outer loop
    vertex 0.224447496583736 2.29697503668178 0.08
    vertex 0.08 2.436 0.08
    vertex 0.237204243716728 2.30931940224116 0.08
  endloop
endfacet
facet normal 1.89136944112406e-017 4.33873433807325e-035 -1.0
  outer loop
    vertex 0.237204243716728 2.30931940224116 0.08
    vertex 0.08 2.436 0.08
    vertex 0.463 2.436 0.08
  endloop
endfacet
facet normal 1.89136944112406e-017 4.33873433807325e-035 -1.0
  outer loop
    vertex 0.08 1.388 0.08
    vertex 0.210444897667882 2.26468069833272 0.08
    vertex 0.08 1.048 0.08
  endloop
endfacet
facet normal 1.89136944112406e-017 4.33873433807325e-035 -1.0
  outer loop
    vertex 0.08 1.048 0.08
    vertex 0.210444897667882 2.26468069833272 0.08
    vertex 0.08 0.0 0.08
  endloop
endfacet
facet normal 1.89136944112406e-017 4.33873433807325e-035 -1.0
  outer loop
    vertex 0.08 0.0 0.08
    vertex 0.210444897667882 2.26468069833272 0.08
    vertex 0.210153299860745 2.24693153133262 0.08
  endloop
endfacet
facet normal 1.89136944112406e-017 4.33873433807325e-035 -1.0
  outer loop
    vertex 0.08 0.0 0.08
    vertex 0.210153299860745 2.24693153133262 0.08
    vertex 0.207 0.218 0.08
  endloop
endfacet
facet normal 1.89136944112406e-017 4.33873433807325e-035 -1.0
  outer loop
    vertex 0.207 0.218 0.08
    vertex 0.210153299860745 2.24693153133262 0.08
    vertex 0.209317043812343 0.235599695066971 0.08
  endloop
endfacet
facet normal 1.89136944112406e-017 4.33873433807325e-035 -1.0
  outer loop
    vertex 0.237204243716728 2.30931940224116 0.08
    vertex 0.463 2.436 0.08
    vertex 0.252721272138398 2.31794145463254 0.08
  endloop
endfacet
facet normal 1.89136944112406e-017 4.33873433807325e-035 -1.0
  outer loop
    vertex 0.252721272138398 2.31794145463254 0.08
    vertex 0.463 2.436 0.08
    vertex 0.269941122004913 2.32225361523407 0.08
  endloop
endfacet
facet normal 1.89136944112406e-017 4.33873433807325e-035 -1.0
  outer loop
    vertex 0.269941122004913 2.32225361523407 0.08
    vertex 0.463 2.436 0.08
    vertex 0.287690289005017 2.32196201742693 0.08
  endloop
endfacet
facet normal 1.89136944112406e-017 4.33873433807325e-035 -1.0
  outer loop
    vertex 0.287690289005017 2.32196201742693 0.08
    vertex 0.463 2.436 0.08
    vertex 0.304759196739538 2.3170865331198 0.08
  endloop
endfacet
facet normal 1.89136944112406e-017 4.33873433807325e-035 -1.0
  outer loop
    vertex 0.304759196739538 2.3170865331198 0.08
    vertex 0.463 2.436 0.08
    vertex 0.319984627354071 2.30795941851108 0.08
  endloop
endfacet
facet normal 1.89136944112406e-017 4.33873433807325e-035 -1.0
  outer loop
    vertex 0.319984627354071 2.30795941851108 0.08
    vertex 0.463 2.436 0.08
    vertex 0.332328992913452 2.29520267137809 0.08
  endloop
endfacet
facet normal 1.89136944112406e-017 4.33873433807325e-035 -1.0
  outer loop
    vertex 0.332328992913452 2.29520267137809 0.08
    vertex 0.463 2.436 0.08
    vertex 0.340951045304835 2.27968564295642 0.08
  endloop
endfacet
facet normal 1.89136944112406e-017 4.33873433807325e-035 -1.0
  outer loop
    vertex 0.340951045304835 2.27968564295642 0.08
    vertex 0.463 2.436 0.08
    vertex 0.345263205906365 2.2624657930899 0.08
  endloop
endfacet
facet normal 1.89136944112406e-017 4.33873433807325e-035 -1.0
  outer loop
    vertex 0.08 0.0 0.08
    vertex 0.241 0.159110272542658 0.08
    vertex 0.463 0.0 0.08
  endloop
endfacet
facet normal 1.89136944112406e-017 4.33873433807325e-035 -1.0
  outer loop
    vertex 0.241 0.159110272542658 0.08
    vertex 0.08 0.0 0.08
    vertex 0.226916738879315 0.169916738879315 0.08
  endloop
endfacet
facet normal 1.89136944112406e-017 4.33873433807325e-035 -1.0
  outer loop
    vertex 0.226916738879315 0.169916738879315 0.08
    vertex 0.08 0.0 0.08
    vertex 0.216110272542658 0.184 0.08
  endloop
endfacet
facet normal 1.89136944112406e-017 4.33873433807325e-035 -1.0
  outer loop
    vertex 0.216110272542658 0.184 0.08
    vertex 0.08 0.0 0.08
    vertex 0.209317043812343 0.200400304933029 0.08
  endloop
endfacet
facet normal 1.89136944112406e-017 4.33873433807325e-035 -1.0
  outer loop
    vertex 0.209317043812343 0.200400304933029 0.08
    vertex 0.08 0.0 0.08
    vertex 0.207 0.218 0.08
  endloop
endfacet
facet normal 1.89136944112406e-017 4.33873433807325e-035 -1.0
  outer loop
    vertex 0.463 0.0 0.08
    vertex 0.241 0.159110272542658 0.08
    vertex 0.257400304933029 0.152317043812343 0.08
  endloop
endfacet
facet normal 1.89136944112406e-017 4.33873433807325e-035 -1.0
  outer loop
    vertex 0.463 0.0 0.08
    vertex 0.257400304933029 0.152317043812343 0.08
    vertex 0.275 0.15 0.08
  endloop
endfacet
facet normal 1.89136944112406e-017 4.33873433807325e-035 -1.0
  outer loop
    vertex 0.463 0.0 0.08
    vertex 0.275 0.15 0.08
    vertex 0.292599695066971 0.152317043812343 0.08
  endloop
endfacet
facet normal 1.89136944112406e-017 4.33873433807325e-035 -1.0
  outer loop
    vertex 0.463 0.0 0.08
    vertex 0.292599695066971 0.152317043812343 0.08
    vertex 0.309 0.159110272542658 0.08
  endloop
endfacet
facet normal 1.89136944112406e-017 4.33873433807325e-035 -1.0
  outer loop
    vertex 0.463 0.0 0.08
    vertex 0.309 0.159110272542658 0.08
    vertex 0.323083261120685 0.169916738879315 0.08
  endloop
endfacet
facet normal 1.89136944112406e-017 4.33873433807325e-035 -1.0
  outer loop
    vertex 0.463 0.0 0.08
    vertex 0.323083261120685 0.169916738879315 0.08
    vertex 0.333889727457342 0.184 0.08
  endloop
endfacet
facet normal 1.89136944112406e-017 4.33873433807325e-035 -1.0
  outer loop
    vertex 0.463 0.0 0.08
    vertex 0.333889727457342 0.184 0.08
    vertex 0.340682956187657 0.200400304933029 0.08
  endloop
endfacet
facet normal 1.89136944112406e-017 4.33873433807325e-035 -1.0
  outer loop
    vertex 0.463 0.0 0.08
    vertex 0.340682956187657 0.200400304933029 0.08
    vertex 0.343 0.218 0.08
  endloop
endfacet
facet normal 1.89136944112406e-017 4.33873433807325e-035 -1.0
  outer loop
    vertex 0.463 0.0 0.08
    vertex 0.343 0.218 0.08
    vertex 0.344971608099228 2.2447166260898 0.08
  endloop
endfacet
facet normal 1.89136944112406e-017 4.33873433807325e-035 -1.0
  outer loop
    vertex 0.463 0.0 0.08
    vertex 0.344971608099228 2.2447166260898 0.08
    vertex 0.345263205906365 2.2624657930899 0.08
  endloop
endfacet
facet normal 1.89136944112406e-017 4.33873433807325e-035 -1.0
  outer loop
    vertex 0.463 0.0 0.08
    vertex 0.345263205906365 2.2624657930899 0.08
    vertex 0.463 2.436 0.08
  endloop
endfacet
facet normal 1.89136944112406e-017 4.33873433807325e-035 -1.0
  outer loop
    vertex 0.08 1.388 0.08
    vertex -0.27 1.048 0.08
    vertex -0.27 1.388 0.08
  endloop
endfacet
facet normal 1.89136944112406e-017 4.33873433807325e-035 -1.0
  outer loop
    vertex -0.27 1.048 0.08
    vertex 0.08 1.388 0.08
    vertex 0.08 1.048 0.08
  endloop
endfacet
endsolid CardHandle
