solid 12-10798
facet normal 0.0 0.0 -1.0
  outer loop
    vertex 2.2225 13.335 0.0
    vertex 0.0 11.1125 0.0
    vertex 0.0 13.335 0.0
  endloop
endfacet
facet normal 0.0 0.0 -1.0
  outer loop
    vertex 0.0 11.1125 0.0
    vertex 2.2225 13.335 0.0
    vertex 0.0 2.2225 0.0
  endloop
endfacet
facet normal 0.0 0.0 -1.0
  outer loop
    vertex 0.0 2.2225 0.0
    vertex 2.2225 13.335 0.0
    vertex 0.0 0.0 0.0
  endloop
endfacet
facet normal 0.0 0.0 -1.0
  outer loop
    vertex 0.0 0.0 0.0
    vertex 2.2225 13.335 0.0
    vertex 2.2225 0.0 0.0
  endloop
endfacet
facet normal 0.0 0.0 -1.0
  outer loop
    vertex 2.2225 0.0 0.0
    vertex 2.2225 13.335 0.0
    vertex 11.1125 13.335 0.0
  endloop
endfacet
facet normal 0.0 0.0 -1.0
  outer loop
    vertex 2.2225 0.0 0.0
    vertex 11.1125 13.335 0.0
    vertex 11.1125 0.0 0.0
  endloop
endfacet
facet normal 0.0 0.0 -1.0
  outer loop
    vertex 11.1125 0.0 0.0
    vertex 11.1125 13.335 0.0
    vertex 13.335 13.335 0.0
  endloop
endfacet
facet normal 0.0 0.0 -1.0
  outer loop
    vertex 11.1125 0.0 0.0
    vertex 13.335 13.335 0.0
    vertex 13.335 0.0 0.0
  endloop
endfacet
facet normal 0.0 0.0 -1.0
  outer loop
    vertex 13.335 0.0 0.0
    vertex 13.335 13.335 0.0
    vertex 13.335 11.1125 0.0
  endloop
endfacet
facet normal 0.0 0.0 -1.0
  outer loop
    vertex 13.335 0.0 0.0
    vertex 13.335 11.1125 0.0
    vertex 13.335 2.2225 0.0
  endloop
endfacet
facet normal -0.0 -0.0 1.0
  outer loop
    vertex 13.335 13.335 1.0668
    vertex 11.1125 13.335 1.0668
    vertex 13.335 11.1125 1.0668
  endloop
endfacet
facet normal 0.0 -1.0 0.0
  outer loop
    vertex 13.335 0.0 1.0668
    vertex 11.1125 0.0 0.0
    vertex 13.335 0.0 0.0
  endloop
endfacet
facet normal 0.0 -1.0 0.0
  outer loop
    vertex 11.1125 0.0 0.0
    vertex 13.335 0.0 1.0668
    vertex 11.1125 0.0 1.0668
  endloop
endfacet
facet normal -1.0 0.0 0.0
  outer loop
    vertex 0.0 2.2225 1.0668
    vertex 0.0 0.0 0.0
    vertex 0.0 0.0 1.0668
  endloop
endfacet
facet normal -1.0 0.0 0.0
  outer loop
    vertex 0.0 0.0 0.0
    vertex 0.0 2.2225 1.0668
    vertex 0.0 2.2225 0.0
  endloop
endfacet
facet normal -0.0 1.0 -0.0
  outer loop
    vertex 0.0 13.335 1.0668
    vertex 2.2225 13.335 0.0
    vertex 0.0 13.335 0.0
  endloop
endfacet
facet normal -0.0 1.0 -0.0
  outer loop
    vertex 2.2225 13.335 0.0
    vertex 0.0 13.335 1.0668
    vertex 2.2225 13.335 1.0668
  endloop
endfacet
facet normal 1.0 -0.0 -0.0
  outer loop
    vertex 13.335 13.335 0.0
    vertex 13.335 11.1125 1.0668
    vertex 13.335 11.1125 0.0
  endloop
endfacet
facet normal 1.0 -0.0 -0.0
  outer loop
    vertex 13.335 11.1125 1.0668
    vertex 13.335 13.335 0.0
    vertex 13.335 13.335 1.0668
  endloop
endfacet
facet normal -0.0 -0.0 1.0
  outer loop
    vertex 2.2225 0.0 1.0668
    vertex 0.0 2.2225 1.0668
    vertex 0.0 0.0 1.0668
  endloop
endfacet
facet normal -0.0 -0.0 1.0
  outer loop
    vertex 2.2225 13.335 1.0668
    vertex 0.0 13.335 1.0668
    vertex 0.0 11.1125 1.0668
  endloop
endfacet
facet normal -0.0 -0.0 1.0
  outer loop
    vertex 13.335 2.2225 1.0668
    vertex 11.1125 0.0 1.0668
    vertex 13.335 0.0 1.0668
  endloop
endfacet
facet normal 0.0 -1.0 0.0
  outer loop
    vertex 11.1125 0.0 1.0668
    vertex 2.2225 0.0 0.0
    vertex 11.1125 0.0 0.0
  endloop
endfacet
facet normal 0.0 -1.0 0.0
  outer loop
    vertex 2.2225 0.0 0.0
    vertex 11.1125 0.0 1.0668
    vertex 2.2225 0.0 1.0668
  endloop
endfacet
facet normal 0.0 -1.0 0.0
  outer loop
    vertex 2.2225 0.0 1.0668
    vertex 11.1125 0.0 1.0668
    vertex 11.1125 0.0 2.0955
  endloop
endfacet
facet normal 0.0 -1.0 0.0
  outer loop
    vertex 2.2225 0.0 1.0668
    vertex 11.1125 0.0 2.0955
    vertex 2.2225 0.0 2.0955
  endloop
endfacet
facet normal 0.0 -1.0 0.0
  outer loop
    vertex 2.2225 0.0 2.0955
    vertex 11.1125 0.0 2.0955
    vertex 6.6675 0.0 2.0955
  endloop
endfacet
facet normal 1.0 -0.0 -0.0
  outer loop
    vertex 13.335 2.2225 0.0
    vertex 13.335 0.0 1.0668
    vertex 13.335 0.0 0.0
  endloop
endfacet
facet normal 1.0 -0.0 -0.0
  outer loop
    vertex 13.335 0.0 1.0668
    vertex 13.335 2.2225 0.0
    vertex 13.335 2.2225 1.0668
  endloop
endfacet
facet normal 1.0 -0.0 -0.0
  outer loop
    vertex 13.335 2.2225 0.0
    vertex 13.335 2.2225 2.0955
    vertex 13.335 2.2225 1.0668
  endloop
endfacet
facet normal 1.0 -0.0 -0.0
  outer loop
    vertex 13.335 2.2225 2.0955
    vertex 13.335 2.2225 0.0
    vertex 13.335 11.1125 2.0955
  endloop
endfacet
facet normal 1.0 -0.0 -0.0
  outer loop
    vertex 13.335 11.1125 2.0955
    vertex 13.335 2.2225 0.0
    vertex 13.335 11.1125 0.0
  endloop
endfacet
facet normal 1.0 -0.0 -0.0
  outer loop
    vertex 13.335 11.1125 2.0955
    vertex 13.335 11.1125 0.0
    vertex 13.335 11.1125 1.0668
  endloop
endfacet
facet normal -0.0 1.0 -0.0
  outer loop
    vertex 11.1125 13.335 1.0668
    vertex 13.335 13.335 0.0
    vertex 11.1125 13.335 0.0
  endloop
endfacet
facet normal -0.0 1.0 -0.0
  outer loop
    vertex 13.335 13.335 0.0
    vertex 11.1125 13.335 1.0668
    vertex 13.335 13.335 1.0668
  endloop
endfacet
facet normal -0.0 1.0 -0.0
  outer loop
    vertex 2.2225 13.335 1.0668
    vertex 11.1125 13.335 0.0
    vertex 2.2225 13.335 0.0
  endloop
endfacet
facet normal -0.0 1.0 -0.0
  outer loop
    vertex 11.1125 13.335 0.0
    vertex 2.2225 13.335 1.0668
    vertex 11.1125 13.335 1.0668
  endloop
endfacet
facet normal -0.0 1.0 -0.0
  outer loop
    vertex 11.1125 13.335 1.0668
    vertex 2.2225 13.335 1.0668
    vertex 2.2225 13.335 2.0955
  endloop
endfacet
facet normal -0.0 1.0 -0.0
  outer loop
    vertex 11.1125 13.335 1.0668
    vertex 2.2225 13.335 2.0955
    vertex 11.1125 13.335 2.0955
  endloop
endfacet
facet normal -0.0 1.0 -0.0
  outer loop
    vertex 11.1125 13.335 2.0955
    vertex 2.2225 13.335 2.0955
    vertex 6.6675 13.335 2.0955
  endloop
endfacet
facet normal -1.0 0.0 0.0
  outer loop
    vertex 0.0 13.335 1.0668
    vertex 0.0 11.1125 0.0
    vertex 0.0 11.1125 1.0668
  endloop
endfacet
facet normal -1.0 0.0 0.0
  outer loop
    vertex 0.0 11.1125 0.0
    vertex 0.0 13.335 1.0668
    vertex 0.0 13.335 0.0
  endloop
endfacet
facet normal -1.0 0.0 0.0
  outer loop
    vertex 0.0 11.1125 2.0955
    vertex 0.0 2.2225 1.0668
    vertex 0.0 2.2225 2.0955
  endloop
endfacet
facet normal -1.0 0.0 0.0
  outer loop
    vertex 0.0 2.2225 1.0668
    vertex 0.0 11.1125 2.0955
    vertex 0.0 2.2225 0.0
  endloop
endfacet
facet normal -1.0 0.0 0.0
  outer loop
    vertex 0.0 2.2225 0.0
    vertex 0.0 11.1125 2.0955
    vertex 0.0 11.1125 0.0
  endloop
endfacet
facet normal -1.0 0.0 0.0
  outer loop
    vertex 0.0 11.1125 0.0
    vertex 0.0 11.1125 2.0955
    vertex 0.0 11.1125 1.0668
  endloop
endfacet
facet normal 0.0 -1.0 0.0
  outer loop
    vertex 2.2225 0.0 1.0668
    vertex 0.0 0.0 0.0
    vertex 2.2225 0.0 0.0
  endloop
endfacet
facet normal 0.0 -1.0 0.0
  outer loop
    vertex 0.0 0.0 0.0
    vertex 2.2225 0.0 1.0668
    vertex 0.0 0.0 1.0668
  endloop
endfacet
facet normal -0.0 -0.0 1.0
  outer loop
    vertex 11.1125 0.0 2.0955
    vertex 6.6675 1.27 2.0955
    vertex 6.6675 0.0 2.0955
  endloop
endfacet
facet normal -0.0 -0.0 1.0
  outer loop
    vertex 6.6675 1.27 2.0955
    vertex 11.1125 0.0 2.0955
    vertex 10.922 1.27 2.0955
  endloop
endfacet
facet normal -0.0 -0.0 1.0
  outer loop
    vertex 10.922 1.27 2.0955
    vertex 11.1125 0.0 2.0955
    vertex 12.065 1.27 2.0955
  endloop
endfacet
facet normal -0.0 -0.0 1.0
  outer loop
    vertex 12.065 1.27 2.0955
    vertex 11.1125 0.0 2.0955
    vertex 13.335 2.2225 2.0955
  endloop
endfacet
facet normal -0.0 -0.0 1.0
  outer loop
    vertex 12.065 1.27 2.0955
    vertex 13.335 2.2225 2.0955
    vertex 12.065 2.413 2.0955
  endloop
endfacet
facet normal -0.0 -0.0 1.0
  outer loop
    vertex 12.065 2.413 2.0955
    vertex 13.335 2.2225 2.0955
    vertex 12.065 10.922 2.0955
  endloop
endfacet
facet normal -0.0 -0.0 1.0
  outer loop
    vertex 12.065 10.922 2.0955
    vertex 13.335 2.2225 2.0955
    vertex 12.065 12.065 2.0955
  endloop
endfacet
facet normal -0.0 -0.0 1.0
  outer loop
    vertex 10.922 12.065 2.0955
    vertex 6.6675 13.335 2.0955
    vertex 6.6675 12.065 2.0955
  endloop
endfacet
facet normal -0.0 -0.0 1.0
  outer loop
    vertex 6.6675 13.335 2.0955
    vertex 10.922 12.065 2.0955
    vertex 11.1125 13.335 2.0955
  endloop
endfacet
facet normal -0.0 -0.0 1.0
  outer loop
    vertex 11.1125 13.335 2.0955
    vertex 10.922 12.065 2.0955
    vertex 12.065 12.065 2.0955
  endloop
endfacet
facet normal -0.0 -0.0 1.0
  outer loop
    vertex 11.1125 13.335 2.0955
    vertex 12.065 12.065 2.0955
    vertex 13.335 11.1125 2.0955
  endloop
endfacet
facet normal -0.0 -0.0 1.0
  outer loop
    vertex 13.335 11.1125 2.0955
    vertex 12.065 12.065 2.0955
    vertex 13.335 2.2225 2.0955
  endloop
endfacet
facet normal -0.707106781186548 0.707106781186547 0.0
  outer loop
    vertex 2.2225 13.335 2.0955
    vertex 0.0 11.1125 1.0668
    vertex 0.0 11.1125 2.0955
  endloop
endfacet
facet normal -0.707106781186548 0.707106781186547 0.0
  outer loop
    vertex 0.0 11.1125 1.0668
    vertex 2.2225 13.335 2.0955
    vertex 2.2225 13.335 1.0668
  endloop
endfacet
facet normal -0.707106781186548 -0.707106781186548 -0.0
  outer loop
    vertex 0.0 2.2225 2.0955
    vertex 2.2225 0.0 1.0668
    vertex 2.2225 0.0 2.0955
  endloop
endfacet
facet normal -0.707106781186548 -0.707106781186548 -0.0
  outer loop
    vertex 2.2225 0.0 1.0668
    vertex 0.0 2.2225 2.0955
    vertex 0.0 2.2225 1.0668
  endloop
endfacet
facet normal 0.707106781186547 -0.707106781186548 0.0
  outer loop
    vertex 13.335 2.2225 2.0955
    vertex 11.1125 0.0 1.0668
    vertex 13.335 2.2225 1.0668
  endloop
endfacet
facet normal 0.707106781186547 -0.707106781186548 0.0
  outer loop
    vertex 11.1125 0.0 1.0668
    vertex 13.335 2.2225 2.0955
    vertex 11.1125 0.0 2.0955
  endloop
endfacet
facet normal 0.707106781186548 0.707106781186548 0.0
  outer loop
    vertex 11.1125 13.335 1.0668
    vertex 13.335 11.1125 2.0955
    vertex 13.335 11.1125 1.0668
  endloop
endfacet
facet normal 0.707106781186548 0.707106781186548 0.0
  outer loop
    vertex 13.335 11.1125 2.0955
    vertex 11.1125 13.335 1.0668
    vertex 11.1125 13.335 2.0955
  endloop
endfacet
facet normal -0.0 -0.0 1.0
  outer loop
    vertex 6.6675 2.413 2.0955
    vertex 3.556 3.556 2.0955
    vertex 3.556 2.413 2.0955
  endloop
endfacet
facet normal -0.0 -0.0 1.0
  outer loop
    vertex 3.556 3.556 2.0955
    vertex 2.413 6.6675 2.0955
    vertex 2.413 3.556 2.0955
  endloop
endfacet
facet normal -0.0 -0.0 1.0
  outer loop
    vertex 2.413 6.6675 2.0955
    vertex 3.556 3.556 2.0955
    vertex 6.6675 6.6675 2.0955
  endloop
endfacet
facet normal -0.0 -0.0 1.0
  outer loop
    vertex 6.6675 6.6675 2.0955
    vertex 3.556 3.556 2.0955
    vertex 6.6675 2.413 2.0955
  endloop
endfacet
facet normal -0.0 -0.0 1.0
  outer loop
    vertex 0.0 2.2225 2.0955
    vertex 1.27 1.27 2.0955
    vertex 0.0 11.1125 2.0955
  endloop
endfacet
facet normal -0.0 -0.0 1.0
  outer loop
    vertex 1.27 1.27 2.0955
    vertex 0.0 2.2225 2.0955
    vertex 2.2225 0.0 2.0955
  endloop
endfacet
facet normal -0.0 -0.0 1.0
  outer loop
    vertex 1.27 1.27 2.0955
    vertex 2.2225 0.0 2.0955
    vertex 2.413 1.27 2.0955
  endloop
endfacet
facet normal -0.0 -0.0 1.0
  outer loop
    vertex 2.413 1.27 2.0955
    vertex 2.2225 0.0 2.0955
    vertex 6.6675 0.0 2.0955
  endloop
endfacet
facet normal -0.0 -0.0 1.0
  outer loop
    vertex 2.413 1.27 2.0955
    vertex 6.6675 0.0 2.0955
    vertex 6.6675 1.27 2.0955
  endloop
endfacet
facet normal -0.0 -0.0 1.0
  outer loop
    vertex 0.0 11.1125 2.0955
    vertex 1.27 12.065 2.0955
    vertex 2.2225 13.335 2.0955
  endloop
endfacet
facet normal -0.0 -0.0 1.0
  outer loop
    vertex 1.27 12.065 2.0955
    vertex 0.0 11.1125 2.0955
    vertex 1.27 1.27 2.0955
  endloop
endfacet
facet normal -0.0 -0.0 1.0
  outer loop
    vertex 1.27 12.065 2.0955
    vertex 1.27 1.27 2.0955
    vertex 1.27 2.413 2.0955
  endloop
endfacet
facet normal -0.0 -0.0 1.0
  outer loop
    vertex 1.27 12.065 2.0955
    vertex 1.27 2.413 2.0955
    vertex 1.27 10.922 2.0955
  endloop
endfacet
facet normal -0.0 -0.0 1.0
  outer loop
    vertex 2.2225 13.335 2.0955
    vertex 1.27 12.065 2.0955
    vertex 2.413 12.065 2.0955
  endloop
endfacet
facet normal -0.0 -0.0 1.0
  outer loop
    vertex 2.2225 13.335 2.0955
    vertex 2.413 12.065 2.0955
    vertex 6.6675 13.335 2.0955
  endloop
endfacet
facet normal -0.0 -0.0 1.0
  outer loop
    vertex 6.6675 13.335 2.0955
    vertex 2.413 12.065 2.0955
    vertex 6.6675 12.065 2.0955
  endloop
endfacet
facet normal -0.0 -0.0 1.0
  outer loop
    vertex 6.6675 6.6675 2.0955
    vertex 2.413 9.779 2.0955
    vertex 2.413 6.6675 2.0955
  endloop
endfacet
facet normal -0.0 -0.0 1.0
  outer loop
    vertex 2.413 9.779 2.0955
    vertex 6.6675 6.6675 2.0955
    vertex 3.556 9.779 2.0955
  endloop
endfacet
facet normal -0.0 -0.0 1.0
  outer loop
    vertex 3.556 9.779 2.0955
    vertex 6.6675 6.6675 2.0955
    vertex 3.556 10.922 2.0955
  endloop
endfacet
facet normal -0.0 -0.0 1.0
  outer loop
    vertex 3.556 10.922 2.0955
    vertex 6.6675 6.6675 2.0955
    vertex 6.6675 10.922 2.0955
  endloop
endfacet
facet normal -0.0 -0.0 1.0
  outer loop
    vertex 9.779 2.413 2.0955
    vertex 6.6675 6.6675 2.0955
    vertex 6.6675 2.413 2.0955
  endloop
endfacet
facet normal -0.0 -0.0 1.0
  outer loop
    vertex 6.6675 6.6675 2.0955
    vertex 9.779 2.413 2.0955
    vertex 9.779 3.556 2.0955
  endloop
endfacet
facet normal -0.0 -0.0 1.0
  outer loop
    vertex 6.6675 6.6675 2.0955
    vertex 9.779 3.556 2.0955
    vertex 10.922 6.6675 2.0955
  endloop
endfacet
facet normal -0.0 -0.0 1.0
  outer loop
    vertex 10.922 6.6675 2.0955
    vertex 9.779 3.556 2.0955
    vertex 10.922 3.556 2.0955
  endloop
endfacet
facet normal -0.0 -0.0 1.0
  outer loop
    vertex 10.922 6.6675 2.0955
    vertex 6.6675 10.922 2.0955
    vertex 6.6675 6.6675 2.0955
  endloop
endfacet
facet normal -0.0 -0.0 1.0
  outer loop
    vertex 6.6675 10.922 2.0955
    vertex 10.922 6.6675 2.0955
    vertex 9.779 9.779 2.0955
  endloop
endfacet
facet normal -0.0 -0.0 1.0
  outer loop
    vertex 9.779 9.779 2.0955
    vertex 10.922 6.6675 2.0955
    vertex 10.922 9.779 2.0955
  endloop
endfacet
facet normal -0.0 -0.0 1.0
  outer loop
    vertex 9.779 10.922 2.0955
    vertex 6.6675 10.922 2.0955
    vertex 9.779 9.779 2.0955
  endloop
endfacet
facet normal -0.0 -0.0 1.0
  outer loop
    vertex 12.065 1.27 2.0955
    vertex 11.2178301685522 1.30894678055159 2.0955
    vertex 10.922 1.27 2.0955
  endloop
endfacet
facet normal -0.0 -0.0 1.0
  outer loop
    vertex 11.2178301685522 1.30894678055159 2.0955
    vertex 12.065 1.27 2.0955
    vertex 11.4935 1.42313296347439 2.0955
  endloop
endfacet
facet normal -0.0 -0.0 1.0
  outer loop
    vertex 11.4935 1.42313296347439 2.0955
    vertex 12.065 1.27 2.0955
    vertex 11.7302230508962 1.60477694910378 2.0955
  endloop
endfacet
facet normal -0.0 -0.0 1.0
  outer loop
    vertex 11.7302230508962 1.60477694910378 2.0955
    vertex 12.065 1.27 2.0955
    vertex 11.9118670365256 1.8415 2.0955
  endloop
endfacet
facet normal -0.0 -0.0 1.0
  outer loop
    vertex 11.9118670365256 1.8415 2.0955
    vertex 12.065 1.27 2.0955
    vertex 12.0260532194484 2.11716983144782 2.0955
  endloop
endfacet
facet normal -0.0 -0.0 1.0
  outer loop
    vertex 12.0260532194484 2.11716983144782 2.0955
    vertex 12.065 1.27 2.0955
    vertex 12.065 2.413 2.0955
  endloop
endfacet
facet normal -0.0 -0.0 1.0
  outer loop
    vertex 11.2178301685522 12.0260532194484 2.0955
    vertex 12.065 12.065 2.0955
    vertex 10.922 12.065 2.0955
  endloop
endfacet
facet normal -0.0 -0.0 1.0
  outer loop
    vertex 12.065 12.065 2.0955
    vertex 11.2178301685522 12.0260532194484 2.0955
    vertex 11.4935 11.9118670365256 2.0955
  endloop
endfacet
facet normal -0.0 -0.0 1.0
  outer loop
    vertex 12.065 12.065 2.0955
    vertex 11.4935 11.9118670365256 2.0955
    vertex 11.7302230508962 11.7302230508962 2.0955
  endloop
endfacet
facet normal -0.0 -0.0 1.0
  outer loop
    vertex 12.065 12.065 2.0955
    vertex 11.7302230508962 11.7302230508962 2.0955
    vertex 11.9118670365256 11.4935 2.0955
  endloop
endfacet
facet normal -0.0 -0.0 1.0
  outer loop
    vertex 12.065 12.065 2.0955
    vertex 11.9118670365256 11.4935 2.0955
    vertex 12.0260532194484 11.2178301685522 2.0955
  endloop
endfacet
facet normal -0.0 -0.0 1.0
  outer loop
    vertex 12.065 12.065 2.0955
    vertex 12.0260532194484 11.2178301685522 2.0955
    vertex 12.065 10.922 2.0955
  endloop
endfacet
facet normal -0.0 -0.0 1.0
  outer loop
    vertex 10.0748301685522 2.45194678055159 2.0955
    vertex 9.779 3.556 2.0955
    vertex 9.779 2.413 2.0955
  endloop
endfacet
facet normal -0.0 -0.0 1.0
  outer loop
    vertex 9.779 3.556 2.0955
    vertex 10.0748301685522 2.45194678055159 2.0955
    vertex 10.922 3.556 2.0955
  endloop
endfacet
facet normal -0.0 -0.0 1.0
  outer loop
    vertex 10.922 3.556 2.0955
    vertex 10.0748301685522 2.45194678055159 2.0955
    vertex 10.3505 2.56613296347439 2.0955
  endloop
endfacet
facet normal -0.0 -0.0 1.0
  outer loop
    vertex 10.922 3.556 2.0955
    vertex 10.3505 2.56613296347439 2.0955
    vertex 10.5872230508962 2.74777694910378 2.0955
  endloop
endfacet
facet normal -0.0 -0.0 1.0
  outer loop
    vertex 10.922 3.556 2.0955
    vertex 10.5872230508962 2.74777694910378 2.0955
    vertex 10.7688670365256 2.9845 2.0955
  endloop
endfacet
facet normal -0.0 -0.0 1.0
  outer loop
    vertex 10.922 3.556 2.0955
    vertex 10.7688670365256 2.9845 2.0955
    vertex 10.8830532194484 3.26016983144782 2.0955
  endloop
endfacet
facet normal -0.0 -0.0 1.0
  outer loop
    vertex 10.922 9.779 2.0955
    vertex 9.779 10.922 2.0955
    vertex 9.779 9.779 2.0955
  endloop
endfacet
facet normal -0.0 -0.0 1.0
  outer loop
    vertex 9.779 10.922 2.0955
    vertex 10.922 9.779 2.0955
    vertex 10.0748301685522 10.8830532194484 2.0955
  endloop
endfacet
facet normal -0.0 -0.0 1.0
  outer loop
    vertex 10.0748301685522 10.8830532194484 2.0955
    vertex 10.922 9.779 2.0955
    vertex 10.3505 10.7688670365256 2.0955
  endloop
endfacet
facet normal -0.0 -0.0 1.0
  outer loop
    vertex 10.3505 10.7688670365256 2.0955
    vertex 10.922 9.779 2.0955
    vertex 10.5872230508962 10.5872230508962 2.0955
  endloop
endfacet
facet normal -0.0 -0.0 1.0
  outer loop
    vertex 10.5872230508962 10.5872230508962 2.0955
    vertex 10.922 9.779 2.0955
    vertex 10.7688670365256 10.3505 2.0955
  endloop
endfacet
facet normal -0.0 -0.0 1.0
  outer loop
    vertex 10.7688670365256 10.3505 2.0955
    vertex 10.922 9.779 2.0955
    vertex 10.8830532194484 10.0748301685522 2.0955
  endloop
endfacet
facet normal -0.0 -0.0 1.0
  outer loop
    vertex 1.3089467805516 11.2178301685522 2.0955
    vertex 1.27 12.065 2.0955
    vertex 1.27 10.922 2.0955
  endloop
endfacet
facet normal -0.0 -0.0 1.0
  outer loop
    vertex 1.27 12.065 2.0955
    vertex 1.3089467805516 11.2178301685522 2.0955
    vertex 1.42313296347439 11.4935 2.0955
  endloop
endfacet
facet normal -0.0 -0.0 1.0
  outer loop
    vertex 1.27 12.065 2.0955
    vertex 1.42313296347439 11.4935 2.0955
    vertex 1.60477694910378 11.7302230508962 2.0955
  endloop
endfacet
facet normal -0.0 -0.0 1.0
  outer loop
    vertex 1.27 12.065 2.0955
    vertex 1.60477694910378 11.7302230508962 2.0955
    vertex 1.8415 11.9118670365256 2.0955
  endloop
endfacet
facet normal -0.0 -0.0 1.0
  outer loop
    vertex 1.27 12.065 2.0955
    vertex 1.8415 11.9118670365256 2.0955
    vertex 2.11716983144782 12.0260532194484 2.0955
  endloop
endfacet
facet normal -0.0 -0.0 1.0
  outer loop
    vertex 1.27 12.065 2.0955
    vertex 2.11716983144782 12.0260532194484 2.0955
    vertex 2.413 12.065 2.0955
  endloop
endfacet
facet normal -0.0 -0.0 1.0
  outer loop
    vertex 3.556 9.779 2.0955
    vertex 2.4519467805516 10.0748301685522 2.0955
    vertex 2.413 9.779 2.0955
  endloop
endfacet
facet normal -0.0 -0.0 1.0
  outer loop
    vertex 2.4519467805516 10.0748301685522 2.0955
    vertex 3.556 9.779 2.0955
    vertex 2.56613296347439 10.3505 2.0955
  endloop
endfacet
facet normal -0.0 -0.0 1.0
  outer loop
    vertex 2.56613296347439 10.3505 2.0955
    vertex 3.556 9.779 2.0955
    vertex 2.74777694910378 10.5872230508962 2.0955
  endloop
endfacet
facet normal -0.0 -0.0 1.0
  outer loop
    vertex 2.74777694910378 10.5872230508962 2.0955
    vertex 3.556 9.779 2.0955
    vertex 2.9845 10.7688670365256 2.0955
  endloop
endfacet
facet normal -0.0 -0.0 1.0
  outer loop
    vertex 2.9845 10.7688670365256 2.0955
    vertex 3.556 9.779 2.0955
    vertex 3.26016983144782 10.8830532194484 2.0955
  endloop
endfacet
facet normal -0.0 -0.0 1.0
  outer loop
    vertex 3.26016983144782 10.8830532194484 2.0955
    vertex 3.556 9.779 2.0955
    vertex 3.556 10.922 2.0955
  endloop
endfacet
facet normal -0.0 -0.0 1.0
  outer loop
    vertex 2.4519467805516 3.26016983144782 2.0955
    vertex 3.556 3.556 2.0955
    vertex 2.413 3.556 2.0955
  endloop
endfacet
facet normal -0.0 -0.0 1.0
  outer loop
    vertex 3.556 3.556 2.0955
    vertex 2.4519467805516 3.26016983144782 2.0955
    vertex 2.56613296347439 2.9845 2.0955
  endloop
endfacet
facet normal -0.0 -0.0 1.0
  outer loop
    vertex 3.556 3.556 2.0955
    vertex 2.56613296347439 2.9845 2.0955
    vertex 2.74777694910378 2.74777694910378 2.0955
  endloop
endfacet
facet normal -0.0 -0.0 1.0
  outer loop
    vertex 3.556 3.556 2.0955
    vertex 2.74777694910378 2.74777694910378 2.0955
    vertex 2.9845 2.56613296347438 2.0955
  endloop
endfacet
facet normal -0.0 -0.0 1.0
  outer loop
    vertex 3.556 3.556 2.0955
    vertex 2.9845 2.56613296347438 2.0955
    vertex 3.26016983144782 2.45194678055159 2.0955
  endloop
endfacet
facet normal -0.0 -0.0 1.0
  outer loop
    vertex 3.556 3.556 2.0955
    vertex 3.26016983144782 2.45194678055159 2.0955
    vertex 3.556 2.413 2.0955
  endloop
endfacet
facet normal -0.0 -0.0 1.0
  outer loop
    vertex 1.27 1.27 2.0955
    vertex 1.3089467805516 2.11716983144782 2.0955
    vertex 1.27 2.413 2.0955
  endloop
endfacet
facet normal -0.0 -0.0 1.0
  outer loop
    vertex 1.3089467805516 2.11716983144782 2.0955
    vertex 1.27 1.27 2.0955
    vertex 1.42313296347439 1.8415 2.0955
  endloop
endfacet
facet normal -0.0 -0.0 1.0
  outer loop
    vertex 1.42313296347439 1.8415 2.0955
    vertex 1.27 1.27 2.0955
    vertex 1.60477694910378 1.60477694910377 2.0955
  endloop
endfacet
facet normal -0.0 -0.0 1.0
  outer loop
    vertex 1.60477694910378 1.60477694910377 2.0955
    vertex 1.27 1.27 2.0955
    vertex 1.8415 1.42313296347439 2.0955
  endloop
endfacet
facet normal -0.0 -0.0 1.0
  outer loop
    vertex 1.8415 1.42313296347439 2.0955
    vertex 1.27 1.27 2.0955
    vertex 2.11716983144782 1.30894678055159 2.0955
  endloop
endfacet
facet normal -0.0 -0.0 1.0
  outer loop
    vertex 2.11716983144782 1.30894678055159 2.0955
    vertex 1.27 1.27 2.0955
    vertex 2.413 1.27 2.0955
  endloop
endfacet
facet normal 2.00010117808944e-032 -2.31811931355876e-032 1.0
  outer loop
    vertex 2.413 1.27 22.86
    vertex 2.4519467805516 3.26016983144782 22.86
    vertex 2.413 3.556 22.86
  endloop
endfacet
facet normal 2.00010117808944e-032 -2.31811931355876e-032 1.0
  outer loop
    vertex 2.4519467805516 3.26016983144782 22.86
    vertex 2.413 1.27 22.86
    vertex 2.56613296347439 2.9845 22.86
  endloop
endfacet
facet normal 2.00010117808944e-032 -2.31811931355876e-032 1.0
  outer loop
    vertex 2.56613296347439 2.9845 22.86
    vertex 2.413 1.27 22.86
    vertex 2.74777694910378 2.74777694910378 22.86
  endloop
endfacet
facet normal 2.00010117808944e-032 -2.31811931355876e-032 1.0
  outer loop
    vertex 2.74777694910378 2.74777694910378 22.86
    vertex 2.413 1.27 22.86
    vertex 2.9845 2.56613296347438 22.86
  endloop
endfacet
facet normal 2.00010117808944e-032 -2.31811931355876e-032 1.0
  outer loop
    vertex 2.9845 2.56613296347438 22.86
    vertex 2.413 1.27 22.86
    vertex 3.26016983144782 2.45194678055159 22.86
  endloop
endfacet
facet normal 2.00010117808944e-032 -2.31811931355876e-032 1.0
  outer loop
    vertex 3.26016983144782 2.45194678055159 22.86
    vertex 2.413 1.27 22.86
    vertex 6.6675 1.27 22.86
  endloop
endfacet
facet normal 2.00010117808944e-032 -2.31811931355876e-032 1.0
  outer loop
    vertex 3.26016983144782 2.45194678055159 22.86
    vertex 6.6675 1.27 22.86
    vertex 3.556 2.413 22.86
  endloop
endfacet
facet normal 2.00010117808944e-032 -2.31811931355876e-032 1.0
  outer loop
    vertex 3.556 2.413 22.86
    vertex 6.6675 1.27 22.86
    vertex 6.6675 2.413 22.86
  endloop
endfacet
facet normal 2.00010117808944e-032 -2.31811931355876e-032 1.0
  outer loop
    vertex 6.6675 2.413 22.86
    vertex 6.6675 1.27 22.86
    vertex 10.922 1.27 22.86
  endloop
endfacet
facet normal 2.00010117808944e-032 -2.31811931355876e-032 1.0
  outer loop
    vertex 6.6675 2.413 22.86
    vertex 10.922 1.27 22.86
    vertex 9.779 2.413 22.86
  endloop
endfacet
facet normal 2.00010117808944e-032 -2.31811931355876e-032 1.0
  outer loop
    vertex 9.779 2.413 22.86
    vertex 10.922 1.27 22.86
    vertex 10.0748301685522 2.45194678055159 22.86
  endloop
endfacet
facet normal 2.00010117808944e-032 -2.31811931355876e-032 1.0
  outer loop
    vertex 10.0748301685522 2.45194678055159 22.86
    vertex 10.922 1.27 22.86
    vertex 10.3505 2.56613296347439 22.86
  endloop
endfacet
facet normal 2.00010117808944e-032 -2.31811931355876e-032 1.0
  outer loop
    vertex 10.3505 2.56613296347439 22.86
    vertex 10.922 1.27 22.86
    vertex 10.5872230508962 2.74777694910378 22.86
  endloop
endfacet
facet normal 2.00010117808944e-032 -2.31811931355876e-032 1.0
  outer loop
    vertex 10.5872230508962 2.74777694910378 22.86
    vertex 10.922 1.27 22.86
    vertex 10.7688670365256 2.9845 22.86
  endloop
endfacet
facet normal 2.00010117808944e-032 -2.31811931355876e-032 1.0
  outer loop
    vertex 10.7688670365256 2.9845 22.86
    vertex 10.922 1.27 22.86
    vertex 10.8830532194484 3.26016983144782 22.86
  endloop
endfacet
facet normal 2.00010117808944e-032 -2.31811931355876e-032 1.0
  outer loop
    vertex 10.8830532194484 3.26016983144782 22.86
    vertex 10.922 1.27 22.86
    vertex 10.922 3.556 22.86
  endloop
endfacet
facet normal 2.00010117808944e-032 -2.31811931355876e-032 1.0
  outer loop
    vertex 10.922 3.556 22.86
    vertex 10.922 1.27 22.86
    vertex 11.2178301685522 1.30894678055159 22.86
  endloop
endfacet
facet normal 2.00010117808944e-032 -2.31811931355876e-032 1.0
  outer loop
    vertex 10.922 3.556 22.86
    vertex 11.2178301685522 1.30894678055159 22.86
    vertex 10.922 6.6675 22.86
  endloop
endfacet
facet normal 2.00010117808944e-032 -2.31811931355876e-032 1.0
  outer loop
    vertex 10.922 6.6675 22.86
    vertex 11.2178301685522 1.30894678055159 22.86
    vertex 10.922 9.779 22.86
  endloop
endfacet
facet normal 2.00010117808944e-032 -2.31811931355876e-032 1.0
  outer loop
    vertex 10.922 9.779 22.86
    vertex 11.2178301685522 1.30894678055159 22.86
    vertex 10.922 12.065 22.86
  endloop
endfacet
facet normal 2.00010117808944e-032 -2.31811931355876e-032 1.0
  outer loop
    vertex 10.922 12.065 22.86
    vertex 11.2178301685522 1.30894678055159 22.86
    vertex 11.2178301685522 12.0260532194484 22.86
  endloop
endfacet
facet normal 2.00010117808944e-032 -2.31811931355876e-032 1.0
  outer loop
    vertex 11.2178301685522 12.0260532194484 22.86
    vertex 11.2178301685522 1.30894678055159 22.86
    vertex 11.4935 1.42313296347439 22.86
  endloop
endfacet
facet normal 2.00010117808944e-032 -2.31811931355876e-032 1.0
  outer loop
    vertex 11.2178301685522 12.0260532194484 22.86
    vertex 11.4935 1.42313296347439 22.86
    vertex 11.4935 11.9118670365256 22.86
  endloop
endfacet
facet normal 2.00010117808944e-032 -2.31811931355876e-032 1.0
  outer loop
    vertex 11.4935 11.9118670365256 22.86
    vertex 11.4935 1.42313296347439 22.86
    vertex 11.7302230508962 11.7302230508962 22.86
  endloop
endfacet
facet normal 2.00010117808944e-032 -2.31811931355876e-032 1.0
  outer loop
    vertex 11.7302230508962 11.7302230508962 22.86
    vertex 11.4935 1.42313296347439 22.86
    vertex 11.7302230508962 1.60477694910378 22.86
  endloop
endfacet
facet normal 2.00010117808944e-032 -2.31811931355876e-032 1.0
  outer loop
    vertex 11.7302230508962 11.7302230508962 22.86
    vertex 11.7302230508962 1.60477694910378 22.86
    vertex 11.9118670365256 1.8415 22.86
  endloop
endfacet
facet normal 2.00010117808944e-032 -2.31811931355876e-032 1.0
  outer loop
    vertex 11.7302230508962 11.7302230508962 22.86
    vertex 11.9118670365256 1.8415 22.86
    vertex 11.9118670365256 11.4935 22.86
  endloop
endfacet
facet normal 2.00010117808944e-032 -2.31811931355876e-032 1.0
  outer loop
    vertex 11.9118670365256 11.4935 22.86
    vertex 11.9118670365256 1.8415 22.86
    vertex 12.0260532194484 2.11716983144782 22.86
  endloop
endfacet
facet normal 2.00010117808944e-032 -2.31811931355876e-032 1.0
  outer loop
    vertex 11.9118670365256 11.4935 22.86
    vertex 12.0260532194484 2.11716983144782 22.86
    vertex 12.0260532194484 11.2178301685522 22.86
  endloop
endfacet
facet normal 2.00010117808944e-032 -2.31811931355876e-032 1.0
  outer loop
    vertex 12.0260532194484 11.2178301685522 22.86
    vertex 12.0260532194484 2.11716983144782 22.86
    vertex 12.065 2.413 22.86
  endloop
endfacet
facet normal 2.00010117808944e-032 -2.31811931355876e-032 1.0
  outer loop
    vertex 12.0260532194484 11.2178301685522 22.86
    vertex 12.065 2.413 22.86
    vertex 12.065 10.922 22.86
  endloop
endfacet
facet normal 2.00010117808944e-032 -2.31811931355876e-032 1.0
  outer loop
    vertex 1.3089467805516 2.11716983144782 22.86
    vertex 1.27 10.922 22.86
    vertex 1.27 2.413 22.86
  endloop
endfacet
facet normal 2.00010117808944e-032 -2.31811931355876e-032 1.0
  outer loop
    vertex 1.27 10.922 22.86
    vertex 1.3089467805516 2.11716983144782 22.86
    vertex 1.3089467805516 11.2178301685522 22.86
  endloop
endfacet
facet normal 2.00010117808944e-032 -2.31811931355876e-032 1.0
  outer loop
    vertex 1.3089467805516 11.2178301685522 22.86
    vertex 1.3089467805516 2.11716983144782 22.86
    vertex 1.42313296347439 11.4935 22.86
  endloop
endfacet
facet normal 2.00010117808944e-032 -2.31811931355876e-032 1.0
  outer loop
    vertex 1.42313296347439 11.4935 22.86
    vertex 1.3089467805516 2.11716983144782 22.86
    vertex 1.42313296347439 1.8415 22.86
  endloop
endfacet
facet normal 2.00010117808944e-032 -2.31811931355876e-032 1.0
  outer loop
    vertex 1.42313296347439 11.4935 22.86
    vertex 1.42313296347439 1.8415 22.86
    vertex 1.60477694910378 11.7302230508962 22.86
  endloop
endfacet
facet normal 2.00010117808944e-032 -2.31811931355876e-032 1.0
  outer loop
    vertex 1.60477694910378 11.7302230508962 22.86
    vertex 1.42313296347439 1.8415 22.86
    vertex 1.60477694910378 1.60477694910377 22.86
  endloop
endfacet
facet normal 2.00010117808944e-032 -2.31811931355876e-032 1.0
  outer loop
    vertex 1.60477694910378 11.7302230508962 22.86
    vertex 1.60477694910378 1.60477694910377 22.86
    vertex 1.8415 11.9118670365256 22.86
  endloop
endfacet
facet normal 2.00010117808944e-032 -2.31811931355876e-032 1.0
  outer loop
    vertex 1.8415 11.9118670365256 22.86
    vertex 1.60477694910378 1.60477694910377 22.86
    vertex 1.8415 1.42313296347439 22.86
  endloop
endfacet
facet normal 2.00010117808944e-032 -2.31811931355876e-032 1.0
  outer loop
    vertex 1.8415 11.9118670365256 22.86
    vertex 1.8415 1.42313296347439 22.86
    vertex 2.11716983144782 12.0260532194484 22.86
  endloop
endfacet
facet normal 2.00010117808944e-032 -2.31811931355876e-032 1.0
  outer loop
    vertex 2.11716983144782 12.0260532194484 22.86
    vertex 1.8415 1.42313296347439 22.86
    vertex 2.11716983144782 1.30894678055159 22.86
  endloop
endfacet
facet normal 2.00010117808944e-032 -2.31811931355876e-032 1.0
  outer loop
    vertex 2.11716983144782 12.0260532194484 22.86
    vertex 2.11716983144782 1.30894678055159 22.86
    vertex 2.413 12.065 22.86
  endloop
endfacet
facet normal 2.00010117808944e-032 -2.31811931355876e-032 1.0
  outer loop
    vertex 2.413 12.065 22.86
    vertex 2.11716983144782 1.30894678055159 22.86
    vertex 2.413 6.6675 22.86
  endloop
endfacet
facet normal 2.00010117808944e-032 -2.31811931355876e-032 1.0
  outer loop
    vertex 2.413 6.6675 22.86
    vertex 2.11716983144782 1.30894678055159 22.86
    vertex 2.413 1.27 22.86
  endloop
endfacet
facet normal 2.00010117808944e-032 -2.31811931355876e-032 1.0
  outer loop
    vertex 2.413 6.6675 22.86
    vertex 2.413 1.27 22.86
    vertex 2.413 3.556 22.86
  endloop
endfacet
facet normal 2.00010117808944e-032 -2.31811931355876e-032 1.0
  outer loop
    vertex 2.413 12.065 22.86
    vertex 2.413 6.6675 22.86
    vertex 2.413 9.779 22.86
  endloop
endfacet
facet normal 2.00010117808944e-032 -2.31811931355876e-032 1.0
  outer loop
    vertex 2.413 12.065 22.86
    vertex 2.413 9.779 22.86
    vertex 2.4519467805516 10.0748301685522 22.86
  endloop
endfacet
facet normal 2.00010117808944e-032 -2.31811931355876e-032 1.0
  outer loop
    vertex 2.413 12.065 22.86
    vertex 2.4519467805516 10.0748301685522 22.86
    vertex 2.56613296347439 10.3505 22.86
  endloop
endfacet
facet normal 2.00010117808944e-032 -2.31811931355876e-032 1.0
  outer loop
    vertex 2.413 12.065 22.86
    vertex 2.56613296347439 10.3505 22.86
    vertex 2.74777694910378 10.5872230508962 22.86
  endloop
endfacet
facet normal 2.00010117808944e-032 -2.31811931355876e-032 1.0
  outer loop
    vertex 2.413 12.065 22.86
    vertex 2.74777694910378 10.5872230508962 22.86
    vertex 2.9845 10.7688670365256 22.86
  endloop
endfacet
facet normal 2.00010117808944e-032 -2.31811931355876e-032 1.0
  outer loop
    vertex 2.413 12.065 22.86
    vertex 2.9845 10.7688670365256 22.86
    vertex 3.26016983144782 10.8830532194484 22.86
  endloop
endfacet
facet normal 2.00010117808944e-032 -2.31811931355876e-032 1.0
  outer loop
    vertex 2.413 12.065 22.86
    vertex 3.26016983144782 10.8830532194484 22.86
    vertex 6.6675 12.065 22.86
  endloop
endfacet
facet normal 2.00010117808944e-032 -2.31811931355876e-032 1.0
  outer loop
    vertex 6.6675 12.065 22.86
    vertex 3.26016983144782 10.8830532194484 22.86
    vertex 3.556 10.922 22.86
  endloop
endfacet
facet normal 2.00010117808944e-032 -2.31811931355876e-032 1.0
  outer loop
    vertex 6.6675 12.065 22.86
    vertex 3.556 10.922 22.86
    vertex 6.6675 10.922 22.86
  endloop
endfacet
facet normal 2.00010117808944e-032 -2.31811931355876e-032 1.0
  outer loop
    vertex 6.6675 12.065 22.86
    vertex 6.6675 10.922 22.86
    vertex 9.779 10.922 22.86
  endloop
endfacet
facet normal 2.00010117808944e-032 -2.31811931355876e-032 1.0
  outer loop
    vertex 6.6675 12.065 22.86
    vertex 9.779 10.922 22.86
    vertex 10.922 12.065 22.86
  endloop
endfacet
facet normal 2.00010117808944e-032 -2.31811931355876e-032 1.0
  outer loop
    vertex 10.922 12.065 22.86
    vertex 9.779 10.922 22.86
    vertex 10.0748301685522 10.8830532194484 22.86
  endloop
endfacet
facet normal 2.00010117808944e-032 -2.31811931355876e-032 1.0
  outer loop
    vertex 10.922 12.065 22.86
    vertex 10.0748301685522 10.8830532194484 22.86
    vertex 10.3505 10.7688670365256 22.86
  endloop
endfacet
facet normal 2.00010117808944e-032 -2.31811931355876e-032 1.0
  outer loop
    vertex 10.922 12.065 22.86
    vertex 10.3505 10.7688670365256 22.86
    vertex 10.5872230508962 10.5872230508962 22.86
  endloop
endfacet
facet normal 2.00010117808944e-032 -2.31811931355876e-032 1.0
  outer loop
    vertex 10.922 12.065 22.86
    vertex 10.5872230508962 10.5872230508962 22.86
    vertex 10.7688670365256 10.3505 22.86
  endloop
endfacet
facet normal 2.00010117808944e-032 -2.31811931355876e-032 1.0
  outer loop
    vertex 10.922 12.065 22.86
    vertex 10.7688670365256 10.3505 22.86
    vertex 10.8830532194484 10.0748301685522 22.86
  endloop
endfacet
facet normal 2.00010117808944e-032 -2.31811931355876e-032 1.0
  outer loop
    vertex 10.922 12.065 22.86
    vertex 10.8830532194484 10.0748301685522 22.86
    vertex 10.922 9.779 22.86
  endloop
endfacet
facet normal 0.0 -1.0 0.0
  outer loop
    vertex 6.6675 1.27 8.636
    vertex 2.413 1.27 2.0955
    vertex 6.6675 1.27 2.0955
  endloop
endfacet
facet normal 0.0 -1.0 0.0
  outer loop
    vertex 2.413 1.27 2.0955
    vertex 6.6675 1.27 8.636
    vertex 2.413 1.27 8.636
  endloop
endfacet
facet normal 0.0 -1.0 0.0
  outer loop
    vertex 10.922 1.27 22.86
    vertex 6.6675 1.27 8.636
    vertex 10.922 1.27 8.636
  endloop
endfacet
facet normal 0.0 -1.0 0.0
  outer loop
    vertex 6.6675 1.27 8.636
    vertex 10.922 1.27 22.86
    vertex 6.6675 1.27 22.86
  endloop
endfacet
facet normal 0.258819045102522 -0.965925826289068 -2.75679559040743e-032
  outer loop
    vertex 11.2178301685522 1.30894678055159 22.86
    vertex 10.922 1.27 2.0955
    vertex 11.2178301685522 1.30894678055159 2.0955
  endloop
endfacet
facet normal 0.130526192220055 -0.99144486137381 -2.55935307231008e-032
  outer loop
    vertex 10.922 1.27 2.0955
    vertex 11.2178301685522 1.30894678055159 22.86
    vertex 10.922 1.27 8.636
  endloop
endfacet
facet normal 0.130526192220055 -0.99144486137381 -2.55935307231008e-032
  outer loop
    vertex 10.922 1.27 8.636
    vertex 11.2178301685522 1.30894678055159 22.86
    vertex 10.922 1.27 22.86
  endloop
endfacet
facet normal 0.500000000000001 -0.866025403784438 -3.00760080358995e-032
  outer loop
    vertex 11.4935 1.42313296347439 22.86
    vertex 11.2178301685522 1.30894678055159 2.0955
    vertex 11.4935 1.42313296347439 2.0955
  endloop
endfacet
facet normal 0.258819045102522 -0.965925826289068 -2.75679559040743e-032
  outer loop
    vertex 11.2178301685522 1.30894678055159 2.0955
    vertex 11.4935 1.42313296347439 22.86
    vertex 11.2178301685522 1.30894678055159 22.86
  endloop
endfacet
facet normal 0.707106781186549 -0.707106781186547 -3.05344299230315e-032
  outer loop
    vertex 11.7302230508962 1.60477694910378 22.86
    vertex 11.4935 1.42313296347439 2.0955
    vertex 11.7302230508962 1.60477694910378 2.0955
  endloop
endfacet
facet normal 0.500000000000001 -0.866025403784438 -3.00760080358995e-032
  outer loop
    vertex 11.4935 1.42313296347439 2.0955
    vertex 11.7302230508962 1.60477694910378 22.86
    vertex 11.4935 1.42313296347439 22.86
  endloop
endfacet
facet normal 0.866025403784439 -0.5 -2.89119808714402e-032
  outer loop
    vertex 11.9118670365256 1.8415 2.0955
    vertex 11.7302230508962 1.60477694910378 22.86
    vertex 11.7302230508962 1.60477694910378 2.0955
  endloop
endfacet
facet normal 0.707106781186549 -0.707106781186547 -3.05344299230315e-032
  outer loop
    vertex 11.7302230508962 1.60477694910378 22.86
    vertex 11.9118670365256 1.8415 2.0955
    vertex 11.9118670365256 1.8415 22.86
  endloop
endfacet
facet normal 0.965925826289068 -0.258819045102522 -2.53192281027677e-032
  outer loop
    vertex 12.0260532194484 2.11716983144782 2.0955
    vertex 11.9118670365256 1.8415 22.86
    vertex 11.9118670365256 1.8415 2.0955
  endloop
endfacet
facet normal 0.866025403784439 -0.5 -2.89119808714402e-032
  outer loop
    vertex 11.9118670365256 1.8415 22.86
    vertex 12.0260532194484 2.11716983144782 2.0955
    vertex 12.0260532194484 2.11716983144782 22.86
  endloop
endfacet
facet normal 0.99144486137381 -0.130526192220053 -2.28556532235507e-032
  outer loop
    vertex 12.065 2.413 2.0955
    vertex 12.0260532194484 2.11716983144782 22.86
    vertex 12.0260532194484 2.11716983144782 2.0955
  endloop
endfacet
facet normal 0.965925826289068 -0.258819045102522 -2.53192281027677e-032
  outer loop
    vertex 12.0260532194484 2.11716983144782 22.86
    vertex 12.065 2.413 2.0955
    vertex 12.065 2.413 22.86
  endloop
endfacet
facet normal 0.99144486137381 -0.130526192220053 -2.28556532235507e-032
  outer loop
    vertex 12.065 2.413 22.86
    vertex 12.065 2.413 2.0955
    vertex 12.065 2.413 8.636
  endloop
endfacet
facet normal 1.0 -0.0 -0.0
  outer loop
    vertex 12.065 10.922 2.0955
    vertex 12.065 2.413 8.636
    vertex 12.065 2.413 2.0955
  endloop
endfacet
facet normal 1.0 -0.0 -0.0
  outer loop
    vertex 12.065 2.413 8.636
    vertex 12.065 10.922 2.0955
    vertex 12.065 2.413 22.86
  endloop
endfacet
facet normal 1.0 -0.0 -0.0
  outer loop
    vertex 12.065 2.413 22.86
    vertex 12.065 10.922 2.0955
    vertex 12.065 10.922 22.86
  endloop
endfacet
facet normal 1.0 -0.0 -0.0
  outer loop
    vertex 12.065 10.922 22.86
    vertex 12.065 10.922 2.0955
    vertex 12.065 10.922 8.636
  endloop
endfacet
facet normal 0.965925826289068 0.258819045102522 -1.33197595593879e-032
  outer loop
    vertex 12.0260532194484 11.2178301685522 2.0955
    vertex 12.065 10.922 8.636
    vertex 12.065 10.922 2.0955
  endloop
endfacet
facet normal 0.99144486137381 0.130526192220052 -1.68041474813389e-032
  outer loop
    vertex 12.065 10.922 8.636
    vertex 12.0260532194484 11.2178301685522 2.0955
    vertex 12.065 10.922 22.86
  endloop
endfacet
facet normal 0.99144486137381 0.130526192220052 -1.68041474813389e-032
  outer loop
    vertex 12.065 10.922 22.86
    vertex 12.0260532194484 11.2178301685522 2.0955
    vertex 12.0260532194484 11.2178301685522 22.86
  endloop
endfacet
facet normal 0.866025403784438 0.500000000000002 -5.73078773585249e-033
  outer loop
    vertex 11.9118670365256 11.4935 2.0955
    vertex 12.0260532194484 11.2178301685522 22.86
    vertex 12.0260532194484 11.2178301685522 2.0955
  endloop
endfacet
facet normal 0.965925826289068 0.258819045102522 -1.33197595593879e-032
  outer loop
    vertex 12.0260532194484 11.2178301685522 22.86
    vertex 11.9118670365256 11.4935 2.0955
    vertex 11.9118670365256 11.4935 22.86
  endloop
endfacet
facet normal 0.707106781186548 0.707106781186547 2.24872780130662e-033
  outer loop
    vertex 11.7302230508962 11.7302230508962 2.0955
    vertex 11.9118670365256 11.4935 22.86
    vertex 11.9118670365256 11.4935 2.0955
  endloop
endfacet
facet normal 0.866025403784438 0.500000000000002 -5.73078773585249e-033
  outer loop
    vertex 11.9118670365256 11.4935 22.86
    vertex 11.7302230508962 11.7302230508962 2.0955
    vertex 11.7302230508962 11.7302230508962 22.86
  endloop
endfacet
facet normal 0.5 0.866025403784439 1.00749962550052e-032
  outer loop
    vertex 11.4935 11.9118670365256 22.86
    vertex 11.7302230508962 11.7302230508962 2.0955
    vertex 11.4935 11.9118670365256 2.0955
  endloop
endfacet
facet normal 0.707106781186548 0.707106781186547 2.24872780130662e-033
  outer loop
    vertex 11.7302230508962 11.7302230508962 2.0955
    vertex 11.4935 11.9118670365256 22.86
    vertex 11.7302230508962 11.7302230508962 22.86
  endloop
endfacet
facet normal 0.25881904510252 0.965925826289069 1.72146703636436e-032
  outer loop
    vertex 11.2178301685522 12.0260532194484 22.86
    vertex 11.4935 11.9118670365256 2.0955
    vertex 11.2178301685522 12.0260532194484 2.0955
  endloop
endfacet
facet normal 0.5 0.866025403784439 1.00749962550052e-032
  outer loop
    vertex 11.4935 11.9118670365256 2.0955
    vertex 11.2178301685522 12.0260532194484 22.86
    vertex 11.4935 11.9118670365256 22.86
  endloop
endfacet
facet normal 0.130526192220053 0.99144486137381 2.03722189064837e-032
  outer loop
    vertex 10.922 12.065 8.636
    vertex 11.2178301685522 12.0260532194484 2.0955
    vertex 10.922 12.065 2.0955
  endloop
endfacet
facet normal 0.25881904510252 0.965925826289069 1.72146703636436e-032
  outer loop
    vertex 11.2178301685522 12.0260532194484 2.0955
    vertex 10.922 12.065 8.636
    vertex 11.2178301685522 12.0260532194484 22.86
  endloop
endfacet
facet normal 0.25881904510252 0.965925826289069 1.72146703636436e-032
  outer loop
    vertex 11.2178301685522 12.0260532194484 22.86
    vertex 10.922 12.065 8.636
    vertex 10.922 12.065 22.86
  endloop
endfacet
facet normal -0.0 1.0 -0.0
  outer loop
    vertex 6.6675 12.065 8.636
    vertex 10.922 12.065 2.0955
    vertex 6.6675 12.065 2.0955
  endloop
endfacet
facet normal -0.0 1.0 -0.0
  outer loop
    vertex 10.922 12.065 2.0955
    vertex 6.6675 12.065 8.636
    vertex 10.922 12.065 8.636
  endloop
endfacet
facet normal -0.0 1.0 -0.0
  outer loop
    vertex 2.413 12.065 22.86
    vertex 6.6675 12.065 8.636
    vertex 2.413 12.065 8.636
  endloop
endfacet
facet normal -0.0 1.0 -0.0
  outer loop
    vertex 6.6675 12.065 8.636
    vertex 2.413 12.065 22.86
    vertex 6.6675 12.065 22.86
  endloop
endfacet
facet normal -0.258819045102519 0.965925826289069 2.75679559040743e-032
  outer loop
    vertex 2.11716983144782 12.0260532194484 22.86
    vertex 2.413 12.065 2.0955
    vertex 2.11716983144782 12.0260532194484 2.0955
  endloop
endfacet
facet normal -0.130526192220048 0.991444861373811 2.55935307231007e-032
  outer loop
    vertex 2.413 12.065 2.0955
    vertex 2.11716983144782 12.0260532194484 22.86
    vertex 2.413 12.065 8.636
  endloop
endfacet
facet normal -0.130526192220048 0.991444861373811 2.55935307231007e-032
  outer loop
    vertex 2.413 12.065 8.636
    vertex 2.11716983144782 12.0260532194484 22.86
    vertex 2.413 12.065 22.86
  endloop
endfacet
facet normal -0.5 0.866025403784439 3.00760080358995e-032
  outer loop
    vertex 1.8415 11.9118670365256 22.86
    vertex 2.11716983144782 12.0260532194484 2.0955
    vertex 1.8415 11.9118670365256 2.0955
  endloop
endfacet
facet normal -0.258819045102519 0.965925826289069 2.75679559040743e-032
  outer loop
    vertex 2.11716983144782 12.0260532194484 2.0955
    vertex 1.8415 11.9118670365256 22.86
    vertex 2.11716983144782 12.0260532194484 22.86
  endloop
endfacet
facet normal -0.707106781186547 0.707106781186548 3.05344299230315e-032
  outer loop
    vertex 1.60477694910378 11.7302230508962 22.86
    vertex 1.8415 11.9118670365256 2.0955
    vertex 1.60477694910378 11.7302230508962 2.0955
  endloop
endfacet
facet normal -0.5 0.866025403784439 3.00760080358995e-032
  outer loop
    vertex 1.8415 11.9118670365256 2.0955
    vertex 1.60477694910378 11.7302230508962 22.86
    vertex 1.8415 11.9118670365256 22.86
  endloop
endfacet
facet normal -0.707106781186547 0.707106781186548 3.05344299230315e-032
  outer loop
    vertex 1.60477694910378 11.7302230508962 22.86
    vertex 1.42313296347439 11.4935 2.0955
    vertex 1.42313296347439 11.4935 22.86
  endloop
endfacet
facet normal -0.866025403784439 0.5 2.89119808714402e-032
  outer loop
    vertex 1.42313296347439 11.4935 2.0955
    vertex 1.60477694910378 11.7302230508962 22.86
    vertex 1.60477694910378 11.7302230508962 2.0955
  endloop
endfacet
facet normal -0.866025403784439 0.5 2.89119808714402e-032
  outer loop
    vertex 1.42313296347439 11.4935 22.86
    vertex 1.3089467805516 11.2178301685522 2.0955
    vertex 1.3089467805516 11.2178301685522 22.86
  endloop
endfacet
facet normal -0.965925826289068 0.25881904510252 2.53192281027677e-032
  outer loop
    vertex 1.3089467805516 11.2178301685522 2.0955
    vertex 1.42313296347439 11.4935 22.86
    vertex 1.42313296347439 11.4935 2.0955
  endloop
endfacet
facet normal -0.965925826289068 0.25881904510252 2.53192281027677e-032
  outer loop
    vertex 1.3089467805516 11.2178301685522 22.86
    vertex 1.27 10.922 8.636
    vertex 1.27 10.922 22.86
  endloop
endfacet
facet normal -0.99144486137381 0.130526192220052 2.28556532235506e-032
  outer loop
    vertex 1.27 10.922 8.636
    vertex 1.3089467805516 11.2178301685522 22.86
    vertex 1.27 10.922 2.0955
  endloop
endfacet
facet normal -0.99144486137381 0.130526192220052 2.28556532235506e-032
  outer loop
    vertex 1.27 10.922 2.0955
    vertex 1.3089467805516 11.2178301685522 22.86
    vertex 1.3089467805516 11.2178301685522 2.0955
  endloop
endfacet
facet normal -1.0 0.0 0.0
  outer loop
    vertex 1.27 10.922 22.86
    vertex 1.27 2.413 8.636
    vertex 1.27 2.413 22.86
  endloop
endfacet
facet normal -1.0 0.0 0.0
  outer loop
    vertex 1.27 2.413 8.636
    vertex 1.27 10.922 2.0955
    vertex 1.27 2.413 2.0955
  endloop
endfacet
facet normal -1.0 0.0 0.0
  outer loop
    vertex 1.27 10.922 2.0955
    vertex 1.27 2.413 8.636
    vertex 1.27 10.922 22.86
  endloop
endfacet
facet normal -1.0 0.0 0.0
  outer loop
    vertex 1.27 10.922 2.0955
    vertex 1.27 10.922 22.86
    vertex 1.27 10.922 8.636
  endloop
endfacet
facet normal -0.99144486137381 -0.130526192220052 1.68041474813389e-032
  outer loop
    vertex 1.27 2.413 22.86
    vertex 1.3089467805516 2.11716983144782 2.0955
    vertex 1.3089467805516 2.11716983144782 22.86
  endloop
endfacet
facet normal -0.965925826289068 -0.258819045102522 1.33197595593879e-032
  outer loop
    vertex 1.3089467805516 2.11716983144782 2.0955
    vertex 1.27 2.413 22.86
    vertex 1.27 2.413 2.0955
  endloop
endfacet
facet normal -0.99144486137381 -0.130526192220052 1.68041474813389e-032
  outer loop
    vertex 1.27 2.413 2.0955
    vertex 1.27 2.413 22.86
    vertex 1.27 2.413 8.636
  endloop
endfacet
facet normal -0.965925826289068 -0.258819045102522 1.33197595593879e-032
  outer loop
    vertex 1.3089467805516 2.11716983144782 22.86
    vertex 1.42313296347439 1.8415 2.0955
    vertex 1.42313296347439 1.8415 22.86
  endloop
endfacet
facet normal -0.866025403784438 -0.5 5.73078773585253e-033
  outer loop
    vertex 1.42313296347439 1.8415 2.0955
    vertex 1.3089467805516 2.11716983144782 22.86
    vertex 1.3089467805516 2.11716983144782 2.0955
  endloop
endfacet
facet normal -0.866025403784438 -0.5 5.73078773585253e-033
  outer loop
    vertex 1.42313296347439 1.8415 22.86
    vertex 1.60477694910378 1.60477694910377 2.0955
    vertex 1.60477694910378 1.60477694910377 22.86
  endloop
endfacet
facet normal -0.707106781186547 -0.707106781186548 -2.24872780130664e-033
  outer loop
    vertex 1.60477694910378 1.60477694910377 2.0955
    vertex 1.42313296347439 1.8415 22.86
    vertex 1.42313296347439 1.8415 2.0955
  endloop
endfacet
facet normal -0.499999999999999 -0.866025403784439 -1.00749962550052e-032
  outer loop
    vertex 1.8415 1.42313296347439 22.86
    vertex 1.60477694910378 1.60477694910377 2.0955
    vertex 1.8415 1.42313296347439 2.0955
  endloop
endfacet
facet normal -0.707106781186547 -0.707106781186548 -2.24872780130664e-033
  outer loop
    vertex 1.60477694910378 1.60477694910377 2.0955
    vertex 1.8415 1.42313296347439 22.86
    vertex 1.60477694910378 1.60477694910377 22.86
  endloop
endfacet
facet normal -0.25881904510252 -0.965925826289068 -1.72146703636436e-032
  outer loop
    vertex 2.11716983144782 1.30894678055159 22.86
    vertex 1.8415 1.42313296347439 2.0955
    vertex 2.11716983144782 1.30894678055159 2.0955
  endloop
endfacet
facet normal -0.499999999999999 -0.866025403784439 -1.00749962550052e-032
  outer loop
    vertex 1.8415 1.42313296347439 2.0955
    vertex 2.11716983144782 1.30894678055159 22.86
    vertex 1.8415 1.42313296347439 22.86
  endloop
endfacet
facet normal -0.130526192220051 -0.99144486137381 -2.03722189064837e-032
  outer loop
    vertex 2.413 1.27 8.636
    vertex 2.11716983144782 1.30894678055159 2.0955
    vertex 2.413 1.27 2.0955
  endloop
endfacet
facet normal -0.25881904510252 -0.965925826289068 -1.72146703636436e-032
  outer loop
    vertex 2.11716983144782 1.30894678055159 2.0955
    vertex 2.413 1.27 8.636
    vertex 2.11716983144782 1.30894678055159 22.86
  endloop
endfacet
facet normal -0.25881904510252 -0.965925826289068 -1.72146703636436e-032
  outer loop
    vertex 2.11716983144782 1.30894678055159 22.86
    vertex 2.413 1.27 8.636
    vertex 2.413 1.27 22.86
  endloop
endfacet
facet normal 1.13288063737261e-016 1.0 2.31811931355876e-032
  outer loop
    vertex 6.6675 2.413 22.86
    vertex 9.779 2.413 2.0955
    vertex 6.6675 2.413 2.0955
  endloop
endfacet
facet normal 1.13288063737261e-016 1.0 2.31811931355876e-032
  outer loop
    vertex 9.779 2.413 2.0955
    vertex 6.6675 2.413 22.86
    vertex 9.779 2.413 22.86
  endloop
endfacet
facet normal -1.13288063737261e-016 1.0 2.31811931355877e-032
  outer loop
    vertex 3.556 2.413 22.86
    vertex 6.6675 2.413 2.0955
    vertex 3.556 2.413 2.0955
  endloop
endfacet
facet normal -1.13288063737261e-016 1.0 2.31811931355877e-032
  outer loop
    vertex 6.6675 2.413 2.0955
    vertex 3.556 2.413 22.86
    vertex 6.6675 2.413 22.86
  endloop
endfacet
facet normal 0.25881904510252 0.965925826289069 1.72146703636436e-032
  outer loop
    vertex 3.26016983144782 2.45194678055159 22.86
    vertex 3.556 2.413 2.0955
    vertex 3.26016983144782 2.45194678055159 2.0955
  endloop
endfacet
facet normal 0.130526192220052 0.99144486137381 2.03722189064837e-032
  outer loop
    vertex 3.556 2.413 2.0955
    vertex 3.26016983144782 2.45194678055159 22.86
    vertex 3.556 2.413 22.86
  endloop
endfacet
facet normal 0.499999999999999 0.866025403784439 1.00749962550052e-032
  outer loop
    vertex 2.9845 2.56613296347438 22.86
    vertex 3.26016983144782 2.45194678055159 2.0955
    vertex 2.9845 2.56613296347438 2.0955
  endloop
endfacet
facet normal 0.25881904510252 0.965925826289069 1.72146703636436e-032
  outer loop
    vertex 3.26016983144782 2.45194678055159 2.0955
    vertex 2.9845 2.56613296347438 22.86
    vertex 3.26016983144782 2.45194678055159 22.86
  endloop
endfacet
facet normal 0.707106781186547 0.707106781186548 2.24872780130663e-033
  outer loop
    vertex 2.74777694910378 2.74777694910378 22.86
    vertex 2.9845 2.56613296347438 2.0955
    vertex 2.74777694910378 2.74777694910378 2.0955
  endloop
endfacet
facet normal 0.499999999999999 0.866025403784439 1.00749962550052e-032
  outer loop
    vertex 2.9845 2.56613296347438 2.0955
    vertex 2.74777694910378 2.74777694910378 22.86
    vertex 2.9845 2.56613296347438 22.86
  endloop
endfacet
facet normal 0.866025403784438 0.500000000000001 -5.73078773585253e-033
  outer loop
    vertex 2.56613296347439 2.9845 2.0955
    vertex 2.74777694910378 2.74777694910378 22.86
    vertex 2.74777694910378 2.74777694910378 2.0955
  endloop
endfacet
facet normal 0.707106781186547 0.707106781186548 2.24872780130663e-033
  outer loop
    vertex 2.74777694910378 2.74777694910378 22.86
    vertex 2.56613296347439 2.9845 2.0955
    vertex 2.56613296347439 2.9845 22.86
  endloop
endfacet
facet normal 0.965925826289068 0.258819045102521 -1.33197595593879e-032
  outer loop
    vertex 2.4519467805516 3.26016983144782 2.0955
    vertex 2.56613296347439 2.9845 22.86
    vertex 2.56613296347439 2.9845 2.0955
  endloop
endfacet
facet normal 0.866025403784438 0.500000000000001 -5.73078773585253e-033
  outer loop
    vertex 2.56613296347439 2.9845 22.86
    vertex 2.4519467805516 3.26016983144782 2.0955
    vertex 2.4519467805516 3.26016983144782 22.86
  endloop
endfacet
facet normal 0.99144486137381 0.130526192220053 -1.68041474813389e-032
  outer loop
    vertex 2.413 3.556 2.0955
    vertex 2.4519467805516 3.26016983144782 22.86
    vertex 2.4519467805516 3.26016983144782 2.0955
  endloop
endfacet
facet normal 0.965925826289068 0.258819045102521 -1.33197595593879e-032
  outer loop
    vertex 2.4519467805516 3.26016983144782 22.86
    vertex 2.413 3.556 2.0955
    vertex 2.413 3.556 22.86
  endloop
endfacet
facet normal 1.0 0.0 -2.00010117808944e-032
  outer loop
    vertex 2.413 6.6675 2.0955
    vertex 2.413 3.556 22.86
    vertex 2.413 3.556 2.0955
  endloop
endfacet
facet normal 1.0 0.0 -2.00010117808944e-032
  outer loop
    vertex 2.413 3.556 22.86
    vertex 2.413 6.6675 2.0955
    vertex 2.413 6.6675 22.86
  endloop
endfacet
facet normal 1.0 -2.26576127474522e-016 -2.00010117808944e-032
  outer loop
    vertex 2.413 9.779 2.0955
    vertex 2.413 6.6675 22.86
    vertex 2.413 6.6675 2.0955
  endloop
endfacet
facet normal 1.0 -2.26576127474522e-016 -2.00010117808944e-032
  outer loop
    vertex 2.413 6.6675 22.86
    vertex 2.413 9.779 2.0955
    vertex 2.413 9.779 22.86
  endloop
endfacet
facet normal 0.965925826289068 -0.258819045102521 -2.53192281027677e-032
  outer loop
    vertex 2.4519467805516 10.0748301685522 2.0955
    vertex 2.413 9.779 22.86
    vertex 2.413 9.779 2.0955
  endloop
endfacet
facet normal 0.99144486137381 -0.130526192220052 -2.28556532235506e-032
  outer loop
    vertex 2.413 9.779 22.86
    vertex 2.4519467805516 10.0748301685522 2.0955
    vertex 2.4519467805516 10.0748301685522 22.86
  endloop
endfacet
facet normal 0.866025403784439 -0.5 -2.89119808714402e-032
  outer loop
    vertex 2.56613296347439 10.3505 2.0955
    vertex 2.4519467805516 10.0748301685522 22.86
    vertex 2.4519467805516 10.0748301685522 2.0955
  endloop
endfacet
facet normal 0.965925826289068 -0.258819045102521 -2.53192281027677e-032
  outer loop
    vertex 2.4519467805516 10.0748301685522 22.86
    vertex 2.56613296347439 10.3505 2.0955
    vertex 2.56613296347439 10.3505 22.86
  endloop
endfacet
facet normal 0.707106781186546 -0.707106781186549 -3.05344299230315e-032
  outer loop
    vertex 2.74777694910378 10.5872230508962 2.0955
    vertex 2.56613296347439 10.3505 22.86
    vertex 2.56613296347439 10.3505 2.0955
  endloop
endfacet
facet normal 0.866025403784439 -0.5 -2.89119808714402e-032
  outer loop
    vertex 2.56613296347439 10.3505 22.86
    vertex 2.74777694910378 10.5872230508962 2.0955
    vertex 2.74777694910378 10.5872230508962 22.86
  endloop
endfacet
facet normal 0.5 -0.866025403784438 -3.00760080358995e-032
  outer loop
    vertex 2.9845 10.7688670365256 22.86
    vertex 2.74777694910378 10.5872230508962 2.0955
    vertex 2.9845 10.7688670365256 2.0955
  endloop
endfacet
facet normal 0.707106781186546 -0.707106781186549 -3.05344299230315e-032
  outer loop
    vertex 2.74777694910378 10.5872230508962 2.0955
    vertex 2.9845 10.7688670365256 22.86
    vertex 2.74777694910378 10.5872230508962 22.86
  endloop
endfacet
facet normal 0.258819045102521 -0.965925826289068 -2.75679559040743e-032
  outer loop
    vertex 3.26016983144782 10.8830532194484 22.86
    vertex 2.9845 10.7688670365256 2.0955
    vertex 3.26016983144782 10.8830532194484 2.0955
  endloop
endfacet
facet normal 0.5 -0.866025403784438 -3.00760080358995e-032
  outer loop
    vertex 2.9845 10.7688670365256 2.0955
    vertex 3.26016983144782 10.8830532194484 22.86
    vertex 2.9845 10.7688670365256 22.86
  endloop
endfacet
facet normal 0.130526192220048 -0.991444861373811 -2.55935307231007e-032
  outer loop
    vertex 3.556 10.922 22.86
    vertex 3.26016983144782 10.8830532194484 2.0955
    vertex 3.556 10.922 2.0955
  endloop
endfacet
facet normal 0.258819045102521 -0.965925826289068 -2.75679559040743e-032
  outer loop
    vertex 3.26016983144782 10.8830532194484 2.0955
    vertex 3.556 10.922 22.86
    vertex 3.26016983144782 10.8830532194484 22.86
  endloop
endfacet
facet normal 0.0 -1.0 -2.31811931355876e-032
  outer loop
    vertex 6.6675 10.922 22.86
    vertex 3.556 10.922 2.0955
    vertex 6.6675 10.922 2.0955
  endloop
endfacet
facet normal 0.0 -1.0 -2.31811931355876e-032
  outer loop
    vertex 3.556 10.922 2.0955
    vertex 6.6675 10.922 22.86
    vertex 3.556 10.922 22.86
  endloop
endfacet
facet normal 0.0 -1.0 -2.31811931355876e-032
  outer loop
    vertex 9.779 10.922 22.86
    vertex 6.6675 10.922 2.0955
    vertex 9.779 10.922 2.0955
  endloop
endfacet
facet normal 0.0 -1.0 -2.31811931355876e-032
  outer loop
    vertex 6.6675 10.922 2.0955
    vertex 9.779 10.922 22.86
    vertex 6.6675 10.922 22.86
  endloop
endfacet
facet normal -0.25881904510252 -0.965925826289069 -1.72146703636436e-032
  outer loop
    vertex 10.0748301685522 10.8830532194484 22.86
    vertex 9.779 10.922 2.0955
    vertex 10.0748301685522 10.8830532194484 2.0955
  endloop
endfacet
facet normal -0.130526192220053 -0.99144486137381 -2.03722189064837e-032
  outer loop
    vertex 9.779 10.922 2.0955
    vertex 10.0748301685522 10.8830532194484 22.86
    vertex 9.779 10.922 22.86
  endloop
endfacet
facet normal -0.499999999999998 -0.86602540378444 -1.00749962550052e-032
  outer loop
    vertex 10.3505 10.7688670365256 22.86
    vertex 10.0748301685522 10.8830532194484 2.0955
    vertex 10.3505 10.7688670365256 2.0955
  endloop
endfacet
facet normal -0.25881904510252 -0.965925826289069 -1.72146703636436e-032
  outer loop
    vertex 10.0748301685522 10.8830532194484 2.0955
    vertex 10.3505 10.7688670365256 22.86
    vertex 10.0748301685522 10.8830532194484 22.86
  endloop
endfacet
facet normal -0.707106781186547 -0.707106781186547 -2.24872780130663e-033
  outer loop
    vertex 10.5872230508962 10.5872230508962 22.86
    vertex 10.3505 10.7688670365256 2.0955
    vertex 10.5872230508962 10.5872230508962 2.0955
  endloop
endfacet
facet normal -0.499999999999998 -0.86602540378444 -1.00749962550052e-032
  outer loop
    vertex 10.3505 10.7688670365256 2.0955
    vertex 10.5872230508962 10.5872230508962 22.86
    vertex 10.3505 10.7688670365256 22.86
  endloop
endfacet
facet normal -0.707106781186547 -0.707106781186547 -2.24872780130663e-033
  outer loop
    vertex 10.5872230508962 10.5872230508962 22.86
    vertex 10.7688670365256 10.3505 2.0955
    vertex 10.7688670365256 10.3505 22.86
  endloop
endfacet
facet normal -0.866025403784439 -0.5 5.73078773585254e-033
  outer loop
    vertex 10.7688670365256 10.3505 2.0955
    vertex 10.5872230508962 10.5872230508962 22.86
    vertex 10.5872230508962 10.5872230508962 2.0955
  endloop
endfacet
facet normal -0.866025403784439 -0.5 5.73078773585254e-033
  outer loop
    vertex 10.7688670365256 10.3505 22.86
    vertex 10.8830532194484 10.0748301685522 2.0955
    vertex 10.8830532194484 10.0748301685522 22.86
  endloop
endfacet
facet normal -0.965925826289068 -0.258819045102522 1.33197595593879e-032
  outer loop
    vertex 10.8830532194484 10.0748301685522 2.0955
    vertex 10.7688670365256 10.3505 22.86
    vertex 10.7688670365256 10.3505 2.0955
  endloop
endfacet
facet normal -0.965925826289068 -0.258819045102522 1.33197595593879e-032
  outer loop
    vertex 10.8830532194484 10.0748301685522 22.86
    vertex 10.922 9.779 2.0955
    vertex 10.922 9.779 22.86
  endloop
endfacet
facet normal -0.99144486137381 -0.130526192220052 1.68041474813389e-032
  outer loop
    vertex 10.922 9.779 2.0955
    vertex 10.8830532194484 10.0748301685522 22.86
    vertex 10.8830532194484 10.0748301685522 2.0955
  endloop
endfacet
facet normal -1.0 0.0 2.00010117808944e-032
  outer loop
    vertex 10.922 9.779 22.86
    vertex 10.922 6.6675 2.0955
    vertex 10.922 6.6675 22.86
  endloop
endfacet
facet normal -1.0 0.0 2.00010117808944e-032
  outer loop
    vertex 10.922 6.6675 2.0955
    vertex 10.922 9.779 22.86
    vertex 10.922 9.779 2.0955
  endloop
endfacet
facet normal -1.0 0.0 2.00010117808944e-032
  outer loop
    vertex 10.922 6.6675 22.86
    vertex 10.922 3.556 2.0955
    vertex 10.922 3.556 22.86
  endloop
endfacet
facet normal -1.0 0.0 2.00010117808944e-032
  outer loop
    vertex 10.922 3.556 2.0955
    vertex 10.922 6.6675 22.86
    vertex 10.922 6.6675 2.0955
  endloop
endfacet
facet normal -0.991444861373811 0.130526192220049 2.28556532235506e-032
  outer loop
    vertex 10.922 3.556 22.86
    vertex 10.8830532194484 3.26016983144782 2.0955
    vertex 10.8830532194484 3.26016983144782 22.86
  endloop
endfacet
facet normal -0.965925826289069 0.25881904510252 2.53192281027677e-032
  outer loop
    vertex 10.8830532194484 3.26016983144782 2.0955
    vertex 10.922 3.556 22.86
    vertex 10.922 3.556 2.0955
  endloop
endfacet
facet normal -0.965925826289069 0.25881904510252 2.53192281027677e-032
  outer loop
    vertex 10.8830532194484 3.26016983144782 22.86
    vertex 10.7688670365256 2.9845 2.0955
    vertex 10.7688670365256 2.9845 22.86
  endloop
endfacet
facet normal -0.866025403784439 0.5 2.89119808714402e-032
  outer loop
    vertex 10.7688670365256 2.9845 2.0955
    vertex 10.8830532194484 3.26016983144782 22.86
    vertex 10.8830532194484 3.26016983144782 2.0955
  endloop
endfacet
facet normal -0.866025403784439 0.5 2.89119808714402e-032
  outer loop
    vertex 10.7688670365256 2.9845 22.86
    vertex 10.5872230508962 2.74777694910378 2.0955
    vertex 10.5872230508962 2.74777694910378 22.86
  endloop
endfacet
facet normal -0.707106781186548 0.707106781186547 3.05344299230315e-032
  outer loop
    vertex 10.5872230508962 2.74777694910378 2.0955
    vertex 10.7688670365256 2.9845 22.86
    vertex 10.7688670365256 2.9845 2.0955
  endloop
endfacet
facet normal -0.5 0.866025403784439 3.00760080358995e-032
  outer loop
    vertex 10.3505 2.56613296347439 22.86
    vertex 10.5872230508962 2.74777694910378 2.0955
    vertex 10.3505 2.56613296347439 2.0955
  endloop
endfacet
facet normal -0.707106781186548 0.707106781186547 3.05344299230315e-032
  outer loop
    vertex 10.5872230508962 2.74777694910378 2.0955
    vertex 10.3505 2.56613296347439 22.86
    vertex 10.5872230508962 2.74777694910378 22.86
  endloop
endfacet
facet normal -0.258819045102522 0.965925826289068 2.75679559040743e-032
  outer loop
    vertex 10.0748301685522 2.45194678055159 22.86
    vertex 10.3505 2.56613296347439 2.0955
    vertex 10.0748301685522 2.45194678055159 2.0955
  endloop
endfacet
facet normal -0.5 0.866025403784439 3.00760080358995e-032
  outer loop
    vertex 10.3505 2.56613296347439 2.0955
    vertex 10.0748301685522 2.45194678055159 22.86
    vertex 10.3505 2.56613296347439 22.86
  endloop
endfacet
facet normal -0.130526192220052 0.99144486137381 2.55935307231008e-032
  outer loop
    vertex 9.779 2.413 22.86
    vertex 10.0748301685522 2.45194678055159 2.0955
    vertex 9.779 2.413 2.0955
  endloop
endfacet
facet normal -0.258819045102522 0.965925826289068 2.75679559040743e-032
  outer loop
    vertex 10.0748301685522 2.45194678055159 2.0955
    vertex 9.779 2.413 22.86
    vertex 10.0748301685522 2.45194678055159 22.86
  endloop
endfacet
facet normal 0.0 -1.0 0.0
  outer loop
    vertex 10.922 1.27 8.636
    vertex 6.6675 1.27 2.0955
    vertex 10.922 1.27 2.0955
  endloop
endfacet
facet normal 0.0 -1.0 0.0
  outer loop
    vertex 6.6675 1.27 2.0955
    vertex 10.922 1.27 8.636
    vertex 6.6675 1.27 8.636
  endloop
endfacet
facet normal 0.0 -1.0 0.0
  outer loop
    vertex 6.6675 1.27 8.636
    vertex 2.413 1.27 22.86
    vertex 2.413 1.27 8.636
  endloop
endfacet
facet normal 0.0 -1.0 0.0
  outer loop
    vertex 2.413 1.27 22.86
    vertex 6.6675 1.27 8.636
    vertex 6.6675 1.27 22.86
  endloop
endfacet
facet normal -0.0 1.0 -0.0
  outer loop
    vertex 2.413 12.065 8.636
    vertex 6.6675 12.065 2.0955
    vertex 2.413 12.065 2.0955
  endloop
endfacet
facet normal -0.0 1.0 -0.0
  outer loop
    vertex 6.6675 12.065 2.0955
    vertex 2.413 12.065 8.636
    vertex 6.6675 12.065 8.636
  endloop
endfacet
facet normal -0.0 1.0 -0.0
  outer loop
    vertex 6.6675 12.065 8.636
    vertex 10.922 12.065 22.86
    vertex 10.922 12.065 8.636
  endloop
endfacet
facet normal -0.0 1.0 -0.0
  outer loop
    vertex 10.922 12.065 22.86
    vertex 6.6675 12.065 8.636
    vertex 6.6675 12.065 22.86
  endloop
endfacet
endsolid 12-10798
