solid 8AGuide
facet normal -2.072904254257e-018 -1.0 4.82506577703373e-017
  outer loop
    vertex 170.4086 -3.81 3.8354
    vertex 168.275 -3.81 -0.3302
    vertex 170.4086 -3.81 -0.3302
  endloop
endfacet
facet normal -2.072904254257e-018 -1.0 4.82506577703373e-017
  outer loop
    vertex 168.275 -3.81 -0.3302
    vertex 170.4086 -3.81 3.8354
    vertex 135.4836 -3.81 -0.3302
  endloop
endfacet
facet normal -2.072904254257e-018 -1.0 4.82506577703373e-017
  outer loop
    vertex 135.4836 -3.81 -0.3302
    vertex 170.4086 -3.81 3.8354
    vertex 133.35 -3.81 -0.3302
  endloop
endfacet
facet normal -2.072904254257e-018 -1.0 4.82506577703373e-017
  outer loop
    vertex 133.35 -3.81 -0.3302
    vertex 170.4086 -3.81 3.8354
    vertex 2.1336 -3.81 -0.3302
  endloop
endfacet
facet normal -2.072904254257e-018 -1.0 4.82506577703373e-017
  outer loop
    vertex 2.1336 -3.81 -0.3302
    vertex 170.4086 -3.81 3.8354
    vertex 0.0 -3.81 -0.3302
  endloop
endfacet
facet normal -2.072904254257e-018 -1.0 4.82506577703373e-017
  outer loop
    vertex 0.0 -3.81 -0.3302
    vertex 170.4086 -3.81 3.8354
    vertex 0.0 -3.81 3.8354
  endloop
endfacet
facet normal 2.072904254257e-018 1.0 -4.82506577703373e-017
  outer loop
    vertex 0.0 0.3302 3.8354
    vertex 2.1336 0.3302 -0.3302
    vertex 0.0 0.3302 -0.3302
  endloop
endfacet
facet normal 2.072904254257e-018 1.0 -4.82506577703373e-017
  outer loop
    vertex 2.1336 0.3302 -0.3302
    vertex 0.0 0.3302 3.8354
    vertex 133.35 0.3302 -0.3302
  endloop
endfacet
facet normal 2.072904254257e-018 1.0 -4.82506577703373e-017
  outer loop
    vertex 133.35 0.3302 -0.3302
    vertex 0.0 0.3302 3.8354
    vertex 135.4836 0.3302 -0.3302
  endloop
endfacet
facet normal 2.072904254257e-018 1.0 -4.82506577703373e-017
  outer loop
    vertex 135.4836 0.3302 -0.3302
    vertex 0.0 0.3302 3.8354
    vertex 168.275 0.3302 -0.3302
  endloop
endfacet
facet normal 2.072904254257e-018 1.0 -4.82506577703373e-017
  outer loop
    vertex 168.275 0.3302 -0.3302
    vertex 0.0 0.3302 3.8354
    vertex 170.4086 0.3302 -0.3302
  endloop
endfacet
facet normal 2.072904254257e-018 1.0 -4.82506577703373e-017
  outer loop
    vertex 170.4086 0.3302 -0.3302
    vertex 0.0 0.3302 3.8354
    vertex 170.4086 0.3302 3.8354
  endloop
endfacet
facet normal 0.0 2.93192700165094e-016 1.0
  outer loop
    vertex 2.1336 0.3302 -0.3302
    vertex 0.0 1.2319 -0.3302
    vertex 0.0 0.3302 -0.3302
  endloop
endfacet
facet normal 0.0 2.93192700165094e-016 1.0
  outer loop
    vertex 0.0 1.2319 -0.3302
    vertex 2.1336 0.3302 -0.3302
    vertex 2.1336 1.2319 -0.3302
  endloop
endfacet
facet normal -0.0 -0.0 1.0
  outer loop
    vertex 170.4086 0.3302 -0.3302
    vertex 168.275 1.2319 -0.3302
    vertex 168.275 0.3302 -0.3302
  endloop
endfacet
facet normal -0.0 -0.0 1.0
  outer loop
    vertex 168.275 1.2319 -0.3302
    vertex 170.4086 0.3302 -0.3302
    vertex 170.4086 1.2319 -0.3302
  endloop
endfacet
facet normal -1.58249780981455e-017 0.921306761430557 -0.388836535503468
  outer loop
    vertex 168.275 1.8161 -2.11503543963857
    vertex 170.1038 0.596899999999999 -5.0038
    vertex 168.5798 0.596899999999999 -5.0038
  endloop
endfacet
facet normal -1.58249780981455e-017 0.921306761430557 -0.388836535503468
  outer loop
    vertex 170.1038 0.596899999999999 -5.0038
    vertex 168.275 1.8161 -2.11503543963857
    vertex 170.4086 1.8161 -2.11503543963857
  endloop
endfacet
facet normal 0.994479634766516 8.93196842386361e-019 -0.104929767152402
  outer loop
    vertex 170.1038 -4.0767 -5.0038
    vertex 170.4086 -4.7117 -2.11503543963857
    vertex 170.4086 -5.2959 -2.11503543963857
  endloop
endfacet
facet normal 0.994479634766516 8.93196842386361e-019 -0.104929767152402
  outer loop
    vertex 170.4086 -4.7117 -2.11503543963857
    vertex 170.1038 -4.0767 -5.0038
    vertex 170.4086 -2.63231771981929 -2.11503543963857
  endloop
endfacet
facet normal -0.0 1.0 -0.0
  outer loop
    vertex 0.0 -2.794 3.8354
    vertex 170.4086 -2.794 0.6858
    vertex 0.0 -2.794 0.6858
  endloop
endfacet
facet normal -0.0 1.0 -0.0
  outer loop
    vertex 170.4086 -2.794 0.6858
    vertex 0.0 -2.794 3.8354
    vertex 170.4086 -2.794 3.8354
  endloop
endfacet
facet normal -7.86238700371062e-034 -1.73758462803421e-032 1.0
  outer loop
    vertex 170.4086 -3.81 3.8354
    vertex 0.0 -2.794 3.8354
    vertex 0.0 -3.81 3.8354
  endloop
endfacet
facet normal -7.86238700371062e-034 -1.73758462803421e-032 1.0
  outer loop
    vertex 0.0 -2.794 3.8354
    vertex 170.4086 -3.81 3.8354
    vertex 170.4086 -2.794 3.8354
  endloop
endfacet
facet normal -7.86238700371062e-034 -1.73758462803421e-032 1.0
  outer loop
    vertex 170.4086 -2.794 3.8354
    vertex 170.4086 -3.81 3.8354
    vertex 170.960816314631 -3.88270065702965 3.8354
  endloop
endfacet
facet normal -7.86238700371062e-034 -1.73758462803421e-032 1.0
  outer loop
    vertex 170.4086 -2.794 3.8354
    vertex 170.960816314631 -3.88270065702965 3.8354
    vertex 171.38000570737 -2.78144110311946 3.8354
  endloop
endfacet
facet normal -7.86238700371062e-034 -1.73758462803421e-032 1.0
  outer loop
    vertex 171.38000570737 -2.78144110311946 3.8354
    vertex 170.960816314631 -3.88270065702965 3.8354
    vertex 171.4754 -4.09584819848553 3.8354
  endloop
endfacet
facet normal -7.86238700371062e-034 -1.73758462803421e-032 1.0
  outer loop
    vertex 171.38000570737 -2.78144110311946 3.8354
    vertex 171.4754 -4.09584819848553 3.8354
    vertex 172.321562049621 -3.02072843786169 3.8354
  endloop
endfacet
facet normal -7.86238700371062e-034 -1.73758462803421e-032 1.0
  outer loop
    vertex 172.321562049621 -3.02072843786169 3.8354
    vertex 171.4754 -4.09584819848553 3.8354
    vertex 171.91728302834 -4.43491697166039 3.8354
  endloop
endfacet
facet normal -7.86238700371062e-034 -1.73758462803421e-032 1.0
  outer loop
    vertex 172.321562049621 -3.02072843786169 3.8354
    vertex 171.91728302834 -4.43491697166039 3.8354
    vertex 172.256351801514 -4.87680000000001 3.8354
  endloop
endfacet
facet normal -7.86238700371062e-034 -1.73758462803421e-032 1.0
  outer loop
    vertex 172.321562049621 -3.02072843786169 3.8354
    vertex 172.256351801514 -4.87680000000001 3.8354
    vertex 172.46949934297 -5.39138368536926 3.8354
  endloop
endfacet
facet normal -7.86238700371062e-034 -1.73758462803421e-032 1.0
  outer loop
    vertex 172.321562049621 -3.02072843786169 3.8354
    vertex 172.46949934297 -5.39138368536926 3.8354
    vertex 173.169103518025 -3.49555496780481 3.8354
  endloop
endfacet
facet normal -7.86238700371062e-034 -1.73758462803421e-032 1.0
  outer loop
    vertex 173.169103518025 -3.49555496780481 3.8354
    vertex 172.46949934297 -5.39138368536926 3.8354
    vertex 172.5422 -5.9436 3.8354
  endloop
endfacet
facet normal -7.86238700371062e-034 -1.73758462803421e-032 1.0
  outer loop
    vertex 173.169103518025 -3.49555496780481 3.8354
    vertex 172.5422 -5.9436 3.8354
    vertex 172.577684844503 -6.21313415356977 3.8354
  endloop
endfacet
facet normal -7.86238700371062e-034 -1.73758462803421e-032 1.0
  outer loop
    vertex 173.169103518025 -3.49555496780481 3.8354
    vertex 172.577684844503 -6.21313415356977 3.8354
    vertex 172.681721144499 -6.46430000000001 3.8354
  endloop
endfacet
facet normal -7.86238700371062e-034 -1.73758462803421e-032 1.0
  outer loop
    vertex 173.169103518025 -3.49555496780481 3.8354
    vertex 172.681721144499 -6.46430000000001 3.8354
    vertex 172.847218998072 -6.67998100192768 3.8354
  endloop
endfacet
facet normal -7.86238700371062e-034 -1.73758462803421e-032 1.0
  outer loop
    vertex 173.169103518025 -3.49555496780481 3.8354
    vertex 172.847218998072 -6.67998100192768 3.8354
    vertex 173.0629 -6.84547885550112 3.8354
  endloop
endfacet
facet normal -7.86238700371062e-034 -1.73758462803421e-032 1.0
  outer loop
    vertex 173.169103518025 -3.49555496780481 3.8354
    vertex 173.0629 -6.84547885550112 3.8354
    vertex 173.31406584643 -6.94951515549745 3.8354
  endloop
endfacet
facet normal -7.86238700371062e-034 -1.73758462803421e-032 1.0
  outer loop
    vertex 173.169103518025 -3.49555496780481 3.8354
    vertex 173.31406584643 -6.94951515549745 3.8354
    vertex 173.864871562138 -4.17356204962115 3.8354
  endloop
endfacet
facet normal -7.86238700371062e-034 -1.73758462803421e-032 1.0
  outer loop
    vertex 173.864871562138 -4.17356204962115 3.8354
    vertex 173.31406584643 -6.94951515549745 3.8354
    vertex 173.5836 -6.98500000000001 3.8354
  endloop
endfacet
facet normal -7.86238700371062e-034 -1.73758462803421e-032 1.0
  outer loop
    vertex 173.864871562138 -4.17356204962115 3.8354
    vertex 173.5836 -6.98500000000001 3.8354
    vertex 173.85313415357 -6.94951515549745 3.8354
  endloop
endfacet
facet normal -7.86238700371062e-034 -1.73758462803421e-032 1.0
  outer loop
    vertex 173.864871562138 -4.17356204962115 3.8354
    vertex 173.85313415357 -6.94951515549745 3.8354
    vertex 174.1043 -6.84547885550112 3.8354
  endloop
endfacet
facet normal -7.86238700371062e-034 -1.73758462803421e-032 1.0
  outer loop
    vertex 173.864871562138 -4.17356204962115 3.8354
    vertex 174.1043 -6.84547885550112 3.8354
    vertex 174.361450739565 -5.00854462114461 3.8354
  endloop
endfacet
facet normal -7.86238700371062e-034 -1.73758462803421e-032 1.0
  outer loop
    vertex 174.361450739565 -5.00854462114461 3.8354
    vertex 174.1043 -6.84547885550112 3.8354
    vertex 174.319981001928 -6.67998100192768 3.8354
  endloop
endfacet
facet normal -7.86238700371062e-034 -1.73758462803421e-032 1.0
  outer loop
    vertex 174.361450739565 -5.00854462114461 3.8354
    vertex 174.319981001928 -6.67998100192768 3.8354
    vertex 174.485478855501 -6.46430000000001 3.8354
  endloop
endfacet
facet normal -7.86238700371062e-034 -1.73758462803421e-032 1.0
  outer loop
    vertex 174.361450739565 -5.00854462114461 3.8354
    vertex 174.485478855501 -6.46430000000001 3.8354
    vertex 174.625 -5.94359999999981 3.8354
  endloop
endfacet
facet normal -7.86238700371062e-034 -1.73758462803421e-032 1.0
  outer loop
    vertex 174.625 -5.94359999999981 3.8354
    vertex 174.485478855501 -6.46430000000001 3.8354
    vertex 174.589515155497 -6.21313415356977 3.8354
  endloop
endfacet
facet normal -1.58249780981455e-017 0.921306761430557 -0.388836535503468
  outer loop
    vertex 0.0 1.8161 -2.11503543963857
    vertex 1.8288 0.5969 -5.0038
    vertex 0.3048 0.5969 -5.0038
  endloop
endfacet
facet normal -1.58249780981455e-017 0.921306761430557 -0.388836535503468
  outer loop
    vertex 1.8288 0.5969 -5.0038
    vertex 0.0 1.8161 -2.11503543963857
    vertex 2.1336 1.8161 -2.11503543963857
  endloop
endfacet
facet normal -1.00738877815146e-018 3.19274259382234e-017 -1.0
  outer loop
    vertex 133.35 0.3302 -0.3302
    vertex 2.1336 -1.7399 -0.3302
    vertex 2.1336 0.3302 -0.3302
  endloop
endfacet
facet normal -1.00738877815146e-018 3.19274259382234e-017 -1.0
  outer loop
    vertex 2.1336 -1.7399 -0.3302
    vertex 133.35 0.3302 -0.3302
    vertex 2.1336 -3.81 -0.3302
  endloop
endfacet
facet normal -1.00738877815146e-018 3.19274259382234e-017 -1.0
  outer loop
    vertex 2.1336 -3.81 -0.3302
    vertex 133.35 0.3302 -0.3302
    vertex 133.35 -3.81 -0.3302
  endloop
endfacet
facet normal -1.00738877815146e-018 3.19274259382234e-017 -1.0
  outer loop
    vertex 133.35 -3.81 -0.3302
    vertex 133.35 0.3302 -0.3302
    vertex 133.35 -1.7399 -0.3302
  endloop
endfacet
facet normal 0.994479634766516 8.93196842386361e-019 -0.104929767152402
  outer loop
    vertex 1.8288 -4.0767 -5.0038
    vertex 2.1336 -4.7117 -2.11503543963857
    vertex 2.1336 -5.2959 -2.11503543963857
  endloop
endfacet
facet normal 0.994479634766516 8.93196842386361e-019 -0.104929767152402
  outer loop
    vertex 2.1336 -4.7117 -2.11503543963857
    vertex 1.8288 -4.0767 -5.0038
    vertex 2.1336 -2.63231771981929 -2.11503543963857
  endloop
endfacet
facet normal -0.994479634766516 0.0 -0.104929767152402
  outer loop
    vertex 168.275 -4.7117 -2.11503543963857
    vertex 168.5798 -4.0767 -5.0038
    vertex 168.275 -5.2959 -2.11503543963857
  endloop
endfacet
facet normal -0.994479634766516 0.0 -0.104929767152402
  outer loop
    vertex 168.5798 -4.0767 -5.0038
    vertex 168.275 -4.7117 -2.11503543963857
    vertex 168.275 -2.63231771981929 -2.11503543963857
  endloop
endfacet
facet normal -0.994479634766516 -8.93196842386361e-019 -0.104929767152402
  outer loop
    vertex 168.275 1.2319 -2.11503543963857
    vertex 168.5798 0.596899999999999 -5.0038
    vertex 168.275 -0.847482280180715 -2.11503543963857
  endloop
endfacet
facet normal -0.994479634766516 -8.93196842386361e-019 -0.104929767152402
  outer loop
    vertex 168.5798 0.596899999999999 -5.0038
    vertex 168.275 1.2319 -2.11503543963857
    vertex 168.275 1.8161 -2.11503543963857
  endloop
endfacet
facet normal 1.0 -0.0 -0.0
  outer loop
    vertex 170.4086 -2.63231771981929 -2.11503543963857
    vertex 170.4086 -4.7117 -0.3302
    vertex 170.4086 -4.7117 -2.11503543963857
  endloop
endfacet
facet normal 1.0 -0.0 -0.0
  outer loop
    vertex 170.4086 -4.7117 -0.3302
    vertex 170.4086 -2.63231771981929 -2.11503543963857
    vertex 170.4086 -3.81 -0.3302
  endloop
endfacet
facet normal 1.0 -0.0 -0.0
  outer loop
    vertex 170.4086 -3.81 -0.3302
    vertex 170.4086 -2.63231771981929 -2.11503543963857
    vertex 170.4086 -1.7399 -0.3302
  endloop
endfacet
facet normal 2.19001784916941e-017 0.894427190999916 -0.447213595499958
  outer loop
    vertex 168.275 -2.63231771981929 -2.11503543963857
    vertex 170.1038 -4.0767 -5.0038
    vertex 168.5798 -4.0767 -5.0038
  endloop
endfacet
facet normal 2.19001784916941e-017 0.894427190999916 -0.447213595499958
  outer loop
    vertex 170.1038 -4.0767 -5.0038
    vertex 168.275 -2.63231771981929 -2.11503543963857
    vertex 170.4086 -2.63231771981929 -2.11503543963857
  endloop
endfacet
facet normal 2.19001784916941e-017 0.894427190999916 -0.447213595499958
  outer loop
    vertex 170.4086 -2.63231771981929 -2.11503543963857
    vertex 168.275 -2.63231771981929 -2.11503543963857
    vertex 168.275 -1.7399 -0.3302
  endloop
endfacet
facet normal 2.19001784916941e-017 0.894427190999916 -0.447213595499958
  outer loop
    vertex 170.4086 -2.63231771981929 -2.11503543963857
    vertex 168.275 -1.7399 -0.3302
    vertex 170.4086 -1.7399 -0.3302
  endloop
endfacet
facet normal -0.0 -0.0 1.0
  outer loop
    vertex 170.4086 -4.7117 -0.3302
    vertex 168.275 -3.81 -0.3302
    vertex 168.275 -4.7117 -0.3302
  endloop
endfacet
facet normal -0.0 -0.0 1.0
  outer loop
    vertex 168.275 -3.81 -0.3302
    vertex 170.4086 -4.7117 -0.3302
    vertex 170.4086 -3.81 -0.3302
  endloop
endfacet
facet normal 3.4572778253337e-017 -0.921306761430557 -0.388836535503468
  outer loop
    vertex 170.4086 -5.2959 -2.11503543963857
    vertex 168.5798 -4.0767 -5.0038
    vertex 170.1038 -4.0767 -5.0038
  endloop
endfacet
facet normal 3.4572778253337e-017 -0.921306761430557 -0.388836535503468
  outer loop
    vertex 168.5798 -4.0767 -5.0038
    vertex 170.4086 -5.2959 -2.11503543963857
    vertex 168.275 -5.2959 -2.11503543963857
  endloop
endfacet
facet normal 0.0 0.0 1.0
  outer loop
    vertex 170.4086 -5.2959 -2.11503543963857
    vertex 168.275 -4.7117 -2.11503543963857
    vertex 168.275 -5.2959 -2.11503543963857
  endloop
endfacet
facet normal 0.0 0.0 1.0
  outer loop
    vertex 168.275 -4.7117 -2.11503543963857
    vertex 170.4086 -5.2959 -2.11503543963857
    vertex 170.4086 -4.7117 -2.11503543963857
  endloop
endfacet
facet normal 0.0 -1.0 0.0
  outer loop
    vertex 170.4086 -4.7117 -0.3302
    vertex 168.275 -4.7117 -2.11503543963857
    vertex 170.4086 -4.7117 -2.11503543963857
  endloop
endfacet
facet normal 0.0 -1.0 0.0
  outer loop
    vertex 168.275 -4.7117 -2.11503543963857
    vertex 170.4086 -4.7117 -0.3302
    vertex 168.275 -4.7117 -0.3302
  endloop
endfacet
facet normal -0.994479634766516 0.0 -0.104929767152402
  outer loop
    vertex 133.35 -4.7117 -2.11503543963857
    vertex 133.6548 -4.0767 -5.0038
    vertex 133.35 -5.2959 -2.11503543963857
  endloop
endfacet
facet normal -0.994479634766516 0.0 -0.104929767152402
  outer loop
    vertex 133.6548 -4.0767 -5.0038
    vertex 133.35 -4.7117 -2.11503543963857
    vertex 133.35 -2.63231771981929 -2.11503543963857
  endloop
endfacet
facet normal -0.994479634766516 -8.93196842386361e-019 -0.104929767152402
  outer loop
    vertex 133.35 1.2319 -2.11503543963857
    vertex 133.6548 0.5969 -5.0038
    vertex 133.35 -0.847482280180714 -2.11503543963857
  endloop
endfacet
facet normal -0.994479634766516 -8.93196842386361e-019 -0.104929767152402
  outer loop
    vertex 133.6548 0.5969 -5.0038
    vertex 133.35 1.2319 -2.11503543963857
    vertex 133.35 1.8161 -2.11503543963857
  endloop
endfacet
facet normal 1.0 0.0 0.0
  outer loop
    vertex 135.4836 -2.63231771981929 -2.11503543963857
    vertex 135.4836 -4.7117 -0.3302
    vertex 135.4836 -4.7117 -2.11503543963857
  endloop
endfacet
facet normal 1.0 0.0 0.0
  outer loop
    vertex 135.4836 -4.7117 -0.3302
    vertex 135.4836 -2.63231771981929 -2.11503543963857
    vertex 135.4836 -3.81 -0.3302
  endloop
endfacet
facet normal 1.0 0.0 0.0
  outer loop
    vertex 135.4836 -3.81 -0.3302
    vertex 135.4836 -2.63231771981929 -2.11503543963857
    vertex 135.4836 -1.7399 -0.3302
  endloop
endfacet
facet normal 2.19001784916941e-017 0.894427190999916 -0.447213595499958
  outer loop
    vertex 133.35 -2.63231771981929 -2.11503543963857
    vertex 135.1788 -4.0767 -5.0038
    vertex 133.6548 -4.0767 -5.0038
  endloop
endfacet
facet normal 2.19001784916941e-017 0.894427190999916 -0.447213595499958
  outer loop
    vertex 135.1788 -4.0767 -5.0038
    vertex 133.35 -2.63231771981929 -2.11503543963857
    vertex 135.4836 -2.63231771981929 -2.11503543963857
  endloop
endfacet
facet normal 2.19001784916941e-017 0.894427190999916 -0.447213595499958
  outer loop
    vertex 135.4836 -2.63231771981929 -2.11503543963857
    vertex 133.35 -2.63231771981929 -2.11503543963857
    vertex 133.35 -1.7399 -0.3302
  endloop
endfacet
facet normal 2.19001784916941e-017 0.894427190999916 -0.447213595499958
  outer loop
    vertex 135.4836 -2.63231771981929 -2.11503543963857
    vertex 133.35 -1.7399 -0.3302
    vertex 135.4836 -1.7399 -0.3302
  endloop
endfacet
facet normal 0.0 0.0 1.0
  outer loop
    vertex 135.4836 -4.7117 -0.3302
    vertex 133.35 -3.81 -0.3302
    vertex 133.35 -4.7117 -0.3302
  endloop
endfacet
facet normal 0.0 0.0 1.0
  outer loop
    vertex 133.35 -3.81 -0.3302
    vertex 135.4836 -4.7117 -0.3302
    vertex 135.4836 -3.81 -0.3302
  endloop
endfacet
facet normal 3.4572778253337e-017 -0.921306761430557 -0.388836535503468
  outer loop
    vertex 135.4836 -5.2959 -2.11503543963857
    vertex 133.6548 -4.0767 -5.0038
    vertex 135.1788 -4.0767 -5.0038
  endloop
endfacet
facet normal 3.4572778253337e-017 -0.921306761430557 -0.388836535503468
  outer loop
    vertex 133.6548 -4.0767 -5.0038
    vertex 135.4836 -5.2959 -2.11503543963857
    vertex 133.35 -5.2959 -2.11503543963857
  endloop
endfacet
facet normal 0.0 0.0 1.0
  outer loop
    vertex 135.4836 -5.2959 -2.11503543963857
    vertex 133.35 -4.7117 -2.11503543963857
    vertex 133.35 -5.2959 -2.11503543963857
  endloop
endfacet
facet normal 0.0 0.0 1.0
  outer loop
    vertex 133.35 -4.7117 -2.11503543963857
    vertex 135.4836 -5.2959 -2.11503543963857
    vertex 135.4836 -4.7117 -2.11503543963857
  endloop
endfacet
facet normal 0.0 -1.0 0.0
  outer loop
    vertex 135.4836 -4.7117 -0.3302
    vertex 133.35 -4.7117 -2.11503543963857
    vertex 135.4836 -4.7117 -2.11503543963857
  endloop
endfacet
facet normal 0.0 -1.0 0.0
  outer loop
    vertex 133.35 -4.7117 -2.11503543963857
    vertex 135.4836 -4.7117 -0.3302
    vertex 133.35 -4.7117 -0.3302
  endloop
endfacet
facet normal 0.994479634766516 5.35918105431816e-018 -0.104929767152401
  outer loop
    vertex 135.1788 0.5969 -5.0038
    vertex 135.4836 1.2319 -2.11503543963857
    vertex 135.4836 -0.847482280180714 -2.11503543963857
  endloop
endfacet
facet normal 0.994479634766516 5.35918105431816e-018 -0.104929767152401
  outer loop
    vertex 135.4836 1.2319 -2.11503543963857
    vertex 135.1788 0.5969 -5.0038
    vertex 135.4836 1.8161 -2.11503543963857
  endloop
endfacet
facet normal -1.0 0.0 0.0
  outer loop
    vertex 133.35 -3.81 -0.3302
    vertex 133.35 -4.7117 -2.11503543963857
    vertex 133.35 -4.7117 -0.3302
  endloop
endfacet
facet normal -1.0 0.0 0.0
  outer loop
    vertex 133.35 -4.7117 -2.11503543963857
    vertex 133.35 -3.81 -0.3302
    vertex 133.35 -2.63231771981929 -2.11503543963857
  endloop
endfacet
facet normal -1.0 0.0 0.0
  outer loop
    vertex 133.35 -2.63231771981929 -2.11503543963857
    vertex 133.35 -3.81 -0.3302
    vertex 133.35 -1.7399 -0.3302
  endloop
endfacet
facet normal -1.0 0.0 0.0
  outer loop
    vertex 133.35 0.3302 -0.3302
    vertex 133.35 -0.847482280180714 -2.11503543963857
    vertex 133.35 -1.7399 -0.3302
  endloop
endfacet
facet normal -1.0 0.0 0.0
  outer loop
    vertex 133.35 -0.847482280180714 -2.11503543963857
    vertex 133.35 0.3302 -0.3302
    vertex 133.35 1.2319 -2.11503543963857
  endloop
endfacet
facet normal -1.0 0.0 0.0
  outer loop
    vertex 133.35 1.2319 -2.11503543963857
    vertex 133.35 0.3302 -0.3302
    vertex 133.35 1.2319 -0.3302
  endloop
endfacet
facet normal 1.0 0.0 0.0
  outer loop
    vertex 135.4836 -0.847482280180714 -2.11503543963857
    vertex 135.4836 0.3302 -0.3302
    vertex 135.4836 -1.7399 -0.3302
  endloop
endfacet
facet normal 1.0 0.0 0.0
  outer loop
    vertex 135.4836 0.3302 -0.3302
    vertex 135.4836 -0.847482280180714 -2.11503543963857
    vertex 135.4836 1.2319 -2.11503543963857
  endloop
endfacet
facet normal 1.0 0.0 0.0
  outer loop
    vertex 135.4836 0.3302 -0.3302
    vertex 135.4836 1.2319 -2.11503543963857
    vertex 135.4836 1.2319 -0.3302
  endloop
endfacet
facet normal 0.0 0.0 1.0
  outer loop
    vertex 135.4836 1.2319 -2.11503543963857
    vertex 133.35 1.8161 -2.11503543963857
    vertex 133.35 1.2319 -2.11503543963857
  endloop
endfacet
facet normal 0.0 0.0 1.0
  outer loop
    vertex 133.35 1.8161 -2.11503543963857
    vertex 135.4836 1.2319 -2.11503543963857
    vertex 135.4836 1.8161 -2.11503543963857
  endloop
endfacet
facet normal 0.0 1.0 0.0
  outer loop
    vertex 133.35 1.2319 -0.3302
    vertex 135.4836 1.2319 -2.11503543963857
    vertex 133.35 1.2319 -2.11503543963857
  endloop
endfacet
facet normal 0.0 1.0 0.0
  outer loop
    vertex 135.4836 1.2319 -2.11503543963857
    vertex 133.35 1.2319 -0.3302
    vertex 135.4836 1.2319 -0.3302
  endloop
endfacet
facet normal 1.41598376994025e-032 -0.894427190999916 -0.447213595499958
  outer loop
    vertex 135.4836 -0.847482280180714 -2.11503543963857
    vertex 133.6548 0.5969 -5.0038
    vertex 135.1788 0.5969 -5.0038
  endloop
endfacet
facet normal 1.41598376994025e-032 -0.894427190999916 -0.447213595499958
  outer loop
    vertex 133.6548 0.5969 -5.0038
    vertex 135.4836 -0.847482280180714 -2.11503543963857
    vertex 133.35 -0.847482280180714 -2.11503543963857
  endloop
endfacet
facet normal 1.41598376994025e-032 -0.894427190999916 -0.447213595499958
  outer loop
    vertex 133.35 -0.847482280180714 -2.11503543963857
    vertex 135.4836 -0.847482280180714 -2.11503543963857
    vertex 135.4836 -1.7399 -0.3302
  endloop
endfacet
facet normal 1.41598376994025e-032 -0.894427190999916 -0.447213595499958
  outer loop
    vertex 133.35 -0.847482280180714 -2.11503543963857
    vertex 135.4836 -1.7399 -0.3302
    vertex 133.35 -1.7399 -0.3302
  endloop
endfacet
facet normal 0.994479634766516 8.93196842386361e-019 -0.104929767152402
  outer loop
    vertex 135.1788 -4.0767 -5.0038
    vertex 135.4836 -4.7117 -2.11503543963857
    vertex 135.4836 -5.2959 -2.11503543963857
  endloop
endfacet
facet normal 0.994479634766516 8.93196842386361e-019 -0.104929767152402
  outer loop
    vertex 135.4836 -4.7117 -2.11503543963857
    vertex 135.1788 -4.0767 -5.0038
    vertex 135.4836 -2.63231771981929 -2.11503543963857
  endloop
endfacet
facet normal -1.58249780981455e-017 0.921306761430557 -0.388836535503468
  outer loop
    vertex 133.35 1.8161 -2.11503543963857
    vertex 135.1788 0.5969 -5.0038
    vertex 133.6548 0.5969 -5.0038
  endloop
endfacet
facet normal -1.58249780981455e-017 0.921306761430557 -0.388836535503468
  outer loop
    vertex 135.1788 0.5969 -5.0038
    vertex 133.35 1.8161 -2.11503543963857
    vertex 135.4836 1.8161 -2.11503543963857
  endloop
endfacet
facet normal 0.0 0.0 1.0
  outer loop
    vertex 135.4836 0.3302 -0.3302
    vertex 133.35 1.2319 -0.3302
    vertex 133.35 0.3302 -0.3302
  endloop
endfacet
facet normal 0.0 0.0 1.0
  outer loop
    vertex 133.35 1.2319 -0.3302
    vertex 135.4836 0.3302 -0.3302
    vertex 135.4836 1.2319 -0.3302
  endloop
endfacet
facet normal -0.130526192220045 -0.991444861373811 -3.09725237521064e-015
  outer loop
    vertex 170.960816314631 -3.88270065702965 3.8354
    vertex 170.4086 -3.81 -0.3302
    vertex 170.960816314631 -3.88270065702965 -0.3302
  endloop
endfacet
facet normal -0.130526192220045 -0.991444861373811 -3.09725237521064e-015
  outer loop
    vertex 170.4086 -3.81 -0.3302
    vertex 170.960816314631 -3.88270065702965 3.8354
    vertex 170.4086 -3.81 3.8354
  endloop
endfacet
facet normal -0.608761429008727 -0.79335334029123 0.0
  outer loop
    vertex 171.91728302834 -4.43491697166039 3.8354
    vertex 171.4754 -4.09584819848553 -0.3302
    vertex 171.91728302834 -4.43491697166039 -0.3302
  endloop
endfacet
facet normal -0.608761429008727 -0.79335334029123 0.0
  outer loop
    vertex 171.4754 -4.09584819848553 -0.3302
    vertex 171.91728302834 -4.43491697166039 3.8354
    vertex 171.4754 -4.09584819848553 3.8354
  endloop
endfacet
facet normal 3.4572778253337e-017 -0.921306761430557 -0.388836535503468
  outer loop
    vertex 2.1336 -5.2959 -2.11503543963857
    vertex 0.3048 -4.0767 -5.0038
    vertex 1.8288 -4.0767 -5.0038
  endloop
endfacet
facet normal 3.4572778253337e-017 -0.921306761430557 -0.388836535503468
  outer loop
    vertex 0.3048 -4.0767 -5.0038
    vertex 2.1336 -5.2959 -2.11503543963857
    vertex 0.0 -5.2959 -2.11503543963857
  endloop
endfacet
facet normal -0.994479634766516 0.0 -0.104929767152402
  outer loop
    vertex 0.0 -4.7117 -2.11503543963857
    vertex 0.3048 -4.0767 -5.0038
    vertex 0.0 -5.2959 -2.11503543963857
  endloop
endfacet
facet normal -0.994479634766516 0.0 -0.104929767152402
  outer loop
    vertex 0.3048 -4.0767 -5.0038
    vertex 0.0 -4.7117 -2.11503543963857
    vertex 0.0 -2.63231771981929 -2.11503543963857
  endloop
endfacet
facet normal 1.0 0.0 0.0
  outer loop
    vertex 2.1336 -2.63231771981929 -2.11503543963857
    vertex 2.1336 -4.7117 -0.3302
    vertex 2.1336 -4.7117 -2.11503543963857
  endloop
endfacet
facet normal 1.0 0.0 0.0
  outer loop
    vertex 2.1336 -4.7117 -0.3302
    vertex 2.1336 -2.63231771981929 -2.11503543963857
    vertex 2.1336 -3.81 -0.3302
  endloop
endfacet
facet normal 1.0 0.0 0.0
  outer loop
    vertex 2.1336 -3.81 -0.3302
    vertex 2.1336 -2.63231771981929 -2.11503543963857
    vertex 2.1336 -1.7399 -0.3302
  endloop
endfacet
facet normal -1.32196769036363e-032 -0.894427190999916 -0.447213595499958
  outer loop
    vertex 2.1336 -0.847482280180714 -2.11503543963857
    vertex 0.3048 0.5969 -5.0038
    vertex 1.8288 0.5969 -5.0038
  endloop
endfacet
facet normal -1.32196769036363e-032 -0.894427190999916 -0.447213595499958
  outer loop
    vertex 0.3048 0.5969 -5.0038
    vertex 2.1336 -0.847482280180714 -2.11503543963857
    vertex 0.0 -0.847482280180714 -2.11503543963857
  endloop
endfacet
facet normal -1.32196769036363e-032 -0.894427190999916 -0.447213595499958
  outer loop
    vertex 0.0 -0.847482280180714 -2.11503543963857
    vertex 2.1336 -0.847482280180714 -2.11503543963857
    vertex 2.1336 -1.7399 -0.3302
  endloop
endfacet
facet normal -1.32196769036363e-032 -0.894427190999916 -0.447213595499958
  outer loop
    vertex 0.0 -0.847482280180714 -2.11503543963857
    vertex 2.1336 -1.7399 -0.3302
    vertex 0.0 -1.7399 -0.3302
  endloop
endfacet
facet normal 0.994479634766516 5.35918105431816e-018 -0.104929767152401
  outer loop
    vertex 1.8288 0.5969 -5.0038
    vertex 2.1336 1.2319 -2.11503543963857
    vertex 2.1336 -0.847482280180714 -2.11503543963857
  endloop
endfacet
facet normal 0.994479634766516 5.35918105431816e-018 -0.104929767152401
  outer loop
    vertex 2.1336 1.2319 -2.11503543963857
    vertex 1.8288 0.5969 -5.0038
    vertex 2.1336 1.8161 -2.11503543963857
  endloop
endfacet
facet normal -0.991444861373814 0.130526192220024 0.0
  outer loop
    vertex 172.5422 2.4638 3.83531459814476
    vertex 172.46949934297 1.91158368536926 -0.3302
    vertex 172.46949934297 1.91158368536926 3.83531459814476
  endloop
endfacet
facet normal -0.991444861373814 0.130526192220024 0.0
  outer loop
    vertex 172.46949934297 1.91158368536926 -0.3302
    vertex 172.5422 2.4638 3.83531459814476
    vertex 172.5422 2.4638 -0.3302
  endloop
endfacet
facet normal 0.0 -1.0 0.0
  outer loop
    vertex 2.1336 -4.7117 -0.3302
    vertex 0.0 -4.7117 -2.11503543963857
    vertex 2.1336 -4.7117 -2.11503543963857
  endloop
endfacet
facet normal 0.0 -1.0 0.0
  outer loop
    vertex 0.0 -4.7117 -2.11503543963857
    vertex 2.1336 -4.7117 -0.3302
    vertex 0.0 -4.7117 -0.3302
  endloop
endfacet
facet normal -0.86602540378444 0.499999999999998 0.0
  outer loop
    vertex 172.681721144499 2.98450000000001 3.83531459814476
    vertex 172.577684844503 2.73333415356977 -0.3302
    vertex 172.577684844503 2.73333415356977 3.83531459814476
  endloop
endfacet
facet normal -0.965925826289064 0.258819045102536 0.0
  outer loop
    vertex 172.577684844503 2.73333415356977 -0.3302
    vertex 172.681721144499 2.98450000000001 3.83531459814476
    vertex 172.681721144499 2.98450000000001 -0.3302
  endloop
endfacet
facet normal -0.994479634766516 -8.93196842386361e-019 -0.104929767152402
  outer loop
    vertex 0.0 1.2319 -2.11503543963857
    vertex 0.3048 0.5969 -5.0038
    vertex 0.0 -0.847482280180714 -2.11503543963857
  endloop
endfacet
facet normal -0.994479634766516 -8.93196842386361e-019 -0.104929767152402
  outer loop
    vertex 0.3048 0.5969 -5.0038
    vertex 0.0 1.2319 -2.11503543963857
    vertex 0.0 1.8161 -2.11503543963857
  endloop
endfacet
facet normal 4.38003569833883e-017 0.894427190999916 -0.447213595499958
  outer loop
    vertex 0.0 -2.63231771981929 -2.11503543963857
    vertex 1.8288 -4.0767 -5.0038
    vertex 0.3048 -4.0767 -5.0038
  endloop
endfacet
facet normal 4.38003569833883e-017 0.894427190999916 -0.447213595499958
  outer loop
    vertex 1.8288 -4.0767 -5.0038
    vertex 0.0 -2.63231771981929 -2.11503543963857
    vertex 2.1336 -2.63231771981929 -2.11503543963857
  endloop
endfacet
facet normal 4.38003569833883e-017 0.894427190999916 -0.447213595499958
  outer loop
    vertex 2.1336 -2.63231771981929 -2.11503543963857
    vertex 0.0 -2.63231771981929 -2.11503543963857
    vertex 0.0 -1.7399 -0.3302
  endloop
endfacet
facet normal 4.38003569833883e-017 0.894427190999916 -0.447213595499958
  outer loop
    vertex 2.1336 -2.63231771981929 -2.11503543963857
    vertex 0.0 -1.7399 -0.3302
    vertex 2.1336 -1.7399 -0.3302
  endloop
endfacet
facet normal 0.0 0.0 1.0
  outer loop
    vertex 2.1336 -5.2959 -2.11503543963857
    vertex 0.0 -4.7117 -2.11503543963857
    vertex 0.0 -5.2959 -2.11503543963857
  endloop
endfacet
facet normal 0.0 0.0 1.0
  outer loop
    vertex 0.0 -4.7117 -2.11503543963857
    vertex 2.1336 -5.2959 -2.11503543963857
    vertex 2.1336 -4.7117 -2.11503543963857
  endloop
endfacet
facet normal -1.0 0.0 0.0
  outer loop
    vertex 0.0 -2.794 3.8354
    vertex 0.0 -3.81 -0.3302
    vertex 0.0 -3.81 3.8354
  endloop
endfacet
facet normal -1.0 0.0 0.0
  outer loop
    vertex 0.0 0.3302 3.8354
    vertex 0.0 -0.6858 0.6858
    vertex 0.0 -0.6858 3.8354
  endloop
endfacet
facet normal -1.0 0.0 0.0
  outer loop
    vertex 0.0 -3.81 -0.3302
    vertex 0.0 -4.7117 -2.11503543963857
    vertex 0.0 -4.7117 -0.3302
  endloop
endfacet
facet normal -1.0 0.0 0.0
  outer loop
    vertex 0.0 -4.7117 -2.11503543963857
    vertex 0.0 -3.81 -0.3302
    vertex 0.0 -2.63231771981929 -2.11503543963857
  endloop
endfacet
facet normal -1.0 0.0 0.0
  outer loop
    vertex 0.0 -2.63231771981929 -2.11503543963857
    vertex 0.0 -3.81 -0.3302
    vertex 0.0 -2.794 0.6858
  endloop
endfacet
facet normal -1.0 0.0 0.0
  outer loop
    vertex 0.0 -2.794 0.6858
    vertex 0.0 -3.81 -0.3302
    vertex 0.0 -2.794 3.8354
  endloop
endfacet
facet normal -1.0 0.0 0.0
  outer loop
    vertex 0.0 -2.63231771981929 -2.11503543963857
    vertex 0.0 -2.794 0.6858
    vertex 0.0 -1.7399 -0.3302
  endloop
endfacet
facet normal -1.0 0.0 0.0
  outer loop
    vertex 0.0 -1.7399 -0.3302
    vertex 0.0 -2.794 0.6858
    vertex 0.0 -0.6858 0.6858
  endloop
endfacet
facet normal -1.0 0.0 0.0
  outer loop
    vertex 0.0 -1.7399 -0.3302
    vertex 0.0 -0.6858 0.6858
    vertex 0.0 -0.847482280180714 -2.11503543963857
  endloop
endfacet
facet normal -1.0 0.0 0.0
  outer loop
    vertex 0.0 -0.847482280180714 -2.11503543963857
    vertex 0.0 -0.6858 0.6858
    vertex 0.0 1.2319 -2.11503543963857
  endloop
endfacet
facet normal -1.0 0.0 0.0
  outer loop
    vertex 0.0 1.2319 -2.11503543963857
    vertex 0.0 -0.6858 0.6858
    vertex 0.0 0.3302 -0.3302
  endloop
endfacet
facet normal -1.0 0.0 0.0
  outer loop
    vertex 0.0 0.3302 -0.3302
    vertex 0.0 -0.6858 0.6858
    vertex 0.0 0.3302 3.8354
  endloop
endfacet
facet normal -1.0 0.0 0.0
  outer loop
    vertex 0.0 1.2319 -2.11503543963857
    vertex 0.0 0.3302 -0.3302
    vertex 0.0 1.2319 -0.3302
  endloop
endfacet
facet normal -0.130526192220031 0.991444861373813 -2.9118656714073e-015
  outer loop
    vertex 170.4086 0.3302 3.8354
    vertex 170.960816314631 0.402900657029644 -0.3302
    vertex 170.4086 0.3302 -0.3302
  endloop
endfacet
facet normal -0.130526192220031 0.991444861373813 -2.9118656714073e-015
  outer loop
    vertex 170.960816314631 0.402900657029644 -0.3302
    vertex 170.4086 0.3302 3.8354
    vertex 170.960816314631 0.402900657029644 3.83531459814476
  endloop
endfacet
facet normal 0.0 1.0 0.0
  outer loop
    vertex 0.0 1.2319 -0.3302
    vertex 2.1336 1.2319 -2.11503543963857
    vertex 0.0 1.2319 -2.11503543963857
  endloop
endfacet
facet normal 0.0 1.0 0.0
  outer loop
    vertex 2.1336 1.2319 -2.11503543963857
    vertex 0.0 1.2319 -0.3302
    vertex 2.1336 1.2319 -0.3302
  endloop
endfacet
facet normal 0.0 0.0 1.0
  outer loop
    vertex 2.1336 1.2319 -2.11503543963857
    vertex 0.0 1.8161 -2.11503543963857
    vertex 0.0 1.2319 -2.11503543963857
  endloop
endfacet
facet normal 0.0 0.0 1.0
  outer loop
    vertex 0.0 1.8161 -2.11503543963857
    vertex 2.1336 1.2319 -2.11503543963857
    vertex 2.1336 1.8161 -2.11503543963857
  endloop
endfacet
facet normal 1.0 0.0 0.0
  outer loop
    vertex 2.1336 -0.847482280180714 -2.11503543963857
    vertex 2.1336 0.3302 -0.3302
    vertex 2.1336 -1.7399 -0.3302
  endloop
endfacet
facet normal 1.0 0.0 0.0
  outer loop
    vertex 2.1336 0.3302 -0.3302
    vertex 2.1336 -0.847482280180714 -2.11503543963857
    vertex 2.1336 1.2319 -2.11503543963857
  endloop
endfacet
facet normal 1.0 0.0 0.0
  outer loop
    vertex 2.1336 0.3302 -0.3302
    vertex 2.1336 1.2319 -2.11503543963857
    vertex 2.1336 1.2319 -0.3302
  endloop
endfacet
facet normal 0.0 0.0 -1.0
  outer loop
    vertex 168.275 0.3302 -0.3302
    vertex 135.4836 -1.7399 -0.3302
    vertex 135.4836 0.3302 -0.3302
  endloop
endfacet
facet normal 0.0 0.0 -1.0
  outer loop
    vertex 135.4836 -1.7399 -0.3302
    vertex 168.275 0.3302 -0.3302
    vertex 135.4836 -3.81 -0.3302
  endloop
endfacet
facet normal 0.0 0.0 -1.0
  outer loop
    vertex 135.4836 -3.81 -0.3302
    vertex 168.275 0.3302 -0.3302
    vertex 168.275 -3.81 -0.3302
  endloop
endfacet
facet normal 0.0 0.0 -1.0
  outer loop
    vertex 168.275 -3.81 -0.3302
    vertex 168.275 0.3302 -0.3302
    vertex 168.275 -1.7399 -0.3302
  endloop
endfacet
facet normal -0.382683432365092 0.923879532511286 -0.0
  outer loop
    vertex 170.960816314631 0.402900657029644 3.83531459814476
    vertex 171.4754 0.616048198485522 -0.3302
    vertex 170.960816314631 0.402900657029644 -0.3302
  endloop
endfacet
facet normal -0.382683432365092 0.923879532511286 -0.0
  outer loop
    vertex 171.4754 0.616048198485522 -0.3302
    vertex 170.960816314631 0.402900657029644 3.83531459814476
    vertex 171.4754 0.616048198485522 3.83531459814476
  endloop
endfacet
facet normal 0.499999999999995 0.866025403784441 0.0
  outer loop
    vertex 174.1043 3.36567885550112 3.83531459814476
    vertex 174.319981001928 3.20018100192768 -0.3302
    vertex 174.1043 3.36567885550112 -0.3302
  endloop
endfacet
facet normal 0.707106781186558 0.707106781186537 0.0
  outer loop
    vertex 174.319981001928 3.20018100192768 -0.3302
    vertex 174.1043 3.36567885550112 3.83531459814476
    vertex 174.319981001928 3.20018100192768 3.83531459814476
  endloop
endfacet
facet normal -0.965925826289064 0.258819045102536 0.0
  outer loop
    vertex 172.577684844503 2.73333415356977 3.83531459814476
    vertex 172.5422 2.4638 -0.3302
    vertex 172.5422 2.4638 3.83531459814476
  endloop
endfacet
facet normal -0.99144486137381 0.130526192220053 0.0
  outer loop
    vertex 172.5422 2.4638 -0.3302
    vertex 172.577684844503 2.73333415356977 3.83531459814476
    vertex 172.577684844503 2.73333415356977 -0.3302
  endloop
endfacet
facet normal 0.0 0.0 1.0
  outer loop
    vertex 2.1336 -4.7117 -0.3302
    vertex 0.0 -3.81 -0.3302
    vertex 0.0 -4.7117 -0.3302
  endloop
endfacet
facet normal 0.0 0.0 1.0
  outer loop
    vertex 0.0 -3.81 -0.3302
    vertex 2.1336 -4.7117 -0.3302
    vertex 2.1336 -3.81 -0.3302
  endloop
endfacet
facet normal -0.608761429008709 0.793353340291244 -0.0
  outer loop
    vertex 171.4754 0.616048198485522 3.83531459814476
    vertex 171.91728302834 0.955116971660382 -0.3302
    vertex 171.4754 0.616048198485522 -0.3302
  endloop
endfacet
facet normal -0.608761429008709 0.793353340291244 -0.0
  outer loop
    vertex 171.91728302834 0.955116971660382 -0.3302
    vertex 171.4754 0.616048198485522 3.83531459814476
    vertex 171.91728302834 0.955116971660382 3.83531459814476
  endloop
endfacet
facet normal -1.0 0.0 0.0
  outer loop
    vertex 168.275 0.3302 -0.3302
    vertex 168.275 -0.847482280180715 -2.11503543963857
    vertex 168.275 -1.7399 -0.3302
  endloop
endfacet
facet normal -1.0 0.0 0.0
  outer loop
    vertex 168.275 -0.847482280180715 -2.11503543963857
    vertex 168.275 0.3302 -0.3302
    vertex 168.275 1.2319 -2.11503543963857
  endloop
endfacet
facet normal -1.0 0.0 0.0
  outer loop
    vertex 168.275 1.2319 -2.11503543963857
    vertex 168.275 0.3302 -0.3302
    vertex 168.275 1.2319 -0.3302
  endloop
endfacet
facet normal 0.994479634766516 5.35918105431816e-018 -0.104929767152401
  outer loop
    vertex 170.1038 0.596899999999999 -5.0038
    vertex 170.4086 1.2319 -2.11503543963857
    vertex 170.4086 -0.847482280180715 -2.11503543963857
  endloop
endfacet
facet normal 0.994479634766516 5.35918105431816e-018 -0.104929767152401
  outer loop
    vertex 170.4086 1.2319 -2.11503543963857
    vertex 170.1038 0.596899999999999 -5.0038
    vertex 170.4086 1.8161 -2.11503543963857
  endloop
endfacet
facet normal 1.41598376994025e-032 -0.894427190999916 -0.447213595499958
  outer loop
    vertex 170.4086 -0.847482280180715 -2.11503543963857
    vertex 168.5798 0.596899999999999 -5.0038
    vertex 170.1038 0.596899999999999 -5.0038
  endloop
endfacet
facet normal 1.41598376994025e-032 -0.894427190999916 -0.447213595499958
  outer loop
    vertex 168.5798 0.596899999999999 -5.0038
    vertex 170.4086 -0.847482280180715 -2.11503543963857
    vertex 168.275 -0.847482280180715 -2.11503543963857
  endloop
endfacet
facet normal 1.41598376994025e-032 -0.894427190999916 -0.447213595499958
  outer loop
    vertex 168.275 -0.847482280180715 -2.11503543963857
    vertex 170.4086 -0.847482280180715 -2.11503543963857
    vertex 170.4086 -1.7399 -0.3302
  endloop
endfacet
facet normal 1.41598376994025e-032 -0.894427190999916 -0.447213595499958
  outer loop
    vertex 168.275 -0.847482280180715 -2.11503543963857
    vertex 170.4086 -1.7399 -0.3302
    vertex 168.275 -1.7399 -0.3302
  endloop
endfacet
facet normal -1.0 0.0 0.0
  outer loop
    vertex 168.275 -3.81 -0.3302
    vertex 168.275 -4.7117 -2.11503543963857
    vertex 168.275 -4.7117 -0.3302
  endloop
endfacet
facet normal -1.0 0.0 0.0
  outer loop
    vertex 168.275 -4.7117 -2.11503543963857
    vertex 168.275 -3.81 -0.3302
    vertex 168.275 -2.63231771981929 -2.11503543963857
  endloop
endfacet
facet normal -1.0 0.0 0.0
  outer loop
    vertex 168.275 -2.63231771981929 -2.11503543963857
    vertex 168.275 -3.81 -0.3302
    vertex 168.275 -1.7399 -0.3302
  endloop
endfacet
facet normal 1.0 -0.0 -0.0
  outer loop
    vertex 170.4086 -0.847482280180715 -2.11503543963857
    vertex 170.4086 0.3302 -0.3302
    vertex 170.4086 -1.7399 -0.3302
  endloop
endfacet
facet normal 1.0 -0.0 -0.0
  outer loop
    vertex 170.4086 0.3302 -0.3302
    vertex 170.4086 -0.847482280180715 -2.11503543963857
    vertex 170.4086 1.2319 -2.11503543963857
  endloop
endfacet
facet normal 1.0 -0.0 -0.0
  outer loop
    vertex 170.4086 0.3302 -0.3302
    vertex 170.4086 1.2319 -2.11503543963857
    vertex 170.4086 1.2319 -0.3302
  endloop
endfacet
facet normal 0.0 0.0 1.0
  outer loop
    vertex 170.4086 1.2319 -2.11503543963857
    vertex 168.275 1.8161 -2.11503543963857
    vertex 168.275 1.2319 -2.11503543963857
  endloop
endfacet
facet normal 0.0 0.0 1.0
  outer loop
    vertex 168.275 1.8161 -2.11503543963857
    vertex 170.4086 1.2319 -2.11503543963857
    vertex 170.4086 1.8161 -2.11503543963857
  endloop
endfacet
facet normal -0.0 1.0 -0.0
  outer loop
    vertex 168.275 1.2319 -0.3302
    vertex 170.4086 1.2319 -2.11503543963857
    vertex 168.275 1.2319 -2.11503543963857
  endloop
endfacet
facet normal -0.0 1.0 -0.0
  outer loop
    vertex 170.4086 1.2319 -2.11503543963857
    vertex 168.275 1.2319 -0.3302
    vertex 170.4086 1.2319 -0.3302
  endloop
endfacet
facet normal 0.25881904510252 0.965925826289069 0.0
  outer loop
    vertex 173.85313415357 3.46971515549745 3.83531459814476
    vertex 174.1043 3.36567885550112 -0.3302
    vertex 173.85313415357 3.46971515549745 -0.3302
  endloop
endfacet
facet normal 0.499999999999995 0.866025403784441 0.0
  outer loop
    vertex 174.1043 3.36567885550112 -0.3302
    vertex 173.85313415357 3.46971515549745 3.83531459814476
    vertex 174.1043 3.36567885550112 3.83531459814476
  endloop
endfacet
facet normal -0.793353340291234 -0.608761429008723 0.0
  outer loop
    vertex 171.91728302834 -4.43491697166039 3.8354
    vertex 172.256351801514 -4.87680000000001 -0.3302
    vertex 172.256351801514 -4.87680000000001 3.8354
  endloop
endfacet
facet normal -0.793353340291234 -0.608761429008723 0.0
  outer loop
    vertex 172.256351801514 -4.87680000000001 -0.3302
    vertex 171.91728302834 -4.43491697166039 3.8354
    vertex 171.91728302834 -4.43491697166039 -0.3302
  endloop
endfacet
facet normal 1.2921109348688e-015 1.0 0.0
  outer loop
    vertex 173.5836 3.50520000000001 3.83531459814476
    vertex 173.85313415357 3.46971515549745 -0.3302
    vertex 173.5836 3.50520000000001 -0.3302
  endloop
endfacet
facet normal 0.25881904510252 0.965925826289069 0.0
  outer loop
    vertex 173.85313415357 3.46971515549745 -0.3302
    vertex 173.5836 3.50520000000001 3.83531459814476
    vertex 173.85313415357 3.46971515549745 3.83531459814476
  endloop
endfacet
facet normal 0.488762674664772 -0.872416785633185 -7.86393811690338e-031
  outer loop
    vertex 173.169103518025 0.0157549678049736 3.83531459814476
    vertex 172.321562049621 -0.459071562138153 0.6858
    vertex 173.169103518025 0.0157549678049736 0.6858
  endloop
endfacet
facet normal 0.488762674664772 -0.872416785633185 -7.86393811690338e-031
  outer loop
    vertex 172.321562049621 -0.459071562138153 0.6858
    vertex 173.169103518025 0.0157549678049736 3.83531459814476
    vertex 172.321562049621 -0.459071562138153 3.83531459814476
  endloop
endfacet
facet normal 0.0 0.0 -1.0
  outer loop
    vertex 170.960816314631 0.402900657029644 -0.3302
    vertex 170.4086 -1.7399 -0.3302
    vertex 170.4086 0.3302 -0.3302
  endloop
endfacet
facet normal 0.0 0.0 -1.0
  outer loop
    vertex 170.4086 -1.7399 -0.3302
    vertex 170.960816314631 0.402900657029644 -0.3302
    vertex 170.4086 -3.81 -0.3302
  endloop
endfacet
facet normal 0.0 0.0 -1.0
  outer loop
    vertex 170.4086 -3.81 -0.3302
    vertex 170.960816314631 0.402900657029644 -0.3302
    vertex 170.960816314631 -3.88270065702965 -0.3302
  endloop
endfacet
facet normal 0.0 0.0 -1.0
  outer loop
    vertex 170.960816314631 -3.88270065702965 -0.3302
    vertex 170.960816314631 0.402900657029644 -0.3302
    vertex 171.4754 0.616048198485522 -0.3302
  endloop
endfacet
facet normal 0.0 0.0 -1.0
  outer loop
    vertex 170.960816314631 -3.88270065702965 -0.3302
    vertex 171.4754 0.616048198485522 -0.3302
    vertex 171.4754 -4.09584819848553 -0.3302
  endloop
endfacet
facet normal 0.0 0.0 -1.0
  outer loop
    vertex 171.4754 -4.09584819848553 -0.3302
    vertex 171.4754 0.616048198485522 -0.3302
    vertex 171.91728302834 0.955116971660382 -0.3302
  endloop
endfacet
facet normal 0.0 0.0 -1.0
  outer loop
    vertex 171.4754 -4.09584819848553 -0.3302
    vertex 171.91728302834 0.955116971660382 -0.3302
    vertex 171.91728302834 -4.43491697166039 -0.3302
  endloop
endfacet
facet normal 0.0 0.0 -1.0
  outer loop
    vertex 171.91728302834 -4.43491697166039 -0.3302
    vertex 171.91728302834 0.955116971660382 -0.3302
    vertex 172.256351801514 -4.87680000000001 -0.3302
  endloop
endfacet
facet normal 0.0 0.0 -1.0
  outer loop
    vertex 172.256351801514 -4.87680000000001 -0.3302
    vertex 171.91728302834 0.955116971660382 -0.3302
    vertex 172.256351801514 1.397 -0.3302
  endloop
endfacet
facet normal 0.0 0.0 -1.0
  outer loop
    vertex 172.256351801514 -4.87680000000001 -0.3302
    vertex 172.256351801514 1.397 -0.3302
    vertex 172.46949934297 -5.39138368536926 -0.3302
  endloop
endfacet
facet normal 0.0 0.0 -1.0
  outer loop
    vertex 172.46949934297 -5.39138368536926 -0.3302
    vertex 172.256351801514 1.397 -0.3302
    vertex 172.46949934297 1.91158368536926 -0.3302
  endloop
endfacet
facet normal 0.0 0.0 -1.0
  outer loop
    vertex 172.46949934297 -5.39138368536926 -0.3302
    vertex 172.46949934297 1.91158368536926 -0.3302
    vertex 172.5422 -5.9436 -0.3302
  endloop
endfacet
facet normal 0.0 0.0 -1.0
  outer loop
    vertex 172.5422 -5.9436 -0.3302
    vertex 172.46949934297 1.91158368536926 -0.3302
    vertex 172.5422 2.4638 -0.3302
  endloop
endfacet
facet normal 0.0 0.0 -1.0
  outer loop
    vertex 172.5422 -5.9436 -0.3302
    vertex 172.5422 2.4638 -0.3302
    vertex 172.577684844503 2.73333415356977 -0.3302
  endloop
endfacet
facet normal 0.0 0.0 -1.0
  outer loop
    vertex 172.5422 -5.9436 -0.3302
    vertex 172.577684844503 2.73333415356977 -0.3302
    vertex 172.577684844503 -6.21313415356977 -0.3302
  endloop
endfacet
facet normal 0.0 0.0 -1.0
  outer loop
    vertex 172.577684844503 -6.21313415356977 -0.3302
    vertex 172.577684844503 2.73333415356977 -0.3302
    vertex 172.681721144499 2.98450000000001 -0.3302
  endloop
endfacet
facet normal 0.0 0.0 -1.0
  outer loop
    vertex 172.577684844503 -6.21313415356977 -0.3302
    vertex 172.681721144499 2.98450000000001 -0.3302
    vertex 172.681721144499 -6.46430000000001 -0.3302
  endloop
endfacet
facet normal 0.0 0.0 -1.0
  outer loop
    vertex 172.681721144499 -6.46430000000001 -0.3302
    vertex 172.681721144499 2.98450000000001 -0.3302
    vertex 172.847218998072 3.20018100192768 -0.3302
  endloop
endfacet
facet normal 0.0 0.0 -1.0
  outer loop
    vertex 172.681721144499 -6.46430000000001 -0.3302
    vertex 172.847218998072 3.20018100192768 -0.3302
    vertex 172.847218998072 -6.67998100192768 -0.3302
  endloop
endfacet
facet normal 0.0 0.0 -1.0
  outer loop
    vertex 172.847218998072 -6.67998100192768 -0.3302
    vertex 172.847218998072 3.20018100192768 -0.3302
    vertex 173.0629 3.36567885550112 -0.3302
  endloop
endfacet
facet normal 0.0 0.0 -1.0
  outer loop
    vertex 172.847218998072 -6.67998100192768 -0.3302
    vertex 173.0629 3.36567885550112 -0.3302
    vertex 173.0629 -6.84547885550112 -0.3302
  endloop
endfacet
facet normal 0.0 0.0 -1.0
  outer loop
    vertex 173.0629 -6.84547885550112 -0.3302
    vertex 173.0629 3.36567885550112 -0.3302
    vertex 173.31406584643 3.46971515549745 -0.3302
  endloop
endfacet
facet normal 0.0 0.0 -1.0
  outer loop
    vertex 173.0629 -6.84547885550112 -0.3302
    vertex 173.31406584643 3.46971515549745 -0.3302
    vertex 173.31406584643 -6.94951515549745 -0.3302
  endloop
endfacet
facet normal 0.0 0.0 -1.0
  outer loop
    vertex 173.31406584643 -6.94951515549745 -0.3302
    vertex 173.31406584643 3.46971515549745 -0.3302
    vertex 173.5836 3.50520000000001 -0.3302
  endloop
endfacet
facet normal 0.0 0.0 -1.0
  outer loop
    vertex 173.31406584643 -6.94951515549745 -0.3302
    vertex 173.5836 3.50520000000001 -0.3302
    vertex 173.5836 -6.98500000000001 -0.3302
  endloop
endfacet
facet normal 0.0 0.0 -1.0
  outer loop
    vertex 173.5836 -6.98500000000001 -0.3302
    vertex 173.5836 3.50520000000001 -0.3302
    vertex 173.85313415357 3.46971515549745 -0.3302
  endloop
endfacet
facet normal 0.0 0.0 -1.0
  outer loop
    vertex 173.5836 -6.98500000000001 -0.3302
    vertex 173.85313415357 3.46971515549745 -0.3302
    vertex 173.85313415357 -6.94951515549745 -0.3302
  endloop
endfacet
facet normal 0.0 0.0 -1.0
  outer loop
    vertex 173.85313415357 -6.94951515549745 -0.3302
    vertex 173.85313415357 3.46971515549745 -0.3302
    vertex 174.1043 3.36567885550112 -0.3302
  endloop
endfacet
facet normal 0.0 0.0 -1.0
  outer loop
    vertex 173.85313415357 -6.94951515549745 -0.3302
    vertex 174.1043 3.36567885550112 -0.3302
    vertex 174.1043 -6.84547885550112 -0.3302
  endloop
endfacet
facet normal 0.0 0.0 -1.0
  outer loop
    vertex 174.1043 -6.84547885550112 -0.3302
    vertex 174.1043 3.36567885550112 -0.3302
    vertex 174.319981001928 3.20018100192768 -0.3302
  endloop
endfacet
facet normal 0.0 0.0 -1.0
  outer loop
    vertex 174.1043 -6.84547885550112 -0.3302
    vertex 174.319981001928 3.20018100192768 -0.3302
    vertex 174.319981001928 -6.67998100192768 -0.3302
  endloop
endfacet
facet normal 0.0 0.0 -1.0
  outer loop
    vertex 174.319981001928 -6.67998100192768 -0.3302
    vertex 174.319981001928 3.20018100192768 -0.3302
    vertex 174.485478855501 2.98450000000001 -0.3302
  endloop
endfacet
facet normal 0.0 0.0 -1.0
  outer loop
    vertex 174.319981001928 -6.67998100192768 -0.3302
    vertex 174.485478855501 2.98450000000001 -0.3302
    vertex 174.485478855501 -6.46430000000001 -0.3302
  endloop
endfacet
facet normal 0.0 0.0 -1.0
  outer loop
    vertex 174.485478855501 -6.46430000000001 -0.3302
    vertex 174.485478855501 2.98450000000001 -0.3302
    vertex 174.589515155497 2.73333415356977 -0.3302
  endloop
endfacet
facet normal 0.0 0.0 -1.0
  outer loop
    vertex 174.485478855501 -6.46430000000001 -0.3302
    vertex 174.589515155497 2.73333415356977 -0.3302
    vertex 174.589515155497 -6.21313415356977 -0.3302
  endloop
endfacet
facet normal 0.0 0.0 -1.0
  outer loop
    vertex 174.589515155497 -6.21313415356977 -0.3302
    vertex 174.589515155497 2.73333415356977 -0.3302
    vertex 174.625 2.4638 -0.3302
  endloop
endfacet
facet normal 0.0 0.0 -1.0
  outer loop
    vertex 174.589515155497 -6.21313415356977 -0.3302
    vertex 174.625 2.4638 -0.3302
    vertex 174.625 -5.9436 -0.3302
  endloop
endfacet
facet normal -0.258819045102519 0.965925826289069 0.0
  outer loop
    vertex 173.31406584643 3.46971515549745 3.83531459814476
    vertex 173.5836 3.50520000000001 -0.3302
    vertex 173.31406584643 3.46971515549745 -0.3302
  endloop
endfacet
facet normal 1.2921109348688e-015 1.0 0.0
  outer loop
    vertex 173.5836 3.50520000000001 -0.3302
    vertex 173.31406584643 3.46971515549745 3.83531459814476
    vertex 173.5836 3.50520000000001 3.83531459814476
  endloop
endfacet
facet normal -0.991444861373809 -0.130526192220064 0.0
  outer loop
    vertex 172.46949934297 -5.39138368536926 3.8354
    vertex 172.5422 -5.9436 -0.3302
    vertex 172.5422 -5.9436 3.8354
  endloop
endfacet
facet normal -0.991444861373809 -0.130526192220064 0.0
  outer loop
    vertex 172.5422 -5.9436 -0.3302
    vertex 172.46949934297 -5.39138368536926 3.8354
    vertex 172.46949934297 -5.39138368536926 -0.3302
  endloop
endfacet
facet normal -0.923879532511288 -0.382683432365088 0.0
  outer loop
    vertex 172.256351801514 -4.87680000000001 3.8354
    vertex 172.46949934297 -5.39138368536926 -0.3302
    vertex 172.46949934297 -5.39138368536926 3.8354
  endloop
endfacet
facet normal -0.923879532511288 -0.382683432365088 0.0
  outer loop
    vertex 172.46949934297 -5.39138368536926 -0.3302
    vertex 172.256351801514 -4.87680000000001 3.8354
    vertex 172.256351801514 -4.87680000000001 -0.3302
  endloop
endfacet
facet normal -0.793353340291236 0.60876142900872 0.0
  outer loop
    vertex 172.256351801514 1.397 3.83531459814476
    vertex 171.91728302834 0.955116971660382 -0.3302
    vertex 171.91728302834 0.955116971660382 3.83531459814476
  endloop
endfacet
facet normal -0.793353340291236 0.60876142900872 0.0
  outer loop
    vertex 171.91728302834 0.955116971660382 -0.3302
    vertex 172.256351801514 1.397 3.83531459814476
    vertex 172.256351801514 1.397 -0.3302
  endloop
endfacet
facet normal -0.499999999999996 0.866025403784441 0.0
  outer loop
    vertex 173.0629 3.36567885550112 3.83531459814476
    vertex 173.31406584643 3.46971515549745 -0.3302
    vertex 173.0629 3.36567885550112 -0.3302
  endloop
endfacet
facet normal -0.258819045102519 0.965925826289069 0.0
  outer loop
    vertex 173.31406584643 3.46971515549745 -0.3302
    vertex 173.0629 3.36567885550112 3.83531459814476
    vertex 173.31406584643 3.46971515549745 3.83531459814476
  endloop
endfacet
facet normal 0.991444861373774 0.130526192220331 -1.04118420332262e-014
  outer loop
    vertex 174.625 2.4638 -0.3302
    vertex 174.625 2.46379999999998 3.83531459814476
    vertex 174.625 2.46379999999998 0.6858
  endloop
endfacet
facet normal 0.991444861373774 0.130526192220331 -1.04118420332262e-014
  outer loop
    vertex 174.625 2.46379999999998 3.83531459814476
    vertex 174.625 2.4638 -0.3302
    vertex 174.589515155497 2.73333415356977 3.83531459814476
  endloop
endfacet
facet normal 0.965925826289028 0.258819045102672 -5.25084270384877e-015
  outer loop
    vertex 174.589515155497 2.73333415356977 3.83531459814476
    vertex 174.625 2.4638 -0.3302
    vertex 174.589515155497 2.73333415356977 -0.3302
  endloop
endfacet
facet normal 0.697906569773847 -0.716188815792667 1.12123721544164e-030
  outer loop
    vertex 173.864871562138 0.693762049621325 3.83531459814476
    vertex 173.169103518025 0.0157549678049736 0.6858
    vertex 173.864871562138 0.693762049621325 0.6858
  endloop
endfacet
facet normal 0.697906569773847 -0.716188815792667 1.12123721544164e-030
  outer loop
    vertex 173.169103518025 0.0157549678049736 0.6858
    vertex 173.864871562138 0.693762049621325 3.83531459814476
    vertex 173.169103518025 0.0157549678049736 3.83531459814476
  endloop
endfacet
facet normal -0.0129275001353134 -0.999916436378686 6.47035572936213e-016
  outer loop
    vertex 171.38000570737 -0.698358896880372 3.83531459814483
    vertex 170.4086 -0.6858 0.6858
    vertex 171.38000570737 -0.698358896880373 0.6858
  endloop
endfacet
facet normal -0.0129275001353134 -0.999916436378686 6.47035572936213e-016
  outer loop
    vertex 170.4086 -0.6858 0.6858
    vertex 171.38000570737 -0.698358896880372 3.83531459814483
    vertex 170.4086 -0.685799999999998 3.8354000000001
  endloop
endfacet
facet normal -0.707106781186558 0.707106781186537 0.0
  outer loop
    vertex 172.847218998072 3.20018100192768 3.83531459814476
    vertex 173.0629 3.36567885550112 -0.3302
    vertex 172.847218998072 3.20018100192768 -0.3302
  endloop
endfacet
facet normal -0.499999999999996 0.866025403784441 0.0
  outer loop
    vertex 173.0629 3.36567885550112 -0.3302
    vertex 172.847218998072 3.20018100192768 3.83531459814476
    vertex 173.0629 3.36567885550112 3.83531459814476
  endloop
endfacet
facet normal -0.38268343236509 -0.923879532511287 0.0
  outer loop
    vertex 171.4754 -4.09584819848553 3.8354
    vertex 170.960816314631 -3.88270065702965 -0.3302
    vertex 171.4754 -4.09584819848553 -0.3302
  endloop
endfacet
facet normal -0.38268343236509 -0.923879532511287 0.0
  outer loop
    vertex 170.960816314631 -3.88270065702965 -0.3302
    vertex 171.4754 -4.09584819848553 3.8354
    vertex 170.960816314631 -3.88270065702965 3.8354
  endloop
endfacet
facet normal 0.962499226788527 -0.271284423495872 -0.0
  outer loop
    vertex 174.625 2.46379999999998 0.6858
    vertex 174.361450739565 1.52874462114478 3.83531459814476
    vertex 174.361450739565 1.52874462114478 0.6858
  endloop
endfacet
facet normal 0.962499226788527 -0.271284423495872 -0.0
  outer loop
    vertex 174.361450739565 1.52874462114478 3.83531459814476
    vertex 174.625 2.46379999999998 0.6858
    vertex 174.625 2.46379999999998 3.83531459814476
  endloop
endfacet
facet normal -0.707106781186558 0.707106781186537 0.0
  outer loop
    vertex 172.847218998072 3.20018100192768 3.83531459814476
    vertex 172.681721144499 2.98450000000001 -0.3302
    vertex 172.681721144499 2.98450000000001 3.83531459814476
  endloop
endfacet
facet normal -0.86602540378444 0.499999999999998 0.0
  outer loop
    vertex 172.681721144499 2.98450000000001 -0.3302
    vertex 172.847218998072 3.20018100192768 3.83531459814476
    vertex 172.847218998072 3.20018100192768 -0.3302
  endloop
endfacet
facet normal -0.923879532511288 0.382683432365086 0.0
  outer loop
    vertex 172.46949934297 1.91158368536926 3.83531459814476
    vertex 172.256351801514 1.397 -0.3302
    vertex 172.256351801514 1.397 3.83531459814476
  endloop
endfacet
facet normal -0.923879532511288 0.382683432365086 0.0
  outer loop
    vertex 172.256351801514 1.397 -0.3302
    vertex 172.46949934297 1.91158368536926 3.83531459814476
    vertex 172.46949934297 1.91158368536926 -0.3302
  endloop
endfacet
facet normal 0.246310410995797 -0.969190993269687 2.87795023267781e-015
  outer loop
    vertex 172.321562049621 -0.459071562138153 3.83531459814476
    vertex 171.38000570737 -0.698358896880373 0.6858
    vertex 172.321562049621 -0.459071562138153 0.6858
  endloop
endfacet
facet normal 0.246310410995797 -0.969190993269687 2.87795023267781e-015
  outer loop
    vertex 171.38000570737 -0.698358896880373 0.6858
    vertex 172.321562049621 -0.459071562138153 3.83531459814476
    vertex 171.38000570737 -0.698358896880372 3.83531459814483
  endloop
endfacet
facet normal 0.859489285497887 -0.511153761713959 -0.0
  outer loop
    vertex 174.361450739565 1.52874462114478 0.6858
    vertex 173.864871562138 0.693762049621325 3.83531459814476
    vertex 173.864871562138 0.693762049621325 0.6858
  endloop
endfacet
facet normal 0.859489285497887 -0.511153761713959 -0.0
  outer loop
    vertex 173.864871562138 0.693762049621325 3.83531459814476
    vertex 174.361450739565 1.52874462114478 0.6858
    vertex 174.361450739565 1.52874462114478 3.83531459814476
  endloop
endfacet
facet normal 0.499999999999995 -0.866025403784441 0.0
  outer loop
    vertex 174.1043 -6.84547885550112 3.8354
    vertex 173.85313415357 -6.94951515549745 -0.3302
    vertex 174.1043 -6.84547885550112 -0.3302
  endloop
endfacet
facet normal 0.258819045102519 -0.965925826289069 0.0
  outer loop
    vertex 173.85313415357 -6.94951515549745 -0.3302
    vertex 174.1043 -6.84547885550112 3.8354
    vertex 173.85313415357 -6.94951515549745 3.8354
  endloop
endfacet
facet normal 0.258819045102519 -0.965925826289069 0.0
  outer loop
    vertex 173.85313415357 -6.94951515549745 3.8354
    vertex 173.5836 -6.98500000000001 -0.3302
    vertex 173.85313415357 -6.94951515549745 -0.3302
  endloop
endfacet
facet normal 0.0 -1.0 0.0
  outer loop
    vertex 173.5836 -6.98500000000001 -0.3302
    vertex 173.85313415357 -6.94951515549745 3.8354
    vertex 173.5836 -6.98500000000001 3.8354
  endloop
endfacet
facet normal 0.0 -1.0 0.0
  outer loop
    vertex 173.5836 -6.98500000000001 3.8354
    vertex 173.31406584643 -6.94951515549745 -0.3302
    vertex 173.5836 -6.98500000000001 -0.3302
  endloop
endfacet
facet normal -0.258819045102519 -0.965925826289069 0.0
  outer loop
    vertex 173.31406584643 -6.94951515549745 -0.3302
    vertex 173.5836 -6.98500000000001 3.8354
    vertex 173.31406584643 -6.94951515549745 3.8354
  endloop
endfacet
facet normal -0.258819045102519 -0.965925826289069 0.0
  outer loop
    vertex 173.31406584643 -6.94951515549745 3.8354
    vertex 173.0629 -6.84547885550112 -0.3302
    vertex 173.31406584643 -6.94951515549745 -0.3302
  endloop
endfacet
facet normal -0.499999999999995 -0.866025403784441 0.0
  outer loop
    vertex 173.0629 -6.84547885550112 -0.3302
    vertex 173.31406584643 -6.94951515549745 3.8354
    vertex 173.0629 -6.84547885550112 3.8354
  endloop
endfacet
facet normal -0.499999999999995 -0.866025403784441 0.0
  outer loop
    vertex 173.0629 -6.84547885550112 3.8354
    vertex 172.847218998072 -6.67998100192768 -0.3302
    vertex 173.0629 -6.84547885550112 -0.3302
  endloop
endfacet
facet normal -0.707106781186558 -0.707106781186537 0.0
  outer loop
    vertex 172.847218998072 -6.67998100192768 -0.3302
    vertex 173.0629 -6.84547885550112 3.8354
    vertex 172.847218998072 -6.67998100192768 3.8354
  endloop
endfacet
facet normal -0.86602540378444 -0.499999999999998 0.0
  outer loop
    vertex 172.681721144499 -6.46430000000001 3.8354
    vertex 172.847218998072 -6.67998100192768 -0.3302
    vertex 172.847218998072 -6.67998100192768 3.8354
  endloop
endfacet
facet normal -0.707106781186558 -0.707106781186537 0.0
  outer loop
    vertex 172.847218998072 -6.67998100192768 -0.3302
    vertex 172.681721144499 -6.46430000000001 3.8354
    vertex 172.681721144499 -6.46430000000001 -0.3302
  endloop
endfacet
facet normal -0.965925826289064 -0.258819045102536 0.0
  outer loop
    vertex 172.577684844503 -6.21313415356977 3.8354
    vertex 172.681721144499 -6.46430000000001 -0.3302
    vertex 172.681721144499 -6.46430000000001 3.8354
  endloop
endfacet
facet normal -0.86602540378444 -0.499999999999998 0.0
  outer loop
    vertex 172.681721144499 -6.46430000000001 -0.3302
    vertex 172.577684844503 -6.21313415356977 3.8354
    vertex 172.577684844503 -6.21313415356977 -0.3302
  endloop
endfacet
facet normal -0.99144486137381 -0.130526192220053 0.0
  outer loop
    vertex 172.5422 -5.9436 3.8354
    vertex 172.577684844503 -6.21313415356977 -0.3302
    vertex 172.577684844503 -6.21313415356977 3.8354
  endloop
endfacet
facet normal -0.965925826289064 -0.258819045102536 0.0
  outer loop
    vertex 172.577684844503 -6.21313415356977 -0.3302
    vertex 172.5422 -5.9436 3.8354
    vertex 172.5422 -5.9436 -0.3302
  endloop
endfacet
facet normal 0.965925826289097 -0.258819045102415 3.38989879224775e-014
  outer loop
    vertex 174.589515155497 -6.21313415356977 -0.3302
    vertex 174.485478855501 -6.46430000000001 3.8354
    vertex 174.485478855501 -6.46430000000001 -0.3302
  endloop
endfacet
facet normal 0.86602540378444 -0.499999999999998 0.0
  outer loop
    vertex 174.485478855501 -6.46430000000001 3.8354
    vertex 174.589515155497 -6.21313415356977 -0.3302
    vertex 174.589515155497 -6.21313415356977 3.8354
  endloop
endfacet
facet normal 0.86602540378444 -0.499999999999998 0.0
  outer loop
    vertex 174.485478855501 -6.46430000000001 -0.3302
    vertex 174.319981001928 -6.67998100192768 3.8354
    vertex 174.319981001928 -6.67998100192768 -0.3302
  endloop
endfacet
facet normal 0.707106781186558 -0.707106781186537 0.0
  outer loop
    vertex 174.319981001928 -6.67998100192768 3.8354
    vertex 174.485478855501 -6.46430000000001 -0.3302
    vertex 174.485478855501 -6.46430000000001 3.8354
  endloop
endfacet
facet normal 0.707106781186558 -0.707106781186537 0.0
  outer loop
    vertex 174.319981001928 -6.67998100192768 3.8354
    vertex 174.1043 -6.84547885550112 -0.3302
    vertex 174.319981001928 -6.67998100192768 -0.3302
  endloop
endfacet
facet normal 0.499999999999995 -0.866025403784441 0.0
  outer loop
    vertex 174.1043 -6.84547885550112 -0.3302
    vertex 174.319981001928 -6.67998100192768 3.8354
    vertex 174.1043 -6.84547885550112 3.8354
  endloop
endfacet
facet normal -0.0 -0.0 1.0
  outer loop
    vertex 170.4086 -2.794 0.6858
    vertex 0.0 -0.6858 0.6858
    vertex 0.0 -2.794 0.6858
  endloop
endfacet
facet normal -0.0 -0.0 1.0
  outer loop
    vertex 0.0 -0.6858 0.6858
    vertex 170.4086 -2.794 0.6858
    vertex 170.4086 -0.6858 0.6858
  endloop
endfacet
facet normal -0.0 -0.0 1.0
  outer loop
    vertex 170.4086 -0.6858 0.6858
    vertex 170.4086 -2.794 0.6858
    vertex 171.38000570737 -2.78144110311946 0.6858
  endloop
endfacet
facet normal -0.0 -0.0 1.0
  outer loop
    vertex 170.4086 -0.6858 0.6858
    vertex 171.38000570737 -2.78144110311946 0.6858
    vertex 171.38000570737 -0.698358896880373 0.6858
  endloop
endfacet
facet normal -0.0 -0.0 1.0
  outer loop
    vertex 171.38000570737 -0.698358896880373 0.6858
    vertex 171.38000570737 -2.78144110311946 0.6858
    vertex 172.321562049621 -3.02072843786169 0.6858
  endloop
endfacet
facet normal -0.0 -0.0 1.0
  outer loop
    vertex 171.38000570737 -0.698358896880373 0.6858
    vertex 172.321562049621 -3.02072843786169 0.6858
    vertex 172.321562049621 -0.459071562138153 0.6858
  endloop
endfacet
facet normal -0.0 -0.0 1.0
  outer loop
    vertex 172.321562049621 -0.459071562138153 0.6858
    vertex 172.321562049621 -3.02072843786169 0.6858
    vertex 173.169103518025 -3.49555496780481 0.6858
  endloop
endfacet
facet normal -0.0 -0.0 1.0
  outer loop
    vertex 172.321562049621 -0.459071562138153 0.6858
    vertex 173.169103518025 -3.49555496780481 0.6858
    vertex 173.169103518025 0.0157549678049736 0.6858
  endloop
endfacet
facet normal -0.0 -0.0 1.0
  outer loop
    vertex 173.169103518025 0.0157549678049736 0.6858
    vertex 173.169103518025 -3.49555496780481 0.6858
    vertex 173.864871562138 -4.17356204962115 0.6858
  endloop
endfacet
facet normal -0.0 -0.0 1.0
  outer loop
    vertex 173.169103518025 0.0157549678049736 0.6858
    vertex 173.864871562138 -4.17356204962115 0.6858
    vertex 173.864871562138 0.693762049621325 0.6858
  endloop
endfacet
facet normal -0.0 -0.0 1.0
  outer loop
    vertex 173.864871562138 0.693762049621325 0.6858
    vertex 173.864871562138 -4.17356204962115 0.6858
    vertex 174.361450739565 -5.00854462114461 0.6858
  endloop
endfacet
facet normal -0.0 -0.0 1.0
  outer loop
    vertex 173.864871562138 0.693762049621325 0.6858
    vertex 174.361450739565 -5.00854462114461 0.6858
    vertex 174.361450739565 1.52874462114478 0.6858
  endloop
endfacet
facet normal -0.0 -0.0 1.0
  outer loop
    vertex 174.361450739565 1.52874462114478 0.6858
    vertex 174.361450739565 -5.00854462114461 0.6858
    vertex 174.625 -5.94359999999981 0.6858
  endloop
endfacet
facet normal -0.0 -0.0 1.0
  outer loop
    vertex 174.361450739565 1.52874462114478 0.6858
    vertex 174.625 -5.94359999999981 0.6858
    vertex 174.625 2.46379999999998 0.6858
  endloop
endfacet
facet normal 0.86602540378444 0.499999999999998 0.0
  outer loop
    vertex 174.485478855501 2.98450000000001 -0.3302
    vertex 174.589515155497 2.73333415356977 3.83531459814476
    vertex 174.589515155497 2.73333415356977 -0.3302
  endloop
endfacet
facet normal 0.965925826289028 0.258819045102672 -5.25084270384877e-015
  outer loop
    vertex 174.589515155497 2.73333415356977 3.83531459814476
    vertex 174.485478855501 2.98450000000001 -0.3302
    vertex 174.485478855501 2.98450000000001 3.83531459814476
  endloop
endfacet
facet normal 0.962499226788521 0.271284423495894 0.0
  outer loop
    vertex 174.361450739565 -5.00854462114461 0.6858
    vertex 174.625 -5.94359999999981 3.8354
    vertex 174.625 -5.94359999999981 0.6858
  endloop
endfacet
facet normal 0.962499226788521 0.271284423495894 0.0
  outer loop
    vertex 174.625 -5.94359999999981 3.8354
    vertex 174.361450739565 -5.00854462114461 0.6858
    vertex 174.361450739565 -5.00854462114461 3.8354
  endloop
endfacet
facet normal 4.1370659734131e-018 -1.0 2.23835287222814e-016
  outer loop
    vertex 170.4086 -0.685799999999998 3.8354000000001
    vertex 0.0 -0.6858 0.6858
    vertex 170.4086 -0.6858 0.6858
  endloop
endfacet
facet normal 4.1370659734131e-018 -1.0 2.23835287222814e-016
  outer loop
    vertex 0.0 -0.6858 0.6858
    vertex 170.4086 -0.685799999999998 3.8354000000001
    vertex 0.0 -0.6858 3.8354
  endloop
endfacet
facet normal 0.24631041099587 0.969190993269668 0.0
  outer loop
    vertex 171.38000570737 -2.78144110311946 3.8354
    vertex 172.321562049621 -3.02072843786169 0.6858
    vertex 171.38000570737 -2.78144110311946 0.6858
  endloop
endfacet
facet normal 0.24631041099587 0.969190993269668 0.0
  outer loop
    vertex 172.321562049621 -3.02072843786169 0.6858
    vertex 171.38000570737 -2.78144110311946 3.8354
    vertex 172.321562049621 -3.02072843786169 3.8354
  endloop
endfacet
facet normal 0.991444861373843 -0.130526192219804 6.72179547630251e-014
  outer loop
    vertex 174.625 -5.9436 -0.3302
    vertex 174.589515155497 -6.21313415356977 3.8354
    vertex 174.589515155497 -6.21313415356977 -0.3302
  endloop
endfacet
facet normal 0.965925826289097 -0.258819045102415 3.38989879224775e-014
  outer loop
    vertex 174.589515155497 -6.21313415356977 3.8354
    vertex 174.625 -5.9436 -0.3302
    vertex 174.625 -5.94359999999981 3.8354
  endloop
endfacet
facet normal 0.991444861373843 -0.130526192219804 6.72179547630251e-014
  outer loop
    vertex 174.625 -5.94359999999981 3.8354
    vertex 174.625 -5.9436 -0.3302
    vertex 174.625 -5.94359999999981 0.6858
  endloop
endfacet
facet normal 0.859489285497889 0.511153761713957 0.0
  outer loop
    vertex 173.864871562138 -4.17356204962115 0.6858
    vertex 174.361450739565 -5.00854462114461 3.8354
    vertex 174.361450739565 -5.00854462114461 0.6858
  endloop
endfacet
facet normal 0.859489285497889 0.511153761713957 0.0
  outer loop
    vertex 174.361450739565 -5.00854462114461 3.8354
    vertex 173.864871562138 -4.17356204962115 0.6858
    vertex 173.864871562138 -4.17356204962115 3.8354
  endloop
endfacet
facet normal -0.0129275001354887 0.999916436378684 -0.0
  outer loop
    vertex 170.4086 -2.794 3.8354
    vertex 171.38000570737 -2.78144110311946 0.6858
    vertex 170.4086 -2.794 0.6858
  endloop
endfacet
facet normal -0.0129275001354887 0.999916436378684 -0.0
  outer loop
    vertex 171.38000570737 -2.78144110311946 0.6858
    vertex 170.4086 -2.794 3.8354
    vertex 171.38000570737 -2.78144110311946 3.8354
  endloop
endfacet
facet normal 0.707106781186558 0.707106781186537 0.0
  outer loop
    vertex 174.319981001928 3.20018100192768 -0.3302
    vertex 174.485478855501 2.98450000000001 3.83531459814476
    vertex 174.485478855501 2.98450000000001 -0.3302
  endloop
endfacet
facet normal 0.86602540378444 0.499999999999998 0.0
  outer loop
    vertex 174.485478855501 2.98450000000001 3.83531459814476
    vertex 174.319981001928 3.20018100192768 -0.3302
    vertex 174.319981001928 3.20018100192768 3.83531459814476
  endloop
endfacet
facet normal 0.697906569773831 0.716188815792682 0.0
  outer loop
    vertex 173.169103518025 -3.49555496780481 3.8354
    vertex 173.864871562138 -4.17356204962115 0.6858
    vertex 173.169103518025 -3.49555496780481 0.6858
  endloop
endfacet
facet normal 0.697906569773831 0.716188815792682 0.0
  outer loop
    vertex 173.864871562138 -4.17356204962115 0.6858
    vertex 173.169103518025 -3.49555496780481 3.8354
    vertex 173.864871562138 -4.17356204962115 3.8354
  endloop
endfacet
facet normal 1.0 -1.1965723486849e-014 9.87589676309962e-028
  outer loop
    vertex 174.625 2.4638 -0.3302
    vertex 174.625 -5.94359999999981 0.6858
    vertex 174.625 -5.9436 -0.3302
  endloop
endfacet
facet normal 1.0 -1.1965723486849e-014 9.87589676309962e-028
  outer loop
    vertex 174.625 -5.94359999999981 0.6858
    vertex 174.625 2.4638 -0.3302
    vertex 174.625 2.46379999999998 0.6858
  endloop
endfacet
facet normal 3.83758417777741e-007 6.39932270540345e-006 0.999999999979451
  outer loop
    vertex 170.4086 -0.685799999999998 3.8354000000001
    vertex 0.0 0.3302 3.8354
    vertex 0.0 -0.6858 3.8354
  endloop
endfacet
facet normal 3.83758417777741e-007 6.39932270540345e-006 0.999999999979451
  outer loop
    vertex 0.0 0.3302 3.8354
    vertex 170.4086 -0.685799999999998 3.8354000000001
    vertex 170.4086 0.3302 3.8354
  endloop
endfacet
facet normal 3.83758417777741e-007 6.39932270540345e-006 0.999999999979451
  outer loop
    vertex 170.4086 0.3302 3.8354
    vertex 170.4086 -0.685799999999998 3.8354000000001
    vertex 170.960816314631 0.402900657029644 3.83531459814476
  endloop
endfacet
facet normal 3.83758417777741e-007 6.39932270540345e-006 0.999999999979451
  outer loop
    vertex 170.960816314631 0.402900657029644 3.83531459814476
    vertex 170.4086 -0.685799999999998 3.8354000000001
    vertex 171.38000570737 -0.698358896880372 3.83531459814483
  endloop
endfacet
facet normal 3.83758417777741e-007 6.39932270540345e-006 0.999999999979451
  outer loop
    vertex 170.960816314631 0.402900657029644 3.83531459814476
    vertex 171.38000570737 -0.698358896880372 3.83531459814483
    vertex 171.4754 0.616048198485522 3.83531459814476
  endloop
endfacet
facet normal 3.83758417777741e-007 6.39932270540345e-006 0.999999999979451
  outer loop
    vertex 171.4754 0.616048198485522 3.83531459814476
    vertex 171.38000570737 -0.698358896880372 3.83531459814483
    vertex 172.321562049621 -0.459071562138153 3.83531459814476
  endloop
endfacet
facet normal 3.83758417777741e-007 6.39932270540345e-006 0.999999999979451
  outer loop
    vertex 171.4754 0.616048198485522 3.83531459814476
    vertex 172.321562049621 -0.459071562138153 3.83531459814476
    vertex 171.91728302834 0.955116971660382 3.83531459814476
  endloop
endfacet
facet normal 3.83758417777741e-007 6.39932270540345e-006 0.999999999979451
  outer loop
    vertex 171.91728302834 0.955116971660382 3.83531459814476
    vertex 172.321562049621 -0.459071562138153 3.83531459814476
    vertex 172.256351801514 1.397 3.83531459814476
  endloop
endfacet
facet normal 3.83758417777741e-007 6.39932270540345e-006 0.999999999979451
  outer loop
    vertex 172.256351801514 1.397 3.83531459814476
    vertex 172.321562049621 -0.459071562138153 3.83531459814476
    vertex 172.46949934297 1.91158368536926 3.83531459814476
  endloop
endfacet
facet normal 3.83758417777741e-007 6.39932270540345e-006 0.999999999979451
  outer loop
    vertex 172.46949934297 1.91158368536926 3.83531459814476
    vertex 172.321562049621 -0.459071562138153 3.83531459814476
    vertex 173.169103518025 0.0157549678049736 3.83531459814476
  endloop
endfacet
facet normal 3.83758417777741e-007 6.39932270540345e-006 0.999999999979451
  outer loop
    vertex 172.46949934297 1.91158368536926 3.83531459814476
    vertex 173.169103518025 0.0157549678049736 3.83531459814476
    vertex 172.5422 2.4638 3.83531459814476
  endloop
endfacet
facet normal 3.83758417777741e-007 6.39932270540345e-006 0.999999999979451
  outer loop
    vertex 172.5422 2.4638 3.83531459814476
    vertex 173.169103518025 0.0157549678049736 3.83531459814476
    vertex 172.577684844503 2.73333415356977 3.83531459814476
  endloop
endfacet
facet normal 3.83758417777741e-007 6.39932270540345e-006 0.999999999979451
  outer loop
    vertex 172.577684844503 2.73333415356977 3.83531459814476
    vertex 173.169103518025 0.0157549678049736 3.83531459814476
    vertex 172.681721144499 2.98450000000001 3.83531459814476
  endloop
endfacet
facet normal 3.83758417777741e-007 6.39932270540345e-006 0.999999999979451
  outer loop
    vertex 172.681721144499 2.98450000000001 3.83531459814476
    vertex 173.169103518025 0.0157549678049736 3.83531459814476
    vertex 172.847218998072 3.20018100192768 3.83531459814476
  endloop
endfacet
facet normal 3.83758417777741e-007 6.39932270540345e-006 0.999999999979451
  outer loop
    vertex 172.847218998072 3.20018100192768 3.83531459814476
    vertex 173.169103518025 0.0157549678049736 3.83531459814476
    vertex 173.0629 3.36567885550112 3.83531459814476
  endloop
endfacet
facet normal 3.83758417777741e-007 6.39932270540345e-006 0.999999999979451
  outer loop
    vertex 173.0629 3.36567885550112 3.83531459814476
    vertex 173.169103518025 0.0157549678049736 3.83531459814476
    vertex 173.31406584643 3.46971515549745 3.83531459814476
  endloop
endfacet
facet normal 3.83758417777741e-007 6.39932270540345e-006 0.999999999979451
  outer loop
    vertex 173.31406584643 3.46971515549745 3.83531459814476
    vertex 173.169103518025 0.0157549678049736 3.83531459814476
    vertex 173.864871562138 0.693762049621325 3.83531459814476
  endloop
endfacet
facet normal 3.83758417777741e-007 6.39932270540345e-006 0.999999999979451
  outer loop
    vertex 173.31406584643 3.46971515549745 3.83531459814476
    vertex 173.864871562138 0.693762049621325 3.83531459814476
    vertex 173.5836 3.50520000000001 3.83531459814476
  endloop
endfacet
facet normal 3.83758417777741e-007 6.39932270540345e-006 0.999999999979451
  outer loop
    vertex 173.5836 3.50520000000001 3.83531459814476
    vertex 173.864871562138 0.693762049621325 3.83531459814476
    vertex 173.85313415357 3.46971515549745 3.83531459814476
  endloop
endfacet
facet normal 3.83758417777741e-007 6.39932270540345e-006 0.999999999979451
  outer loop
    vertex 173.85313415357 3.46971515549745 3.83531459814476
    vertex 173.864871562138 0.693762049621325 3.83531459814476
    vertex 174.1043 3.36567885550112 3.83531459814476
  endloop
endfacet
facet normal 3.83758417777741e-007 6.39932270540345e-006 0.999999999979451
  outer loop
    vertex 174.1043 3.36567885550112 3.83531459814476
    vertex 173.864871562138 0.693762049621325 3.83531459814476
    vertex 174.361450739565 1.52874462114478 3.83531459814476
  endloop
endfacet
facet normal 3.83758417777741e-007 6.39932270540345e-006 0.999999999979451
  outer loop
    vertex 174.1043 3.36567885550112 3.83531459814476
    vertex 174.361450739565 1.52874462114478 3.83531459814476
    vertex 174.319981001928 3.20018100192768 3.83531459814476
  endloop
endfacet
facet normal 3.83758417777741e-007 6.39932270540345e-006 0.999999999979451
  outer loop
    vertex 174.319981001928 3.20018100192768 3.83531459814476
    vertex 174.361450739565 1.52874462114478 3.83531459814476
    vertex 174.485478855501 2.98450000000001 3.83531459814476
  endloop
endfacet
facet normal 3.83758417777741e-007 6.39932270540345e-006 0.999999999979451
  outer loop
    vertex 174.485478855501 2.98450000000001 3.83531459814476
    vertex 174.361450739565 1.52874462114478 3.83531459814476
    vertex 174.625 2.46379999999998 3.83531459814476
  endloop
endfacet
facet normal 3.83758417777741e-007 6.39932270540345e-006 0.999999999979451
  outer loop
    vertex 174.485478855501 2.98450000000001 3.83531459814476
    vertex 174.625 2.46379999999998 3.83531459814476
    vertex 174.589515155497 2.73333415356977 3.83531459814476
  endloop
endfacet
facet normal 0.488762674664705 0.872416785633223 0.0
  outer loop
    vertex 172.321562049621 -3.02072843786169 3.8354
    vertex 173.169103518025 -3.49555496780481 0.6858
    vertex 172.321562049621 -3.02072843786169 0.6858
  endloop
endfacet
facet normal 0.488762674664705 0.872416785633223 0.0
  outer loop
    vertex 173.169103518025 -3.49555496780481 0.6858
    vertex 172.321562049621 -3.02072843786169 3.8354
    vertex 173.169103518025 -3.49555496780481 3.8354
  endloop
endfacet
endsolid 8AGuide
