solid 8AGuide
facet normal -2.072904254257e-018 -1.0 4.82506577703373e-017
  outer loop
    vertex 6.70899999999999 -0.15 0.151
    vertex 6.625 -0.15 -0.013
    vertex 6.709 -0.15 -0.013
  endloop
endfacet
facet normal -2.072904254257e-018 -1.0 4.82506577703373e-017
  outer loop
    vertex 6.625 -0.15 -0.013
    vertex 6.70899999999999 -0.15 0.151
    vertex 5.334 -0.15 -0.013
  endloop
endfacet
facet normal -2.072904254257e-018 -1.0 4.82506577703373e-017
  outer loop
    vertex 5.334 -0.15 -0.013
    vertex 6.70899999999999 -0.15 0.151
    vertex 5.25 -0.15 -0.013
  endloop
endfacet
facet normal -2.072904254257e-018 -1.0 4.82506577703373e-017
  outer loop
    vertex 5.25 -0.15 -0.013
    vertex 6.70899999999999 -0.15 0.151
    vertex 0.084 -0.15 -0.013
  endloop
endfacet
facet normal -2.072904254257e-018 -1.0 4.82506577703373e-017
  outer loop
    vertex 0.084 -0.15 -0.013
    vertex 6.70899999999999 -0.15 0.151
    vertex 0.0 -0.15 -0.013
  endloop
endfacet
facet normal -2.072904254257e-018 -1.0 4.82506577703373e-017
  outer loop
    vertex 0.0 -0.15 -0.013
    vertex 6.70899999999999 -0.15 0.151
    vertex 0.0 -0.15 0.151
  endloop
endfacet
facet normal 2.072904254257e-018 1.0 -4.82506577703373e-017
  outer loop
    vertex 0.0 0.013 0.151
    vertex 0.084 0.013 -0.013
    vertex 0.0 0.013 -0.013
  endloop
endfacet
facet normal 2.072904254257e-018 1.0 -4.82506577703373e-017
  outer loop
    vertex 0.084 0.013 -0.013
    vertex 0.0 0.013 0.151
    vertex 5.25 0.013 -0.013
  endloop
endfacet
facet normal 2.072904254257e-018 1.0 -4.82506577703373e-017
  outer loop
    vertex 5.25 0.013 -0.013
    vertex 0.0 0.013 0.151
    vertex 5.334 0.013 -0.013
  endloop
endfacet
facet normal 2.072904254257e-018 1.0 -4.82506577703373e-017
  outer loop
    vertex 5.334 0.013 -0.013
    vertex 0.0 0.013 0.151
    vertex 6.625 0.013 -0.013
  endloop
endfacet
facet normal 2.072904254257e-018 1.0 -4.82506577703373e-017
  outer loop
    vertex 6.625 0.013 -0.013
    vertex 0.0 0.013 0.151
    vertex 6.709 0.013 -0.013
  endloop
endfacet
facet normal 2.072904254257e-018 1.0 -4.82506577703373e-017
  outer loop
    vertex 6.709 0.013 -0.013
    vertex 0.0 0.013 0.151
    vertex 6.70899999999999 0.013 0.151
  endloop
endfacet
facet normal 0.0 2.93192700165094e-016 1.0
  outer loop
    vertex 0.084 0.013 -0.013
    vertex 0.0 0.0485 -0.013
    vertex 0.0 0.013 -0.013
  endloop
endfacet
facet normal 0.0 2.93192700165094e-016 1.0
  outer loop
    vertex 0.0 0.0485 -0.013
    vertex 0.084 0.013 -0.013
    vertex 0.084 0.0485 -0.013
  endloop
endfacet
facet normal -0.0 -0.0 1.0
  outer loop
    vertex 6.709 0.013 -0.013
    vertex 6.625 0.0485 -0.013
    vertex 6.625 0.013 -0.013
  endloop
endfacet
facet normal -0.0 -0.0 1.0
  outer loop
    vertex 6.625 0.0485 -0.013
    vertex 6.709 0.013 -0.013
    vertex 6.709 0.0485 -0.013
  endloop
endfacet
facet normal -1.58249780981455e-017 0.921306761430557 -0.388836535503468
  outer loop
    vertex 6.625 0.0715 -0.0832691117967942
    vertex 6.697 0.0235 -0.197
    vertex 6.637 0.0235 -0.197
  endloop
endfacet
facet normal -1.58249780981455e-017 0.921306761430557 -0.388836535503468
  outer loop
    vertex 6.697 0.0235 -0.197
    vertex 6.625 0.0715 -0.0832691117967942
    vertex 6.709 0.0715 -0.0832691117967942
  endloop
endfacet
facet normal 0.994479634766516 8.93196842386361e-019 -0.104929767152402
  outer loop
    vertex 6.697 -0.1605 -0.197
    vertex 6.709 -0.1855 -0.0832691117967942
    vertex 6.709 -0.2085 -0.0832691117967942
  endloop
endfacet
facet normal 0.994479634766516 8.93196842386361e-019 -0.104929767152402
  outer loop
    vertex 6.709 -0.1855 -0.0832691117967942
    vertex 6.697 -0.1605 -0.197
    vertex 6.709 -0.103634555898397 -0.0832691117967942
  endloop
endfacet
facet normal -0.0 1.0 -0.0
  outer loop
    vertex 0.0 -0.11 0.151
    vertex 6.70899999999999 -0.11 0.027
    vertex 0.0 -0.11 0.027
  endloop
endfacet
facet normal -0.0 1.0 -0.0
  outer loop
    vertex 6.70899999999999 -0.11 0.027
    vertex 0.0 -0.11 0.151
    vertex 6.70899999999999 -0.11 0.151
  endloop
endfacet
facet normal -7.86238700371062e-034 -1.73758462803421e-032 1.0
  outer loop
    vertex 6.70899999999999 -0.15 0.151
    vertex 0.0 -0.11 0.151
    vertex 0.0 -0.15 0.151
  endloop
endfacet
facet normal -7.86238700371062e-034 -1.73758462803421e-032 1.0
  outer loop
    vertex 0.0 -0.11 0.151
    vertex 6.70899999999999 -0.15 0.151
    vertex 6.70899999999999 -0.11 0.151
  endloop
endfacet
facet normal -7.86238700371062e-034 -1.73758462803421e-032 1.0
  outer loop
    vertex 6.70899999999999 -0.11 0.151
    vertex 6.70899999999999 -0.15 0.151
    vertex 6.73074079978861 -0.152862230591719 0.151
  endloop
endfacet
facet normal -7.86238700371062e-034 -1.73758462803421e-032 1.0
  outer loop
    vertex 6.70899999999999 -0.11 0.151
    vertex 6.73074079978861 -0.152862230591719 0.151
    vertex 6.74724431918778 -0.109505555240924 0.151
  endloop
endfacet
facet normal -7.86238700371062e-034 -1.73758462803421e-032 1.0
  outer loop
    vertex 6.74724431918778 -0.109505555240924 0.151
    vertex 6.73074079978861 -0.152862230591719 0.151
    vertex 6.751 -0.161253866082108 0.151
  endloop
endfacet
facet normal -7.86238700371062e-034 -1.73758462803421e-032 1.0
  outer loop
    vertex 6.74724431918778 -0.109505555240924 0.151
    vertex 6.751 -0.161253866082108 0.151
    vertex 6.78431346652051 -0.118926316451248 0.151
  endloop
endfacet
facet normal -7.86238700371062e-034 -1.73758462803421e-032 1.0
  outer loop
    vertex 6.78431346652051 -0.118926316451248 0.151
    vertex 6.751 -0.161253866082108 0.151
    vertex 6.76839696961967 -0.17460303038033 0.151
  endloop
endfacet
facet normal -7.86238700371062e-034 -1.73758462803421e-032 1.0
  outer loop
    vertex 6.78431346652051 -0.118926316451248 0.151
    vertex 6.76839696961967 -0.17460303038033 0.151
    vertex 6.78174613391789 -0.192 0.151
  endloop
endfacet
facet normal -7.86238700371062e-034 -1.73758462803421e-032 1.0
  outer loop
    vertex 6.78431346652051 -0.118926316451248 0.151
    vertex 6.78174613391789 -0.192 0.151
    vertex 6.79013776940828 -0.212259200211388 0.151
  endloop
endfacet
facet normal -7.86238700371062e-034 -1.73758462803421e-032 1.0
  outer loop
    vertex 6.78431346652051 -0.118926316451248 0.151
    vertex 6.79013776940828 -0.212259200211388 0.151
    vertex 6.81768124086712 -0.137620274323024 0.151
  endloop
endfacet
facet normal -7.86238700371062e-034 -1.73758462803421e-032 1.0
  outer loop
    vertex 6.81768124086712 -0.137620274323024 0.151
    vertex 6.79013776940828 -0.212259200211388 0.151
    vertex 6.793 -0.234 0.151
  endloop
endfacet
facet normal -7.86238700371062e-034 -1.73758462803421e-032 1.0
  outer loop
    vertex 6.81768124086712 -0.137620274323024 0.151
    vertex 6.793 -0.234 0.151
    vertex 6.79439704112215 -0.244611580849203 0.151
  endloop
endfacet
facet normal -7.86238700371062e-034 -1.73758462803421e-032 1.0
  outer loop
    vertex 6.81768124086712 -0.137620274323024 0.151
    vertex 6.79439704112215 -0.244611580849203 0.151
    vertex 6.79849295844484 -0.2545 0.151
  endloop
endfacet
facet normal -7.86238700371062e-034 -1.73758462803421e-032 1.0
  outer loop
    vertex 6.81768124086712 -0.137620274323024 0.151
    vertex 6.79849295844484 -0.2545 0.151
    vertex 6.80500862197135 -0.262991378028649 0.151
  endloop
endfacet
facet normal -7.86238700371062e-034 -1.73758462803421e-032 1.0
  outer loop
    vertex 6.81768124086712 -0.137620274323024 0.151
    vertex 6.80500862197135 -0.262991378028649 0.151
    vertex 6.8135 -0.269507041555162 0.151
  endloop
endfacet
facet normal -7.86238700371062e-034 -1.73758462803421e-032 1.0
  outer loop
    vertex 6.81768124086712 -0.137620274323024 0.151
    vertex 6.8135 -0.269507041555162 0.151
    vertex 6.8233884191508 -0.273602958877852 0.151
  endloop
endfacet
facet normal -7.86238700371062e-034 -1.73758462803421e-032 1.0
  outer loop
    vertex 6.81768124086712 -0.137620274323024 0.151
    vertex 6.8233884191508 -0.273602958877852 0.151
    vertex 6.84507368354873 -0.164313466520518 0.151
  endloop
endfacet
facet normal -7.86238700371062e-034 -1.73758462803421e-032 1.0
  outer loop
    vertex 6.84507368354873 -0.164313466520518 0.151
    vertex 6.8233884191508 -0.273602958877852 0.151
    vertex 6.834 -0.275 0.151
  endloop
endfacet
facet normal -7.86238700371062e-034 -1.73758462803421e-032 1.0
  outer loop
    vertex 6.84507368354873 -0.164313466520518 0.151
    vertex 6.834 -0.275 0.151
    vertex 6.8446115808492 -0.273602958877852 0.151
  endloop
endfacet
facet normal -7.86238700371062e-034 -1.73758462803421e-032 1.0
  outer loop
    vertex 6.84507368354873 -0.164313466520518 0.151
    vertex 6.8446115808492 -0.273602958877852 0.151
    vertex 6.8545 -0.269507041555162 0.151
  endloop
endfacet
facet normal -7.86238700371062e-034 -1.73758462803421e-032 1.0
  outer loop
    vertex 6.84507368354873 -0.164313466520518 0.151
    vertex 6.8545 -0.269507041555162 0.151
    vertex 6.86462404486476 -0.197186796108056 0.151
  endloop
endfacet
facet normal -7.86238700371062e-034 -1.73758462803421e-032 1.0
  outer loop
    vertex 6.86462404486476 -0.197186796108056 0.151
    vertex 6.8545 -0.269507041555162 0.151
    vertex 6.86299137802865 -0.262991378028649 0.151
  endloop
endfacet
facet normal -7.86238700371062e-034 -1.73758462803421e-032 1.0
  outer loop
    vertex 6.86462404486476 -0.197186796108056 0.151
    vertex 6.86299137802865 -0.262991378028649 0.151
    vertex 6.86950704155516 -0.2545 0.151
  endloop
endfacet
facet normal -7.86238700371062e-034 -1.73758462803421e-032 1.0
  outer loop
    vertex 6.86462404486476 -0.197186796108056 0.151
    vertex 6.86950704155516 -0.2545 0.151
    vertex 6.875 -0.233999999999993 0.151
  endloop
endfacet
facet normal -7.86238700371062e-034 -1.73758462803421e-032 1.0
  outer loop
    vertex 6.875 -0.233999999999993 0.151
    vertex 6.86950704155516 -0.2545 0.151
    vertex 6.87360295887785 -0.244611580849203 0.151
  endloop
endfacet
facet normal -1.58249780981455e-017 0.921306761430557 -0.388836535503468
  outer loop
    vertex 0.0 0.0715 -0.0832691117967942
    vertex 0.072 0.0235 -0.197
    vertex 0.012 0.0235 -0.197
  endloop
endfacet
facet normal -1.58249780981455e-017 0.921306761430557 -0.388836535503468
  outer loop
    vertex 0.072 0.0235 -0.197
    vertex 0.0 0.0715 -0.0832691117967942
    vertex 0.084 0.0715 -0.0832691117967942
  endloop
endfacet
facet normal -1.00738877815146e-018 3.19274259382234e-017 -1.0
  outer loop
    vertex 5.25 0.013 -0.013
    vertex 0.084 -0.0685 -0.013
    vertex 0.084 0.013 -0.013
  endloop
endfacet
facet normal -1.00738877815146e-018 3.19274259382234e-017 -1.0
  outer loop
    vertex 0.084 -0.0685 -0.013
    vertex 5.25 0.013 -0.013
    vertex 0.084 -0.15 -0.013
  endloop
endfacet
facet normal -1.00738877815146e-018 3.19274259382234e-017 -1.0
  outer loop
    vertex 0.084 -0.15 -0.013
    vertex 5.25 0.013 -0.013
    vertex 5.25 -0.15 -0.013
  endloop
endfacet
facet normal -1.00738877815146e-018 3.19274259382234e-017 -1.0
  outer loop
    vertex 5.25 -0.15 -0.013
    vertex 5.25 0.013 -0.013
    vertex 5.25 -0.0685 -0.013
  endloop
endfacet
facet normal 0.994479634766516 8.93196842386361e-019 -0.104929767152402
  outer loop
    vertex 0.072 -0.1605 -0.197
    vertex 0.084 -0.1855 -0.0832691117967942
    vertex 0.084 -0.2085 -0.0832691117967942
  endloop
endfacet
facet normal 0.994479634766516 8.93196842386361e-019 -0.104929767152402
  outer loop
    vertex 0.084 -0.1855 -0.0832691117967942
    vertex 0.072 -0.1605 -0.197
    vertex 0.084 -0.103634555898397 -0.0832691117967942
  endloop
endfacet
facet normal -0.994479634766516 0.0 -0.104929767152402
  outer loop
    vertex 6.625 -0.1855 -0.0832691117967942
    vertex 6.637 -0.1605 -0.197
    vertex 6.625 -0.2085 -0.0832691117967942
  endloop
endfacet
facet normal -0.994479634766516 0.0 -0.104929767152402
  outer loop
    vertex 6.637 -0.1605 -0.197
    vertex 6.625 -0.1855 -0.0832691117967942
    vertex 6.625 -0.103634555898397 -0.0832691117967942
  endloop
endfacet
facet normal -0.994479634766516 -8.93196842386361e-019 -0.104929767152402
  outer loop
    vertex 6.625 0.0485 -0.0832691117967942
    vertex 6.637 0.0235 -0.197
    vertex 6.625 -0.0333654441016029 -0.0832691117967942
  endloop
endfacet
facet normal -0.994479634766516 -8.93196842386361e-019 -0.104929767152402
  outer loop
    vertex 6.637 0.0235 -0.197
    vertex 6.625 0.0485 -0.0832691117967942
    vertex 6.625 0.0715 -0.0832691117967942
  endloop
endfacet
facet normal 1.0 -0.0 -0.0
  outer loop
    vertex 6.709 -0.103634555898397 -0.0832691117967942
    vertex 6.709 -0.1855 -0.013
    vertex 6.709 -0.1855 -0.0832691117967942
  endloop
endfacet
facet normal 1.0 -0.0 -0.0
  outer loop
    vertex 6.709 -0.1855 -0.013
    vertex 6.709 -0.103634555898397 -0.0832691117967942
    vertex 6.709 -0.15 -0.013
  endloop
endfacet
facet normal 1.0 -0.0 -0.0
  outer loop
    vertex 6.709 -0.15 -0.013
    vertex 6.709 -0.103634555898397 -0.0832691117967942
    vertex 6.709 -0.0685 -0.013
  endloop
endfacet
facet normal 2.19001784916941e-017 0.894427190999916 -0.447213595499958
  outer loop
    vertex 6.625 -0.103634555898397 -0.0832691117967942
    vertex 6.697 -0.1605 -0.197
    vertex 6.637 -0.1605 -0.197
  endloop
endfacet
facet normal 2.19001784916941e-017 0.894427190999916 -0.447213595499958
  outer loop
    vertex 6.697 -0.1605 -0.197
    vertex 6.625 -0.103634555898397 -0.0832691117967942
    vertex 6.709 -0.103634555898397 -0.0832691117967942
  endloop
endfacet
facet normal 2.19001784916941e-017 0.894427190999916 -0.447213595499958
  outer loop
    vertex 6.709 -0.103634555898397 -0.0832691117967942
    vertex 6.625 -0.103634555898397 -0.0832691117967942
    vertex 6.625 -0.0685 -0.013
  endloop
endfacet
facet normal 2.19001784916941e-017 0.894427190999916 -0.447213595499958
  outer loop
    vertex 6.709 -0.103634555898397 -0.0832691117967942
    vertex 6.625 -0.0685 -0.013
    vertex 6.709 -0.0685 -0.013
  endloop
endfacet
facet normal -0.0 -0.0 1.0
  outer loop
    vertex 6.709 -0.1855 -0.013
    vertex 6.625 -0.15 -0.013
    vertex 6.625 -0.1855 -0.013
  endloop
endfacet
facet normal -0.0 -0.0 1.0
  outer loop
    vertex 6.625 -0.15 -0.013
    vertex 6.709 -0.1855 -0.013
    vertex 6.709 -0.15 -0.013
  endloop
endfacet
facet normal 3.4572778253337e-017 -0.921306761430557 -0.388836535503468
  outer loop
    vertex 6.709 -0.2085 -0.0832691117967942
    vertex 6.637 -0.1605 -0.197
    vertex 6.697 -0.1605 -0.197
  endloop
endfacet
facet normal 3.4572778253337e-017 -0.921306761430557 -0.388836535503468
  outer loop
    vertex 6.637 -0.1605 -0.197
    vertex 6.709 -0.2085 -0.0832691117967942
    vertex 6.625 -0.2085 -0.0832691117967942
  endloop
endfacet
facet normal 0.0 0.0 1.0
  outer loop
    vertex 6.709 -0.2085 -0.0832691117967942
    vertex 6.625 -0.1855 -0.0832691117967942
    vertex 6.625 -0.2085 -0.0832691117967942
  endloop
endfacet
facet normal 0.0 0.0 1.0
  outer loop
    vertex 6.625 -0.1855 -0.0832691117967942
    vertex 6.709 -0.2085 -0.0832691117967942
    vertex 6.709 -0.1855 -0.0832691117967942
  endloop
endfacet
facet normal 0.0 -1.0 0.0
  outer loop
    vertex 6.709 -0.1855 -0.013
    vertex 6.625 -0.1855 -0.0832691117967942
    vertex 6.709 -0.1855 -0.0832691117967942
  endloop
endfacet
facet normal 0.0 -1.0 0.0
  outer loop
    vertex 6.625 -0.1855 -0.0832691117967942
    vertex 6.709 -0.1855 -0.013
    vertex 6.625 -0.1855 -0.013
  endloop
endfacet
facet normal -0.994479634766516 0.0 -0.104929767152402
  outer loop
    vertex 5.25 -0.1855 -0.0832691117967942
    vertex 5.262 -0.1605 -0.197
    vertex 5.25 -0.2085 -0.0832691117967942
  endloop
endfacet
facet normal -0.994479634766516 0.0 -0.104929767152402
  outer loop
    vertex 5.262 -0.1605 -0.197
    vertex 5.25 -0.1855 -0.0832691117967942
    vertex 5.25 -0.103634555898397 -0.0832691117967942
  endloop
endfacet
facet normal -0.994479634766516 -8.93196842386361e-019 -0.104929767152402
  outer loop
    vertex 5.25 0.0485 -0.0832691117967942
    vertex 5.262 0.0235 -0.197
    vertex 5.25 -0.0333654441016029 -0.0832691117967942
  endloop
endfacet
facet normal -0.994479634766516 -8.93196842386361e-019 -0.104929767152402
  outer loop
    vertex 5.262 0.0235 -0.197
    vertex 5.25 0.0485 -0.0832691117967942
    vertex 5.25 0.0715 -0.0832691117967942
  endloop
endfacet
facet normal 1.0 0.0 0.0
  outer loop
    vertex 5.334 -0.103634555898397 -0.0832691117967942
    vertex 5.334 -0.1855 -0.013
    vertex 5.334 -0.1855 -0.0832691117967942
  endloop
endfacet
facet normal 1.0 0.0 0.0
  outer loop
    vertex 5.334 -0.1855 -0.013
    vertex 5.334 -0.103634555898397 -0.0832691117967942
    vertex 5.334 -0.15 -0.013
  endloop
endfacet
facet normal 1.0 0.0 0.0
  outer loop
    vertex 5.334 -0.15 -0.013
    vertex 5.334 -0.103634555898397 -0.0832691117967942
    vertex 5.334 -0.0685 -0.013
  endloop
endfacet
facet normal 2.19001784916941e-017 0.894427190999916 -0.447213595499958
  outer loop
    vertex 5.25 -0.103634555898397 -0.0832691117967942
    vertex 5.322 -0.1605 -0.197
    vertex 5.262 -0.1605 -0.197
  endloop
endfacet
facet normal 2.19001784916941e-017 0.894427190999916 -0.447213595499958
  outer loop
    vertex 5.322 -0.1605 -0.197
    vertex 5.25 -0.103634555898397 -0.0832691117967942
    vertex 5.334 -0.103634555898397 -0.0832691117967942
  endloop
endfacet
facet normal 2.19001784916941e-017 0.894427190999916 -0.447213595499958
  outer loop
    vertex 5.334 -0.103634555898397 -0.0832691117967942
    vertex 5.25 -0.103634555898397 -0.0832691117967942
    vertex 5.25 -0.0685 -0.013
  endloop
endfacet
facet normal 2.19001784916941e-017 0.894427190999916 -0.447213595499958
  outer loop
    vertex 5.334 -0.103634555898397 -0.0832691117967942
    vertex 5.25 -0.0685 -0.013
    vertex 5.334 -0.0685 -0.013
  endloop
endfacet
facet normal 0.0 0.0 1.0
  outer loop
    vertex 5.334 -0.1855 -0.013
    vertex 5.25 -0.15 -0.013
    vertex 5.25 -0.1855 -0.013
  endloop
endfacet
facet normal 0.0 0.0 1.0
  outer loop
    vertex 5.25 -0.15 -0.013
    vertex 5.334 -0.1855 -0.013
    vertex 5.334 -0.15 -0.013
  endloop
endfacet
facet normal 3.4572778253337e-017 -0.921306761430557 -0.388836535503468
  outer loop
    vertex 5.334 -0.2085 -0.0832691117967942
    vertex 5.262 -0.1605 -0.197
    vertex 5.322 -0.1605 -0.197
  endloop
endfacet
facet normal 3.4572778253337e-017 -0.921306761430557 -0.388836535503468
  outer loop
    vertex 5.262 -0.1605 -0.197
    vertex 5.334 -0.2085 -0.0832691117967942
    vertex 5.25 -0.2085 -0.0832691117967942
  endloop
endfacet
facet normal 0.0 0.0 1.0
  outer loop
    vertex 5.334 -0.2085 -0.0832691117967942
    vertex 5.25 -0.1855 -0.0832691117967942
    vertex 5.25 -0.2085 -0.0832691117967942
  endloop
endfacet
facet normal 0.0 0.0 1.0
  outer loop
    vertex 5.25 -0.1855 -0.0832691117967942
    vertex 5.334 -0.2085 -0.0832691117967942
    vertex 5.334 -0.1855 -0.0832691117967942
  endloop
endfacet
facet normal 0.0 -1.0 0.0
  outer loop
    vertex 5.334 -0.1855 -0.013
    vertex 5.25 -0.1855 -0.0832691117967942
    vertex 5.334 -0.1855 -0.0832691117967942
  endloop
endfacet
facet normal 0.0 -1.0 0.0
  outer loop
    vertex 5.25 -0.1855 -0.0832691117967942
    vertex 5.334 -0.1855 -0.013
    vertex 5.25 -0.1855 -0.013
  endloop
endfacet
facet normal 0.994479634766516 5.35918105431816e-018 -0.104929767152401
  outer loop
    vertex 5.322 0.0235 -0.197
    vertex 5.334 0.0485 -0.0832691117967942
    vertex 5.334 -0.0333654441016029 -0.0832691117967942
  endloop
endfacet
facet normal 0.994479634766516 5.35918105431816e-018 -0.104929767152401
  outer loop
    vertex 5.334 0.0485 -0.0832691117967942
    vertex 5.322 0.0235 -0.197
    vertex 5.334 0.0715 -0.0832691117967942
  endloop
endfacet
facet normal -1.0 0.0 0.0
  outer loop
    vertex 5.25 -0.15 -0.013
    vertex 5.25 -0.1855 -0.0832691117967942
    vertex 5.25 -0.1855 -0.013
  endloop
endfacet
facet normal -1.0 0.0 0.0
  outer loop
    vertex 5.25 -0.1855 -0.0832691117967942
    vertex 5.25 -0.15 -0.013
    vertex 5.25 -0.103634555898397 -0.0832691117967942
  endloop
endfacet
facet normal -1.0 0.0 0.0
  outer loop
    vertex 5.25 -0.103634555898397 -0.0832691117967942
    vertex 5.25 -0.15 -0.013
    vertex 5.25 -0.0685 -0.013
  endloop
endfacet
facet normal -1.0 0.0 0.0
  outer loop
    vertex 5.25 0.013 -0.013
    vertex 5.25 -0.0333654441016029 -0.0832691117967942
    vertex 5.25 -0.0685 -0.013
  endloop
endfacet
facet normal -1.0 0.0 0.0
  outer loop
    vertex 5.25 -0.0333654441016029 -0.0832691117967942
    vertex 5.25 0.013 -0.013
    vertex 5.25 0.0485 -0.0832691117967942
  endloop
endfacet
facet normal -1.0 0.0 0.0
  outer loop
    vertex 5.25 0.0485 -0.0832691117967942
    vertex 5.25 0.013 -0.013
    vertex 5.25 0.0485 -0.013
  endloop
endfacet
facet normal 1.0 0.0 0.0
  outer loop
    vertex 5.334 -0.0333654441016029 -0.0832691117967942
    vertex 5.334 0.013 -0.013
    vertex 5.334 -0.0685 -0.013
  endloop
endfacet
facet normal 1.0 0.0 0.0
  outer loop
    vertex 5.334 0.013 -0.013
    vertex 5.334 -0.0333654441016029 -0.0832691117967942
    vertex 5.334 0.0485 -0.0832691117967942
  endloop
endfacet
facet normal 1.0 0.0 0.0
  outer loop
    vertex 5.334 0.013 -0.013
    vertex 5.334 0.0485 -0.0832691117967942
    vertex 5.334 0.0485 -0.013
  endloop
endfacet
facet normal 0.0 0.0 1.0
  outer loop
    vertex 5.334 0.0485 -0.0832691117967942
    vertex 5.25 0.0715 -0.0832691117967942
    vertex 5.25 0.0485 -0.0832691117967942
  endloop
endfacet
facet normal 0.0 0.0 1.0
  outer loop
    vertex 5.25 0.0715 -0.0832691117967942
    vertex 5.334 0.0485 -0.0832691117967942
    vertex 5.334 0.0715 -0.0832691117967942
  endloop
endfacet
facet normal 0.0 1.0 0.0
  outer loop
    vertex 5.25 0.0485 -0.013
    vertex 5.334 0.0485 -0.0832691117967942
    vertex 5.25 0.0485 -0.0832691117967942
  endloop
endfacet
facet normal 0.0 1.0 0.0
  outer loop
    vertex 5.334 0.0485 -0.0832691117967942
    vertex 5.25 0.0485 -0.013
    vertex 5.334 0.0485 -0.013
  endloop
endfacet
facet normal 1.41598376994025e-032 -0.894427190999916 -0.447213595499958
  outer loop
    vertex 5.334 -0.0333654441016029 -0.0832691117967942
    vertex 5.262 0.0235 -0.197
    vertex 5.322 0.0235 -0.197
  endloop
endfacet
facet normal 1.41598376994025e-032 -0.894427190999916 -0.447213595499958
  outer loop
    vertex 5.262 0.0235 -0.197
    vertex 5.334 -0.0333654441016029 -0.0832691117967942
    vertex 5.25 -0.0333654441016029 -0.0832691117967942
  endloop
endfacet
facet normal 1.41598376994025e-032 -0.894427190999916 -0.447213595499958
  outer loop
    vertex 5.25 -0.0333654441016029 -0.0832691117967942
    vertex 5.334 -0.0333654441016029 -0.0832691117967942
    vertex 5.334 -0.0685 -0.013
  endloop
endfacet
facet normal 1.41598376994025e-032 -0.894427190999916 -0.447213595499958
  outer loop
    vertex 5.25 -0.0333654441016029 -0.0832691117967942
    vertex 5.334 -0.0685 -0.013
    vertex 5.25 -0.0685 -0.013
  endloop
endfacet
facet normal 0.994479634766516 8.93196842386361e-019 -0.104929767152402
  outer loop
    vertex 5.322 -0.1605 -0.197
    vertex 5.334 -0.1855 -0.0832691117967942
    vertex 5.334 -0.2085 -0.0832691117967942
  endloop
endfacet
facet normal 0.994479634766516 8.93196842386361e-019 -0.104929767152402
  outer loop
    vertex 5.334 -0.1855 -0.0832691117967942
    vertex 5.322 -0.1605 -0.197
    vertex 5.334 -0.103634555898397 -0.0832691117967942
  endloop
endfacet
facet normal -1.58249780981455e-017 0.921306761430557 -0.388836535503468
  outer loop
    vertex 5.25 0.0715 -0.0832691117967942
    vertex 5.322 0.0235 -0.197
    vertex 5.262 0.0235 -0.197
  endloop
endfacet
facet normal -1.58249780981455e-017 0.921306761430557 -0.388836535503468
  outer loop
    vertex 5.322 0.0235 -0.197
    vertex 5.25 0.0715 -0.0832691117967942
    vertex 5.334 0.0715 -0.0832691117967942
  endloop
endfacet
facet normal 0.0 0.0 1.0
  outer loop
    vertex 5.334 0.013 -0.013
    vertex 5.25 0.0485 -0.013
    vertex 5.25 0.013 -0.013
  endloop
endfacet
facet normal 0.0 0.0 1.0
  outer loop
    vertex 5.25 0.0485 -0.013
    vertex 5.334 0.013 -0.013
    vertex 5.334 0.0485 -0.013
  endloop
endfacet
facet normal -0.130526192220045 -0.991444861373811 -3.09725237521064e-015
  outer loop
    vertex 6.73074079978861 -0.152862230591719 0.151
    vertex 6.709 -0.15 -0.013
    vertex 6.73074079978861 -0.152862230591719 -0.013
  endloop
endfacet
facet normal -0.130526192220045 -0.991444861373811 -3.09725237521064e-015
  outer loop
    vertex 6.709 -0.15 -0.013
    vertex 6.73074079978861 -0.152862230591719 0.151
    vertex 6.70899999999999 -0.15 0.151
  endloop
endfacet
facet normal -0.608761429008727 -0.79335334029123 0.0
  outer loop
    vertex 6.76839696961967 -0.17460303038033 0.151
    vertex 6.751 -0.161253866082108 -0.013
    vertex 6.76839696961967 -0.17460303038033 -0.013
  endloop
endfacet
facet normal -0.608761429008727 -0.79335334029123 0.0
  outer loop
    vertex 6.751 -0.161253866082108 -0.013
    vertex 6.76839696961967 -0.17460303038033 0.151
    vertex 6.751 -0.161253866082108 0.151
  endloop
endfacet
facet normal 3.4572778253337e-017 -0.921306761430557 -0.388836535503468
  outer loop
    vertex 0.084 -0.2085 -0.0832691117967942
    vertex 0.012 -0.1605 -0.197
    vertex 0.072 -0.1605 -0.197
  endloop
endfacet
facet normal 3.4572778253337e-017 -0.921306761430557 -0.388836535503468
  outer loop
    vertex 0.012 -0.1605 -0.197
    vertex 0.084 -0.2085 -0.0832691117967942
    vertex 0.0 -0.2085 -0.0832691117967942
  endloop
endfacet
facet normal -0.994479634766516 0.0 -0.104929767152402
  outer loop
    vertex 0.0 -0.1855 -0.0832691117967942
    vertex 0.012 -0.1605 -0.197
    vertex 0.0 -0.2085 -0.0832691117967942
  endloop
endfacet
facet normal -0.994479634766516 0.0 -0.104929767152402
  outer loop
    vertex 0.012 -0.1605 -0.197
    vertex 0.0 -0.1855 -0.0832691117967942
    vertex 0.0 -0.103634555898397 -0.0832691117967942
  endloop
endfacet
facet normal 1.0 0.0 0.0
  outer loop
    vertex 0.084 -0.103634555898397 -0.0832691117967942
    vertex 0.084 -0.1855 -0.013
    vertex 0.084 -0.1855 -0.0832691117967942
  endloop
endfacet
facet normal 1.0 0.0 0.0
  outer loop
    vertex 0.084 -0.1855 -0.013
    vertex 0.084 -0.103634555898397 -0.0832691117967942
    vertex 0.084 -0.15 -0.013
  endloop
endfacet
facet normal 1.0 0.0 0.0
  outer loop
    vertex 0.084 -0.15 -0.013
    vertex 0.084 -0.103634555898397 -0.0832691117967942
    vertex 0.084 -0.0685 -0.013
  endloop
endfacet
facet normal -1.32196769036363e-032 -0.894427190999916 -0.447213595499958
  outer loop
    vertex 0.084 -0.0333654441016029 -0.0832691117967942
    vertex 0.012 0.0235 -0.197
    vertex 0.072 0.0235 -0.197
  endloop
endfacet
facet normal -1.32196769036363e-032 -0.894427190999916 -0.447213595499958
  outer loop
    vertex 0.012 0.0235 -0.197
    vertex 0.084 -0.0333654441016029 -0.0832691117967942
    vertex 0.0 -0.0333654441016029 -0.0832691117967942
  endloop
endfacet
facet normal -1.32196769036363e-032 -0.894427190999916 -0.447213595499958
  outer loop
    vertex 0.0 -0.0333654441016029 -0.0832691117967942
    vertex 0.084 -0.0333654441016029 -0.0832691117967942
    vertex 0.084 -0.0685 -0.013
  endloop
endfacet
facet normal -1.32196769036363e-032 -0.894427190999916 -0.447213595499958
  outer loop
    vertex 0.0 -0.0333654441016029 -0.0832691117967942
    vertex 0.084 -0.0685 -0.013
    vertex 0.0 -0.0685 -0.013
  endloop
endfacet
facet normal 0.994479634766516 5.35918105431816e-018 -0.104929767152401
  outer loop
    vertex 0.072 0.0235 -0.197
    vertex 0.084 0.0485 -0.0832691117967942
    vertex 0.084 -0.0333654441016029 -0.0832691117967942
  endloop
endfacet
facet normal 0.994479634766516 5.35918105431816e-018 -0.104929767152401
  outer loop
    vertex 0.084 0.0485 -0.0832691117967942
    vertex 0.072 0.0235 -0.197
    vertex 0.084 0.0715 -0.0832691117967942
  endloop
endfacet
facet normal -0.991444861373814 0.130526192220024 0.0
  outer loop
    vertex 6.793 0.097 0.150996637722235
    vertex 6.79013776940828 0.0752592002113883 -0.013
    vertex 6.79013776940828 0.0752592002113883 0.150996637722235
  endloop
endfacet
facet normal -0.991444861373814 0.130526192220024 0.0
  outer loop
    vertex 6.79013776940828 0.0752592002113883 -0.013
    vertex 6.793 0.097 0.150996637722235
    vertex 6.793 0.097 -0.013
  endloop
endfacet
facet normal 0.0 -1.0 0.0
  outer loop
    vertex 0.084 -0.1855 -0.013
    vertex 0.0 -0.1855 -0.0832691117967942
    vertex 0.084 -0.1855 -0.0832691117967942
  endloop
endfacet
facet normal 0.0 -1.0 0.0
  outer loop
    vertex 0.0 -0.1855 -0.0832691117967942
    vertex 0.084 -0.1855 -0.013
    vertex 0.0 -0.1855 -0.013
  endloop
endfacet
facet normal -0.86602540378444 0.499999999999998 0.0
  outer loop
    vertex 6.79849295844484 0.1175 0.150996637722235
    vertex 6.79439704112215 0.107611580849203 -0.013
    vertex 6.79439704112215 0.107611580849203 0.150996637722235
  endloop
endfacet
facet normal -0.965925826289064 0.258819045102536 0.0
  outer loop
    vertex 6.79439704112215 0.107611580849203 -0.013
    vertex 6.79849295844484 0.1175 0.150996637722235
    vertex 6.79849295844484 0.1175 -0.013
  endloop
endfacet
facet normal -0.994479634766516 -8.93196842386361e-019 -0.104929767152402
  outer loop
    vertex 0.0 0.0485 -0.0832691117967942
    vertex 0.012 0.0235 -0.197
    vertex 0.0 -0.0333654441016029 -0.0832691117967942
  endloop
endfacet
facet normal -0.994479634766516 -8.93196842386361e-019 -0.104929767152402
  outer loop
    vertex 0.012 0.0235 -0.197
    vertex 0.0 0.0485 -0.0832691117967942
    vertex 0.0 0.0715 -0.0832691117967942
  endloop
endfacet
facet normal 4.38003569833882e-017 0.894427190999916 -0.447213595499958
  outer loop
    vertex 0.0 -0.103634555898397 -0.0832691117967942
    vertex 0.072 -0.1605 -0.197
    vertex 0.012 -0.1605 -0.197
  endloop
endfacet
facet normal 4.38003569833882e-017 0.894427190999916 -0.447213595499958
  outer loop
    vertex 0.072 -0.1605 -0.197
    vertex 0.0 -0.103634555898397 -0.0832691117967942
    vertex 0.084 -0.103634555898397 -0.0832691117967942
  endloop
endfacet
facet normal 4.38003569833882e-017 0.894427190999916 -0.447213595499958
  outer loop
    vertex 0.084 -0.103634555898397 -0.0832691117967942
    vertex 0.0 -0.103634555898397 -0.0832691117967942
    vertex 0.0 -0.0685 -0.013
  endloop
endfacet
facet normal 4.38003569833882e-017 0.894427190999916 -0.447213595499958
  outer loop
    vertex 0.084 -0.103634555898397 -0.0832691117967942
    vertex 0.0 -0.0685 -0.013
    vertex 0.084 -0.0685 -0.013
  endloop
endfacet
facet normal 0.0 0.0 1.0
  outer loop
    vertex 0.084 -0.2085 -0.0832691117967942
    vertex 0.0 -0.1855 -0.0832691117967942
    vertex 0.0 -0.2085 -0.0832691117967942
  endloop
endfacet
facet normal 0.0 0.0 1.0
  outer loop
    vertex 0.0 -0.1855 -0.0832691117967942
    vertex 0.084 -0.2085 -0.0832691117967942
    vertex 0.084 -0.1855 -0.0832691117967942
  endloop
endfacet
facet normal -1.0 0.0 0.0
  outer loop
    vertex 0.0 -0.11 0.151
    vertex 0.0 -0.15 -0.013
    vertex 0.0 -0.15 0.151
  endloop
endfacet
facet normal -1.0 0.0 0.0
  outer loop
    vertex 0.0 0.013 0.151
    vertex 0.0 -0.027 0.027
    vertex 0.0 -0.027 0.151
  endloop
endfacet
facet normal -1.0 0.0 0.0
  outer loop
    vertex 0.0 -0.15 -0.013
    vertex 0.0 -0.1855 -0.0832691117967942
    vertex 0.0 -0.1855 -0.013
  endloop
endfacet
facet normal -1.0 0.0 0.0
  outer loop
    vertex 0.0 -0.1855 -0.0832691117967942
    vertex 0.0 -0.15 -0.013
    vertex 0.0 -0.103634555898397 -0.0832691117967942
  endloop
endfacet
facet normal -1.0 0.0 0.0
  outer loop
    vertex 0.0 -0.103634555898397 -0.0832691117967942
    vertex 0.0 -0.15 -0.013
    vertex 0.0 -0.11 0.027
  endloop
endfacet
facet normal -1.0 0.0 0.0
  outer loop
    vertex 0.0 -0.11 0.027
    vertex 0.0 -0.15 -0.013
    vertex 0.0 -0.11 0.151
  endloop
endfacet
facet normal -1.0 0.0 0.0
  outer loop
    vertex 0.0 -0.103634555898397 -0.0832691117967942
    vertex 0.0 -0.11 0.027
    vertex 0.0 -0.0685 -0.013
  endloop
endfacet
facet normal -1.0 0.0 0.0
  outer loop
    vertex 0.0 -0.0685 -0.013
    vertex 0.0 -0.11 0.027
    vertex 0.0 -0.027 0.027
  endloop
endfacet
facet normal -1.0 0.0 0.0
  outer loop
    vertex 0.0 -0.0685 -0.013
    vertex 0.0 -0.027 0.027
    vertex 0.0 -0.0333654441016029 -0.0832691117967942
  endloop
endfacet
facet normal -1.0 0.0 0.0
  outer loop
    vertex 0.0 -0.0333654441016029 -0.0832691117967942
    vertex 0.0 -0.027 0.027
    vertex 0.0 0.0485 -0.0832691117967942
  endloop
endfacet
facet normal -1.0 0.0 0.0
  outer loop
    vertex 0.0 0.0485 -0.0832691117967942
    vertex 0.0 -0.027 0.027
    vertex 0.0 0.013 -0.013
  endloop
endfacet
facet normal -1.0 0.0 0.0
  outer loop
    vertex 0.0 0.013 -0.013
    vertex 0.0 -0.027 0.027
    vertex 0.0 0.013 0.151
  endloop
endfacet
facet normal -1.0 0.0 0.0
  outer loop
    vertex 0.0 0.0485 -0.0832691117967942
    vertex 0.0 0.013 -0.013
    vertex 0.0 0.0485 -0.013
  endloop
endfacet
facet normal -0.130526192220031 0.991444861373813 -2.9118656714073e-015
  outer loop
    vertex 6.70899999999999 0.013 0.151
    vertex 6.73074079978861 0.0158622305917183 -0.013
    vertex 6.709 0.013 -0.013
  endloop
endfacet
facet normal -0.130526192220031 0.991444861373813 -2.9118656714073e-015
  outer loop
    vertex 6.73074079978861 0.0158622305917183 -0.013
    vertex 6.70899999999999 0.013 0.151
    vertex 6.73074079978861 0.0158622305917183 0.150996637722235
  endloop
endfacet
facet normal 0.0 1.0 0.0
  outer loop
    vertex 0.0 0.0485 -0.013
    vertex 0.084 0.0485 -0.0832691117967942
    vertex 0.0 0.0485 -0.0832691117967942
  endloop
endfacet
facet normal 0.0 1.0 0.0
  outer loop
    vertex 0.084 0.0485 -0.0832691117967942
    vertex 0.0 0.0485 -0.013
    vertex 0.084 0.0485 -0.013
  endloop
endfacet
facet normal 0.0 0.0 1.0
  outer loop
    vertex 0.084 0.0485 -0.0832691117967942
    vertex 0.0 0.0715 -0.0832691117967942
    vertex 0.0 0.0485 -0.0832691117967942
  endloop
endfacet
facet normal 0.0 0.0 1.0
  outer loop
    vertex 0.0 0.0715 -0.0832691117967942
    vertex 0.084 0.0485 -0.0832691117967942
    vertex 0.084 0.0715 -0.0832691117967942
  endloop
endfacet
facet normal 1.0 0.0 0.0
  outer loop
    vertex 0.084 -0.0333654441016029 -0.0832691117967942
    vertex 0.084 0.013 -0.013
    vertex 0.084 -0.0685 -0.013
  endloop
endfacet
facet normal 1.0 0.0 0.0
  outer loop
    vertex 0.084 0.013 -0.013
    vertex 0.084 -0.0333654441016029 -0.0832691117967942
    vertex 0.084 0.0485 -0.0832691117967942
  endloop
endfacet
facet normal 1.0 0.0 0.0
  outer loop
    vertex 0.084 0.013 -0.013
    vertex 0.084 0.0485 -0.0832691117967942
    vertex 0.084 0.0485 -0.013
  endloop
endfacet
facet normal 0.0 0.0 -1.0
  outer loop
    vertex 6.625 0.013 -0.013
    vertex 5.334 -0.0685 -0.013
    vertex 5.334 0.013 -0.013
  endloop
endfacet
facet normal 0.0 0.0 -1.0
  outer loop
    vertex 5.334 -0.0685 -0.013
    vertex 6.625 0.013 -0.013
    vertex 5.334 -0.15 -0.013
  endloop
endfacet
facet normal 0.0 0.0 -1.0
  outer loop
    vertex 5.334 -0.15 -0.013
    vertex 6.625 0.013 -0.013
    vertex 6.625 -0.15 -0.013
  endloop
endfacet
facet normal 0.0 0.0 -1.0
  outer loop
    vertex 6.625 -0.15 -0.013
    vertex 6.625 0.013 -0.013
    vertex 6.625 -0.0685 -0.013
  endloop
endfacet
facet normal -0.382683432365092 0.923879532511286 -0.0
  outer loop
    vertex 6.73074079978861 0.0158622305917183 0.150996637722235
    vertex 6.751 0.0242538660821072 -0.013
    vertex 6.73074079978861 0.0158622305917183 -0.013
  endloop
endfacet
facet normal -0.382683432365092 0.923879532511286 -0.0
  outer loop
    vertex 6.751 0.0242538660821072 -0.013
    vertex 6.73074079978861 0.0158622305917183 0.150996637722235
    vertex 6.751 0.0242538660821072 0.150996637722235
  endloop
endfacet
facet normal 0.499999999999995 0.866025403784441 0.0
  outer loop
    vertex 6.8545 0.132507041555162 0.150996637722235
    vertex 6.86299137802865 0.125991378028649 -0.013
    vertex 6.8545 0.132507041555162 -0.013
  endloop
endfacet
facet normal 0.707106781186558 0.707106781186537 0.0
  outer loop
    vertex 6.86299137802865 0.125991378028649 -0.013
    vertex 6.8545 0.132507041555162 0.150996637722235
    vertex 6.86299137802865 0.125991378028649 0.150996637722235
  endloop
endfacet
facet normal -0.965925826289064 0.258819045102536 0.0
  outer loop
    vertex 6.79439704112215 0.107611580849203 0.150996637722235
    vertex 6.793 0.097 -0.013
    vertex 6.793 0.097 0.150996637722235
  endloop
endfacet
facet normal -0.99144486137381 0.130526192220053 0.0
  outer loop
    vertex 6.793 0.097 -0.013
    vertex 6.79439704112215 0.107611580849203 0.150996637722235
    vertex 6.79439704112215 0.107611580849203 -0.013
  endloop
endfacet
facet normal 0.0 0.0 1.0
  outer loop
    vertex 0.084 -0.1855 -0.013
    vertex 0.0 -0.15 -0.013
    vertex 0.0 -0.1855 -0.013
  endloop
endfacet
facet normal 0.0 0.0 1.0
  outer loop
    vertex 0.0 -0.15 -0.013
    vertex 0.084 -0.1855 -0.013
    vertex 0.084 -0.15 -0.013
  endloop
endfacet
facet normal -0.608761429008709 0.793353340291244 -0.0
  outer loop
    vertex 6.751 0.0242538660821072 0.150996637722235
    vertex 6.76839696961967 0.03760303038033 -0.013
    vertex 6.751 0.0242538660821072 -0.013
  endloop
endfacet
facet normal -0.608761429008709 0.793353340291244 -0.0
  outer loop
    vertex 6.76839696961967 0.03760303038033 -0.013
    vertex 6.751 0.0242538660821072 0.150996637722235
    vertex 6.76839696961967 0.03760303038033 0.150996637722235
  endloop
endfacet
facet normal -1.0 0.0 0.0
  outer loop
    vertex 6.625 0.013 -0.013
    vertex 6.625 -0.0333654441016029 -0.0832691117967942
    vertex 6.625 -0.0685 -0.013
  endloop
endfacet
facet normal -1.0 0.0 0.0
  outer loop
    vertex 6.625 -0.0333654441016029 -0.0832691117967942
    vertex 6.625 0.013 -0.013
    vertex 6.625 0.0485 -0.0832691117967942
  endloop
endfacet
facet normal -1.0 0.0 0.0
  outer loop
    vertex 6.625 0.0485 -0.0832691117967942
    vertex 6.625 0.013 -0.013
    vertex 6.625 0.0485 -0.013
  endloop
endfacet
facet normal 0.994479634766516 5.35918105431816e-018 -0.104929767152401
  outer loop
    vertex 6.697 0.0235 -0.197
    vertex 6.709 0.0485 -0.0832691117967942
    vertex 6.709 -0.0333654441016029 -0.0832691117967942
  endloop
endfacet
facet normal 0.994479634766516 5.35918105431816e-018 -0.104929767152401
  outer loop
    vertex 6.709 0.0485 -0.0832691117967942
    vertex 6.697 0.0235 -0.197
    vertex 6.709 0.0715 -0.0832691117967942
  endloop
endfacet
facet normal 1.41598376994025e-032 -0.894427190999916 -0.447213595499958
  outer loop
    vertex 6.709 -0.0333654441016029 -0.0832691117967942
    vertex 6.637 0.0235 -0.197
    vertex 6.697 0.0235 -0.197
  endloop
endfacet
facet normal 1.41598376994025e-032 -0.894427190999916 -0.447213595499958
  outer loop
    vertex 6.637 0.0235 -0.197
    vertex 6.709 -0.0333654441016029 -0.0832691117967942
    vertex 6.625 -0.0333654441016029 -0.0832691117967942
  endloop
endfacet
facet normal 1.41598376994025e-032 -0.894427190999916 -0.447213595499958
  outer loop
    vertex 6.625 -0.0333654441016029 -0.0832691117967942
    vertex 6.709 -0.0333654441016029 -0.0832691117967942
    vertex 6.709 -0.0685 -0.013
  endloop
endfacet
facet normal 1.41598376994025e-032 -0.894427190999916 -0.447213595499958
  outer loop
    vertex 6.625 -0.0333654441016029 -0.0832691117967942
    vertex 6.709 -0.0685 -0.013
    vertex 6.625 -0.0685 -0.013
  endloop
endfacet
facet normal -1.0 0.0 0.0
  outer loop
    vertex 6.625 -0.15 -0.013
    vertex 6.625 -0.1855 -0.0832691117967942
    vertex 6.625 -0.1855 -0.013
  endloop
endfacet
facet normal -1.0 0.0 0.0
  outer loop
    vertex 6.625 -0.1855 -0.0832691117967942
    vertex 6.625 -0.15 -0.013
    vertex 6.625 -0.103634555898397 -0.0832691117967942
  endloop
endfacet
facet normal -1.0 0.0 0.0
  outer loop
    vertex 6.625 -0.103634555898397 -0.0832691117967942
    vertex 6.625 -0.15 -0.013
    vertex 6.625 -0.0685 -0.013
  endloop
endfacet
facet normal 1.0 -0.0 -0.0
  outer loop
    vertex 6.709 -0.0333654441016029 -0.0832691117967942
    vertex 6.709 0.013 -0.013
    vertex 6.709 -0.0685 -0.013
  endloop
endfacet
facet normal 1.0 -0.0 -0.0
  outer loop
    vertex 6.709 0.013 -0.013
    vertex 6.709 -0.0333654441016029 -0.0832691117967942
    vertex 6.709 0.0485 -0.0832691117967942
  endloop
endfacet
facet normal 1.0 -0.0 -0.0
  outer loop
    vertex 6.709 0.013 -0.013
    vertex 6.709 0.0485 -0.0832691117967942
    vertex 6.709 0.0485 -0.013
  endloop
endfacet
facet normal 0.0 0.0 1.0
  outer loop
    vertex 6.709 0.0485 -0.0832691117967942
    vertex 6.625 0.0715 -0.0832691117967942
    vertex 6.625 0.0485 -0.0832691117967942
  endloop
endfacet
facet normal 0.0 0.0 1.0
  outer loop
    vertex 6.625 0.0715 -0.0832691117967942
    vertex 6.709 0.0485 -0.0832691117967942
    vertex 6.709 0.0715 -0.0832691117967942
  endloop
endfacet
facet normal -0.0 1.0 -0.0
  outer loop
    vertex 6.625 0.0485 -0.013
    vertex 6.709 0.0485 -0.0832691117967942
    vertex 6.625 0.0485 -0.0832691117967942
  endloop
endfacet
facet normal -0.0 1.0 -0.0
  outer loop
    vertex 6.709 0.0485 -0.0832691117967942
    vertex 6.625 0.0485 -0.013
    vertex 6.709 0.0485 -0.013
  endloop
endfacet
facet normal 0.25881904510252 0.965925826289069 0.0
  outer loop
    vertex 6.8446115808492 0.136602958877852 0.150996637722235
    vertex 6.8545 0.132507041555162 -0.013
    vertex 6.8446115808492 0.136602958877852 -0.013
  endloop
endfacet
facet normal 0.499999999999995 0.866025403784441 0.0
  outer loop
    vertex 6.8545 0.132507041555162 -0.013
    vertex 6.8446115808492 0.136602958877852 0.150996637722235
    vertex 6.8545 0.132507041555162 0.150996637722235
  endloop
endfacet
facet normal -0.793353340291234 -0.608761429008723 0.0
  outer loop
    vertex 6.76839696961967 -0.17460303038033 0.151
    vertex 6.78174613391789 -0.192 -0.013
    vertex 6.78174613391789 -0.192 0.151
  endloop
endfacet
facet normal -0.793353340291234 -0.608761429008723 0.0
  outer loop
    vertex 6.78174613391789 -0.192 -0.013
    vertex 6.76839696961967 -0.17460303038033 0.151
    vertex 6.76839696961967 -0.17460303038033 -0.013
  endloop
endfacet
facet normal 1.27428871507751e-015 1.0 0.0
  outer loop
    vertex 6.834 0.138 0.150996637722235
    vertex 6.8446115808492 0.136602958877852 -0.013
    vertex 6.834 0.138 -0.013
  endloop
endfacet
facet normal 0.25881904510252 0.965925826289069 0.0
  outer loop
    vertex 6.8446115808492 0.136602958877852 -0.013
    vertex 6.834 0.138 0.150996637722235
    vertex 6.8446115808492 0.136602958877852 0.150996637722235
  endloop
endfacet
facet normal 0.488762674664772 -0.872416785633185 -7.86393811690337e-031
  outer loop
    vertex 6.81768124086713 0.000620274323030455 0.150996637722235
    vertex 6.78431346652053 -0.0180736835487462 0.027
    vertex 6.81768124086713 0.000620274323030455 0.027
  endloop
endfacet
facet normal 0.488762674664772 -0.872416785633185 -7.86393811690337e-031
  outer loop
    vertex 6.78431346652053 -0.0180736835487462 0.027
    vertex 6.81768124086713 0.000620274323030455 0.150996637722235
    vertex 6.78431346652053 -0.0180736835487462 0.150996637722235
  endloop
endfacet
facet normal 0.0 0.0 -1.0
  outer loop
    vertex 6.73074079978861 0.0158622305917183 -0.013
    vertex 6.709 -0.0685 -0.013
    vertex 6.709 0.013 -0.013
  endloop
endfacet
facet normal 0.0 0.0 -1.0
  outer loop
    vertex 6.709 -0.0685 -0.013
    vertex 6.73074079978861 0.0158622305917183 -0.013
    vertex 6.709 -0.15 -0.013
  endloop
endfacet
facet normal 0.0 0.0 -1.0
  outer loop
    vertex 6.709 -0.15 -0.013
    vertex 6.73074079978861 0.0158622305917183 -0.013
    vertex 6.73074079978861 -0.152862230591719 -0.013
  endloop
endfacet
facet normal 0.0 0.0 -1.0
  outer loop
    vertex 6.73074079978861 -0.152862230591719 -0.013
    vertex 6.73074079978861 0.0158622305917183 -0.013
    vertex 6.751 0.0242538660821072 -0.013
  endloop
endfacet
facet normal 0.0 0.0 -1.0
  outer loop
    vertex 6.73074079978861 -0.152862230591719 -0.013
    vertex 6.751 0.0242538660821072 -0.013
    vertex 6.751 -0.161253866082108 -0.013
  endloop
endfacet
facet normal 0.0 0.0 -1.0
  outer loop
    vertex 6.751 -0.161253866082108 -0.013
    vertex 6.751 0.0242538660821072 -0.013
    vertex 6.76839696961967 0.03760303038033 -0.013
  endloop
endfacet
facet normal 0.0 0.0 -1.0
  outer loop
    vertex 6.751 -0.161253866082108 -0.013
    vertex 6.76839696961967 0.03760303038033 -0.013
    vertex 6.76839696961967 -0.17460303038033 -0.013
  endloop
endfacet
facet normal 0.0 0.0 -1.0
  outer loop
    vertex 6.76839696961967 -0.17460303038033 -0.013
    vertex 6.76839696961967 0.03760303038033 -0.013
    vertex 6.78174613391789 -0.192 -0.013
  endloop
endfacet
facet normal 0.0 0.0 -1.0
  outer loop
    vertex 6.78174613391789 -0.192 -0.013
    vertex 6.76839696961967 0.03760303038033 -0.013
    vertex 6.78174613391789 0.0550000000000001 -0.013
  endloop
endfacet
facet normal 0.0 0.0 -1.0
  outer loop
    vertex 6.78174613391789 -0.192 -0.013
    vertex 6.78174613391789 0.0550000000000001 -0.013
    vertex 6.79013776940828 -0.212259200211388 -0.013
  endloop
endfacet
facet normal 0.0 0.0 -1.0
  outer loop
    vertex 6.79013776940828 -0.212259200211388 -0.013
    vertex 6.78174613391789 0.0550000000000001 -0.013
    vertex 6.79013776940828 0.0752592002113883 -0.013
  endloop
endfacet
facet normal 0.0 0.0 -1.0
  outer loop
    vertex 6.79013776940828 -0.212259200211388 -0.013
    vertex 6.79013776940828 0.0752592002113883 -0.013
    vertex 6.793 -0.234 -0.013
  endloop
endfacet
facet normal 0.0 0.0 -1.0
  outer loop
    vertex 6.793 -0.234 -0.013
    vertex 6.79013776940828 0.0752592002113883 -0.013
    vertex 6.793 0.097 -0.013
  endloop
endfacet
facet normal 0.0 0.0 -1.0
  outer loop
    vertex 6.793 -0.234 -0.013
    vertex 6.793 0.097 -0.013
    vertex 6.79439704112215 0.107611580849203 -0.013
  endloop
endfacet
facet normal 0.0 0.0 -1.0
  outer loop
    vertex 6.793 -0.234 -0.013
    vertex 6.79439704112215 0.107611580849203 -0.013
    vertex 6.79439704112215 -0.244611580849203 -0.013
  endloop
endfacet
facet normal 0.0 0.0 -1.0
  outer loop
    vertex 6.79439704112215 -0.244611580849203 -0.013
    vertex 6.79439704112215 0.107611580849203 -0.013
    vertex 6.79849295844484 0.1175 -0.013
  endloop
endfacet
facet normal 0.0 0.0 -1.0
  outer loop
    vertex 6.79439704112215 -0.244611580849203 -0.013
    vertex 6.79849295844484 0.1175 -0.013
    vertex 6.79849295844484 -0.2545 -0.013
  endloop
endfacet
facet normal 0.0 0.0 -1.0
  outer loop
    vertex 6.79849295844484 -0.2545 -0.013
    vertex 6.79849295844484 0.1175 -0.013
    vertex 6.80500862197135 0.125991378028649 -0.013
  endloop
endfacet
facet normal 0.0 0.0 -1.0
  outer loop
    vertex 6.79849295844484 -0.2545 -0.013
    vertex 6.80500862197135 0.125991378028649 -0.013
    vertex 6.80500862197135 -0.262991378028649 -0.013
  endloop
endfacet
facet normal 0.0 0.0 -1.0
  outer loop
    vertex 6.80500862197135 -0.262991378028649 -0.013
    vertex 6.80500862197135 0.125991378028649 -0.013
    vertex 6.8135 0.132507041555162 -0.013
  endloop
endfacet
facet normal 0.0 0.0 -1.0
  outer loop
    vertex 6.80500862197135 -0.262991378028649 -0.013
    vertex 6.8135 0.132507041555162 -0.013
    vertex 6.8135 -0.269507041555162 -0.013
  endloop
endfacet
facet normal 0.0 0.0 -1.0
  outer loop
    vertex 6.8135 -0.269507041555162 -0.013
    vertex 6.8135 0.132507041555162 -0.013
    vertex 6.8233884191508 0.136602958877852 -0.013
  endloop
endfacet
facet normal 0.0 0.0 -1.0
  outer loop
    vertex 6.8135 -0.269507041555162 -0.013
    vertex 6.8233884191508 0.136602958877852 -0.013
    vertex 6.8233884191508 -0.273602958877852 -0.013
  endloop
endfacet
facet normal 0.0 0.0 -1.0
  outer loop
    vertex 6.8233884191508 -0.273602958877852 -0.013
    vertex 6.8233884191508 0.136602958877852 -0.013
    vertex 6.834 0.138 -0.013
  endloop
endfacet
facet normal 0.0 0.0 -1.0
  outer loop
    vertex 6.8233884191508 -0.273602958877852 -0.013
    vertex 6.834 0.138 -0.013
    vertex 6.834 -0.275 -0.013
  endloop
endfacet
facet normal 0.0 0.0 -1.0
  outer loop
    vertex 6.834 -0.275 -0.013
    vertex 6.834 0.138 -0.013
    vertex 6.8446115808492 0.136602958877852 -0.013
  endloop
endfacet
facet normal 0.0 0.0 -1.0
  outer loop
    vertex 6.834 -0.275 -0.013
    vertex 6.8446115808492 0.136602958877852 -0.013
    vertex 6.8446115808492 -0.273602958877852 -0.013
  endloop
endfacet
facet normal 0.0 0.0 -1.0
  outer loop
    vertex 6.8446115808492 -0.273602958877852 -0.013
    vertex 6.8446115808492 0.136602958877852 -0.013
    vertex 6.8545 0.132507041555162 -0.013
  endloop
endfacet
facet normal 0.0 0.0 -1.0
  outer loop
    vertex 6.8446115808492 -0.273602958877852 -0.013
    vertex 6.8545 0.132507041555162 -0.013
    vertex 6.8545 -0.269507041555162 -0.013
  endloop
endfacet
facet normal 0.0 0.0 -1.0
  outer loop
    vertex 6.8545 -0.269507041555162 -0.013
    vertex 6.8545 0.132507041555162 -0.013
    vertex 6.86299137802865 0.125991378028649 -0.013
  endloop
endfacet
facet normal 0.0 0.0 -1.0
  outer loop
    vertex 6.8545 -0.269507041555162 -0.013
    vertex 6.86299137802865 0.125991378028649 -0.013
    vertex 6.86299137802865 -0.262991378028649 -0.013
  endloop
endfacet
facet normal 0.0 0.0 -1.0
  outer loop
    vertex 6.86299137802865 -0.262991378028649 -0.013
    vertex 6.86299137802865 0.125991378028649 -0.013
    vertex 6.86950704155516 0.1175 -0.013
  endloop
endfacet
facet normal 0.0 0.0 -1.0
  outer loop
    vertex 6.86299137802865 -0.262991378028649 -0.013
    vertex 6.86950704155516 0.1175 -0.013
    vertex 6.86950704155516 -0.2545 -0.013
  endloop
endfacet
facet normal 0.0 0.0 -1.0
  outer loop
    vertex 6.86950704155516 -0.2545 -0.013
    vertex 6.86950704155516 0.1175 -0.013
    vertex 6.87360295887785 0.107611580849203 -0.013
  endloop
endfacet
facet normal 0.0 0.0 -1.0
  outer loop
    vertex 6.86950704155516 -0.2545 -0.013
    vertex 6.87360295887785 0.107611580849203 -0.013
    vertex 6.87360295887785 -0.244611580849203 -0.013
  endloop
endfacet
facet normal 0.0 0.0 -1.0
  outer loop
    vertex 6.87360295887785 -0.244611580849203 -0.013
    vertex 6.87360295887785 0.107611580849203 -0.013
    vertex 6.875 0.097 -0.013
  endloop
endfacet
facet normal 0.0 0.0 -1.0
  outer loop
    vertex 6.87360295887785 -0.244611580849203 -0.013
    vertex 6.875 0.097 -0.013
    vertex 6.875 -0.234 -0.013
  endloop
endfacet
facet normal -0.258819045102519 0.965925826289069 0.0
  outer loop
    vertex 6.8233884191508 0.136602958877852 0.150996637722235
    vertex 6.834 0.138 -0.013
    vertex 6.8233884191508 0.136602958877852 -0.013
  endloop
endfacet
facet normal 1.27428871507751e-015 1.0 0.0
  outer loop
    vertex 6.834 0.138 -0.013
    vertex 6.8233884191508 0.136602958877852 0.150996637722235
    vertex 6.834 0.138 0.150996637722235
  endloop
endfacet
facet normal -0.991444861373809 -0.130526192220064 0.0
  outer loop
    vertex 6.79013776940828 -0.212259200211388 0.151
    vertex 6.793 -0.234 -0.013
    vertex 6.793 -0.234 0.151
  endloop
endfacet
facet normal -0.991444861373809 -0.130526192220064 0.0
  outer loop
    vertex 6.793 -0.234 -0.013
    vertex 6.79013776940828 -0.212259200211388 0.151
    vertex 6.79013776940828 -0.212259200211388 -0.013
  endloop
endfacet
facet normal -0.923879532511288 -0.382683432365088 0.0
  outer loop
    vertex 6.78174613391789 -0.192 0.151
    vertex 6.79013776940828 -0.212259200211388 -0.013
    vertex 6.79013776940828 -0.212259200211388 0.151
  endloop
endfacet
facet normal -0.923879532511288 -0.382683432365088 0.0
  outer loop
    vertex 6.79013776940828 -0.212259200211388 -0.013
    vertex 6.78174613391789 -0.192 0.151
    vertex 6.78174613391789 -0.192 -0.013
  endloop
endfacet
facet normal -0.793353340291236 0.60876142900872 0.0
  outer loop
    vertex 6.78174613391789 0.0550000000000001 0.150996637722235
    vertex 6.76839696961967 0.03760303038033 -0.013
    vertex 6.76839696961967 0.03760303038033 0.150996637722235
  endloop
endfacet
facet normal -0.793353340291236 0.60876142900872 0.0
  outer loop
    vertex 6.76839696961967 0.03760303038033 -0.013
    vertex 6.78174613391789 0.0550000000000001 0.150996637722235
    vertex 6.78174613391789 0.0550000000000001 -0.013
  endloop
endfacet
facet normal -0.499999999999996 0.866025403784441 0.0
  outer loop
    vertex 6.8135 0.132507041555162 0.150996637722235
    vertex 6.8233884191508 0.136602958877852 -0.013
    vertex 6.8135 0.132507041555162 -0.013
  endloop
endfacet
facet normal -0.258819045102519 0.965925826289069 0.0
  outer loop
    vertex 6.8233884191508 0.136602958877852 -0.013
    vertex 6.8135 0.132507041555162 0.150996637722235
    vertex 6.8233884191508 0.136602958877852 0.150996637722235
  endloop
endfacet
facet normal 0.991444861373774 0.130526192220331 -1.04118420332262e-014
  outer loop
    vertex 6.875 0.097 -0.013
    vertex 6.875 0.0969999999999992 0.150996637722235
    vertex 6.875 0.0969999999999992 0.027
  endloop
endfacet
facet normal 0.991444861373774 0.130526192220331 -1.04118420332262e-014
  outer loop
    vertex 6.875 0.0969999999999992 0.150996637722235
    vertex 6.875 0.097 -0.013
    vertex 6.87360295887785 0.107611580849203 0.150996637722235
  endloop
endfacet
facet normal 0.965925826289028 0.258819045102672 -5.25084270384877e-015
  outer loop
    vertex 6.87360295887785 0.107611580849203 0.150996637722235
    vertex 6.875 0.097 -0.013
    vertex 6.87360295887785 0.107611580849203 -0.013
  endloop
endfacet
facet normal 0.697906569773847 -0.716188815792667 1.12123721544164e-030
  outer loop
    vertex 6.84507368354874 0.0273134665205246 0.150996637722235
    vertex 6.81768124086713 0.000620274323030455 0.027
    vertex 6.84507368354874 0.0273134665205246 0.027
  endloop
endfacet
facet normal 0.697906569773847 -0.716188815792667 1.12123721544164e-030
  outer loop
    vertex 6.81768124086713 0.000620274323030455 0.027
    vertex 6.84507368354874 0.0273134665205246 0.150996637722235
    vertex 6.81768124086713 0.000620274323030455 0.150996637722235
  endloop
endfacet
facet normal -0.0129275001353134 -0.999916436378686 6.47035572936213e-016
  outer loop
    vertex 6.74724431918779 -0.0274944447590697 0.150996637722237
    vertex 6.70899999999999 -0.027 0.027
    vertex 6.74724431918779 -0.0274944447590698 0.027
  endloop
endfacet
facet normal -0.0129275001353134 -0.999916436378686 6.47035572936213e-016
  outer loop
    vertex 6.70899999999999 -0.027 0.027
    vertex 6.74724431918779 -0.0274944447590697 0.150996637722237
    vertex 6.709 -0.0269999999999999 0.151000000000004
  endloop
endfacet
facet normal -0.707106781186558 0.707106781186537 0.0
  outer loop
    vertex 6.80500862197135 0.125991378028649 0.150996637722235
    vertex 6.8135 0.132507041555162 -0.013
    vertex 6.80500862197135 0.125991378028649 -0.013
  endloop
endfacet
facet normal -0.499999999999996 0.866025403784441 0.0
  outer loop
    vertex 6.8135 0.132507041555162 -0.013
    vertex 6.80500862197135 0.125991378028649 0.150996637722235
    vertex 6.8135 0.132507041555162 0.150996637722235
  endloop
endfacet
facet normal -0.38268343236509 -0.923879532511287 0.0
  outer loop
    vertex 6.751 -0.161253866082108 0.151
    vertex 6.73074079978861 -0.152862230591719 -0.013
    vertex 6.751 -0.161253866082108 -0.013
  endloop
endfacet
facet normal -0.38268343236509 -0.923879532511287 0.0
  outer loop
    vertex 6.73074079978861 -0.152862230591719 -0.013
    vertex 6.751 -0.161253866082108 0.151
    vertex 6.73074079978861 -0.152862230591719 0.151
  endloop
endfacet
facet normal 0.962499226788527 -0.271284423495872 -0.0
  outer loop
    vertex 6.875 0.0969999999999992 0.027
    vertex 6.86462404486477 0.0601867961080622 0.150996637722235
    vertex 6.86462404486477 0.0601867961080622 0.027
  endloop
endfacet
facet normal 0.962499226788527 -0.271284423495872 -0.0
  outer loop
    vertex 6.86462404486477 0.0601867961080622 0.150996637722235
    vertex 6.875 0.0969999999999992 0.027
    vertex 6.875 0.0969999999999992 0.150996637722235
  endloop
endfacet
facet normal -0.707106781186558 0.707106781186537 0.0
  outer loop
    vertex 6.80500862197135 0.125991378028649 0.150996637722235
    vertex 6.79849295844484 0.1175 -0.013
    vertex 6.79849295844484 0.1175 0.150996637722235
  endloop
endfacet
facet normal -0.86602540378444 0.499999999999998 0.0
  outer loop
    vertex 6.79849295844484 0.1175 -0.013
    vertex 6.80500862197135 0.125991378028649 0.150996637722235
    vertex 6.80500862197135 0.125991378028649 -0.013
  endloop
endfacet
facet normal -0.923879532511288 0.382683432365086 0.0
  outer loop
    vertex 6.79013776940828 0.0752592002113883 0.150996637722235
    vertex 6.78174613391789 0.0550000000000001 -0.013
    vertex 6.78174613391789 0.0550000000000001 0.150996637722235
  endloop
endfacet
facet normal -0.923879532511288 0.382683432365086 0.0
  outer loop
    vertex 6.78174613391789 0.0550000000000001 -0.013
    vertex 6.79013776940828 0.0752592002113883 0.150996637722235
    vertex 6.79013776940828 0.0752592002113883 -0.013
  endloop
endfacet
facet normal 0.246310410995797 -0.969190993269687 2.87795023267781e-015
  outer loop
    vertex 6.78431346652053 -0.0180736835487462 0.150996637722235
    vertex 6.74724431918779 -0.0274944447590698 0.027
    vertex 6.78431346652053 -0.0180736835487462 0.027
  endloop
endfacet
facet normal 0.246310410995797 -0.969190993269687 2.87795023267781e-015
  outer loop
    vertex 6.74724431918779 -0.0274944447590698 0.027
    vertex 6.78431346652053 -0.0180736835487462 0.150996637722235
    vertex 6.74724431918779 -0.0274944447590697 0.150996637722237
  endloop
endfacet
facet normal 0.859489285497887 -0.511153761713959 -0.0
  outer loop
    vertex 6.86462404486477 0.0601867961080622 0.027
    vertex 6.84507368354874 0.0273134665205246 0.150996637722235
    vertex 6.84507368354874 0.0273134665205246 0.027
  endloop
endfacet
facet normal 0.859489285497887 -0.511153761713959 -0.0
  outer loop
    vertex 6.84507368354874 0.0273134665205246 0.150996637722235
    vertex 6.86462404486477 0.0601867961080622 0.027
    vertex 6.86462404486477 0.0601867961080622 0.150996637722235
  endloop
endfacet
facet normal 0.499999999999995 -0.866025403784441 0.0
  outer loop
    vertex 6.8545 -0.269507041555162 0.151
    vertex 6.8446115808492 -0.273602958877852 -0.013
    vertex 6.8545 -0.269507041555162 -0.013
  endloop
endfacet
facet normal 0.258819045102519 -0.965925826289069 0.0
  outer loop
    vertex 6.8446115808492 -0.273602958877852 -0.013
    vertex 6.8545 -0.269507041555162 0.151
    vertex 6.8446115808492 -0.273602958877852 0.151
  endloop
endfacet
facet normal 0.258819045102519 -0.965925826289069 0.0
  outer loop
    vertex 6.8446115808492 -0.273602958877852 0.151
    vertex 6.834 -0.275 -0.013
    vertex 6.8446115808492 -0.273602958877852 -0.013
  endloop
endfacet
facet normal 0.0 -1.0 0.0
  outer loop
    vertex 6.834 -0.275 -0.013
    vertex 6.8446115808492 -0.273602958877852 0.151
    vertex 6.834 -0.275 0.151
  endloop
endfacet
facet normal 0.0 -1.0 0.0
  outer loop
    vertex 6.834 -0.275 0.151
    vertex 6.8233884191508 -0.273602958877852 -0.013
    vertex 6.834 -0.275 -0.013
  endloop
endfacet
facet normal -0.258819045102519 -0.965925826289069 0.0
  outer loop
    vertex 6.8233884191508 -0.273602958877852 -0.013
    vertex 6.834 -0.275 0.151
    vertex 6.8233884191508 -0.273602958877852 0.151
  endloop
endfacet
facet normal -0.258819045102519 -0.965925826289069 0.0
  outer loop
    vertex 6.8233884191508 -0.273602958877852 0.151
    vertex 6.8135 -0.269507041555162 -0.013
    vertex 6.8233884191508 -0.273602958877852 -0.013
  endloop
endfacet
facet normal -0.499999999999995 -0.866025403784441 0.0
  outer loop
    vertex 6.8135 -0.269507041555162 -0.013
    vertex 6.8233884191508 -0.273602958877852 0.151
    vertex 6.8135 -0.269507041555162 0.151
  endloop
endfacet
facet normal -0.499999999999995 -0.866025403784441 0.0
  outer loop
    vertex 6.8135 -0.269507041555162 0.151
    vertex 6.80500862197135 -0.262991378028649 -0.013
    vertex 6.8135 -0.269507041555162 -0.013
  endloop
endfacet
facet normal -0.707106781186558 -0.707106781186537 0.0
  outer loop
    vertex 6.80500862197135 -0.262991378028649 -0.013
    vertex 6.8135 -0.269507041555162 0.151
    vertex 6.80500862197135 -0.262991378028649 0.151
  endloop
endfacet
facet normal -0.86602540378444 -0.499999999999998 0.0
  outer loop
    vertex 6.79849295844484 -0.2545 0.151
    vertex 6.80500862197135 -0.262991378028649 -0.013
    vertex 6.80500862197135 -0.262991378028649 0.151
  endloop
endfacet
facet normal -0.707106781186558 -0.707106781186537 0.0
  outer loop
    vertex 6.80500862197135 -0.262991378028649 -0.013
    vertex 6.79849295844484 -0.2545 0.151
    vertex 6.79849295844484 -0.2545 -0.013
  endloop
endfacet
facet normal -0.965925826289064 -0.258819045102536 0.0
  outer loop
    vertex 6.79439704112215 -0.244611580849203 0.151
    vertex 6.79849295844484 -0.2545 -0.013
    vertex 6.79849295844484 -0.2545 0.151
  endloop
endfacet
facet normal -0.86602540378444 -0.499999999999998 0.0
  outer loop
    vertex 6.79849295844484 -0.2545 -0.013
    vertex 6.79439704112215 -0.244611580849203 0.151
    vertex 6.79439704112215 -0.244611580849203 -0.013
  endloop
endfacet
facet normal -0.99144486137381 -0.130526192220053 0.0
  outer loop
    vertex 6.793 -0.234 0.151
    vertex 6.79439704112215 -0.244611580849203 -0.013
    vertex 6.79439704112215 -0.244611580849203 0.151
  endloop
endfacet
facet normal -0.965925826289064 -0.258819045102536 0.0
  outer loop
    vertex 6.79439704112215 -0.244611580849203 -0.013
    vertex 6.793 -0.234 0.151
    vertex 6.793 -0.234 -0.013
  endloop
endfacet
facet normal 0.965925826289097 -0.258819045102415 3.38989879224775e-014
  outer loop
    vertex 6.87360295887785 -0.244611580849203 -0.013
    vertex 6.86950704155516 -0.2545 0.151
    vertex 6.86950704155516 -0.2545 -0.013
  endloop
endfacet
facet normal 0.86602540378444 -0.499999999999998 0.0
  outer loop
    vertex 6.86950704155516 -0.2545 0.151
    vertex 6.87360295887785 -0.244611580849203 -0.013
    vertex 6.87360295887785 -0.244611580849203 0.151
  endloop
endfacet
facet normal 0.86602540378444 -0.499999999999998 0.0
  outer loop
    vertex 6.86950704155516 -0.2545 -0.013
    vertex 6.86299137802865 -0.262991378028649 0.151
    vertex 6.86299137802865 -0.262991378028649 -0.013
  endloop
endfacet
facet normal 0.707106781186558 -0.707106781186537 0.0
  outer loop
    vertex 6.86299137802865 -0.262991378028649 0.151
    vertex 6.86950704155516 -0.2545 -0.013
    vertex 6.86950704155516 -0.2545 0.151
  endloop
endfacet
facet normal 0.707106781186558 -0.707106781186537 0.0
  outer loop
    vertex 6.86299137802865 -0.262991378028649 0.151
    vertex 6.8545 -0.269507041555162 -0.013
    vertex 6.86299137802865 -0.262991378028649 -0.013
  endloop
endfacet
facet normal 0.499999999999995 -0.866025403784441 0.0
  outer loop
    vertex 6.8545 -0.269507041555162 -0.013
    vertex 6.86299137802865 -0.262991378028649 0.151
    vertex 6.8545 -0.269507041555162 0.151
  endloop
endfacet
facet normal -0.0 -0.0 1.0
  outer loop
    vertex 6.70899999999999 -0.11 0.027
    vertex 0.0 -0.027 0.027
    vertex 0.0 -0.11 0.027
  endloop
endfacet
facet normal -0.0 -0.0 1.0
  outer loop
    vertex 0.0 -0.027 0.027
    vertex 6.70899999999999 -0.11 0.027
    vertex 6.70899999999999 -0.027 0.027
  endloop
endfacet
facet normal -0.0 -0.0 1.0
  outer loop
    vertex 6.70899999999999 -0.027 0.027
    vertex 6.70899999999999 -0.11 0.027
    vertex 6.74724431918778 -0.109505555240924 0.027
  endloop
endfacet
facet normal -0.0 -0.0 1.0
  outer loop
    vertex 6.70899999999999 -0.027 0.027
    vertex 6.74724431918778 -0.109505555240924 0.027
    vertex 6.74724431918779 -0.0274944447590698 0.027
  endloop
endfacet
facet normal -0.0 -0.0 1.0
  outer loop
    vertex 6.74724431918779 -0.0274944447590698 0.027
    vertex 6.74724431918778 -0.109505555240924 0.027
    vertex 6.78431346652051 -0.118926316451248 0.027
  endloop
endfacet
facet normal -0.0 -0.0 1.0
  outer loop
    vertex 6.74724431918779 -0.0274944447590698 0.027
    vertex 6.78431346652051 -0.118926316451248 0.027
    vertex 6.78431346652053 -0.0180736835487462 0.027
  endloop
endfacet
facet normal -0.0 -0.0 1.0
  outer loop
    vertex 6.78431346652053 -0.0180736835487462 0.027
    vertex 6.78431346652051 -0.118926316451248 0.027
    vertex 6.81768124086712 -0.137620274323024 0.027
  endloop
endfacet
facet normal -0.0 -0.0 1.0
  outer loop
    vertex 6.78431346652053 -0.0180736835487462 0.027
    vertex 6.81768124086712 -0.137620274323024 0.027
    vertex 6.81768124086713 0.000620274323030455 0.027
  endloop
endfacet
facet normal -0.0 -0.0 1.0
  outer loop
    vertex 6.81768124086713 0.000620274323030455 0.027
    vertex 6.81768124086712 -0.137620274323024 0.027
    vertex 6.84507368354873 -0.164313466520518 0.027
  endloop
endfacet
facet normal -0.0 -0.0 1.0
  outer loop
    vertex 6.81768124086713 0.000620274323030455 0.027
    vertex 6.84507368354873 -0.164313466520518 0.027
    vertex 6.84507368354874 0.0273134665205246 0.027
  endloop
endfacet
facet normal -0.0 -0.0 1.0
  outer loop
    vertex 6.84507368354874 0.0273134665205246 0.027
    vertex 6.84507368354873 -0.164313466520518 0.027
    vertex 6.86462404486476 -0.197186796108056 0.027
  endloop
endfacet
facet normal -0.0 -0.0 1.0
  outer loop
    vertex 6.84507368354874 0.0273134665205246 0.027
    vertex 6.86462404486476 -0.197186796108056 0.027
    vertex 6.86462404486477 0.0601867961080622 0.027
  endloop
endfacet
facet normal -0.0 -0.0 1.0
  outer loop
    vertex 6.86462404486477 0.0601867961080622 0.027
    vertex 6.86462404486476 -0.197186796108056 0.027
    vertex 6.875 -0.233999999999993 0.027
  endloop
endfacet
facet normal -0.0 -0.0 1.0
  outer loop
    vertex 6.86462404486477 0.0601867961080622 0.027
    vertex 6.875 -0.233999999999993 0.027
    vertex 6.875 0.0969999999999992 0.027
  endloop
endfacet
facet normal 0.86602540378444 0.499999999999998 0.0
  outer loop
    vertex 6.86950704155516 0.1175 -0.013
    vertex 6.87360295887785 0.107611580849203 0.150996637722235
    vertex 6.87360295887785 0.107611580849203 -0.013
  endloop
endfacet
facet normal 0.965925826289028 0.258819045102672 -5.25084270384877e-015
  outer loop
    vertex 6.87360295887785 0.107611580849203 0.150996637722235
    vertex 6.86950704155516 0.1175 -0.013
    vertex 6.86950704155516 0.1175 0.150996637722235
  endloop
endfacet
facet normal 0.962499226788521 0.271284423495894 0.0
  outer loop
    vertex 6.86462404486476 -0.197186796108056 0.027
    vertex 6.875 -0.233999999999993 0.151
    vertex 6.875 -0.233999999999993 0.027
  endloop
endfacet
facet normal 0.962499226788521 0.271284423495894 0.0
  outer loop
    vertex 6.875 -0.233999999999993 0.151
    vertex 6.86462404486476 -0.197186796108056 0.027
    vertex 6.86462404486476 -0.197186796108056 0.151
  endloop
endfacet
facet normal 4.1370659734131e-018 -1.0 2.23835287222814e-016
  outer loop
    vertex 6.709 -0.0269999999999999 0.151000000000004
    vertex 0.0 -0.027 0.027
    vertex 6.70899999999999 -0.027 0.027
  endloop
endfacet
facet normal 4.1370659734131e-018 -1.0 2.23835287222814e-016
  outer loop
    vertex 0.0 -0.027 0.027
    vertex 6.709 -0.0269999999999999 0.151000000000004
    vertex 0.0 -0.027 0.151
  endloop
endfacet
facet normal 0.24631041099587 0.969190993269668 0.0
  outer loop
    vertex 6.74724431918778 -0.109505555240924 0.151
    vertex 6.78431346652051 -0.118926316451248 0.027
    vertex 6.74724431918778 -0.109505555240924 0.027
  endloop
endfacet
facet normal 0.24631041099587 0.969190993269668 0.0
  outer loop
    vertex 6.78431346652051 -0.118926316451248 0.027
    vertex 6.74724431918778 -0.109505555240924 0.151
    vertex 6.78431346652051 -0.118926316451248 0.151
  endloop
endfacet
facet normal 0.991444861373843 -0.130526192219804 6.72179547630251e-014
  outer loop
    vertex 6.875 -0.234 -0.013
    vertex 6.87360295887785 -0.244611580849203 0.151
    vertex 6.87360295887785 -0.244611580849203 -0.013
  endloop
endfacet
facet normal 0.965925826289097 -0.258819045102415 3.38989879224775e-014
  outer loop
    vertex 6.87360295887785 -0.244611580849203 0.151
    vertex 6.875 -0.234 -0.013
    vertex 6.875 -0.233999999999993 0.151
  endloop
endfacet
facet normal 0.991444861373843 -0.130526192219804 6.72179547630251e-014
  outer loop
    vertex 6.875 -0.233999999999993 0.151
    vertex 6.875 -0.234 -0.013
    vertex 6.875 -0.233999999999993 0.027
  endloop
endfacet
facet normal 0.859489285497889 0.511153761713957 0.0
  outer loop
    vertex 6.84507368354873 -0.164313466520518 0.027
    vertex 6.86462404486476 -0.197186796108056 0.151
    vertex 6.86462404486476 -0.197186796108056 0.027
  endloop
endfacet
facet normal 0.859489285497889 0.511153761713957 0.0
  outer loop
    vertex 6.86462404486476 -0.197186796108056 0.151
    vertex 6.84507368354873 -0.164313466520518 0.027
    vertex 6.84507368354873 -0.164313466520518 0.151
  endloop
endfacet
facet normal -0.0129275001354887 0.999916436378684 -0.0
  outer loop
    vertex 6.70899999999999 -0.11 0.151
    vertex 6.74724431918778 -0.109505555240924 0.027
    vertex 6.70899999999999 -0.11 0.027
  endloop
endfacet
facet normal -0.0129275001354887 0.999916436378684 -0.0
  outer loop
    vertex 6.74724431918778 -0.109505555240924 0.027
    vertex 6.70899999999999 -0.11 0.151
    vertex 6.74724431918778 -0.109505555240924 0.151
  endloop
endfacet
facet normal 0.707106781186558 0.707106781186537 0.0
  outer loop
    vertex 6.86299137802865 0.125991378028649 -0.013
    vertex 6.86950704155516 0.1175 0.150996637722235
    vertex 6.86950704155516 0.1175 -0.013
  endloop
endfacet
facet normal 0.86602540378444 0.499999999999998 0.0
  outer loop
    vertex 6.86950704155516 0.1175 0.150996637722235
    vertex 6.86299137802865 0.125991378028649 -0.013
    vertex 6.86299137802865 0.125991378028649 0.150996637722235
  endloop
endfacet
facet normal 0.697906569773831 0.716188815792682 0.0
  outer loop
    vertex 6.81768124086712 -0.137620274323024 0.151
    vertex 6.84507368354873 -0.164313466520518 0.027
    vertex 6.81768124086712 -0.137620274323024 0.027
  endloop
endfacet
facet normal 0.697906569773831 0.716188815792682 0.0
  outer loop
    vertex 6.84507368354873 -0.164313466520518 0.027
    vertex 6.81768124086712 -0.137620274323024 0.151
    vertex 6.84507368354873 -0.164313466520518 0.151
  endloop
endfacet
facet normal 1.0 -1.1965723486849e-014 9.87589676309962e-028
  outer loop
    vertex 6.875 0.097 -0.013
    vertex 6.875 -0.233999999999993 0.027
    vertex 6.875 -0.234 -0.013
  endloop
endfacet
facet normal 1.0 -1.1965723486849e-014 9.87589676309962e-028
  outer loop
    vertex 6.875 -0.233999999999993 0.027
    vertex 6.875 0.097 -0.013
    vertex 6.875 0.0969999999999992 0.027
  endloop
endfacet
facet normal 3.83758417777741e-007 6.39932270540345e-006 0.999999999979451
  outer loop
    vertex 6.709 -0.0269999999999999 0.151000000000004
    vertex 0.0 0.013 0.151
    vertex 0.0 -0.027 0.151
  endloop
endfacet
facet normal 3.83758417777741e-007 6.39932270540345e-006 0.999999999979451
  outer loop
    vertex 0.0 0.013 0.151
    vertex 6.709 -0.0269999999999999 0.151000000000004
    vertex 6.70899999999999 0.013 0.151
  endloop
endfacet
facet normal 3.83758417777741e-007 6.39932270540345e-006 0.999999999979451
  outer loop
    vertex 6.70899999999999 0.013 0.151
    vertex 6.709 -0.0269999999999999 0.151000000000004
    vertex 6.73074079978861 0.0158622305917183 0.150996637722235
  endloop
endfacet
facet normal 3.83758417777741e-007 6.39932270540345e-006 0.999999999979451
  outer loop
    vertex 6.73074079978861 0.0158622305917183 0.150996637722235
    vertex 6.709 -0.0269999999999999 0.151000000000004
    vertex 6.74724431918779 -0.0274944447590697 0.150996637722237
  endloop
endfacet
facet normal 3.83758417777741e-007 6.39932270540345e-006 0.999999999979451
  outer loop
    vertex 6.73074079978861 0.0158622305917183 0.150996637722235
    vertex 6.74724431918779 -0.0274944447590697 0.150996637722237
    vertex 6.751 0.0242538660821072 0.150996637722235
  endloop
endfacet
facet normal 3.83758417777741e-007 6.39932270540345e-006 0.999999999979451
  outer loop
    vertex 6.751 0.0242538660821072 0.150996637722235
    vertex 6.74724431918779 -0.0274944447590697 0.150996637722237
    vertex 6.78431346652053 -0.0180736835487462 0.150996637722235
  endloop
endfacet
facet normal 3.83758417777741e-007 6.39932270540345e-006 0.999999999979451
  outer loop
    vertex 6.751 0.0242538660821072 0.150996637722235
    vertex 6.78431346652053 -0.0180736835487462 0.150996637722235
    vertex 6.76839696961967 0.03760303038033 0.150996637722235
  endloop
endfacet
facet normal 3.83758417777741e-007 6.39932270540345e-006 0.999999999979451
  outer loop
    vertex 6.76839696961967 0.03760303038033 0.150996637722235
    vertex 6.78431346652053 -0.0180736835487462 0.150996637722235
    vertex 6.78174613391789 0.0550000000000001 0.150996637722235
  endloop
endfacet
facet normal 3.83758417777741e-007 6.39932270540345e-006 0.999999999979451
  outer loop
    vertex 6.78174613391789 0.0550000000000001 0.150996637722235
    vertex 6.78431346652053 -0.0180736835487462 0.150996637722235
    vertex 6.79013776940828 0.0752592002113883 0.150996637722235
  endloop
endfacet
facet normal 3.83758417777741e-007 6.39932270540345e-006 0.999999999979451
  outer loop
    vertex 6.79013776940828 0.0752592002113883 0.150996637722235
    vertex 6.78431346652053 -0.0180736835487462 0.150996637722235
    vertex 6.81768124086713 0.000620274323030455 0.150996637722235
  endloop
endfacet
facet normal 3.83758417777741e-007 6.39932270540345e-006 0.999999999979451
  outer loop
    vertex 6.79013776940828 0.0752592002113883 0.150996637722235
    vertex 6.81768124086713 0.000620274323030455 0.150996637722235
    vertex 6.793 0.097 0.150996637722235
  endloop
endfacet
facet normal 3.83758417777741e-007 6.39932270540345e-006 0.999999999979451
  outer loop
    vertex 6.793 0.097 0.150996637722235
    vertex 6.81768124086713 0.000620274323030455 0.150996637722235
    vertex 6.79439704112215 0.107611580849203 0.150996637722235
  endloop
endfacet
facet normal 3.83758417777741e-007 6.39932270540345e-006 0.999999999979451
  outer loop
    vertex 6.79439704112215 0.107611580849203 0.150996637722235
    vertex 6.81768124086713 0.000620274323030455 0.150996637722235
    vertex 6.79849295844484 0.1175 0.150996637722235
  endloop
endfacet
facet normal 3.83758417777741e-007 6.39932270540345e-006 0.999999999979451
  outer loop
    vertex 6.79849295844484 0.1175 0.150996637722235
    vertex 6.81768124086713 0.000620274323030455 0.150996637722235
    vertex 6.80500862197135 0.125991378028649 0.150996637722235
  endloop
endfacet
facet normal 3.83758417777741e-007 6.39932270540345e-006 0.999999999979451
  outer loop
    vertex 6.80500862197135 0.125991378028649 0.150996637722235
    vertex 6.81768124086713 0.000620274323030455 0.150996637722235
    vertex 6.8135 0.132507041555162 0.150996637722235
  endloop
endfacet
facet normal 3.83758417777741e-007 6.39932270540345e-006 0.999999999979451
  outer loop
    vertex 6.8135 0.132507041555162 0.150996637722235
    vertex 6.81768124086713 0.000620274323030455 0.150996637722235
    vertex 6.8233884191508 0.136602958877852 0.150996637722235
  endloop
endfacet
facet normal 3.83758417777741e-007 6.39932270540345e-006 0.999999999979451
  outer loop
    vertex 6.8233884191508 0.136602958877852 0.150996637722235
    vertex 6.81768124086713 0.000620274323030455 0.150996637722235
    vertex 6.84507368354874 0.0273134665205246 0.150996637722235
  endloop
endfacet
facet normal 3.83758417777741e-007 6.39932270540345e-006 0.999999999979451
  outer loop
    vertex 6.8233884191508 0.136602958877852 0.150996637722235
    vertex 6.84507368354874 0.0273134665205246 0.150996637722235
    vertex 6.834 0.138 0.150996637722235
  endloop
endfacet
facet normal 3.83758417777741e-007 6.39932270540345e-006 0.999999999979451
  outer loop
    vertex 6.834 0.138 0.150996637722235
    vertex 6.84507368354874 0.0273134665205246 0.150996637722235
    vertex 6.8446115808492 0.136602958877852 0.150996637722235
  endloop
endfacet
facet normal 3.83758417777741e-007 6.39932270540345e-006 0.999999999979451
  outer loop
    vertex 6.8446115808492 0.136602958877852 0.150996637722235
    vertex 6.84507368354874 0.0273134665205246 0.150996637722235
    vertex 6.8545 0.132507041555162 0.150996637722235
  endloop
endfacet
facet normal 3.83758417777741e-007 6.39932270540345e-006 0.999999999979451
  outer loop
    vertex 6.8545 0.132507041555162 0.150996637722235
    vertex 6.84507368354874 0.0273134665205246 0.150996637722235
    vertex 6.86462404486477 0.0601867961080622 0.150996637722235
  endloop
endfacet
facet normal 3.83758417777741e-007 6.39932270540345e-006 0.999999999979451
  outer loop
    vertex 6.8545 0.132507041555162 0.150996637722235
    vertex 6.86462404486477 0.0601867961080622 0.150996637722235
    vertex 6.86299137802865 0.125991378028649 0.150996637722235
  endloop
endfacet
facet normal 3.83758417777741e-007 6.39932270540345e-006 0.999999999979451
  outer loop
    vertex 6.86299137802865 0.125991378028649 0.150996637722235
    vertex 6.86462404486477 0.0601867961080622 0.150996637722235
    vertex 6.86950704155516 0.1175 0.150996637722235
  endloop
endfacet
facet normal 3.83758417777741e-007 6.39932270540345e-006 0.999999999979451
  outer loop
    vertex 6.86950704155516 0.1175 0.150996637722235
    vertex 6.86462404486477 0.0601867961080622 0.150996637722235
    vertex 6.875 0.0969999999999992 0.150996637722235
  endloop
endfacet
facet normal 3.83758417777741e-007 6.39932270540345e-006 0.999999999979451
  outer loop
    vertex 6.86950704155516 0.1175 0.150996637722235
    vertex 6.875 0.0969999999999992 0.150996637722235
    vertex 6.87360295887785 0.107611580849203 0.150996637722235
  endloop
endfacet
facet normal 0.488762674664705 0.872416785633223 0.0
  outer loop
    vertex 6.78431346652051 -0.118926316451248 0.151
    vertex 6.81768124086712 -0.137620274323024 0.027
    vertex 6.78431346652051 -0.118926316451248 0.027
  endloop
endfacet
facet normal 0.488762674664705 0.872416785633223 0.0
  outer loop
    vertex 6.81768124086712 -0.137620274323024 0.027
    vertex 6.78431346652051 -0.118926316451248 0.151
    vertex 6.81768124086712 -0.137620274323024 0.151
  endloop
endfacet
endsolid 8AGuide
