G75*
G70*
%OFA0B0*%
%FSAX24Y24*%
%IPPOS*%
%LPD*%
%AMOC8*
5,1,8,0,0,1.08239X$1,22.5*
*%
%ADD10C,0.0150*%
%ADD11C,0.0100*%
%ADD12C,0.0840*%
%ADD13C,0.0600*%
%ADD14C,0.0560*%
%ADD15C,0.0554*%
%ADD16C,0.1378*%
%ADD17C,0.0850*%
%ADD18C,0.0520*%
%ADD19C,0.0380*%
%ADD20C,0.0240*%
%ADD21C,0.0290*%
%ADD22C,0.0070*%
D10*
X009942Y038829D02*
X009942Y038604D01*
X009041Y037703D01*
X009942Y037703D01*
X009942Y038829D02*
X009716Y039054D01*
X009266Y039054D01*
X009041Y038829D01*
X006954Y038604D02*
X006729Y038604D01*
X006279Y038154D01*
X006279Y038604D02*
X006279Y037703D01*
X005573Y037703D02*
X005123Y037703D01*
X004897Y037929D01*
X004897Y038379D01*
X005123Y038604D01*
X005573Y038604D01*
X005798Y038379D01*
X005798Y038154D01*
X004897Y038154D01*
X004417Y038604D02*
X004417Y037478D01*
X004192Y037253D01*
X003967Y037253D01*
X003741Y037703D02*
X004417Y037703D01*
X003741Y037703D02*
X003516Y037929D01*
X003516Y038604D01*
X003036Y038379D02*
X003036Y037703D01*
X002360Y037703D01*
X002135Y037929D01*
X002360Y038154D01*
X003036Y038154D01*
X003036Y038379D02*
X002811Y038604D01*
X002360Y038604D01*
X001655Y037703D02*
X000754Y037703D01*
X000754Y039054D01*
D11*
X015959Y013148D02*
X016226Y013148D01*
X016419Y013148D02*
X016686Y013415D01*
X016686Y013482D01*
X016619Y013549D01*
X016486Y013549D01*
X016419Y013482D01*
X016419Y013148D02*
X016686Y013148D01*
X015959Y013148D02*
X015959Y013549D01*
X041649Y029503D02*
X041699Y029608D01*
X041669Y029628D02*
X041649Y029503D01*
X041589Y031483D02*
X041699Y031483D01*
X048924Y034063D02*
X048924Y034178D01*
X052869Y034178D02*
X052869Y034063D01*
X055314Y022723D02*
X055104Y022513D01*
X054969Y022453D01*
X055314Y022723D02*
X056829Y022723D01*
X056919Y022618D01*
X057759Y021778D01*
X057759Y021508D01*
X059274Y019993D01*
X059274Y019783D01*
X059389Y019488D01*
X049929Y019678D02*
X049929Y018958D01*
X050259Y018628D01*
X050259Y017713D01*
X049929Y019678D02*
X049869Y019813D01*
D12*
X036009Y020718D03*
X028109Y020718D03*
X028109Y010968D03*
X036009Y010968D03*
D13*
X045169Y012128D03*
X046169Y012128D03*
X047169Y012128D03*
X048169Y012128D03*
X049169Y012128D03*
X050169Y012128D03*
X051169Y012128D03*
X052169Y012128D03*
X053169Y012128D03*
X054169Y012128D03*
X055169Y012128D03*
X056169Y012128D03*
X057169Y012128D03*
X057169Y013128D03*
X056169Y013128D03*
X055169Y013128D03*
X054169Y013128D03*
X053169Y013128D03*
X052169Y013128D03*
X051169Y013128D03*
X050169Y013128D03*
X049169Y013128D03*
X048169Y013128D03*
X047169Y013128D03*
X046169Y013128D03*
X045169Y013128D03*
X045169Y008128D03*
X046169Y008128D03*
X047169Y008128D03*
X048169Y008128D03*
X048169Y007128D03*
X047169Y007128D03*
X046169Y007128D03*
X045169Y007128D03*
X049169Y007128D03*
X050169Y007128D03*
X051169Y007128D03*
X052169Y007128D03*
X053169Y007128D03*
X054169Y007128D03*
X055169Y007128D03*
X056169Y007128D03*
X057169Y007128D03*
X057169Y008128D03*
X056169Y008128D03*
X055169Y008128D03*
X054169Y008128D03*
X053169Y008128D03*
X052169Y008128D03*
X051169Y008128D03*
X050169Y008128D03*
X049169Y008128D03*
X059389Y019488D03*
X060389Y019488D03*
X060389Y020488D03*
X059389Y020488D03*
X059389Y021488D03*
X060389Y021488D03*
X070169Y021058D03*
X071169Y020518D03*
X070169Y019978D03*
X071169Y019428D03*
X070169Y018888D03*
X071169Y018348D03*
X070169Y017798D03*
X071169Y017258D03*
X070169Y016718D03*
X071169Y016168D03*
X070169Y015628D03*
X071169Y015088D03*
X070169Y014538D03*
X071169Y013998D03*
X070169Y013458D03*
X071169Y012908D03*
X070169Y012368D03*
X071169Y011828D03*
X070169Y011278D03*
X071169Y010738D03*
X070169Y010198D03*
X071169Y009648D03*
X070169Y009108D03*
X071169Y021608D03*
X070169Y022148D03*
D14*
X068709Y027438D03*
X067709Y027438D03*
X070708Y028290D03*
X071693Y028290D03*
X071693Y029117D03*
X071693Y030140D03*
X071693Y030967D03*
X070728Y030967D03*
X065619Y033358D03*
X065619Y034358D03*
X064619Y034358D03*
X063619Y034358D03*
X062619Y034358D03*
X061619Y034358D03*
X061619Y033358D03*
X062619Y033358D03*
X063619Y033358D03*
X064619Y033358D03*
X064669Y037128D03*
X065669Y037128D03*
X065669Y038128D03*
X064669Y038128D03*
X063669Y038128D03*
X062669Y038128D03*
X061669Y038128D03*
X061669Y037128D03*
X062669Y037128D03*
X063669Y037128D03*
X063619Y040908D03*
X064619Y040908D03*
X065619Y040908D03*
X065619Y041908D03*
X064619Y041908D03*
X063619Y041908D03*
X062619Y041908D03*
X061619Y041908D03*
X061619Y040908D03*
X062619Y040908D03*
X041669Y029628D03*
X040669Y029628D03*
X040669Y028628D03*
X041669Y028628D03*
X041669Y027628D03*
X040669Y027628D03*
X040669Y026628D03*
X041669Y026628D03*
X041669Y025628D03*
X040669Y025628D03*
X040669Y024628D03*
X041669Y024628D03*
X041669Y023628D03*
X040669Y023628D03*
X040669Y022628D03*
X041669Y022628D03*
X041669Y021628D03*
X040669Y021628D03*
X040669Y020628D03*
X041669Y020628D03*
X041669Y019628D03*
X040669Y019628D03*
X040669Y018628D03*
X041669Y018628D03*
X041669Y017628D03*
X040669Y017628D03*
X040669Y016628D03*
X041669Y016628D03*
X041669Y015628D03*
X040669Y015628D03*
X040669Y014628D03*
X041669Y014628D03*
X041669Y013628D03*
X040669Y013628D03*
X040669Y012628D03*
X041669Y012628D03*
X041669Y011628D03*
X040669Y011628D03*
X040669Y010628D03*
X041669Y010628D03*
X041669Y009628D03*
X040669Y009628D03*
X040669Y008628D03*
X041669Y008628D03*
X041669Y007628D03*
X040669Y007628D03*
X040669Y006628D03*
X041669Y006628D03*
X041669Y005628D03*
X040669Y005628D03*
X053169Y009628D03*
X053169Y010628D03*
X057949Y026168D03*
X057949Y027168D03*
X057949Y028168D03*
D15*
X069669Y037233D03*
X070669Y037683D03*
X069669Y038133D03*
X070669Y038583D03*
X069669Y039033D03*
X070669Y039483D03*
X069669Y039933D03*
X070669Y040383D03*
X069669Y040833D03*
X070669Y041283D03*
X071669Y040833D03*
X071669Y039933D03*
X071669Y039033D03*
X071669Y038133D03*
X071669Y037233D03*
D16*
X072874Y032286D03*
X073189Y029628D03*
X072874Y026951D03*
D17*
X016949Y029128D03*
X014389Y029128D03*
D18*
X060669Y008128D03*
X061669Y008128D03*
D19*
X062169Y006128D03*
X060169Y006128D03*
X054159Y025108D03*
X056089Y027728D03*
X055969Y035498D03*
X054489Y035888D03*
X059679Y035278D03*
X055379Y039788D03*
D20*
X055379Y036598D01*
X054479Y035878D01*
X054489Y035888D01*
X055969Y035498D02*
X054649Y034178D01*
X052869Y034178D01*
X048924Y034178D01*
X043329Y034178D01*
X041699Y032548D01*
X041699Y031483D01*
X041699Y029608D01*
X041689Y029628D02*
X041689Y029648D01*
X041689Y029628D02*
X041669Y029628D01*
X040669Y029628D01*
D21*
X039789Y030103D03*
X038829Y029548D03*
X036984Y029593D03*
X036984Y030088D03*
X036984Y031213D03*
X036984Y031663D03*
X038424Y031243D03*
X038874Y031198D03*
X041064Y032008D03*
X041589Y031483D03*
X043314Y032758D03*
X043929Y033013D03*
X045264Y033103D03*
X045714Y033073D03*
X045354Y033553D03*
X045759Y034528D03*
X045474Y034873D03*
X046959Y035638D03*
X047454Y035848D03*
X045489Y036358D03*
X044439Y037903D03*
X042534Y037378D03*
X040659Y037378D03*
X039909Y035908D03*
X039024Y035758D03*
X038754Y036118D03*
X036639Y035323D03*
X036729Y034873D03*
X037464Y034873D03*
X036474Y033958D03*
X034929Y036433D03*
X035034Y036883D03*
X034584Y036868D03*
X033534Y037528D03*
X034629Y039013D03*
X035079Y039133D03*
X036294Y040138D03*
X037209Y040018D03*
X037494Y038863D03*
X037464Y038263D03*
X036534Y036778D03*
X039534Y039373D03*
X039279Y039748D03*
X042534Y041398D03*
X042534Y042028D03*
X043854Y042373D03*
X044184Y041083D03*
X046809Y042373D03*
X050529Y041398D03*
X054174Y041593D03*
X053964Y038953D03*
X052164Y037708D03*
X052464Y037378D03*
X052464Y036883D03*
X050334Y037138D03*
X050589Y035128D03*
X051954Y034528D03*
X052869Y034063D03*
X053154Y033688D03*
X051699Y033568D03*
X051189Y033568D03*
X050679Y033058D03*
X049659Y033658D03*
X048924Y034063D03*
X047934Y033793D03*
X048039Y033148D03*
X049404Y032668D03*
X048384Y031693D03*
X048639Y031318D03*
X048459Y030778D03*
X048189Y030238D03*
X047739Y029578D03*
X047484Y029068D03*
X047034Y029053D03*
X046089Y029053D03*
X045699Y029863D03*
X045699Y030313D03*
X045714Y030763D03*
X045429Y031468D03*
X043899Y029758D03*
X042699Y030448D03*
X042849Y027958D03*
X042759Y027313D03*
X044154Y027553D03*
X045369Y026608D03*
X046794Y026338D03*
X047379Y026353D03*
X048039Y026068D03*
X048354Y025753D03*
X048624Y026248D03*
X049074Y026263D03*
X049029Y025483D03*
X048039Y025228D03*
X048099Y024778D03*
X046929Y024103D03*
X046404Y024838D03*
X045954Y024838D03*
X045204Y024448D03*
X043899Y024388D03*
X042729Y024388D03*
X042729Y025183D03*
X042279Y025318D03*
X040449Y025108D03*
X038259Y027523D03*
X036984Y028078D03*
X035379Y028963D03*
X034284Y029473D03*
X034929Y029773D03*
X032769Y028723D03*
X032514Y028348D03*
X033054Y028258D03*
X032694Y029368D03*
X031644Y029518D03*
X031629Y029968D03*
X032214Y030448D03*
X029694Y030598D03*
X029184Y030343D03*
X029694Y031363D03*
X027399Y030373D03*
X027384Y029473D03*
X026139Y028213D03*
X026109Y027373D03*
X029394Y028513D03*
X029904Y029023D03*
X031344Y027208D03*
X033024Y027223D03*
X034674Y027688D03*
X031494Y025213D03*
X029424Y023503D03*
X032004Y022993D03*
X034014Y021853D03*
X035019Y022498D03*
X036534Y022498D03*
X037464Y022213D03*
X037464Y021208D03*
X037464Y019738D03*
X037464Y019018D03*
X039579Y018433D03*
X039579Y017983D03*
X039564Y017278D03*
X038574Y016768D03*
X038784Y016153D03*
X036879Y015388D03*
X036099Y015973D03*
X034809Y015223D03*
X034809Y014713D03*
X033534Y013348D03*
X033279Y012688D03*
X032769Y012688D03*
X032004Y012688D03*
X032259Y012073D03*
X034164Y012838D03*
X035304Y012688D03*
X039054Y014758D03*
X042009Y015268D03*
X043509Y015973D03*
X044304Y015808D03*
X044664Y015178D03*
X045324Y014008D03*
X046419Y013618D03*
X048204Y013678D03*
X049344Y013753D03*
X049194Y014653D03*
X050004Y014398D03*
X051009Y014923D03*
X052494Y014773D03*
X052749Y015328D03*
X052749Y016603D03*
X053214Y016708D03*
X054369Y016708D03*
X054594Y016198D03*
X054924Y016963D03*
X054894Y017413D03*
X054879Y017923D03*
X054384Y017923D03*
X053619Y017923D03*
X053979Y017458D03*
X052749Y017443D03*
X052749Y017893D03*
X052149Y017923D03*
X051204Y017923D03*
X050259Y017713D03*
X049749Y017923D03*
X048924Y017923D03*
X048264Y017923D03*
X048549Y017578D03*
X049599Y016693D03*
X049299Y016273D03*
X048789Y016303D03*
X049044Y015328D03*
X047439Y015283D03*
X046929Y015973D03*
X050259Y016798D03*
X050769Y016318D03*
X051324Y016378D03*
X054309Y014503D03*
X055074Y014353D03*
X054654Y013558D03*
X057009Y013663D03*
X056979Y014233D03*
X058749Y015283D03*
X059574Y014458D03*
X060069Y015883D03*
X060414Y016363D03*
X060069Y016873D03*
X060804Y017113D03*
X062079Y016618D03*
X062544Y016378D03*
X062544Y016918D03*
X062484Y017368D03*
X062424Y015538D03*
X062319Y015073D03*
X061809Y015283D03*
X058749Y017113D03*
X057714Y017623D03*
X057744Y018388D03*
X058239Y018388D03*
X058239Y018898D03*
X057729Y019153D03*
X057729Y019978D03*
X058239Y019978D03*
X057759Y020938D03*
X056979Y020983D03*
X056529Y021073D03*
X056529Y020623D03*
X055299Y021208D03*
X055284Y020758D03*
X054534Y020788D03*
X053784Y020458D03*
X053529Y020833D03*
X053784Y021538D03*
X053529Y021913D03*
X053019Y021793D03*
X053274Y022408D03*
X054309Y022723D03*
X054969Y022453D03*
X055284Y022138D03*
X055299Y021688D03*
X056634Y021688D03*
X057489Y021658D03*
X058224Y021778D03*
X057969Y022153D03*
X056829Y022723D03*
X057984Y023248D03*
X058779Y024328D03*
X059289Y024178D03*
X060069Y023503D03*
X061734Y022723D03*
X061569Y022153D03*
X061569Y020848D03*
X062079Y020638D03*
X060909Y020788D03*
X060789Y020158D03*
X062334Y019333D03*
X064134Y019288D03*
X064389Y019903D03*
X064134Y020968D03*
X066504Y020383D03*
X067749Y020128D03*
X068919Y019288D03*
X068034Y018628D03*
X069399Y018013D03*
X070134Y018313D03*
X069654Y017128D03*
X068034Y016843D03*
X066759Y013993D03*
X066234Y013123D03*
X066234Y012133D03*
X066234Y011128D03*
X066534Y010273D03*
X066234Y009133D03*
X063819Y010633D03*
X063819Y011623D03*
X061644Y011773D03*
X060084Y010918D03*
X059619Y011713D03*
X059004Y011968D03*
X056289Y011428D03*
X055839Y011278D03*
X054144Y010243D03*
X051474Y010468D03*
X051474Y009538D03*
X051729Y009028D03*
X050109Y008773D03*
X048234Y009283D03*
X046854Y009493D03*
X046344Y009028D03*
X045969Y010378D03*
X044754Y011098D03*
X044049Y011458D03*
X043359Y013363D03*
X044319Y013708D03*
X042294Y013888D03*
X043554Y016648D03*
X043809Y017023D03*
X042849Y017773D03*
X042339Y017878D03*
X044514Y018118D03*
X045984Y019228D03*
X046929Y019378D03*
X046929Y018643D03*
X048264Y019123D03*
X049089Y018988D03*
X049599Y019003D03*
X050214Y019048D03*
X050919Y019078D03*
X051369Y019003D03*
X052104Y018988D03*
X052944Y019003D03*
X053484Y018988D03*
X054069Y018988D03*
X054519Y019003D03*
X054429Y019813D03*
X055299Y019363D03*
X055434Y018643D03*
X056829Y019483D03*
X058749Y021178D03*
X060159Y022153D03*
X062844Y023623D03*
X058164Y024583D03*
X056754Y025198D03*
X056379Y024943D03*
X056379Y024073D03*
X055299Y024868D03*
X055299Y025723D03*
X055989Y026353D03*
X055569Y027253D03*
X055119Y027343D03*
X054249Y027343D03*
X053799Y027433D03*
X053499Y027763D03*
X053424Y028318D03*
X052434Y028348D03*
X052449Y027823D03*
X052314Y027343D03*
X051534Y027343D03*
X050499Y027343D03*
X049839Y027343D03*
X048399Y027553D03*
X047889Y027043D03*
X047439Y027553D03*
X047334Y028063D03*
X047994Y028318D03*
X048924Y029098D03*
X049374Y029818D03*
X050589Y029323D03*
X050409Y028483D03*
X051999Y029113D03*
X052719Y028693D03*
X053424Y029428D03*
X052239Y030328D03*
X052209Y030853D03*
X051444Y031108D03*
X050664Y031573D03*
X052194Y031813D03*
X053634Y031288D03*
X051699Y029818D03*
X050844Y030433D03*
X054159Y027943D03*
X055449Y028918D03*
X057594Y030013D03*
X059319Y029728D03*
X059439Y029173D03*
X059859Y029428D03*
X061449Y028783D03*
X061914Y028783D03*
X062589Y029188D03*
X062424Y029788D03*
X064134Y029788D03*
X064134Y030643D03*
X064134Y031153D03*
X065439Y030118D03*
X067179Y030493D03*
X070449Y030493D03*
X071124Y031708D03*
X065484Y028543D03*
X067269Y028123D03*
X064059Y027358D03*
X064134Y026908D03*
X061674Y027103D03*
X061419Y027928D03*
X060219Y028033D03*
X060159Y027283D03*
X058719Y027958D03*
X056934Y026818D03*
X057159Y025633D03*
X054444Y026263D03*
X053994Y026263D03*
X053544Y026248D03*
X053274Y025483D03*
X052479Y026263D03*
X051969Y026248D03*
X051174Y026263D03*
X051114Y025483D03*
X050199Y026248D03*
X051999Y024763D03*
X052524Y024508D03*
X052899Y024763D03*
X053544Y024643D03*
X054534Y023878D03*
X055284Y023908D03*
X051774Y022018D03*
X051714Y021568D03*
X052389Y020803D03*
X050154Y020458D03*
X049704Y020458D03*
X049824Y020968D03*
X049614Y021643D03*
X049869Y022018D03*
X049929Y022528D03*
X049104Y022888D03*
X049614Y023188D03*
X048039Y023158D03*
X048039Y023938D03*
X046929Y023008D03*
X048039Y022333D03*
X048039Y021523D03*
X046959Y021553D03*
X046929Y020953D03*
X046419Y021208D03*
X046224Y021643D03*
X046524Y021973D03*
X045879Y021943D03*
X045054Y022288D03*
X044859Y023338D03*
X043164Y021688D03*
X043149Y020743D03*
X042444Y019468D03*
X041184Y019843D03*
X039849Y020188D03*
X037989Y017818D03*
X036939Y017158D03*
X045309Y019903D03*
X045699Y020293D03*
X046014Y019978D03*
X046674Y019978D03*
X048099Y020173D03*
X049869Y019813D03*
X045714Y020953D03*
X044589Y025438D03*
X034314Y031108D03*
X031914Y032773D03*
X029964Y034873D03*
X027399Y033103D03*
X026109Y031873D03*
X024294Y031708D03*
X024789Y030553D03*
X022944Y031333D03*
X022584Y031753D03*
X021684Y030853D03*
X023829Y033088D03*
X022209Y033583D03*
X021429Y034558D03*
X022464Y034873D03*
X020754Y035533D03*
X020169Y035863D03*
X020544Y036118D03*
X020454Y036868D03*
X019854Y036628D03*
X019404Y036628D03*
X018234Y036088D03*
X018084Y035188D03*
X018789Y035203D03*
X019239Y035203D03*
X019929Y034933D03*
X020244Y034558D03*
X018834Y034108D03*
X018384Y034108D03*
X017499Y034108D03*
X017049Y034108D03*
X017469Y033508D03*
X017544Y033058D03*
X016329Y032083D03*
X015864Y034108D03*
X015939Y035188D03*
X015489Y035203D03*
X015579Y035653D03*
X017319Y035188D03*
X017319Y038473D03*
X016944Y038728D03*
X016974Y039718D03*
X017319Y040603D03*
X016449Y040603D03*
X015129Y041218D03*
X015714Y041668D03*
X016374Y041668D03*
X017229Y041668D03*
X017889Y041218D03*
X018669Y041368D03*
X019449Y041233D03*
X019914Y042193D03*
X019869Y042643D03*
X017739Y042748D03*
X016509Y042748D03*
X015519Y042748D03*
X015384Y039718D03*
X020349Y039223D03*
X020814Y039223D03*
X023769Y040648D03*
X024144Y040903D03*
X024729Y041323D03*
X025044Y041983D03*
X023829Y042118D03*
X023829Y042628D03*
X021279Y041233D03*
X024789Y039628D03*
X025419Y037918D03*
X027399Y037378D03*
X025299Y034303D03*
X027594Y041128D03*
X027309Y041473D03*
X029034Y041368D03*
X029679Y041878D03*
X029979Y042208D03*
X029289Y042493D03*
X029709Y040858D03*
X031314Y042298D03*
X034704Y041623D03*
X036519Y042628D03*
X036954Y041848D03*
X042174Y033838D03*
X040164Y033133D03*
X025719Y024703D03*
X024639Y021763D03*
X023289Y021238D03*
X021834Y021208D03*
X022044Y021748D03*
X019929Y021613D03*
X019929Y022123D03*
X019929Y022618D03*
X019929Y020008D03*
X022044Y018253D03*
X022044Y017248D03*
X022044Y016753D03*
X022044Y016243D03*
X023289Y016048D03*
X023304Y016558D03*
X023304Y015253D03*
X021759Y015418D03*
X022044Y014248D03*
X022044Y013753D03*
X022059Y012523D03*
X022059Y011308D03*
X022059Y010798D03*
X022044Y009493D03*
X019929Y014113D03*
X039159Y009763D03*
X044199Y008023D03*
X043674Y007468D03*
X042279Y006373D03*
X041469Y004948D03*
X039984Y005758D03*
X038994Y006763D03*
X044469Y005863D03*
X044919Y005863D03*
X045954Y006118D03*
X048414Y006418D03*
X050499Y006718D03*
X051669Y006898D03*
X051504Y005203D03*
X054099Y006313D03*
X052644Y007873D03*
X056244Y008758D03*
X056724Y008878D03*
X058059Y007423D03*
X061914Y009763D03*
X062994Y007933D03*
X063819Y006628D03*
X061569Y013108D03*
X055839Y016363D03*
X056109Y017248D03*
X057204Y017113D03*
X057204Y017998D03*
X059274Y018793D03*
X054924Y015508D03*
X054519Y015283D03*
X049929Y011638D03*
X048324Y011428D03*
X047754Y011773D03*
X020274Y027973D03*
X019929Y026188D03*
X055509Y033838D03*
X058614Y032083D03*
X058254Y031363D03*
X059319Y033118D03*
X063309Y032518D03*
X055959Y036883D03*
X055959Y037378D03*
X057429Y037783D03*
X060024Y038038D03*
X057669Y041593D03*
X067899Y038893D03*
D22*
X054459Y032218D02*
X050259Y032218D01*
X048279Y030238D01*
X048189Y030238D01*
X048594Y030073D02*
X047589Y029068D01*
X047484Y029068D01*
X047574Y028798D02*
X048144Y029368D01*
X049029Y029368D01*
X049329Y029068D01*
X050694Y029068D01*
X050994Y029368D01*
X052404Y029368D01*
X053424Y028348D01*
X053424Y028318D01*
X053394Y028018D02*
X053724Y028018D01*
X054144Y027598D01*
X055224Y027598D01*
X055569Y027253D01*
X055644Y027538D02*
X058599Y024583D01*
X059514Y024583D01*
X062589Y021508D01*
X062589Y017833D01*
X057744Y012988D01*
X057744Y010618D01*
X055584Y008458D01*
X055584Y007963D01*
X055164Y007543D01*
X051744Y007543D01*
X051459Y007258D01*
X051169Y007128D01*
X049989Y007723D02*
X052494Y007723D01*
X052644Y007873D01*
X053169Y008128D02*
X053034Y008413D01*
X053034Y008908D01*
X051474Y010468D01*
X052059Y010243D02*
X050664Y011638D01*
X049929Y011638D01*
X050169Y012128D02*
X050454Y012253D01*
X050739Y012538D01*
X054174Y012538D01*
X054579Y012943D01*
X054579Y013123D01*
X054999Y013543D01*
X055044Y013543D01*
X056319Y014818D01*
X056814Y014818D01*
X059154Y017158D01*
X059154Y018553D01*
X057729Y019978D01*
X057759Y020818D02*
X058974Y019603D01*
X058974Y019318D01*
X059244Y019048D01*
X059379Y019048D01*
X059529Y018898D01*
X059529Y017323D01*
X056874Y014668D01*
X056844Y014668D01*
X055764Y013588D01*
X055764Y012703D01*
X056049Y012418D01*
X056169Y012128D01*
X056574Y012118D02*
X056574Y011953D01*
X056334Y011713D01*
X051744Y011713D01*
X051459Y011998D01*
X051169Y012128D01*
X051169Y013128D02*
X051459Y013258D01*
X052014Y013813D01*
X055104Y013813D01*
X058404Y017113D01*
X058749Y017113D01*
X058494Y017413D02*
X058494Y018493D01*
X058344Y018643D01*
X058134Y018643D01*
X057729Y019048D01*
X057729Y019153D01*
X057474Y019198D02*
X057474Y018658D01*
X057744Y018388D01*
X057459Y018103D02*
X057459Y016738D01*
X055074Y014353D01*
X055179Y014098D02*
X058494Y017413D01*
X057204Y017113D02*
X057054Y016963D01*
X054924Y016963D01*
X054594Y016198D02*
X054234Y016198D01*
X053724Y016708D01*
X053214Y016708D01*
X053004Y017218D02*
X052494Y016708D01*
X052494Y015583D01*
X052749Y015328D01*
X051586Y015141D02*
X051564Y015118D01*
X051114Y014668D01*
X050424Y014668D01*
X048789Y016303D01*
X048534Y016198D02*
X049599Y015133D01*
X049599Y009283D01*
X050109Y008773D01*
X049764Y008113D02*
X049764Y007948D01*
X049989Y007723D01*
X049764Y008113D02*
X046764Y011113D01*
X046764Y012118D01*
X046344Y012538D01*
X046164Y012538D01*
X045759Y012943D01*
X045759Y013123D01*
X043809Y015073D01*
X043809Y017023D01*
X044049Y015913D02*
X044049Y015283D01*
X045324Y014008D01*
X045969Y013873D02*
X047004Y013873D01*
X047754Y013123D01*
X047754Y012703D01*
X048039Y012418D01*
X048169Y012128D01*
X048169Y013128D02*
X048054Y013423D01*
X047859Y013618D01*
X047859Y019078D01*
X049494Y020713D01*
X049929Y020713D01*
X050274Y021058D01*
X050274Y022183D01*
X049929Y022528D01*
X049974Y022273D02*
X048429Y022273D01*
X047184Y021028D01*
X047184Y020848D01*
X046269Y019933D01*
X046269Y019873D01*
X044514Y018118D01*
X044064Y019018D02*
X044064Y015928D01*
X044049Y015913D01*
X044304Y015808D02*
X044454Y015808D01*
X047184Y018538D01*
X047184Y018688D01*
X049869Y021373D01*
X049869Y022018D01*
X049974Y022273D02*
X050124Y022123D01*
X050124Y021418D01*
X049824Y021118D01*
X049824Y020968D01*
X049614Y021328D02*
X046929Y018643D01*
X048009Y018028D02*
X048009Y015088D01*
X049344Y013753D01*
X051009Y014923D02*
X049344Y016588D01*
X049344Y019648D01*
X050154Y020458D01*
X049704Y020458D02*
X049704Y020218D01*
X048519Y019033D01*
X048519Y018538D01*
X048009Y018028D01*
X048549Y017578D02*
X048549Y016948D01*
X048534Y016933D01*
X048534Y016198D01*
X049599Y016693D02*
X051624Y018718D01*
X051624Y019678D01*
X053019Y021073D01*
X053019Y021793D01*
X053529Y021913D02*
X053529Y021433D01*
X055344Y019618D01*
X055404Y019618D01*
X055689Y019333D01*
X055689Y018538D01*
X055539Y018388D01*
X055329Y018388D01*
X054774Y018943D01*
X054774Y019108D01*
X054624Y019258D01*
X053979Y019258D01*
X053739Y019018D01*
X053739Y018403D01*
X053004Y017668D01*
X053004Y017218D01*
X052749Y017443D02*
X052494Y017698D01*
X052494Y018913D01*
X053784Y020203D01*
X053784Y020458D01*
X053769Y020833D02*
X053529Y020833D01*
X053769Y020833D02*
X055044Y019558D01*
X055044Y019033D01*
X055434Y018643D01*
X055164Y017998D02*
X057204Y017998D01*
X057219Y018253D02*
X057309Y018253D01*
X057459Y018103D01*
X057219Y018253D02*
X054684Y020788D01*
X054534Y020788D01*
X055299Y021208D02*
X055464Y021208D01*
X057474Y019198D01*
X056829Y019483D02*
X056199Y019483D01*
X054144Y021538D01*
X053784Y021538D01*
X053274Y021118D02*
X051774Y019618D01*
X051774Y017323D01*
X050769Y016318D01*
X050514Y016213D02*
X051586Y015141D01*
X052629Y014098D01*
X055179Y014098D01*
X056289Y013903D02*
X056289Y013423D01*
X056169Y013128D01*
X056994Y012538D02*
X056574Y012118D01*
X056994Y012538D02*
X057189Y012538D01*
X057594Y012943D01*
X057594Y013048D01*
X061974Y017428D01*
X061974Y019333D01*
X062334Y019693D01*
X062334Y020743D01*
X062064Y021013D01*
X062064Y021373D01*
X061569Y021868D01*
X061569Y022153D01*
X061674Y021553D02*
X061194Y021553D01*
X058164Y024583D01*
X057159Y025633D02*
X056184Y026608D01*
X054264Y026608D01*
X053499Y027373D01*
X053499Y027763D01*
X053244Y027868D02*
X053394Y028018D01*
X053244Y027868D02*
X053244Y026668D01*
X051999Y025423D01*
X051999Y024763D01*
X053559Y024388D02*
X054459Y024388D01*
X055524Y025453D01*
X056859Y025453D01*
X060159Y022153D01*
X060564Y021898D02*
X061569Y020893D01*
X061569Y020848D01*
X061824Y021403D02*
X061824Y019333D01*
X057009Y014518D01*
X056904Y014518D01*
X056289Y013903D01*
X052149Y017203D02*
X051324Y016378D01*
X050514Y016423D02*
X050514Y016213D01*
X050514Y016423D02*
X051204Y017113D01*
X051204Y017923D01*
X052149Y017923D02*
X052149Y017203D01*
X053484Y018988D02*
X054309Y019813D01*
X054429Y019813D01*
X054174Y018988D02*
X055164Y017998D01*
X054174Y018988D02*
X054069Y018988D01*
X053274Y021118D02*
X053274Y022408D01*
X053484Y022978D02*
X057144Y022978D01*
X057969Y022153D01*
X058974Y021898D02*
X060564Y021898D01*
X061674Y021553D02*
X061824Y021403D01*
X060389Y020488D02*
X060099Y020608D01*
X059814Y020893D01*
X059394Y020893D01*
X058974Y021313D01*
X058974Y021508D01*
X057354Y023128D01*
X053424Y023128D01*
X051864Y021568D01*
X051714Y021568D01*
X051774Y022018D02*
X051774Y022603D01*
X053559Y024388D01*
X053484Y022978D02*
X050214Y019708D01*
X050214Y019048D01*
X046974Y021208D02*
X046779Y021208D01*
X046119Y020548D01*
X045594Y020548D01*
X044064Y019018D01*
X043104Y019528D02*
X043104Y013978D01*
X044754Y012328D01*
X044754Y011953D01*
X048174Y008533D01*
X048354Y008533D01*
X048759Y008128D01*
X048759Y007948D01*
X049164Y007543D01*
X049344Y007543D01*
X049764Y007123D01*
X049764Y006943D01*
X051504Y005203D01*
X049169Y007128D02*
X048879Y007258D01*
X048594Y007543D01*
X047169Y007543D01*
X046764Y007948D01*
X046764Y008113D01*
X041859Y013018D01*
X041724Y013018D01*
X041274Y013468D01*
X041274Y013588D01*
X040839Y014023D01*
X040719Y014023D01*
X039309Y015433D01*
X039309Y018523D01*
X039384Y018598D01*
X039384Y024898D01*
X040509Y026023D01*
X041829Y026023D01*
X043614Y027808D01*
X044259Y027808D01*
X044409Y027658D01*
X044409Y027208D01*
X045264Y026353D01*
X045474Y026353D01*
X045729Y026608D01*
X048624Y026608D01*
X048969Y026263D01*
X049074Y026263D01*
X049329Y026173D02*
X049329Y026158D01*
X049164Y025993D01*
X048474Y025993D01*
X048114Y026353D01*
X047379Y026353D01*
X047889Y027043D02*
X048399Y027553D01*
X048309Y028228D02*
X047634Y027553D01*
X047439Y027553D01*
X047484Y027808D02*
X046719Y027808D01*
X045519Y026608D01*
X045369Y026608D01*
X045714Y025483D02*
X044874Y024643D01*
X041934Y024643D01*
X041669Y024628D01*
X041619Y025018D02*
X041499Y025018D01*
X041064Y024583D01*
X041064Y020458D01*
X040629Y020023D01*
X040509Y020023D01*
X039834Y019348D01*
X039834Y017548D01*
X039564Y017278D01*
X042594Y017878D02*
X042594Y013753D01*
X045969Y010378D01*
X046169Y012128D02*
X045879Y012253D01*
X045594Y012538D01*
X045129Y012538D01*
X043254Y014413D01*
X043254Y018418D01*
X045714Y020878D01*
X045714Y020953D01*
X046974Y021208D02*
X047214Y021448D01*
X047214Y021868D01*
X048534Y023188D01*
X049614Y023188D01*
X049524Y023443D02*
X045849Y023443D01*
X043149Y020743D01*
X042699Y020653D02*
X042699Y017983D01*
X042594Y017878D01*
X043104Y019528D02*
X045804Y022228D01*
X046509Y022228D01*
X047439Y023158D01*
X048039Y023158D01*
X049524Y023443D02*
X052344Y026263D01*
X052479Y026263D01*
X052314Y027343D02*
X051894Y027343D01*
X049779Y025228D01*
X048399Y025228D01*
X048144Y025483D01*
X045714Y025483D01*
X046824Y024778D02*
X042699Y020653D01*
X049614Y021328D02*
X049614Y021643D01*
X048099Y024778D02*
X046824Y024778D01*
X049029Y025483D02*
X049074Y025483D01*
X051939Y028348D01*
X052434Y028348D01*
X051999Y029113D02*
X051114Y028228D01*
X048309Y028228D01*
X047994Y028318D02*
X047484Y027808D01*
X047334Y028063D02*
X043509Y028063D01*
X042759Y027313D01*
X042054Y027448D02*
X041619Y027013D01*
X041214Y027013D01*
X040944Y026743D01*
X040669Y026628D01*
X042054Y027448D02*
X042054Y027523D01*
X045564Y031033D01*
X046284Y031033D01*
X049164Y033913D01*
X051714Y033913D01*
X051939Y033688D01*
X053154Y033688D01*
X054459Y032218D02*
X058719Y027958D01*
X056934Y027313D02*
X056934Y026818D01*
X056934Y027313D02*
X055584Y028663D01*
X055344Y028663D01*
X052194Y031813D01*
X051909Y031513D02*
X055794Y027628D01*
X055794Y027598D01*
X057099Y026293D01*
X057684Y026293D01*
X057949Y026168D01*
X056004Y024868D02*
X058974Y021898D01*
X057759Y020938D02*
X057759Y020818D01*
X056004Y024868D02*
X055299Y024868D01*
X055644Y027538D02*
X055644Y027568D01*
X052884Y030328D01*
X052239Y030328D01*
X052029Y030073D02*
X048594Y030073D01*
X048459Y030778D02*
X049659Y031978D01*
X049659Y033658D01*
X047934Y033793D02*
X047394Y033793D01*
X041619Y028018D01*
X040494Y028018D01*
X035019Y022543D01*
X035019Y022498D01*
X034014Y021853D02*
X040404Y028243D01*
X040839Y028243D01*
X041274Y028678D01*
X041274Y028798D01*
X041709Y029233D01*
X041844Y029233D01*
X045009Y032398D01*
X045009Y033208D01*
X045354Y033553D01*
X047184Y035848D02*
X046674Y036358D01*
X045489Y036358D01*
X047184Y035848D02*
X047454Y035848D01*
X050664Y031573D02*
X050799Y031513D01*
X051909Y031513D01*
X052029Y030073D02*
X054159Y027943D01*
X050499Y027343D02*
X049329Y026173D01*
X047574Y028798D02*
X046344Y028798D01*
X046089Y029053D01*
X044154Y027553D02*
X041619Y025018D01*
X044664Y015178D02*
X045969Y013873D01*
X052059Y010243D02*
X053124Y010243D01*
X054999Y008368D01*
X055169Y008128D01*
X042279Y006373D02*
X041799Y005893D01*
X041669Y005628D01*
X017124Y034108D02*
X017574Y034558D01*
X020244Y034558D01*
X019929Y034933D02*
X017979Y034933D01*
X017724Y035188D01*
X017319Y035188D01*
X017124Y034108D02*
X017049Y034108D01*
X027309Y041473D02*
X028569Y041473D01*
X029124Y040918D01*
X029574Y040918D01*
X029709Y040858D01*
X029679Y041878D02*
X029544Y041938D01*
X029244Y042238D01*
X024939Y042238D01*
X024819Y042118D01*
X023829Y042118D01*
X034584Y036868D02*
X034854Y037138D01*
X035139Y037138D01*
X035499Y036778D01*
X036534Y036778D01*
M02*
