G75*
G70*
%OFA0B0*%
%FSAX24Y24*%
%IPPOS*%
%LPD*%
%AMOC8*
5,1,8,0,0,1.08239X$1,22.5*
*%
%ADD10C,0.0070*%
%ADD11C,0.0010*%
%ADD12C,0.0000*%
%ADD13C,0.0060*%
D10*
X012659Y045638D02*
X012659Y003618D01*
X074679Y003618D01*
X074679Y045638D01*
X012659Y045638D01*
D11*
X014269Y044228D02*
X015069Y045028D01*
X015069Y044228D02*
X014269Y045028D01*
X014269Y044628D02*
X015069Y044628D01*
X015519Y043148D02*
X015519Y042748D01*
X015119Y042348D01*
X015919Y042348D01*
X015519Y042748D01*
X016509Y042748D02*
X016509Y043148D01*
X016509Y042748D02*
X016109Y042348D01*
X016909Y042348D01*
X016509Y042748D01*
X017739Y042748D02*
X017739Y043148D01*
X017739Y042748D02*
X017339Y042348D01*
X018139Y042348D01*
X017739Y042748D01*
X017229Y042068D02*
X017229Y041668D01*
X016829Y041268D01*
X017629Y041268D01*
X017229Y041668D01*
X016374Y041668D02*
X016374Y042068D01*
X016374Y041668D02*
X015974Y041268D01*
X016774Y041268D01*
X016374Y041668D01*
X015714Y041668D02*
X015714Y042068D01*
X015714Y041668D02*
X015314Y041268D01*
X016114Y041268D01*
X015714Y041668D01*
X015129Y041618D02*
X015129Y041218D01*
X014729Y040818D01*
X015529Y040818D01*
X015129Y041218D01*
X016449Y041003D02*
X016449Y040603D01*
X016049Y040203D01*
X016849Y040203D01*
X016449Y040603D01*
X017319Y040603D02*
X017319Y041003D01*
X017319Y040603D02*
X016919Y040203D01*
X017719Y040203D01*
X017319Y040603D01*
X017889Y041218D02*
X017889Y041618D01*
X017889Y041218D02*
X017489Y040818D01*
X018289Y040818D01*
X017889Y041218D01*
X018669Y041368D02*
X018669Y041768D01*
X018669Y041368D02*
X018269Y040968D01*
X019069Y040968D01*
X018669Y041368D01*
X019449Y041233D02*
X019449Y041633D01*
X019449Y041233D02*
X019049Y040833D01*
X019849Y040833D01*
X019449Y041233D01*
X019914Y042193D02*
X019914Y042593D01*
X019914Y042193D02*
X019514Y041793D01*
X020314Y041793D01*
X019914Y042193D01*
X019869Y042643D02*
X019869Y043043D01*
X019869Y042643D02*
X019469Y042243D01*
X020269Y042243D01*
X019869Y042643D01*
X021279Y041633D02*
X021279Y041233D01*
X020879Y040833D01*
X021679Y040833D01*
X021279Y041233D01*
X023769Y041048D02*
X023769Y040648D01*
X023369Y040248D01*
X024169Y040248D01*
X023769Y040648D01*
X024144Y040903D02*
X024144Y041303D01*
X024144Y040903D02*
X023744Y040503D01*
X024544Y040503D01*
X024144Y040903D01*
X024729Y041323D02*
X024729Y041723D01*
X024729Y041323D02*
X024329Y040923D01*
X025129Y040923D01*
X024729Y041323D01*
X025044Y041983D02*
X025044Y042383D01*
X025044Y041983D02*
X024644Y041583D01*
X025444Y041583D01*
X025044Y041983D01*
X023829Y042118D02*
X023829Y042518D01*
X023829Y042118D02*
X023429Y041718D01*
X024229Y041718D01*
X023829Y042118D01*
X023829Y042628D02*
X023829Y043028D01*
X023829Y042628D02*
X023429Y042228D01*
X024229Y042228D01*
X023829Y042628D01*
X027309Y041873D02*
X027309Y041473D01*
X026909Y041073D01*
X027709Y041073D01*
X027309Y041473D01*
X027594Y041528D02*
X027594Y041128D01*
X027194Y040728D01*
X027994Y040728D01*
X027594Y041128D01*
X029034Y041368D02*
X029034Y041768D01*
X029034Y041368D02*
X028634Y040968D01*
X029434Y040968D01*
X029034Y041368D01*
X029679Y041878D02*
X029679Y042278D01*
X029679Y041878D02*
X029279Y041478D01*
X030079Y041478D01*
X029679Y041878D01*
X029979Y042208D02*
X029979Y042608D01*
X029979Y042208D02*
X029579Y041808D01*
X030379Y041808D01*
X029979Y042208D01*
X029289Y042493D02*
X029289Y042893D01*
X029289Y042493D02*
X028889Y042093D01*
X029689Y042093D01*
X029289Y042493D01*
X029709Y041258D02*
X029709Y040858D01*
X029309Y040458D01*
X030109Y040458D01*
X029709Y040858D01*
X031314Y042298D02*
X031314Y042698D01*
X031314Y042298D02*
X030914Y041898D01*
X031714Y041898D01*
X031314Y042298D01*
X034704Y042023D02*
X034704Y041623D01*
X034304Y041223D01*
X035104Y041223D01*
X034704Y041623D01*
X036519Y042628D02*
X036519Y043028D01*
X036519Y042628D02*
X036119Y042228D01*
X036919Y042228D01*
X036519Y042628D01*
X036954Y042248D02*
X036954Y041848D01*
X036554Y041448D01*
X037354Y041448D01*
X036954Y041848D01*
X037209Y040418D02*
X037209Y040018D01*
X036809Y039618D01*
X037609Y039618D01*
X037209Y040018D01*
X036294Y040138D02*
X036294Y040538D01*
X036294Y040138D02*
X035894Y039738D01*
X036694Y039738D01*
X036294Y040138D01*
X035079Y039533D02*
X035079Y039133D01*
X034679Y038733D01*
X035479Y038733D01*
X035079Y039133D01*
X034629Y039013D02*
X034629Y039413D01*
X034629Y039013D02*
X034229Y038613D01*
X035029Y038613D01*
X034629Y039013D01*
X033534Y037928D02*
X033534Y037528D01*
X033134Y037128D01*
X033934Y037128D01*
X033534Y037528D01*
X034584Y037268D02*
X034584Y036868D01*
X034184Y036468D01*
X034984Y036468D01*
X034584Y036868D01*
X035034Y036883D02*
X035034Y037283D01*
X035034Y036883D02*
X034634Y036483D01*
X035434Y036483D01*
X035034Y036883D01*
X034929Y036833D02*
X034929Y036433D01*
X034529Y036033D01*
X035329Y036033D01*
X034929Y036433D01*
X036534Y036778D02*
X036534Y037178D01*
X036534Y036778D02*
X036134Y036378D01*
X036934Y036378D01*
X036534Y036778D01*
X036639Y035723D02*
X036639Y035323D01*
X036239Y034923D01*
X037039Y034923D01*
X036639Y035323D01*
X036729Y035273D02*
X036729Y034873D01*
X036329Y034473D01*
X037129Y034473D01*
X036729Y034873D01*
X037464Y034873D02*
X037464Y035273D01*
X037464Y034873D02*
X037064Y034473D01*
X037864Y034473D01*
X037464Y034873D01*
X036474Y034358D02*
X036474Y033958D01*
X036074Y033558D01*
X036874Y033558D01*
X036474Y033958D01*
X039024Y035758D02*
X039024Y036158D01*
X039024Y035758D02*
X038624Y035358D01*
X039424Y035358D01*
X039024Y035758D01*
X038754Y036118D02*
X038754Y036518D01*
X038754Y036118D02*
X038354Y035718D01*
X039154Y035718D01*
X038754Y036118D01*
X039909Y036308D02*
X039909Y035908D01*
X039509Y035508D01*
X040309Y035508D01*
X039909Y035908D01*
X040659Y037378D02*
X040659Y037778D01*
X040659Y037378D02*
X040259Y036978D01*
X041059Y036978D01*
X040659Y037378D01*
X042534Y037378D02*
X042534Y037778D01*
X042534Y037378D02*
X042134Y036978D01*
X042934Y036978D01*
X042534Y037378D01*
X044439Y037903D02*
X044439Y038303D01*
X044439Y037903D02*
X044039Y037503D01*
X044839Y037503D01*
X044439Y037903D01*
X045489Y036758D02*
X045489Y036358D01*
X045089Y035958D01*
X045889Y035958D01*
X045489Y036358D01*
X046959Y036038D02*
X046959Y035638D01*
X046559Y035238D01*
X047359Y035238D01*
X046959Y035638D01*
X047454Y035848D02*
X047454Y036248D01*
X047454Y035848D02*
X047054Y035448D01*
X047854Y035448D01*
X047454Y035848D01*
X045474Y035273D02*
X045474Y034873D01*
X045074Y034473D01*
X045874Y034473D01*
X045474Y034873D01*
X045759Y034928D02*
X045759Y034528D01*
X045359Y034128D01*
X046159Y034128D01*
X045759Y034528D01*
X045354Y033953D02*
X045354Y033553D01*
X044954Y033153D01*
X045754Y033153D01*
X045354Y033553D01*
X045264Y033503D02*
X045264Y033103D01*
X044864Y032703D01*
X045664Y032703D01*
X045264Y033103D01*
X045714Y033073D02*
X045714Y033473D01*
X045714Y033073D02*
X045314Y032673D01*
X046114Y032673D01*
X045714Y033073D01*
X043929Y033013D02*
X043929Y033413D01*
X043929Y033013D02*
X043529Y032613D01*
X044329Y032613D01*
X043929Y033013D01*
X043314Y033158D02*
X043314Y032758D01*
X042914Y032358D01*
X043714Y032358D01*
X043314Y032758D01*
X041589Y031883D02*
X041589Y031483D01*
X041189Y031083D01*
X041989Y031083D01*
X041589Y031483D01*
X041064Y032008D02*
X041064Y032408D01*
X041064Y032008D02*
X040664Y031608D01*
X041464Y031608D01*
X041064Y032008D01*
X040164Y033133D02*
X040164Y033533D01*
X040164Y033133D02*
X039764Y032733D01*
X040564Y032733D01*
X040164Y033133D01*
X042174Y033838D02*
X042174Y034238D01*
X042174Y033838D02*
X041774Y033438D01*
X042574Y033438D01*
X042174Y033838D01*
X045429Y031868D02*
X045429Y031468D01*
X045029Y031068D01*
X045829Y031068D01*
X045429Y031468D01*
X045714Y031163D02*
X045714Y030763D01*
X045314Y030363D01*
X046114Y030363D01*
X045714Y030763D01*
X045699Y030713D02*
X045699Y030313D01*
X045299Y029913D01*
X046099Y029913D01*
X045699Y030313D01*
X045699Y030263D02*
X045699Y029863D01*
X045299Y029463D01*
X046099Y029463D01*
X045699Y029863D01*
X046089Y029453D02*
X046089Y029053D01*
X045689Y028653D01*
X046489Y028653D01*
X046089Y029053D01*
X047034Y029053D02*
X047034Y029453D01*
X047034Y029053D02*
X046634Y028653D01*
X047434Y028653D01*
X047034Y029053D01*
X047484Y029068D02*
X047484Y029468D01*
X047484Y029068D02*
X047084Y028668D01*
X047884Y028668D01*
X047484Y029068D01*
X047739Y029578D02*
X047739Y029978D01*
X047739Y029578D02*
X047339Y029178D01*
X048139Y029178D01*
X047739Y029578D01*
X048924Y029498D02*
X048924Y029098D01*
X048524Y028698D01*
X049324Y028698D01*
X048924Y029098D01*
X047994Y028718D02*
X047994Y028318D01*
X047594Y027918D01*
X048394Y027918D01*
X047994Y028318D01*
X047334Y028463D02*
X047334Y028063D01*
X046934Y027663D01*
X047734Y027663D01*
X047334Y028063D01*
X047439Y027953D02*
X047439Y027553D01*
X047039Y027153D01*
X047839Y027153D01*
X047439Y027553D01*
X047889Y027443D02*
X047889Y027043D01*
X047489Y026643D01*
X048289Y026643D01*
X047889Y027043D01*
X048399Y027553D02*
X048399Y027953D01*
X048399Y027553D02*
X047999Y027153D01*
X048799Y027153D01*
X048399Y027553D01*
X049839Y027743D02*
X049839Y027343D01*
X049439Y026943D01*
X050239Y026943D01*
X049839Y027343D01*
X050499Y027343D02*
X050499Y027743D01*
X050499Y027343D02*
X050099Y026943D01*
X050899Y026943D01*
X050499Y027343D01*
X051534Y027343D02*
X051534Y027743D01*
X051534Y027343D02*
X051134Y026943D01*
X051934Y026943D01*
X051534Y027343D01*
X052314Y027343D02*
X052314Y027743D01*
X052314Y027343D02*
X051914Y026943D01*
X052714Y026943D01*
X052314Y027343D01*
X052449Y027823D02*
X052449Y028223D01*
X052449Y027823D02*
X052049Y027423D01*
X052849Y027423D01*
X052449Y027823D01*
X052434Y028348D02*
X052434Y028748D01*
X052434Y028348D02*
X052034Y027948D01*
X052834Y027948D01*
X052434Y028348D01*
X052719Y028693D02*
X052719Y029093D01*
X052719Y028693D02*
X052319Y028293D01*
X053119Y028293D01*
X052719Y028693D01*
X053424Y028718D02*
X053424Y028318D01*
X053024Y027918D01*
X053824Y027918D01*
X053424Y028318D01*
X053499Y028163D02*
X053499Y027763D01*
X053099Y027363D01*
X053899Y027363D01*
X053499Y027763D01*
X053799Y027833D02*
X053799Y027433D01*
X053399Y027033D01*
X054199Y027033D01*
X053799Y027433D01*
X054249Y027343D02*
X054249Y027743D01*
X054249Y027343D02*
X053849Y026943D01*
X054649Y026943D01*
X054249Y027343D01*
X054159Y027943D02*
X054159Y028343D01*
X054159Y027943D02*
X053759Y027543D01*
X054559Y027543D01*
X054159Y027943D01*
X055119Y027743D02*
X055119Y027343D01*
X054719Y026943D01*
X055519Y026943D01*
X055119Y027343D01*
X055569Y027253D02*
X055569Y027653D01*
X055569Y027253D02*
X055169Y026853D01*
X055969Y026853D01*
X055569Y027253D01*
X056089Y027328D02*
X056089Y027728D01*
X055689Y028128D01*
X056489Y028128D01*
X056089Y027728D01*
X056934Y027218D02*
X056934Y026818D01*
X056534Y026418D01*
X057334Y026418D01*
X056934Y026818D01*
X057549Y027168D02*
X058349Y027168D01*
X057949Y026768D02*
X057949Y027568D01*
X057549Y028168D02*
X058349Y028168D01*
X057949Y027768D02*
X057949Y028568D01*
X058719Y028358D02*
X058719Y027958D01*
X058319Y027558D01*
X059119Y027558D01*
X058719Y027958D01*
X060219Y028033D02*
X060219Y028433D01*
X060219Y028033D02*
X059819Y027633D01*
X060619Y027633D01*
X060219Y028033D01*
X060159Y027683D02*
X060159Y027283D01*
X059759Y026883D01*
X060559Y026883D01*
X060159Y027283D01*
X061419Y027928D02*
X061419Y028328D01*
X061419Y027928D02*
X061019Y027528D01*
X061819Y027528D01*
X061419Y027928D01*
X061449Y028783D02*
X061449Y029183D01*
X061449Y028783D02*
X061049Y028383D01*
X061849Y028383D01*
X061449Y028783D01*
X061914Y028783D02*
X061914Y029183D01*
X061914Y028783D02*
X061514Y028383D01*
X062314Y028383D01*
X061914Y028783D01*
X062589Y029188D02*
X062589Y029588D01*
X062589Y029188D02*
X062189Y028788D01*
X062989Y028788D01*
X062589Y029188D01*
X062424Y029788D02*
X062424Y030188D01*
X062424Y029788D02*
X062024Y029388D01*
X062824Y029388D01*
X062424Y029788D01*
X064134Y029788D02*
X064134Y030188D01*
X064134Y029788D02*
X063734Y029388D01*
X064534Y029388D01*
X064134Y029788D01*
X064134Y030643D02*
X064134Y031043D01*
X064134Y030643D02*
X063734Y030243D01*
X064534Y030243D01*
X064134Y030643D01*
X064134Y031153D02*
X064134Y031553D01*
X064134Y031153D02*
X063734Y030753D01*
X064534Y030753D01*
X064134Y031153D01*
X065439Y030518D02*
X065439Y030118D01*
X065039Y029718D01*
X065839Y029718D01*
X065439Y030118D01*
X067179Y030493D02*
X067179Y030893D01*
X067179Y030493D02*
X066779Y030093D01*
X067579Y030093D01*
X067179Y030493D01*
X070449Y030493D02*
X070449Y030893D01*
X070449Y030493D02*
X070049Y030093D01*
X070849Y030093D01*
X070449Y030493D01*
X070328Y030567D02*
X071128Y031367D01*
X071128Y030567D01*
X070328Y031367D01*
X070328Y030567D01*
X071293Y030567D02*
X072093Y031367D01*
X072093Y030567D01*
X071293Y031367D01*
X071293Y030567D01*
X072093Y030540D02*
X071293Y029740D01*
X072093Y029740D02*
X072093Y030540D01*
X072093Y029740D02*
X071293Y030540D01*
X071293Y029740D01*
X072093Y029517D02*
X071293Y028717D01*
X072093Y028717D02*
X072093Y029517D01*
X072093Y028717D02*
X071293Y029517D01*
X071293Y028717D01*
X072093Y028690D02*
X071293Y027890D01*
X072093Y027890D02*
X072093Y028690D01*
X072093Y027890D02*
X071293Y028690D01*
X071293Y027890D01*
X071108Y028690D02*
X070308Y027890D01*
X071108Y027890D02*
X071108Y028690D01*
X071108Y027890D02*
X070308Y028690D01*
X070308Y027890D01*
X069109Y027438D02*
X068309Y027438D01*
X068709Y027038D02*
X068709Y027838D01*
X068109Y027438D02*
X067309Y027438D01*
X067709Y027038D02*
X067709Y027838D01*
X067269Y028123D02*
X067269Y028523D01*
X067269Y028123D02*
X066869Y027723D01*
X067669Y027723D01*
X067269Y028123D01*
X065484Y028543D02*
X065484Y028943D01*
X065484Y028543D02*
X065084Y028143D01*
X065884Y028143D01*
X065484Y028543D01*
X064059Y027758D02*
X064059Y027358D01*
X063659Y026958D01*
X064459Y026958D01*
X064059Y027358D01*
X064134Y027308D02*
X064134Y026908D01*
X063734Y026508D01*
X064534Y026508D01*
X064134Y026908D01*
X061674Y027103D02*
X061674Y027503D01*
X061674Y027103D02*
X061274Y026703D01*
X062074Y026703D01*
X061674Y027103D01*
X059859Y029428D02*
X059859Y029828D01*
X059859Y029428D02*
X059459Y029028D01*
X060259Y029028D01*
X059859Y029428D01*
X059439Y029573D02*
X059439Y029173D01*
X059039Y028773D01*
X059839Y028773D01*
X059439Y029173D01*
X059319Y029728D02*
X059319Y030128D01*
X059319Y029728D02*
X058919Y029328D01*
X059719Y029328D01*
X059319Y029728D01*
X057594Y030013D02*
X057594Y030413D01*
X057594Y030013D02*
X057194Y029613D01*
X057994Y029613D01*
X057594Y030013D01*
X055449Y029318D02*
X055449Y028918D01*
X055049Y028518D01*
X055849Y028518D01*
X055449Y028918D01*
X053424Y029428D02*
X053424Y029828D01*
X053424Y029428D02*
X053024Y029028D01*
X053824Y029028D01*
X053424Y029428D01*
X051999Y029513D02*
X051999Y029113D01*
X051599Y028713D01*
X052399Y028713D01*
X051999Y029113D01*
X051699Y029818D02*
X051699Y030218D01*
X051699Y029818D02*
X051299Y029418D01*
X052099Y029418D01*
X051699Y029818D01*
X052239Y030328D02*
X052239Y030728D01*
X052239Y030328D02*
X051839Y029928D01*
X052639Y029928D01*
X052239Y030328D01*
X052209Y030853D02*
X052209Y031253D01*
X052209Y030853D02*
X051809Y030453D01*
X052609Y030453D01*
X052209Y030853D01*
X051444Y031108D02*
X051444Y031508D01*
X051444Y031108D02*
X051044Y030708D01*
X051844Y030708D01*
X051444Y031108D01*
X050664Y031573D02*
X050664Y031973D01*
X050664Y031573D02*
X050264Y031173D01*
X051064Y031173D01*
X050664Y031573D01*
X052194Y031813D02*
X052194Y032213D01*
X052194Y031813D02*
X051794Y031413D01*
X052594Y031413D01*
X052194Y031813D01*
X053634Y031688D02*
X053634Y031288D01*
X053234Y030888D01*
X054034Y030888D01*
X053634Y031288D01*
X050844Y030833D02*
X050844Y030433D01*
X050444Y030033D01*
X051244Y030033D01*
X050844Y030433D01*
X050589Y029723D02*
X050589Y029323D01*
X050189Y028923D01*
X050989Y028923D01*
X050589Y029323D01*
X049374Y029818D02*
X049374Y030218D01*
X049374Y029818D02*
X048974Y029418D01*
X049774Y029418D01*
X049374Y029818D01*
X048189Y030238D02*
X048189Y030638D01*
X048189Y030238D02*
X047789Y029838D01*
X048589Y029838D01*
X048189Y030238D01*
X048459Y030778D02*
X048459Y031178D01*
X048459Y030778D02*
X048059Y030378D01*
X048859Y030378D01*
X048459Y030778D01*
X048639Y031318D02*
X048639Y031718D01*
X048639Y031318D02*
X048239Y030918D01*
X049039Y030918D01*
X048639Y031318D01*
X048384Y031693D02*
X048384Y032093D01*
X048384Y031693D02*
X047984Y031293D01*
X048784Y031293D01*
X048384Y031693D01*
X049404Y032668D02*
X049404Y033068D01*
X049404Y032668D02*
X049004Y032268D01*
X049804Y032268D01*
X049404Y032668D01*
X049659Y033658D02*
X049659Y034058D01*
X049659Y033658D02*
X049259Y033258D01*
X050059Y033258D01*
X049659Y033658D01*
X048924Y034063D02*
X048924Y034463D01*
X048924Y034063D02*
X048524Y033663D01*
X049324Y033663D01*
X048924Y034063D01*
X047934Y034193D02*
X047934Y033793D01*
X047534Y033393D01*
X048334Y033393D01*
X047934Y033793D01*
X048039Y033548D02*
X048039Y033148D01*
X047639Y032748D01*
X048439Y032748D01*
X048039Y033148D01*
X050679Y033058D02*
X050679Y033458D01*
X050679Y033058D02*
X050279Y032658D01*
X051079Y032658D01*
X050679Y033058D01*
X051189Y033568D02*
X051189Y033968D01*
X051189Y033568D02*
X050789Y033168D01*
X051589Y033168D01*
X051189Y033568D01*
X051699Y033568D02*
X051699Y033968D01*
X051699Y033568D02*
X051299Y033168D01*
X052099Y033168D01*
X051699Y033568D01*
X052869Y034063D02*
X052869Y034463D01*
X052869Y034063D02*
X052469Y033663D01*
X053269Y033663D01*
X052869Y034063D01*
X053154Y034088D02*
X053154Y033688D01*
X052754Y033288D01*
X053554Y033288D01*
X053154Y033688D01*
X051954Y034528D02*
X051954Y034928D01*
X051954Y034528D02*
X051554Y034128D01*
X052354Y034128D01*
X051954Y034528D01*
X050589Y035128D02*
X050589Y035528D01*
X050589Y035128D02*
X050189Y034728D01*
X050989Y034728D01*
X050589Y035128D01*
X052464Y036883D02*
X052464Y037283D01*
X052464Y036883D02*
X052064Y036483D01*
X052864Y036483D01*
X052464Y036883D01*
X052464Y037378D02*
X052464Y037778D01*
X052464Y037378D02*
X052064Y036978D01*
X052864Y036978D01*
X052464Y037378D01*
X052164Y037708D02*
X052164Y038108D01*
X052164Y037708D02*
X051764Y037308D01*
X052564Y037308D01*
X052164Y037708D01*
X050334Y037538D02*
X050334Y037138D01*
X049934Y036738D01*
X050734Y036738D01*
X050334Y037138D01*
X054489Y035888D02*
X054489Y035488D01*
X054489Y035888D02*
X054089Y036288D01*
X054889Y036288D01*
X054489Y035888D01*
X055969Y035498D02*
X055969Y035098D01*
X055969Y035498D02*
X055569Y035898D01*
X056369Y035898D01*
X055969Y035498D01*
X055959Y036883D02*
X055959Y037283D01*
X055959Y036883D02*
X055559Y036483D01*
X056359Y036483D01*
X055959Y036883D01*
X055959Y037378D02*
X055959Y037778D01*
X055959Y037378D02*
X055559Y036978D01*
X056359Y036978D01*
X055959Y037378D01*
X057429Y037783D02*
X057429Y038183D01*
X057429Y037783D02*
X057029Y037383D01*
X057829Y037383D01*
X057429Y037783D01*
X060024Y038038D02*
X060024Y038438D01*
X060024Y038038D02*
X059624Y037638D01*
X060424Y037638D01*
X060024Y038038D01*
X061269Y038128D02*
X062069Y038128D01*
X061669Y037728D02*
X061669Y038528D01*
X062269Y038128D02*
X063069Y038128D01*
X062669Y037728D02*
X062669Y038528D01*
X063269Y038128D02*
X064069Y038128D01*
X063669Y037728D02*
X063669Y038528D01*
X064269Y038128D02*
X065069Y038128D01*
X064669Y037728D02*
X064669Y038528D01*
X065269Y038128D02*
X066069Y038128D01*
X065669Y037728D02*
X065669Y038528D01*
X065269Y037128D02*
X066069Y037128D01*
X065669Y036728D02*
X065669Y037528D01*
X065069Y037128D02*
X064269Y037128D01*
X064669Y036728D02*
X064669Y037528D01*
X064069Y037128D02*
X063269Y037128D01*
X063669Y036728D02*
X063669Y037528D01*
X063069Y037128D02*
X062269Y037128D01*
X062669Y036728D02*
X062669Y037528D01*
X062069Y037128D02*
X061269Y037128D01*
X061669Y036728D02*
X061669Y037528D01*
X059679Y035278D02*
X059679Y034878D01*
X059679Y035278D02*
X059279Y035678D01*
X060079Y035678D01*
X059679Y035278D01*
X061219Y034358D02*
X062019Y034358D01*
X061619Y033958D02*
X061619Y034758D01*
X062219Y034358D02*
X063019Y034358D01*
X062619Y033958D02*
X062619Y034758D01*
X063219Y034358D02*
X064019Y034358D01*
X063619Y033958D02*
X063619Y034758D01*
X064219Y034358D02*
X065019Y034358D01*
X064619Y033958D02*
X064619Y034758D01*
X065219Y034358D02*
X066019Y034358D01*
X065619Y033958D02*
X065619Y034758D01*
X065219Y033358D02*
X066019Y033358D01*
X065619Y032958D02*
X065619Y033758D01*
X065019Y033358D02*
X064219Y033358D01*
X064619Y032958D02*
X064619Y033758D01*
X064019Y033358D02*
X063219Y033358D01*
X063619Y032958D02*
X063619Y033758D01*
X063019Y033358D02*
X062219Y033358D01*
X062619Y032958D02*
X062619Y033758D01*
X062019Y033358D02*
X061219Y033358D01*
X061619Y032958D02*
X061619Y033758D01*
X063309Y032918D02*
X063309Y032518D01*
X062909Y032118D01*
X063709Y032118D01*
X063309Y032518D01*
X059319Y033118D02*
X059319Y033518D01*
X059319Y033118D02*
X058919Y032718D01*
X059719Y032718D01*
X059319Y033118D01*
X058614Y032483D02*
X058614Y032083D01*
X058214Y031683D01*
X059014Y031683D01*
X058614Y032083D01*
X058254Y031763D02*
X058254Y031363D01*
X057854Y030963D01*
X058654Y030963D01*
X058254Y031363D01*
X055509Y033838D02*
X055509Y034238D01*
X055509Y033838D02*
X055109Y033438D01*
X055909Y033438D01*
X055509Y033838D01*
X053964Y038953D02*
X053964Y039353D01*
X053964Y038953D02*
X053564Y038553D01*
X054364Y038553D01*
X053964Y038953D01*
X055379Y039388D02*
X055379Y039788D01*
X054979Y040188D01*
X055779Y040188D01*
X055379Y039788D01*
X054174Y041593D02*
X054174Y041993D01*
X054174Y041593D02*
X053774Y041193D01*
X054574Y041193D01*
X054174Y041593D01*
X057669Y041593D02*
X057669Y041993D01*
X057669Y041593D02*
X057269Y041193D01*
X058069Y041193D01*
X057669Y041593D01*
X061219Y041908D02*
X062019Y041908D01*
X061619Y041508D02*
X061619Y042308D01*
X062219Y041908D02*
X063019Y041908D01*
X062619Y041508D02*
X062619Y042308D01*
X063219Y041908D02*
X064019Y041908D01*
X063619Y041508D02*
X063619Y042308D01*
X064219Y041908D02*
X065019Y041908D01*
X064619Y041508D02*
X064619Y042308D01*
X065219Y041908D02*
X066019Y041908D01*
X065619Y041508D02*
X065619Y042308D01*
X065219Y040908D02*
X066019Y040908D01*
X065619Y040508D02*
X065619Y041308D01*
X065019Y040908D02*
X064219Y040908D01*
X064619Y040508D02*
X064619Y041308D01*
X064019Y040908D02*
X063219Y040908D01*
X063619Y040508D02*
X063619Y041308D01*
X063019Y040908D02*
X062219Y040908D01*
X062619Y040508D02*
X062619Y041308D01*
X062019Y040908D02*
X061219Y040908D01*
X061619Y040508D02*
X061619Y041308D01*
X066269Y044228D02*
X067069Y045028D01*
X067069Y044228D02*
X066269Y045028D01*
X066269Y044628D02*
X067069Y044628D01*
X070269Y044050D02*
X071069Y044050D01*
X070669Y044450D01*
X070669Y043650D01*
X070269Y044050D01*
X071069Y041683D02*
X070269Y040883D01*
X071069Y040883D02*
X071069Y041683D01*
X071069Y040883D02*
X070269Y041683D01*
X070269Y040883D01*
X070069Y041233D02*
X069269Y040433D01*
X070069Y040433D02*
X070069Y041233D01*
X070069Y040433D02*
X069269Y041233D01*
X069269Y040433D01*
X070069Y040333D02*
X069269Y039533D01*
X070069Y039533D02*
X070069Y040333D01*
X070069Y039533D02*
X069269Y040333D01*
X069269Y039533D01*
X070069Y039433D02*
X069269Y038633D01*
X070069Y038633D02*
X070069Y039433D01*
X070069Y038633D02*
X069269Y039433D01*
X069269Y038633D01*
X070069Y038533D02*
X069269Y037733D01*
X070069Y037733D02*
X070069Y038533D01*
X070069Y037733D02*
X069269Y038533D01*
X069269Y037733D01*
X070069Y037633D02*
X069269Y036833D01*
X070069Y036833D02*
X070069Y037633D01*
X070069Y036833D02*
X069269Y037633D01*
X069269Y036833D01*
X070269Y037283D02*
X071069Y038083D01*
X071069Y037283D01*
X070269Y038083D01*
X070269Y037283D01*
X071269Y036833D02*
X072069Y037633D01*
X072069Y036833D01*
X071269Y037633D01*
X071269Y036833D01*
X071269Y037733D02*
X072069Y038533D01*
X072069Y037733D01*
X071269Y038533D01*
X071269Y037733D01*
X070269Y038183D02*
X071069Y038983D01*
X071069Y038183D01*
X070269Y038983D01*
X070269Y038183D01*
X071269Y038633D02*
X072069Y039433D01*
X072069Y038633D01*
X071269Y039433D01*
X071269Y038633D01*
X070269Y039083D02*
X071069Y039883D01*
X071069Y039083D01*
X070269Y039883D01*
X070269Y039083D01*
X071269Y039533D02*
X072069Y040333D01*
X072069Y039533D01*
X071269Y040333D01*
X071269Y039533D01*
X070269Y039983D02*
X071069Y040783D01*
X071069Y039983D01*
X070269Y040783D01*
X070269Y039983D01*
X071269Y040433D02*
X072069Y041233D01*
X072069Y040433D01*
X071269Y041233D01*
X071269Y040433D01*
X067899Y039293D02*
X067899Y038893D01*
X067499Y038493D01*
X068299Y038493D01*
X067899Y038893D01*
X070269Y034207D02*
X071069Y034207D01*
X070669Y034607D01*
X070669Y033807D01*
X070269Y034207D01*
X072874Y032686D02*
X072874Y032286D01*
X072874Y032686D02*
X073274Y032286D01*
X072874Y031886D01*
X072474Y032286D01*
X072874Y032686D01*
X071124Y032108D02*
X071124Y031708D01*
X070724Y031308D01*
X071524Y031308D01*
X071124Y031708D01*
X073189Y030028D02*
X073189Y029628D01*
X073189Y030028D02*
X073589Y029628D01*
X073189Y029228D01*
X072789Y029628D01*
X073189Y030028D01*
X072874Y027351D02*
X072874Y026951D01*
X072874Y027351D02*
X073274Y026951D01*
X072874Y026551D01*
X072474Y026951D01*
X072874Y027351D01*
X071069Y024888D02*
X070269Y024888D01*
X070669Y024488D02*
X071069Y024888D01*
X070669Y024488D02*
X070669Y025288D01*
X070269Y024888D01*
X069769Y022548D02*
X070569Y021748D01*
X069769Y021748D02*
X070569Y022548D01*
X070769Y022008D02*
X071569Y021208D01*
X070769Y021208D02*
X071569Y022008D01*
X070569Y020658D02*
X069769Y021458D01*
X069769Y020658D02*
X070569Y021458D01*
X070769Y020918D02*
X071569Y020118D01*
X070769Y020118D02*
X071569Y020918D01*
X070569Y019578D02*
X069769Y020378D01*
X069769Y019578D02*
X070569Y020378D01*
X070769Y019828D02*
X071569Y019028D01*
X070769Y019028D02*
X071569Y019828D01*
X070569Y018488D02*
X069769Y019288D01*
X069769Y018488D02*
X070569Y019288D01*
X070134Y018713D02*
X070134Y018313D01*
X069734Y017913D01*
X070534Y017913D01*
X070134Y018313D01*
X069769Y018198D02*
X070569Y017398D01*
X069769Y017398D02*
X070569Y018198D01*
X070769Y018748D02*
X071569Y017948D01*
X070769Y017948D02*
X071569Y018748D01*
X069399Y018413D02*
X069399Y018013D01*
X068999Y017613D01*
X069799Y017613D01*
X069399Y018013D01*
X069654Y017528D02*
X069654Y017128D01*
X069254Y016728D01*
X070054Y016728D01*
X069654Y017128D01*
X069769Y017118D02*
X070569Y016318D01*
X069769Y016318D02*
X070569Y017118D01*
X070769Y017658D02*
X071569Y016858D01*
X070769Y016858D02*
X071569Y017658D01*
X068919Y019288D02*
X068919Y019688D01*
X068919Y019288D02*
X068519Y018888D01*
X069319Y018888D01*
X068919Y019288D01*
X068034Y019028D02*
X068034Y018628D01*
X067634Y018228D01*
X068434Y018228D01*
X068034Y018628D01*
X067749Y020128D02*
X067749Y020528D01*
X067749Y020128D02*
X067349Y019728D01*
X068149Y019728D01*
X067749Y020128D01*
X066504Y020383D02*
X066504Y020783D01*
X066504Y020383D02*
X066104Y019983D01*
X066904Y019983D01*
X066504Y020383D01*
X064389Y020303D02*
X064389Y019903D01*
X063989Y019503D01*
X064789Y019503D01*
X064389Y019903D01*
X064134Y019688D02*
X064134Y019288D01*
X063734Y018888D01*
X064534Y018888D01*
X064134Y019288D01*
X062334Y019333D02*
X062334Y019733D01*
X062334Y019333D02*
X061934Y018933D01*
X062734Y018933D01*
X062334Y019333D01*
X060789Y020158D02*
X060789Y020558D01*
X060789Y020158D02*
X060389Y019758D01*
X061189Y019758D01*
X060789Y020158D01*
X060789Y020088D02*
X059989Y020888D01*
X059989Y020088D02*
X060789Y020888D01*
X060909Y020788D02*
X060909Y021188D01*
X060909Y020788D02*
X060509Y020388D01*
X061309Y020388D01*
X060909Y020788D01*
X061569Y020848D02*
X061569Y021248D01*
X061569Y020848D02*
X061169Y020448D01*
X061969Y020448D01*
X061569Y020848D01*
X062079Y021038D02*
X062079Y020638D01*
X061679Y020238D01*
X062479Y020238D01*
X062079Y020638D01*
X060789Y021088D02*
X059989Y021888D01*
X059989Y021088D02*
X060789Y021888D01*
X060159Y022153D02*
X060159Y022553D01*
X060159Y022153D02*
X059759Y021753D01*
X060559Y021753D01*
X060159Y022153D01*
X059789Y021088D02*
X058989Y021888D01*
X058989Y021088D02*
X059789Y021888D01*
X058224Y021778D02*
X058224Y022178D01*
X058224Y021778D02*
X057824Y021378D01*
X058624Y021378D01*
X058224Y021778D01*
X057969Y022153D02*
X057969Y022553D01*
X057969Y022153D02*
X057569Y021753D01*
X058369Y021753D01*
X057969Y022153D01*
X057489Y022058D02*
X057489Y021658D01*
X057089Y021258D01*
X057889Y021258D01*
X057489Y021658D01*
X056634Y021688D02*
X056634Y022088D01*
X056634Y021688D02*
X056234Y021288D01*
X057034Y021288D01*
X056634Y021688D01*
X056529Y021473D02*
X056529Y021073D01*
X056129Y020673D01*
X056929Y020673D01*
X056529Y021073D01*
X056529Y021023D02*
X056529Y020623D01*
X056129Y020223D01*
X056929Y020223D01*
X056529Y020623D01*
X056979Y020983D02*
X056979Y021383D01*
X056979Y020983D02*
X056579Y020583D01*
X057379Y020583D01*
X056979Y020983D01*
X057759Y020938D02*
X057759Y021338D01*
X057759Y020938D02*
X057359Y020538D01*
X058159Y020538D01*
X057759Y020938D01*
X058749Y021178D02*
X058749Y021578D01*
X058749Y021178D02*
X058349Y020778D01*
X059149Y020778D01*
X058749Y021178D01*
X058989Y020888D02*
X059789Y020088D01*
X058989Y020088D02*
X059789Y020888D01*
X058239Y020378D02*
X058239Y019978D01*
X057839Y019578D01*
X058639Y019578D01*
X058239Y019978D01*
X057729Y019978D02*
X057729Y020378D01*
X057729Y019978D02*
X057329Y019578D01*
X058129Y019578D01*
X057729Y019978D01*
X057729Y019553D02*
X057729Y019153D01*
X057329Y018753D01*
X058129Y018753D01*
X057729Y019153D01*
X058239Y019298D02*
X058239Y018898D01*
X057839Y018498D01*
X058639Y018498D01*
X058239Y018898D01*
X058239Y018788D02*
X058239Y018388D01*
X057839Y017988D01*
X058639Y017988D01*
X058239Y018388D01*
X057744Y018388D02*
X057744Y018788D01*
X057744Y018388D02*
X057344Y017988D01*
X058144Y017988D01*
X057744Y018388D01*
X057714Y018023D02*
X057714Y017623D01*
X057314Y017223D01*
X058114Y017223D01*
X057714Y017623D01*
X057204Y017998D02*
X057204Y018398D01*
X057204Y017998D02*
X056804Y017598D01*
X057604Y017598D01*
X057204Y017998D01*
X057204Y017513D02*
X057204Y017113D01*
X056804Y016713D01*
X057604Y016713D01*
X057204Y017113D01*
X056109Y017248D02*
X056109Y017648D01*
X056109Y017248D02*
X055709Y016848D01*
X056509Y016848D01*
X056109Y017248D01*
X055839Y016763D02*
X055839Y016363D01*
X055439Y015963D01*
X056239Y015963D01*
X055839Y016363D01*
X054594Y016198D02*
X054594Y016598D01*
X054594Y016198D02*
X054194Y015798D01*
X054994Y015798D01*
X054594Y016198D01*
X054369Y016708D02*
X054369Y017108D01*
X054369Y016708D02*
X053969Y016308D01*
X054769Y016308D01*
X054369Y016708D01*
X054924Y016963D02*
X054924Y017363D01*
X054924Y016963D02*
X054524Y016563D01*
X055324Y016563D01*
X054924Y016963D01*
X054894Y017413D02*
X054894Y017813D01*
X054894Y017413D02*
X054494Y017013D01*
X055294Y017013D01*
X054894Y017413D01*
X054879Y017923D02*
X054879Y018323D01*
X054879Y017923D02*
X054479Y017523D01*
X055279Y017523D01*
X054879Y017923D01*
X054384Y017923D02*
X054384Y018323D01*
X054384Y017923D02*
X053984Y017523D01*
X054784Y017523D01*
X054384Y017923D01*
X053619Y017923D02*
X053619Y018323D01*
X053619Y017923D02*
X053219Y017523D01*
X054019Y017523D01*
X053619Y017923D01*
X053979Y017858D02*
X053979Y017458D01*
X053579Y017058D01*
X054379Y017058D01*
X053979Y017458D01*
X053214Y017108D02*
X053214Y016708D01*
X052814Y016308D01*
X053614Y016308D01*
X053214Y016708D01*
X052749Y016603D02*
X052749Y017003D01*
X052749Y016603D02*
X052349Y016203D01*
X053149Y016203D01*
X052749Y016603D01*
X052749Y017443D02*
X052749Y017843D01*
X052749Y017443D02*
X052349Y017043D01*
X053149Y017043D01*
X052749Y017443D01*
X052749Y017893D02*
X052749Y018293D01*
X052749Y017893D02*
X052349Y017493D01*
X053149Y017493D01*
X052749Y017893D01*
X052149Y017923D02*
X052149Y018323D01*
X052149Y017923D02*
X051749Y017523D01*
X052549Y017523D01*
X052149Y017923D01*
X051204Y017923D02*
X051204Y018323D01*
X051204Y017923D02*
X050804Y017523D01*
X051604Y017523D01*
X051204Y017923D01*
X050259Y018113D02*
X050259Y017713D01*
X049859Y017313D01*
X050659Y017313D01*
X050259Y017713D01*
X049749Y017923D02*
X049749Y018323D01*
X049749Y017923D02*
X049349Y017523D01*
X050149Y017523D01*
X049749Y017923D01*
X048924Y017923D02*
X048924Y018323D01*
X048924Y017923D02*
X048524Y017523D01*
X049324Y017523D01*
X048924Y017923D01*
X048264Y017923D02*
X048264Y018323D01*
X048264Y017923D02*
X047864Y017523D01*
X048664Y017523D01*
X048264Y017923D01*
X048549Y017978D02*
X048549Y017578D01*
X048149Y017178D01*
X048949Y017178D01*
X048549Y017578D01*
X049599Y017093D02*
X049599Y016693D01*
X049199Y016293D01*
X049999Y016293D01*
X049599Y016693D01*
X049299Y016673D02*
X049299Y016273D01*
X048899Y015873D01*
X049699Y015873D01*
X049299Y016273D01*
X048789Y016303D02*
X048789Y016703D01*
X048789Y016303D02*
X048389Y015903D01*
X049189Y015903D01*
X048789Y016303D01*
X049044Y015728D02*
X049044Y015328D01*
X048644Y014928D01*
X049444Y014928D01*
X049044Y015328D01*
X049194Y015053D02*
X049194Y014653D01*
X048794Y014253D01*
X049594Y014253D01*
X049194Y014653D01*
X050004Y014798D02*
X050004Y014398D01*
X049604Y013998D01*
X050404Y013998D01*
X050004Y014398D01*
X051009Y014923D02*
X051009Y015323D01*
X051009Y014923D02*
X050609Y014523D01*
X051409Y014523D01*
X051009Y014923D01*
X052494Y014773D02*
X052494Y015173D01*
X052494Y014773D02*
X052094Y014373D01*
X052894Y014373D01*
X052494Y014773D01*
X052749Y015328D02*
X052749Y015728D01*
X052749Y015328D02*
X052349Y014928D01*
X053149Y014928D01*
X052749Y015328D01*
X054309Y014903D02*
X054309Y014503D01*
X053909Y014103D01*
X054709Y014103D01*
X054309Y014503D01*
X055074Y014353D02*
X055074Y014753D01*
X055074Y014353D02*
X054674Y013953D01*
X055474Y013953D01*
X055074Y014353D01*
X054654Y013958D02*
X054654Y013558D01*
X054254Y013158D01*
X055054Y013158D01*
X054654Y013558D01*
X054569Y012728D02*
X053769Y013528D01*
X053769Y012728D02*
X054569Y013528D01*
X054769Y013528D02*
X055569Y012728D01*
X054769Y012728D02*
X055569Y013528D01*
X055769Y013528D02*
X056569Y012728D01*
X055769Y012728D02*
X056569Y013528D01*
X057009Y013663D02*
X057009Y014063D01*
X057009Y013663D02*
X056609Y013263D01*
X057409Y013263D01*
X057009Y013663D01*
X056979Y014233D02*
X056979Y014633D01*
X056979Y014233D02*
X056579Y013833D01*
X057379Y013833D01*
X056979Y014233D01*
X056769Y013528D02*
X057569Y012728D01*
X056769Y012728D02*
X057569Y013528D01*
X056769Y012528D02*
X057569Y011728D01*
X056769Y011728D02*
X057569Y012528D01*
X056569Y011728D02*
X055769Y012528D01*
X055769Y011728D02*
X056569Y012528D01*
X055569Y011728D02*
X054769Y012528D01*
X054769Y011728D02*
X055569Y012528D01*
X054569Y011728D02*
X053769Y012528D01*
X053769Y011728D02*
X054569Y012528D01*
X053569Y011728D02*
X052769Y012528D01*
X052769Y011728D02*
X053569Y012528D01*
X053569Y012728D02*
X052769Y013528D01*
X052769Y012728D02*
X053569Y013528D01*
X052569Y012728D02*
X051769Y013528D01*
X051769Y012728D02*
X052569Y013528D01*
X051569Y012728D02*
X050769Y013528D01*
X050769Y012728D02*
X051569Y013528D01*
X050569Y012728D02*
X049769Y013528D01*
X049769Y012728D02*
X050569Y013528D01*
X049344Y013753D02*
X049344Y014153D01*
X049344Y013753D02*
X048944Y013353D01*
X049744Y013353D01*
X049344Y013753D01*
X048769Y013528D02*
X049569Y012728D01*
X048769Y012728D02*
X049569Y013528D01*
X048204Y013678D02*
X048204Y014078D01*
X048204Y013678D02*
X047804Y013278D01*
X048604Y013278D01*
X048204Y013678D01*
X047769Y013528D02*
X048569Y012728D01*
X047769Y012728D02*
X048569Y013528D01*
X047569Y012728D02*
X046769Y013528D01*
X046769Y012728D02*
X047569Y013528D01*
X046419Y013618D02*
X046419Y014018D01*
X046419Y013618D02*
X046019Y013218D01*
X046819Y013218D01*
X046419Y013618D01*
X045769Y013528D02*
X046569Y012728D01*
X045769Y012728D02*
X046569Y013528D01*
X045324Y014008D02*
X045324Y014408D01*
X045324Y014008D02*
X044924Y013608D01*
X045724Y013608D01*
X045324Y014008D01*
X044769Y013528D02*
X045569Y012728D01*
X044769Y012728D02*
X045569Y013528D01*
X044319Y013708D02*
X044319Y014108D01*
X044319Y013708D02*
X043919Y013308D01*
X044719Y013308D01*
X044319Y013708D01*
X043359Y013763D02*
X043359Y013363D01*
X042959Y012963D01*
X043759Y012963D01*
X043359Y013363D01*
X042294Y013888D02*
X042294Y014288D01*
X042294Y013888D02*
X041894Y013488D01*
X042694Y013488D01*
X042294Y013888D01*
X042069Y013628D02*
X041269Y013628D01*
X041669Y013228D02*
X041669Y014028D01*
X041269Y014628D02*
X042069Y014628D01*
X041669Y014228D02*
X041669Y015028D01*
X042009Y015268D02*
X042009Y015668D01*
X042009Y015268D02*
X041609Y014868D01*
X042409Y014868D01*
X042009Y015268D01*
X042069Y015628D02*
X041269Y015628D01*
X041669Y015228D02*
X041669Y016028D01*
X041269Y016628D02*
X042069Y016628D01*
X041669Y016228D02*
X041669Y017028D01*
X041069Y016628D02*
X040269Y016628D01*
X040669Y016228D02*
X040669Y017028D01*
X040269Y017628D02*
X041069Y017628D01*
X040669Y017228D02*
X040669Y018028D01*
X040269Y018628D02*
X041069Y018628D01*
X040669Y018228D02*
X040669Y019028D01*
X040269Y019628D02*
X041069Y019628D01*
X040669Y019228D02*
X040669Y020028D01*
X040269Y020628D02*
X041069Y020628D01*
X040669Y020228D02*
X040669Y021028D01*
X040269Y021628D02*
X041069Y021628D01*
X040669Y021228D02*
X040669Y022028D01*
X040269Y022628D02*
X041069Y022628D01*
X040669Y022228D02*
X040669Y023028D01*
X041269Y022628D02*
X042069Y022628D01*
X041669Y022228D02*
X041669Y023028D01*
X041269Y023628D02*
X042069Y023628D01*
X041669Y023228D02*
X041669Y024028D01*
X041069Y023628D02*
X040269Y023628D01*
X040669Y023228D02*
X040669Y024028D01*
X040269Y024628D02*
X041069Y024628D01*
X040669Y024228D02*
X040669Y025028D01*
X040449Y025108D02*
X040449Y025508D01*
X040449Y025108D02*
X040049Y024708D01*
X040849Y024708D01*
X040449Y025108D01*
X040269Y025628D02*
X041069Y025628D01*
X040669Y025228D02*
X040669Y026028D01*
X040269Y026628D02*
X041069Y026628D01*
X040669Y026228D02*
X040669Y027028D01*
X040269Y027628D02*
X041069Y027628D01*
X040669Y027228D02*
X040669Y028028D01*
X040269Y028628D02*
X041069Y028628D01*
X040669Y028228D02*
X040669Y029028D01*
X041269Y028628D02*
X042069Y028628D01*
X041669Y028228D02*
X041669Y029028D01*
X041269Y029628D02*
X042069Y029628D01*
X041669Y029228D02*
X041669Y030028D01*
X041069Y029628D02*
X040269Y029628D01*
X040669Y029228D02*
X040669Y030028D01*
X039789Y030103D02*
X039789Y030503D01*
X039789Y030103D02*
X039389Y029703D01*
X040189Y029703D01*
X039789Y030103D01*
X038829Y029948D02*
X038829Y029548D01*
X038429Y029148D01*
X039229Y029148D01*
X038829Y029548D01*
X036984Y029593D02*
X036984Y029993D01*
X036984Y029593D02*
X036584Y029193D01*
X037384Y029193D01*
X036984Y029593D01*
X036984Y030088D02*
X036984Y030488D01*
X036984Y030088D02*
X036584Y029688D01*
X037384Y029688D01*
X036984Y030088D01*
X036984Y031213D02*
X036984Y031613D01*
X036984Y031213D02*
X036584Y030813D01*
X037384Y030813D01*
X036984Y031213D01*
X036984Y031663D02*
X036984Y032063D01*
X036984Y031663D02*
X036584Y031263D01*
X037384Y031263D01*
X036984Y031663D01*
X038424Y031643D02*
X038424Y031243D01*
X038024Y030843D01*
X038824Y030843D01*
X038424Y031243D01*
X038874Y031198D02*
X038874Y031598D01*
X038874Y031198D02*
X038474Y030798D01*
X039274Y030798D01*
X038874Y031198D01*
X042699Y030848D02*
X042699Y030448D01*
X042299Y030048D01*
X043099Y030048D01*
X042699Y030448D01*
X043899Y030158D02*
X043899Y029758D01*
X043499Y029358D01*
X044299Y029358D01*
X043899Y029758D01*
X042849Y028358D02*
X042849Y027958D01*
X042449Y027558D01*
X043249Y027558D01*
X042849Y027958D01*
X042759Y027713D02*
X042759Y027313D01*
X042359Y026913D01*
X043159Y026913D01*
X042759Y027313D01*
X042069Y027628D02*
X041269Y027628D01*
X041669Y027228D02*
X041669Y028028D01*
X041269Y026628D02*
X042069Y026628D01*
X041669Y026228D02*
X041669Y027028D01*
X041269Y025628D02*
X042069Y025628D01*
X041669Y025228D02*
X041669Y026028D01*
X042279Y025718D02*
X042279Y025318D01*
X041879Y024918D01*
X042679Y024918D01*
X042279Y025318D01*
X042729Y025183D02*
X042729Y025583D01*
X042729Y025183D02*
X042329Y024783D01*
X043129Y024783D01*
X042729Y025183D01*
X042069Y024628D02*
X041269Y024628D01*
X041669Y024228D02*
X041669Y025028D01*
X042729Y024788D02*
X042729Y024388D01*
X042329Y023988D01*
X043129Y023988D01*
X042729Y024388D01*
X043899Y024388D02*
X043899Y024788D01*
X043899Y024388D02*
X043499Y023988D01*
X044299Y023988D01*
X043899Y024388D01*
X045204Y024448D02*
X045204Y024848D01*
X045204Y024448D02*
X044804Y024048D01*
X045604Y024048D01*
X045204Y024448D01*
X045954Y024838D02*
X045954Y025238D01*
X045954Y024838D02*
X045554Y024438D01*
X046354Y024438D01*
X045954Y024838D01*
X046404Y024838D02*
X046404Y025238D01*
X046404Y024838D02*
X046004Y024438D01*
X046804Y024438D01*
X046404Y024838D01*
X046929Y024503D02*
X046929Y024103D01*
X046529Y023703D01*
X047329Y023703D01*
X046929Y024103D01*
X048039Y023938D02*
X048039Y024338D01*
X048039Y023938D02*
X047639Y023538D01*
X048439Y023538D01*
X048039Y023938D01*
X048039Y023558D02*
X048039Y023158D01*
X047639Y022758D01*
X048439Y022758D01*
X048039Y023158D01*
X046929Y023008D02*
X046929Y023408D01*
X046929Y023008D02*
X046529Y022608D01*
X047329Y022608D01*
X046929Y023008D01*
X048039Y022733D02*
X048039Y022333D01*
X047639Y021933D01*
X048439Y021933D01*
X048039Y022333D01*
X048039Y021923D02*
X048039Y021523D01*
X047639Y021123D01*
X048439Y021123D01*
X048039Y021523D01*
X046959Y021553D02*
X046959Y021953D01*
X046959Y021553D02*
X046559Y021153D01*
X047359Y021153D01*
X046959Y021553D01*
X046929Y021353D02*
X046929Y020953D01*
X046529Y020553D01*
X047329Y020553D01*
X046929Y020953D01*
X046419Y021208D02*
X046419Y021608D01*
X046419Y021208D02*
X046019Y020808D01*
X046819Y020808D01*
X046419Y021208D01*
X046224Y021643D02*
X046224Y022043D01*
X046224Y021643D02*
X045824Y021243D01*
X046624Y021243D01*
X046224Y021643D01*
X046524Y021973D02*
X046524Y022373D01*
X046524Y021973D02*
X046124Y021573D01*
X046924Y021573D01*
X046524Y021973D01*
X045879Y021943D02*
X045879Y022343D01*
X045879Y021943D02*
X045479Y021543D01*
X046279Y021543D01*
X045879Y021943D01*
X045054Y022288D02*
X045054Y022688D01*
X045054Y022288D02*
X044654Y021888D01*
X045454Y021888D01*
X045054Y022288D01*
X044859Y023338D02*
X044859Y023738D01*
X044859Y023338D02*
X044459Y022938D01*
X045259Y022938D01*
X044859Y023338D01*
X043164Y022088D02*
X043164Y021688D01*
X042764Y021288D01*
X043564Y021288D01*
X043164Y021688D01*
X043149Y021143D02*
X043149Y020743D01*
X042749Y020343D01*
X043549Y020343D01*
X043149Y020743D01*
X042069Y020628D02*
X041269Y020628D01*
X041669Y020228D02*
X041669Y021028D01*
X041269Y021628D02*
X042069Y021628D01*
X041669Y021228D02*
X041669Y022028D01*
X039849Y020588D02*
X039849Y020188D01*
X039449Y019788D01*
X040249Y019788D01*
X039849Y020188D01*
X041184Y020243D02*
X041184Y019843D01*
X040784Y019443D01*
X041584Y019443D01*
X041184Y019843D01*
X041269Y019628D02*
X042069Y019628D01*
X041669Y019228D02*
X041669Y020028D01*
X042444Y019868D02*
X042444Y019468D01*
X042044Y019068D01*
X042844Y019068D01*
X042444Y019468D01*
X042069Y018628D02*
X041269Y018628D01*
X041669Y018228D02*
X041669Y019028D01*
X041269Y017628D02*
X042069Y017628D01*
X041669Y017228D02*
X041669Y018028D01*
X042339Y017878D02*
X042339Y018278D01*
X042339Y017878D02*
X041939Y017478D01*
X042739Y017478D01*
X042339Y017878D01*
X042849Y017773D02*
X042849Y018173D01*
X042849Y017773D02*
X042449Y017373D01*
X043249Y017373D01*
X042849Y017773D01*
X043809Y017423D02*
X043809Y017023D01*
X043409Y016623D01*
X044209Y016623D01*
X043809Y017023D01*
X043554Y017048D02*
X043554Y016648D01*
X043154Y016248D01*
X043954Y016248D01*
X043554Y016648D01*
X043509Y016373D02*
X043509Y015973D01*
X043109Y015573D01*
X043909Y015573D01*
X043509Y015973D01*
X044304Y015808D02*
X044304Y016208D01*
X044304Y015808D02*
X043904Y015408D01*
X044704Y015408D01*
X044304Y015808D01*
X044664Y015578D02*
X044664Y015178D01*
X044264Y014778D01*
X045064Y014778D01*
X044664Y015178D01*
X047439Y015283D02*
X047439Y015683D01*
X047439Y015283D02*
X047039Y014883D01*
X047839Y014883D01*
X047439Y015283D01*
X046929Y015973D02*
X046929Y016373D01*
X046929Y015973D02*
X046529Y015573D01*
X047329Y015573D01*
X046929Y015973D01*
X050259Y016798D02*
X050259Y017198D01*
X050259Y016798D02*
X049859Y016398D01*
X050659Y016398D01*
X050259Y016798D01*
X050769Y016718D02*
X050769Y016318D01*
X050369Y015918D01*
X051169Y015918D01*
X050769Y016318D01*
X051324Y016378D02*
X051324Y016778D01*
X051324Y016378D02*
X050924Y015978D01*
X051724Y015978D01*
X051324Y016378D01*
X054519Y015683D02*
X054519Y015283D01*
X054119Y014883D01*
X054919Y014883D01*
X054519Y015283D01*
X054924Y015508D02*
X054924Y015908D01*
X054924Y015508D02*
X054524Y015108D01*
X055324Y015108D01*
X054924Y015508D01*
X058749Y015683D02*
X058749Y015283D01*
X058349Y014883D01*
X059149Y014883D01*
X058749Y015283D01*
X059574Y014858D02*
X059574Y014458D01*
X059174Y014058D01*
X059974Y014058D01*
X059574Y014458D01*
X060069Y015883D02*
X060069Y016283D01*
X060069Y015883D02*
X059669Y015483D01*
X060469Y015483D01*
X060069Y015883D01*
X060414Y016363D02*
X060414Y016763D01*
X060414Y016363D02*
X060014Y015963D01*
X060814Y015963D01*
X060414Y016363D01*
X060069Y016873D02*
X060069Y017273D01*
X060069Y016873D02*
X059669Y016473D01*
X060469Y016473D01*
X060069Y016873D01*
X060804Y017113D02*
X060804Y017513D01*
X060804Y017113D02*
X060404Y016713D01*
X061204Y016713D01*
X060804Y017113D01*
X062079Y017018D02*
X062079Y016618D01*
X061679Y016218D01*
X062479Y016218D01*
X062079Y016618D01*
X062544Y016778D02*
X062544Y016378D01*
X062144Y015978D01*
X062944Y015978D01*
X062544Y016378D01*
X062544Y016918D02*
X062544Y017318D01*
X062544Y016918D02*
X062144Y016518D01*
X062944Y016518D01*
X062544Y016918D01*
X062484Y017368D02*
X062484Y017768D01*
X062484Y017368D02*
X062084Y016968D01*
X062884Y016968D01*
X062484Y017368D01*
X062424Y015938D02*
X062424Y015538D01*
X062024Y015138D01*
X062824Y015138D01*
X062424Y015538D01*
X062319Y015473D02*
X062319Y015073D01*
X061919Y014673D01*
X062719Y014673D01*
X062319Y015073D01*
X061809Y015283D02*
X061809Y015683D01*
X061809Y015283D02*
X061409Y014883D01*
X062209Y014883D01*
X061809Y015283D01*
X058749Y017113D02*
X058749Y017513D01*
X058749Y017113D02*
X058349Y016713D01*
X059149Y016713D01*
X058749Y017113D01*
X059274Y018793D02*
X059274Y019193D01*
X059274Y018793D02*
X058874Y018393D01*
X059674Y018393D01*
X059274Y018793D01*
X059789Y019088D02*
X058989Y019888D01*
X058989Y019088D02*
X059789Y019888D01*
X059989Y019888D02*
X060789Y019088D01*
X059989Y019088D02*
X060789Y019888D01*
X061569Y022153D02*
X061569Y022553D01*
X061569Y022153D02*
X061169Y021753D01*
X061969Y021753D01*
X061569Y022153D01*
X061734Y022723D02*
X061734Y023123D01*
X061734Y022723D02*
X061334Y022323D01*
X062134Y022323D01*
X061734Y022723D01*
X062844Y023623D02*
X062844Y024023D01*
X062844Y023623D02*
X062444Y023223D01*
X063244Y023223D01*
X062844Y023623D01*
X060069Y023503D02*
X060069Y023903D01*
X060069Y023503D02*
X059669Y023103D01*
X060469Y023103D01*
X060069Y023503D01*
X059289Y024178D02*
X059289Y024578D01*
X059289Y024178D02*
X058889Y023778D01*
X059689Y023778D01*
X059289Y024178D01*
X058779Y024328D02*
X058779Y024728D01*
X058779Y024328D02*
X058379Y023928D01*
X059179Y023928D01*
X058779Y024328D01*
X058164Y024583D02*
X058164Y024983D01*
X058164Y024583D02*
X057764Y024183D01*
X058564Y024183D01*
X058164Y024583D01*
X056754Y025198D02*
X056754Y025598D01*
X056754Y025198D02*
X056354Y024798D01*
X057154Y024798D01*
X056754Y025198D01*
X056379Y025343D02*
X056379Y024943D01*
X055979Y024543D01*
X056779Y024543D01*
X056379Y024943D01*
X056379Y024473D02*
X056379Y024073D01*
X055979Y023673D01*
X056779Y023673D01*
X056379Y024073D01*
X055299Y024868D02*
X055299Y025268D01*
X055299Y024868D02*
X054899Y024468D01*
X055699Y024468D01*
X055299Y024868D01*
X055299Y025723D02*
X055299Y026123D01*
X055299Y025723D02*
X054899Y025323D01*
X055699Y025323D01*
X055299Y025723D01*
X055989Y026353D02*
X055989Y026753D01*
X055989Y026353D02*
X055589Y025953D01*
X056389Y025953D01*
X055989Y026353D01*
X054444Y026263D02*
X054444Y026663D01*
X054444Y026263D02*
X054044Y025863D01*
X054844Y025863D01*
X054444Y026263D01*
X053994Y026263D02*
X053994Y026663D01*
X053994Y026263D02*
X053594Y025863D01*
X054394Y025863D01*
X053994Y026263D01*
X053544Y026248D02*
X053544Y026648D01*
X053544Y026248D02*
X053144Y025848D01*
X053944Y025848D01*
X053544Y026248D01*
X053274Y025883D02*
X053274Y025483D01*
X052874Y025083D01*
X053674Y025083D01*
X053274Y025483D01*
X054159Y025108D02*
X054159Y024708D01*
X054159Y025108D02*
X053759Y025508D01*
X054559Y025508D01*
X054159Y025108D01*
X053544Y025043D02*
X053544Y024643D01*
X053144Y024243D01*
X053944Y024243D01*
X053544Y024643D01*
X052899Y024763D02*
X052899Y025163D01*
X052899Y024763D02*
X052499Y024363D01*
X053299Y024363D01*
X052899Y024763D01*
X052524Y024908D02*
X052524Y024508D01*
X052124Y024108D01*
X052924Y024108D01*
X052524Y024508D01*
X051999Y024763D02*
X051999Y025163D01*
X051999Y024763D02*
X051599Y024363D01*
X052399Y024363D01*
X051999Y024763D01*
X051114Y025483D02*
X051114Y025883D01*
X051114Y025483D02*
X050714Y025083D01*
X051514Y025083D01*
X051114Y025483D01*
X051174Y026263D02*
X051174Y026663D01*
X051174Y026263D02*
X050774Y025863D01*
X051574Y025863D01*
X051174Y026263D01*
X051969Y026248D02*
X051969Y026648D01*
X051969Y026248D02*
X051569Y025848D01*
X052369Y025848D01*
X051969Y026248D01*
X052479Y026263D02*
X052479Y026663D01*
X052479Y026263D02*
X052079Y025863D01*
X052879Y025863D01*
X052479Y026263D01*
X050199Y026248D02*
X050199Y026648D01*
X050199Y026248D02*
X049799Y025848D01*
X050599Y025848D01*
X050199Y026248D01*
X049074Y026263D02*
X049074Y026663D01*
X049074Y026263D02*
X048674Y025863D01*
X049474Y025863D01*
X049074Y026263D01*
X048624Y026248D02*
X048624Y026648D01*
X048624Y026248D02*
X048224Y025848D01*
X049024Y025848D01*
X048624Y026248D01*
X048354Y026153D02*
X048354Y025753D01*
X047954Y025353D01*
X048754Y025353D01*
X048354Y025753D01*
X048039Y026068D02*
X048039Y026468D01*
X048039Y026068D02*
X047639Y025668D01*
X048439Y025668D01*
X048039Y026068D01*
X047379Y026353D02*
X047379Y026753D01*
X047379Y026353D02*
X046979Y025953D01*
X047779Y025953D01*
X047379Y026353D01*
X046794Y026338D02*
X046794Y026738D01*
X046794Y026338D02*
X046394Y025938D01*
X047194Y025938D01*
X046794Y026338D01*
X045369Y026608D02*
X045369Y027008D01*
X045369Y026608D02*
X044969Y026208D01*
X045769Y026208D01*
X045369Y026608D01*
X044589Y025838D02*
X044589Y025438D01*
X044189Y025038D01*
X044989Y025038D01*
X044589Y025438D01*
X044154Y027553D02*
X044154Y027953D01*
X044154Y027553D02*
X043754Y027153D01*
X044554Y027153D01*
X044154Y027553D01*
X048039Y025628D02*
X048039Y025228D01*
X047639Y024828D01*
X048439Y024828D01*
X048039Y025228D01*
X048099Y025178D02*
X048099Y024778D01*
X047699Y024378D01*
X048499Y024378D01*
X048099Y024778D01*
X049029Y025483D02*
X049029Y025883D01*
X049029Y025483D02*
X048629Y025083D01*
X049429Y025083D01*
X049029Y025483D01*
X049614Y023588D02*
X049614Y023188D01*
X049214Y022788D01*
X050014Y022788D01*
X049614Y023188D01*
X049104Y023288D02*
X049104Y022888D01*
X048704Y022488D01*
X049504Y022488D01*
X049104Y022888D01*
X049929Y022928D02*
X049929Y022528D01*
X049529Y022128D01*
X050329Y022128D01*
X049929Y022528D01*
X049869Y022418D02*
X049869Y022018D01*
X049469Y021618D01*
X050269Y021618D01*
X049869Y022018D01*
X049614Y022043D02*
X049614Y021643D01*
X049214Y021243D01*
X050014Y021243D01*
X049614Y021643D01*
X049824Y021368D02*
X049824Y020968D01*
X049424Y020568D01*
X050224Y020568D01*
X049824Y020968D01*
X049704Y020858D02*
X049704Y020458D01*
X049304Y020058D01*
X050104Y020058D01*
X049704Y020458D01*
X050154Y020458D02*
X050154Y020858D01*
X050154Y020458D02*
X049754Y020058D01*
X050554Y020058D01*
X050154Y020458D01*
X049869Y020213D02*
X049869Y019813D01*
X049469Y019413D01*
X050269Y019413D01*
X049869Y019813D01*
X049599Y019403D02*
X049599Y019003D01*
X049199Y018603D01*
X049999Y018603D01*
X049599Y019003D01*
X049089Y018988D02*
X049089Y019388D01*
X049089Y018988D02*
X048689Y018588D01*
X049489Y018588D01*
X049089Y018988D01*
X050214Y019048D02*
X050214Y019448D01*
X050214Y019048D02*
X049814Y018648D01*
X050614Y018648D01*
X050214Y019048D01*
X050919Y019078D02*
X050919Y019478D01*
X050919Y019078D02*
X050519Y018678D01*
X051319Y018678D01*
X050919Y019078D01*
X051369Y019003D02*
X051369Y019403D01*
X051369Y019003D02*
X050969Y018603D01*
X051769Y018603D01*
X051369Y019003D01*
X052104Y018988D02*
X052104Y019388D01*
X052104Y018988D02*
X051704Y018588D01*
X052504Y018588D01*
X052104Y018988D01*
X052944Y019003D02*
X052944Y019403D01*
X052944Y019003D02*
X052544Y018603D01*
X053344Y018603D01*
X052944Y019003D01*
X053484Y018988D02*
X053484Y019388D01*
X053484Y018988D02*
X053084Y018588D01*
X053884Y018588D01*
X053484Y018988D01*
X054069Y018988D02*
X054069Y019388D01*
X054069Y018988D02*
X053669Y018588D01*
X054469Y018588D01*
X054069Y018988D01*
X054519Y019003D02*
X054519Y019403D01*
X054519Y019003D02*
X054119Y018603D01*
X054919Y018603D01*
X054519Y019003D01*
X054429Y019813D02*
X054429Y020213D01*
X054429Y019813D02*
X054029Y019413D01*
X054829Y019413D01*
X054429Y019813D01*
X054534Y020788D02*
X054534Y021188D01*
X054534Y020788D02*
X054134Y020388D01*
X054934Y020388D01*
X054534Y020788D01*
X055284Y020758D02*
X055284Y021158D01*
X055284Y020758D02*
X054884Y020358D01*
X055684Y020358D01*
X055284Y020758D01*
X055299Y021208D02*
X055299Y021608D01*
X055299Y021208D02*
X054899Y020808D01*
X055699Y020808D01*
X055299Y021208D01*
X055299Y021688D02*
X055299Y022088D01*
X055299Y021688D02*
X054899Y021288D01*
X055699Y021288D01*
X055299Y021688D01*
X055284Y022138D02*
X055284Y022538D01*
X055284Y022138D02*
X054884Y021738D01*
X055684Y021738D01*
X055284Y022138D01*
X054969Y022453D02*
X054969Y022853D01*
X054969Y022453D02*
X054569Y022053D01*
X055369Y022053D01*
X054969Y022453D01*
X054309Y022723D02*
X054309Y023123D01*
X054309Y022723D02*
X053909Y022323D01*
X054709Y022323D01*
X054309Y022723D01*
X053274Y022808D02*
X053274Y022408D01*
X052874Y022008D01*
X053674Y022008D01*
X053274Y022408D01*
X053529Y022313D02*
X053529Y021913D01*
X053129Y021513D01*
X053929Y021513D01*
X053529Y021913D01*
X053784Y021938D02*
X053784Y021538D01*
X053384Y021138D01*
X054184Y021138D01*
X053784Y021538D01*
X053529Y021233D02*
X053529Y020833D01*
X053129Y020433D01*
X053929Y020433D01*
X053529Y020833D01*
X053784Y020858D02*
X053784Y020458D01*
X053384Y020058D01*
X054184Y020058D01*
X053784Y020458D01*
X052389Y020803D02*
X052389Y021203D01*
X052389Y020803D02*
X051989Y020403D01*
X052789Y020403D01*
X052389Y020803D01*
X051714Y021568D02*
X051714Y021968D01*
X051714Y021568D02*
X051314Y021168D01*
X052114Y021168D01*
X051714Y021568D01*
X051774Y022018D02*
X051774Y022418D01*
X051774Y022018D02*
X051374Y021618D01*
X052174Y021618D01*
X051774Y022018D01*
X053019Y022193D02*
X053019Y021793D01*
X052619Y021393D01*
X053419Y021393D01*
X053019Y021793D01*
X054534Y023878D02*
X054534Y024278D01*
X054534Y023878D02*
X054134Y023478D01*
X054934Y023478D01*
X054534Y023878D01*
X055284Y023908D02*
X055284Y024308D01*
X055284Y023908D02*
X054884Y023508D01*
X055684Y023508D01*
X055284Y023908D01*
X056829Y023123D02*
X056829Y022723D01*
X056429Y022323D01*
X057229Y022323D01*
X056829Y022723D01*
X057984Y023248D02*
X057984Y023648D01*
X057984Y023248D02*
X057584Y022848D01*
X058384Y022848D01*
X057984Y023248D01*
X057159Y025633D02*
X057159Y026033D01*
X057159Y025633D02*
X056759Y025233D01*
X057559Y025233D01*
X057159Y025633D01*
X057549Y026168D02*
X058349Y026168D01*
X057949Y025768D02*
X057949Y026568D01*
X050409Y028483D02*
X050409Y028883D01*
X050409Y028483D02*
X050009Y028083D01*
X050809Y028083D01*
X050409Y028483D01*
X038259Y027923D02*
X038259Y027523D01*
X037859Y027123D01*
X038659Y027123D01*
X038259Y027523D01*
X036984Y028078D02*
X036984Y028478D01*
X036984Y028078D02*
X036584Y027678D01*
X037384Y027678D01*
X036984Y028078D01*
X035379Y028963D02*
X035379Y029363D01*
X035379Y028963D02*
X034979Y028563D01*
X035779Y028563D01*
X035379Y028963D01*
X034284Y029473D02*
X034284Y029873D01*
X034284Y029473D02*
X033884Y029073D01*
X034684Y029073D01*
X034284Y029473D01*
X034929Y029773D02*
X034929Y030173D01*
X034929Y029773D02*
X034529Y029373D01*
X035329Y029373D01*
X034929Y029773D01*
X032769Y029123D02*
X032769Y028723D01*
X032369Y028323D01*
X033169Y028323D01*
X032769Y028723D01*
X032514Y028748D02*
X032514Y028348D01*
X032114Y027948D01*
X032914Y027948D01*
X032514Y028348D01*
X033054Y028258D02*
X033054Y028658D01*
X033054Y028258D02*
X032654Y027858D01*
X033454Y027858D01*
X033054Y028258D01*
X032694Y029368D02*
X032694Y029768D01*
X032694Y029368D02*
X032294Y028968D01*
X033094Y028968D01*
X032694Y029368D01*
X031644Y029518D02*
X031644Y029918D01*
X031644Y029518D02*
X031244Y029118D01*
X032044Y029118D01*
X031644Y029518D01*
X031629Y029968D02*
X031629Y030368D01*
X031629Y029968D02*
X031229Y029568D01*
X032029Y029568D01*
X031629Y029968D01*
X032214Y030448D02*
X032214Y030848D01*
X032214Y030448D02*
X031814Y030048D01*
X032614Y030048D01*
X032214Y030448D01*
X029694Y030598D02*
X029694Y030998D01*
X029694Y030598D02*
X029294Y030198D01*
X030094Y030198D01*
X029694Y030598D01*
X029184Y030743D02*
X029184Y030343D01*
X028784Y029943D01*
X029584Y029943D01*
X029184Y030343D01*
X029694Y031363D02*
X029694Y031763D01*
X029694Y031363D02*
X029294Y030963D01*
X030094Y030963D01*
X029694Y031363D01*
X027399Y030773D02*
X027399Y030373D01*
X026999Y029973D01*
X027799Y029973D01*
X027399Y030373D01*
X027384Y029873D02*
X027384Y029473D01*
X026984Y029073D01*
X027784Y029073D01*
X027384Y029473D01*
X026139Y028613D02*
X026139Y028213D01*
X025739Y027813D01*
X026539Y027813D01*
X026139Y028213D01*
X026109Y027773D02*
X026109Y027373D01*
X025709Y026973D01*
X026509Y026973D01*
X026109Y027373D01*
X029394Y028513D02*
X029394Y028913D01*
X029394Y028513D02*
X028994Y028113D01*
X029794Y028113D01*
X029394Y028513D01*
X029904Y029023D02*
X029904Y029423D01*
X029904Y029023D02*
X029504Y028623D01*
X030304Y028623D01*
X029904Y029023D01*
X031344Y027608D02*
X031344Y027208D01*
X030944Y026808D01*
X031744Y026808D01*
X031344Y027208D01*
X033024Y027223D02*
X033024Y027623D01*
X033024Y027223D02*
X032624Y026823D01*
X033424Y026823D01*
X033024Y027223D01*
X034674Y027688D02*
X034674Y028088D01*
X034674Y027688D02*
X034274Y027288D01*
X035074Y027288D01*
X034674Y027688D01*
X031494Y025613D02*
X031494Y025213D01*
X031094Y024813D01*
X031894Y024813D01*
X031494Y025213D01*
X029424Y023903D02*
X029424Y023503D01*
X029024Y023103D01*
X029824Y023103D01*
X029424Y023503D01*
X032004Y023393D02*
X032004Y022993D01*
X031604Y022593D01*
X032404Y022593D01*
X032004Y022993D01*
X034014Y022253D02*
X034014Y021853D01*
X033614Y021453D01*
X034414Y021453D01*
X034014Y021853D01*
X035019Y022498D02*
X035019Y022898D01*
X035019Y022498D02*
X034619Y022098D01*
X035419Y022098D01*
X035019Y022498D01*
X036534Y022498D02*
X036534Y022898D01*
X036534Y022498D02*
X036134Y022098D01*
X036934Y022098D01*
X036534Y022498D01*
X037464Y022613D02*
X037464Y022213D01*
X037064Y021813D01*
X037864Y021813D01*
X037464Y022213D01*
X037464Y021608D02*
X037464Y021208D01*
X037064Y020808D01*
X037864Y020808D01*
X037464Y021208D01*
X036009Y021118D02*
X036009Y020718D01*
X036009Y021118D02*
X036409Y021118D01*
X036409Y020318D01*
X035609Y020318D01*
X035609Y021118D01*
X036009Y021118D01*
X037464Y020138D02*
X037464Y019738D01*
X037064Y019338D01*
X037864Y019338D01*
X037464Y019738D01*
X037464Y019418D02*
X037464Y019018D01*
X037064Y018618D01*
X037864Y018618D01*
X037464Y019018D01*
X039579Y018833D02*
X039579Y018433D01*
X039179Y018033D01*
X039979Y018033D01*
X039579Y018433D01*
X039579Y018383D02*
X039579Y017983D01*
X039179Y017583D01*
X039979Y017583D01*
X039579Y017983D01*
X039564Y017678D02*
X039564Y017278D01*
X039164Y016878D01*
X039964Y016878D01*
X039564Y017278D01*
X038574Y017168D02*
X038574Y016768D01*
X038174Y016368D01*
X038974Y016368D01*
X038574Y016768D01*
X038784Y016553D02*
X038784Y016153D01*
X038384Y015753D01*
X039184Y015753D01*
X038784Y016153D01*
X036879Y015788D02*
X036879Y015388D01*
X036479Y014988D01*
X037279Y014988D01*
X036879Y015388D01*
X036099Y015973D02*
X036099Y016373D01*
X036099Y015973D02*
X035699Y015573D01*
X036499Y015573D01*
X036099Y015973D01*
X034809Y015623D02*
X034809Y015223D01*
X034409Y014823D01*
X035209Y014823D01*
X034809Y015223D01*
X034809Y015113D02*
X034809Y014713D01*
X034409Y014313D01*
X035209Y014313D01*
X034809Y014713D01*
X033534Y013748D02*
X033534Y013348D01*
X033134Y012948D01*
X033934Y012948D01*
X033534Y013348D01*
X033279Y013088D02*
X033279Y012688D01*
X032879Y012288D01*
X033679Y012288D01*
X033279Y012688D01*
X032769Y012688D02*
X032769Y013088D01*
X032769Y012688D02*
X032369Y012288D01*
X033169Y012288D01*
X032769Y012688D01*
X032004Y012688D02*
X032004Y013088D01*
X032004Y012688D02*
X031604Y012288D01*
X032404Y012288D01*
X032004Y012688D01*
X032259Y012473D02*
X032259Y012073D01*
X031859Y011673D01*
X032659Y011673D01*
X032259Y012073D01*
X034164Y012838D02*
X034164Y013238D01*
X034164Y012838D02*
X033764Y012438D01*
X034564Y012438D01*
X034164Y012838D01*
X035304Y012688D02*
X035304Y013088D01*
X035304Y012688D02*
X034904Y012288D01*
X035704Y012288D01*
X035304Y012688D01*
X036009Y011368D02*
X036009Y010968D01*
X036009Y011368D02*
X036409Y011368D01*
X036409Y010568D01*
X035609Y010568D01*
X035609Y011368D01*
X036009Y011368D01*
X039159Y010163D02*
X039159Y009763D01*
X038759Y009363D01*
X039559Y009363D01*
X039159Y009763D01*
X040269Y009628D02*
X041069Y009628D01*
X040669Y009228D02*
X040669Y010028D01*
X040269Y010628D02*
X041069Y010628D01*
X040669Y010228D02*
X040669Y011028D01*
X041269Y010628D02*
X042069Y010628D01*
X041669Y010228D02*
X041669Y011028D01*
X041269Y011628D02*
X042069Y011628D01*
X041669Y011228D02*
X041669Y012028D01*
X041269Y012628D02*
X042069Y012628D01*
X041669Y012228D02*
X041669Y013028D01*
X041069Y012628D02*
X040269Y012628D01*
X040669Y012228D02*
X040669Y013028D01*
X040269Y013628D02*
X041069Y013628D01*
X040669Y013228D02*
X040669Y014028D01*
X040269Y014628D02*
X041069Y014628D01*
X040669Y014228D02*
X040669Y015028D01*
X040269Y015628D02*
X041069Y015628D01*
X040669Y015228D02*
X040669Y016028D01*
X039054Y015158D02*
X039054Y014758D01*
X038654Y014358D01*
X039454Y014358D01*
X039054Y014758D01*
X036939Y017158D02*
X036939Y017558D01*
X036939Y017158D02*
X036539Y016758D01*
X037339Y016758D01*
X036939Y017158D01*
X037989Y017818D02*
X037989Y018218D01*
X037989Y017818D02*
X037589Y017418D01*
X038389Y017418D01*
X037989Y017818D01*
X044514Y018118D02*
X044514Y018518D01*
X044514Y018118D02*
X044114Y017718D01*
X044914Y017718D01*
X044514Y018118D01*
X045984Y019228D02*
X045984Y019628D01*
X045984Y019228D02*
X045584Y018828D01*
X046384Y018828D01*
X045984Y019228D01*
X046929Y019378D02*
X046929Y019778D01*
X046929Y019378D02*
X046529Y018978D01*
X047329Y018978D01*
X046929Y019378D01*
X046929Y019043D02*
X046929Y018643D01*
X046529Y018243D01*
X047329Y018243D01*
X046929Y018643D01*
X048264Y019123D02*
X048264Y019523D01*
X048264Y019123D02*
X047864Y018723D01*
X048664Y018723D01*
X048264Y019123D01*
X048099Y020173D02*
X048099Y020573D01*
X048099Y020173D02*
X047699Y019773D01*
X048499Y019773D01*
X048099Y020173D01*
X046674Y019978D02*
X046674Y020378D01*
X046674Y019978D02*
X046274Y019578D01*
X047074Y019578D01*
X046674Y019978D01*
X046014Y019978D02*
X046014Y020378D01*
X046014Y019978D02*
X045614Y019578D01*
X046414Y019578D01*
X046014Y019978D01*
X045699Y020293D02*
X045699Y020693D01*
X045699Y020293D02*
X045299Y019893D01*
X046099Y019893D01*
X045699Y020293D01*
X045309Y020303D02*
X045309Y019903D01*
X044909Y019503D01*
X045709Y019503D01*
X045309Y019903D01*
X045714Y020953D02*
X045714Y021353D01*
X045714Y020953D02*
X045314Y020553D01*
X046114Y020553D01*
X045714Y020953D01*
X055299Y019763D02*
X055299Y019363D01*
X054899Y018963D01*
X055699Y018963D01*
X055299Y019363D01*
X055434Y019043D02*
X055434Y018643D01*
X055034Y018243D01*
X055834Y018243D01*
X055434Y018643D01*
X056829Y019483D02*
X056829Y019883D01*
X056829Y019483D02*
X056429Y019083D01*
X057229Y019083D01*
X056829Y019483D01*
X064134Y020968D02*
X064134Y021368D01*
X064134Y020968D02*
X063734Y020568D01*
X064534Y020568D01*
X064134Y020968D01*
X068034Y017243D02*
X068034Y016843D01*
X067634Y016443D01*
X068434Y016443D01*
X068034Y016843D01*
X069769Y016028D02*
X070569Y015228D01*
X069769Y015228D02*
X070569Y016028D01*
X070769Y016568D02*
X071569Y015768D01*
X070769Y015768D02*
X071569Y016568D01*
X070769Y015488D02*
X071569Y014688D01*
X070769Y014688D02*
X071569Y015488D01*
X070569Y014138D02*
X069769Y014938D01*
X069769Y014138D02*
X070569Y014938D01*
X070769Y014398D02*
X071569Y013598D01*
X070769Y013598D02*
X071569Y014398D01*
X070569Y013058D02*
X069769Y013858D01*
X069769Y013058D02*
X070569Y013858D01*
X070769Y013308D02*
X071569Y012508D01*
X070769Y012508D02*
X071569Y013308D01*
X070569Y011968D02*
X069769Y012768D01*
X069769Y011968D02*
X070569Y012768D01*
X070769Y012228D02*
X071569Y011428D01*
X070769Y011428D02*
X071569Y012228D01*
X070569Y010878D02*
X069769Y011678D01*
X069769Y010878D02*
X070569Y011678D01*
X070769Y011138D02*
X071569Y010338D01*
X070769Y010338D02*
X071569Y011138D01*
X070569Y009798D02*
X069769Y010598D01*
X069769Y009798D02*
X070569Y010598D01*
X070769Y010048D02*
X071569Y009248D01*
X070769Y009248D02*
X071569Y010048D01*
X070569Y008708D02*
X069769Y009508D01*
X069769Y008708D02*
X070569Y009508D01*
X066234Y009533D02*
X066234Y009133D01*
X065834Y008733D01*
X066634Y008733D01*
X066234Y009133D01*
X066534Y010273D02*
X066534Y010673D01*
X066534Y010273D02*
X066134Y009873D01*
X066934Y009873D01*
X066534Y010273D01*
X066234Y011128D02*
X066234Y011528D01*
X066234Y011128D02*
X065834Y010728D01*
X066634Y010728D01*
X066234Y011128D01*
X066234Y012133D02*
X066234Y012533D01*
X066234Y012133D02*
X065834Y011733D01*
X066634Y011733D01*
X066234Y012133D01*
X066234Y013123D02*
X066234Y013523D01*
X066234Y013123D02*
X065834Y012723D01*
X066634Y012723D01*
X066234Y013123D01*
X066759Y013993D02*
X066759Y014393D01*
X066759Y013993D02*
X066359Y013593D01*
X067159Y013593D01*
X066759Y013993D01*
X063819Y012023D02*
X063819Y011623D01*
X063419Y011223D01*
X064219Y011223D01*
X063819Y011623D01*
X063819Y011033D02*
X063819Y010633D01*
X063419Y010233D01*
X064219Y010233D01*
X063819Y010633D01*
X061914Y010163D02*
X061914Y009763D01*
X061514Y009363D01*
X062314Y009363D01*
X061914Y009763D01*
X060084Y010918D02*
X060084Y011318D01*
X060084Y010918D02*
X059684Y010518D01*
X060484Y010518D01*
X060084Y010918D01*
X059619Y011713D02*
X059619Y012113D01*
X059619Y011713D02*
X059219Y011313D01*
X060019Y011313D01*
X059619Y011713D01*
X059004Y011968D02*
X059004Y012368D01*
X059004Y011968D02*
X058604Y011568D01*
X059404Y011568D01*
X059004Y011968D01*
X056289Y011828D02*
X056289Y011428D01*
X055889Y011028D01*
X056689Y011028D01*
X056289Y011428D01*
X055839Y011278D02*
X055839Y011678D01*
X055839Y011278D02*
X055439Y010878D01*
X056239Y010878D01*
X055839Y011278D01*
X054144Y010643D02*
X054144Y010243D01*
X053744Y009843D01*
X054544Y009843D01*
X054144Y010243D01*
X053569Y010628D02*
X052769Y010628D01*
X053169Y010228D02*
X053169Y011028D01*
X051474Y010868D02*
X051474Y010468D01*
X051074Y010068D01*
X051874Y010068D01*
X051474Y010468D01*
X051474Y009938D02*
X051474Y009538D01*
X051074Y009138D01*
X051874Y009138D01*
X051474Y009538D01*
X051729Y009428D02*
X051729Y009028D01*
X051329Y008628D01*
X052129Y008628D01*
X051729Y009028D01*
X051769Y008528D02*
X052569Y007728D01*
X051769Y007728D02*
X052569Y008528D01*
X052644Y008273D02*
X052644Y007873D01*
X052244Y007473D01*
X053044Y007473D01*
X052644Y007873D01*
X052769Y008528D02*
X053569Y007728D01*
X052769Y007728D02*
X053569Y008528D01*
X053769Y008528D02*
X054569Y007728D01*
X053769Y007728D02*
X054569Y008528D01*
X054769Y008528D02*
X055569Y007728D01*
X054769Y007728D02*
X055569Y008528D01*
X056244Y008758D02*
X056244Y009158D01*
X056244Y008758D02*
X055844Y008358D01*
X056644Y008358D01*
X056244Y008758D01*
X056724Y008878D02*
X056724Y009278D01*
X056724Y008878D02*
X056324Y008478D01*
X057124Y008478D01*
X056724Y008878D01*
X056769Y008528D02*
X057569Y007728D01*
X056769Y007728D02*
X057569Y008528D01*
X056569Y007728D02*
X055769Y008528D01*
X055769Y007728D02*
X056569Y008528D01*
X058059Y007823D02*
X058059Y007423D01*
X057659Y007023D01*
X058459Y007023D01*
X058059Y007423D01*
X057569Y006728D02*
X056769Y007528D01*
X056769Y006728D02*
X057569Y007528D01*
X056569Y006728D02*
X055769Y007528D01*
X055769Y006728D02*
X056569Y007528D01*
X055569Y006728D02*
X054769Y007528D01*
X054769Y006728D02*
X055569Y007528D01*
X054569Y006728D02*
X053769Y007528D01*
X053769Y006728D02*
X054569Y007528D01*
X053569Y006728D02*
X052769Y007528D01*
X052769Y006728D02*
X053569Y007528D01*
X052569Y006728D02*
X051769Y007528D01*
X051769Y006728D02*
X052569Y007528D01*
X051669Y007298D02*
X051669Y006898D01*
X051269Y006498D01*
X052069Y006498D01*
X051669Y006898D01*
X051569Y006728D02*
X050769Y007528D01*
X050769Y006728D02*
X051569Y007528D01*
X051569Y007728D02*
X050769Y008528D01*
X050769Y007728D02*
X051569Y008528D01*
X050109Y008773D02*
X050109Y009173D01*
X050109Y008773D02*
X049709Y008373D01*
X050509Y008373D01*
X050109Y008773D01*
X049769Y008528D02*
X050569Y007728D01*
X049769Y007728D02*
X050569Y008528D01*
X049569Y007728D02*
X048769Y008528D01*
X048769Y007728D02*
X049569Y008528D01*
X048569Y007728D02*
X047769Y008528D01*
X047769Y007728D02*
X048569Y008528D01*
X048234Y009283D02*
X048234Y009683D01*
X048234Y009283D02*
X047834Y008883D01*
X048634Y008883D01*
X048234Y009283D01*
X046854Y009493D02*
X046854Y009893D01*
X046854Y009493D02*
X046454Y009093D01*
X047254Y009093D01*
X046854Y009493D01*
X046344Y009428D02*
X046344Y009028D01*
X045944Y008628D01*
X046744Y008628D01*
X046344Y009028D01*
X045769Y008528D02*
X046569Y007728D01*
X045769Y007728D02*
X046569Y008528D01*
X046769Y008528D02*
X047569Y007728D01*
X046769Y007728D02*
X047569Y008528D01*
X046769Y007528D02*
X047569Y006728D01*
X046769Y006728D02*
X047569Y007528D01*
X047769Y007528D02*
X048569Y006728D01*
X047769Y006728D02*
X048569Y007528D01*
X048769Y007528D02*
X049569Y006728D01*
X048769Y006728D02*
X049569Y007528D01*
X049769Y007528D02*
X050569Y006728D01*
X049769Y006728D02*
X050569Y007528D01*
X050499Y007118D02*
X050499Y006718D01*
X050099Y006318D01*
X050899Y006318D01*
X050499Y006718D01*
X048414Y006818D02*
X048414Y006418D01*
X048014Y006018D01*
X048814Y006018D01*
X048414Y006418D01*
X045954Y006518D02*
X045954Y006118D01*
X045554Y005718D01*
X046354Y005718D01*
X045954Y006118D01*
X046569Y006728D02*
X045769Y007528D01*
X045769Y006728D02*
X046569Y007528D01*
X045569Y006728D02*
X044769Y007528D01*
X044769Y006728D02*
X045569Y007528D01*
X045569Y007728D02*
X044769Y008528D01*
X044769Y007728D02*
X045569Y008528D01*
X044199Y008423D02*
X044199Y008023D01*
X043799Y007623D01*
X044599Y007623D01*
X044199Y008023D01*
X043674Y007868D02*
X043674Y007468D01*
X043274Y007068D01*
X044074Y007068D01*
X043674Y007468D01*
X042069Y007628D02*
X041269Y007628D01*
X041669Y007228D02*
X041669Y008028D01*
X041269Y008628D02*
X042069Y008628D01*
X041669Y008228D02*
X041669Y009028D01*
X041269Y009628D02*
X042069Y009628D01*
X041669Y009228D02*
X041669Y010028D01*
X041069Y008628D02*
X040269Y008628D01*
X040669Y008228D02*
X040669Y009028D01*
X040269Y007628D02*
X041069Y007628D01*
X040669Y007228D02*
X040669Y008028D01*
X040269Y006628D02*
X041069Y006628D01*
X040669Y006228D02*
X040669Y007028D01*
X041269Y006628D02*
X042069Y006628D01*
X041669Y006228D02*
X041669Y007028D01*
X042279Y006773D02*
X042279Y006373D01*
X041879Y005973D01*
X042679Y005973D01*
X042279Y006373D01*
X042069Y005628D02*
X041269Y005628D01*
X041669Y005228D02*
X041669Y006028D01*
X041069Y005628D02*
X040269Y005628D01*
X040669Y005228D02*
X040669Y006028D01*
X039984Y006158D02*
X039984Y005758D01*
X039584Y005358D01*
X040384Y005358D01*
X039984Y005758D01*
X038994Y006763D02*
X038994Y007163D01*
X038994Y006763D02*
X038594Y006363D01*
X039394Y006363D01*
X038994Y006763D01*
X041469Y005348D02*
X041469Y004948D01*
X041069Y004548D01*
X041869Y004548D01*
X041469Y004948D01*
X044469Y005863D02*
X044469Y006263D01*
X044469Y005863D02*
X044069Y005463D01*
X044869Y005463D01*
X044469Y005863D01*
X044919Y005863D02*
X044919Y006263D01*
X044919Y005863D02*
X044519Y005463D01*
X045319Y005463D01*
X044919Y005863D01*
X051504Y005603D02*
X051504Y005203D01*
X051104Y004803D01*
X051904Y004803D01*
X051504Y005203D01*
X054099Y006313D02*
X054099Y006713D01*
X054099Y006313D02*
X053699Y005913D01*
X054499Y005913D01*
X054099Y006313D01*
X053569Y009628D02*
X052769Y009628D01*
X053169Y009228D02*
X053169Y010028D01*
X049929Y011638D02*
X049929Y012038D01*
X049929Y011638D02*
X049529Y011238D01*
X050329Y011238D01*
X049929Y011638D01*
X050569Y011728D02*
X049769Y012528D01*
X049769Y011728D02*
X050569Y012528D01*
X050769Y012528D02*
X051569Y011728D01*
X050769Y011728D02*
X051569Y012528D01*
X051769Y012528D02*
X052569Y011728D01*
X051769Y011728D02*
X052569Y012528D01*
X049569Y011728D02*
X048769Y012528D01*
X048769Y011728D02*
X049569Y012528D01*
X048569Y011728D02*
X047769Y012528D01*
X047769Y011728D02*
X048569Y012528D01*
X047754Y012173D02*
X047754Y011773D01*
X047354Y011373D01*
X048154Y011373D01*
X047754Y011773D01*
X048324Y011828D02*
X048324Y011428D01*
X047924Y011028D01*
X048724Y011028D01*
X048324Y011428D01*
X047569Y011728D02*
X046769Y012528D01*
X046769Y011728D02*
X047569Y012528D01*
X046569Y011728D02*
X045769Y012528D01*
X045769Y011728D02*
X046569Y012528D01*
X045569Y011728D02*
X044769Y012528D01*
X044769Y011728D02*
X045569Y012528D01*
X044754Y011498D02*
X044754Y011098D01*
X044354Y010698D01*
X045154Y010698D01*
X044754Y011098D01*
X044049Y011458D02*
X044049Y011858D01*
X044049Y011458D02*
X043649Y011058D01*
X044449Y011058D01*
X044049Y011458D01*
X045969Y010778D02*
X045969Y010378D01*
X045569Y009978D01*
X046369Y009978D01*
X045969Y010378D01*
X041069Y011628D02*
X040269Y011628D01*
X040669Y011228D02*
X040669Y012028D01*
X028109Y011368D02*
X028109Y010968D01*
X028109Y011368D02*
X028509Y011368D01*
X028509Y010568D01*
X027709Y010568D01*
X027709Y011368D01*
X028109Y011368D01*
X022059Y011308D02*
X022059Y011708D01*
X022059Y011308D02*
X021659Y010908D01*
X022459Y010908D01*
X022059Y011308D01*
X022059Y011198D02*
X022059Y010798D01*
X021659Y010398D01*
X022459Y010398D01*
X022059Y010798D01*
X022044Y009893D02*
X022044Y009493D01*
X021644Y009093D01*
X022444Y009093D01*
X022044Y009493D01*
X021656Y007871D02*
X021656Y007471D01*
X021656Y007871D02*
X022056Y007471D01*
X021656Y007071D01*
X021256Y007471D01*
X021656Y007871D01*
X022198Y006543D02*
X022998Y007343D01*
X022198Y007343D01*
X022998Y006543D01*
X022198Y006543D01*
X022059Y012523D02*
X022059Y012923D01*
X022059Y012523D02*
X021659Y012123D01*
X022459Y012123D01*
X022059Y012523D01*
X022044Y013753D02*
X022044Y014153D01*
X022044Y013753D02*
X021644Y013353D01*
X022444Y013353D01*
X022044Y013753D01*
X022044Y014248D02*
X022044Y014648D01*
X022044Y014248D02*
X021644Y013848D01*
X022444Y013848D01*
X022044Y014248D01*
X021759Y015418D02*
X021759Y015818D01*
X021759Y015418D02*
X021359Y015018D01*
X022159Y015018D01*
X021759Y015418D01*
X022044Y016243D02*
X022044Y016643D01*
X022044Y016243D02*
X021644Y015843D01*
X022444Y015843D01*
X022044Y016243D01*
X022044Y016753D02*
X022044Y017153D01*
X022044Y016753D02*
X021644Y016353D01*
X022444Y016353D01*
X022044Y016753D01*
X022044Y017248D02*
X022044Y017648D01*
X022044Y017248D02*
X021644Y016848D01*
X022444Y016848D01*
X022044Y017248D01*
X022044Y018253D02*
X022044Y018653D01*
X022044Y018253D02*
X021644Y017853D01*
X022444Y017853D01*
X022044Y018253D01*
X023304Y016958D02*
X023304Y016558D01*
X022904Y016158D01*
X023704Y016158D01*
X023304Y016558D01*
X023289Y016448D02*
X023289Y016048D01*
X022889Y015648D01*
X023689Y015648D01*
X023289Y016048D01*
X023304Y015653D02*
X023304Y015253D01*
X022904Y014853D01*
X023704Y014853D01*
X023304Y015253D01*
X019929Y014513D02*
X019929Y014113D01*
X019529Y013713D01*
X020329Y013713D01*
X019929Y014113D01*
X019929Y020008D02*
X019929Y020408D01*
X019929Y020008D02*
X019529Y019608D01*
X020329Y019608D01*
X019929Y020008D01*
X019929Y021613D02*
X019929Y022013D01*
X019929Y021613D02*
X019529Y021213D01*
X020329Y021213D01*
X019929Y021613D01*
X019929Y022123D02*
X019929Y022523D01*
X019929Y022123D02*
X019529Y021723D01*
X020329Y021723D01*
X019929Y022123D01*
X019929Y022618D02*
X019929Y023018D01*
X019929Y022618D02*
X019529Y022218D01*
X020329Y022218D01*
X019929Y022618D01*
X021644Y023796D02*
X021644Y024196D01*
X022044Y023796D01*
X021644Y023396D01*
X021244Y023796D01*
X021644Y024196D01*
X022198Y023909D02*
X022998Y024709D01*
X022198Y024709D01*
X022998Y023909D01*
X022198Y023909D01*
X022044Y022148D02*
X022044Y021748D01*
X021644Y021348D01*
X022444Y021348D01*
X022044Y021748D01*
X021834Y021608D02*
X021834Y021208D01*
X021434Y020808D01*
X022234Y020808D01*
X021834Y021208D01*
X023289Y021238D02*
X023289Y021638D01*
X023289Y021238D02*
X022889Y020838D01*
X023689Y020838D01*
X023289Y021238D01*
X024639Y021763D02*
X024639Y022163D01*
X024639Y021763D02*
X024239Y021363D01*
X025039Y021363D01*
X024639Y021763D01*
X028109Y021118D02*
X028109Y020718D01*
X028109Y021118D02*
X028509Y021118D01*
X028509Y020318D01*
X027709Y020318D01*
X027709Y021118D01*
X028109Y021118D01*
X025719Y024703D02*
X025719Y025103D01*
X025719Y024703D02*
X025319Y024303D01*
X026119Y024303D01*
X025719Y024703D01*
X020274Y027973D02*
X020274Y028373D01*
X020274Y027973D02*
X019874Y027573D01*
X020674Y027573D01*
X020274Y027973D01*
X019929Y026588D02*
X019929Y026188D01*
X019529Y025788D01*
X020329Y025788D01*
X019929Y026188D01*
X017349Y029128D02*
X016549Y029128D01*
X016949Y028728D02*
X016949Y029528D01*
X014789Y029128D02*
X013989Y029128D01*
X014389Y028728D02*
X014389Y029528D01*
X016329Y032083D02*
X016329Y032483D01*
X016329Y032083D02*
X015929Y031683D01*
X016729Y031683D01*
X016329Y032083D01*
X017544Y033058D02*
X017544Y033458D01*
X017544Y033058D02*
X017144Y032658D01*
X017944Y032658D01*
X017544Y033058D01*
X017469Y033508D02*
X017469Y033908D01*
X017469Y033508D02*
X017069Y033108D01*
X017869Y033108D01*
X017469Y033508D01*
X017499Y034108D02*
X017499Y034508D01*
X017499Y034108D02*
X017099Y033708D01*
X017899Y033708D01*
X017499Y034108D01*
X017049Y034108D02*
X017049Y034508D01*
X017049Y034108D02*
X016649Y033708D01*
X017449Y033708D01*
X017049Y034108D01*
X015864Y034108D02*
X015864Y034508D01*
X015864Y034108D02*
X015464Y033708D01*
X016264Y033708D01*
X015864Y034108D01*
X015939Y035188D02*
X015939Y035588D01*
X015939Y035188D02*
X015539Y034788D01*
X016339Y034788D01*
X015939Y035188D01*
X015489Y035203D02*
X015489Y035603D01*
X015489Y035203D02*
X015089Y034803D01*
X015889Y034803D01*
X015489Y035203D01*
X015579Y035653D02*
X015579Y036053D01*
X015579Y035653D02*
X015179Y035253D01*
X015979Y035253D01*
X015579Y035653D01*
X017319Y035588D02*
X017319Y035188D01*
X016919Y034788D01*
X017719Y034788D01*
X017319Y035188D01*
X018084Y035188D02*
X018084Y035588D01*
X018084Y035188D02*
X017684Y034788D01*
X018484Y034788D01*
X018084Y035188D01*
X018789Y035203D02*
X018789Y035603D01*
X018789Y035203D02*
X018389Y034803D01*
X019189Y034803D01*
X018789Y035203D01*
X019239Y035203D02*
X019239Y035603D01*
X019239Y035203D02*
X018839Y034803D01*
X019639Y034803D01*
X019239Y035203D01*
X019929Y035333D02*
X019929Y034933D01*
X019529Y034533D01*
X020329Y034533D01*
X019929Y034933D01*
X020244Y034958D02*
X020244Y034558D01*
X019844Y034158D01*
X020644Y034158D01*
X020244Y034558D01*
X018834Y034508D02*
X018834Y034108D01*
X018434Y033708D01*
X019234Y033708D01*
X018834Y034108D01*
X018384Y034108D02*
X018384Y034508D01*
X018384Y034108D02*
X017984Y033708D01*
X018784Y033708D01*
X018384Y034108D01*
X020754Y035533D02*
X020754Y035933D01*
X020754Y035533D02*
X020354Y035133D01*
X021154Y035133D01*
X020754Y035533D01*
X020169Y035863D02*
X020169Y036263D01*
X020169Y035863D02*
X019769Y035463D01*
X020569Y035463D01*
X020169Y035863D01*
X020544Y036118D02*
X020544Y036518D01*
X020544Y036118D02*
X020144Y035718D01*
X020944Y035718D01*
X020544Y036118D01*
X020454Y036868D02*
X020454Y037268D01*
X020454Y036868D02*
X020054Y036468D01*
X020854Y036468D01*
X020454Y036868D01*
X019854Y037028D02*
X019854Y036628D01*
X019454Y036228D01*
X020254Y036228D01*
X019854Y036628D01*
X019404Y036628D02*
X019404Y037028D01*
X019404Y036628D02*
X019004Y036228D01*
X019804Y036228D01*
X019404Y036628D01*
X018234Y036488D02*
X018234Y036088D01*
X017834Y035688D01*
X018634Y035688D01*
X018234Y036088D01*
X021429Y034958D02*
X021429Y034558D01*
X021029Y034158D01*
X021829Y034158D01*
X021429Y034558D01*
X022464Y034873D02*
X022464Y035273D01*
X022464Y034873D02*
X022064Y034473D01*
X022864Y034473D01*
X022464Y034873D01*
X022209Y033983D02*
X022209Y033583D01*
X021809Y033183D01*
X022609Y033183D01*
X022209Y033583D01*
X023829Y033488D02*
X023829Y033088D01*
X023429Y032688D01*
X024229Y032688D01*
X023829Y033088D01*
X024294Y032108D02*
X024294Y031708D01*
X023894Y031308D01*
X024694Y031308D01*
X024294Y031708D01*
X024789Y030953D02*
X024789Y030553D01*
X024389Y030153D01*
X025189Y030153D01*
X024789Y030553D01*
X022944Y031333D02*
X022944Y031733D01*
X022944Y031333D02*
X022544Y030933D01*
X023344Y030933D01*
X022944Y031333D01*
X022584Y031753D02*
X022584Y032153D01*
X022584Y031753D02*
X022184Y031353D01*
X022984Y031353D01*
X022584Y031753D01*
X021684Y031253D02*
X021684Y030853D01*
X021284Y030453D01*
X022084Y030453D01*
X021684Y030853D01*
X026109Y031873D02*
X026109Y032273D01*
X026109Y031873D02*
X025709Y031473D01*
X026509Y031473D01*
X026109Y031873D01*
X027399Y033103D02*
X027399Y033503D01*
X027399Y033103D02*
X026999Y032703D01*
X027799Y032703D01*
X027399Y033103D01*
X025299Y034303D02*
X025299Y034703D01*
X025299Y034303D02*
X024899Y033903D01*
X025699Y033903D01*
X025299Y034303D01*
X027399Y037378D02*
X027399Y037778D01*
X027399Y037378D02*
X026999Y036978D01*
X027799Y036978D01*
X027399Y037378D01*
X025419Y037918D02*
X025419Y038318D01*
X025419Y037918D02*
X025019Y037518D01*
X025819Y037518D01*
X025419Y037918D01*
X024789Y039628D02*
X024789Y040028D01*
X024789Y039628D02*
X024389Y039228D01*
X025189Y039228D01*
X024789Y039628D01*
X020814Y039623D02*
X020814Y039223D01*
X020414Y038823D01*
X021214Y038823D01*
X020814Y039223D01*
X020349Y039223D02*
X020349Y039623D01*
X020349Y039223D02*
X019949Y038823D01*
X020749Y038823D01*
X020349Y039223D01*
X017319Y038873D02*
X017319Y038473D01*
X016919Y038073D01*
X017719Y038073D01*
X017319Y038473D01*
X016944Y038728D02*
X016944Y039128D01*
X016944Y038728D02*
X016544Y038328D01*
X017344Y038328D01*
X016944Y038728D01*
X016974Y039718D02*
X016974Y040118D01*
X016974Y039718D02*
X016574Y039318D01*
X017374Y039318D01*
X016974Y039718D01*
X015384Y039718D02*
X015384Y040118D01*
X015384Y039718D02*
X014984Y039318D01*
X015784Y039318D01*
X015384Y039718D01*
X029964Y035273D02*
X029964Y034873D01*
X029564Y034473D01*
X030364Y034473D01*
X029964Y034873D01*
X031914Y033173D02*
X031914Y032773D01*
X031514Y032373D01*
X032314Y032373D01*
X031914Y032773D01*
X034314Y031508D02*
X034314Y031108D01*
X033914Y030708D01*
X034714Y030708D01*
X034314Y031108D01*
X037464Y038263D02*
X037464Y038663D01*
X037464Y038263D02*
X037064Y037863D01*
X037864Y037863D01*
X037464Y038263D01*
X037494Y038863D02*
X037494Y039263D01*
X037494Y038863D02*
X037094Y038463D01*
X037894Y038463D01*
X037494Y038863D01*
X039534Y039373D02*
X039534Y039773D01*
X039534Y039373D02*
X039134Y038973D01*
X039934Y038973D01*
X039534Y039373D01*
X039279Y039748D02*
X039279Y040148D01*
X039279Y039748D02*
X038879Y039348D01*
X039679Y039348D01*
X039279Y039748D01*
X042534Y041398D02*
X042534Y041798D01*
X042534Y041398D02*
X042134Y040998D01*
X042934Y040998D01*
X042534Y041398D01*
X042534Y042028D02*
X042534Y042428D01*
X042534Y042028D02*
X042134Y041628D01*
X042934Y041628D01*
X042534Y042028D01*
X043854Y042373D02*
X043854Y042773D01*
X043854Y042373D02*
X043454Y041973D01*
X044254Y041973D01*
X043854Y042373D01*
X044184Y041483D02*
X044184Y041083D01*
X043784Y040683D01*
X044584Y040683D01*
X044184Y041083D01*
X046809Y042373D02*
X046809Y042773D01*
X046809Y042373D02*
X046409Y041973D01*
X047209Y041973D01*
X046809Y042373D01*
X050529Y041798D02*
X050529Y041398D01*
X050129Y040998D01*
X050929Y040998D01*
X050529Y041398D01*
X044069Y045028D02*
X043269Y044228D01*
X044069Y044228D02*
X043269Y045028D01*
X043269Y044628D02*
X044069Y044628D01*
X061569Y013508D02*
X061569Y013108D01*
X061169Y012708D01*
X061969Y012708D01*
X061569Y013108D01*
X061644Y012173D02*
X061644Y011773D01*
X061244Y011373D01*
X062044Y011373D01*
X061644Y011773D01*
X062069Y008528D02*
X061269Y007728D01*
X062069Y007728D02*
X061269Y008528D01*
X061669Y008528D02*
X061669Y007728D01*
X062994Y007933D02*
X062994Y008333D01*
X062994Y007933D02*
X062594Y007533D01*
X063394Y007533D01*
X062994Y007933D01*
X063819Y007028D02*
X063819Y006628D01*
X063419Y006228D01*
X064219Y006228D01*
X063819Y006628D01*
X062169Y006128D02*
X062169Y005728D01*
X062169Y006128D02*
X061769Y006528D01*
X062569Y006528D01*
X062169Y006128D01*
X060169Y006128D02*
X060169Y005728D01*
X060169Y006128D02*
X059769Y006528D01*
X060569Y006528D01*
X060169Y006128D01*
X060269Y007728D02*
X061069Y008528D01*
X061069Y007728D02*
X060269Y008528D01*
X060669Y008528D02*
X060669Y007728D01*
X067769Y004228D02*
X068569Y005028D01*
X068569Y004228D02*
X067769Y005028D01*
X067769Y004628D02*
X068569Y004628D01*
X070269Y006368D02*
X071069Y006368D01*
X070669Y005968D01*
X070669Y006768D01*
X070269Y006368D01*
X032569Y005028D02*
X031769Y004228D01*
X032569Y004228D02*
X031769Y005028D01*
X031769Y004628D02*
X032569Y004628D01*
D12*
X031544Y004628D02*
X031547Y004685D01*
X031554Y004741D01*
X031567Y004797D01*
X031585Y004851D01*
X031608Y004903D01*
X031635Y004953D01*
X031667Y005000D01*
X031703Y005044D01*
X031742Y005085D01*
X031786Y005122D01*
X031832Y005154D01*
X031881Y005183D01*
X031933Y005207D01*
X031987Y005226D01*
X032042Y005240D01*
X032098Y005249D01*
X032155Y005253D01*
X032212Y005252D01*
X032268Y005245D01*
X032324Y005234D01*
X032378Y005217D01*
X032431Y005195D01*
X032481Y005169D01*
X032529Y005139D01*
X032574Y005104D01*
X032616Y005065D01*
X032654Y005022D01*
X032688Y004977D01*
X032717Y004928D01*
X032742Y004877D01*
X032763Y004824D01*
X032778Y004769D01*
X032788Y004713D01*
X032793Y004656D01*
X032793Y004600D01*
X032788Y004543D01*
X032778Y004487D01*
X032763Y004432D01*
X032742Y004379D01*
X032717Y004328D01*
X032688Y004279D01*
X032654Y004234D01*
X032616Y004191D01*
X032574Y004152D01*
X032529Y004117D01*
X032482Y004087D01*
X032431Y004061D01*
X032378Y004039D01*
X032324Y004022D01*
X032268Y004011D01*
X032212Y004004D01*
X032155Y004003D01*
X032098Y004007D01*
X032042Y004016D01*
X031987Y004030D01*
X031933Y004049D01*
X031881Y004073D01*
X031832Y004102D01*
X031786Y004134D01*
X031742Y004171D01*
X031703Y004212D01*
X031667Y004256D01*
X031635Y004303D01*
X031608Y004353D01*
X031585Y004405D01*
X031567Y004459D01*
X031554Y004515D01*
X031547Y004571D01*
X031544Y004628D01*
X022348Y006943D02*
X022350Y006975D01*
X022356Y007006D01*
X022366Y007037D01*
X022380Y007066D01*
X022398Y007093D01*
X022418Y007117D01*
X022442Y007138D01*
X022468Y007157D01*
X022497Y007172D01*
X022527Y007183D01*
X022558Y007190D01*
X022590Y007193D01*
X022622Y007192D01*
X022654Y007187D01*
X022684Y007178D01*
X022714Y007165D01*
X022741Y007148D01*
X022766Y007128D01*
X022788Y007105D01*
X022808Y007079D01*
X022823Y007051D01*
X022835Y007022D01*
X022843Y006991D01*
X022847Y006959D01*
X022847Y006927D01*
X022843Y006895D01*
X022835Y006864D01*
X022823Y006835D01*
X022808Y006807D01*
X022788Y006781D01*
X022766Y006758D01*
X022741Y006738D01*
X022714Y006721D01*
X022684Y006708D01*
X022654Y006699D01*
X022622Y006694D01*
X022590Y006693D01*
X022558Y006696D01*
X022527Y006703D01*
X022497Y006714D01*
X022468Y006729D01*
X022442Y006748D01*
X022418Y006769D01*
X022398Y006793D01*
X022380Y006820D01*
X022366Y006849D01*
X022356Y006880D01*
X022350Y006911D01*
X022348Y006943D01*
X021203Y007471D02*
X021205Y007514D01*
X021211Y007557D01*
X021221Y007599D01*
X021235Y007639D01*
X021253Y007679D01*
X021275Y007716D01*
X021300Y007751D01*
X021328Y007784D01*
X021359Y007813D01*
X021393Y007840D01*
X021429Y007863D01*
X021468Y007883D01*
X021508Y007899D01*
X021549Y007911D01*
X021592Y007919D01*
X021634Y007923D01*
X021678Y007923D01*
X021720Y007919D01*
X021763Y007911D01*
X021804Y007899D01*
X021844Y007883D01*
X021882Y007863D01*
X021919Y007840D01*
X021953Y007813D01*
X021984Y007784D01*
X022012Y007751D01*
X022037Y007716D01*
X022059Y007679D01*
X022077Y007639D01*
X022091Y007599D01*
X022101Y007557D01*
X022107Y007514D01*
X022109Y007471D01*
X022107Y007428D01*
X022101Y007385D01*
X022091Y007343D01*
X022077Y007303D01*
X022059Y007263D01*
X022037Y007226D01*
X022012Y007191D01*
X021984Y007158D01*
X021953Y007129D01*
X021919Y007102D01*
X021883Y007079D01*
X021844Y007059D01*
X021804Y007043D01*
X021763Y007031D01*
X021720Y007023D01*
X021678Y007019D01*
X021634Y007019D01*
X021592Y007023D01*
X021549Y007031D01*
X021508Y007043D01*
X021468Y007059D01*
X021430Y007079D01*
X021393Y007102D01*
X021359Y007129D01*
X021328Y007158D01*
X021300Y007191D01*
X021275Y007226D01*
X021253Y007263D01*
X021235Y007303D01*
X021221Y007343D01*
X021211Y007385D01*
X021205Y007428D01*
X021203Y007471D01*
X021191Y023796D02*
X021193Y023839D01*
X021199Y023882D01*
X021209Y023924D01*
X021223Y023964D01*
X021241Y024004D01*
X021263Y024041D01*
X021288Y024076D01*
X021316Y024109D01*
X021347Y024138D01*
X021381Y024165D01*
X021417Y024188D01*
X021456Y024208D01*
X021496Y024224D01*
X021537Y024236D01*
X021580Y024244D01*
X021622Y024248D01*
X021666Y024248D01*
X021708Y024244D01*
X021751Y024236D01*
X021792Y024224D01*
X021832Y024208D01*
X021870Y024188D01*
X021907Y024165D01*
X021941Y024138D01*
X021972Y024109D01*
X022000Y024076D01*
X022025Y024041D01*
X022047Y024004D01*
X022065Y023964D01*
X022079Y023924D01*
X022089Y023882D01*
X022095Y023839D01*
X022097Y023796D01*
X022095Y023753D01*
X022089Y023710D01*
X022079Y023668D01*
X022065Y023628D01*
X022047Y023588D01*
X022025Y023551D01*
X022000Y023516D01*
X021972Y023483D01*
X021941Y023454D01*
X021907Y023427D01*
X021871Y023404D01*
X021832Y023384D01*
X021792Y023368D01*
X021751Y023356D01*
X021708Y023348D01*
X021666Y023344D01*
X021622Y023344D01*
X021580Y023348D01*
X021537Y023356D01*
X021496Y023368D01*
X021456Y023384D01*
X021418Y023404D01*
X021381Y023427D01*
X021347Y023454D01*
X021316Y023483D01*
X021288Y023516D01*
X021263Y023551D01*
X021241Y023588D01*
X021223Y023628D01*
X021209Y023668D01*
X021199Y023710D01*
X021193Y023753D01*
X021191Y023796D01*
X022348Y024309D02*
X022350Y024341D01*
X022356Y024372D01*
X022366Y024403D01*
X022380Y024432D01*
X022398Y024459D01*
X022418Y024483D01*
X022442Y024504D01*
X022468Y024523D01*
X022497Y024538D01*
X022527Y024549D01*
X022558Y024556D01*
X022590Y024559D01*
X022622Y024558D01*
X022654Y024553D01*
X022684Y024544D01*
X022714Y024531D01*
X022741Y024514D01*
X022766Y024494D01*
X022788Y024471D01*
X022808Y024445D01*
X022823Y024417D01*
X022835Y024388D01*
X022843Y024357D01*
X022847Y024325D01*
X022847Y024293D01*
X022843Y024261D01*
X022835Y024230D01*
X022823Y024201D01*
X022808Y024173D01*
X022788Y024147D01*
X022766Y024124D01*
X022741Y024104D01*
X022714Y024087D01*
X022684Y024074D01*
X022654Y024065D01*
X022622Y024060D01*
X022590Y024059D01*
X022558Y024062D01*
X022527Y024069D01*
X022497Y024080D01*
X022468Y024095D01*
X022442Y024114D01*
X022418Y024135D01*
X022398Y024159D01*
X022380Y024186D01*
X022366Y024215D01*
X022356Y024246D01*
X022350Y024277D01*
X022348Y024309D01*
X014044Y044628D02*
X014047Y044685D01*
X014054Y044741D01*
X014067Y044797D01*
X014085Y044851D01*
X014108Y044903D01*
X014135Y044953D01*
X014167Y045000D01*
X014203Y045044D01*
X014242Y045085D01*
X014286Y045122D01*
X014332Y045154D01*
X014381Y045183D01*
X014433Y045207D01*
X014487Y045226D01*
X014542Y045240D01*
X014598Y045249D01*
X014655Y045253D01*
X014712Y045252D01*
X014768Y045245D01*
X014824Y045234D01*
X014878Y045217D01*
X014931Y045195D01*
X014981Y045169D01*
X015029Y045139D01*
X015074Y045104D01*
X015116Y045065D01*
X015154Y045022D01*
X015188Y044977D01*
X015217Y044928D01*
X015242Y044877D01*
X015263Y044824D01*
X015278Y044769D01*
X015288Y044713D01*
X015293Y044656D01*
X015293Y044600D01*
X015288Y044543D01*
X015278Y044487D01*
X015263Y044432D01*
X015242Y044379D01*
X015217Y044328D01*
X015188Y044279D01*
X015154Y044234D01*
X015116Y044191D01*
X015074Y044152D01*
X015029Y044117D01*
X014982Y044087D01*
X014931Y044061D01*
X014878Y044039D01*
X014824Y044022D01*
X014768Y044011D01*
X014712Y044004D01*
X014655Y044003D01*
X014598Y044007D01*
X014542Y044016D01*
X014487Y044030D01*
X014433Y044049D01*
X014381Y044073D01*
X014332Y044102D01*
X014286Y044134D01*
X014242Y044171D01*
X014203Y044212D01*
X014167Y044256D01*
X014135Y044303D01*
X014108Y044353D01*
X014085Y044405D01*
X014067Y044459D01*
X014054Y044515D01*
X014047Y044571D01*
X014044Y044628D01*
X043044Y044628D02*
X043047Y044685D01*
X043054Y044741D01*
X043067Y044797D01*
X043085Y044851D01*
X043108Y044903D01*
X043135Y044953D01*
X043167Y045000D01*
X043203Y045044D01*
X043242Y045085D01*
X043286Y045122D01*
X043332Y045154D01*
X043381Y045183D01*
X043433Y045207D01*
X043487Y045226D01*
X043542Y045240D01*
X043598Y045249D01*
X043655Y045253D01*
X043712Y045252D01*
X043768Y045245D01*
X043824Y045234D01*
X043878Y045217D01*
X043931Y045195D01*
X043981Y045169D01*
X044029Y045139D01*
X044074Y045104D01*
X044116Y045065D01*
X044154Y045022D01*
X044188Y044977D01*
X044217Y044928D01*
X044242Y044877D01*
X044263Y044824D01*
X044278Y044769D01*
X044288Y044713D01*
X044293Y044656D01*
X044293Y044600D01*
X044288Y044543D01*
X044278Y044487D01*
X044263Y044432D01*
X044242Y044379D01*
X044217Y044328D01*
X044188Y044279D01*
X044154Y044234D01*
X044116Y044191D01*
X044074Y044152D01*
X044029Y044117D01*
X043982Y044087D01*
X043931Y044061D01*
X043878Y044039D01*
X043824Y044022D01*
X043768Y044011D01*
X043712Y044004D01*
X043655Y044003D01*
X043598Y044007D01*
X043542Y044016D01*
X043487Y044030D01*
X043433Y044049D01*
X043381Y044073D01*
X043332Y044102D01*
X043286Y044134D01*
X043242Y044171D01*
X043203Y044212D01*
X043167Y044256D01*
X043135Y044303D01*
X043108Y044353D01*
X043085Y044405D01*
X043067Y044459D01*
X043054Y044515D01*
X043047Y044571D01*
X043044Y044628D01*
X066044Y044628D02*
X066047Y044685D01*
X066054Y044741D01*
X066067Y044797D01*
X066085Y044851D01*
X066108Y044903D01*
X066135Y044953D01*
X066167Y045000D01*
X066203Y045044D01*
X066242Y045085D01*
X066286Y045122D01*
X066332Y045154D01*
X066381Y045183D01*
X066433Y045207D01*
X066487Y045226D01*
X066542Y045240D01*
X066598Y045249D01*
X066655Y045253D01*
X066712Y045252D01*
X066768Y045245D01*
X066824Y045234D01*
X066878Y045217D01*
X066931Y045195D01*
X066981Y045169D01*
X067029Y045139D01*
X067074Y045104D01*
X067116Y045065D01*
X067154Y045022D01*
X067188Y044977D01*
X067217Y044928D01*
X067242Y044877D01*
X067263Y044824D01*
X067278Y044769D01*
X067288Y044713D01*
X067293Y044656D01*
X067293Y044600D01*
X067288Y044543D01*
X067278Y044487D01*
X067263Y044432D01*
X067242Y044379D01*
X067217Y044328D01*
X067188Y044279D01*
X067154Y044234D01*
X067116Y044191D01*
X067074Y044152D01*
X067029Y044117D01*
X066982Y044087D01*
X066931Y044061D01*
X066878Y044039D01*
X066824Y044022D01*
X066768Y044011D01*
X066712Y044004D01*
X066655Y044003D01*
X066598Y044007D01*
X066542Y044016D01*
X066487Y044030D01*
X066433Y044049D01*
X066381Y044073D01*
X066332Y044102D01*
X066286Y044134D01*
X066242Y044171D01*
X066203Y044212D01*
X066167Y044256D01*
X066135Y044303D01*
X066108Y044353D01*
X066085Y044405D01*
X066067Y044459D01*
X066054Y044515D01*
X066047Y044571D01*
X066044Y044628D01*
X070078Y044050D02*
X070080Y044104D01*
X070088Y044157D01*
X070100Y044209D01*
X070117Y044261D01*
X070138Y044310D01*
X070164Y044357D01*
X070194Y044402D01*
X070228Y044443D01*
X070266Y044482D01*
X070307Y044517D01*
X070351Y044548D01*
X070397Y044575D01*
X070446Y044597D01*
X070497Y044615D01*
X070549Y044629D01*
X070602Y044637D01*
X070656Y044641D01*
X070709Y044640D01*
X070763Y044634D01*
X070815Y044623D01*
X070867Y044607D01*
X070917Y044587D01*
X070964Y044562D01*
X071010Y044533D01*
X071052Y044500D01*
X071092Y044463D01*
X071127Y044423D01*
X071159Y044380D01*
X071187Y044334D01*
X071211Y044285D01*
X071230Y044235D01*
X071245Y044183D01*
X071254Y044130D01*
X071259Y044077D01*
X071259Y044023D01*
X071254Y043970D01*
X071245Y043917D01*
X071230Y043865D01*
X071211Y043815D01*
X071187Y043766D01*
X071159Y043720D01*
X071127Y043677D01*
X071092Y043637D01*
X071052Y043600D01*
X071010Y043567D01*
X070965Y043538D01*
X070917Y043513D01*
X070867Y043493D01*
X070815Y043477D01*
X070763Y043466D01*
X070709Y043460D01*
X070656Y043459D01*
X070602Y043463D01*
X070549Y043471D01*
X070497Y043485D01*
X070446Y043503D01*
X070397Y043525D01*
X070351Y043552D01*
X070307Y043583D01*
X070266Y043618D01*
X070228Y043657D01*
X070194Y043698D01*
X070164Y043743D01*
X070138Y043790D01*
X070117Y043839D01*
X070100Y043891D01*
X070088Y043943D01*
X070080Y043996D01*
X070078Y044050D01*
X070078Y034207D02*
X070080Y034261D01*
X070088Y034314D01*
X070100Y034366D01*
X070117Y034418D01*
X070138Y034467D01*
X070164Y034514D01*
X070194Y034559D01*
X070228Y034600D01*
X070266Y034639D01*
X070307Y034674D01*
X070351Y034705D01*
X070397Y034732D01*
X070446Y034754D01*
X070497Y034772D01*
X070549Y034786D01*
X070602Y034794D01*
X070656Y034798D01*
X070709Y034797D01*
X070763Y034791D01*
X070815Y034780D01*
X070867Y034764D01*
X070917Y034744D01*
X070964Y034719D01*
X071010Y034690D01*
X071052Y034657D01*
X071092Y034620D01*
X071127Y034580D01*
X071159Y034537D01*
X071187Y034491D01*
X071211Y034442D01*
X071230Y034392D01*
X071245Y034340D01*
X071254Y034287D01*
X071259Y034234D01*
X071259Y034180D01*
X071254Y034127D01*
X071245Y034074D01*
X071230Y034022D01*
X071211Y033972D01*
X071187Y033923D01*
X071159Y033877D01*
X071127Y033834D01*
X071092Y033794D01*
X071052Y033757D01*
X071010Y033724D01*
X070965Y033695D01*
X070917Y033670D01*
X070867Y033650D01*
X070815Y033634D01*
X070763Y033623D01*
X070709Y033617D01*
X070656Y033616D01*
X070602Y033620D01*
X070549Y033628D01*
X070497Y033642D01*
X070446Y033660D01*
X070397Y033682D01*
X070351Y033709D01*
X070307Y033740D01*
X070266Y033775D01*
X070228Y033814D01*
X070194Y033855D01*
X070164Y033900D01*
X070138Y033947D01*
X070117Y033996D01*
X070100Y034048D01*
X070088Y034100D01*
X070080Y034153D01*
X070078Y034207D01*
X070019Y024888D02*
X070022Y024947D01*
X070030Y025006D01*
X070043Y025063D01*
X070062Y025120D01*
X070085Y025174D01*
X070114Y025226D01*
X070147Y025275D01*
X070184Y025321D01*
X070225Y025363D01*
X070270Y025401D01*
X070319Y025436D01*
X070370Y025465D01*
X070424Y025490D01*
X070479Y025510D01*
X070537Y025524D01*
X070595Y025534D01*
X070654Y025538D01*
X070713Y025536D01*
X070772Y025530D01*
X070830Y025518D01*
X070887Y025500D01*
X070941Y025478D01*
X070994Y025451D01*
X071044Y025419D01*
X071091Y025383D01*
X071134Y025342D01*
X071173Y025298D01*
X071208Y025251D01*
X071239Y025200D01*
X071265Y025147D01*
X071286Y025092D01*
X071302Y025035D01*
X071313Y024977D01*
X071318Y024918D01*
X071318Y024858D01*
X071313Y024799D01*
X071302Y024741D01*
X071286Y024684D01*
X071265Y024629D01*
X071239Y024576D01*
X071208Y024525D01*
X071173Y024478D01*
X071134Y024434D01*
X071091Y024393D01*
X071044Y024357D01*
X070994Y024325D01*
X070941Y024298D01*
X070887Y024276D01*
X070830Y024258D01*
X070772Y024246D01*
X070713Y024240D01*
X070654Y024238D01*
X070595Y024242D01*
X070537Y024252D01*
X070479Y024266D01*
X070424Y024286D01*
X070370Y024311D01*
X070319Y024340D01*
X070270Y024375D01*
X070225Y024413D01*
X070184Y024455D01*
X070147Y024501D01*
X070114Y024550D01*
X070085Y024602D01*
X070062Y024656D01*
X070043Y024713D01*
X070030Y024770D01*
X070022Y024829D01*
X070019Y024888D01*
X070019Y006368D02*
X070022Y006427D01*
X070030Y006486D01*
X070043Y006543D01*
X070062Y006600D01*
X070085Y006654D01*
X070114Y006706D01*
X070147Y006755D01*
X070184Y006801D01*
X070225Y006843D01*
X070270Y006881D01*
X070319Y006916D01*
X070370Y006945D01*
X070424Y006970D01*
X070479Y006990D01*
X070537Y007004D01*
X070595Y007014D01*
X070654Y007018D01*
X070713Y007016D01*
X070772Y007010D01*
X070830Y006998D01*
X070887Y006980D01*
X070941Y006958D01*
X070994Y006931D01*
X071044Y006899D01*
X071091Y006863D01*
X071134Y006822D01*
X071173Y006778D01*
X071208Y006731D01*
X071239Y006680D01*
X071265Y006627D01*
X071286Y006572D01*
X071302Y006515D01*
X071313Y006457D01*
X071318Y006398D01*
X071318Y006338D01*
X071313Y006279D01*
X071302Y006221D01*
X071286Y006164D01*
X071265Y006109D01*
X071239Y006056D01*
X071208Y006005D01*
X071173Y005958D01*
X071134Y005914D01*
X071091Y005873D01*
X071044Y005837D01*
X070994Y005805D01*
X070941Y005778D01*
X070887Y005756D01*
X070830Y005738D01*
X070772Y005726D01*
X070713Y005720D01*
X070654Y005718D01*
X070595Y005722D01*
X070537Y005732D01*
X070479Y005746D01*
X070424Y005766D01*
X070370Y005791D01*
X070319Y005820D01*
X070270Y005855D01*
X070225Y005893D01*
X070184Y005935D01*
X070147Y005981D01*
X070114Y006030D01*
X070085Y006082D01*
X070062Y006136D01*
X070043Y006193D01*
X070030Y006250D01*
X070022Y006309D01*
X070019Y006368D01*
X067544Y004628D02*
X067547Y004685D01*
X067554Y004741D01*
X067567Y004797D01*
X067585Y004851D01*
X067608Y004903D01*
X067635Y004953D01*
X067667Y005000D01*
X067703Y005044D01*
X067742Y005085D01*
X067786Y005122D01*
X067832Y005154D01*
X067881Y005183D01*
X067933Y005207D01*
X067987Y005226D01*
X068042Y005240D01*
X068098Y005249D01*
X068155Y005253D01*
X068212Y005252D01*
X068268Y005245D01*
X068324Y005234D01*
X068378Y005217D01*
X068431Y005195D01*
X068481Y005169D01*
X068529Y005139D01*
X068574Y005104D01*
X068616Y005065D01*
X068654Y005022D01*
X068688Y004977D01*
X068717Y004928D01*
X068742Y004877D01*
X068763Y004824D01*
X068778Y004769D01*
X068788Y004713D01*
X068793Y004656D01*
X068793Y004600D01*
X068788Y004543D01*
X068778Y004487D01*
X068763Y004432D01*
X068742Y004379D01*
X068717Y004328D01*
X068688Y004279D01*
X068654Y004234D01*
X068616Y004191D01*
X068574Y004152D01*
X068529Y004117D01*
X068482Y004087D01*
X068431Y004061D01*
X068378Y004039D01*
X068324Y004022D01*
X068268Y004011D01*
X068212Y004004D01*
X068155Y004003D01*
X068098Y004007D01*
X068042Y004016D01*
X067987Y004030D01*
X067933Y004049D01*
X067881Y004073D01*
X067832Y004102D01*
X067786Y004134D01*
X067742Y004171D01*
X067703Y004212D01*
X067667Y004256D01*
X067635Y004303D01*
X067608Y004353D01*
X067585Y004405D01*
X067567Y004459D01*
X067554Y004515D01*
X067547Y004571D01*
X067544Y004628D01*
D13*
X012389Y028532D02*
X012283Y028425D01*
X012389Y028532D02*
X012389Y028746D01*
X012176Y028746D02*
X012176Y028532D01*
X012069Y028425D01*
X011852Y028425D02*
X011852Y028532D01*
X011745Y028639D01*
X011531Y028639D01*
X011425Y028532D01*
X011207Y028639D02*
X010994Y028532D01*
X010780Y028319D01*
X011100Y028319D01*
X011207Y028212D01*
X011207Y028105D01*
X011100Y027998D01*
X010887Y027998D01*
X010780Y028105D01*
X010780Y028319D01*
X010563Y028532D02*
X010136Y028105D01*
X010242Y027998D01*
X010456Y027998D01*
X010563Y028105D01*
X010563Y028532D01*
X010456Y028639D01*
X010242Y028639D01*
X010136Y028532D01*
X010136Y028105D01*
X009705Y028105D02*
X009705Y027998D01*
X009598Y027998D01*
X009598Y028105D01*
X009705Y028105D01*
X009381Y028105D02*
X009274Y027998D01*
X009061Y027998D01*
X008954Y028105D01*
X009381Y028532D01*
X009381Y028105D01*
X008954Y028105D02*
X008954Y028532D01*
X009061Y028639D01*
X009274Y028639D01*
X009381Y028532D01*
X009374Y029248D02*
X009801Y029675D01*
X009801Y029782D01*
X009694Y029889D01*
X009480Y029889D01*
X009374Y029782D01*
X009156Y029782D02*
X009156Y029569D01*
X009049Y029462D01*
X008729Y029462D01*
X008943Y029462D02*
X009156Y029248D01*
X009374Y029248D02*
X009801Y029248D01*
X008729Y029248D02*
X008729Y029889D01*
X009049Y029889D01*
X009156Y029782D01*
X008511Y029889D02*
X008084Y029889D01*
X008084Y029248D01*
X008084Y029569D02*
X008298Y029569D01*
X007010Y029569D02*
X007010Y029675D01*
X006903Y029675D01*
X006903Y029569D01*
X007010Y029569D01*
X007010Y029355D02*
X007010Y029248D01*
X006903Y029248D01*
X006903Y029355D01*
X007010Y029355D01*
X006579Y029248D02*
X006366Y029248D01*
X006473Y029248D02*
X006473Y029889D01*
X006366Y029889D01*
X006148Y029569D02*
X006148Y029248D01*
X005828Y029248D01*
X005721Y029355D01*
X005828Y029462D01*
X006148Y029462D01*
X006148Y029569D02*
X006041Y029675D01*
X005828Y029675D01*
X005291Y029675D02*
X005291Y029248D01*
X005184Y029248D02*
X005398Y029248D01*
X005291Y029675D02*
X005184Y029675D01*
X005291Y029889D02*
X005291Y029996D01*
X004860Y029675D02*
X004753Y029675D01*
X004540Y029462D01*
X004540Y029675D02*
X004540Y029248D01*
X004215Y029248D02*
X004002Y029248D01*
X003895Y029355D01*
X003895Y029569D01*
X004002Y029675D01*
X004215Y029675D01*
X004322Y029569D01*
X004322Y029462D01*
X003895Y029462D01*
X003572Y029675D02*
X003358Y029675D01*
X003465Y029782D02*
X003465Y029355D01*
X003572Y029248D01*
X003141Y029248D02*
X002820Y029248D01*
X002714Y029355D01*
X002820Y029462D01*
X003141Y029462D01*
X003141Y029569D02*
X003141Y029248D01*
X003141Y029569D02*
X003034Y029675D01*
X002820Y029675D01*
X002496Y029889D02*
X002496Y029248D01*
X002069Y029248D02*
X002069Y029889D01*
X002282Y029675D01*
X002496Y029889D01*
X003475Y028746D02*
X003475Y028639D01*
X003475Y028425D02*
X003475Y027998D01*
X003368Y027998D02*
X003582Y027998D01*
X003905Y028105D02*
X003905Y028319D01*
X004012Y028425D01*
X004332Y028425D01*
X004332Y027998D02*
X004012Y027998D01*
X003905Y028105D01*
X003475Y028425D02*
X003368Y028425D01*
X003151Y028319D02*
X003151Y027998D01*
X003151Y028319D02*
X003044Y028425D01*
X002830Y028425D01*
X002724Y028319D01*
X002724Y028639D02*
X002724Y027998D01*
X002292Y027998D02*
X002292Y028639D01*
X002079Y028639D02*
X002506Y028639D01*
X002399Y027379D02*
X002506Y027272D01*
X002399Y027379D02*
X002186Y027379D01*
X002079Y027272D01*
X002079Y026845D01*
X002186Y026738D01*
X002399Y026738D01*
X002506Y026845D01*
X002724Y026845D02*
X002830Y026738D01*
X003044Y026738D01*
X003151Y026845D01*
X003151Y027059D01*
X003044Y027165D01*
X002830Y027165D01*
X002724Y027059D01*
X002724Y026845D01*
X003368Y026738D02*
X003688Y026738D01*
X003795Y026845D01*
X003795Y027059D01*
X003688Y027165D01*
X003368Y027165D01*
X003368Y026525D01*
X004013Y026525D02*
X004013Y027165D01*
X004333Y027165D01*
X004440Y027059D01*
X004440Y026845D01*
X004333Y026738D01*
X004013Y026738D01*
X004657Y026845D02*
X004657Y027059D01*
X004764Y027165D01*
X004977Y027165D01*
X005084Y027059D01*
X005084Y026952D01*
X004657Y026952D01*
X004657Y026845D02*
X004764Y026738D01*
X004977Y026738D01*
X005302Y026738D02*
X005302Y027165D01*
X005302Y026952D02*
X005515Y027165D01*
X005622Y027165D01*
X005946Y027165D02*
X005946Y027059D01*
X006053Y027059D01*
X006053Y027165D01*
X005946Y027165D01*
X005946Y026845D02*
X005946Y026738D01*
X006053Y026738D01*
X006053Y026845D01*
X005946Y026845D01*
X005945Y027998D02*
X005839Y028105D01*
X005839Y028319D01*
X005945Y028425D01*
X006159Y028425D01*
X006266Y028319D01*
X006266Y028212D01*
X005839Y028212D01*
X005945Y027998D02*
X006159Y027998D01*
X006483Y027998D02*
X006803Y027998D01*
X006910Y028105D01*
X006803Y028212D01*
X006590Y028212D01*
X006483Y028319D01*
X006590Y028425D01*
X006910Y028425D01*
X007128Y028319D02*
X007234Y028425D01*
X007555Y028425D01*
X007772Y028425D02*
X007772Y028319D01*
X007879Y028319D01*
X007879Y028425D01*
X007772Y028425D01*
X007772Y028105D02*
X007772Y027998D01*
X007879Y027998D01*
X007879Y028105D01*
X007772Y028105D01*
X007555Y028105D02*
X007448Y028212D01*
X007234Y028212D01*
X007128Y028319D01*
X007128Y027998D02*
X007448Y027998D01*
X007555Y028105D01*
X007234Y027379D02*
X007234Y026738D01*
X007128Y026738D02*
X007341Y026738D01*
X008309Y026845D02*
X008416Y026738D01*
X008630Y026738D01*
X008736Y026845D01*
X008736Y027059D01*
X008630Y027165D01*
X008416Y027165D01*
X008309Y027059D01*
X008309Y026845D01*
X008954Y026738D02*
X009381Y026738D01*
X009381Y027165D02*
X008954Y027165D01*
X009381Y027165D02*
X008954Y026738D01*
X007234Y027379D02*
X007128Y027272D01*
X005621Y027998D02*
X005621Y028319D01*
X005514Y028425D01*
X005194Y028425D01*
X005194Y027998D01*
X004870Y027998D02*
X004550Y028212D01*
X004870Y028425D01*
X004550Y028639D02*
X004550Y027998D01*
X011425Y027998D02*
X011852Y028425D01*
X011852Y027998D02*
X011425Y027998D01*
M02*
