solid OpenSCAD_Model
  facet normal -0.994522 -0.104529 0
    outer loop
      vertex 8.255 6.35 0
      vertex 8.21337 6.74607 3.175
      vertex 8.21337 6.74607 0
    endloop
  endfacet
  facet normal -0.994522 -0.104529 0
    outer loop
      vertex 8.21337 6.74607 3.175
      vertex 8.255 6.35 0
      vertex 8.255 6.35 3.175
    endloop
  endfacet
  facet normal 0.994522 -0.104529 0
    outer loop
      vertex 4.445 6.35 3.175
      vertex 4.48663 6.74607 0
      vertex 4.48663 6.74607 3.175
    endloop
  endfacet
  facet normal 0.994522 -0.104529 0
    outer loop
      vertex 4.48663 6.74607 0
      vertex 4.445 6.35 3.175
      vertex 4.445 6.35 0
    endloop
  endfacet
  facet normal 0 -1 0
    outer loop
      vertex 6.15087 8.24456 0
      vertex 6.54913 8.24456 3.175
      vertex 6.15087 8.24456 3.175
    endloop
  endfacet
  facet normal 0 -1 -0
    outer loop
      vertex 6.54913 8.24456 3.175
      vertex 6.15087 8.24456 0
      vertex 6.54913 8.24456 0
    endloop
  endfacet
  facet normal 0 1 -0
    outer loop
      vertex 6.54913 4.45544 0
      vertex 6.15087 4.45544 3.175
      vertex 6.54913 4.45544 3.175
    endloop
  endfacet
  facet normal 0 1 0
    outer loop
      vertex 6.15087 4.45544 3.175
      vertex 6.54913 4.45544 0
      vertex 6.15087 4.45544 0
    endloop
  endfacet
  facet normal -0.587786 -0.809017 0
    outer loop
      vertex 7.3025 7.99978 0
      vertex 7.62469 7.76569 3.175
      vertex 7.3025 7.99978 3.175
    endloop
  endfacet
  facet normal -0.587786 -0.809017 -0
    outer loop
      vertex 7.62469 7.76569 3.175
      vertex 7.3025 7.99978 0
      vertex 7.62469 7.76569 0
    endloop
  endfacet
  facet normal 0.587786 -0.809017 0
    outer loop
      vertex 5.07531 7.76569 0
      vertex 5.3975 7.99978 3.175
      vertex 5.07531 7.76569 3.175
    endloop
  endfacet
  facet normal 0.587786 -0.809017 0
    outer loop
      vertex 5.3975 7.99978 3.175
      vertex 5.07531 7.76569 0
      vertex 5.3975 7.99978 0
    endloop
  endfacet
  facet normal 0.406736 -0.913546 0
    outer loop
      vertex 5.3975 7.99978 0
      vertex 5.76132 8.16176 3.175
      vertex 5.3975 7.99978 3.175
    endloop
  endfacet
  facet normal 0.406736 -0.913546 0
    outer loop
      vertex 5.76132 8.16176 3.175
      vertex 5.3975 7.99978 0
      vertex 5.76132 8.16176 0
    endloop
  endfacet
  facet normal -0.866024 0.500002 0
    outer loop
      vertex 7.89118 5.23027 0
      vertex 8.0903 5.57517 3.175
      vertex 8.0903 5.57517 0
    endloop
  endfacet
  facet normal -0.866024 0.500002 0
    outer loop
      vertex 8.0903 5.57517 3.175
      vertex 7.89118 5.23027 0
      vertex 7.89118 5.23027 3.175
    endloop
  endfacet
  facet normal -0.866024 -0.500002 0
    outer loop
      vertex 8.0903 7.12483 0
      vertex 7.89118 7.46973 3.175
      vertex 7.89118 7.46973 0
    endloop
  endfacet
  facet normal -0.866024 -0.500002 0
    outer loop
      vertex 7.89118 7.46973 3.175
      vertex 8.0903 7.12483 0
      vertex 8.0903 7.12483 3.175
    endloop
  endfacet
  facet normal -0.951057 -0.309017 0
    outer loop
      vertex 8.21337 6.74607 0
      vertex 8.0903 7.12483 3.175
      vertex 8.0903 7.12483 0
    endloop
  endfacet
  facet normal -0.951057 -0.309017 0
    outer loop
      vertex 8.0903 7.12483 3.175
      vertex 8.21337 6.74607 0
      vertex 8.21337 6.74607 3.175
    endloop
  endfacet
  facet normal -0.743146 -0.66913 0
    outer loop
      vertex 7.89118 7.46973 0
      vertex 7.62469 7.76569 3.175
      vertex 7.62469 7.76569 0
    endloop
  endfacet
  facet normal -0.743146 -0.66913 0
    outer loop
      vertex 7.62469 7.76569 3.175
      vertex 7.89118 7.46973 0
      vertex 7.89118 7.46973 3.175
    endloop
  endfacet
  facet normal -0.207913 -0.978147 0
    outer loop
      vertex 6.54913 8.24456 0
      vertex 6.93868 8.16176 3.175
      vertex 6.54913 8.24456 3.175
    endloop
  endfacet
  facet normal -0.207913 -0.978147 -0
    outer loop
      vertex 6.93868 8.16176 3.175
      vertex 6.54913 8.24456 0
      vertex 6.93868 8.16176 0
    endloop
  endfacet
  facet normal -0.406736 -0.913546 0
    outer loop
      vertex 6.93868 8.16176 0
      vertex 7.3025 7.99978 3.175
      vertex 6.93868 8.16176 3.175
    endloop
  endfacet
  facet normal -0.406736 -0.913546 -0
    outer loop
      vertex 7.3025 7.99978 3.175
      vertex 6.93868 8.16176 0
      vertex 7.3025 7.99978 0
    endloop
  endfacet
  facet normal 0.866025 -0.500001 0
    outer loop
      vertex 4.6097 7.12483 3.175
      vertex 4.80882 7.46973 0
      vertex 4.80882 7.46973 3.175
    endloop
  endfacet
  facet normal 0.866025 -0.500001 0
    outer loop
      vertex 4.80882 7.46973 0
      vertex 4.6097 7.12483 3.175
      vertex 4.6097 7.12483 0
    endloop
  endfacet
  facet normal 0.743146 -0.66913 0
    outer loop
      vertex 4.80882 7.46973 3.175
      vertex 5.07531 7.76569 0
      vertex 5.07531 7.76569 3.175
    endloop
  endfacet
  facet normal 0.743146 -0.66913 0
    outer loop
      vertex 5.07531 7.76569 0
      vertex 4.80882 7.46973 3.175
      vertex 4.80882 7.46973 0
    endloop
  endfacet
  facet normal 0.951057 -0.309017 0
    outer loop
      vertex 4.48663 6.74607 3.175
      vertex 4.6097 7.12483 0
      vertex 4.6097 7.12483 3.175
    endloop
  endfacet
  facet normal 0.951057 -0.309017 0
    outer loop
      vertex 4.6097 7.12483 0
      vertex 4.48663 6.74607 3.175
      vertex 4.48663 6.74607 0
    endloop
  endfacet
  facet normal 0 0 1
    outer loop
      vertex 8.255 6.35 3.175
      vertex 9.779 6.35 3.175
      vertex 9.70407 7.06293 3.175
    endloop
  endfacet
  facet normal 0 0 1
    outer loop
      vertex 8.21337 6.74607 3.175
      vertex 9.70407 7.06293 3.175
      vertex 9.48255 7.7447 3.175
    endloop
  endfacet
  facet normal 0 0 1
    outer loop
      vertex 9.779 6.35 3.175
      vertex 8.255 6.35 3.175
      vertex 9.70407 5.63707 3.175
    endloop
  endfacet
  facet normal 0 0 1
    outer loop
      vertex 8.0903 7.12483 3.175
      vertex 9.48255 7.7447 3.175
      vertex 9.12412 8.36552 3.175
    endloop
  endfacet
  facet normal -0 0 1
    outer loop
      vertex 8.21337 5.95393 3.175
      vertex 9.70407 5.63707 3.175
      vertex 8.255 6.35 3.175
    endloop
  endfacet
  facet normal 0 0 1
    outer loop
      vertex 7.89118 7.46973 3.175
      vertex 9.12412 8.36552 3.175
      vertex 8.64445 8.89824 3.175
    endloop
  endfacet
  facet normal 0 0 1
    outer loop
      vertex 9.70407 5.63707 3.175
      vertex 8.21337 5.95393 3.175
      vertex 9.48255 4.9553 3.175
    endloop
  endfacet
  facet normal -0 0 1
    outer loop
      vertex 8.0903 5.57517 3.175
      vertex 9.48255 4.9553 3.175
      vertex 8.21337 5.95393 3.175
    endloop
  endfacet
  facet normal 0 0 1
    outer loop
      vertex 9.70407 7.06293 3.175
      vertex 8.21337 6.74607 3.175
      vertex 8.255 6.35 3.175
    endloop
  endfacet
  facet normal 0 0 1
    outer loop
      vertex 9.48255 7.7447 3.175
      vertex 8.0903 7.12483 3.175
      vertex 8.21337 6.74607 3.175
    endloop
  endfacet
  facet normal 0 0 1
    outer loop
      vertex 7.62469 7.76569 3.175
      vertex 8.64445 8.89824 3.175
      vertex 8.0645 9.3196 3.175
    endloop
  endfacet
  facet normal 0 0 1
    outer loop
      vertex 9.12412 8.36552 3.175
      vertex 7.89118 7.46973 3.175
      vertex 8.0903 7.12483 3.175
    endloop
  endfacet
  facet normal 0 0 1
    outer loop
      vertex 8.64445 8.89824 3.175
      vertex 7.62469 7.76569 3.175
      vertex 7.89118 7.46973 3.175
    endloop
  endfacet
  facet normal 0 0 1
    outer loop
      vertex 7.3025 7.99978 3.175
      vertex 8.0645 9.3196 3.175
      vertex 7.40962 9.61117 3.175
    endloop
  endfacet
  facet normal 0 0 1
    outer loop
      vertex 8.0645 9.3196 3.175
      vertex 7.3025 7.99978 3.175
      vertex 7.62469 7.76569 3.175
    endloop
  endfacet
  facet normal 0 0 1
    outer loop
      vertex 7.40962 9.61117 3.175
      vertex 6.93868 8.16176 3.175
      vertex 7.3025 7.99978 3.175
    endloop
  endfacet
  facet normal 0 0 1
    outer loop
      vertex 6.70843 9.76022 3.175
      vertex 6.93868 8.16176 3.175
      vertex 7.40962 9.61117 3.175
    endloop
  endfacet
  facet normal 0 0 1
    outer loop
      vertex 6.70843 9.76022 3.175
      vertex 6.54913 8.24456 3.175
      vertex 6.93868 8.16176 3.175
    endloop
  endfacet
  facet normal 0 0 1
    outer loop
      vertex 6.70843 9.76022 3.175
      vertex 6.15087 8.24456 3.175
      vertex 6.54913 8.24456 3.175
    endloop
  endfacet
  facet normal -0 0 1
    outer loop
      vertex 5.99157 9.76022 3.175
      vertex 6.15087 8.24456 3.175
      vertex 6.70843 9.76022 3.175
    endloop
  endfacet
  facet normal 0 0 1
    outer loop
      vertex 5.99157 9.76022 3.175
      vertex 5.76132 8.16176 3.175
      vertex 6.15087 8.24456 3.175
    endloop
  endfacet
  facet normal -0 0 1
    outer loop
      vertex 5.29038 9.61117 3.175
      vertex 5.76132 8.16176 3.175
      vertex 5.99157 9.76022 3.175
    endloop
  endfacet
  facet normal 0 0 1
    outer loop
      vertex 5.76132 8.16176 3.175
      vertex 5.29038 9.61117 3.175
      vertex 5.3975 7.99978 3.175
    endloop
  endfacet
  facet normal -0 0 1
    outer loop
      vertex 4.6355 9.3196 3.175
      vertex 5.3975 7.99978 3.175
      vertex 5.29038 9.61117 3.175
    endloop
  endfacet
  facet normal 0 0 1
    outer loop
      vertex 5.3975 7.99978 3.175
      vertex 4.6355 9.3196 3.175
      vertex 5.07531 7.76569 3.175
    endloop
  endfacet
  facet normal -0 0 1
    outer loop
      vertex 4.05555 8.89824 3.175
      vertex 5.07531 7.76569 3.175
      vertex 4.6355 9.3196 3.175
    endloop
  endfacet
  facet normal 0 0 1
    outer loop
      vertex 5.07531 7.76569 3.175
      vertex 4.05555 8.89824 3.175
      vertex 4.80882 7.46973 3.175
    endloop
  endfacet
  facet normal -0 0 1
    outer loop
      vertex 3.57588 8.36552 3.175
      vertex 4.80882 7.46973 3.175
      vertex 4.05555 8.89824 3.175
    endloop
  endfacet
  facet normal 0 0 1
    outer loop
      vertex 4.80882 7.46973 3.175
      vertex 3.57588 8.36552 3.175
      vertex 4.6097 7.12483 3.175
    endloop
  endfacet
  facet normal -0 0 1
    outer loop
      vertex 3.21745 7.7447 3.175
      vertex 4.6097 7.12483 3.175
      vertex 3.57588 8.36552 3.175
    endloop
  endfacet
  facet normal 0 0 1
    outer loop
      vertex 9.48255 4.9553 3.175
      vertex 8.0903 5.57517 3.175
      vertex 9.12412 4.33448 3.175
    endloop
  endfacet
  facet normal -0 0 1
    outer loop
      vertex 7.89118 5.23027 3.175
      vertex 9.12412 4.33448 3.175
      vertex 8.0903 5.57517 3.175
    endloop
  endfacet
  facet normal 0 0 1
    outer loop
      vertex 9.12412 4.33448 3.175
      vertex 7.89118 5.23027 3.175
      vertex 8.64445 3.80176 3.175
    endloop
  endfacet
  facet normal -0 0 1
    outer loop
      vertex 7.62469 4.93431 3.175
      vertex 8.64445 3.80176 3.175
      vertex 7.89118 5.23027 3.175
    endloop
  endfacet
  facet normal 0 0 1
    outer loop
      vertex 8.64445 3.80176 3.175
      vertex 7.62469 4.93431 3.175
      vertex 8.0645 3.3804 3.175
    endloop
  endfacet
  facet normal -0 0 1
    outer loop
      vertex 7.3025 4.70022 3.175
      vertex 8.0645 3.3804 3.175
      vertex 7.62469 4.93431 3.175
    endloop
  endfacet
  facet normal 0 0 1
    outer loop
      vertex 8.0645 3.3804 3.175
      vertex 7.3025 4.70022 3.175
      vertex 7.40962 3.08883 3.175
    endloop
  endfacet
  facet normal -0 0 1
    outer loop
      vertex 6.93868 4.53824 3.175
      vertex 7.40962 3.08883 3.175
      vertex 7.3025 4.70022 3.175
    endloop
  endfacet
  facet normal 0 0 1
    outer loop
      vertex 6.93868 4.53824 3.175
      vertex 6.70843 2.93978 3.175
      vertex 7.40962 3.08883 3.175
    endloop
  endfacet
  facet normal -0 0 1
    outer loop
      vertex 6.54913 4.45544 3.175
      vertex 6.70843 2.93978 3.175
      vertex 6.93868 4.53824 3.175
    endloop
  endfacet
  facet normal -0 0 1
    outer loop
      vertex 6.15087 4.45544 3.175
      vertex 6.70843 2.93978 3.175
      vertex 6.54913 4.45544 3.175
    endloop
  endfacet
  facet normal 0 0 1
    outer loop
      vertex 6.15087 4.45544 3.175
      vertex 5.99157 2.93978 3.175
      vertex 6.70843 2.93978 3.175
    endloop
  endfacet
  facet normal 0 0 1
    outer loop
      vertex 5.76132 4.53824 3.175
      vertex 5.99157 2.93978 3.175
      vertex 6.15087 4.45544 3.175
    endloop
  endfacet
  facet normal 0 0 1
    outer loop
      vertex 5.29038 3.08883 3.175
      vertex 5.76132 4.53824 3.175
      vertex 5.3975 4.70022 3.175
    endloop
  endfacet
  facet normal 0 0 1
    outer loop
      vertex 5.76132 4.53824 3.175
      vertex 5.29038 3.08883 3.175
      vertex 5.99157 2.93978 3.175
    endloop
  endfacet
  facet normal 0 0 1
    outer loop
      vertex 4.6355 3.3804 3.175
      vertex 5.3975 4.70022 3.175
      vertex 5.07531 4.93431 3.175
    endloop
  endfacet
  facet normal 0 0 1
    outer loop
      vertex 4.05555 3.80176 3.175
      vertex 5.07531 4.93431 3.175
      vertex 4.80882 5.23027 3.175
    endloop
  endfacet
  facet normal 0 0 1
    outer loop
      vertex 5.3975 4.70022 3.175
      vertex 4.6355 3.3804 3.175
      vertex 5.29038 3.08883 3.175
    endloop
  endfacet
  facet normal 0 0 1
    outer loop
      vertex 3.57588 4.33448 3.175
      vertex 4.80882 5.23027 3.175
      vertex 4.6097 5.57517 3.175
    endloop
  endfacet
  facet normal 0 0 1
    outer loop
      vertex 3.21745 4.9553 3.175
      vertex 4.6097 5.57517 3.175
      vertex 4.48663 5.95393 3.175
    endloop
  endfacet
  facet normal 0 0 1
    outer loop
      vertex 2.99593 5.63707 3.175
      vertex 4.48663 5.95393 3.175
      vertex 4.445 6.35 3.175
    endloop
  endfacet
  facet normal 0 0 1
    outer loop
      vertex 4.6097 7.12483 3.175
      vertex 3.21745 7.7447 3.175
      vertex 4.48663 6.74607 3.175
    endloop
  endfacet
  facet normal 0 0 1
    outer loop
      vertex 5.07531 4.93431 3.175
      vertex 4.05555 3.80176 3.175
      vertex 4.6355 3.3804 3.175
    endloop
  endfacet
  facet normal -0 0 1
    outer loop
      vertex 2.99593 7.06293 3.175
      vertex 4.48663 6.74607 3.175
      vertex 3.21745 7.7447 3.175
    endloop
  endfacet
  facet normal 0 0 1
    outer loop
      vertex 4.80882 5.23027 3.175
      vertex 3.57588 4.33448 3.175
      vertex 4.05555 3.80176 3.175
    endloop
  endfacet
  facet normal 0 0 1
    outer loop
      vertex 4.48663 6.74607 3.175
      vertex 2.99593 7.06293 3.175
      vertex 4.445 6.35 3.175
    endloop
  endfacet
  facet normal 0 0 1
    outer loop
      vertex 4.6097 5.57517 3.175
      vertex 3.21745 4.9553 3.175
      vertex 3.57588 4.33448 3.175
    endloop
  endfacet
  facet normal 0 0 1
    outer loop
      vertex 2.921 6.35 3.175
      vertex 4.445 6.35 3.175
      vertex 2.99593 7.06293 3.175
    endloop
  endfacet
  facet normal 0 0 1
    outer loop
      vertex 4.48663 5.95393 3.175
      vertex 2.99593 5.63707 3.175
      vertex 3.21745 4.9553 3.175
    endloop
  endfacet
  facet normal 0 0 1
    outer loop
      vertex 4.445 6.35 3.175
      vertex 2.921 6.35 3.175
      vertex 2.99593 5.63707 3.175
    endloop
  endfacet
  facet normal 0.207913 -0.978147 0
    outer loop
      vertex 5.76132 8.16176 0
      vertex 6.15087 8.24456 3.175
      vertex 5.76132 8.16176 3.175
    endloop
  endfacet
  facet normal 0.207913 -0.978147 0
    outer loop
      vertex 6.15087 8.24456 3.175
      vertex 5.76132 8.16176 0
      vertex 6.15087 8.24456 0
    endloop
  endfacet
  facet normal 0 0 -1
    outer loop
      vertex 31.75 0 0
      vertex 27.305 6.35 0
      vertex 31.75 12.7 0
    endloop
  endfacet
  facet normal 0 0 -1
    outer loop
      vertex 31.75 0 0
      vertex 27.2634 5.95393 0
      vertex 27.305 6.35 0
    endloop
  endfacet
  facet normal 0 0 -1
    outer loop
      vertex 31.75 0 0
      vertex 27.1403 5.57517 0
      vertex 27.2634 5.95393 0
    endloop
  endfacet
  facet normal 0 0 -1
    outer loop
      vertex 31.75 0 0
      vertex 26.9412 5.23027 0
      vertex 27.1403 5.57517 0
    endloop
  endfacet
  facet normal 0 0 -1
    outer loop
      vertex 31.75 0 0
      vertex 26.6747 4.93431 0
      vertex 26.9412 5.23027 0
    endloop
  endfacet
  facet normal 0 0 -1
    outer loop
      vertex 31.75 0 0
      vertex 26.3525 4.70022 0
      vertex 26.6747 4.93431 0
    endloop
  endfacet
  facet normal 0 0 -1
    outer loop
      vertex 31.75 0 0
      vertex 25.9887 4.53824 0
      vertex 26.3525 4.70022 0
    endloop
  endfacet
  facet normal 0 0 -1
    outer loop
      vertex 31.75 0 0
      vertex 25.5991 4.45544 0
      vertex 25.9887 4.53824 0
    endloop
  endfacet
  facet normal 0 0 -1
    outer loop
      vertex 31.75 0 0
      vertex 25.2009 4.45544 0
      vertex 25.5991 4.45544 0
    endloop
  endfacet
  facet normal 0 0 -1
    outer loop
      vertex 31.75 0 0
      vertex 24.8113 4.53824 0
      vertex 25.2009 4.45544 0
    endloop
  endfacet
  facet normal 0 0 -1
    outer loop
      vertex 6.93868 4.53824 0
      vertex 24.8113 4.53824 0
      vertex 31.75 0 0
    endloop
  endfacet
  facet normal 0 0 -1
    outer loop
      vertex 23.5366 5.95393 0
      vertex 8.255 6.35 0
      vertex 23.495 6.35 0
    endloop
  endfacet
  facet normal 0 0 -1
    outer loop
      vertex 8.21337 5.95393 0
      vertex 23.5366 5.95393 0
      vertex 23.6597 5.57517 0
    endloop
  endfacet
  facet normal 0 0 -1
    outer loop
      vertex 8.0903 5.57517 0
      vertex 23.6597 5.57517 0
      vertex 23.8588 5.23027 0
    endloop
  endfacet
  facet normal 0 0 -1
    outer loop
      vertex 7.89118 5.23027 0
      vertex 23.8588 5.23027 0
      vertex 24.1253 4.93431 0
    endloop
  endfacet
  facet normal 0 0 -1
    outer loop
      vertex 7.62469 4.93431 0
      vertex 24.1253 4.93431 0
      vertex 24.4475 4.70022 0
    endloop
  endfacet
  facet normal 0 0 -1
    outer loop
      vertex 24.8113 4.53824 0
      vertex 6.93868 4.53824 0
      vertex 24.4475 4.70022 0
    endloop
  endfacet
  facet normal 0 0 -1
    outer loop
      vertex 23.5366 5.95393 0
      vertex 8.21337 5.95393 0
      vertex 8.255 6.35 0
    endloop
  endfacet
  facet normal 0 0 -1
    outer loop
      vertex 23.6597 5.57517 0
      vertex 8.0903 5.57517 0
      vertex 8.21337 5.95393 0
    endloop
  endfacet
  facet normal 0 0 -1
    outer loop
      vertex 23.8588 5.23027 0
      vertex 7.89118 5.23027 0
      vertex 8.0903 5.57517 0
    endloop
  endfacet
  facet normal 0 0 -1
    outer loop
      vertex 24.1253 4.93431 0
      vertex 7.62469 4.93431 0
      vertex 7.89118 5.23027 0
    endloop
  endfacet
  facet normal 0 0 -1
    outer loop
      vertex 24.4475 4.70022 0
      vertex 7.3025 4.70022 0
      vertex 7.62469 4.93431 0
    endloop
  endfacet
  facet normal -0 0 -1
    outer loop
      vertex 24.4475 4.70022 0
      vertex 6.93868 4.53824 0
      vertex 7.3025 4.70022 0
    endloop
  endfacet
  facet normal 0 0 -1
    outer loop
      vertex 0 0 0
      vertex 6.93868 4.53824 0
      vertex 31.75 0 0
    endloop
  endfacet
  facet normal 0 0 -1
    outer loop
      vertex 6.93868 4.53824 0
      vertex 0 0 0
      vertex 6.54913 4.45544 0
    endloop
  endfacet
  facet normal -0 0 -1
    outer loop
      vertex 4.48663 5.95393 0
      vertex 0 0 0
      vertex 4.445 6.35 0
    endloop
  endfacet
  facet normal -0 0 -1
    outer loop
      vertex 4.6097 5.57517 0
      vertex 0 0 0
      vertex 4.48663 5.95393 0
    endloop
  endfacet
  facet normal -0 0 -1
    outer loop
      vertex 4.80882 5.23027 0
      vertex 0 0 0
      vertex 4.6097 5.57517 0
    endloop
  endfacet
  facet normal -0 0 -1
    outer loop
      vertex 5.07531 4.93431 0
      vertex 0 0 0
      vertex 4.80882 5.23027 0
    endloop
  endfacet
  facet normal -0 0 -1
    outer loop
      vertex 5.3975 4.70022 0
      vertex 0 0 0
      vertex 5.07531 4.93431 0
    endloop
  endfacet
  facet normal -0 0 -1
    outer loop
      vertex 5.76132 4.53824 0
      vertex 0 0 0
      vertex 5.3975 4.70022 0
    endloop
  endfacet
  facet normal -0 0 -1
    outer loop
      vertex 6.15087 4.45544 0
      vertex 0 0 0
      vertex 5.76132 4.53824 0
    endloop
  endfacet
  facet normal -0 0 -1
    outer loop
      vertex 6.54913 4.45544 0
      vertex 0 0 0
      vertex 6.15087 4.45544 0
    endloop
  endfacet
  facet normal 0 0 -1
    outer loop
      vertex 27.2634 6.74607 0
      vertex 31.75 12.7 0
      vertex 27.305 6.35 0
    endloop
  endfacet
  facet normal 0 0 -1
    outer loop
      vertex 27.1403 7.12483 0
      vertex 31.75 12.7 0
      vertex 27.2634 6.74607 0
    endloop
  endfacet
  facet normal 0 0 -1
    outer loop
      vertex 26.9412 7.46973 0
      vertex 31.75 12.7 0
      vertex 27.1403 7.12483 0
    endloop
  endfacet
  facet normal 0 0 -1
    outer loop
      vertex 26.6747 7.76569 0
      vertex 31.75 12.7 0
      vertex 26.9412 7.46973 0
    endloop
  endfacet
  facet normal 0 0 -1
    outer loop
      vertex 26.3525 7.99978 0
      vertex 31.75 12.7 0
      vertex 26.6747 7.76569 0
    endloop
  endfacet
  facet normal 0 0 -1
    outer loop
      vertex 25.9887 8.16176 0
      vertex 31.75 12.7 0
      vertex 26.3525 7.99978 0
    endloop
  endfacet
  facet normal 0 0 -1
    outer loop
      vertex 25.5991 8.24456 0
      vertex 31.75 12.7 0
      vertex 25.9887 8.16176 0
    endloop
  endfacet
  facet normal 0 0 -1
    outer loop
      vertex 25.2009 8.24456 0
      vertex 31.75 12.7 0
      vertex 25.5991 8.24456 0
    endloop
  endfacet
  facet normal 0 0 -1
    outer loop
      vertex 24.8113 8.16176 0
      vertex 31.75 12.7 0
      vertex 25.2009 8.24456 0
    endloop
  endfacet
  facet normal 0 0 -1
    outer loop
      vertex 6.93868 8.16176 0
      vertex 24.8113 8.16176 0
      vertex 24.4475 7.99978 0
    endloop
  endfacet
  facet normal 0 0 -1
    outer loop
      vertex 8.255 6.35 0
      vertex 23.5366 6.74607 0
      vertex 23.495 6.35 0
    endloop
  endfacet
  facet normal 0 0 -1
    outer loop
      vertex 8.21337 6.74607 0
      vertex 23.5366 6.74607 0
      vertex 8.255 6.35 0
    endloop
  endfacet
  facet normal 0 0 -1
    outer loop
      vertex 23.5366 6.74607 0
      vertex 8.21337 6.74607 0
      vertex 23.6597 7.12483 0
    endloop
  endfacet
  facet normal 0 0 -1
    outer loop
      vertex 8.0903 7.12483 0
      vertex 23.6597 7.12483 0
      vertex 8.21337 6.74607 0
    endloop
  endfacet
  facet normal 0 0 -1
    outer loop
      vertex 23.6597 7.12483 0
      vertex 8.0903 7.12483 0
      vertex 23.8588 7.46973 0
    endloop
  endfacet
  facet normal 0 0 -1
    outer loop
      vertex 7.89118 7.46973 0
      vertex 23.8588 7.46973 0
      vertex 8.0903 7.12483 0
    endloop
  endfacet
  facet normal 0 0 -1
    outer loop
      vertex 23.8588 7.46973 0
      vertex 7.89118 7.46973 0
      vertex 24.1253 7.76569 0
    endloop
  endfacet
  facet normal 0 0 -1
    outer loop
      vertex 7.62469 7.76569 0
      vertex 24.1253 7.76569 0
      vertex 7.89118 7.46973 0
    endloop
  endfacet
  facet normal 0 0 -1
    outer loop
      vertex 24.1253 7.76569 0
      vertex 7.62469 7.76569 0
      vertex 24.4475 7.99978 0
    endloop
  endfacet
  facet normal 0 0 -1
    outer loop
      vertex 7.3025 7.99978 0
      vertex 24.4475 7.99978 0
      vertex 7.62469 7.76569 0
    endloop
  endfacet
  facet normal 0 0 -1
    outer loop
      vertex 6.93868 8.16176 0
      vertex 24.4475 7.99978 0
      vertex 7.3025 7.99978 0
    endloop
  endfacet
  facet normal 0 0 -1
    outer loop
      vertex 24.8113 8.16176 0
      vertex 6.93868 8.16176 0
      vertex 31.75 12.7 0
    endloop
  endfacet
  facet normal 0 0 -1
    outer loop
      vertex 0 12.7 0
      vertex 6.93868 8.16176 0
      vertex 6.54913 8.24456 0
    endloop
  endfacet
  facet normal 0 0 -1
    outer loop
      vertex 0 12.7 0
      vertex 6.54913 8.24456 0
      vertex 6.15087 8.24456 0
    endloop
  endfacet
  facet normal 0 0 -1
    outer loop
      vertex 0 12.7 0
      vertex 4.445 6.35 0
      vertex 0 0 0
    endloop
  endfacet
  facet normal 0 0 -1
    outer loop
      vertex 4.445 6.35 0
      vertex 0 12.7 0
      vertex 4.48663 6.74607 0
    endloop
  endfacet
  facet normal 0 0 -1
    outer loop
      vertex 4.48663 6.74607 0
      vertex 0 12.7 0
      vertex 4.6097 7.12483 0
    endloop
  endfacet
  facet normal 0 0 -1
    outer loop
      vertex 6.93868 8.16176 0
      vertex 0 12.7 0
      vertex 31.75 12.7 0
    endloop
  endfacet
  facet normal 0 0 -1
    outer loop
      vertex 5.76132 8.16176 0
      vertex 0 12.7 0
      vertex 6.15087 8.24456 0
    endloop
  endfacet
  facet normal 0 0 -1
    outer loop
      vertex 5.3975 7.99978 0
      vertex 0 12.7 0
      vertex 5.76132 8.16176 0
    endloop
  endfacet
  facet normal 0 0 -1
    outer loop
      vertex 5.07531 7.76569 0
      vertex 0 12.7 0
      vertex 5.3975 7.99978 0
    endloop
  endfacet
  facet normal 0 0 -1
    outer loop
      vertex 4.80882 7.46973 0
      vertex 0 12.7 0
      vertex 5.07531 7.76569 0
    endloop
  endfacet
  facet normal 0 0 -1
    outer loop
      vertex 4.6097 7.12483 0
      vertex 0 12.7 0
      vertex 4.80882 7.46973 0
    endloop
  endfacet
  facet normal -0.587786 0.809017 0
    outer loop
      vertex 7.62469 4.93431 0
      vertex 7.3025 4.70022 3.175
      vertex 7.62469 4.93431 3.175
    endloop
  endfacet
  facet normal -0.587786 0.809017 0
    outer loop
      vertex 7.3025 4.70022 3.175
      vertex 7.62469 4.93431 0
      vertex 7.3025 4.70022 0
    endloop
  endfacet
  facet normal -0.743146 0.66913 0
    outer loop
      vertex 7.62469 4.93431 0
      vertex 7.89118 5.23027 3.175
      vertex 7.89118 5.23027 0
    endloop
  endfacet
  facet normal -0.743146 0.66913 0
    outer loop
      vertex 7.89118 5.23027 3.175
      vertex 7.62469 4.93431 0
      vertex 7.62469 4.93431 3.175
    endloop
  endfacet
  facet normal -0.951057 0.309017 0
    outer loop
      vertex 8.0903 5.57517 0
      vertex 8.21337 5.95393 3.175
      vertex 8.21337 5.95393 0
    endloop
  endfacet
  facet normal -0.951057 0.309017 0
    outer loop
      vertex 8.21337 5.95393 3.175
      vertex 8.0903 5.57517 0
      vertex 8.0903 5.57517 3.175
    endloop
  endfacet
  facet normal -0.994522 0.104529 0
    outer loop
      vertex 8.21337 5.95393 0
      vertex 8.255 6.35 3.175
      vertex 8.255 6.35 0
    endloop
  endfacet
  facet normal -0.994522 0.104529 0
    outer loop
      vertex 8.255 6.35 3.175
      vertex 8.21337 5.95393 0
      vertex 8.21337 5.95393 3.175
    endloop
  endfacet
  facet normal 0.866025 0.500001 0
    outer loop
      vertex 4.80882 5.23027 3.175
      vertex 4.6097 5.57517 0
      vertex 4.6097 5.57517 3.175
    endloop
  endfacet
  facet normal 0.866025 0.500001 0
    outer loop
      vertex 4.6097 5.57517 0
      vertex 4.80882 5.23027 3.175
      vertex 4.80882 5.23027 0
    endloop
  endfacet
  facet normal 0.743146 0.66913 0
    outer loop
      vertex 5.07531 4.93431 3.175
      vertex 4.80882 5.23027 0
      vertex 4.80882 5.23027 3.175
    endloop
  endfacet
  facet normal 0.743146 0.66913 0
    outer loop
      vertex 4.80882 5.23027 0
      vertex 5.07531 4.93431 3.175
      vertex 5.07531 4.93431 0
    endloop
  endfacet
  facet normal 0.994522 0.104529 0
    outer loop
      vertex 4.48663 5.95393 3.175
      vertex 4.445 6.35 0
      vertex 4.445 6.35 3.175
    endloop
  endfacet
  facet normal 0.994522 0.104529 0
    outer loop
      vertex 4.445 6.35 0
      vertex 4.48663 5.95393 3.175
      vertex 4.48663 5.95393 0
    endloop
  endfacet
  facet normal -0.207913 0.978147 0
    outer loop
      vertex 6.93868 4.53824 0
      vertex 6.54913 4.45544 3.175
      vertex 6.93868 4.53824 3.175
    endloop
  endfacet
  facet normal -0.207913 0.978147 0
    outer loop
      vertex 6.54913 4.45544 3.175
      vertex 6.93868 4.53824 0
      vertex 6.54913 4.45544 0
    endloop
  endfacet
  facet normal 0.951057 0.309017 0
    outer loop
      vertex 4.6097 5.57517 3.175
      vertex 4.48663 5.95393 0
      vertex 4.48663 5.95393 3.175
    endloop
  endfacet
  facet normal 0.951057 0.309017 0
    outer loop
      vertex 4.48663 5.95393 0
      vertex 4.6097 5.57517 3.175
      vertex 4.6097 5.57517 0
    endloop
  endfacet
  facet normal -0.406735 0.913546 0
    outer loop
      vertex 7.3025 4.70022 0
      vertex 6.93868 4.53824 3.175
      vertex 7.3025 4.70022 3.175
    endloop
  endfacet
  facet normal -0.406735 0.913546 0
    outer loop
      vertex 6.93868 4.53824 3.175
      vertex 7.3025 4.70022 0
      vertex 6.93868 4.53824 0
    endloop
  endfacet
  facet normal 0.406735 0.913546 -0
    outer loop
      vertex 5.76132 4.53824 0
      vertex 5.3975 4.70022 3.175
      vertex 5.76132 4.53824 3.175
    endloop
  endfacet
  facet normal 0.406735 0.913546 0
    outer loop
      vertex 5.3975 4.70022 3.175
      vertex 5.76132 4.53824 0
      vertex 5.3975 4.70022 0
    endloop
  endfacet
  facet normal 0.587786 0.809017 -0
    outer loop
      vertex 5.3975 4.70022 0
      vertex 5.07531 4.93431 3.175
      vertex 5.3975 4.70022 3.175
    endloop
  endfacet
  facet normal 0.587786 0.809017 0
    outer loop
      vertex 5.07531 4.93431 3.175
      vertex 5.3975 4.70022 0
      vertex 5.07531 4.93431 0
    endloop
  endfacet
  facet normal 0.207913 0.978147 -0
    outer loop
      vertex 6.15087 4.45544 0
      vertex 5.76132 4.53824 3.175
      vertex 6.15087 4.45544 3.175
    endloop
  endfacet
  facet normal 0.207913 0.978147 0
    outer loop
      vertex 5.76132 4.53824 3.175
      vertex 6.15087 4.45544 0
      vertex 5.76132 4.53824 0
    endloop
  endfacet
  facet normal -0.866026 -0.499999 0
    outer loop
      vertex 9.48255 7.7447 3.175
      vertex 9.12412 8.36552 6.35
      vertex 9.12412 8.36552 3.175
    endloop
  endfacet
  facet normal -0.866026 -0.499999 0
    outer loop
      vertex 9.12412 8.36552 6.35
      vertex 9.48255 7.7447 3.175
      vertex 9.48255 7.7447 6.35
    endloop
  endfacet
  facet normal 0.951056 -0.309018 0
    outer loop
      vertex 2.99593 7.06293 6.35
      vertex 3.21745 7.7447 3.175
      vertex 3.21745 7.7447 6.35
    endloop
  endfacet
  facet normal 0.951056 -0.309018 0
    outer loop
      vertex 3.21745 7.7447 3.175
      vertex 2.99593 7.06293 6.35
      vertex 2.99593 7.06293 3.175
    endloop
  endfacet
  facet normal -0.743145 -0.669131 0
    outer loop
      vertex 9.12412 8.36552 3.175
      vertex 8.64445 8.89824 6.35
      vertex 8.64445 8.89824 3.175
    endloop
  endfacet
  facet normal -0.743145 -0.669131 0
    outer loop
      vertex 8.64445 8.89824 6.35
      vertex 9.12412 8.36552 3.175
      vertex 9.12412 8.36552 6.35
    endloop
  endfacet
  facet normal -0.207912 -0.978148 0
    outer loop
      vertex 6.70843 9.76022 3.175
      vertex 7.40962 9.61117 6.35
      vertex 6.70843 9.76022 6.35
    endloop
  endfacet
  facet normal -0.207912 -0.978148 -0
    outer loop
      vertex 7.40962 9.61117 6.35
      vertex 6.70843 9.76022 3.175
      vertex 7.40962 9.61117 3.175
    endloop
  endfacet
  facet normal -0.406736 -0.913546 0
    outer loop
      vertex 7.40962 9.61117 3.175
      vertex 8.0645 9.3196 6.35
      vertex 7.40962 9.61117 6.35
    endloop
  endfacet
  facet normal -0.406736 -0.913546 -0
    outer loop
      vertex 8.0645 9.3196 6.35
      vertex 7.40962 9.61117 3.175
      vertex 8.0645 9.3196 3.175
    endloop
  endfacet
  facet normal 0.406737 -0.913545 0
    outer loop
      vertex 4.6355 9.3196 3.175
      vertex 5.29038 9.61117 6.35
      vertex 4.6355 9.3196 6.35
    endloop
  endfacet
  facet normal 0.406737 -0.913545 0
    outer loop
      vertex 5.29038 9.61117 6.35
      vertex 4.6355 9.3196 3.175
      vertex 5.29038 9.61117 3.175
    endloop
  endfacet
  facet normal 0.866026 -0.499999 0
    outer loop
      vertex 3.21745 7.7447 6.35
      vertex 3.57588 8.36552 3.175
      vertex 3.57588 8.36552 6.35
    endloop
  endfacet
  facet normal 0.866026 -0.499999 0
    outer loop
      vertex 3.57588 8.36552 3.175
      vertex 3.21745 7.7447 6.35
      vertex 3.21745 7.7447 3.175
    endloop
  endfacet
  facet normal 0.587785 -0.809017 0
    outer loop
      vertex 4.05555 8.89824 3.175
      vertex 4.6355 9.3196 6.35
      vertex 4.05555 8.89824 6.35
    endloop
  endfacet
  facet normal 0.587785 -0.809017 0
    outer loop
      vertex 4.6355 9.3196 6.35
      vertex 4.05555 8.89824 3.175
      vertex 4.6355 9.3196 3.175
    endloop
  endfacet
  facet normal -0.994522 0.104529 0
    outer loop
      vertex 9.70407 5.63707 3.175
      vertex 9.779 6.35 6.35
      vertex 9.779 6.35 3.175
    endloop
  endfacet
  facet normal -0.994522 0.104529 0
    outer loop
      vertex 9.779 6.35 6.35
      vertex 9.70407 5.63707 3.175
      vertex 9.70407 5.63707 6.35
    endloop
  endfacet
  facet normal -0.207912 0.978148 0
    outer loop
      vertex 7.40962 3.08883 3.175
      vertex 6.70843 2.93978 6.35
      vertex 7.40962 3.08883 6.35
    endloop
  endfacet
  facet normal -0.207912 0.978148 0
    outer loop
      vertex 6.70843 2.93978 6.35
      vertex 7.40962 3.08883 3.175
      vertex 6.70843 2.93978 3.175
    endloop
  endfacet
  facet normal -0.951056 -0.309018 0
    outer loop
      vertex 9.70407 7.06293 3.175
      vertex 9.48255 7.7447 6.35
      vertex 9.48255 7.7447 3.175
    endloop
  endfacet
  facet normal -0.951056 -0.309018 0
    outer loop
      vertex 9.48255 7.7447 6.35
      vertex 9.70407 7.06293 3.175
      vertex 9.70407 7.06293 6.35
    endloop
  endfacet
  facet normal 0 -1 0
    outer loop
      vertex 5.99157 9.76022 3.175
      vertex 6.70843 9.76022 6.35
      vertex 5.99157 9.76022 6.35
    endloop
  endfacet
  facet normal 0 -1 -0
    outer loop
      vertex 6.70843 9.76022 6.35
      vertex 5.99157 9.76022 3.175
      vertex 6.70843 9.76022 3.175
    endloop
  endfacet
  facet normal -0.587785 -0.809017 0
    outer loop
      vertex 8.0645 9.3196 3.175
      vertex 8.64445 8.89824 6.35
      vertex 8.0645 9.3196 6.35
    endloop
  endfacet
  facet normal -0.587785 -0.809017 -0
    outer loop
      vertex 8.64445 8.89824 6.35
      vertex 8.0645 9.3196 3.175
      vertex 8.64445 8.89824 3.175
    endloop
  endfacet
  facet normal 0.994522 -0.104529 0
    outer loop
      vertex 2.921 6.35 6.35
      vertex 2.99593 7.06293 3.175
      vertex 2.99593 7.06293 6.35
    endloop
  endfacet
  facet normal 0.994522 -0.104529 0
    outer loop
      vertex 2.99593 7.06293 3.175
      vertex 2.921 6.35 6.35
      vertex 2.921 6.35 3.175
    endloop
  endfacet
  facet normal 0.743145 -0.669131 0
    outer loop
      vertex 3.57588 8.36552 6.35
      vertex 4.05555 8.89824 3.175
      vertex 4.05555 8.89824 6.35
    endloop
  endfacet
  facet normal 0.743145 -0.669131 0
    outer loop
      vertex 4.05555 8.89824 3.175
      vertex 3.57588 8.36552 6.35
      vertex 3.57588 8.36552 3.175
    endloop
  endfacet
  facet normal 0.207912 -0.978148 0
    outer loop
      vertex 5.29038 9.61117 3.175
      vertex 5.99157 9.76022 6.35
      vertex 5.29038 9.61117 6.35
    endloop
  endfacet
  facet normal 0.207912 -0.978148 0
    outer loop
      vertex 5.99157 9.76022 6.35
      vertex 5.29038 9.61117 3.175
      vertex 5.99157 9.76022 3.175
    endloop
  endfacet
  facet normal -0.994522 -0.104529 0
    outer loop
      vertex 9.779 6.35 3.175
      vertex 9.70407 7.06293 6.35
      vertex 9.70407 7.06293 3.175
    endloop
  endfacet
  facet normal -0.994522 -0.104529 0
    outer loop
      vertex 9.70407 7.06293 6.35
      vertex 9.779 6.35 3.175
      vertex 9.779 6.35 6.35
    endloop
  endfacet
  facet normal -0.951056 0.309018 0
    outer loop
      vertex 9.48255 4.9553 3.175
      vertex 9.70407 5.63707 6.35
      vertex 9.70407 5.63707 3.175
    endloop
  endfacet
  facet normal -0.951056 0.309018 0
    outer loop
      vertex 9.70407 5.63707 6.35
      vertex 9.48255 4.9553 3.175
      vertex 9.48255 4.9553 6.35
    endloop
  endfacet
  facet normal 0.587785 0.809017 -0
    outer loop
      vertex 4.6355 3.3804 3.175
      vertex 4.05555 3.80176 6.35
      vertex 4.6355 3.3804 6.35
    endloop
  endfacet
  facet normal 0.587785 0.809017 0
    outer loop
      vertex 4.05555 3.80176 6.35
      vertex 4.6355 3.3804 3.175
      vertex 4.05555 3.80176 3.175
    endloop
  endfacet
  facet normal 0.866026 0.5 0
    outer loop
      vertex 3.57588 4.33448 6.35
      vertex 3.21745 4.9553 3.175
      vertex 3.21745 4.9553 6.35
    endloop
  endfacet
  facet normal 0.866026 0.5 0
    outer loop
      vertex 3.21745 4.9553 3.175
      vertex 3.57588 4.33448 6.35
      vertex 3.57588 4.33448 3.175
    endloop
  endfacet
  facet normal -0.587785 0.809017 0
    outer loop
      vertex 8.64445 3.80176 3.175
      vertex 8.0645 3.3804 6.35
      vertex 8.64445 3.80176 6.35
    endloop
  endfacet
  facet normal -0.587785 0.809017 0
    outer loop
      vertex 8.0645 3.3804 6.35
      vertex 8.64445 3.80176 3.175
      vertex 8.0645 3.3804 3.175
    endloop
  endfacet
  facet normal 0 0 1
    outer loop
      vertex 1.5553e-15 12.7 6.35
      vertex 1.22464e-16 0.999998 6.35
      vertex 1.5553e-15 0.999998 6.35
    endloop
  endfacet
  facet normal 0 0 1
    outer loop
      vertex 1.22464e-16 0.999998 6.35
      vertex 0 12.7 6.35
      vertex 8.58169e-39 3.88825e-15 6.35
    endloop
  endfacet
  facet normal -0 0 1
    outer loop
      vertex 0 12.7 6.35
      vertex 1.22464e-16 0.999998 6.35
      vertex 1.5553e-15 12.7 6.35
    endloop
  endfacet
  facet normal 0 0 1
    outer loop
      vertex 8.58169e-39 3.88825e-15 6.35
      vertex 31.75 0 6.35
      vertex 31.75 7.00749e-23 6.35
    endloop
  endfacet
  facet normal 0 0 1
    outer loop
      vertex 8.58169e-39 3.88825e-15 6.35
      vertex 0 0 6.35
      vertex 31.75 0 6.35
    endloop
  endfacet
  facet normal 0 0 1
    outer loop
      vertex 0 0 6.35
      vertex 8.58169e-39 3.88825e-15 6.35
      vertex 0 12.7 6.35
    endloop
  endfacet
  facet normal 0 0 1
    outer loop
      vertex 30.75 11.7 6.35
      vertex 28.7541 7.06293 6.35
      vertex 28.829 6.35 6.35
    endloop
  endfacet
  facet normal 0 0 1
    outer loop
      vertex 30.75 11.7 6.35
      vertex 28.5325 7.7447 6.35
      vertex 28.7541 7.06293 6.35
    endloop
  endfacet
  facet normal 0 0 1
    outer loop
      vertex 30.75 11.7 6.35
      vertex 28.1741 8.36552 6.35
      vertex 28.5325 7.7447 6.35
    endloop
  endfacet
  facet normal 0 0 1
    outer loop
      vertex 30.75 11.7 6.35
      vertex 27.6944 8.89824 6.35
      vertex 28.1741 8.36552 6.35
    endloop
  endfacet
  facet normal 0 0 1
    outer loop
      vertex 30.75 11.7 6.35
      vertex 27.1145 9.3196 6.35
      vertex 27.6944 8.89824 6.35
    endloop
  endfacet
  facet normal 0 0 1
    outer loop
      vertex 30.75 11.7 6.35
      vertex 26.4596 9.61117 6.35
      vertex 27.1145 9.3196 6.35
    endloop
  endfacet
  facet normal 0 0 1
    outer loop
      vertex 30.75 11.7 6.35
      vertex 25.7584 9.76022 6.35
      vertex 26.4596 9.61117 6.35
    endloop
  endfacet
  facet normal 0 0 1
    outer loop
      vertex 30.75 11.7 6.35
      vertex 25.0416 9.76022 6.35
      vertex 25.7584 9.76022 6.35
    endloop
  endfacet
  facet normal 0 0 1
    outer loop
      vertex 30.75 11.7 6.35
      vertex 24.3404 9.61117 6.35
      vertex 25.0416 9.76022 6.35
    endloop
  endfacet
  facet normal 0 0 1
    outer loop
      vertex 22.0459 7.06293 6.35
      vertex 9.779 6.35 6.35
      vertex 21.971 6.35 6.35
    endloop
  endfacet
  facet normal 0 0 1
    outer loop
      vertex 9.70407 7.06293 6.35
      vertex 22.0459 7.06293 6.35
      vertex 22.2675 7.7447 6.35
    endloop
  endfacet
  facet normal 0 0 1
    outer loop
      vertex 9.48255 7.7447 6.35
      vertex 22.2675 7.7447 6.35
      vertex 22.6259 8.36552 6.35
    endloop
  endfacet
  facet normal 0 0 1
    outer loop
      vertex 9.12412 8.36552 6.35
      vertex 22.6259 8.36552 6.35
      vertex 23.1056 8.89824 6.35
    endloop
  endfacet
  facet normal 0 0 1
    outer loop
      vertex 8.64445 8.89824 6.35
      vertex 23.1056 8.89824 6.35
      vertex 23.6855 9.3196 6.35
    endloop
  endfacet
  facet normal 0 0 1
    outer loop
      vertex 8.0645 9.3196 6.35
      vertex 23.6855 9.3196 6.35
      vertex 24.3404 9.61117 6.35
    endloop
  endfacet
  facet normal 0 0 1
    outer loop
      vertex 7.40962 9.61117 6.35
      vertex 24.3404 9.61117 6.35
      vertex 30.75 11.7 6.35
    endloop
  endfacet
  facet normal 0 0 1
    outer loop
      vertex 22.0459 7.06293 6.35
      vertex 9.70407 7.06293 6.35
      vertex 9.779 6.35 6.35
    endloop
  endfacet
  facet normal 0 0 1
    outer loop
      vertex 22.2675 7.7447 6.35
      vertex 9.48255 7.7447 6.35
      vertex 9.70407 7.06293 6.35
    endloop
  endfacet
  facet normal 0 0 1
    outer loop
      vertex 22.6259 8.36552 6.35
      vertex 9.12412 8.36552 6.35
      vertex 9.48255 7.7447 6.35
    endloop
  endfacet
  facet normal 0 0 1
    outer loop
      vertex 23.1056 8.89824 6.35
      vertex 8.64445 8.89824 6.35
      vertex 9.12412 8.36552 6.35
    endloop
  endfacet
  facet normal 0 0 1
    outer loop
      vertex 23.6855 9.3196 6.35
      vertex 8.0645 9.3196 6.35
      vertex 8.64445 8.89824 6.35
    endloop
  endfacet
  facet normal 0 0 1
    outer loop
      vertex 24.3404 9.61117 6.35
      vertex 7.40962 9.61117 6.35
      vertex 8.0645 9.3196 6.35
    endloop
  endfacet
  facet normal -0 0 1
    outer loop
      vertex 0.999999 11.7 6.35
      vertex 7.40962 9.61117 6.35
      vertex 30.75 11.7 6.35
    endloop
  endfacet
  facet normal 0 0 1
    outer loop
      vertex 7.40962 9.61117 6.35
      vertex 0.999999 11.7 6.35
      vertex 6.70843 9.76022 6.35
    endloop
  endfacet
  facet normal 0 0 1
    outer loop
      vertex 0.999999 11.7 6.35
      vertex 2.921 6.35 6.35
      vertex 2.99593 7.06293 6.35
    endloop
  endfacet
  facet normal 0 0 1
    outer loop
      vertex 0.999999 11.7 6.35
      vertex 2.99593 7.06293 6.35
      vertex 3.21745 7.7447 6.35
    endloop
  endfacet
  facet normal 0 0 1
    outer loop
      vertex 2.921 6.35 6.35
      vertex 0.999999 11.7 6.35
      vertex 0.999999 0.999999 6.35
    endloop
  endfacet
  facet normal 0 0 1
    outer loop
      vertex 3.57588 8.36552 6.35
      vertex 0.999999 11.7 6.35
      vertex 3.21745 7.7447 6.35
    endloop
  endfacet
  facet normal 0 0 1
    outer loop
      vertex 4.05555 8.89824 6.35
      vertex 0.999999 11.7 6.35
      vertex 3.57588 8.36552 6.35
    endloop
  endfacet
  facet normal 0 0 1
    outer loop
      vertex 4.6355 9.3196 6.35
      vertex 0.999999 11.7 6.35
      vertex 4.05555 8.89824 6.35
    endloop
  endfacet
  facet normal 0 0 1
    outer loop
      vertex 5.29038 9.61117 6.35
      vertex 0.999999 11.7 6.35
      vertex 4.6355 9.3196 6.35
    endloop
  endfacet
  facet normal 0 0 1
    outer loop
      vertex 5.99157 9.76022 6.35
      vertex 0.999999 11.7 6.35
      vertex 5.29038 9.61117 6.35
    endloop
  endfacet
  facet normal 0 0 1
    outer loop
      vertex 6.70843 9.76022 6.35
      vertex 0.999999 11.7 6.35
      vertex 5.99157 9.76022 6.35
    endloop
  endfacet
  facet normal -0 0 1
    outer loop
      vertex 28.829 6.35 6.35
      vertex 30.75 0.999999 6.35
      vertex 30.75 11.7 6.35
    endloop
  endfacet
  facet normal -0 0 1
    outer loop
      vertex 28.7541 5.63707 6.35
      vertex 30.75 0.999999 6.35
      vertex 28.829 6.35 6.35
    endloop
  endfacet
  facet normal -0 0 1
    outer loop
      vertex 28.5325 4.9553 6.35
      vertex 30.75 0.999999 6.35
      vertex 28.7541 5.63707 6.35
    endloop
  endfacet
  facet normal -0 0 1
    outer loop
      vertex 28.1741 4.33448 6.35
      vertex 30.75 0.999999 6.35
      vertex 28.5325 4.9553 6.35
    endloop
  endfacet
  facet normal -0 0 1
    outer loop
      vertex 27.6944 3.80176 6.35
      vertex 30.75 0.999999 6.35
      vertex 28.1741 4.33448 6.35
    endloop
  endfacet
  facet normal -0 0 1
    outer loop
      vertex 27.1145 3.3804 6.35
      vertex 30.75 0.999999 6.35
      vertex 27.6944 3.80176 6.35
    endloop
  endfacet
  facet normal -0 0 1
    outer loop
      vertex 26.4596 3.08883 6.35
      vertex 30.75 0.999999 6.35
      vertex 27.1145 3.3804 6.35
    endloop
  endfacet
  facet normal -0 0 1
    outer loop
      vertex 25.7584 2.93978 6.35
      vertex 30.75 0.999999 6.35
      vertex 26.4596 3.08883 6.35
    endloop
  endfacet
  facet normal -0 0 1
    outer loop
      vertex 25.0416 2.93978 6.35
      vertex 30.75 0.999999 6.35
      vertex 25.7584 2.93978 6.35
    endloop
  endfacet
  facet normal 0 0 1
    outer loop
      vertex 24.3404 3.08883 6.35
      vertex 30.75 0.999999 6.35
      vertex 25.0416 2.93978 6.35
    endloop
  endfacet
  facet normal -0 0 1
    outer loop
      vertex 9.779 6.35 6.35
      vertex 22.0459 5.63707 6.35
      vertex 21.971 6.35 6.35
    endloop
  endfacet
  facet normal 0 0 1
    outer loop
      vertex 9.70407 5.63707 6.35
      vertex 22.0459 5.63707 6.35
      vertex 9.779 6.35 6.35
    endloop
  endfacet
  facet normal 0 0 1
    outer loop
      vertex 22.0459 5.63707 6.35
      vertex 9.70407 5.63707 6.35
      vertex 22.2675 4.9553 6.35
    endloop
  endfacet
  facet normal 0 0 1
    outer loop
      vertex 9.48255 4.9553 6.35
      vertex 22.2675 4.9553 6.35
      vertex 9.70407 5.63707 6.35
    endloop
  endfacet
  facet normal 0 0 1
    outer loop
      vertex 22.2675 4.9553 6.35
      vertex 9.48255 4.9553 6.35
      vertex 22.6259 4.33448 6.35
    endloop
  endfacet
  facet normal 0 0 1
    outer loop
      vertex 9.12412 4.33448 6.35
      vertex 22.6259 4.33448 6.35
      vertex 9.48255 4.9553 6.35
    endloop
  endfacet
  facet normal 0 0 1
    outer loop
      vertex 22.6259 4.33448 6.35
      vertex 9.12412 4.33448 6.35
      vertex 23.1056 3.80176 6.35
    endloop
  endfacet
  facet normal 0 0 1
    outer loop
      vertex 8.64445 3.80176 6.35
      vertex 23.1056 3.80176 6.35
      vertex 9.12412 4.33448 6.35
    endloop
  endfacet
  facet normal 0 0 1
    outer loop
      vertex 23.1056 3.80176 6.35
      vertex 8.64445 3.80176 6.35
      vertex 23.6855 3.3804 6.35
    endloop
  endfacet
  facet normal 0 0 1
    outer loop
      vertex 8.0645 3.3804 6.35
      vertex 23.6855 3.3804 6.35
      vertex 8.64445 3.80176 6.35
    endloop
  endfacet
  facet normal 0 0 1
    outer loop
      vertex 23.6855 3.3804 6.35
      vertex 8.0645 3.3804 6.35
      vertex 24.3404 3.08883 6.35
    endloop
  endfacet
  facet normal 0 0 1
    outer loop
      vertex 7.40962 3.08883 6.35
      vertex 24.3404 3.08883 6.35
      vertex 8.0645 3.3804 6.35
    endloop
  endfacet
  facet normal 0 0 1
    outer loop
      vertex 24.3404 3.08883 6.35
      vertex 7.40962 3.08883 6.35
      vertex 30.75 0.999999 6.35
    endloop
  endfacet
  facet normal 0 0 1
    outer loop
      vertex 0.999999 0.999999 6.35
      vertex 7.40962 3.08883 6.35
      vertex 6.70843 2.93978 6.35
    endloop
  endfacet
  facet normal 0 0 1
    outer loop
      vertex 0.999999 0.999999 6.35
      vertex 6.70843 2.93978 6.35
      vertex 5.99157 2.93978 6.35
    endloop
  endfacet
  facet normal 0 0 1
    outer loop
      vertex 7.40962 3.08883 6.35
      vertex 0.999999 0.999999 6.35
      vertex 30.75 0.999999 6.35
    endloop
  endfacet
  facet normal 0 0 1
    outer loop
      vertex 5.29038 3.08883 6.35
      vertex 0.999999 0.999999 6.35
      vertex 5.99157 2.93978 6.35
    endloop
  endfacet
  facet normal 0 0 1
    outer loop
      vertex 4.6355 3.3804 6.35
      vertex 0.999999 0.999999 6.35
      vertex 5.29038 3.08883 6.35
    endloop
  endfacet
  facet normal 0 0 1
    outer loop
      vertex 4.05555 3.80176 6.35
      vertex 0.999999 0.999999 6.35
      vertex 4.6355 3.3804 6.35
    endloop
  endfacet
  facet normal 0 0 1
    outer loop
      vertex 3.57588 4.33448 6.35
      vertex 0.999999 0.999999 6.35
      vertex 4.05555 3.80176 6.35
    endloop
  endfacet
  facet normal 0 0 1
    outer loop
      vertex 3.21745 4.9553 6.35
      vertex 0.999999 0.999999 6.35
      vertex 3.57588 4.33448 6.35
    endloop
  endfacet
  facet normal 0 0 1
    outer loop
      vertex 2.99593 5.63707 6.35
      vertex 0.999999 0.999999 6.35
      vertex 3.21745 4.9553 6.35
    endloop
  endfacet
  facet normal 0 0 1
    outer loop
      vertex 0.999999 0.999999 6.35
      vertex 2.99593 5.63707 6.35
      vertex 2.921 6.35 6.35
    endloop
  endfacet
  facet normal -0.866026 0.5 0
    outer loop
      vertex 9.12412 4.33448 3.175
      vertex 9.48255 4.9553 6.35
      vertex 9.48255 4.9553 3.175
    endloop
  endfacet
  facet normal -0.866026 0.5 0
    outer loop
      vertex 9.48255 4.9553 6.35
      vertex 9.12412 4.33448 3.175
      vertex 9.12412 4.33448 6.35
    endloop
  endfacet
  facet normal 0 1 -0
    outer loop
      vertex 6.70843 2.93978 3.175
      vertex 5.99157 2.93978 6.35
      vertex 6.70843 2.93978 6.35
    endloop
  endfacet
  facet normal 0 1 0
    outer loop
      vertex 5.99157 2.93978 6.35
      vertex 6.70843 2.93978 3.175
      vertex 5.99157 2.93978 3.175
    endloop
  endfacet
  facet normal 0.743145 0.669131 0
    outer loop
      vertex 4.05555 3.80176 6.35
      vertex 3.57588 4.33448 3.175
      vertex 3.57588 4.33448 6.35
    endloop
  endfacet
  facet normal 0.743145 0.669131 0
    outer loop
      vertex 3.57588 4.33448 3.175
      vertex 4.05555 3.80176 6.35
      vertex 4.05555 3.80176 3.175
    endloop
  endfacet
  facet normal -0.406736 0.913546 0
    outer loop
      vertex 8.0645 3.3804 3.175
      vertex 7.40962 3.08883 6.35
      vertex 8.0645 3.3804 6.35
    endloop
  endfacet
  facet normal -0.406736 0.913546 0
    outer loop
      vertex 7.40962 3.08883 6.35
      vertex 8.0645 3.3804 3.175
      vertex 7.40962 3.08883 3.175
    endloop
  endfacet
  facet normal 0.406737 0.913545 -0
    outer loop
      vertex 5.29038 3.08883 3.175
      vertex 4.6355 3.3804 6.35
      vertex 5.29038 3.08883 6.35
    endloop
  endfacet
  facet normal 0.406737 0.913545 0
    outer loop
      vertex 4.6355 3.3804 6.35
      vertex 5.29038 3.08883 3.175
      vertex 4.6355 3.3804 3.175
    endloop
  endfacet
  facet normal 0.207912 0.978148 -0
    outer loop
      vertex 5.99157 2.93978 3.175
      vertex 5.29038 3.08883 6.35
      vertex 5.99157 2.93978 6.35
    endloop
  endfacet
  facet normal 0.207912 0.978148 0
    outer loop
      vertex 5.29038 3.08883 6.35
      vertex 5.99157 2.93978 3.175
      vertex 5.29038 3.08883 3.175
    endloop
  endfacet
  facet normal 0.951056 0.309018 0
    outer loop
      vertex 3.21745 4.9553 6.35
      vertex 2.99593 5.63707 3.175
      vertex 2.99593 5.63707 6.35
    endloop
  endfacet
  facet normal 0.951056 0.309018 0
    outer loop
      vertex 2.99593 5.63707 3.175
      vertex 3.21745 4.9553 6.35
      vertex 3.21745 4.9553 3.175
    endloop
  endfacet
  facet normal 0.994522 0.104529 0
    outer loop
      vertex 2.99593 5.63707 6.35
      vertex 2.921 6.35 3.175
      vertex 2.921 6.35 6.35
    endloop
  endfacet
  facet normal 0.994522 0.104529 0
    outer loop
      vertex 2.921 6.35 3.175
      vertex 2.99593 5.63707 6.35
      vertex 2.99593 5.63707 3.175
    endloop
  endfacet
  facet normal -0.743145 0.669131 0
    outer loop
      vertex 8.64445 3.80176 3.175
      vertex 9.12412 4.33448 6.35
      vertex 9.12412 4.33448 3.175
    endloop
  endfacet
  facet normal -0.743145 0.669131 0
    outer loop
      vertex 9.12412 4.33448 6.35
      vertex 8.64445 3.80176 3.175
      vertex 8.64445 3.80176 6.35
    endloop
  endfacet
  facet normal -0.994522 -0.104531 0
    outer loop
      vertex 27.305 6.35 0
      vertex 27.2634 6.74607 3.175
      vertex 27.2634 6.74607 0
    endloop
  endfacet
  facet normal -0.994522 -0.104531 0
    outer loop
      vertex 27.2634 6.74607 3.175
      vertex 27.305 6.35 0
      vertex 27.305 6.35 3.175
    endloop
  endfacet
  facet normal 0.994522 -0.104526 0
    outer loop
      vertex 23.495 6.35 3.175
      vertex 23.5366 6.74607 0
      vertex 23.5366 6.74607 3.175
    endloop
  endfacet
  facet normal 0.994522 -0.104526 0
    outer loop
      vertex 23.5366 6.74607 0
      vertex 23.495 6.35 3.175
      vertex 23.495 6.35 0
    endloop
  endfacet
  facet normal 0 -1 0
    outer loop
      vertex 25.2009 8.24456 0
      vertex 25.5991 8.24456 3.175
      vertex 25.2009 8.24456 3.175
    endloop
  endfacet
  facet normal 0 -1 -0
    outer loop
      vertex 25.5991 8.24456 3.175
      vertex 25.2009 8.24456 0
      vertex 25.5991 8.24456 0
    endloop
  endfacet
  facet normal 0 1 -0
    outer loop
      vertex 25.5991 4.45544 0
      vertex 25.2009 4.45544 3.175
      vertex 25.5991 4.45544 3.175
    endloop
  endfacet
  facet normal 0 1 0
    outer loop
      vertex 25.2009 4.45544 3.175
      vertex 25.5991 4.45544 0
      vertex 25.2009 4.45544 0
    endloop
  endfacet
  facet normal -0.587784 -0.809018 0
    outer loop
      vertex 26.3525 7.99978 0
      vertex 26.6747 7.76569 3.175
      vertex 26.3525 7.99978 3.175
    endloop
  endfacet
  facet normal -0.587784 -0.809018 -0
    outer loop
      vertex 26.6747 7.76569 3.175
      vertex 26.3525 7.99978 0
      vertex 26.6747 7.76569 0
    endloop
  endfacet
  facet normal 0.587787 -0.809016 0
    outer loop
      vertex 24.1253 7.76569 0
      vertex 24.4475 7.99978 3.175
      vertex 24.1253 7.76569 3.175
    endloop
  endfacet
  facet normal 0.587787 -0.809016 0
    outer loop
      vertex 24.4475 7.99978 3.175
      vertex 24.1253 7.76569 0
      vertex 24.4475 7.99978 0
    endloop
  endfacet
  facet normal 0.406736 -0.913546 0
    outer loop
      vertex 24.4475 7.99978 0
      vertex 24.8113 8.16176 3.175
      vertex 24.4475 7.99978 3.175
    endloop
  endfacet
  facet normal 0.406736 -0.913546 0
    outer loop
      vertex 24.8113 8.16176 3.175
      vertex 24.4475 7.99978 0
      vertex 24.8113 8.16176 0
    endloop
  endfacet
  facet normal -0.866025 0.500001 0
    outer loop
      vertex 26.9412 5.23027 0
      vertex 27.1403 5.57517 3.175
      vertex 27.1403 5.57517 0
    endloop
  endfacet
  facet normal -0.866025 0.500001 0
    outer loop
      vertex 27.1403 5.57517 3.175
      vertex 26.9412 5.23027 0
      vertex 26.9412 5.23027 3.175
    endloop
  endfacet
  facet normal -0.866025 -0.500001 0
    outer loop
      vertex 27.1403 7.12483 0
      vertex 26.9412 7.46973 3.175
      vertex 26.9412 7.46973 0
    endloop
  endfacet
  facet normal -0.866025 -0.500001 0
    outer loop
      vertex 26.9412 7.46973 3.175
      vertex 27.1403 7.12483 0
      vertex 27.1403 7.12483 3.175
    endloop
  endfacet
  facet normal -0.951057 -0.309015 0
    outer loop
      vertex 27.2634 6.74607 0
      vertex 27.1403 7.12483 3.175
      vertex 27.1403 7.12483 0
    endloop
  endfacet
  facet normal -0.951057 -0.309015 0
    outer loop
      vertex 27.1403 7.12483 3.175
      vertex 27.2634 6.74607 0
      vertex 27.2634 6.74607 3.175
    endloop
  endfacet
  facet normal -0.743146 -0.66913 0
    outer loop
      vertex 26.9412 7.46973 0
      vertex 26.6747 7.76569 3.175
      vertex 26.6747 7.76569 0
    endloop
  endfacet
  facet normal -0.743146 -0.66913 0
    outer loop
      vertex 26.6747 7.76569 3.175
      vertex 26.9412 7.46973 0
      vertex 26.9412 7.46973 3.175
    endloop
  endfacet
  facet normal -0.207913 -0.978147 0
    outer loop
      vertex 25.5991 8.24456 0
      vertex 25.9887 8.16176 3.175
      vertex 25.5991 8.24456 3.175
    endloop
  endfacet
  facet normal -0.207913 -0.978147 -0
    outer loop
      vertex 25.9887 8.16176 3.175
      vertex 25.5991 8.24456 0
      vertex 25.9887 8.16176 0
    endloop
  endfacet
  facet normal -0.406736 -0.913546 0
    outer loop
      vertex 25.9887 8.16176 0
      vertex 26.3525 7.99978 3.175
      vertex 25.9887 8.16176 3.175
    endloop
  endfacet
  facet normal -0.406736 -0.913546 -0
    outer loop
      vertex 26.3525 7.99978 3.175
      vertex 25.9887 8.16176 0
      vertex 26.3525 7.99978 0
    endloop
  endfacet
  facet normal 0.866025 -0.500001 0
    outer loop
      vertex 23.6597 7.12483 3.175
      vertex 23.8588 7.46973 0
      vertex 23.8588 7.46973 3.175
    endloop
  endfacet
  facet normal 0.866025 -0.500001 0
    outer loop
      vertex 23.8588 7.46973 0
      vertex 23.6597 7.12483 3.175
      vertex 23.6597 7.12483 0
    endloop
  endfacet
  facet normal 0.743146 -0.66913 0
    outer loop
      vertex 23.8588 7.46973 3.175
      vertex 24.1253 7.76569 0
      vertex 24.1253 7.76569 3.175
    endloop
  endfacet
  facet normal 0.743146 -0.66913 0
    outer loop
      vertex 24.1253 7.76569 0
      vertex 23.8588 7.46973 3.175
      vertex 23.8588 7.46973 0
    endloop
  endfacet
  facet normal 0.951056 -0.309019 0
    outer loop
      vertex 23.5366 6.74607 3.175
      vertex 23.6597 7.12483 0
      vertex 23.6597 7.12483 3.175
    endloop
  endfacet
  facet normal 0.951056 -0.309019 0
    outer loop
      vertex 23.6597 7.12483 0
      vertex 23.5366 6.74607 3.175
      vertex 23.5366 6.74607 0
    endloop
  endfacet
  facet normal 0 0 1
    outer loop
      vertex 27.305 6.35 3.175
      vertex 28.829 6.35 3.175
      vertex 28.7541 7.06293 3.175
    endloop
  endfacet
  facet normal 0 0 1
    outer loop
      vertex 27.2634 6.74607 3.175
      vertex 28.7541 7.06293 3.175
      vertex 28.5325 7.7447 3.175
    endloop
  endfacet
  facet normal 0 0 1
    outer loop
      vertex 28.829 6.35 3.175
      vertex 27.305 6.35 3.175
      vertex 28.7541 5.63707 3.175
    endloop
  endfacet
  facet normal 0 0 1
    outer loop
      vertex 27.1403 7.12483 3.175
      vertex 28.5325 7.7447 3.175
      vertex 28.1741 8.36552 3.175
    endloop
  endfacet
  facet normal -0 0 1
    outer loop
      vertex 27.2634 5.95393 3.175
      vertex 28.7541 5.63707 3.175
      vertex 27.305 6.35 3.175
    endloop
  endfacet
  facet normal 0 0 1
    outer loop
      vertex 26.9412 7.46973 3.175
      vertex 28.1741 8.36552 3.175
      vertex 27.6944 8.89824 3.175
    endloop
  endfacet
  facet normal 0 0 1
    outer loop
      vertex 28.7541 5.63707 3.175
      vertex 27.2634 5.95393 3.175
      vertex 28.5325 4.9553 3.175
    endloop
  endfacet
  facet normal -0 0 1
    outer loop
      vertex 27.1403 5.57517 3.175
      vertex 28.5325 4.9553 3.175
      vertex 27.2634 5.95393 3.175
    endloop
  endfacet
  facet normal 0 0 1
    outer loop
      vertex 28.7541 7.06293 3.175
      vertex 27.2634 6.74607 3.175
      vertex 27.305 6.35 3.175
    endloop
  endfacet
  facet normal 0 0 1
    outer loop
      vertex 28.5325 7.7447 3.175
      vertex 27.1403 7.12483 3.175
      vertex 27.2634 6.74607 3.175
    endloop
  endfacet
  facet normal 0 0 1
    outer loop
      vertex 26.6747 7.76569 3.175
      vertex 27.6944 8.89824 3.175
      vertex 27.1145 9.3196 3.175
    endloop
  endfacet
  facet normal 0 0 1
    outer loop
      vertex 28.1741 8.36552 3.175
      vertex 26.9412 7.46973 3.175
      vertex 27.1403 7.12483 3.175
    endloop
  endfacet
  facet normal 0 0 1
    outer loop
      vertex 27.6944 8.89824 3.175
      vertex 26.6747 7.76569 3.175
      vertex 26.9412 7.46973 3.175
    endloop
  endfacet
  facet normal 0 0 1
    outer loop
      vertex 26.3525 7.99978 3.175
      vertex 27.1145 9.3196 3.175
      vertex 26.4596 9.61117 3.175
    endloop
  endfacet
  facet normal 0 0 1
    outer loop
      vertex 27.1145 9.3196 3.175
      vertex 26.3525 7.99978 3.175
      vertex 26.6747 7.76569 3.175
    endloop
  endfacet
  facet normal 0 0 1
    outer loop
      vertex 26.4596 9.61117 3.175
      vertex 25.9887 8.16176 3.175
      vertex 26.3525 7.99978 3.175
    endloop
  endfacet
  facet normal 0 0 1
    outer loop
      vertex 25.7584 9.76022 3.175
      vertex 25.9887 8.16176 3.175
      vertex 26.4596 9.61117 3.175
    endloop
  endfacet
  facet normal 0 0 1
    outer loop
      vertex 25.7584 9.76022 3.175
      vertex 25.5991 8.24456 3.175
      vertex 25.9887 8.16176 3.175
    endloop
  endfacet
  facet normal 0 0 1
    outer loop
      vertex 25.7584 9.76022 3.175
      vertex 25.2009 8.24456 3.175
      vertex 25.5991 8.24456 3.175
    endloop
  endfacet
  facet normal -0 0 1
    outer loop
      vertex 25.0416 9.76022 3.175
      vertex 25.2009 8.24456 3.175
      vertex 25.7584 9.76022 3.175
    endloop
  endfacet
  facet normal 0 0 1
    outer loop
      vertex 25.0416 9.76022 3.175
      vertex 24.8113 8.16176 3.175
      vertex 25.2009 8.24456 3.175
    endloop
  endfacet
  facet normal -0 0 1
    outer loop
      vertex 24.3404 9.61117 3.175
      vertex 24.8113 8.16176 3.175
      vertex 25.0416 9.76022 3.175
    endloop
  endfacet
  facet normal 0 0 1
    outer loop
      vertex 24.8113 8.16176 3.175
      vertex 24.3404 9.61117 3.175
      vertex 24.4475 7.99978 3.175
    endloop
  endfacet
  facet normal -0 0 1
    outer loop
      vertex 23.6855 9.3196 3.175
      vertex 24.4475 7.99978 3.175
      vertex 24.3404 9.61117 3.175
    endloop
  endfacet
  facet normal 0 0 1
    outer loop
      vertex 24.4475 7.99978 3.175
      vertex 23.6855 9.3196 3.175
      vertex 24.1253 7.76569 3.175
    endloop
  endfacet
  facet normal -0 0 1
    outer loop
      vertex 23.1056 8.89824 3.175
      vertex 24.1253 7.76569 3.175
      vertex 23.6855 9.3196 3.175
    endloop
  endfacet
  facet normal 0 0 1
    outer loop
      vertex 24.1253 7.76569 3.175
      vertex 23.1056 8.89824 3.175
      vertex 23.8588 7.46973 3.175
    endloop
  endfacet
  facet normal -0 0 1
    outer loop
      vertex 22.6259 8.36552 3.175
      vertex 23.8588 7.46973 3.175
      vertex 23.1056 8.89824 3.175
    endloop
  endfacet
  facet normal 0 0 1
    outer loop
      vertex 23.8588 7.46973 3.175
      vertex 22.6259 8.36552 3.175
      vertex 23.6597 7.12483 3.175
    endloop
  endfacet
  facet normal -0 0 1
    outer loop
      vertex 22.2675 7.7447 3.175
      vertex 23.6597 7.12483 3.175
      vertex 22.6259 8.36552 3.175
    endloop
  endfacet
  facet normal 0 0 1
    outer loop
      vertex 28.5325 4.9553 3.175
      vertex 27.1403 5.57517 3.175
      vertex 28.1741 4.33448 3.175
    endloop
  endfacet
  facet normal -0 0 1
    outer loop
      vertex 26.9412 5.23027 3.175
      vertex 28.1741 4.33448 3.175
      vertex 27.1403 5.57517 3.175
    endloop
  endfacet
  facet normal 0 0 1
    outer loop
      vertex 28.1741 4.33448 3.175
      vertex 26.9412 5.23027 3.175
      vertex 27.6944 3.80176 3.175
    endloop
  endfacet
  facet normal -0 0 1
    outer loop
      vertex 26.6747 4.93431 3.175
      vertex 27.6944 3.80176 3.175
      vertex 26.9412 5.23027 3.175
    endloop
  endfacet
  facet normal 0 0 1
    outer loop
      vertex 27.6944 3.80176 3.175
      vertex 26.6747 4.93431 3.175
      vertex 27.1145 3.3804 3.175
    endloop
  endfacet
  facet normal -0 0 1
    outer loop
      vertex 26.3525 4.70022 3.175
      vertex 27.1145 3.3804 3.175
      vertex 26.6747 4.93431 3.175
    endloop
  endfacet
  facet normal 0 0 1
    outer loop
      vertex 27.1145 3.3804 3.175
      vertex 26.3525 4.70022 3.175
      vertex 26.4596 3.08883 3.175
    endloop
  endfacet
  facet normal -0 0 1
    outer loop
      vertex 25.9887 4.53824 3.175
      vertex 26.4596 3.08883 3.175
      vertex 26.3525 4.70022 3.175
    endloop
  endfacet
  facet normal 0 0 1
    outer loop
      vertex 25.9887 4.53824 3.175
      vertex 25.7584 2.93978 3.175
      vertex 26.4596 3.08883 3.175
    endloop
  endfacet
  facet normal -0 0 1
    outer loop
      vertex 25.5991 4.45544 3.175
      vertex 25.7584 2.93978 3.175
      vertex 25.9887 4.53824 3.175
    endloop
  endfacet
  facet normal -0 0 1
    outer loop
      vertex 25.2009 4.45544 3.175
      vertex 25.7584 2.93978 3.175
      vertex 25.5991 4.45544 3.175
    endloop
  endfacet
  facet normal 0 0 1
    outer loop
      vertex 25.2009 4.45544 3.175
      vertex 25.0416 2.93978 3.175
      vertex 25.7584 2.93978 3.175
    endloop
  endfacet
  facet normal 0 0 1
    outer loop
      vertex 24.8113 4.53824 3.175
      vertex 25.0416 2.93978 3.175
      vertex 25.2009 4.45544 3.175
    endloop
  endfacet
  facet normal 0 0 1
    outer loop
      vertex 24.3404 3.08883 3.175
      vertex 24.8113 4.53824 3.175
      vertex 24.4475 4.70022 3.175
    endloop
  endfacet
  facet normal 0 0 1
    outer loop
      vertex 24.8113 4.53824 3.175
      vertex 24.3404 3.08883 3.175
      vertex 25.0416 2.93978 3.175
    endloop
  endfacet
  facet normal 0 0 1
    outer loop
      vertex 23.6855 3.3804 3.175
      vertex 24.4475 4.70022 3.175
      vertex 24.1253 4.93431 3.175
    endloop
  endfacet
  facet normal 0 0 1
    outer loop
      vertex 23.1056 3.80176 3.175
      vertex 24.1253 4.93431 3.175
      vertex 23.8588 5.23027 3.175
    endloop
  endfacet
  facet normal 0 0 1
    outer loop
      vertex 24.4475 4.70022 3.175
      vertex 23.6855 3.3804 3.175
      vertex 24.3404 3.08883 3.175
    endloop
  endfacet
  facet normal 0 0 1
    outer loop
      vertex 22.6259 4.33448 3.175
      vertex 23.8588 5.23027 3.175
      vertex 23.6597 5.57517 3.175
    endloop
  endfacet
  facet normal 0 0 1
    outer loop
      vertex 22.2675 4.9553 3.175
      vertex 23.6597 5.57517 3.175
      vertex 23.5366 5.95393 3.175
    endloop
  endfacet
  facet normal 0 0 1
    outer loop
      vertex 22.0459 5.63707 3.175
      vertex 23.5366 5.95393 3.175
      vertex 23.495 6.35 3.175
    endloop
  endfacet
  facet normal 0 0 1
    outer loop
      vertex 23.6597 7.12483 3.175
      vertex 22.2675 7.7447 3.175
      vertex 23.5366 6.74607 3.175
    endloop
  endfacet
  facet normal 0 0 1
    outer loop
      vertex 24.1253 4.93431 3.175
      vertex 23.1056 3.80176 3.175
      vertex 23.6855 3.3804 3.175
    endloop
  endfacet
  facet normal -0 0 1
    outer loop
      vertex 22.0459 7.06293 3.175
      vertex 23.5366 6.74607 3.175
      vertex 22.2675 7.7447 3.175
    endloop
  endfacet
  facet normal 0 0 1
    outer loop
      vertex 23.8588 5.23027 3.175
      vertex 22.6259 4.33448 3.175
      vertex 23.1056 3.80176 3.175
    endloop
  endfacet
  facet normal 0 0 1
    outer loop
      vertex 23.5366 6.74607 3.175
      vertex 22.0459 7.06293 3.175
      vertex 23.495 6.35 3.175
    endloop
  endfacet
  facet normal 0 0 1
    outer loop
      vertex 23.6597 5.57517 3.175
      vertex 22.2675 4.9553 3.175
      vertex 22.6259 4.33448 3.175
    endloop
  endfacet
  facet normal 0 0 1
    outer loop
      vertex 21.971 6.35 3.175
      vertex 23.495 6.35 3.175
      vertex 22.0459 7.06293 3.175
    endloop
  endfacet
  facet normal 0 0 1
    outer loop
      vertex 23.5366 5.95393 3.175
      vertex 22.0459 5.63707 3.175
      vertex 22.2675 4.9553 3.175
    endloop
  endfacet
  facet normal 0 0 1
    outer loop
      vertex 23.495 6.35 3.175
      vertex 21.971 6.35 3.175
      vertex 22.0459 5.63707 3.175
    endloop
  endfacet
  facet normal 0.207912 -0.978148 0
    outer loop
      vertex 24.8113 8.16176 0
      vertex 25.2009 8.24456 3.175
      vertex 24.8113 8.16176 3.175
    endloop
  endfacet
  facet normal 0.207912 -0.978148 0
    outer loop
      vertex 25.2009 8.24456 3.175
      vertex 24.8113 8.16176 0
      vertex 25.2009 8.24456 0
    endloop
  endfacet
  facet normal -0.587784 0.809018 0
    outer loop
      vertex 26.6747 4.93431 0
      vertex 26.3525 4.70022 3.175
      vertex 26.6747 4.93431 3.175
    endloop
  endfacet
  facet normal -0.587784 0.809018 0
    outer loop
      vertex 26.3525 4.70022 3.175
      vertex 26.6747 4.93431 0
      vertex 26.3525 4.70022 0
    endloop
  endfacet
  facet normal -0.743146 0.66913 0
    outer loop
      vertex 26.6747 4.93431 0
      vertex 26.9412 5.23027 3.175
      vertex 26.9412 5.23027 0
    endloop
  endfacet
  facet normal -0.743146 0.66913 0
    outer loop
      vertex 26.9412 5.23027 3.175
      vertex 26.6747 4.93431 0
      vertex 26.6747 4.93431 3.175
    endloop
  endfacet
  facet normal -0.951057 0.309015 0
    outer loop
      vertex 27.1403 5.57517 0
      vertex 27.2634 5.95393 3.175
      vertex 27.2634 5.95393 0
    endloop
  endfacet
  facet normal -0.951057 0.309015 0
    outer loop
      vertex 27.2634 5.95393 3.175
      vertex 27.1403 5.57517 0
      vertex 27.1403 5.57517 3.175
    endloop
  endfacet
  facet normal -0.994522 0.104531 0
    outer loop
      vertex 27.2634 5.95393 0
      vertex 27.305 6.35 3.175
      vertex 27.305 6.35 0
    endloop
  endfacet
  facet normal -0.994522 0.104531 0
    outer loop
      vertex 27.305 6.35 3.175
      vertex 27.2634 5.95393 0
      vertex 27.2634 5.95393 3.175
    endloop
  endfacet
  facet normal 0.866025 0.500001 0
    outer loop
      vertex 23.8588 5.23027 3.175
      vertex 23.6597 5.57517 0
      vertex 23.6597 5.57517 3.175
    endloop
  endfacet
  facet normal 0.866025 0.500001 0
    outer loop
      vertex 23.6597 5.57517 0
      vertex 23.8588 5.23027 3.175
      vertex 23.8588 5.23027 0
    endloop
  endfacet
  facet normal 0.743146 0.66913 0
    outer loop
      vertex 24.1253 4.93431 3.175
      vertex 23.8588 5.23027 0
      vertex 23.8588 5.23027 3.175
    endloop
  endfacet
  facet normal 0.743146 0.66913 0
    outer loop
      vertex 23.8588 5.23027 0
      vertex 24.1253 4.93431 3.175
      vertex 24.1253 4.93431 0
    endloop
  endfacet
  facet normal 0.994522 0.104526 0
    outer loop
      vertex 23.5366 5.95393 3.175
      vertex 23.495 6.35 0
      vertex 23.495 6.35 3.175
    endloop
  endfacet
  facet normal 0.994522 0.104526 0
    outer loop
      vertex 23.495 6.35 0
      vertex 23.5366 5.95393 3.175
      vertex 23.5366 5.95393 0
    endloop
  endfacet
  facet normal -0.207913 0.978147 0
    outer loop
      vertex 25.9887 4.53824 0
      vertex 25.5991 4.45544 3.175
      vertex 25.9887 4.53824 3.175
    endloop
  endfacet
  facet normal -0.207913 0.978147 0
    outer loop
      vertex 25.5991 4.45544 3.175
      vertex 25.9887 4.53824 0
      vertex 25.5991 4.45544 0
    endloop
  endfacet
  facet normal 0.951056 0.309019 0
    outer loop
      vertex 23.6597 5.57517 3.175
      vertex 23.5366 5.95393 0
      vertex 23.5366 5.95393 3.175
    endloop
  endfacet
  facet normal 0.951056 0.309019 0
    outer loop
      vertex 23.5366 5.95393 0
      vertex 23.6597 5.57517 3.175
      vertex 23.6597 5.57517 0
    endloop
  endfacet
  facet normal -0.406735 0.913546 0
    outer loop
      vertex 26.3525 4.70022 0
      vertex 25.9887 4.53824 3.175
      vertex 26.3525 4.70022 3.175
    endloop
  endfacet
  facet normal -0.406735 0.913546 0
    outer loop
      vertex 25.9887 4.53824 3.175
      vertex 26.3525 4.70022 0
      vertex 25.9887 4.53824 0
    endloop
  endfacet
  facet normal 0.406735 0.913546 -0
    outer loop
      vertex 24.8113 4.53824 0
      vertex 24.4475 4.70022 3.175
      vertex 24.8113 4.53824 3.175
    endloop
  endfacet
  facet normal 0.406735 0.913546 0
    outer loop
      vertex 24.4475 4.70022 3.175
      vertex 24.8113 4.53824 0
      vertex 24.4475 4.70022 0
    endloop
  endfacet
  facet normal 0.587787 0.809016 -0
    outer loop
      vertex 24.4475 4.70022 0
      vertex 24.1253 4.93431 3.175
      vertex 24.4475 4.70022 3.175
    endloop
  endfacet
  facet normal 0.587787 0.809016 0
    outer loop
      vertex 24.1253 4.93431 3.175
      vertex 24.4475 4.70022 0
      vertex 24.1253 4.93431 0
    endloop
  endfacet
  facet normal 0.207912 0.978148 -0
    outer loop
      vertex 25.2009 4.45544 0
      vertex 24.8113 4.53824 3.175
      vertex 25.2009 4.45544 3.175
    endloop
  endfacet
  facet normal 0.207912 0.978148 0
    outer loop
      vertex 24.8113 4.53824 3.175
      vertex 25.2009 4.45544 0
      vertex 24.8113 4.53824 0
    endloop
  endfacet
  facet normal -0.866025 -0.5 0
    outer loop
      vertex 28.5325 7.7447 3.175
      vertex 28.1741 8.36552 6.35
      vertex 28.1741 8.36552 3.175
    endloop
  endfacet
  facet normal -0.866025 -0.5 0
    outer loop
      vertex 28.1741 8.36552 6.35
      vertex 28.5325 7.7447 3.175
      vertex 28.5325 7.7447 6.35
    endloop
  endfacet
  facet normal 0.951056 -0.309018 0
    outer loop
      vertex 22.0459 7.06293 6.35
      vertex 22.2675 7.7447 3.175
      vertex 22.2675 7.7447 6.35
    endloop
  endfacet
  facet normal 0.951056 -0.309018 0
    outer loop
      vertex 22.2675 7.7447 3.175
      vertex 22.0459 7.06293 6.35
      vertex 22.0459 7.06293 3.175
    endloop
  endfacet
  facet normal -0.743146 -0.66913 0
    outer loop
      vertex 28.1741 8.36552 3.175
      vertex 27.6944 8.89824 6.35
      vertex 27.6944 8.89824 3.175
    endloop
  endfacet
  facet normal -0.743146 -0.66913 0
    outer loop
      vertex 27.6944 8.89824 6.35
      vertex 28.1741 8.36552 3.175
      vertex 28.1741 8.36552 6.35
    endloop
  endfacet
  facet normal -0.207912 -0.978148 0
    outer loop
      vertex 25.7584 9.76022 3.175
      vertex 26.4596 9.61117 6.35
      vertex 25.7584 9.76022 6.35
    endloop
  endfacet
  facet normal -0.207912 -0.978148 -0
    outer loop
      vertex 26.4596 9.61117 6.35
      vertex 25.7584 9.76022 3.175
      vertex 26.4596 9.61117 3.175
    endloop
  endfacet
  facet normal -0.406737 -0.913545 0
    outer loop
      vertex 26.4596 9.61117 3.175
      vertex 27.1145 9.3196 6.35
      vertex 26.4596 9.61117 6.35
    endloop
  endfacet
  facet normal -0.406737 -0.913545 -0
    outer loop
      vertex 27.1145 9.3196 6.35
      vertex 26.4596 9.61117 3.175
      vertex 27.1145 9.3196 3.175
    endloop
  endfacet
  facet normal 0.406737 -0.913545 0
    outer loop
      vertex 23.6855 9.3196 3.175
      vertex 24.3404 9.61117 6.35
      vertex 23.6855 9.3196 6.35
    endloop
  endfacet
  facet normal 0.406737 -0.913545 0
    outer loop
      vertex 24.3404 9.61117 6.35
      vertex 23.6855 9.3196 3.175
      vertex 24.3404 9.61117 3.175
    endloop
  endfacet
  facet normal 0.866026 -0.499998 0
    outer loop
      vertex 22.2675 7.7447 6.35
      vertex 22.6259 8.36552 3.175
      vertex 22.6259 8.36552 6.35
    endloop
  endfacet
  facet normal 0.866026 -0.499998 0
    outer loop
      vertex 22.6259 8.36552 3.175
      vertex 22.2675 7.7447 6.35
      vertex 22.2675 7.7447 3.175
    endloop
  endfacet
  facet normal 0.587785 -0.809017 0
    outer loop
      vertex 23.1056 8.89824 3.175
      vertex 23.6855 9.3196 6.35
      vertex 23.1056 8.89824 6.35
    endloop
  endfacet
  facet normal 0.587785 -0.809017 0
    outer loop
      vertex 23.6855 9.3196 6.35
      vertex 23.1056 8.89824 3.175
      vertex 23.6855 9.3196 3.175
    endloop
  endfacet
  facet normal -0.994522 0.104529 0
    outer loop
      vertex 28.7541 5.63707 3.175
      vertex 28.829 6.35 6.35
      vertex 28.829 6.35 3.175
    endloop
  endfacet
  facet normal -0.994522 0.104529 0
    outer loop
      vertex 28.829 6.35 6.35
      vertex 28.7541 5.63707 3.175
      vertex 28.7541 5.63707 6.35
    endloop
  endfacet
  facet normal -0.207912 0.978148 0
    outer loop
      vertex 26.4596 3.08883 3.175
      vertex 25.7584 2.93978 6.35
      vertex 26.4596 3.08883 6.35
    endloop
  endfacet
  facet normal -0.207912 0.978148 0
    outer loop
      vertex 25.7584 2.93978 6.35
      vertex 26.4596 3.08883 3.175
      vertex 25.7584 2.93978 3.175
    endloop
  endfacet
  facet normal -0.951056 -0.309018 0
    outer loop
      vertex 28.7541 7.06293 3.175
      vertex 28.5325 7.7447 6.35
      vertex 28.5325 7.7447 3.175
    endloop
  endfacet
  facet normal -0.951056 -0.309018 0
    outer loop
      vertex 28.5325 7.7447 6.35
      vertex 28.7541 7.06293 3.175
      vertex 28.7541 7.06293 6.35
    endloop
  endfacet
  facet normal 0 -1 0
    outer loop
      vertex 25.0416 9.76022 3.175
      vertex 25.7584 9.76022 6.35
      vertex 25.0416 9.76022 6.35
    endloop
  endfacet
  facet normal 0 -1 -0
    outer loop
      vertex 25.7584 9.76022 6.35
      vertex 25.0416 9.76022 3.175
      vertex 25.7584 9.76022 3.175
    endloop
  endfacet
  facet normal -0.587785 -0.809017 0
    outer loop
      vertex 27.1145 9.3196 3.175
      vertex 27.6944 8.89824 6.35
      vertex 27.1145 9.3196 6.35
    endloop
  endfacet
  facet normal -0.587785 -0.809017 -0
    outer loop
      vertex 27.6944 8.89824 6.35
      vertex 27.1145 9.3196 3.175
      vertex 27.6944 8.89824 3.175
    endloop
  endfacet
  facet normal 0.994522 -0.104529 0
    outer loop
      vertex 21.971 6.35 6.35
      vertex 22.0459 7.06293 3.175
      vertex 22.0459 7.06293 6.35
    endloop
  endfacet
  facet normal 0.994522 -0.104529 0
    outer loop
      vertex 22.0459 7.06293 3.175
      vertex 21.971 6.35 6.35
      vertex 21.971 6.35 3.175
    endloop
  endfacet
  facet normal 0.743144 -0.669131 0
    outer loop
      vertex 22.6259 8.36552 6.35
      vertex 23.1056 8.89824 3.175
      vertex 23.1056 8.89824 6.35
    endloop
  endfacet
  facet normal 0.743144 -0.669131 0
    outer loop
      vertex 23.1056 8.89824 3.175
      vertex 22.6259 8.36552 6.35
      vertex 22.6259 8.36552 3.175
    endloop
  endfacet
  facet normal 0.207912 -0.978148 0
    outer loop
      vertex 24.3404 9.61117 3.175
      vertex 25.0416 9.76022 6.35
      vertex 24.3404 9.61117 6.35
    endloop
  endfacet
  facet normal 0.207912 -0.978148 0
    outer loop
      vertex 25.0416 9.76022 6.35
      vertex 24.3404 9.61117 3.175
      vertex 25.0416 9.76022 3.175
    endloop
  endfacet
  facet normal -0.994522 -0.104529 0
    outer loop
      vertex 28.829 6.35 3.175
      vertex 28.7541 7.06293 6.35
      vertex 28.7541 7.06293 3.175
    endloop
  endfacet
  facet normal -0.994522 -0.104529 0
    outer loop
      vertex 28.7541 7.06293 6.35
      vertex 28.829 6.35 3.175
      vertex 28.829 6.35 6.35
    endloop
  endfacet
  facet normal -0.951056 0.309018 0
    outer loop
      vertex 28.5325 4.9553 3.175
      vertex 28.7541 5.63707 6.35
      vertex 28.7541 5.63707 3.175
    endloop
  endfacet
  facet normal -0.951056 0.309018 0
    outer loop
      vertex 28.7541 5.63707 6.35
      vertex 28.5325 4.9553 3.175
      vertex 28.5325 4.9553 6.35
    endloop
  endfacet
  facet normal 0.587785 0.809017 -0
    outer loop
      vertex 23.6855 3.3804 3.175
      vertex 23.1056 3.80176 6.35
      vertex 23.6855 3.3804 6.35
    endloop
  endfacet
  facet normal 0.587785 0.809017 0
    outer loop
      vertex 23.1056 3.80176 6.35
      vertex 23.6855 3.3804 3.175
      vertex 23.1056 3.80176 3.175
    endloop
  endfacet
  facet normal 0.866026 0.499999 0
    outer loop
      vertex 22.6259 4.33448 6.35
      vertex 22.2675 4.9553 3.175
      vertex 22.2675 4.9553 6.35
    endloop
  endfacet
  facet normal 0.866026 0.499999 0
    outer loop
      vertex 22.2675 4.9553 3.175
      vertex 22.6259 4.33448 6.35
      vertex 22.6259 4.33448 3.175
    endloop
  endfacet
  facet normal -0.587785 0.809017 0
    outer loop
      vertex 27.6944 3.80176 3.175
      vertex 27.1145 3.3804 6.35
      vertex 27.6944 3.80176 6.35
    endloop
  endfacet
  facet normal -0.587785 0.809017 0
    outer loop
      vertex 27.1145 3.3804 6.35
      vertex 27.6944 3.80176 3.175
      vertex 27.1145 3.3804 3.175
    endloop
  endfacet
  facet normal -0.866025 0.500001 0
    outer loop
      vertex 28.1741 4.33448 3.175
      vertex 28.5325 4.9553 6.35
      vertex 28.5325 4.9553 3.175
    endloop
  endfacet
  facet normal -0.866025 0.500001 0
    outer loop
      vertex 28.5325 4.9553 6.35
      vertex 28.1741 4.33448 3.175
      vertex 28.1741 4.33448 6.35
    endloop
  endfacet
  facet normal 0 1 -0
    outer loop
      vertex 25.7584 2.93978 3.175
      vertex 25.0416 2.93978 6.35
      vertex 25.7584 2.93978 6.35
    endloop
  endfacet
  facet normal 0 1 0
    outer loop
      vertex 25.0416 2.93978 6.35
      vertex 25.7584 2.93978 3.175
      vertex 25.0416 2.93978 3.175
    endloop
  endfacet
  facet normal 0.743144 0.669131 0
    outer loop
      vertex 23.1056 3.80176 6.35
      vertex 22.6259 4.33448 3.175
      vertex 22.6259 4.33448 6.35
    endloop
  endfacet
  facet normal 0.743144 0.669131 0
    outer loop
      vertex 22.6259 4.33448 3.175
      vertex 23.1056 3.80176 6.35
      vertex 23.1056 3.80176 3.175
    endloop
  endfacet
  facet normal -0.406737 0.913545 0
    outer loop
      vertex 27.1145 3.3804 3.175
      vertex 26.4596 3.08883 6.35
      vertex 27.1145 3.3804 6.35
    endloop
  endfacet
  facet normal -0.406737 0.913545 0
    outer loop
      vertex 26.4596 3.08883 6.35
      vertex 27.1145 3.3804 3.175
      vertex 26.4596 3.08883 3.175
    endloop
  endfacet
  facet normal 0.406737 0.913545 -0
    outer loop
      vertex 24.3404 3.08883 3.175
      vertex 23.6855 3.3804 6.35
      vertex 24.3404 3.08883 6.35
    endloop
  endfacet
  facet normal 0.406737 0.913545 0
    outer loop
      vertex 23.6855 3.3804 6.35
      vertex 24.3404 3.08883 3.175
      vertex 23.6855 3.3804 3.175
    endloop
  endfacet
  facet normal 0.207912 0.978148 -0
    outer loop
      vertex 25.0416 2.93978 3.175
      vertex 24.3404 3.08883 6.35
      vertex 25.0416 2.93978 6.35
    endloop
  endfacet
  facet normal 0.207912 0.978148 0
    outer loop
      vertex 24.3404 3.08883 6.35
      vertex 25.0416 2.93978 3.175
      vertex 24.3404 3.08883 3.175
    endloop
  endfacet
  facet normal 0.951056 0.309018 0
    outer loop
      vertex 22.2675 4.9553 6.35
      vertex 22.0459 5.63707 3.175
      vertex 22.0459 5.63707 6.35
    endloop
  endfacet
  facet normal 0.951056 0.309018 0
    outer loop
      vertex 22.0459 5.63707 3.175
      vertex 22.2675 4.9553 6.35
      vertex 22.2675 4.9553 3.175
    endloop
  endfacet
  facet normal 0.994522 0.104529 0
    outer loop
      vertex 22.0459 5.63707 6.35
      vertex 21.971 6.35 3.175
      vertex 21.971 6.35 6.35
    endloop
  endfacet
  facet normal 0.994522 0.104529 0
    outer loop
      vertex 21.971 6.35 3.175
      vertex 22.0459 5.63707 6.35
      vertex 22.0459 5.63707 3.175
    endloop
  endfacet
  facet normal -0.743146 0.66913 0
    outer loop
      vertex 27.6944 3.80176 3.175
      vertex 28.1741 4.33448 6.35
      vertex 28.1741 4.33448 3.175
    endloop
  endfacet
  facet normal -0.743146 0.66913 0
    outer loop
      vertex 28.1741 4.33448 6.35
      vertex 27.6944 3.80176 3.175
      vertex 27.6944 3.80176 6.35
    endloop
  endfacet
  facet normal 0 -0.707107 0.707107
    outer loop
      vertex 1.22464e-16 0.999998 6.35
      vertex 1.5553e-15 1.90735e-07 5.35
      vertex 1.5553e-15 0.999998 6.35
    endloop
  endfacet
  facet normal 0 -0.928477 0.371391
    outer loop
      vertex 1.5553e-15 1.90735e-07 5.35
      vertex 1.49976e-32 4.01072e-15 5.35
      vertex 1.90735e-07 1.90735e-07 5.35
    endloop
  endfacet
  facet normal -1 -5.43618e-09 5.43618e-09
    outer loop
      vertex 1.49976e-32 4.01072e-15 5.35
      vertex 1.5553e-15 1.90735e-07 5.35
      vertex 1.22464e-16 0.999998 6.35
    endloop
  endfacet
  facet normal 2.12505e-08 -0.707107 0.707106
    outer loop
      vertex 0.999999 0.999999 6.35
      vertex 30.7805 0.969466 6.31947
      vertex 30.75 0.999999 6.35
    endloop
  endfacet
  facet normal 0.707107 -0.707107 -3.80099e-08
    outer loop
      vertex 1.49976e-32 4.01072e-15 5.35
      vertex 0.999999 0.999999 6.35
      vertex 1.90735e-07 1.90735e-07 5.35
    endloop
  endfacet
  facet normal 2.18869e-08 -0.707107 0.707106
    outer loop
      vertex 0.999999 0.999999 6.35
      vertex 1.49976e-32 4.01072e-15 5.35
      vertex 30.7805 0.969466 6.31947
    endloop
  endfacet
  facet normal -8.65956e-17 -0.707107 0.707107
    outer loop
      vertex 31.75 1.22465e-16 5.35
      vertex 30.7805 0.969466 6.31947
      vertex 1.49976e-32 4.01072e-15 5.35
    endloop
  endfacet
  facet normal 1.27366e-09 -0.707107 0.707107
    outer loop
      vertex 30.7805 0.969466 6.31947
      vertex 31.75 1.22465e-16 5.35
      vertex 31.75 9.53674e-07 5.35
    endloop
  endfacet
  facet normal 1 -1.22465e-16 -3.17662e-38
    outer loop
      vertex 1.49976e-32 4.01072e-15 5.35
      vertex 1.22464e-16 0.999998 6.35
      vertex 8.58169e-39 3.88825e-15 6.35
    endloop
  endfacet
  facet normal 1.22465e-16 1 1.22465e-16
    outer loop
      vertex 31.75 1.22465e-16 5.35
      vertex 8.58169e-39 3.88825e-15 6.35
      vertex 31.75 7.00749e-23 6.35
    endloop
  endfacet
  facet normal 1.22465e-16 1 1.22465e-16
    outer loop
      vertex 8.58169e-39 3.88825e-15 6.35
      vertex 31.75 1.22465e-16 5.35
      vertex 1.49976e-32 4.01072e-15 5.35
    endloop
  endfacet
  facet normal 0.707107 5.30984e-08 0.707107
    outer loop
      vertex 31.75 12.7 5.35
      vertex 30.7805 0.969466 6.31947
      vertex 31.75 9.53674e-07 5.35
    endloop
  endfacet
  facet normal 0.707107 6.17089e-08 0.707107
    outer loop
      vertex 30.75 11.7 6.35
      vertex 30.7805 0.969466 6.31947
      vertex 31.75 12.7 5.35
    endloop
  endfacet
  facet normal 0.707118 1.26049e-07 0.707096
    outer loop
      vertex 30.7805 0.969466 6.31947
      vertex 30.75 11.7 6.35
      vertex 30.75 0.999999 6.35
    endloop
  endfacet
  facet normal 1 -0 0
    outer loop
      vertex 1.5553e-15 0.999998 6.35
      vertex 1.5553e-15 12.7 5.35
      vertex 1.5553e-15 12.7 6.35
    endloop
  endfacet
  facet normal 1 0 0
    outer loop
      vertex 1.5553e-15 0.999998 6.35
      vertex 1.5553e-15 1.90735e-07 5.35
      vertex 1.5553e-15 12.7 5.35
    endloop
  endfacet
  facet normal -2.26672e-08 0.707107 0.707107
    outer loop
      vertex 30.75 11.7 6.35
      vertex 0.969465 11.7305 6.31947
      vertex 0.999999 11.7 6.35
    endloop
  endfacet
  facet normal -2.19301e-08 0.707107 0.707106
    outer loop
      vertex 30.75 11.7 6.35
      vertex 31.75 12.7 5.35
      vertex 0.969465 11.7305 6.31947
    endloop
  endfacet
  facet normal -0 0.707107 0.707107
    outer loop
      vertex 1.5553e-15 12.7 5.35
      vertex 0.969465 11.7305 6.31947
      vertex 31.75 12.7 5.35
    endloop
  endfacet
  facet normal -0.707107 -5.12064e-08 0.707107
    outer loop
      vertex 0.969465 11.7305 6.31947
      vertex 0.999999 0.999999 6.35
      vertex 0.999999 11.7 6.35
    endloop
  endfacet
  facet normal -0.707107 -5.12746e-08 0.707107
    outer loop
      vertex 1.5553e-15 1.90735e-07 5.35
      vertex 0.999999 0.999999 6.35
      vertex 0.969465 11.7305 6.31947
    endloop
  endfacet
  facet normal -0.707107 -5.30984e-08 0.707107
    outer loop
      vertex 1.5553e-15 1.90735e-07 5.35
      vertex 0.969465 11.7305 6.31947
      vertex 1.5553e-15 12.7 5.35
    endloop
  endfacet
  facet normal -0.811107 0.486664 0.324443
    outer loop
      vertex 0.999999 0.999999 6.35
      vertex 1.5553e-15 1.90735e-07 5.35
      vertex 1.90735e-07 1.90735e-07 5.35
    endloop
  endfacet
  facet normal -1 0 0
    outer loop
      vertex 0 0 0
      vertex 0 12.7 6.35
      vertex 0 12.7 0
    endloop
  endfacet
  facet normal -1 -0 0
    outer loop
      vertex 0 12.7 6.35
      vertex 0 0 0
      vertex 0 0 6.35
    endloop
  endfacet
  facet normal 1 0 0
    outer loop
      vertex 31.75 9.53674e-07 5.35
      vertex 31.75 12.7 0
      vertex 31.75 12.7 5.35
    endloop
  endfacet
  facet normal 1 0 0
    outer loop
      vertex 31.75 0 0
      vertex 31.75 9.53674e-07 5.35
      vertex 31.75 1.22465e-16 5.35
    endloop
  endfacet
  facet normal 1 -0 0
    outer loop
      vertex 31.75 0 6.35
      vertex 31.75 1.22465e-16 5.35
      vertex 31.75 7.00749e-23 6.35
    endloop
  endfacet
  facet normal 1 0 0
    outer loop
      vertex 31.75 9.53674e-07 5.35
      vertex 31.75 0 0
      vertex 31.75 12.7 0
    endloop
  endfacet
  facet normal 1 0 0
    outer loop
      vertex 31.75 0 0
      vertex 31.75 1.22465e-16 5.35
      vertex 31.75 0 6.35
    endloop
  endfacet
  facet normal 0 -1 0
    outer loop
      vertex 0 0 0
      vertex 31.75 0 6.35
      vertex 0 0 6.35
    endloop
  endfacet
  facet normal 0 -1 -0
    outer loop
      vertex 31.75 0 6.35
      vertex 0 0 0
      vertex 31.75 0 0
    endloop
  endfacet
  facet normal 0 1 -0
    outer loop
      vertex 1.5553e-15 12.7 5.35
      vertex 0 12.7 6.35
      vertex 1.5553e-15 12.7 6.35
    endloop
  endfacet
  facet normal 0 1 0
    outer loop
      vertex 31.75 12.7 5.35
      vertex 31.75 12.7 0
      vertex 1.5553e-15 12.7 5.35
    endloop
  endfacet
  facet normal 0 1 0
    outer loop
      vertex 1.5553e-15 12.7 5.35
      vertex 0 12.7 0
      vertex 0 12.7 6.35
    endloop
  endfacet
  facet normal 0 1 0
    outer loop
      vertex 0 12.7 0
      vertex 1.5553e-15 12.7 5.35
      vertex 31.75 12.7 0
    endloop
  endfacet
endsolid OpenSCAD_Model
