M48
T01C0.028
T02C0.035
T03C0.042
T04C0.060
T05C0.125
%
T01
X00615Y01995
X00745Y01095
X00615Y01295
X00615Y01400
X01155Y02885
X01405Y02995
X01550Y02550
X01365Y03095
X01500Y03755
X01605Y03790
X01975Y03750
X02015Y03850
X02055Y03300
X01750Y03135
X01835Y03345
X02185Y03205
X01815Y02810
X01955Y02850
X01955Y02955
X01875Y02810
X01935Y02605
X02300Y01605
X02260Y01910
X02350Y02550
X02500Y03505
X02500Y03345
X02450Y04050
X02505Y03610
X02400Y03600
X02300Y03550
X02300Y03755
X02830Y03105
X02790Y03005
X02750Y02905
X03195Y02095
X02930Y01665
X03135Y01755
X02790Y01105
X02750Y01005
X02935Y01505
X02890Y01405
X02830Y01205
X02915Y01350
X03775Y01175
X03735Y01035
X03250Y01555
X03545Y02325
X03385Y02260
X03585Y02210
X03515Y02140
X03350Y02795
X03300Y02550
X03250Y03395
X03400Y04050
T02
X00850Y04100
X00850Y04000
X00850Y03900
X00850Y03800
X00850Y03700
X01150Y03700
X01150Y03800
X01150Y03900
X01150Y04000
X01150Y04100
X00850Y03600
X00850Y03500
X00850Y03400
X01150Y03400
X01150Y03500
X01150Y03600
X01450Y03600
X01450Y03500
X01450Y03400
X01450Y03300
X01450Y03200
X01750Y03200
X01750Y03300
X01750Y03400
X01750Y03500
X01750Y03600
X01450Y04100
X01450Y04000
X01450Y03900
X01450Y03800
X01450Y03700
X01750Y03700
X01750Y03800
X01750Y03900
X01750Y04000
X01750Y04100
X01650Y04250
X01550Y04250
X02100Y04050
X02100Y03950
X02100Y03850
X02100Y03750
X02100Y03650
X02100Y03550
X02100Y03450
X02100Y03350
X02100Y03250
X02100Y03150
X02100Y03050
X02100Y02950
X02100Y02850
X02100Y02750
X02100Y02650
X02100Y02550
X02100Y02150
X02100Y02050
X02100Y01950
X02100Y01850
X02100Y01750
X02100Y01650
X02100Y01550
X02100Y01450
X02100Y01350
X02100Y01250
X02100Y01150
X02100Y01050
X02100Y00950
X02100Y00850
X02100Y00750
X02100Y00650
X02700Y00650
X02700Y00750
X02700Y00850
X02700Y00950
X02700Y01050
X02700Y01150
X02700Y01250
X02700Y01350
X02700Y01450
X02700Y01550
X02700Y01650
X02700Y01750
X02700Y01850
X02700Y01950
X02700Y02050
X02700Y02150
X02450Y02325
X02350Y02325
X02700Y02550
X02700Y02650
X02700Y02750
X02700Y02850
X02700Y02950
X02700Y03050
X02700Y03150
X02700Y03250
X02700Y03350
X02700Y03450
X02700Y03550
X02700Y03650
X02700Y03750
X02700Y03850
X02700Y03950
X02700Y04050
X02450Y04225
X02350Y04225
X03050Y04050
X03050Y03950
X03050Y03850
X03050Y03750
X03050Y03650
X03050Y03550
X03050Y03450
X03050Y03350
X03050Y03250
X03050Y03150
X03050Y03050
X03050Y02950
X03050Y02850
X03050Y02750
X03050Y02650
X03050Y02550
X03050Y02150
X03050Y02050
X03050Y01950
X03050Y01850
X03050Y01750
X03050Y01650
X03050Y01550
X03050Y01450
X03050Y01350
X03050Y01250
X03050Y01150
X03050Y01050
X03050Y00950
X03050Y00850
X03050Y00750
X03050Y00650
X03650Y00650
X03650Y00750
X03650Y00850
X03650Y00950
X03650Y01050
X03650Y01150
X03650Y01250
X03650Y01350
X03650Y01450
X03650Y01550
X03650Y01650
X03650Y01750
X03650Y01850
X03650Y01950
X03650Y02050
X03650Y02150
X03400Y02325
X03300Y02325
X03650Y02550
X03650Y02650
X03650Y02750
X03650Y02850
X03650Y02950
X03650Y03050
X03650Y03150
X03650Y03250
X03650Y03350
X03650Y03450
X03650Y03550
X03650Y03650
X03650Y03750
X03650Y03850
X03650Y03950
X03650Y04050
X03400Y04225
X03300Y04225
T03
X00450Y02900
X00450Y02800
X00450Y02700
X00450Y02600
X00450Y02500
X00450Y02400
X00450Y02300
X00450Y02200
X00450Y02100
X00450Y02000
X00450Y01900
X00450Y01800
X00450Y01700
X00450Y01600
X00450Y01500
X00450Y01400
X00450Y01300
X00450Y01200
X00450Y01100
X00450Y01000
X00450Y00900
X00450Y00800
X00450Y00700
X00450Y00600
X00450Y00500
X00550Y00800
X00550Y00700
X00550Y00600
X00550Y00500
X00550Y01200
X00550Y01100
X00550Y01000
X00550Y00900
X00550Y01600
X00550Y01500
X00550Y01400
X00550Y01300
X00550Y02000
X00550Y01900
X00550Y01800
X00550Y01700
X00550Y02400
X00550Y02300
X00550Y02200
X00550Y02100
X00550Y02900
X00550Y02800
X00550Y02700
X00550Y02600
X00550Y02500
T04
X01350Y02900
X01350Y02100
X01350Y01600
X01350Y00800
T05
X02300Y00375
X03050Y04375
M00
