M48
T01C0.014
T02C0.028
T03C0.035
T04C0.042
T05C0.086
T06C0.125
T07C0.152
%
T01
X00945Y03675
X00865Y03380
X01210Y03425
X00880Y03520
X00560Y03200
X01250Y03415
X00505Y03100
X00540Y03240
X01325Y02485
X01415Y02525
X01385Y02675
X00780Y02400
X00865Y02665
X01125Y02760
X01280Y02525
X01325Y02585
X01325Y01925
X01385Y02325
X01100Y02285
X01295Y01985
X00635Y02255
X00895Y01705
X01355Y02115
X01045Y02165
X01295Y02175
X01075Y01475
X00615Y01555
X01245Y01155
X01385Y01155
X01385Y01255
X00925Y01350
X01400Y01355
X00585Y01445
X00555Y01400
X00535Y01255
X00505Y01155
X00925Y01125
X00475Y00945
X02180Y00675
X01870Y00385
X02125Y00575
X02215Y00575
X02145Y01000
X01555Y01580
X02165Y01095
X02305Y01095
X01675Y01575
X01515Y01575
X02165Y01300
X02325Y01445
X01875Y01985
X01975Y01705
X02305Y01875
X01610Y01805
X01575Y02015
X01845Y02145
X01915Y01980
X02185Y01875
X01675Y02290
X02330Y02030
X02245Y01770
X02305Y02065
X02290Y02255
X02325Y01730
X02355Y01700
X01575Y02325
X02125Y02325
X02330Y02615
X02250Y02455
X02300Y02645
X01695Y02510
X02330Y02720
X02185Y02475
X01695Y02990
X02270Y02520
X02225Y02520
X02290Y02450
X01445Y02400
X01935Y02910
X01905Y02645
X01470Y03170
X01615Y03475
X02330Y03475
X01715Y03625
X01630Y03255
X02125Y03195
X02100Y03415
X01565Y03170
X01985Y03665
X01840Y04125
X01705Y04095
X01735Y03970
X02770Y04245
X02615Y03765
X02485Y03470
X03010Y03165
X02630Y03160
X02510Y03605
X02450Y03075
X02965Y03505
X02875Y03445
X03110Y03605
X03075Y03225
X03115Y03005
X02725Y02945
X02500Y02850
X03150Y02725
X02585Y02910
X02875Y02920
X02845Y02615
X03145Y02555
X03275Y02505
X02875Y02405
X02755Y02760
X02940Y02820
X02905Y02880
X03135Y01745
X02505Y01890
X03025Y02000
X03285Y01880
X03275Y02115
X02915Y01875
X03175Y02150
X02675Y01290
X03005Y01605
X03225Y01250
X03150Y01075
X02885Y01070
X02855Y01515
X03025Y01240
X03025Y01315
X02375Y01345
X02410Y01645
X02495Y01450
X02915Y01415
X02825Y01030
X02825Y01270
X02565Y01185
X02575Y00815
X02945Y00745
X02975Y00845
X02370Y00605
X02825Y00570
X02615Y00355
X03010Y00915
X03015Y00815
X02860Y00870
X02675Y00895
X03525Y00970
X04140Y00995
X04110Y00645
X03315Y00835
X03700Y00855
X03845Y01655
X04000Y01500
X03545Y01090
X04110Y01645
X03675Y01275
X03675Y01055
X04140Y01470
X03335Y02235
X03435Y01985
X03315Y01750
X03705Y02025
X04005Y02285
X03365Y02325
X03870Y02285
X03870Y01815
X03525Y01955
X03345Y02150
X03615Y02495
X03545Y02475
X03365Y02505
X03615Y02540
X03585Y02880
X03390Y02920
X03675Y02690
X04120Y02445
X04065Y03225
X03335Y03035
X03675Y03165
X03330Y03085
X03975Y03505
X03330Y03475
X04200Y03475
X03415Y03475
X04180Y03155
X03870Y03965
X03870Y04320
X03570Y04320
X03995Y03905
X03585Y03730
X04200Y03745
X03660Y04135
X03600Y03875
X03630Y04165
X03800Y04070
X04315Y04180
X04255Y04195
X04485Y03965
X04590Y03875
X04325Y03480
X04320Y03520
X04990Y03325
X04475Y03595
X05060Y02400
X04995Y02290
X04910Y01275
X04975Y01025
X05095Y01650
X04615Y01205
X04775Y01350
X04425Y01325
X04455Y01240
X04735Y01045
X04510Y01145
X04275Y01455
X04430Y01070
X04915Y01600
X04615Y00880
X04910Y00555
X04305Y00845
X04920Y00365
X05790Y00540
X05790Y00600
X05820Y00740
X05820Y00825
X05185Y00525
X05820Y01195
X05490Y01750
X06125Y02275
X05725Y01905
X05725Y01795
X05760Y01825
X05790Y02125
X05910Y01970
X05210Y02655
X05275Y03250
T02
X00700Y03875
X00700Y03775
X00750Y03825
T03
X01250Y04350
X01150Y04350
X01150Y04050
X01250Y04050
X01000Y04250
X01000Y04050
X00800Y04250
X00800Y04050
X01300Y03850
X01200Y03850
X01100Y03850
X00400Y03950
X00500Y03950
X00400Y03850
X00500Y03850
X00400Y03750
X00500Y03750
X00400Y03400
X00400Y03300
X00400Y03200
X00400Y03100
X01000Y03100
X01000Y03200
X01000Y03300
X01000Y03400
X00650Y03550
X00750Y03550
X01300Y03350
X01200Y03350
X01100Y03550
X01200Y03550
X01300Y03550
X00400Y03650
X00500Y03650
X01200Y02700
X01200Y02600
X01200Y02500
X01200Y02400
X01300Y02800
X00400Y03000
X00400Y02900
X00400Y02800
X00400Y02700
X00400Y02600
X00400Y02500
X00400Y02400
X01000Y02400
X01000Y02500
X01000Y02600
X01000Y02700
X01000Y02800
X01000Y02900
X01000Y03000
X01200Y03050
X01300Y03050
X01200Y02300
X01200Y02200
X01200Y02100
X01200Y02000
X01200Y01900
X01200Y01800
X00400Y02300
X00400Y02200
X00400Y02100
X01000Y02100
X01000Y02200
X01000Y02300
X00650Y01850
X00750Y01850
X01200Y01500
X01200Y01400
X01200Y01300
X01200Y01200
X01200Y01100
X00400Y01700
X00400Y01600
X00400Y01500
X00400Y01400
X00400Y01300
X00400Y01200
X00400Y01100
X01000Y01100
X01000Y01200
X01000Y01300
X01000Y01400
X01000Y01500
X01000Y01600
X01000Y01700
X01300Y01600
X01200Y01000
X01200Y00900
X01200Y00800
X01200Y00700
X01200Y00600
X01200Y00500
X01200Y00400
X00400Y01000
X00400Y00900
X00400Y00800
X00400Y00700
X00400Y00600
X00400Y00500
X00400Y00400
X01000Y00400
X01000Y00500
X01000Y00600
X01000Y00700
X01000Y00800
X01000Y00900
X01000Y01000
X01750Y01000
X01750Y00900
X01750Y00800
X01750Y00700
X01750Y00600
X01750Y00500
X01750Y00400
X02050Y00400
X02050Y00500
X02050Y00600
X02050Y00700
X02050Y00800
X02050Y00900
X02050Y01000
X01500Y00400
X01500Y00500
X01500Y00600
X01500Y00700
X01500Y00800
X01500Y00900
X01500Y01000
X01750Y01500
X01750Y01400
X01750Y01300
X01750Y01200
X01750Y01100
X02050Y01100
X02050Y01200
X02050Y01300
X02050Y01400
X02050Y01500
X01500Y01100
X01500Y01200
X01500Y01300
X01500Y01400
X01500Y01500
X01400Y01600
X01950Y01600
X01850Y01600
X01500Y01800
X01500Y01900
X01500Y02000
X01500Y02100
X01500Y02200
X01500Y02300
X01750Y02300
X01750Y02200
X01750Y02100
X01750Y02000
X01750Y01900
X01750Y01800
X02050Y01800
X02050Y01900
X02050Y02000
X02050Y02100
X02050Y02200
X02050Y02300
X01500Y02400
X01500Y02500
X01500Y02600
X01500Y02700
X01750Y02700
X01750Y02600
X01750Y02500
X01750Y02400
X02050Y02400
X02050Y02500
X02050Y02600
X02050Y02700
X01400Y02800
X02100Y03050
X02200Y03050
X01950Y02800
X01850Y02800
X01400Y03050
X01500Y03050
X01600Y03050
X01700Y03050
X01800Y03050
X02200Y03350
X02100Y03350
X01800Y03350
X01700Y03350
X01600Y03350
X01500Y03350
X01400Y03350
X01900Y03150
X01900Y03250
X01400Y03550
X01500Y03550
X01600Y03550
X01700Y03550
X01800Y03550
X01900Y03550
X02000Y03550
X02100Y03550
X02200Y03550
X02100Y04050
X02200Y04050
X02200Y04350
X02100Y04350
X01850Y04350
X01750Y04350
X01650Y04350
X01550Y04350
X01450Y04350
X01350Y04350
X01350Y04050
X01450Y04050
X01550Y04050
X01650Y04050
X01750Y04050
X01850Y04050
X02000Y04250
X02000Y04150
X02200Y03850
X02100Y03850
X02000Y03850
X01900Y03850
X01800Y03850
X01700Y03850
X01600Y03850
X01500Y03850
X01400Y03850
X02300Y04050
X02400Y04050
X02500Y04050
X02600Y04050
X02700Y04050
X02800Y04050
X02900Y04050
X03000Y04050
X03100Y04050
X03100Y04350
X03000Y04350
X02900Y04350
X02800Y04350
X02700Y04350
X02600Y04350
X02500Y04350
X02400Y04350
X02300Y04350
X03100Y03850
X03000Y03850
X02900Y03850
X02800Y03850
X02700Y03850
X02600Y03850
X02500Y03850
X02300Y03750
X02700Y03350
X02600Y03350
X02500Y03350
X02400Y03350
X02300Y03350
X02500Y03550
X02600Y03550
X02700Y03550
X02800Y03550
X02900Y03550
X03000Y03550
X03100Y03550
X02800Y03150
X02800Y03250
X02300Y03650
X02450Y02700
X02450Y02600
X02450Y02500
X02450Y02400
X02750Y02400
X02750Y02500
X02750Y02600
X02750Y02700
X02300Y03050
X02400Y03050
X02500Y03050
X02600Y03050
X02700Y03050
X02650Y02800
X02550Y02800
X02450Y02300
X02450Y02200
X02450Y02100
X02450Y02000
X02450Y01900
X02450Y01800
X02750Y01800
X02750Y01900
X02750Y02000
X02750Y02100
X02750Y02200
X02750Y02300
X02450Y01500
X02450Y01400
X02450Y01300
X02450Y01200
X02450Y01100
X02750Y01100
X02750Y01200
X02750Y01300
X02750Y01400
X02750Y01500
X02650Y01600
X02550Y01600
X02450Y01000
X02450Y00900
X02450Y00800
X02450Y00700
X02450Y00600
X02450Y00500
X02450Y00400
X02750Y00400
X02750Y00500
X02750Y00600
X02750Y00700
X02750Y00800
X02750Y00900
X02750Y01000
X03600Y01000
X03600Y00900
X03600Y00800
X03600Y00700
X03600Y00600
X03600Y00500
X03600Y00400
X03600Y01700
X03600Y01600
X03600Y01500
X03600Y01400
X03600Y01300
X03600Y01200
X03600Y01100
X03600Y02300
X03600Y02200
X03600Y02100
X03600Y02000
X03600Y01900
X03600Y01800
X03750Y03050
X03450Y03050
X03750Y02950
X03450Y02950
X03975Y02950
X03975Y02850
X03975Y02750
X03975Y02650
X03750Y02850
X03450Y02850
X03750Y02750
X03450Y02750
X03750Y02650
X03450Y02650
X03850Y02450
X03950Y02450
X03200Y03650
X04000Y03600
X03900Y03600
X03800Y03600
X03700Y03600
X03600Y03600
X03500Y03600
X03400Y03600
X03400Y03300
X03500Y03300
X03600Y03300
X03700Y03300
X03800Y03300
X03900Y03300
X04000Y03300
X03750Y03150
X03450Y03150
X04000Y04400
X03900Y04400
X03800Y04400
X03700Y04400
X03600Y04400
X03600Y03800
X03700Y03800
X03800Y03800
X03900Y03800
X04000Y03800
X03200Y04050
X03200Y04350
X03200Y03750
X03400Y04150
X03400Y03850
X04900Y04400
X04800Y04400
X04700Y04400
X04600Y04400
X04500Y04400
X04400Y04400
X04300Y04400
X04200Y04400
X04100Y04400
X04100Y03800
X04200Y03800
X04300Y03800
X04400Y03800
X04500Y03800
X04600Y03800
X04700Y03800
X04800Y03800
X04900Y03800
X04900Y03400
X04800Y03400
X04700Y03400
X04600Y03400
X04600Y03100
X04700Y03100
X04800Y03100
X04900Y03100
X04900Y03550
X04800Y03550
X04300Y03600
X04200Y03600
X04100Y03600
X04100Y03300
X04200Y03300
X04300Y03300
X04175Y03100
X04075Y03100
X04400Y03400
X04400Y03500
X04700Y03550
X04600Y03550
X04500Y02600
X04500Y02500
X04500Y02400
X04800Y02400
X04800Y02500
X04800Y02600
X04700Y02750
X04600Y02750
X04275Y02650
X04275Y02750
X04275Y02850
X04275Y02950
X04200Y01800
X04200Y01900
X04200Y02000
X04200Y02100
X04200Y02200
X04200Y02300
X04500Y02000
X04500Y01900
X04500Y01800
X04800Y01800
X04800Y01900
X04800Y02000
X04500Y02300
X04800Y02300
X04700Y02100
X04600Y02100
X04200Y01100
X04200Y01200
X04200Y01300
X04200Y01400
X04200Y01500
X04200Y01600
X04200Y01700
X04350Y01500
X04350Y01200
X04500Y01700
X04500Y01600
X04500Y01500
X04500Y01400
X04500Y01300
X04800Y01300
X04800Y01400
X04800Y01500
X04800Y01600
X04800Y01700
X04700Y01100
X04600Y01100
X04200Y00400
X04200Y00500
X04200Y00600
X04200Y00700
X04200Y00800
X04200Y00900
X04200Y01000
X04500Y01000
X04500Y00900
X04500Y00800
X04500Y00700
X04500Y00600
X04500Y00500
X04500Y00400
X04800Y00400
X04800Y00500
X04800Y00600
X04800Y00700
X04800Y00800
X04800Y00900
X04800Y01000
X05050Y01000
X05050Y00900
X05050Y00800
X05050Y00700
X05050Y00600
X05050Y00500
X05050Y00400
X05650Y00400
X05650Y00500
X05650Y00600
X05650Y00700
X05650Y00800
X05650Y00900
X05650Y01000
X05050Y01700
X05050Y01600
X05050Y01500
X05050Y01400
X05050Y01300
X05050Y01200
X05050Y01100
X05650Y01100
X05650Y01200
X05650Y01300
X05650Y01400
X05650Y01500
X05650Y01600
X05650Y01700
X05050Y02300
X05050Y02200
X05050Y02100
X05050Y02000
X05050Y01900
X05050Y01800
X05650Y01800
X05650Y01900
X05650Y02000
X05650Y02100
X05650Y02200
X05650Y02300
X05300Y02450
X05400Y02450
X05700Y02900
X05600Y02900
X05500Y02900
X05400Y02900
X05300Y02900
X05200Y02900
X05100Y02900
X05000Y02900
X05000Y02600
X05100Y02600
X05200Y02600
X05300Y02600
X05400Y02600
X05500Y02600
X05600Y02600
X05700Y02600
X05800Y02700
X05800Y02800
X05550Y03600
X05650Y03600
X05800Y03700
X05300Y03400
X05200Y03400
X05100Y03400
X05000Y03400
X05000Y03100
X05100Y03100
X05200Y03100
X05300Y03100
X05100Y03550
X05000Y03550
X05200Y03550
X05300Y03550
X05500Y04400
X05400Y04400
X05300Y04400
X05200Y04400
X05100Y04400
X05000Y04400
X05000Y03800
X05100Y03800
X05200Y03800
X05300Y03800
X05400Y03800
X05500Y03800
X05650Y04150
X05650Y04050
X05800Y04100
T04
X00800Y04400
X03100Y01100
X03100Y01000
X03200Y01100
X03200Y01000
X03100Y00900
X03100Y00800
X03100Y00700
X03100Y00600
X03100Y00500
X03200Y00900
X03200Y00800
X03200Y00700
X03200Y00600
X03200Y00500
X03100Y01700
X03200Y01700
X03100Y01600
X03200Y01600
X03100Y01500
X03200Y01500
X03100Y01400
X03200Y01400
X03100Y01300
X03200Y01300
X03100Y01200
X03200Y01200
X03100Y02400
X03200Y02400
X03100Y02300
X03200Y02300
X03100Y02200
X03200Y02200
X03100Y02100
X03200Y02100
X03100Y02000
X03200Y02000
X03100Y01900
X03200Y01900
X03100Y01800
X03200Y01800
X03100Y02900
X03200Y02900
X03100Y02800
X03200Y02800
X03100Y02700
X03200Y02700
X03100Y02600
X03200Y02600
X03100Y02500
X03200Y02500
X04350Y01000
X04350Y00900
X06000Y01125
X06100Y01125
X06000Y01025
X06100Y01025
X06000Y00925
X06100Y00925
X06000Y00825
X06100Y00825
X06000Y00725
X06000Y00625
X06000Y00525
X06100Y00725
X06100Y00625
X06100Y00525
X06000Y01725
X06100Y01725
X06000Y01625
X06100Y01625
X06000Y01525
X06100Y01525
X06000Y01425
X06100Y01425
X06000Y01325
X06100Y01325
X06000Y01225
X06100Y01225
X06000Y02425
X06100Y02425
X06000Y02325
X06100Y02325
X06000Y02225
X06100Y02225
X06000Y02125
X06100Y02125
X06000Y02025
X06100Y02025
X06000Y01925
X06100Y01925
X06000Y01825
X06100Y01825
X05850Y03000
X06000Y03025
X06100Y03025
X06000Y02925
X06100Y02925
X06000Y02825
X06100Y02825
X05850Y03100
X05850Y03400
X06000Y03225
X06100Y03225
X06000Y03125
X06100Y03125
X05600Y03200
X05500Y03200
X05600Y03300
X05500Y03300
X05600Y03400
X05500Y03400
X05850Y03500
X05600Y03100
X05500Y03100
T05
X05950Y04250
X05950Y04050
X05950Y03850
X05950Y03650
T06
X00500Y04400
X02250Y00400
X03400Y04400
X05850Y00400
X06050Y03550
X06050Y04350
X05700Y04400
T07
X06350Y04150
X06350Y03750
M00
