solid OpenSCAD_Model
  facet normal -1 0 0
    outer loop
      vertex 18 55 0
      vertex 18 205 5
      vertex 18 205 0
    endloop
  endfacet
  facet normal -1 -0 0
    outer loop
      vertex 18 205 5
      vertex 18 55 0
      vertex 18 55 5
    endloop
  endfacet
  facet normal 0 0 1
    outer loop
      vertex 42.3811 182.699 5
      vertex 61 205 5
      vertex 42.4 183 5
    endloop
  endfacet
  facet normal 0 0 1
    outer loop
      vertex 61 205 5
      vertex 42.3811 183.301 5
      vertex 42.4 183 5
    endloop
  endfacet
  facet normal 0 0 1
    outer loop
      vertex 61 205 5
      vertex 42.3246 183.597 5
      vertex 42.3811 183.301 5
    endloop
  endfacet
  facet normal 0 0 1
    outer loop
      vertex 61 205 5
      vertex 42.2315 183.883 5
      vertex 42.3246 183.597 5
    endloop
  endfacet
  facet normal 0 0 1
    outer loop
      vertex 61 205 5
      vertex 42.1031 184.156 5
      vertex 42.2315 183.883 5
    endloop
  endfacet
  facet normal 0 0 1
    outer loop
      vertex 61 205 5
      vertex 41.9416 184.411 5
      vertex 42.1031 184.156 5
    endloop
  endfacet
  facet normal 0 0 1
    outer loop
      vertex 61 205 5
      vertex 41.7495 184.643 5
      vertex 41.9416 184.411 5
    endloop
  endfacet
  facet normal 0 0 1
    outer loop
      vertex 61 205 5
      vertex 41.5298 184.849 5
      vertex 41.7495 184.643 5
    endloop
  endfacet
  facet normal 0 0 1
    outer loop
      vertex 61 205 5
      vertex 41.286 185.026 5
      vertex 41.5298 184.849 5
    endloop
  endfacet
  facet normal 0 0 1
    outer loop
      vertex 61 205 5
      vertex 41.0219 185.172 5
      vertex 41.286 185.026 5
    endloop
  endfacet
  facet normal 0 0 1
    outer loop
      vertex 61 205 5
      vertex 40.7416 185.283 5
      vertex 41.0219 185.172 5
    endloop
  endfacet
  facet normal 0 0 1
    outer loop
      vertex 61 205 5
      vertex 40.4497 185.357 5
      vertex 40.7416 185.283 5
    endloop
  endfacet
  facet normal 0 0 1
    outer loop
      vertex 61 205 5
      vertex 40.1507 185.395 5
      vertex 40.4497 185.357 5
    endloop
  endfacet
  facet normal 0 0 1
    outer loop
      vertex 61 205 5
      vertex 39.8493 185.395 5
      vertex 40.1507 185.395 5
    endloop
  endfacet
  facet normal -0 0 1
    outer loop
      vertex 18 205 5
      vertex 39.8493 185.395 5
      vertex 61 205 5
    endloop
  endfacet
  facet normal 0 0 1
    outer loop
      vertex 39.8493 185.395 5
      vertex 18 205 5
      vertex 39.5503 185.357 5
    endloop
  endfacet
  facet normal 0 0 1
    outer loop
      vertex 39.5503 185.357 5
      vertex 18 205 5
      vertex 39.2584 185.283 5
    endloop
  endfacet
  facet normal 0 0 1
    outer loop
      vertex 39.2584 185.283 5
      vertex 18 205 5
      vertex 38.9781 185.172 5
    endloop
  endfacet
  facet normal 0 0 1
    outer loop
      vertex 38.9781 185.172 5
      vertex 18 205 5
      vertex 38.714 185.026 5
    endloop
  endfacet
  facet normal 0 0 1
    outer loop
      vertex 37.6189 183.301 5
      vertex 18 205 5
      vertex 37.6 183 5
    endloop
  endfacet
  facet normal 0 0 1
    outer loop
      vertex 37.6754 183.597 5
      vertex 18 205 5
      vertex 37.6189 183.301 5
    endloop
  endfacet
  facet normal 0 0 1
    outer loop
      vertex 37.7685 183.883 5
      vertex 18 205 5
      vertex 37.6754 183.597 5
    endloop
  endfacet
  facet normal 0 0 1
    outer loop
      vertex 37.8969 184.156 5
      vertex 18 205 5
      vertex 37.7685 183.883 5
    endloop
  endfacet
  facet normal 0 0 1
    outer loop
      vertex 38.0584 184.411 5
      vertex 18 205 5
      vertex 37.8969 184.156 5
    endloop
  endfacet
  facet normal 0 0 1
    outer loop
      vertex 38.2505 184.643 5
      vertex 18 205 5
      vertex 38.0584 184.411 5
    endloop
  endfacet
  facet normal 0 0 1
    outer loop
      vertex 38.4702 184.849 5
      vertex 18 205 5
      vertex 38.2505 184.643 5
    endloop
  endfacet
  facet normal 0 0 1
    outer loop
      vertex 38.714 185.026 5
      vertex 18 205 5
      vertex 38.4702 184.849 5
    endloop
  endfacet
  facet normal 0 0 1
    outer loop
      vertex 42.3246 182.403 5
      vertex 61 205 5
      vertex 42.3811 182.699 5
    endloop
  endfacet
  facet normal 0 0 1
    outer loop
      vertex 42.2315 182.117 5
      vertex 61 205 5
      vertex 42.3246 182.403 5
    endloop
  endfacet
  facet normal 0 0 1
    outer loop
      vertex 42.1031 181.844 5
      vertex 61 205 5
      vertex 42.2315 182.117 5
    endloop
  endfacet
  facet normal 0 0 1
    outer loop
      vertex 61 205 5
      vertex 42.1031 181.844 5
      vertex 61 55 5
    endloop
  endfacet
  facet normal -0 0 1
    outer loop
      vertex 41.9416 181.589 5
      vertex 61 55 5
      vertex 42.1031 181.844 5
    endloop
  endfacet
  facet normal -0 0 1
    outer loop
      vertex 41.7495 181.357 5
      vertex 61 55 5
      vertex 41.9416 181.589 5
    endloop
  endfacet
  facet normal -0 0 1
    outer loop
      vertex 41.5298 181.151 5
      vertex 61 55 5
      vertex 41.7495 181.357 5
    endloop
  endfacet
  facet normal -0 0 1
    outer loop
      vertex 41.286 180.974 5
      vertex 61 55 5
      vertex 41.5298 181.151 5
    endloop
  endfacet
  facet normal -0 0 1
    outer loop
      vertex 41.0219 180.828 5
      vertex 61 55 5
      vertex 41.286 180.974 5
    endloop
  endfacet
  facet normal -0 0 1
    outer loop
      vertex 40.7416 180.717 5
      vertex 61 55 5
      vertex 41.0219 180.828 5
    endloop
  endfacet
  facet normal -0 0 1
    outer loop
      vertex 40.4497 180.643 5
      vertex 61 55 5
      vertex 40.7416 180.717 5
    endloop
  endfacet
  facet normal -0 0 1
    outer loop
      vertex 40.1507 180.605 5
      vertex 61 55 5
      vertex 40.4497 180.643 5
    endloop
  endfacet
  facet normal -0 0 1
    outer loop
      vertex 39.8493 180.605 5
      vertex 61 55 5
      vertex 40.1507 180.605 5
    endloop
  endfacet
  facet normal 0 0 1
    outer loop
      vertex 18 55 5
      vertex 39.8493 180.605 5
      vertex 39.5503 180.643 5
    endloop
  endfacet
  facet normal 0 0 1
    outer loop
      vertex 18 55 5
      vertex 39.5503 180.643 5
      vertex 39.2584 180.717 5
    endloop
  endfacet
  facet normal 0 0 1
    outer loop
      vertex 18 55 5
      vertex 39.2584 180.717 5
      vertex 38.9781 180.828 5
    endloop
  endfacet
  facet normal 0 0 1
    outer loop
      vertex 18 55 5
      vertex 38.9781 180.828 5
      vertex 38.714 180.974 5
    endloop
  endfacet
  facet normal 0 0 1
    outer loop
      vertex 18 55 5
      vertex 38.714 180.974 5
      vertex 38.4702 181.151 5
    endloop
  endfacet
  facet normal 0 0 1
    outer loop
      vertex 18 55 5
      vertex 38.4702 181.151 5
      vertex 38.2505 181.357 5
    endloop
  endfacet
  facet normal 0 0 1
    outer loop
      vertex 18 55 5
      vertex 38.2505 181.357 5
      vertex 38.0584 181.589 5
    endloop
  endfacet
  facet normal 0 0 1
    outer loop
      vertex 18 55 5
      vertex 38.0584 181.589 5
      vertex 37.8969 181.844 5
    endloop
  endfacet
  facet normal 0 0 1
    outer loop
      vertex 18 205 5
      vertex 37.8969 181.844 5
      vertex 37.7685 182.117 5
    endloop
  endfacet
  facet normal 0 0 1
    outer loop
      vertex 18 205 5
      vertex 37.7685 182.117 5
      vertex 37.6754 182.403 5
    endloop
  endfacet
  facet normal 0 0 1
    outer loop
      vertex 18 205 5
      vertex 37.6754 182.403 5
      vertex 37.6189 182.699 5
    endloop
  endfacet
  facet normal 0 0 1
    outer loop
      vertex 18 205 5
      vertex 37.6189 182.699 5
      vertex 37.6 183 5
    endloop
  endfacet
  facet normal 0 0 1
    outer loop
      vertex 37.8969 181.844 5
      vertex 18 205 5
      vertex 18 55 5
    endloop
  endfacet
  facet normal 0 0 1
    outer loop
      vertex 39.8493 180.605 5
      vertex 18 55 5
      vertex 61 55 5
    endloop
  endfacet
  facet normal 1 -0 0
    outer loop
      vertex 61 55 5
      vertex 61 205 0
      vertex 61 205 5
    endloop
  endfacet
  facet normal 1 0 0
    outer loop
      vertex 61 205 0
      vertex 61 55 5
      vertex 61 55 0
    endloop
  endfacet
  facet normal 0 1 -0
    outer loop
      vertex 61 205 0
      vertex 18 205 5
      vertex 61 205 5
    endloop
  endfacet
  facet normal 0 1 0
    outer loop
      vertex 18 205 5
      vertex 61 205 0
      vertex 18 205 0
    endloop
  endfacet
  facet normal 0 0 -1
    outer loop
      vertex 42.1031 181.844 0
      vertex 61 205 0
      vertex 61 55 0
    endloop
  endfacet
  facet normal 0 0 -1
    outer loop
      vertex 61 205 0
      vertex 42.3811 182.699 0
      vertex 42.4 183 0
    endloop
  endfacet
  facet normal 0 0 -1
    outer loop
      vertex 61 205 0
      vertex 42.3246 182.403 0
      vertex 42.3811 182.699 0
    endloop
  endfacet
  facet normal 0 0 -1
    outer loop
      vertex 61 205 0
      vertex 42.2315 182.117 0
      vertex 42.3246 182.403 0
    endloop
  endfacet
  facet normal 0 0 -1
    outer loop
      vertex 61 205 0
      vertex 42.1031 181.844 0
      vertex 42.2315 182.117 0
    endloop
  endfacet
  facet normal 0 0 -1
    outer loop
      vertex 61 55 0
      vertex 41.9416 181.589 0
      vertex 42.1031 181.844 0
    endloop
  endfacet
  facet normal 0 0 -1
    outer loop
      vertex 61 55 0
      vertex 41.7495 181.357 0
      vertex 41.9416 181.589 0
    endloop
  endfacet
  facet normal 0 0 -1
    outer loop
      vertex 61 55 0
      vertex 41.5298 181.151 0
      vertex 41.7495 181.357 0
    endloop
  endfacet
  facet normal 0 0 -1
    outer loop
      vertex 61 55 0
      vertex 41.286 180.974 0
      vertex 41.5298 181.151 0
    endloop
  endfacet
  facet normal 0 0 -1
    outer loop
      vertex 61 55 0
      vertex 41.0219 180.828 0
      vertex 41.286 180.974 0
    endloop
  endfacet
  facet normal 0 0 -1
    outer loop
      vertex 61 55 0
      vertex 40.7416 180.717 0
      vertex 41.0219 180.828 0
    endloop
  endfacet
  facet normal 0 0 -1
    outer loop
      vertex 61 55 0
      vertex 40.4497 180.643 0
      vertex 40.7416 180.717 0
    endloop
  endfacet
  facet normal 0 0 -1
    outer loop
      vertex 61 55 0
      vertex 40.1507 180.605 0
      vertex 40.4497 180.643 0
    endloop
  endfacet
  facet normal 0 0 -1
    outer loop
      vertex 61 55 0
      vertex 39.8493 180.605 0
      vertex 40.1507 180.605 0
    endloop
  endfacet
  facet normal 0 0 -1
    outer loop
      vertex 18 55 0
      vertex 39.8493 180.605 0
      vertex 61 55 0
    endloop
  endfacet
  facet normal -0 0 -1
    outer loop
      vertex 39.8493 180.605 0
      vertex 18 55 0
      vertex 39.5503 180.643 0
    endloop
  endfacet
  facet normal -0 0 -1
    outer loop
      vertex 39.5503 180.643 0
      vertex 18 55 0
      vertex 39.2584 180.717 0
    endloop
  endfacet
  facet normal -0 0 -1
    outer loop
      vertex 39.2584 180.717 0
      vertex 18 55 0
      vertex 38.9781 180.828 0
    endloop
  endfacet
  facet normal -0 0 -1
    outer loop
      vertex 38.9781 180.828 0
      vertex 18 55 0
      vertex 38.714 180.974 0
    endloop
  endfacet
  facet normal -0 0 -1
    outer loop
      vertex 38.714 180.974 0
      vertex 18 55 0
      vertex 38.4702 181.151 0
    endloop
  endfacet
  facet normal -0 0 -1
    outer loop
      vertex 38.4702 181.151 0
      vertex 18 55 0
      vertex 38.2505 181.357 0
    endloop
  endfacet
  facet normal -0 0 -1
    outer loop
      vertex 38.2505 181.357 0
      vertex 18 55 0
      vertex 38.0584 181.589 0
    endloop
  endfacet
  facet normal -0 0 -1
    outer loop
      vertex 38.0584 181.589 0
      vertex 18 55 0
      vertex 37.8969 181.844 0
    endloop
  endfacet
  facet normal 0 0 -1
    outer loop
      vertex 18 205 0
      vertex 37.8969 181.844 0
      vertex 18 55 0
    endloop
  endfacet
  facet normal 0 0 -1
    outer loop
      vertex 37.8969 181.844 0
      vertex 18 205 0
      vertex 37.7685 182.117 0
    endloop
  endfacet
  facet normal 0 0 -1
    outer loop
      vertex 37.6754 182.403 0
      vertex 18 205 0
      vertex 37.6189 182.699 0
    endloop
  endfacet
  facet normal 0 0 -1
    outer loop
      vertex 37.7685 182.117 0
      vertex 18 205 0
      vertex 37.6754 182.403 0
    endloop
  endfacet
  facet normal 0 0 -1
    outer loop
      vertex 42.3811 183.301 0
      vertex 61 205 0
      vertex 42.4 183 0
    endloop
  endfacet
  facet normal 0 0 -1
    outer loop
      vertex 42.3246 183.597 0
      vertex 61 205 0
      vertex 42.3811 183.301 0
    endloop
  endfacet
  facet normal 0 0 -1
    outer loop
      vertex 42.2315 183.883 0
      vertex 61 205 0
      vertex 42.3246 183.597 0
    endloop
  endfacet
  facet normal 0 0 -1
    outer loop
      vertex 42.1031 184.156 0
      vertex 61 205 0
      vertex 42.2315 183.883 0
    endloop
  endfacet
  facet normal 0 0 -1
    outer loop
      vertex 41.9416 184.411 0
      vertex 61 205 0
      vertex 42.1031 184.156 0
    endloop
  endfacet
  facet normal 0 0 -1
    outer loop
      vertex 41.7495 184.643 0
      vertex 61 205 0
      vertex 41.9416 184.411 0
    endloop
  endfacet
  facet normal 0 0 -1
    outer loop
      vertex 41.5298 184.849 0
      vertex 61 205 0
      vertex 41.7495 184.643 0
    endloop
  endfacet
  facet normal 0 0 -1
    outer loop
      vertex 41.286 185.026 0
      vertex 61 205 0
      vertex 41.5298 184.849 0
    endloop
  endfacet
  facet normal 0 0 -1
    outer loop
      vertex 41.0219 185.172 0
      vertex 61 205 0
      vertex 41.286 185.026 0
    endloop
  endfacet
  facet normal 0 0 -1
    outer loop
      vertex 40.7416 185.283 0
      vertex 61 205 0
      vertex 41.0219 185.172 0
    endloop
  endfacet
  facet normal 0 0 -1
    outer loop
      vertex 40.4497 185.357 0
      vertex 61 205 0
      vertex 40.7416 185.283 0
    endloop
  endfacet
  facet normal 0 0 -1
    outer loop
      vertex 40.1507 185.395 0
      vertex 61 205 0
      vertex 40.4497 185.357 0
    endloop
  endfacet
  facet normal 0 0 -1
    outer loop
      vertex 39.8493 185.395 0
      vertex 61 205 0
      vertex 40.1507 185.395 0
    endloop
  endfacet
  facet normal 0 0 -1
    outer loop
      vertex 18 205 0
      vertex 39.8493 185.395 0
      vertex 39.5503 185.357 0
    endloop
  endfacet
  facet normal 0 0 -1
    outer loop
      vertex 18 205 0
      vertex 39.5503 185.357 0
      vertex 39.2584 185.283 0
    endloop
  endfacet
  facet normal 0 0 -1
    outer loop
      vertex 18 205 0
      vertex 39.2584 185.283 0
      vertex 38.9781 185.172 0
    endloop
  endfacet
  facet normal 0 0 -1
    outer loop
      vertex 18 205 0
      vertex 38.9781 185.172 0
      vertex 38.714 185.026 0
    endloop
  endfacet
  facet normal 0 0 -1
    outer loop
      vertex 18 205 0
      vertex 38.714 185.026 0
      vertex 38.4702 184.849 0
    endloop
  endfacet
  facet normal 0 0 -1
    outer loop
      vertex 37.6189 182.699 0
      vertex 18 205 0
      vertex 37.6 183 0
    endloop
  endfacet
  facet normal 0 0 -1
    outer loop
      vertex 39.8493 185.395 0
      vertex 18 205 0
      vertex 61 205 0
    endloop
  endfacet
  facet normal 0 0 -1
    outer loop
      vertex 38.2505 184.643 0
      vertex 18 205 0
      vertex 38.4702 184.849 0
    endloop
  endfacet
  facet normal 0 0 -1
    outer loop
      vertex 38.0584 184.411 0
      vertex 18 205 0
      vertex 38.2505 184.643 0
    endloop
  endfacet
  facet normal 0 0 -1
    outer loop
      vertex 37.8969 184.156 0
      vertex 18 205 0
      vertex 38.0584 184.411 0
    endloop
  endfacet
  facet normal 0 0 -1
    outer loop
      vertex 37.7685 183.883 0
      vertex 18 205 0
      vertex 37.8969 184.156 0
    endloop
  endfacet
  facet normal 0 0 -1
    outer loop
      vertex 37.6754 183.597 0
      vertex 18 205 0
      vertex 37.7685 183.883 0
    endloop
  endfacet
  facet normal 0 0 -1
    outer loop
      vertex 37.6189 183.301 0
      vertex 18 205 0
      vertex 37.6754 183.597 0
    endloop
  endfacet
  facet normal 0 0 -1
    outer loop
      vertex 37.6 183 0
      vertex 18 205 0
      vertex 37.6189 183.301 0
    endloop
  endfacet
  facet normal 0 -1 0
    outer loop
      vertex 18 55 0
      vertex 61 55 5
      vertex 18 55 5
    endloop
  endfacet
  facet normal 0 -1 -0
    outer loop
      vertex 61 55 5
      vertex 18 55 0
      vertex 61 55 0
    endloop
  endfacet
  facet normal -0.951055 -0.309023 0
    outer loop
      vertex 42.3246 183.597 0
      vertex 42.2315 183.883 5
      vertex 42.2315 183.883 0
    endloop
  endfacet
  facet normal -0.951055 -0.309023 0
    outer loop
      vertex 42.2315 183.883 5
      vertex 42.3246 183.597 0
      vertex 42.3246 183.597 5
    endloop
  endfacet
  facet normal -0.998026 -0.0628038 0
    outer loop
      vertex 42.4 183 0
      vertex 42.3811 183.301 5
      vertex 42.3811 183.301 0
    endloop
  endfacet
  facet normal -0.998026 -0.0628038 0
    outer loop
      vertex 42.3811 183.301 5
      vertex 42.4 183 0
      vertex 42.4 183 5
    endloop
  endfacet
  facet normal 0 -1 0
    outer loop
      vertex 39.8493 185.395 0
      vertex 40.1507 185.395 5
      vertex 39.8493 185.395 5
    endloop
  endfacet
  facet normal 0 -1 -0
    outer loop
      vertex 40.1507 185.395 5
      vertex 39.8493 185.395 0
      vertex 40.1507 185.395 0
    endloop
  endfacet
  facet normal -0.684538 -0.728977 0
    outer loop
      vertex 41.5298 184.849 0
      vertex 41.7495 184.643 5
      vertex 41.5298 184.849 5
    endloop
  endfacet
  facet normal -0.684538 -0.728977 -0
    outer loop
      vertex 41.7495 184.643 5
      vertex 41.5298 184.849 0
      vertex 41.7495 184.643 0
    endloop
  endfacet
  facet normal 0.684532 -0.728983 0
    outer loop
      vertex 38.2505 184.643 0
      vertex 38.4702 184.849 5
      vertex 38.2505 184.643 5
    endloop
  endfacet
  facet normal 0.684532 -0.728983 0
    outer loop
      vertex 38.4702 184.849 5
      vertex 38.2505 184.643 0
      vertex 38.4702 184.849 0
    endloop
  endfacet
  facet normal 0.368115 -0.92978 0
    outer loop
      vertex 38.9781 185.172 0
      vertex 39.2584 185.283 5
      vertex 38.9781 185.172 5
    endloop
  endfacet
  facet normal 0.368115 -0.92978 0
    outer loop
      vertex 39.2584 185.283 5
      vertex 38.9781 185.172 0
      vertex 39.2584 185.283 0
    endloop
  endfacet
  facet normal 0.770507 0.637431 0
    outer loop
      vertex 38.2505 181.357 5
      vertex 38.0584 181.589 0
      vertex 38.0584 181.589 5
    endloop
  endfacet
  facet normal 0.770507 0.637431 0
    outer loop
      vertex 38.0584 181.589 0
      vertex 38.2505 181.357 5
      vertex 38.2505 181.357 0
    endloop
  endfacet
  facet normal -0.904821 -0.425793 0
    outer loop
      vertex 42.2315 183.883 0
      vertex 42.1031 184.156 5
      vertex 42.1031 184.156 0
    endloop
  endfacet
  facet normal -0.904821 -0.425793 0
    outer loop
      vertex 42.1031 184.156 5
      vertex 42.2315 183.883 0
      vertex 42.2315 183.883 5
    endloop
  endfacet
  facet normal -0.844338 -0.535811 0
    outer loop
      vertex 42.1031 184.156 0
      vertex 41.9416 184.411 5
      vertex 41.9416 184.411 0
    endloop
  endfacet
  facet normal -0.844338 -0.535811 0
    outer loop
      vertex 41.9416 184.411 5
      vertex 42.1031 184.156 0
      vertex 42.1031 184.156 5
    endloop
  endfacet
  facet normal -0.368111 -0.929782 0
    outer loop
      vertex 40.7416 185.283 0
      vertex 41.0219 185.172 5
      vertex 40.7416 185.283 5
    endloop
  endfacet
  facet normal -0.368111 -0.929782 -0
    outer loop
      vertex 41.0219 185.172 5
      vertex 40.7416 185.283 0
      vertex 41.0219 185.172 0
    endloop
  endfacet
  facet normal -0.125352 -0.992112 0
    outer loop
      vertex 40.1507 185.395 0
      vertex 40.4497 185.357 5
      vertex 40.1507 185.395 5
    endloop
  endfacet
  facet normal -0.125352 -0.992112 -0
    outer loop
      vertex 40.4497 185.357 5
      vertex 40.1507 185.395 0
      vertex 40.4497 185.357 0
    endloop
  endfacet
  facet normal -0.587786 -0.809016 0
    outer loop
      vertex 41.286 185.026 0
      vertex 41.5298 184.849 5
      vertex 41.286 185.026 5
    endloop
  endfacet
  facet normal -0.587786 -0.809016 -0
    outer loop
      vertex 41.5298 184.849 5
      vertex 41.286 185.026 0
      vertex 41.5298 184.849 0
    endloop
  endfacet
  facet normal 0.844344 -0.535802 0
    outer loop
      vertex 37.8969 184.156 5
      vertex 38.0584 184.411 0
      vertex 38.0584 184.411 5
    endloop
  endfacet
  facet normal 0.844344 -0.535802 0
    outer loop
      vertex 38.0584 184.411 0
      vertex 37.8969 184.156 5
      vertex 37.8969 184.156 0
    endloop
  endfacet
  facet normal 0.770507 -0.637431 0
    outer loop
      vertex 38.0584 184.411 5
      vertex 38.2505 184.643 0
      vertex 38.2505 184.643 5
    endloop
  endfacet
  facet normal 0.770507 -0.637431 0
    outer loop
      vertex 38.2505 184.643 0
      vertex 38.0584 184.411 5
      vertex 38.0584 184.411 0
    endloop
  endfacet
  facet normal 0.998027 0.0627912 0
    outer loop
      vertex 37.6189 182.699 5
      vertex 37.6 183 0
      vertex 37.6 183 5
    endloop
  endfacet
  facet normal 0.998027 0.0627912 0
    outer loop
      vertex 37.6 183 0
      vertex 37.6189 182.699 5
      vertex 37.6189 182.699 0
    endloop
  endfacet
  facet normal 0.481765 -0.8763 0
    outer loop
      vertex 38.714 185.026 0
      vertex 38.9781 185.172 5
      vertex 38.714 185.026 5
    endloop
  endfacet
  facet normal 0.481765 -0.8763 0
    outer loop
      vertex 38.9781 185.172 5
      vertex 38.714 185.026 0
      vertex 38.9781 185.172 0
    endloop
  endfacet
  facet normal 0.125352 -0.992112 0
    outer loop
      vertex 39.5503 185.357 0
      vertex 39.8493 185.395 5
      vertex 39.5503 185.357 5
    endloop
  endfacet
  facet normal 0.125352 -0.992112 0
    outer loop
      vertex 39.8493 185.395 5
      vertex 39.5503 185.357 0
      vertex 39.8493 185.395 0
    endloop
  endfacet
  facet normal -0.684538 0.728977 0
    outer loop
      vertex 41.7495 181.357 0
      vertex 41.5298 181.151 5
      vertex 41.7495 181.357 5
    endloop
  endfacet
  facet normal -0.684538 0.728977 0
    outer loop
      vertex 41.5298 181.151 5
      vertex 41.7495 181.357 0
      vertex 41.5298 181.151 0
    endloop
  endfacet
  facet normal -0.481765 0.8763 0
    outer loop
      vertex 41.286 180.974 0
      vertex 41.0219 180.828 5
      vertex 41.286 180.974 5
    endloop
  endfacet
  facet normal -0.481765 0.8763 0
    outer loop
      vertex 41.0219 180.828 5
      vertex 41.286 180.974 0
      vertex 41.0219 180.828 0
    endloop
  endfacet
  facet normal 0.587786 0.809016 -0
    outer loop
      vertex 38.714 180.974 0
      vertex 38.4702 181.151 5
      vertex 38.714 180.974 5
    endloop
  endfacet
  facet normal 0.587786 0.809016 0
    outer loop
      vertex 38.4702 181.151 5
      vertex 38.714 180.974 0
      vertex 38.4702 181.151 0
    endloop
  endfacet
  facet normal 0.24868 0.968586 -0
    outer loop
      vertex 39.5503 180.643 0
      vertex 39.2584 180.717 5
      vertex 39.5503 180.643 5
    endloop
  endfacet
  facet normal 0.24868 0.968586 0
    outer loop
      vertex 39.2584 180.717 5
      vertex 39.5503 180.643 0
      vertex 39.2584 180.717 0
    endloop
  endfacet
  facet normal 0.951055 0.309023 0
    outer loop
      vertex 37.7685 182.117 5
      vertex 37.6754 182.403 0
      vertex 37.6754 182.403 5
    endloop
  endfacet
  facet normal 0.951055 0.309023 0
    outer loop
      vertex 37.6754 182.403 0
      vertex 37.7685 182.117 5
      vertex 37.7685 182.117 0
    endloop
  endfacet
  facet normal 0.844344 0.535802 0
    outer loop
      vertex 38.0584 181.589 5
      vertex 37.8969 181.844 0
      vertex 37.8969 181.844 5
    endloop
  endfacet
  facet normal 0.844344 0.535802 0
    outer loop
      vertex 37.8969 181.844 0
      vertex 38.0584 181.589 5
      vertex 38.0584 181.589 0
    endloop
  endfacet
  facet normal 0.904821 0.425793 0
    outer loop
      vertex 37.8969 181.844 5
      vertex 37.7685 182.117 0
      vertex 37.7685 182.117 5
    endloop
  endfacet
  facet normal 0.904821 0.425793 0
    outer loop
      vertex 37.7685 182.117 0
      vertex 37.8969 181.844 5
      vertex 37.8969 181.844 0
    endloop
  endfacet
  facet normal -0.98229 -0.187366 0
    outer loop
      vertex 42.3811 183.301 0
      vertex 42.3246 183.597 5
      vertex 42.3246 183.597 0
    endloop
  endfacet
  facet normal -0.98229 -0.187366 0
    outer loop
      vertex 42.3246 183.597 5
      vertex 42.3811 183.301 0
      vertex 42.3811 183.301 5
    endloop
  endfacet
  facet normal -0.248684 -0.968585 0
    outer loop
      vertex 40.4497 185.357 0
      vertex 40.7416 185.283 5
      vertex 40.4497 185.357 5
    endloop
  endfacet
  facet normal -0.248684 -0.968585 -0
    outer loop
      vertex 40.7416 185.283 5
      vertex 40.4497 185.357 0
      vertex 40.7416 185.283 0
    endloop
  endfacet
  facet normal 0.904821 -0.425793 0
    outer loop
      vertex 37.7685 183.883 5
      vertex 37.8969 184.156 0
      vertex 37.8969 184.156 5
    endloop
  endfacet
  facet normal 0.904821 -0.425793 0
    outer loop
      vertex 37.8969 184.156 0
      vertex 37.7685 183.883 5
      vertex 37.7685 183.883 0
    endloop
  endfacet
  facet normal 0.951055 -0.309023 0
    outer loop
      vertex 37.6754 183.597 5
      vertex 37.7685 183.883 0
      vertex 37.7685 183.883 5
    endloop
  endfacet
  facet normal 0.951055 -0.309023 0
    outer loop
      vertex 37.7685 183.883 0
      vertex 37.6754 183.597 5
      vertex 37.6754 183.597 0
    endloop
  endfacet
  facet normal 0.982288 -0.187378 0
    outer loop
      vertex 37.6189 183.301 5
      vertex 37.6754 183.597 0
      vertex 37.6754 183.597 5
    endloop
  endfacet
  facet normal 0.982288 -0.187378 0
    outer loop
      vertex 37.6754 183.597 0
      vertex 37.6189 183.301 5
      vertex 37.6189 183.301 0
    endloop
  endfacet
  facet normal 0.24868 -0.968586 0
    outer loop
      vertex 39.2584 185.283 0
      vertex 39.5503 185.357 5
      vertex 39.2584 185.283 5
    endloop
  endfacet
  facet normal 0.24868 -0.968586 0
    outer loop
      vertex 39.5503 185.357 5
      vertex 39.2584 185.283 0
      vertex 39.5503 185.357 0
    endloop
  endfacet
  facet normal -0.998026 0.0628038 0
    outer loop
      vertex 42.3811 182.699 0
      vertex 42.4 183 5
      vertex 42.4 183 0
    endloop
  endfacet
  facet normal -0.998026 0.0628038 0
    outer loop
      vertex 42.4 183 5
      vertex 42.3811 182.699 0
      vertex 42.3811 182.699 5
    endloop
  endfacet
  facet normal -0.368111 0.929782 0
    outer loop
      vertex 41.0219 180.828 0
      vertex 40.7416 180.717 5
      vertex 41.0219 180.828 5
    endloop
  endfacet
  facet normal -0.368111 0.929782 0
    outer loop
      vertex 40.7416 180.717 5
      vertex 41.0219 180.828 0
      vertex 40.7416 180.717 0
    endloop
  endfacet
  facet normal -0.125352 0.992112 0
    outer loop
      vertex 40.4497 180.643 0
      vertex 40.1507 180.605 5
      vertex 40.4497 180.643 5
    endloop
  endfacet
  facet normal -0.125352 0.992112 0
    outer loop
      vertex 40.1507 180.605 5
      vertex 40.4497 180.643 0
      vertex 40.1507 180.605 0
    endloop
  endfacet
  facet normal -0.248684 0.968585 0
    outer loop
      vertex 40.7416 180.717 0
      vertex 40.4497 180.643 5
      vertex 40.7416 180.717 5
    endloop
  endfacet
  facet normal -0.248684 0.968585 0
    outer loop
      vertex 40.4497 180.643 5
      vertex 40.7416 180.717 0
      vertex 40.4497 180.643 0
    endloop
  endfacet
  facet normal -0.587786 0.809016 0
    outer loop
      vertex 41.5298 181.151 0
      vertex 41.286 180.974 5
      vertex 41.5298 181.151 5
    endloop
  endfacet
  facet normal -0.587786 0.809016 0
    outer loop
      vertex 41.286 180.974 5
      vertex 41.5298 181.151 0
      vertex 41.286 180.974 0
    endloop
  endfacet
  facet normal -0.770507 0.637431 0
    outer loop
      vertex 41.7495 181.357 0
      vertex 41.9416 181.589 5
      vertex 41.9416 181.589 0
    endloop
  endfacet
  facet normal -0.770507 0.637431 0
    outer loop
      vertex 41.9416 181.589 5
      vertex 41.7495 181.357 0
      vertex 41.7495 181.357 5
    endloop
  endfacet
  facet normal 0.481765 0.8763 -0
    outer loop
      vertex 38.9781 180.828 0
      vertex 38.714 180.974 5
      vertex 38.9781 180.828 5
    endloop
  endfacet
  facet normal 0.481765 0.8763 0
    outer loop
      vertex 38.714 180.974 5
      vertex 38.9781 180.828 0
      vertex 38.714 180.974 0
    endloop
  endfacet
  facet normal 0 1 -0
    outer loop
      vertex 40.1507 180.605 0
      vertex 39.8493 180.605 5
      vertex 40.1507 180.605 5
    endloop
  endfacet
  facet normal 0 1 0
    outer loop
      vertex 39.8493 180.605 5
      vertex 40.1507 180.605 0
      vertex 39.8493 180.605 0
    endloop
  endfacet
  facet normal 0.684532 0.728983 -0
    outer loop
      vertex 38.4702 181.151 0
      vertex 38.2505 181.357 5
      vertex 38.4702 181.151 5
    endloop
  endfacet
  facet normal 0.684532 0.728983 0
    outer loop
      vertex 38.2505 181.357 5
      vertex 38.4702 181.151 0
      vertex 38.2505 181.357 0
    endloop
  endfacet
  facet normal 0.982288 0.187378 0
    outer loop
      vertex 37.6754 182.403 5
      vertex 37.6189 182.699 0
      vertex 37.6189 182.699 5
    endloop
  endfacet
  facet normal 0.982288 0.187378 0
    outer loop
      vertex 37.6189 182.699 0
      vertex 37.6754 182.403 5
      vertex 37.6754 182.403 0
    endloop
  endfacet
  facet normal -0.770507 -0.637431 0
    outer loop
      vertex 41.9416 184.411 0
      vertex 41.7495 184.643 5
      vertex 41.7495 184.643 0
    endloop
  endfacet
  facet normal -0.770507 -0.637431 0
    outer loop
      vertex 41.7495 184.643 5
      vertex 41.9416 184.411 0
      vertex 41.9416 184.411 5
    endloop
  endfacet
  facet normal -0.481765 -0.8763 0
    outer loop
      vertex 41.0219 185.172 0
      vertex 41.286 185.026 5
      vertex 41.0219 185.172 5
    endloop
  endfacet
  facet normal -0.481765 -0.8763 -0
    outer loop
      vertex 41.286 185.026 5
      vertex 41.0219 185.172 0
      vertex 41.286 185.026 0
    endloop
  endfacet
  facet normal 0.998027 -0.0627912 0
    outer loop
      vertex 37.6 183 5
      vertex 37.6189 183.301 0
      vertex 37.6189 183.301 5
    endloop
  endfacet
  facet normal 0.998027 -0.0627912 0
    outer loop
      vertex 37.6189 183.301 0
      vertex 37.6 183 5
      vertex 37.6 183 0
    endloop
  endfacet
  facet normal 0.587786 -0.809016 0
    outer loop
      vertex 38.4702 184.849 0
      vertex 38.714 185.026 5
      vertex 38.4702 184.849 5
    endloop
  endfacet
  facet normal 0.587786 -0.809016 0
    outer loop
      vertex 38.714 185.026 5
      vertex 38.4702 184.849 0
      vertex 38.714 185.026 0
    endloop
  endfacet
  facet normal -0.904821 0.425793 0
    outer loop
      vertex 42.1031 181.844 0
      vertex 42.2315 182.117 5
      vertex 42.2315 182.117 0
    endloop
  endfacet
  facet normal -0.904821 0.425793 0
    outer loop
      vertex 42.2315 182.117 5
      vertex 42.1031 181.844 0
      vertex 42.1031 181.844 5
    endloop
  endfacet
  facet normal -0.951055 0.309023 0
    outer loop
      vertex 42.2315 182.117 0
      vertex 42.3246 182.403 5
      vertex 42.3246 182.403 0
    endloop
  endfacet
  facet normal -0.951055 0.309023 0
    outer loop
      vertex 42.3246 182.403 5
      vertex 42.2315 182.117 0
      vertex 42.2315 182.117 5
    endloop
  endfacet
  facet normal -0.98229 0.187366 0
    outer loop
      vertex 42.3246 182.403 0
      vertex 42.3811 182.699 5
      vertex 42.3811 182.699 0
    endloop
  endfacet
  facet normal -0.98229 0.187366 0
    outer loop
      vertex 42.3811 182.699 5
      vertex 42.3246 182.403 0
      vertex 42.3246 182.403 5
    endloop
  endfacet
  facet normal -0.844338 0.535811 0
    outer loop
      vertex 41.9416 181.589 0
      vertex 42.1031 181.844 5
      vertex 42.1031 181.844 0
    endloop
  endfacet
  facet normal -0.844338 0.535811 0
    outer loop
      vertex 42.1031 181.844 5
      vertex 41.9416 181.589 0
      vertex 41.9416 181.589 5
    endloop
  endfacet
  facet normal 0.368115 0.92978 -0
    outer loop
      vertex 39.2584 180.717 0
      vertex 38.9781 180.828 5
      vertex 39.2584 180.717 5
    endloop
  endfacet
  facet normal 0.368115 0.92978 0
    outer loop
      vertex 38.9781 180.828 5
      vertex 39.2584 180.717 0
      vertex 38.9781 180.828 0
    endloop
  endfacet
  facet normal 0.125352 0.992112 -0
    outer loop
      vertex 39.8493 180.605 0
      vertex 39.5503 180.643 5
      vertex 39.8493 180.605 5
    endloop
  endfacet
  facet normal 0.125352 0.992112 0
    outer loop
      vertex 39.5503 180.643 5
      vertex 39.8493 180.605 0
      vertex 39.5503 180.643 0
    endloop
  endfacet
  facet normal -0 0 1
    outer loop
      vertex 17.3205 50 30
      vertex 60.9615 25.173 30
      vertex 60.9615 50 30
    endloop
  endfacet
  facet normal 0 0 1
    outer loop
      vertex 60.9615 25.173 30
      vertex 17.3205 50 30
      vertex 17.3205 25.173 30
    endloop
  endfacet
  facet normal 0 0 -1
    outer loop
      vertex 0 0 0
      vertex 69 50 0
      vertex 69 0 0
    endloop
  endfacet
  facet normal -0 0 -1
    outer loop
      vertex 69 50 0
      vertex 0 0 0
      vertex 0 50 0
    endloop
  endfacet
  facet normal 0 1 0
    outer loop
      vertex 18 50 18.0711
      vertex 60.9615 50 30
      vertex 61 50 18.0711
    endloop
  endfacet
  facet normal 0 1 0
    outer loop
      vertex 61 50 11
      vertex 69 50 0
      vertex 18 50 11
    endloop
  endfacet
  facet normal 0 1 0
    outer loop
      vertex 61 50 18.0711
      vertex 69 50 0
      vertex 61 50 11
    endloop
  endfacet
  facet normal 0 1 0
    outer loop
      vertex 69 50 0
      vertex 61 50 18.0711
      vertex 60.9615 50 30
    endloop
  endfacet
  facet normal 0 1 0
    outer loop
      vertex 60.9615 50 30
      vertex 18 50 18.0711
      vertex 17.3205 50 30
    endloop
  endfacet
  facet normal 0 1 0
    outer loop
      vertex 0 50 0
      vertex 18 50 18.0711
      vertex 18 50 11
    endloop
  endfacet
  facet normal 0 1 0
    outer loop
      vertex 18 50 18.0711
      vertex 0 50 0
      vertex 17.3205 50 30
    endloop
  endfacet
  facet normal 0 1 0
    outer loop
      vertex 0 50 0
      vertex 18 50 11
      vertex 69 50 0
    endloop
  endfacet
  facet normal 0 -0.766044 0.642788
    outer loop
      vertex 69 0 0
      vertex 17.3205 25.173 30
      vertex 0 0 0
    endloop
  endfacet
  facet normal 0 -0.766044 0.642788
    outer loop
      vertex 17.3205 25.173 30
      vertex 69 0 0
      vertex 60.9615 25.173 30
    endloop
  endfacet
  facet normal -0.866025 0 0.5
    outer loop
      vertex 0 50 0
      vertex 17.3205 25.173 30
      vertex 17.3205 50 30
    endloop
  endfacet
  facet normal -0.866025 0 0.5
    outer loop
      vertex 17.3205 25.173 30
      vertex 0 50 0
      vertex 0 0 0
    endloop
  endfacet
  facet normal 0.965926 -0 0.258819
    outer loop
      vertex 60.9615 25.173 30
      vertex 69 50 0
      vertex 60.9615 50 30
    endloop
  endfacet
  facet normal 0.965926 0 0.258819
    outer loop
      vertex 69 50 0
      vertex 60.9615 25.173 30
      vertex 69 0 0
    endloop
  endfacet
  facet normal -1 0 0
    outer loop
      vertex 61 36.4645 4.53553
      vertex 61 50 11
      vertex 61 40 1
    endloop
  endfacet
  facet normal -1 -0 0
    outer loop
      vertex 61 50 11
      vertex 61 36.4645 4.53553
      vertex 61 50 18.0711
    endloop
  endfacet
  facet normal 0 0.707107 -0.707107
    outer loop
      vertex 61 36.4645 4.53553
      vertex 18 50 18.0711
      vertex 61 50 18.0711
    endloop
  endfacet
  facet normal 0 0.707107 -0.707107
    outer loop
      vertex 18 50 18.0711
      vertex 61 36.4645 4.53553
      vertex 18 36.4645 4.53553
    endloop
  endfacet
  facet normal 1 0 0
    outer loop
      vertex 18 36.4645 4.53553
      vertex 18 50 11
      vertex 18 50 18.0711
    endloop
  endfacet
  facet normal 1 0 0
    outer loop
      vertex 18 50 11
      vertex 18 36.4645 4.53553
      vertex 18 40 1
    endloop
  endfacet
  facet normal 0 -0.707107 0.707107
    outer loop
      vertex 18 40 1
      vertex 61 50 11
      vertex 18 50 11
    endloop
  endfacet
  facet normal 0 -0.707107 0.707107
    outer loop
      vertex 61 50 11
      vertex 18 40 1
      vertex 61 40 1
    endloop
  endfacet
  facet normal 0 0.707107 0.707107
    outer loop
      vertex 61 40 1
      vertex 18 36.4645 4.53553
      vertex 61 36.4645 4.53553
    endloop
  endfacet
  facet normal 0 0.707107 0.707107
    outer loop
      vertex 18 36.4645 4.53553
      vertex 61 40 1
      vertex 18 40 1
    endloop
  endfacet
endsolid OpenSCAD_Model
