ISO-10303-21;
HEADER;
/* Generated by software containing ST-Developer
 * from STEP Tools, Inc. (www.steptools.com) 
 */

FILE_DESCRIPTION(
/* description */ (''),
/* implementation_level */ '2;1');

FILE_NAME(
/* name */ '/Users/ajacocks/Dropbox/3D Printing/pdp-11/guide.step',
/* time_stamp */ '2022-03-17T01:33:22-04:00',
/* author */ (''),
/* organization */ (''),
/* preprocessor_version */ 'ST-DEVELOPER v18.1',
/* originating_system */ 'Autodesk Translation Framework v10.13.0.1454',

/* authorisation */ '');

FILE_SCHEMA (('AUTOMOTIVE_DESIGN { 1 0 10303 214 3 1 1 }'));
ENDSEC;

DATA;
#10=MECHANICAL_DESIGN_GEOMETRIC_PRESENTATION_REPRESENTATION('',(#13,#14,
#15,#16),#1675);
#11=SHAPE_REPRESENTATION_RELATIONSHIP('SRR','None',#1682,#12);
#12=ADVANCED_BREP_SHAPE_REPRESENTATION('',(#17,#18,#19,#20),#1674);
#13=STYLED_ITEM('',(#1691),#17);
#14=STYLED_ITEM('',(#1691),#18);
#15=STYLED_ITEM('',(#1691),#19);
#16=STYLED_ITEM('',(#1691),#20);
#17=MANIFOLD_SOLID_BREP('guide',#1024);
#18=MANIFOLD_SOLID_BREP('tail clip',#1025);
#19=MANIFOLD_SOLID_BREP('head clip',#1026);
#20=MANIFOLD_SOLID_BREP('middle clip',#1027);
#21=PLANE('',#1044);
#22=PLANE('',#1045);
#23=PLANE('',#1046);
#24=PLANE('',#1053);
#25=PLANE('',#1054);
#26=PLANE('',#1057);
#27=PLANE('',#1058);
#28=PLANE('',#1062);
#29=PLANE('',#1065);
#30=PLANE('',#1068);
#31=PLANE('',#1071);
#32=PLANE('',#1074);
#33=PLANE('',#1077);
#34=PLANE('',#1078);
#35=PLANE('',#1079);
#36=PLANE('',#1080);
#37=PLANE('',#1081);
#38=PLANE('',#1082);
#39=PLANE('',#1083);
#40=PLANE('',#1084);
#41=PLANE('',#1085);
#42=PLANE('',#1086);
#43=PLANE('',#1087);
#44=PLANE('',#1088);
#45=PLANE('',#1089);
#46=PLANE('',#1090);
#47=PLANE('',#1091);
#48=PLANE('',#1092);
#49=PLANE('',#1093);
#50=PLANE('',#1094);
#51=PLANE('',#1095);
#52=PLANE('',#1096);
#53=PLANE('',#1097);
#54=PLANE('',#1098);
#55=PLANE('',#1099);
#56=PLANE('',#1100);
#57=PLANE('',#1101);
#58=PLANE('',#1102);
#59=PLANE('',#1103);
#60=PLANE('',#1104);
#61=PLANE('',#1105);
#62=PLANE('',#1106);
#63=PLANE('',#1107);
#64=PLANE('',#1108);
#65=PLANE('',#1109);
#66=PLANE('',#1110);
#67=PLANE('',#1111);
#68=FACE_OUTER_BOUND('',#123,.T.);
#69=FACE_OUTER_BOUND('',#124,.T.);
#70=FACE_OUTER_BOUND('',#125,.T.);
#71=FACE_OUTER_BOUND('',#126,.T.);
#72=FACE_OUTER_BOUND('',#127,.T.);
#73=FACE_OUTER_BOUND('',#128,.T.);
#74=FACE_OUTER_BOUND('',#129,.T.);
#75=FACE_OUTER_BOUND('',#130,.T.);
#76=FACE_OUTER_BOUND('',#131,.T.);
#77=FACE_OUTER_BOUND('',#132,.T.);
#78=FACE_OUTER_BOUND('',#133,.T.);
#79=FACE_OUTER_BOUND('',#134,.T.);
#80=FACE_OUTER_BOUND('',#135,.T.);
#81=FACE_OUTER_BOUND('',#136,.T.);
#82=FACE_OUTER_BOUND('',#137,.T.);
#83=FACE_OUTER_BOUND('',#138,.T.);
#84=FACE_OUTER_BOUND('',#139,.T.);
#85=FACE_OUTER_BOUND('',#140,.T.);
#86=FACE_OUTER_BOUND('',#141,.T.);
#87=FACE_OUTER_BOUND('',#142,.T.);
#88=FACE_OUTER_BOUND('',#143,.T.);
#89=FACE_OUTER_BOUND('',#144,.T.);
#90=FACE_OUTER_BOUND('',#145,.T.);
#91=FACE_OUTER_BOUND('',#146,.T.);
#92=FACE_OUTER_BOUND('',#147,.T.);
#93=FACE_OUTER_BOUND('',#148,.T.);
#94=FACE_OUTER_BOUND('',#149,.T.);
#95=FACE_OUTER_BOUND('',#150,.T.);
#96=FACE_OUTER_BOUND('',#151,.T.);
#97=FACE_OUTER_BOUND('',#152,.T.);
#98=FACE_OUTER_BOUND('',#153,.T.);
#99=FACE_OUTER_BOUND('',#154,.T.);
#100=FACE_OUTER_BOUND('',#155,.T.);
#101=FACE_OUTER_BOUND('',#156,.T.);
#102=FACE_OUTER_BOUND('',#157,.T.);
#103=FACE_OUTER_BOUND('',#158,.T.);
#104=FACE_OUTER_BOUND('',#159,.T.);
#105=FACE_OUTER_BOUND('',#160,.T.);
#106=FACE_OUTER_BOUND('',#161,.T.);
#107=FACE_OUTER_BOUND('',#162,.T.);
#108=FACE_OUTER_BOUND('',#163,.T.);
#109=FACE_OUTER_BOUND('',#164,.T.);
#110=FACE_OUTER_BOUND('',#165,.T.);
#111=FACE_OUTER_BOUND('',#166,.T.);
#112=FACE_OUTER_BOUND('',#167,.T.);
#113=FACE_OUTER_BOUND('',#168,.T.);
#114=FACE_OUTER_BOUND('',#169,.T.);
#115=FACE_OUTER_BOUND('',#170,.T.);
#116=FACE_OUTER_BOUND('',#171,.T.);
#117=FACE_OUTER_BOUND('',#172,.T.);
#118=FACE_OUTER_BOUND('',#173,.T.);
#119=FACE_OUTER_BOUND('',#174,.T.);
#120=FACE_OUTER_BOUND('',#175,.T.);
#121=FACE_OUTER_BOUND('',#176,.T.);
#122=FACE_OUTER_BOUND('',#177,.T.);
#123=EDGE_LOOP('',(#679,#680,#681,#682));
#124=EDGE_LOOP('',(#683,#684,#685,#686));
#125=EDGE_LOOP('',(#687,#688,#689,#690));
#126=EDGE_LOOP('',(#691,#692,#693,#694,#695,#696,#697,#698,#699,#700));
#127=EDGE_LOOP('',(#701,#702,#703,#704));
#128=EDGE_LOOP('',(#705,#706,#707,#708));
#129=EDGE_LOOP('',(#709,#710,#711,#712));
#130=EDGE_LOOP('',(#713,#714,#715,#716));
#131=EDGE_LOOP('',(#717,#718,#719,#720));
#132=EDGE_LOOP('',(#721,#722,#723,#724));
#133=EDGE_LOOP('',(#725,#726,#727,#728));
#134=EDGE_LOOP('',(#729,#730,#731,#732,#733,#734,#735,#736,#737,#738));
#135=EDGE_LOOP('',(#739,#740,#741,#742,#743,#744,#745,#746));
#136=EDGE_LOOP('',(#747,#748,#749,#750));
#137=EDGE_LOOP('',(#751,#752,#753,#754));
#138=EDGE_LOOP('',(#755,#756,#757,#758));
#139=EDGE_LOOP('',(#759,#760,#761,#762,#763,#764,#765,#766));
#140=EDGE_LOOP('',(#767,#768,#769,#770));
#141=EDGE_LOOP('',(#771,#772,#773,#774));
#142=EDGE_LOOP('',(#775,#776,#777,#778));
#143=EDGE_LOOP('',(#779,#780,#781,#782,#783,#784));
#144=EDGE_LOOP('',(#785,#786,#787,#788,#789,#790,#791,#792,#793,#794,#795,
#796,#797,#798));
#145=EDGE_LOOP('',(#799,#800,#801,#802));
#146=EDGE_LOOP('',(#803,#804,#805,#806));
#147=EDGE_LOOP('',(#807,#808,#809,#810));
#148=EDGE_LOOP('',(#811,#812,#813,#814));
#149=EDGE_LOOP('',(#815,#816,#817,#818));
#150=EDGE_LOOP('',(#819,#820,#821,#822));
#151=EDGE_LOOP('',(#823,#824,#825,#826));
#152=EDGE_LOOP('',(#827,#828,#829,#830));
#153=EDGE_LOOP('',(#831,#832,#833,#834));
#154=EDGE_LOOP('',(#835,#836,#837,#838,#839,#840,#841,#842,#843));
#155=EDGE_LOOP('',(#844,#845,#846,#847,#848,#849,#850,#851,#852));
#156=EDGE_LOOP('',(#853,#854,#855,#856));
#157=EDGE_LOOP('',(#857,#858,#859,#860));
#158=EDGE_LOOP('',(#861,#862,#863,#864));
#159=EDGE_LOOP('',(#865,#866,#867,#868));
#160=EDGE_LOOP('',(#869,#870,#871,#872));
#161=EDGE_LOOP('',(#873,#874,#875,#876));
#162=EDGE_LOOP('',(#877,#878,#879,#880));
#163=EDGE_LOOP('',(#881,#882,#883,#884));
#164=EDGE_LOOP('',(#885,#886,#887,#888));
#165=EDGE_LOOP('',(#889,#890,#891,#892,#893,#894,#895,#896,#897));
#166=EDGE_LOOP('',(#898,#899,#900,#901,#902,#903,#904,#905,#906));
#167=EDGE_LOOP('',(#907,#908,#909,#910));
#168=EDGE_LOOP('',(#911,#912,#913,#914));
#169=EDGE_LOOP('',(#915,#916,#917,#918));
#170=EDGE_LOOP('',(#919,#920,#921,#922));
#171=EDGE_LOOP('',(#923,#924,#925,#926));
#172=EDGE_LOOP('',(#927,#928,#929,#930));
#173=EDGE_LOOP('',(#931,#932,#933,#934));
#174=EDGE_LOOP('',(#935,#936,#937,#938));
#175=EDGE_LOOP('',(#939,#940,#941,#942));
#176=EDGE_LOOP('',(#943,#944,#945,#946,#947,#948,#949,#950,#951));
#177=EDGE_LOOP('',(#952,#953,#954,#955,#956,#957,#958,#959,#960));
#178=LINE('',#1387,#303);
#179=LINE('',#1390,#304);
#180=LINE('',#1393,#305);
#181=LINE('',#1395,#306);
#182=LINE('',#1396,#307);
#183=LINE('',#1399,#308);
#184=LINE('',#1401,#309);
#185=LINE('',#1402,#310);
#186=LINE('',#1405,#311);
#187=LINE('',#1407,#312);
#188=LINE('',#1411,#313);
#189=LINE('',#1415,#314);
#190=LINE('',#1422,#315);
#191=LINE('',#1425,#316);
#192=LINE('',#1428,#317);
#193=LINE('',#1430,#318);
#194=LINE('',#1431,#319);
#195=LINE('',#1434,#320);
#196=LINE('',#1436,#321);
#197=LINE('',#1437,#322);
#198=LINE('',#1442,#323);
#199=LINE('',#1443,#324);
#200=LINE('',#1446,#325);
#201=LINE('',#1447,#326);
#202=LINE('',#1451,#327);
#203=LINE('',#1453,#328);
#204=LINE('',#1455,#329);
#205=LINE('',#1456,#330);
#206=LINE('',#1462,#331);
#207=LINE('',#1464,#332);
#208=LINE('',#1468,#333);
#209=LINE('',#1471,#334);
#210=LINE('',#1473,#335);
#211=LINE('',#1475,#336);
#212=LINE('',#1477,#337);
#213=LINE('',#1478,#338);
#214=LINE('',#1482,#339);
#215=LINE('',#1485,#340);
#216=LINE('',#1486,#341);
#217=LINE('',#1490,#342);
#218=LINE('',#1491,#343);
#219=LINE('',#1495,#344);
#220=LINE('',#1498,#345);
#221=LINE('',#1499,#346);
#222=LINE('',#1507,#347);
#223=LINE('',#1509,#348);
#224=LINE('',#1511,#349);
#225=LINE('',#1512,#350);
#226=LINE('',#1515,#351);
#227=LINE('',#1517,#352);
#228=LINE('',#1518,#353);
#229=LINE('',#1522,#354);
#230=LINE('',#1524,#355);
#231=LINE('',#1526,#356);
#232=LINE('',#1527,#357);
#233=LINE('',#1530,#358);
#234=LINE('',#1532,#359);
#235=LINE('',#1533,#360);
#236=LINE('',#1536,#361);
#237=LINE('',#1538,#362);
#238=LINE('',#1539,#363);
#239=LINE('',#1542,#364);
#240=LINE('',#1544,#365);
#241=LINE('',#1545,#366);
#242=LINE('',#1548,#367);
#243=LINE('',#1550,#368);
#244=LINE('',#1551,#369);
#245=LINE('',#1553,#370);
#246=LINE('',#1554,#371);
#247=LINE('',#1556,#372);
#248=LINE('',#1557,#373);
#249=LINE('',#1563,#374);
#250=LINE('',#1565,#375);
#251=LINE('',#1567,#376);
#252=LINE('',#1568,#377);
#253=LINE('',#1571,#378);
#254=LINE('',#1573,#379);
#255=LINE('',#1574,#380);
#256=LINE('',#1578,#381);
#257=LINE('',#1580,#382);
#258=LINE('',#1582,#383);
#259=LINE('',#1583,#384);
#260=LINE('',#1586,#385);
#261=LINE('',#1588,#386);
#262=LINE('',#1589,#387);
#263=LINE('',#1592,#388);
#264=LINE('',#1594,#389);
#265=LINE('',#1595,#390);
#266=LINE('',#1598,#391);
#267=LINE('',#1600,#392);
#268=LINE('',#1601,#393);
#269=LINE('',#1604,#394);
#270=LINE('',#1606,#395);
#271=LINE('',#1607,#396);
#272=LINE('',#1609,#397);
#273=LINE('',#1610,#398);
#274=LINE('',#1612,#399);
#275=LINE('',#1613,#400);
#276=LINE('',#1619,#401);
#277=LINE('',#1621,#402);
#278=LINE('',#1623,#403);
#279=LINE('',#1624,#404);
#280=LINE('',#1627,#405);
#281=LINE('',#1629,#406);
#282=LINE('',#1630,#407);
#283=LINE('',#1634,#408);
#284=LINE('',#1636,#409);
#285=LINE('',#1638,#410);
#286=LINE('',#1639,#411);
#287=LINE('',#1642,#412);
#288=LINE('',#1644,#413);
#289=LINE('',#1645,#414);
#290=LINE('',#1648,#415);
#291=LINE('',#1650,#416);
#292=LINE('',#1651,#417);
#293=LINE('',#1654,#418);
#294=LINE('',#1656,#419);
#295=LINE('',#1657,#420);
#296=LINE('',#1660,#421);
#297=LINE('',#1662,#422);
#298=LINE('',#1663,#423);
#299=LINE('',#1665,#424);
#300=LINE('',#1666,#425);
#301=LINE('',#1668,#426);
#302=LINE('',#1669,#427);
#303=VECTOR('',#1118,10.);
#304=VECTOR('',#1121,10.);
#305=VECTOR('',#1124,10.);
#306=VECTOR('',#1125,10.);
#307=VECTOR('',#1126,10.);
#308=VECTOR('',#1129,10.);
#309=VECTOR('',#1130,10.);
#310=VECTOR('',#1131,10.);
#311=VECTOR('',#1134,10.);
#312=VECTOR('',#1135,10.);
#313=VECTOR('',#1138,10.);
#314=VECTOR('',#1141,10.);
#315=VECTOR('',#1148,10.);
#316=VECTOR('',#1151,10.);
#317=VECTOR('',#1154,10.);
#318=VECTOR('',#1155,10.);
#319=VECTOR('',#1156,10.);
#320=VECTOR('',#1159,10.);
#321=VECTOR('',#1160,10.);
#322=VECTOR('',#1161,10.);
#323=VECTOR('',#1166,10.);
#324=VECTOR('',#1167,10.);
#325=VECTOR('',#1170,10.);
#326=VECTOR('',#1171,10.);
#327=VECTOR('',#1174,10.);
#328=VECTOR('',#1175,10.);
#329=VECTOR('',#1176,10.);
#330=VECTOR('',#1177,10.);
#331=VECTOR('',#1184,10.);
#332=VECTOR('',#1187,10.);
#333=VECTOR('',#1190,10.);
#334=VECTOR('',#1193,10.);
#335=VECTOR('',#1196,10.);
#336=VECTOR('',#1197,10.);
#337=VECTOR('',#1198,10.);
#338=VECTOR('',#1199,10.);
#339=VECTOR('',#1204,10.);
#340=VECTOR('',#1207,10.);
#341=VECTOR('',#1208,10.);
#342=VECTOR('',#1215,10.);
#343=VECTOR('',#1216,10.);
#344=VECTOR('',#1221,10.);
#345=VECTOR('',#1224,10.);
#346=VECTOR('',#1225,10.);
#347=VECTOR('',#1236,10.);
#348=VECTOR('',#1237,10.);
#349=VECTOR('',#1238,10.);
#350=VECTOR('',#1239,10.);
#351=VECTOR('',#1242,10.);
#352=VECTOR('',#1243,10.);
#353=VECTOR('',#1244,10.);
#354=VECTOR('',#1247,10.);
#355=VECTOR('',#1248,10.);
#356=VECTOR('',#1249,10.);
#357=VECTOR('',#1250,10.);
#358=VECTOR('',#1253,10.);
#359=VECTOR('',#1254,10.);
#360=VECTOR('',#1255,10.);
#361=VECTOR('',#1258,10.);
#362=VECTOR('',#1259,10.);
#363=VECTOR('',#1260,10.);
#364=VECTOR('',#1263,10.);
#365=VECTOR('',#1264,10.);
#366=VECTOR('',#1265,10.);
#367=VECTOR('',#1268,10.);
#368=VECTOR('',#1269,10.);
#369=VECTOR('',#1270,10.);
#370=VECTOR('',#1273,10.);
#371=VECTOR('',#1274,10.);
#372=VECTOR('',#1277,10.);
#373=VECTOR('',#1278,10.);
#374=VECTOR('',#1285,10.);
#375=VECTOR('',#1286,10.);
#376=VECTOR('',#1287,10.);
#377=VECTOR('',#1288,10.);
#378=VECTOR('',#1291,10.);
#379=VECTOR('',#1292,10.);
#380=VECTOR('',#1293,10.);
#381=VECTOR('',#1296,10.);
#382=VECTOR('',#1297,10.);
#383=VECTOR('',#1298,10.);
#384=VECTOR('',#1299,10.);
#385=VECTOR('',#1302,10.);
#386=VECTOR('',#1303,10.);
#387=VECTOR('',#1304,10.);
#388=VECTOR('',#1307,10.);
#389=VECTOR('',#1308,10.);
#390=VECTOR('',#1309,10.);
#391=VECTOR('',#1312,10.);
#392=VECTOR('',#1313,10.);
#393=VECTOR('',#1314,10.);
#394=VECTOR('',#1317,10.);
#395=VECTOR('',#1318,10.);
#396=VECTOR('',#1319,10.);
#397=VECTOR('',#1322,10.);
#398=VECTOR('',#1323,10.);
#399=VECTOR('',#1326,10.);
#400=VECTOR('',#1327,10.);
#401=VECTOR('',#1334,10.);
#402=VECTOR('',#1335,10.);
#403=VECTOR('',#1336,10.);
#404=VECTOR('',#1337,10.);
#405=VECTOR('',#1340,10.);
#406=VECTOR('',#1341,10.);
#407=VECTOR('',#1342,10.);
#408=VECTOR('',#1345,10.);
#409=VECTOR('',#1346,10.);
#410=VECTOR('',#1347,10.);
#411=VECTOR('',#1348,10.);
#412=VECTOR('',#1351,10.);
#413=VECTOR('',#1352,10.);
#414=VECTOR('',#1353,10.);
#415=VECTOR('',#1356,10.);
#416=VECTOR('',#1357,10.);
#417=VECTOR('',#1358,10.);
#418=VECTOR('',#1361,10.);
#419=VECTOR('',#1362,10.);
#420=VECTOR('',#1363,10.);
#421=VECTOR('',#1366,10.);
#422=VECTOR('',#1367,10.);
#423=VECTOR('',#1368,10.);
#424=VECTOR('',#1371,10.);
#425=VECTOR('',#1372,10.);
#426=VECTOR('',#1375,10.);
#427=VECTOR('',#1376,10.);
#428=CIRCLE('',#1042,1.);
#429=CIRCLE('',#1043,1.);
#430=CIRCLE('',#1047,1.5);
#431=CIRCLE('',#1048,0.5);
#432=CIRCLE('',#1049,0.5);
#433=CIRCLE('',#1051,1.);
#434=CIRCLE('',#1052,1.);
#435=CIRCLE('',#1056,1.5);
#436=CIRCLE('',#1060,1.5);
#437=CIRCLE('',#1061,1.5);
#438=CIRCLE('',#1063,0.5);
#439=CIRCLE('',#1064,0.499999999999999);
#440=CIRCLE('',#1067,0.5);
#441=CIRCLE('',#1070,0.5);
#442=CIRCLE('',#1073,0.5);
#443=CIRCLE('',#1076,0.499999999999999);
#444=VERTEX_POINT('',#1383);
#445=VERTEX_POINT('',#1384);
#446=VERTEX_POINT('',#1386);
#447=VERTEX_POINT('',#1388);
#448=VERTEX_POINT('',#1392);
#449=VERTEX_POINT('',#1394);
#450=VERTEX_POINT('',#1398);
#451=VERTEX_POINT('',#1400);
#452=VERTEX_POINT('',#1404);
#453=VERTEX_POINT('',#1406);
#454=VERTEX_POINT('',#1408);
#455=VERTEX_POINT('',#1410);
#456=VERTEX_POINT('',#1412);
#457=VERTEX_POINT('',#1414);
#458=VERTEX_POINT('',#1418);
#459=VERTEX_POINT('',#1419);
#460=VERTEX_POINT('',#1421);
#461=VERTEX_POINT('',#1423);
#462=VERTEX_POINT('',#1427);
#463=VERTEX_POINT('',#1429);
#464=VERTEX_POINT('',#1433);
#465=VERTEX_POINT('',#1435);
#466=VERTEX_POINT('',#1439);
#467=VERTEX_POINT('',#1440);
#468=VERTEX_POINT('',#1445);
#469=VERTEX_POINT('',#1449);
#470=VERTEX_POINT('',#1450);
#471=VERTEX_POINT('',#1452);
#472=VERTEX_POINT('',#1454);
#473=VERTEX_POINT('',#1458);
#474=VERTEX_POINT('',#1460);
#475=VERTEX_POINT('',#1465);
#476=VERTEX_POINT('',#1467);
#477=VERTEX_POINT('',#1469);
#478=VERTEX_POINT('',#1474);
#479=VERTEX_POINT('',#1476);
#480=VERTEX_POINT('',#1480);
#481=VERTEX_POINT('',#1484);
#482=VERTEX_POINT('',#1493);
#483=VERTEX_POINT('',#1497);
#484=VERTEX_POINT('',#1505);
#485=VERTEX_POINT('',#1506);
#486=VERTEX_POINT('',#1508);
#487=VERTEX_POINT('',#1510);
#488=VERTEX_POINT('',#1514);
#489=VERTEX_POINT('',#1516);
#490=VERTEX_POINT('',#1520);
#491=VERTEX_POINT('',#1521);
#492=VERTEX_POINT('',#1523);
#493=VERTEX_POINT('',#1525);
#494=VERTEX_POINT('',#1529);
#495=VERTEX_POINT('',#1531);
#496=VERTEX_POINT('',#1535);
#497=VERTEX_POINT('',#1537);
#498=VERTEX_POINT('',#1541);
#499=VERTEX_POINT('',#1543);
#500=VERTEX_POINT('',#1547);
#501=VERTEX_POINT('',#1549);
#502=VERTEX_POINT('',#1561);
#503=VERTEX_POINT('',#1562);
#504=VERTEX_POINT('',#1564);
#505=VERTEX_POINT('',#1566);
#506=VERTEX_POINT('',#1570);
#507=VERTEX_POINT('',#1572);
#508=VERTEX_POINT('',#1576);
#509=VERTEX_POINT('',#1577);
#510=VERTEX_POINT('',#1579);
#511=VERTEX_POINT('',#1581);
#512=VERTEX_POINT('',#1585);
#513=VERTEX_POINT('',#1587);
#514=VERTEX_POINT('',#1591);
#515=VERTEX_POINT('',#1593);
#516=VERTEX_POINT('',#1597);
#517=VERTEX_POINT('',#1599);
#518=VERTEX_POINT('',#1603);
#519=VERTEX_POINT('',#1605);
#520=VERTEX_POINT('',#1617);
#521=VERTEX_POINT('',#1618);
#522=VERTEX_POINT('',#1620);
#523=VERTEX_POINT('',#1622);
#524=VERTEX_POINT('',#1626);
#525=VERTEX_POINT('',#1628);
#526=VERTEX_POINT('',#1632);
#527=VERTEX_POINT('',#1633);
#528=VERTEX_POINT('',#1635);
#529=VERTEX_POINT('',#1637);
#530=VERTEX_POINT('',#1641);
#531=VERTEX_POINT('',#1643);
#532=VERTEX_POINT('',#1647);
#533=VERTEX_POINT('',#1649);
#534=VERTEX_POINT('',#1653);
#535=VERTEX_POINT('',#1655);
#536=VERTEX_POINT('',#1659);
#537=VERTEX_POINT('',#1661);
#538=EDGE_CURVE('',#444,#445,#428,.T.);
#539=EDGE_CURVE('',#445,#446,#178,.T.);
#540=EDGE_CURVE('',#446,#447,#429,.T.);
#541=EDGE_CURVE('',#447,#444,#179,.T.);
#542=EDGE_CURVE('',#448,#445,#180,.T.);
#543=EDGE_CURVE('',#449,#448,#181,.T.);
#544=EDGE_CURVE('',#446,#449,#182,.T.);
#545=EDGE_CURVE('',#450,#447,#183,.T.);
#546=EDGE_CURVE('',#450,#451,#184,.T.);
#547=EDGE_CURVE('',#444,#451,#185,.F.);
#548=EDGE_CURVE('',#451,#452,#186,.T.);
#549=EDGE_CURVE('',#452,#453,#187,.T.);
#550=EDGE_CURVE('',#453,#454,#430,.T.);
#551=EDGE_CURVE('',#454,#455,#188,.T.);
#552=EDGE_CURVE('',#455,#456,#431,.T.);
#553=EDGE_CURVE('',#456,#457,#189,.T.);
#554=EDGE_CURVE('',#457,#448,#432,.T.);
#555=EDGE_CURVE('',#458,#459,#433,.T.);
#556=EDGE_CURVE('',#459,#460,#190,.T.);
#557=EDGE_CURVE('',#460,#461,#434,.T.);
#558=EDGE_CURVE('',#461,#458,#191,.T.);
#559=EDGE_CURVE('',#462,#459,#192,.F.);
#560=EDGE_CURVE('',#463,#462,#193,.F.);
#561=EDGE_CURVE('',#460,#463,#194,.T.);
#562=EDGE_CURVE('',#464,#461,#195,.T.);
#563=EDGE_CURVE('',#464,#465,#196,.T.);
#564=EDGE_CURVE('',#458,#465,#197,.T.);
#565=EDGE_CURVE('',#466,#467,#435,.T.);
#566=EDGE_CURVE('',#466,#454,#198,.T.);
#567=EDGE_CURVE('',#467,#453,#199,.T.);
#568=EDGE_CURVE('',#467,#468,#200,.T.);
#569=EDGE_CURVE('',#468,#452,#201,.T.);
#570=EDGE_CURVE('',#469,#470,#202,.T.);
#571=EDGE_CURVE('',#469,#471,#203,.T.);
#572=EDGE_CURVE('',#472,#471,#204,.T.);
#573=EDGE_CURVE('',#470,#472,#205,.T.);
#574=EDGE_CURVE('',#470,#473,#436,.T.);
#575=EDGE_CURVE('',#474,#472,#437,.T.);
#576=EDGE_CURVE('',#473,#474,#206,.T.);
#577=EDGE_CURVE('',#471,#462,#207,.T.);
#578=EDGE_CURVE('',#465,#475,#438,.T.);
#579=EDGE_CURVE('',#475,#476,#208,.T.);
#580=EDGE_CURVE('',#476,#477,#439,.T.);
#581=EDGE_CURVE('',#477,#474,#209,.T.);
#582=EDGE_CURVE('',#466,#473,#210,.T.);
#583=EDGE_CURVE('',#478,#477,#211,.T.);
#584=EDGE_CURVE('',#479,#478,#212,.T.);
#585=EDGE_CURVE('',#479,#455,#213,.T.);
#586=EDGE_CURVE('',#480,#479,#440,.T.);
#587=EDGE_CURVE('',#480,#456,#214,.T.);
#588=EDGE_CURVE('',#481,#480,#215,.T.);
#589=EDGE_CURVE('',#481,#457,#216,.T.);
#590=EDGE_CURVE('',#449,#481,#441,.T.);
#591=EDGE_CURVE('',#463,#450,#217,.T.);
#592=EDGE_CURVE('',#468,#469,#218,.T.);
#593=EDGE_CURVE('',#482,#464,#442,.T.);
#594=EDGE_CURVE('',#482,#475,#219,.T.);
#595=EDGE_CURVE('',#483,#482,#220,.T.);
#596=EDGE_CURVE('',#476,#483,#221,.T.);
#597=EDGE_CURVE('',#478,#483,#443,.T.);
#598=EDGE_CURVE('',#484,#485,#222,.T.);
#599=EDGE_CURVE('',#486,#484,#223,.T.);
#600=EDGE_CURVE('',#487,#486,#224,.T.);
#601=EDGE_CURVE('',#487,#485,#225,.T.);
#602=EDGE_CURVE('',#485,#488,#226,.T.);
#603=EDGE_CURVE('',#489,#487,#227,.T.);
#604=EDGE_CURVE('',#488,#489,#228,.T.);
#605=EDGE_CURVE('',#490,#491,#229,.T.);
#606=EDGE_CURVE('',#492,#490,#230,.T.);
#607=EDGE_CURVE('',#493,#492,#231,.T.);
#608=EDGE_CURVE('',#491,#493,#232,.T.);
#609=EDGE_CURVE('',#494,#490,#233,.T.);
#610=EDGE_CURVE('',#495,#494,#234,.T.);
#611=EDGE_CURVE('',#492,#495,#235,.T.);
#612=EDGE_CURVE('',#491,#496,#236,.T.);
#613=EDGE_CURVE('',#497,#493,#237,.T.);
#614=EDGE_CURVE('',#496,#497,#238,.T.);
#615=EDGE_CURVE('',#496,#498,#239,.T.);
#616=EDGE_CURVE('',#499,#497,#240,.T.);
#617=EDGE_CURVE('',#499,#498,#241,.T.);
#618=EDGE_CURVE('',#498,#500,#242,.T.);
#619=EDGE_CURVE('',#501,#499,#243,.T.);
#620=EDGE_CURVE('',#500,#501,#244,.T.);
#621=EDGE_CURVE('',#500,#484,#245,.T.);
#622=EDGE_CURVE('',#486,#501,#246,.T.);
#623=EDGE_CURVE('',#489,#495,#247,.T.);
#624=EDGE_CURVE('',#494,#488,#248,.T.);
#625=EDGE_CURVE('',#502,#503,#249,.T.);
#626=EDGE_CURVE('',#504,#502,#250,.T.);
#627=EDGE_CURVE('',#505,#504,#251,.T.);
#628=EDGE_CURVE('',#505,#503,#252,.T.);
#629=EDGE_CURVE('',#503,#506,#253,.T.);
#630=EDGE_CURVE('',#507,#505,#254,.T.);
#631=EDGE_CURVE('',#506,#507,#255,.T.);
#632=EDGE_CURVE('',#508,#509,#256,.T.);
#633=EDGE_CURVE('',#510,#508,#257,.T.);
#634=EDGE_CURVE('',#511,#510,#258,.T.);
#635=EDGE_CURVE('',#509,#511,#259,.T.);
#636=EDGE_CURVE('',#512,#508,#260,.T.);
#637=EDGE_CURVE('',#513,#512,#261,.T.);
#638=EDGE_CURVE('',#510,#513,#262,.T.);
#639=EDGE_CURVE('',#509,#514,#263,.T.);
#640=EDGE_CURVE('',#515,#511,#264,.T.);
#641=EDGE_CURVE('',#514,#515,#265,.T.);
#642=EDGE_CURVE('',#514,#516,#266,.T.);
#643=EDGE_CURVE('',#517,#515,#267,.T.);
#644=EDGE_CURVE('',#517,#516,#268,.T.);
#645=EDGE_CURVE('',#516,#518,#269,.T.);
#646=EDGE_CURVE('',#519,#517,#270,.T.);
#647=EDGE_CURVE('',#518,#519,#271,.T.);
#648=EDGE_CURVE('',#518,#502,#272,.T.);
#649=EDGE_CURVE('',#504,#519,#273,.T.);
#650=EDGE_CURVE('',#507,#513,#274,.T.);
#651=EDGE_CURVE('',#512,#506,#275,.T.);
#652=EDGE_CURVE('',#520,#521,#276,.T.);
#653=EDGE_CURVE('',#522,#520,#277,.T.);
#654=EDGE_CURVE('',#523,#522,#278,.T.);
#655=EDGE_CURVE('',#523,#521,#279,.T.);
#656=EDGE_CURVE('',#521,#524,#280,.T.);
#657=EDGE_CURVE('',#525,#523,#281,.T.);
#658=EDGE_CURVE('',#524,#525,#282,.T.);
#659=EDGE_CURVE('',#526,#527,#283,.T.);
#660=EDGE_CURVE('',#528,#526,#284,.T.);
#661=EDGE_CURVE('',#529,#528,#285,.T.);
#662=EDGE_CURVE('',#527,#529,#286,.T.);
#663=EDGE_CURVE('',#530,#526,#287,.T.);
#664=EDGE_CURVE('',#531,#530,#288,.T.);
#665=EDGE_CURVE('',#528,#531,#289,.T.);
#666=EDGE_CURVE('',#527,#532,#290,.T.);
#667=EDGE_CURVE('',#533,#529,#291,.T.);
#668=EDGE_CURVE('',#532,#533,#292,.T.);
#669=EDGE_CURVE('',#532,#534,#293,.T.);
#670=EDGE_CURVE('',#535,#533,#294,.T.);
#671=EDGE_CURVE('',#535,#534,#295,.T.);
#672=EDGE_CURVE('',#534,#536,#296,.T.);
#673=EDGE_CURVE('',#537,#535,#297,.T.);
#674=EDGE_CURVE('',#536,#537,#298,.T.);
#675=EDGE_CURVE('',#536,#520,#299,.T.);
#676=EDGE_CURVE('',#522,#537,#300,.T.);
#677=EDGE_CURVE('',#525,#531,#301,.T.);
#678=EDGE_CURVE('',#530,#524,#302,.T.);
#679=ORIENTED_EDGE('',*,*,#538,.T.);
#680=ORIENTED_EDGE('',*,*,#539,.T.);
#681=ORIENTED_EDGE('',*,*,#540,.T.);
#682=ORIENTED_EDGE('',*,*,#541,.T.);
#683=ORIENTED_EDGE('',*,*,#539,.F.);
#684=ORIENTED_EDGE('',*,*,#542,.F.);
#685=ORIENTED_EDGE('',*,*,#543,.F.);
#686=ORIENTED_EDGE('',*,*,#544,.F.);
#687=ORIENTED_EDGE('',*,*,#541,.F.);
#688=ORIENTED_EDGE('',*,*,#545,.F.);
#689=ORIENTED_EDGE('',*,*,#546,.T.);
#690=ORIENTED_EDGE('',*,*,#547,.F.);
#691=ORIENTED_EDGE('',*,*,#542,.T.);
#692=ORIENTED_EDGE('',*,*,#538,.F.);
#693=ORIENTED_EDGE('',*,*,#547,.T.);
#694=ORIENTED_EDGE('',*,*,#548,.T.);
#695=ORIENTED_EDGE('',*,*,#549,.T.);
#696=ORIENTED_EDGE('',*,*,#550,.T.);
#697=ORIENTED_EDGE('',*,*,#551,.T.);
#698=ORIENTED_EDGE('',*,*,#552,.T.);
#699=ORIENTED_EDGE('',*,*,#553,.T.);
#700=ORIENTED_EDGE('',*,*,#554,.T.);
#701=ORIENTED_EDGE('',*,*,#555,.T.);
#702=ORIENTED_EDGE('',*,*,#556,.T.);
#703=ORIENTED_EDGE('',*,*,#557,.T.);
#704=ORIENTED_EDGE('',*,*,#558,.T.);
#705=ORIENTED_EDGE('',*,*,#556,.F.);
#706=ORIENTED_EDGE('',*,*,#559,.F.);
#707=ORIENTED_EDGE('',*,*,#560,.F.);
#708=ORIENTED_EDGE('',*,*,#561,.F.);
#709=ORIENTED_EDGE('',*,*,#558,.F.);
#710=ORIENTED_EDGE('',*,*,#562,.F.);
#711=ORIENTED_EDGE('',*,*,#563,.T.);
#712=ORIENTED_EDGE('',*,*,#564,.F.);
#713=ORIENTED_EDGE('',*,*,#565,.F.);
#714=ORIENTED_EDGE('',*,*,#566,.T.);
#715=ORIENTED_EDGE('',*,*,#550,.F.);
#716=ORIENTED_EDGE('',*,*,#567,.F.);
#717=ORIENTED_EDGE('',*,*,#568,.F.);
#718=ORIENTED_EDGE('',*,*,#567,.T.);
#719=ORIENTED_EDGE('',*,*,#549,.F.);
#720=ORIENTED_EDGE('',*,*,#569,.F.);
#721=ORIENTED_EDGE('',*,*,#570,.F.);
#722=ORIENTED_EDGE('',*,*,#571,.T.);
#723=ORIENTED_EDGE('',*,*,#572,.F.);
#724=ORIENTED_EDGE('',*,*,#573,.F.);
#725=ORIENTED_EDGE('',*,*,#574,.F.);
#726=ORIENTED_EDGE('',*,*,#573,.T.);
#727=ORIENTED_EDGE('',*,*,#575,.F.);
#728=ORIENTED_EDGE('',*,*,#576,.F.);
#729=ORIENTED_EDGE('',*,*,#572,.T.);
#730=ORIENTED_EDGE('',*,*,#577,.T.);
#731=ORIENTED_EDGE('',*,*,#559,.T.);
#732=ORIENTED_EDGE('',*,*,#555,.F.);
#733=ORIENTED_EDGE('',*,*,#564,.T.);
#734=ORIENTED_EDGE('',*,*,#578,.T.);
#735=ORIENTED_EDGE('',*,*,#579,.T.);
#736=ORIENTED_EDGE('',*,*,#580,.T.);
#737=ORIENTED_EDGE('',*,*,#581,.T.);
#738=ORIENTED_EDGE('',*,*,#575,.T.);
#739=ORIENTED_EDGE('',*,*,#582,.T.);
#740=ORIENTED_EDGE('',*,*,#576,.T.);
#741=ORIENTED_EDGE('',*,*,#581,.F.);
#742=ORIENTED_EDGE('',*,*,#583,.F.);
#743=ORIENTED_EDGE('',*,*,#584,.F.);
#744=ORIENTED_EDGE('',*,*,#585,.T.);
#745=ORIENTED_EDGE('',*,*,#551,.F.);
#746=ORIENTED_EDGE('',*,*,#566,.F.);
#747=ORIENTED_EDGE('',*,*,#585,.F.);
#748=ORIENTED_EDGE('',*,*,#586,.F.);
#749=ORIENTED_EDGE('',*,*,#587,.T.);
#750=ORIENTED_EDGE('',*,*,#552,.F.);
#751=ORIENTED_EDGE('',*,*,#587,.F.);
#752=ORIENTED_EDGE('',*,*,#588,.F.);
#753=ORIENTED_EDGE('',*,*,#589,.T.);
#754=ORIENTED_EDGE('',*,*,#553,.F.);
#755=ORIENTED_EDGE('',*,*,#589,.F.);
#756=ORIENTED_EDGE('',*,*,#590,.F.);
#757=ORIENTED_EDGE('',*,*,#543,.T.);
#758=ORIENTED_EDGE('',*,*,#554,.F.);
#759=ORIENTED_EDGE('',*,*,#546,.F.);
#760=ORIENTED_EDGE('',*,*,#591,.F.);
#761=ORIENTED_EDGE('',*,*,#560,.T.);
#762=ORIENTED_EDGE('',*,*,#577,.F.);
#763=ORIENTED_EDGE('',*,*,#571,.F.);
#764=ORIENTED_EDGE('',*,*,#592,.F.);
#765=ORIENTED_EDGE('',*,*,#569,.T.);
#766=ORIENTED_EDGE('',*,*,#548,.F.);
#767=ORIENTED_EDGE('',*,*,#563,.F.);
#768=ORIENTED_EDGE('',*,*,#593,.F.);
#769=ORIENTED_EDGE('',*,*,#594,.T.);
#770=ORIENTED_EDGE('',*,*,#578,.F.);
#771=ORIENTED_EDGE('',*,*,#594,.F.);
#772=ORIENTED_EDGE('',*,*,#595,.F.);
#773=ORIENTED_EDGE('',*,*,#596,.F.);
#774=ORIENTED_EDGE('',*,*,#579,.F.);
#775=ORIENTED_EDGE('',*,*,#596,.T.);
#776=ORIENTED_EDGE('',*,*,#597,.F.);
#777=ORIENTED_EDGE('',*,*,#583,.T.);
#778=ORIENTED_EDGE('',*,*,#580,.F.);
#779=ORIENTED_EDGE('',*,*,#568,.T.);
#780=ORIENTED_EDGE('',*,*,#592,.T.);
#781=ORIENTED_EDGE('',*,*,#570,.T.);
#782=ORIENTED_EDGE('',*,*,#574,.T.);
#783=ORIENTED_EDGE('',*,*,#582,.F.);
#784=ORIENTED_EDGE('',*,*,#565,.T.);
#785=ORIENTED_EDGE('',*,*,#545,.T.);
#786=ORIENTED_EDGE('',*,*,#540,.F.);
#787=ORIENTED_EDGE('',*,*,#544,.T.);
#788=ORIENTED_EDGE('',*,*,#590,.T.);
#789=ORIENTED_EDGE('',*,*,#588,.T.);
#790=ORIENTED_EDGE('',*,*,#586,.T.);
#791=ORIENTED_EDGE('',*,*,#584,.T.);
#792=ORIENTED_EDGE('',*,*,#597,.T.);
#793=ORIENTED_EDGE('',*,*,#595,.T.);
#794=ORIENTED_EDGE('',*,*,#593,.T.);
#795=ORIENTED_EDGE('',*,*,#562,.T.);
#796=ORIENTED_EDGE('',*,*,#557,.F.);
#797=ORIENTED_EDGE('',*,*,#561,.T.);
#798=ORIENTED_EDGE('',*,*,#591,.T.);
#799=ORIENTED_EDGE('',*,*,#598,.F.);
#800=ORIENTED_EDGE('',*,*,#599,.F.);
#801=ORIENTED_EDGE('',*,*,#600,.F.);
#802=ORIENTED_EDGE('',*,*,#601,.T.);
#803=ORIENTED_EDGE('',*,*,#602,.F.);
#804=ORIENTED_EDGE('',*,*,#601,.F.);
#805=ORIENTED_EDGE('',*,*,#603,.F.);
#806=ORIENTED_EDGE('',*,*,#604,.F.);
#807=ORIENTED_EDGE('',*,*,#605,.F.);
#808=ORIENTED_EDGE('',*,*,#606,.F.);
#809=ORIENTED_EDGE('',*,*,#607,.F.);
#810=ORIENTED_EDGE('',*,*,#608,.F.);
#811=ORIENTED_EDGE('',*,*,#609,.F.);
#812=ORIENTED_EDGE('',*,*,#610,.F.);
#813=ORIENTED_EDGE('',*,*,#611,.F.);
#814=ORIENTED_EDGE('',*,*,#606,.T.);
#815=ORIENTED_EDGE('',*,*,#612,.F.);
#816=ORIENTED_EDGE('',*,*,#608,.T.);
#817=ORIENTED_EDGE('',*,*,#613,.F.);
#818=ORIENTED_EDGE('',*,*,#614,.F.);
#819=ORIENTED_EDGE('',*,*,#615,.F.);
#820=ORIENTED_EDGE('',*,*,#614,.T.);
#821=ORIENTED_EDGE('',*,*,#616,.F.);
#822=ORIENTED_EDGE('',*,*,#617,.T.);
#823=ORIENTED_EDGE('',*,*,#618,.F.);
#824=ORIENTED_EDGE('',*,*,#617,.F.);
#825=ORIENTED_EDGE('',*,*,#619,.F.);
#826=ORIENTED_EDGE('',*,*,#620,.F.);
#827=ORIENTED_EDGE('',*,*,#621,.F.);
#828=ORIENTED_EDGE('',*,*,#620,.T.);
#829=ORIENTED_EDGE('',*,*,#622,.F.);
#830=ORIENTED_EDGE('',*,*,#599,.T.);
#831=ORIENTED_EDGE('',*,*,#604,.T.);
#832=ORIENTED_EDGE('',*,*,#623,.T.);
#833=ORIENTED_EDGE('',*,*,#610,.T.);
#834=ORIENTED_EDGE('',*,*,#624,.T.);
#835=ORIENTED_EDGE('',*,*,#603,.T.);
#836=ORIENTED_EDGE('',*,*,#600,.T.);
#837=ORIENTED_EDGE('',*,*,#622,.T.);
#838=ORIENTED_EDGE('',*,*,#619,.T.);
#839=ORIENTED_EDGE('',*,*,#616,.T.);
#840=ORIENTED_EDGE('',*,*,#613,.T.);
#841=ORIENTED_EDGE('',*,*,#607,.T.);
#842=ORIENTED_EDGE('',*,*,#611,.T.);
#843=ORIENTED_EDGE('',*,*,#623,.F.);
#844=ORIENTED_EDGE('',*,*,#602,.T.);
#845=ORIENTED_EDGE('',*,*,#624,.F.);
#846=ORIENTED_EDGE('',*,*,#609,.T.);
#847=ORIENTED_EDGE('',*,*,#605,.T.);
#848=ORIENTED_EDGE('',*,*,#612,.T.);
#849=ORIENTED_EDGE('',*,*,#615,.T.);
#850=ORIENTED_EDGE('',*,*,#618,.T.);
#851=ORIENTED_EDGE('',*,*,#621,.T.);
#852=ORIENTED_EDGE('',*,*,#598,.T.);
#853=ORIENTED_EDGE('',*,*,#625,.F.);
#854=ORIENTED_EDGE('',*,*,#626,.F.);
#855=ORIENTED_EDGE('',*,*,#627,.F.);
#856=ORIENTED_EDGE('',*,*,#628,.T.);
#857=ORIENTED_EDGE('',*,*,#629,.F.);
#858=ORIENTED_EDGE('',*,*,#628,.F.);
#859=ORIENTED_EDGE('',*,*,#630,.F.);
#860=ORIENTED_EDGE('',*,*,#631,.F.);
#861=ORIENTED_EDGE('',*,*,#632,.F.);
#862=ORIENTED_EDGE('',*,*,#633,.F.);
#863=ORIENTED_EDGE('',*,*,#634,.F.);
#864=ORIENTED_EDGE('',*,*,#635,.F.);
#865=ORIENTED_EDGE('',*,*,#636,.F.);
#866=ORIENTED_EDGE('',*,*,#637,.F.);
#867=ORIENTED_EDGE('',*,*,#638,.F.);
#868=ORIENTED_EDGE('',*,*,#633,.T.);
#869=ORIENTED_EDGE('',*,*,#639,.F.);
#870=ORIENTED_EDGE('',*,*,#635,.T.);
#871=ORIENTED_EDGE('',*,*,#640,.F.);
#872=ORIENTED_EDGE('',*,*,#641,.F.);
#873=ORIENTED_EDGE('',*,*,#642,.F.);
#874=ORIENTED_EDGE('',*,*,#641,.T.);
#875=ORIENTED_EDGE('',*,*,#643,.F.);
#876=ORIENTED_EDGE('',*,*,#644,.T.);
#877=ORIENTED_EDGE('',*,*,#645,.F.);
#878=ORIENTED_EDGE('',*,*,#644,.F.);
#879=ORIENTED_EDGE('',*,*,#646,.F.);
#880=ORIENTED_EDGE('',*,*,#647,.F.);
#881=ORIENTED_EDGE('',*,*,#648,.F.);
#882=ORIENTED_EDGE('',*,*,#647,.T.);
#883=ORIENTED_EDGE('',*,*,#649,.F.);
#884=ORIENTED_EDGE('',*,*,#626,.T.);
#885=ORIENTED_EDGE('',*,*,#631,.T.);
#886=ORIENTED_EDGE('',*,*,#650,.T.);
#887=ORIENTED_EDGE('',*,*,#637,.T.);
#888=ORIENTED_EDGE('',*,*,#651,.T.);
#889=ORIENTED_EDGE('',*,*,#630,.T.);
#890=ORIENTED_EDGE('',*,*,#627,.T.);
#891=ORIENTED_EDGE('',*,*,#649,.T.);
#892=ORIENTED_EDGE('',*,*,#646,.T.);
#893=ORIENTED_EDGE('',*,*,#643,.T.);
#894=ORIENTED_EDGE('',*,*,#640,.T.);
#895=ORIENTED_EDGE('',*,*,#634,.T.);
#896=ORIENTED_EDGE('',*,*,#638,.T.);
#897=ORIENTED_EDGE('',*,*,#650,.F.);
#898=ORIENTED_EDGE('',*,*,#629,.T.);
#899=ORIENTED_EDGE('',*,*,#651,.F.);
#900=ORIENTED_EDGE('',*,*,#636,.T.);
#901=ORIENTED_EDGE('',*,*,#632,.T.);
#902=ORIENTED_EDGE('',*,*,#639,.T.);
#903=ORIENTED_EDGE('',*,*,#642,.T.);
#904=ORIENTED_EDGE('',*,*,#645,.T.);
#905=ORIENTED_EDGE('',*,*,#648,.T.);
#906=ORIENTED_EDGE('',*,*,#625,.T.);
#907=ORIENTED_EDGE('',*,*,#652,.F.);
#908=ORIENTED_EDGE('',*,*,#653,.F.);
#909=ORIENTED_EDGE('',*,*,#654,.F.);
#910=ORIENTED_EDGE('',*,*,#655,.T.);
#911=ORIENTED_EDGE('',*,*,#656,.F.);
#912=ORIENTED_EDGE('',*,*,#655,.F.);
#913=ORIENTED_EDGE('',*,*,#657,.F.);
#914=ORIENTED_EDGE('',*,*,#658,.F.);
#915=ORIENTED_EDGE('',*,*,#659,.F.);
#916=ORIENTED_EDGE('',*,*,#660,.F.);
#917=ORIENTED_EDGE('',*,*,#661,.F.);
#918=ORIENTED_EDGE('',*,*,#662,.F.);
#919=ORIENTED_EDGE('',*,*,#663,.F.);
#920=ORIENTED_EDGE('',*,*,#664,.F.);
#921=ORIENTED_EDGE('',*,*,#665,.F.);
#922=ORIENTED_EDGE('',*,*,#660,.T.);
#923=ORIENTED_EDGE('',*,*,#666,.F.);
#924=ORIENTED_EDGE('',*,*,#662,.T.);
#925=ORIENTED_EDGE('',*,*,#667,.F.);
#926=ORIENTED_EDGE('',*,*,#668,.F.);
#927=ORIENTED_EDGE('',*,*,#669,.F.);
#928=ORIENTED_EDGE('',*,*,#668,.T.);
#929=ORIENTED_EDGE('',*,*,#670,.F.);
#930=ORIENTED_EDGE('',*,*,#671,.T.);
#931=ORIENTED_EDGE('',*,*,#672,.F.);
#932=ORIENTED_EDGE('',*,*,#671,.F.);
#933=ORIENTED_EDGE('',*,*,#673,.F.);
#934=ORIENTED_EDGE('',*,*,#674,.F.);
#935=ORIENTED_EDGE('',*,*,#675,.F.);
#936=ORIENTED_EDGE('',*,*,#674,.T.);
#937=ORIENTED_EDGE('',*,*,#676,.F.);
#938=ORIENTED_EDGE('',*,*,#653,.T.);
#939=ORIENTED_EDGE('',*,*,#658,.T.);
#940=ORIENTED_EDGE('',*,*,#677,.T.);
#941=ORIENTED_EDGE('',*,*,#664,.T.);
#942=ORIENTED_EDGE('',*,*,#678,.T.);
#943=ORIENTED_EDGE('',*,*,#657,.T.);
#944=ORIENTED_EDGE('',*,*,#654,.T.);
#945=ORIENTED_EDGE('',*,*,#676,.T.);
#946=ORIENTED_EDGE('',*,*,#673,.T.);
#947=ORIENTED_EDGE('',*,*,#670,.T.);
#948=ORIENTED_EDGE('',*,*,#667,.T.);
#949=ORIENTED_EDGE('',*,*,#661,.T.);
#950=ORIENTED_EDGE('',*,*,#665,.T.);
#951=ORIENTED_EDGE('',*,*,#677,.F.);
#952=ORIENTED_EDGE('',*,*,#656,.T.);
#953=ORIENTED_EDGE('',*,*,#678,.F.);
#954=ORIENTED_EDGE('',*,*,#663,.T.);
#955=ORIENTED_EDGE('',*,*,#659,.T.);
#956=ORIENTED_EDGE('',*,*,#666,.T.);
#957=ORIENTED_EDGE('',*,*,#669,.T.);
#958=ORIENTED_EDGE('',*,*,#672,.T.);
#959=ORIENTED_EDGE('',*,*,#675,.T.);
#960=ORIENTED_EDGE('',*,*,#652,.T.);
#961=CYLINDRICAL_SURFACE('',#1041,1.);
#962=CYLINDRICAL_SURFACE('',#1050,1.);
#963=CYLINDRICAL_SURFACE('',#1055,1.5);
#964=CYLINDRICAL_SURFACE('',#1059,1.5);
#965=CYLINDRICAL_SURFACE('',#1066,0.5);
#966=CYLINDRICAL_SURFACE('',#1069,0.5);
#967=CYLINDRICAL_SURFACE('',#1072,0.5);
#968=CYLINDRICAL_SURFACE('',#1075,0.499999999999999);
#969=ADVANCED_FACE('',(#68),#961,.F.);
#970=ADVANCED_FACE('',(#69),#21,.T.);
#971=ADVANCED_FACE('',(#70),#22,.T.);
#972=ADVANCED_FACE('',(#71),#23,.T.);
#973=ADVANCED_FACE('',(#72),#962,.F.);
#974=ADVANCED_FACE('',(#73),#24,.T.);
#975=ADVANCED_FACE('',(#74),#25,.T.);
#976=ADVANCED_FACE('',(#75),#963,.T.);
#977=ADVANCED_FACE('',(#76),#26,.T.);
#978=ADVANCED_FACE('',(#77),#27,.T.);
#979=ADVANCED_FACE('',(#78),#964,.T.);
#980=ADVANCED_FACE('',(#79),#28,.T.);
#981=ADVANCED_FACE('',(#80),#29,.T.);
#982=ADVANCED_FACE('',(#81),#965,.T.);
#983=ADVANCED_FACE('',(#82),#30,.T.);
#984=ADVANCED_FACE('',(#83),#966,.T.);
#985=ADVANCED_FACE('',(#84),#31,.T.);
#986=ADVANCED_FACE('',(#85),#967,.T.);
#987=ADVANCED_FACE('',(#86),#32,.T.);
#988=ADVANCED_FACE('',(#87),#968,.T.);
#989=ADVANCED_FACE('',(#88),#33,.T.);
#990=ADVANCED_FACE('',(#89),#34,.F.);
#991=ADVANCED_FACE('',(#90),#35,.F.);
#992=ADVANCED_FACE('',(#91),#36,.F.);
#993=ADVANCED_FACE('',(#92),#37,.F.);
#994=ADVANCED_FACE('',(#93),#38,.F.);
#995=ADVANCED_FACE('',(#94),#39,.F.);
#996=ADVANCED_FACE('',(#95),#40,.F.);
#997=ADVANCED_FACE('',(#96),#41,.F.);
#998=ADVANCED_FACE('',(#97),#42,.F.);
#999=ADVANCED_FACE('',(#98),#43,.F.);
#1000=ADVANCED_FACE('',(#99),#44,.T.);
#1001=ADVANCED_FACE('',(#100),#45,.T.);
#1002=ADVANCED_FACE('',(#101),#46,.F.);
#1003=ADVANCED_FACE('',(#102),#47,.F.);
#1004=ADVANCED_FACE('',(#103),#48,.F.);
#1005=ADVANCED_FACE('',(#104),#49,.F.);
#1006=ADVANCED_FACE('',(#105),#50,.F.);
#1007=ADVANCED_FACE('',(#106),#51,.F.);
#1008=ADVANCED_FACE('',(#107),#52,.F.);
#1009=ADVANCED_FACE('',(#108),#53,.F.);
#1010=ADVANCED_FACE('',(#109),#54,.F.);
#1011=ADVANCED_FACE('',(#110),#55,.T.);
#1012=ADVANCED_FACE('',(#111),#56,.T.);
#1013=ADVANCED_FACE('',(#112),#57,.F.);
#1014=ADVANCED_FACE('',(#113),#58,.F.);
#1015=ADVANCED_FACE('',(#114),#59,.F.);
#1016=ADVANCED_FACE('',(#115),#60,.F.);
#1017=ADVANCED_FACE('',(#116),#61,.F.);
#1018=ADVANCED_FACE('',(#117),#62,.F.);
#1019=ADVANCED_FACE('',(#118),#63,.F.);
#1020=ADVANCED_FACE('',(#119),#64,.F.);
#1021=ADVANCED_FACE('',(#120),#65,.F.);
#1022=ADVANCED_FACE('',(#121),#66,.T.);
#1023=ADVANCED_FACE('',(#122),#67,.T.);
#1024=CLOSED_SHELL('',(#969,#970,#971,#972,#973,#974,#975,#976,#977,#978,
#979,#980,#981,#982,#983,#984,#985,#986,#987,#988,#989,#990));
#1025=CLOSED_SHELL('',(#991,#992,#993,#994,#995,#996,#997,#998,#999,#1000,
#1001));
#1026=CLOSED_SHELL('',(#1002,#1003,#1004,#1005,#1006,#1007,#1008,#1009,
#1010,#1011,#1012));
#1027=CLOSED_SHELL('',(#1013,#1014,#1015,#1016,#1017,#1018,#1019,#1020,
#1021,#1022,#1023));
#1028=DERIVED_UNIT_ELEMENT(#1030,1.);
#1029=DERIVED_UNIT_ELEMENT(#1677,-3.);
#1030=(
MASS_UNIT()
NAMED_UNIT(*)
SI_UNIT(.KILO.,.GRAM.)
);
#1031=DERIVED_UNIT((#1028,#1029));
#1032=MEASURE_REPRESENTATION_ITEM('density measure',
POSITIVE_RATIO_MEASURE(952.),#1031);
#1033=PROPERTY_DEFINITION_REPRESENTATION(#1038,#1035);
#1034=PROPERTY_DEFINITION_REPRESENTATION(#1039,#1036);
#1035=REPRESENTATION('material name',(#1037),#1674);
#1036=REPRESENTATION('density',(#1032),#1674);
#1037=DESCRIPTIVE_REPRESENTATION_ITEM('Plastic, Opaque Black',
'Plastic, Opaque Black');
#1038=PROPERTY_DEFINITION('material property','material name',#1684);
#1039=PROPERTY_DEFINITION('material property','density of part',#1684);
#1040=AXIS2_PLACEMENT_3D('placement',#1381,#1112,#1113);
#1041=AXIS2_PLACEMENT_3D('',#1382,#1114,#1115);
#1042=AXIS2_PLACEMENT_3D('',#1385,#1116,#1117);
#1043=AXIS2_PLACEMENT_3D('',#1389,#1119,#1120);
#1044=AXIS2_PLACEMENT_3D('',#1391,#1122,#1123);
#1045=AXIS2_PLACEMENT_3D('',#1397,#1127,#1128);
#1046=AXIS2_PLACEMENT_3D('',#1403,#1132,#1133);
#1047=AXIS2_PLACEMENT_3D('',#1409,#1136,#1137);
#1048=AXIS2_PLACEMENT_3D('',#1413,#1139,#1140);
#1049=AXIS2_PLACEMENT_3D('',#1416,#1142,#1143);
#1050=AXIS2_PLACEMENT_3D('',#1417,#1144,#1145);
#1051=AXIS2_PLACEMENT_3D('',#1420,#1146,#1147);
#1052=AXIS2_PLACEMENT_3D('',#1424,#1149,#1150);
#1053=AXIS2_PLACEMENT_3D('',#1426,#1152,#1153);
#1054=AXIS2_PLACEMENT_3D('',#1432,#1157,#1158);
#1055=AXIS2_PLACEMENT_3D('',#1438,#1162,#1163);
#1056=AXIS2_PLACEMENT_3D('',#1441,#1164,#1165);
#1057=AXIS2_PLACEMENT_3D('',#1444,#1168,#1169);
#1058=AXIS2_PLACEMENT_3D('',#1448,#1172,#1173);
#1059=AXIS2_PLACEMENT_3D('',#1457,#1178,#1179);
#1060=AXIS2_PLACEMENT_3D('',#1459,#1180,#1181);
#1061=AXIS2_PLACEMENT_3D('',#1461,#1182,#1183);
#1062=AXIS2_PLACEMENT_3D('',#1463,#1185,#1186);
#1063=AXIS2_PLACEMENT_3D('',#1466,#1188,#1189);
#1064=AXIS2_PLACEMENT_3D('',#1470,#1191,#1192);
#1065=AXIS2_PLACEMENT_3D('',#1472,#1194,#1195);
#1066=AXIS2_PLACEMENT_3D('',#1479,#1200,#1201);
#1067=AXIS2_PLACEMENT_3D('',#1481,#1202,#1203);
#1068=AXIS2_PLACEMENT_3D('',#1483,#1205,#1206);
#1069=AXIS2_PLACEMENT_3D('',#1487,#1209,#1210);
#1070=AXIS2_PLACEMENT_3D('',#1488,#1211,#1212);
#1071=AXIS2_PLACEMENT_3D('',#1489,#1213,#1214);
#1072=AXIS2_PLACEMENT_3D('',#1492,#1217,#1218);
#1073=AXIS2_PLACEMENT_3D('',#1494,#1219,#1220);
#1074=AXIS2_PLACEMENT_3D('',#1496,#1222,#1223);
#1075=AXIS2_PLACEMENT_3D('',#1500,#1226,#1227);
#1076=AXIS2_PLACEMENT_3D('',#1501,#1228,#1229);
#1077=AXIS2_PLACEMENT_3D('',#1502,#1230,#1231);
#1078=AXIS2_PLACEMENT_3D('',#1503,#1232,#1233);
#1079=AXIS2_PLACEMENT_3D('',#1504,#1234,#1235);
#1080=AXIS2_PLACEMENT_3D('',#1513,#1240,#1241);
#1081=AXIS2_PLACEMENT_3D('',#1519,#1245,#1246);
#1082=AXIS2_PLACEMENT_3D('',#1528,#1251,#1252);
#1083=AXIS2_PLACEMENT_3D('',#1534,#1256,#1257);
#1084=AXIS2_PLACEMENT_3D('',#1540,#1261,#1262);
#1085=AXIS2_PLACEMENT_3D('',#1546,#1266,#1267);
#1086=AXIS2_PLACEMENT_3D('',#1552,#1271,#1272);
#1087=AXIS2_PLACEMENT_3D('',#1555,#1275,#1276);
#1088=AXIS2_PLACEMENT_3D('',#1558,#1279,#1280);
#1089=AXIS2_PLACEMENT_3D('',#1559,#1281,#1282);
#1090=AXIS2_PLACEMENT_3D('',#1560,#1283,#1284);
#1091=AXIS2_PLACEMENT_3D('',#1569,#1289,#1290);
#1092=AXIS2_PLACEMENT_3D('',#1575,#1294,#1295);
#1093=AXIS2_PLACEMENT_3D('',#1584,#1300,#1301);
#1094=AXIS2_PLACEMENT_3D('',#1590,#1305,#1306);
#1095=AXIS2_PLACEMENT_3D('',#1596,#1310,#1311);
#1096=AXIS2_PLACEMENT_3D('',#1602,#1315,#1316);
#1097=AXIS2_PLACEMENT_3D('',#1608,#1320,#1321);
#1098=AXIS2_PLACEMENT_3D('',#1611,#1324,#1325);
#1099=AXIS2_PLACEMENT_3D('',#1614,#1328,#1329);
#1100=AXIS2_PLACEMENT_3D('',#1615,#1330,#1331);
#1101=AXIS2_PLACEMENT_3D('',#1616,#1332,#1333);
#1102=AXIS2_PLACEMENT_3D('',#1625,#1338,#1339);
#1103=AXIS2_PLACEMENT_3D('',#1631,#1343,#1344);
#1104=AXIS2_PLACEMENT_3D('',#1640,#1349,#1350);
#1105=AXIS2_PLACEMENT_3D('',#1646,#1354,#1355);
#1106=AXIS2_PLACEMENT_3D('',#1652,#1359,#1360);
#1107=AXIS2_PLACEMENT_3D('',#1658,#1364,#1365);
#1108=AXIS2_PLACEMENT_3D('',#1664,#1369,#1370);
#1109=AXIS2_PLACEMENT_3D('',#1667,#1373,#1374);
#1110=AXIS2_PLACEMENT_3D('',#1670,#1377,#1378);
#1111=AXIS2_PLACEMENT_3D('',#1671,#1379,#1380);
#1112=DIRECTION('axis',(0.,0.,1.));
#1113=DIRECTION('refdir',(1.,0.,0.));
#1114=DIRECTION('center_axis',(0.,-1.,0.));
#1115=DIRECTION('ref_axis',(-0.707106781186546,0.,-0.707106781186549));
#1116=DIRECTION('center_axis',(0.,1.,0.));
#1117=DIRECTION('ref_axis',(-0.707106781186546,0.,-0.707106781186549));
#1118=DIRECTION('',(0.,-1.,0.));
#1119=DIRECTION('center_axis',(0.,-1.,0.));
#1120=DIRECTION('ref_axis',(-0.707106781186546,0.,-0.707106781186549));
#1121=DIRECTION('',(0.,1.,0.));
#1122=DIRECTION('center_axis',(1.,0.,0.));
#1123=DIRECTION('ref_axis',(0.,0.,1.));
#1124=DIRECTION('',(0.,0.,-1.));
#1125=DIRECTION('',(0.,1.,0.));
#1126=DIRECTION('',(0.,0.,1.));
#1127=DIRECTION('center_axis',(0.,0.,1.));
#1128=DIRECTION('ref_axis',(-1.,0.,0.));
#1129=DIRECTION('',(-1.,0.,0.));
#1130=DIRECTION('',(0.,1.,0.));
#1131=DIRECTION('',(-1.,0.,0.));
#1132=DIRECTION('center_axis',(0.,1.,0.));
#1133=DIRECTION('ref_axis',(1.,0.,0.));
#1134=DIRECTION('',(0.,0.,-1.));
#1135=DIRECTION('',(-1.,0.,0.));
#1136=DIRECTION('center_axis',(0.,1.,0.));
#1137=DIRECTION('ref_axis',(0.,0.,-1.));
#1138=DIRECTION('',(0.,0.,1.));
#1139=DIRECTION('center_axis',(0.,1.,0.));
#1140=DIRECTION('ref_axis',(-1.,0.,0.));
#1141=DIRECTION('',(1.,0.,0.));
#1142=DIRECTION('center_axis',(0.,1.,0.));
#1143=DIRECTION('ref_axis',(0.,0.,1.));
#1144=DIRECTION('center_axis',(0.,-1.,0.));
#1145=DIRECTION('ref_axis',(-0.707106781186546,0.,0.707106781186549));
#1146=DIRECTION('center_axis',(0.,1.,0.));
#1147=DIRECTION('ref_axis',(-0.707106781186546,0.,0.707106781186549));
#1148=DIRECTION('',(0.,-1.,0.));
#1149=DIRECTION('center_axis',(0.,-1.,0.));
#1150=DIRECTION('ref_axis',(-0.707106781186546,0.,0.707106781186549));
#1151=DIRECTION('',(0.,1.,0.));
#1152=DIRECTION('center_axis',(-2.58943193684625E-15,0.,-1.));
#1153=DIRECTION('ref_axis',(1.,0.,-2.58943193684625E-15));
#1154=DIRECTION('',(1.,0.,-2.58943193684625E-15));
#1155=DIRECTION('',(0.,-1.,0.));
#1156=DIRECTION('',(1.,0.,-2.58943193684625E-15));
#1157=DIRECTION('center_axis',(1.,0.,0.));
#1158=DIRECTION('ref_axis',(0.,0.,1.));
#1159=DIRECTION('',(0.,0.,1.));
#1160=DIRECTION('',(0.,1.,0.));
#1161=DIRECTION('',(0.,0.,-1.));
#1162=DIRECTION('center_axis',(0.,1.,0.));
#1163=DIRECTION('ref_axis',(0.,0.,-1.));
#1164=DIRECTION('center_axis',(0.,-1.,0.));
#1165=DIRECTION('ref_axis',(0.,0.,-1.));
#1166=DIRECTION('',(0.,1.,0.));
#1167=DIRECTION('',(0.,1.,0.));
#1168=DIRECTION('center_axis',(0.,0.,-1.));
#1169=DIRECTION('ref_axis',(-1.,0.,0.));
#1170=DIRECTION('',(1.,0.,0.));
#1171=DIRECTION('',(0.,1.,0.));
#1172=DIRECTION('center_axis',(0.,0.,1.));
#1173=DIRECTION('ref_axis',(1.,0.,0.));
#1174=DIRECTION('',(-1.,0.,0.));
#1175=DIRECTION('',(0.,1.,0.));
#1176=DIRECTION('',(1.,0.,0.));
#1177=DIRECTION('',(0.,1.,0.));
#1178=DIRECTION('center_axis',(0.,1.,0.));
#1179=DIRECTION('ref_axis',(-1.,0.,7.40148683083438E-16));
#1180=DIRECTION('center_axis',(0.,-1.,0.));
#1181=DIRECTION('ref_axis',(-1.,0.,7.40148683083438E-16));
#1182=DIRECTION('center_axis',(0.,1.,0.));
#1183=DIRECTION('ref_axis',(-1.,0.,7.40148683083438E-16));
#1184=DIRECTION('',(0.,1.,0.));
#1185=DIRECTION('center_axis',(0.,1.,0.));
#1186=DIRECTION('ref_axis',(1.,0.,0.));
#1187=DIRECTION('',(0.,0.,-1.));
#1188=DIRECTION('center_axis',(0.,1.,0.));
#1189=DIRECTION('ref_axis',(1.,0.,0.));
#1190=DIRECTION('',(-1.,0.,0.));
#1191=DIRECTION('center_axis',(0.,1.,0.));
#1192=DIRECTION('ref_axis',(1.11022302462516E-15,0.,-1.));
#1193=DIRECTION('',(0.,0.,1.));
#1194=DIRECTION('center_axis',(-1.,0.,0.));
#1195=DIRECTION('ref_axis',(0.,0.,-1.));
#1196=DIRECTION('',(0.,0.,-1.));
#1197=DIRECTION('',(0.,1.,0.));
#1198=DIRECTION('',(0.,0.,-1.));
#1199=DIRECTION('',(0.,1.,0.));
#1200=DIRECTION('center_axis',(0.,-1.,0.));
#1201=DIRECTION('ref_axis',(-1.,0.,0.));
#1202=DIRECTION('center_axis',(0.,-1.,0.));
#1203=DIRECTION('ref_axis',(-1.,0.,0.));
#1204=DIRECTION('',(0.,1.,0.));
#1205=DIRECTION('center_axis',(0.,0.,1.));
#1206=DIRECTION('ref_axis',(-1.,0.,0.));
#1207=DIRECTION('',(-1.,0.,0.));
#1208=DIRECTION('',(0.,1.,0.));
#1209=DIRECTION('center_axis',(0.,-1.,0.));
#1210=DIRECTION('ref_axis',(0.,0.,1.));
#1211=DIRECTION('center_axis',(0.,-1.,0.));
#1212=DIRECTION('ref_axis',(0.,0.,1.));
#1213=DIRECTION('center_axis',(1.,0.,0.));
#1214=DIRECTION('ref_axis',(0.,0.,1.));
#1215=DIRECTION('',(0.,0.,1.));
#1216=DIRECTION('',(0.,0.,-1.));
#1217=DIRECTION('center_axis',(0.,-1.,0.));
#1218=DIRECTION('ref_axis',(1.,0.,0.));
#1219=DIRECTION('center_axis',(0.,-1.,0.));
#1220=DIRECTION('ref_axis',(1.,0.,0.));
#1221=DIRECTION('',(0.,1.,0.));
#1222=DIRECTION('center_axis',(0.,0.,-1.));
#1223=DIRECTION('ref_axis',(1.,0.,0.));
#1224=DIRECTION('',(1.,0.,0.));
#1225=DIRECTION('',(0.,-1.,0.));
#1226=DIRECTION('center_axis',(0.,-1.,0.));
#1227=DIRECTION('ref_axis',(1.11022302462516E-15,0.,-1.));
#1228=DIRECTION('center_axis',(0.,-1.,0.));
#1229=DIRECTION('ref_axis',(1.11022302462516E-15,0.,-1.));
#1230=DIRECTION('center_axis',(0.,1.,0.));
#1231=DIRECTION('ref_axis',(1.,0.,0.));
#1232=DIRECTION('center_axis',(0.,1.,0.));
#1233=DIRECTION('ref_axis',(1.,0.,0.));
#1234=DIRECTION('center_axis',(0.,-1.,0.));
#1235=DIRECTION('ref_axis',(0.,0.,1.));
#1236=DIRECTION('',(0.,0.,-1.));
#1237=DIRECTION('',(-1.,0.,3.0006027692572E-16));
#1238=DIRECTION('',(0.,0.,1.));
#1239=DIRECTION('',(-1.,0.,0.));
#1240=DIRECTION('center_axis',(0.,0.,-1.));
#1241=DIRECTION('ref_axis',(0.,-1.,0.));
#1242=DIRECTION('',(0.,1.,0.));
#1243=DIRECTION('',(0.,-1.,0.));
#1244=DIRECTION('',(1.,0.,0.));
#1245=DIRECTION('center_axis',(0.,-1.,0.));
#1246=DIRECTION('ref_axis',(0.,0.,1.));
#1247=DIRECTION('',(0.,0.,-1.));
#1248=DIRECTION('',(-1.,0.,0.));
#1249=DIRECTION('',(0.,0.,1.));
#1250=DIRECTION('',(1.,0.,0.));
#1251=DIRECTION('center_axis',(0.,0.,1.));
#1252=DIRECTION('ref_axis',(0.,1.,0.));
#1253=DIRECTION('',(0.,-1.,0.));
#1254=DIRECTION('',(-1.,0.,0.));
#1255=DIRECTION('',(0.,1.,0.));
#1256=DIRECTION('center_axis',(0.,0.330350424728106,0.943858356366017));
#1257=DIRECTION('ref_axis',(0.,0.943858356366017,-0.330350424728106));
#1258=DIRECTION('',(0.,-0.943858356366017,0.330350424728106));
#1259=DIRECTION('',(0.,0.943858356366017,-0.330350424728106));
#1260=DIRECTION('',(1.,0.,0.));
#1261=DIRECTION('center_axis',(0.,0.470845461038961,-0.882215705946685));
#1262=DIRECTION('ref_axis',(0.,-0.882215705946685,-0.470845461038961));
#1263=DIRECTION('',(0.,0.882215705946685,0.470845461038961));
#1264=DIRECTION('',(0.,-0.882215705946685,-0.470845461038961));
#1265=DIRECTION('',(-1.,0.,0.));
#1266=DIRECTION('center_axis',(0.,0.470845461038961,0.882215705946685));
#1267=DIRECTION('ref_axis',(0.,0.882215705946685,-0.470845461038961));
#1268=DIRECTION('',(0.,-0.882215705946685,0.470845461038961));
#1269=DIRECTION('',(0.,0.882215705946685,-0.470845461038961));
#1270=DIRECTION('',(1.,0.,0.));
#1271=DIRECTION('center_axis',(0.,0.330350424728106,-0.943858356366017));
#1272=DIRECTION('ref_axis',(0.,-0.943858356366017,-0.330350424728106));
#1273=DIRECTION('',(0.,0.943858356366017,0.330350424728106));
#1274=DIRECTION('',(0.,-0.943858356366017,-0.330350424728106));
#1275=DIRECTION('center_axis',(0.,-1.,0.));
#1276=DIRECTION('ref_axis',(1.,0.,0.));
#1277=DIRECTION('',(0.,0.,-1.));
#1278=DIRECTION('',(0.,0.,1.));
#1279=DIRECTION('center_axis',(1.,0.,0.));
#1280=DIRECTION('ref_axis',(0.,0.,1.));
#1281=DIRECTION('center_axis',(-1.,0.,0.));
#1282=DIRECTION('ref_axis',(0.,0.,-1.));
#1283=DIRECTION('center_axis',(0.,-1.,0.));
#1284=DIRECTION('ref_axis',(0.,0.,1.));
#1285=DIRECTION('',(0.,0.,-1.));
#1286=DIRECTION('',(-1.,0.,3.0006027692572E-16));
#1287=DIRECTION('',(0.,0.,1.));
#1288=DIRECTION('',(-1.,0.,0.));
#1289=DIRECTION('center_axis',(0.,0.,-1.));
#1290=DIRECTION('ref_axis',(0.,-1.,0.));
#1291=DIRECTION('',(0.,1.,0.));
#1292=DIRECTION('',(0.,-1.,0.));
#1293=DIRECTION('',(1.,0.,0.));
#1294=DIRECTION('center_axis',(0.,-1.,0.));
#1295=DIRECTION('ref_axis',(0.,0.,1.));
#1296=DIRECTION('',(0.,0.,-1.));
#1297=DIRECTION('',(-1.,0.,0.));
#1298=DIRECTION('',(0.,0.,1.));
#1299=DIRECTION('',(1.,0.,0.));
#1300=DIRECTION('center_axis',(0.,0.,1.));
#1301=DIRECTION('ref_axis',(0.,1.,0.));
#1302=DIRECTION('',(0.,-1.,0.));
#1303=DIRECTION('',(-1.,0.,0.));
#1304=DIRECTION('',(0.,1.,0.));
#1305=DIRECTION('center_axis',(0.,0.330350424728106,0.943858356366017));
#1306=DIRECTION('ref_axis',(0.,0.943858356366017,-0.330350424728106));
#1307=DIRECTION('',(0.,-0.943858356366017,0.330350424728106));
#1308=DIRECTION('',(0.,0.943858356366017,-0.330350424728106));
#1309=DIRECTION('',(1.,0.,0.));
#1310=DIRECTION('center_axis',(0.,0.470845461038961,-0.882215705946685));
#1311=DIRECTION('ref_axis',(0.,-0.882215705946685,-0.470845461038961));
#1312=DIRECTION('',(0.,0.882215705946685,0.470845461038961));
#1313=DIRECTION('',(0.,-0.882215705946685,-0.470845461038961));
#1314=DIRECTION('',(-1.,0.,0.));
#1315=DIRECTION('center_axis',(0.,0.470845461038961,0.882215705946685));
#1316=DIRECTION('ref_axis',(0.,0.882215705946685,-0.470845461038961));
#1317=DIRECTION('',(0.,-0.882215705946685,0.470845461038961));
#1318=DIRECTION('',(0.,0.882215705946685,-0.470845461038961));
#1319=DIRECTION('',(1.,0.,0.));
#1320=DIRECTION('center_axis',(0.,0.330350424728106,-0.943858356366017));
#1321=DIRECTION('ref_axis',(0.,-0.943858356366017,-0.330350424728106));
#1322=DIRECTION('',(0.,0.943858356366017,0.330350424728106));
#1323=DIRECTION('',(0.,-0.943858356366017,-0.330350424728106));
#1324=DIRECTION('center_axis',(0.,-1.,0.));
#1325=DIRECTION('ref_axis',(1.,0.,0.));
#1326=DIRECTION('',(0.,0.,-1.));
#1327=DIRECTION('',(0.,0.,1.));
#1328=DIRECTION('center_axis',(1.,0.,0.));
#1329=DIRECTION('ref_axis',(0.,0.,1.));
#1330=DIRECTION('center_axis',(-1.,0.,0.));
#1331=DIRECTION('ref_axis',(0.,0.,-1.));
#1332=DIRECTION('center_axis',(0.,-1.,0.));
#1333=DIRECTION('ref_axis',(0.,0.,1.));
#1334=DIRECTION('',(0.,0.,-1.));
#1335=DIRECTION('',(-1.,0.,3.0006027692572E-16));
#1336=DIRECTION('',(0.,0.,1.));
#1337=DIRECTION('',(-1.,0.,0.));
#1338=DIRECTION('center_axis',(0.,0.,-1.));
#1339=DIRECTION('ref_axis',(0.,-1.,0.));
#1340=DIRECTION('',(0.,1.,0.));
#1341=DIRECTION('',(0.,-1.,0.));
#1342=DIRECTION('',(1.,0.,0.));
#1343=DIRECTION('center_axis',(0.,-1.,0.));
#1344=DIRECTION('ref_axis',(0.,0.,1.));
#1345=DIRECTION('',(0.,0.,-1.));
#1346=DIRECTION('',(-1.,0.,0.));
#1347=DIRECTION('',(0.,0.,1.));
#1348=DIRECTION('',(1.,0.,0.));
#1349=DIRECTION('center_axis',(0.,0.,1.));
#1350=DIRECTION('ref_axis',(0.,1.,0.));
#1351=DIRECTION('',(0.,-1.,0.));
#1352=DIRECTION('',(-1.,0.,0.));
#1353=DIRECTION('',(0.,1.,0.));
#1354=DIRECTION('center_axis',(0.,0.330350424728106,0.943858356366017));
#1355=DIRECTION('ref_axis',(0.,0.943858356366017,-0.330350424728106));
#1356=DIRECTION('',(0.,-0.943858356366017,0.330350424728106));
#1357=DIRECTION('',(0.,0.943858356366017,-0.330350424728106));
#1358=DIRECTION('',(1.,0.,0.));
#1359=DIRECTION('center_axis',(0.,0.470845461038961,-0.882215705946685));
#1360=DIRECTION('ref_axis',(0.,-0.882215705946685,-0.470845461038961));
#1361=DIRECTION('',(0.,0.882215705946685,0.470845461038961));
#1362=DIRECTION('',(0.,-0.882215705946685,-0.470845461038961));
#1363=DIRECTION('',(-1.,0.,0.));
#1364=DIRECTION('center_axis',(0.,0.470845461038961,0.882215705946685));
#1365=DIRECTION('ref_axis',(0.,0.882215705946685,-0.470845461038961));
#1366=DIRECTION('',(0.,-0.882215705946685,0.470845461038961));
#1367=DIRECTION('',(0.,0.882215705946685,-0.470845461038961));
#1368=DIRECTION('',(1.,0.,0.));
#1369=DIRECTION('center_axis',(0.,0.330350424728106,-0.943858356366017));
#1370=DIRECTION('ref_axis',(0.,-0.943858356366017,-0.330350424728106));
#1371=DIRECTION('',(0.,0.943858356366017,0.330350424728106));
#1372=DIRECTION('',(0.,-0.943858356366017,-0.330350424728106));
#1373=DIRECTION('center_axis',(0.,-1.,0.));
#1374=DIRECTION('ref_axis',(1.,0.,0.));
#1375=DIRECTION('',(0.,0.,-1.));
#1376=DIRECTION('',(0.,0.,1.));
#1377=DIRECTION('center_axis',(1.,0.,0.));
#1378=DIRECTION('ref_axis',(0.,0.,1.));
#1379=DIRECTION('center_axis',(-1.,0.,0.));
#1380=DIRECTION('ref_axis',(0.,0.,-1.));
#1381=CARTESIAN_POINT('',(0.,0.,0.));
#1382=CARTESIAN_POINT('Origin',(-1.85,0.,2.175));
#1383=CARTESIAN_POINT('',(-1.85,3.1,1.175));
#1384=CARTESIAN_POINT('',(-2.85,3.1,2.175));
#1385=CARTESIAN_POINT('Origin',(-1.85,3.1,2.175));
#1386=CARTESIAN_POINT('',(-2.85,-0.75,2.175));
#1387=CARTESIAN_POINT('',(-2.85,0.,2.175));
#1388=CARTESIAN_POINT('',(-1.85,-0.75,1.175));
#1389=CARTESIAN_POINT('Origin',(-1.85,-0.75,2.175));
#1390=CARTESIAN_POINT('',(-1.85,0.,1.175));
#1391=CARTESIAN_POINT('Origin',(-2.85,0.,1.));
#1392=CARTESIAN_POINT('',(-2.85,3.1,3.875));
#1393=CARTESIAN_POINT('',(-2.85,3.1,3.875));
#1394=CARTESIAN_POINT('',(-2.85,-0.75,3.875));
#1395=CARTESIAN_POINT('',(-2.85,0.,3.875));
#1396=CARTESIAN_POINT('',(-2.85,-0.75,3.875));
#1397=CARTESIAN_POINT('Origin',(170.,0.,1.175));
#1398=CARTESIAN_POINT('',(170.,-0.75,1.175));
#1399=CARTESIAN_POINT('',(126.25,-0.75,1.175));
#1400=CARTESIAN_POINT('',(170.,3.1,1.175));
#1401=CARTESIAN_POINT('',(170.,0.,1.175));
#1402=CARTESIAN_POINT('',(126.25,3.1,1.175));
#1403=CARTESIAN_POINT('Origin',(82.5,3.1,1.8125));
#1404=CARTESIAN_POINT('',(170.,3.1,-0.75));
#1405=CARTESIAN_POINT('',(170.,3.1,0.));
#1406=CARTESIAN_POINT('',(-3.5,3.1,-0.75));
#1407=CARTESIAN_POINT('',(0.,3.1,-0.75));
#1408=CARTESIAN_POINT('',(-5.,3.1,0.75));
#1409=CARTESIAN_POINT('Origin',(-3.5,3.1,0.75));
#1410=CARTESIAN_POINT('',(-5.,3.1,3.875));
#1411=CARTESIAN_POINT('',(-5.,3.1,3.875));
#1412=CARTESIAN_POINT('',(-4.5,3.1,4.375));
#1413=CARTESIAN_POINT('Origin',(-4.5,3.1,3.875));
#1414=CARTESIAN_POINT('',(-3.35,3.1,4.375));
#1415=CARTESIAN_POINT('',(-3.35,3.1,4.375));
#1416=CARTESIAN_POINT('Origin',(-3.35,3.1,3.875));
#1417=CARTESIAN_POINT('Origin',(-1.85,0.,-5.67499999999955));
#1418=CARTESIAN_POINT('',(-2.85,3.1,-5.67499999999955));
#1419=CARTESIAN_POINT('',(-1.85,3.1,-4.67499999999955));
#1420=CARTESIAN_POINT('Origin',(-1.85,3.1,-5.67499999999955));
#1421=CARTESIAN_POINT('',(-1.85,-0.75,-4.67499999999955));
#1422=CARTESIAN_POINT('',(-1.85,0.,-4.67499999999955));
#1423=CARTESIAN_POINT('',(-2.85,-0.75,-5.67499999999955));
#1424=CARTESIAN_POINT('Origin',(-1.85,-0.75,-5.67499999999955));
#1425=CARTESIAN_POINT('',(-2.85,0.,-5.67499999999955));
#1426=CARTESIAN_POINT('Origin',(-1.84999999999999,0.,-4.67499999999955));
#1427=CARTESIAN_POINT('',(170.,3.1,-4.675));
#1428=CARTESIAN_POINT('',(40.325,3.1,-4.67499999999966));
#1429=CARTESIAN_POINT('',(170.,-0.75,-4.675));
#1430=CARTESIAN_POINT('',(170.,0.,-4.675));
#1431=CARTESIAN_POINT('',(40.325,-0.75,-4.67499999999966));
#1432=CARTESIAN_POINT('Origin',(-2.85,0.,-7.375));
#1433=CARTESIAN_POINT('',(-2.85,-0.75,-7.375));
#1434=CARTESIAN_POINT('',(-2.85,-0.75,-7.375));
#1435=CARTESIAN_POINT('',(-2.85,3.1,-7.375));
#1436=CARTESIAN_POINT('',(-2.85,0.,-7.375));
#1437=CARTESIAN_POINT('',(-2.85,3.1,-7.375));
#1438=CARTESIAN_POINT('Origin',(-3.5,0.,0.75));
#1439=CARTESIAN_POINT('',(-5.,0.,0.75));
#1440=CARTESIAN_POINT('',(-3.5,0.,-0.75));
#1441=CARTESIAN_POINT('Origin',(-3.5,0.,0.75));
#1442=CARTESIAN_POINT('',(-5.,0.,0.75));
#1443=CARTESIAN_POINT('',(-3.5,0.,-0.75));
#1444=CARTESIAN_POINT('Origin',(170.,0.,-0.75));
#1445=CARTESIAN_POINT('',(170.,0.,-0.75));
#1446=CARTESIAN_POINT('',(126.25,0.,-0.75));
#1447=CARTESIAN_POINT('',(170.,0.,-0.75));
#1448=CARTESIAN_POINT('Origin',(-3.5,0.,-2.75));
#1449=CARTESIAN_POINT('',(170.,0.,-2.75));
#1450=CARTESIAN_POINT('',(-3.5,0.,-2.75));
#1451=CARTESIAN_POINT('',(39.5,0.,-2.75));
#1452=CARTESIAN_POINT('',(170.,3.1,-2.75));
#1453=CARTESIAN_POINT('',(170.,0.,-2.75));
#1454=CARTESIAN_POINT('',(-3.5,3.1,-2.75));
#1455=CARTESIAN_POINT('',(0.,3.1,-2.75));
#1456=CARTESIAN_POINT('',(-3.5,0.,-2.75));
#1457=CARTESIAN_POINT('Origin',(-3.5,0.,-4.25));
#1458=CARTESIAN_POINT('',(-5.,0.,-4.25));
#1459=CARTESIAN_POINT('Origin',(-3.5,0.,-4.25));
#1460=CARTESIAN_POINT('',(-5.,3.1,-4.25));
#1461=CARTESIAN_POINT('Origin',(-3.5,3.1,-4.25));
#1462=CARTESIAN_POINT('',(-5.,0.,-4.25));
#1463=CARTESIAN_POINT('Origin',(82.5,3.1,-5.3125));
#1464=CARTESIAN_POINT('',(170.,3.1,0.));
#1465=CARTESIAN_POINT('',(-3.35,3.1,-7.875));
#1466=CARTESIAN_POINT('Origin',(-3.35,3.1,-7.375));
#1467=CARTESIAN_POINT('',(-4.5,3.1,-7.875));
#1468=CARTESIAN_POINT('',(-4.5,3.1,-7.875));
#1469=CARTESIAN_POINT('',(-5.,3.1,-7.375));
#1470=CARTESIAN_POINT('Origin',(-4.5,3.1,-7.375));
#1471=CARTESIAN_POINT('',(-5.,3.1,-4.25));
#1472=CARTESIAN_POINT('Origin',(-5.,0.,3.875));
#1473=CARTESIAN_POINT('',(-5.,0.,-4.25));
#1474=CARTESIAN_POINT('',(-5.,-0.75,-7.375));
#1475=CARTESIAN_POINT('',(-5.,0.,-7.375));
#1476=CARTESIAN_POINT('',(-5.,-0.75,3.875));
#1477=CARTESIAN_POINT('',(-5.,-0.75,-4.25));
#1478=CARTESIAN_POINT('',(-5.,0.,3.875));
#1479=CARTESIAN_POINT('Origin',(-4.5,0.,3.875));
#1480=CARTESIAN_POINT('',(-4.5,-0.75,4.375));
#1481=CARTESIAN_POINT('Origin',(-4.5,-0.75,3.875));
#1482=CARTESIAN_POINT('',(-4.5,0.,4.375));
#1483=CARTESIAN_POINT('Origin',(-3.35,0.,4.375));
#1484=CARTESIAN_POINT('',(-3.35,-0.75,4.375));
#1485=CARTESIAN_POINT('',(-3.35,-0.75,4.375));
#1486=CARTESIAN_POINT('',(-3.35,0.,4.375));
#1487=CARTESIAN_POINT('Origin',(-3.35,0.,3.875));
#1488=CARTESIAN_POINT('Origin',(-3.35,-0.75,3.875));
#1489=CARTESIAN_POINT('Origin',(170.,0.,-3.5));
#1490=CARTESIAN_POINT('',(170.,-0.75,0.));
#1491=CARTESIAN_POINT('',(170.,0.,0.));
#1492=CARTESIAN_POINT('Origin',(-3.35,0.,-7.375));
#1493=CARTESIAN_POINT('',(-3.35,-0.75,-7.875));
#1494=CARTESIAN_POINT('Origin',(-3.35,-0.75,-7.375));
#1495=CARTESIAN_POINT('',(-3.35,0.,-7.875));
#1496=CARTESIAN_POINT('Origin',(-4.5,0.,-7.875));
#1497=CARTESIAN_POINT('',(-4.5,-0.75,-7.875));
#1498=CARTESIAN_POINT('',(-4.5,-0.75,-7.875));
#1499=CARTESIAN_POINT('',(-4.5,0.,-7.875));
#1500=CARTESIAN_POINT('Origin',(-4.5,0.,-7.375));
#1501=CARTESIAN_POINT('Origin',(-4.5,-0.75,-7.375));
#1502=CARTESIAN_POINT('Origin',(82.5,0.,-1.75));
#1503=CARTESIAN_POINT('Origin',(82.5,-0.75,-1.75));
#1504=CARTESIAN_POINT('Origin',(159.5,-2.6,1.175));
#1505=CARTESIAN_POINT('',(157.65,-2.6,1.675));
#1506=CARTESIAN_POINT('',(157.65,-2.6,1.175));
#1507=CARTESIAN_POINT('',(157.65,-2.6,1.425));
#1508=CARTESIAN_POINT('',(159.5,-2.6,1.675));
#1509=CARTESIAN_POINT('',(159.5,-2.6,1.675));
#1510=CARTESIAN_POINT('',(159.5,-2.6,1.175));
#1511=CARTESIAN_POINT('',(159.5,-2.6,-2.));
#1512=CARTESIAN_POINT('',(159.5,-2.6,1.175));
#1513=CARTESIAN_POINT('Origin',(159.5,-0.75,1.175));
#1514=CARTESIAN_POINT('',(157.65,-0.75,1.175));
#1515=CARTESIAN_POINT('',(157.65,-0.75,1.175));
#1516=CARTESIAN_POINT('',(159.5,-0.75,1.175));
#1517=CARTESIAN_POINT('',(159.5,-0.75,1.175));
#1518=CARTESIAN_POINT('',(159.0375,-0.75,1.175));
#1519=CARTESIAN_POINT('Origin',(159.5,-2.6,-5.175));
#1520=CARTESIAN_POINT('',(157.65,-2.6,-4.675));
#1521=CARTESIAN_POINT('',(157.65,-2.6,-5.175));
#1522=CARTESIAN_POINT('',(157.65,-2.6,-1.75));
#1523=CARTESIAN_POINT('',(159.5,-2.6,-4.675));
#1524=CARTESIAN_POINT('',(159.5,-2.6,-4.675));
#1525=CARTESIAN_POINT('',(159.5,-2.6,-5.175));
#1526=CARTESIAN_POINT('',(159.5,-2.6,-5.175));
#1527=CARTESIAN_POINT('',(158.575,-2.6,-5.175));
#1528=CARTESIAN_POINT('Origin',(159.5,-2.6,-4.675));
#1529=CARTESIAN_POINT('',(157.65,-0.75,-4.675));
#1530=CARTESIAN_POINT('',(157.65,-1.675,-4.675));
#1531=CARTESIAN_POINT('',(159.5,-0.75,-4.675));
#1532=CARTESIAN_POINT('',(159.0375,-0.75,-4.675));
#1533=CARTESIAN_POINT('',(159.5,-1.675,-4.675));
#1534=CARTESIAN_POINT('Origin',(159.5,-5.6,-4.125));
#1535=CARTESIAN_POINT('',(157.65,-5.6,-4.125));
#1536=CARTESIAN_POINT('',(157.65,-4.34387527839644,-4.56464365256125));
#1537=CARTESIAN_POINT('',(159.5,-5.6,-4.125));
#1538=CARTESIAN_POINT('',(159.5,-3.27594654788419,-4.93841870824054));
#1539=CARTESIAN_POINT('',(159.0375,-5.6,-4.125));
#1540=CARTESIAN_POINT('Origin',(159.5,-1.15,-1.75));
#1541=CARTESIAN_POINT('',(157.65,-1.15,-1.75));
#1542=CARTESIAN_POINT('',(157.65,-0.282988405512295,-1.2872690928296));
#1543=CARTESIAN_POINT('',(159.5,-1.15,-1.75));
#1544=CARTESIAN_POINT('',(159.5,-1.7056897737601,-2.04657600284949));
#1545=CARTESIAN_POINT('',(159.5,-1.15,-1.75));
#1546=CARTESIAN_POINT('Origin',(159.5,-5.6,0.624999999999999));
#1547=CARTESIAN_POINT('',(157.65,-5.6,0.625));
#1548=CARTESIAN_POINT('',(157.65,-3.9306897737601,-0.265923997150508));
#1549=CARTESIAN_POINT('',(159.5,-5.6,0.625));
#1550=CARTESIAN_POINT('',(159.5,-2.50798840551229,-1.0252309071704));
#1551=CARTESIAN_POINT('',(159.0375,-5.6,0.624999999999999));
#1552=CARTESIAN_POINT('Origin',(159.5,-2.6,1.675));
#1553=CARTESIAN_POINT('',(157.65,-1.77594654788419,1.96341870824053));
#1554=CARTESIAN_POINT('',(159.5,-2.84387527839644,1.58964365256125));
#1555=CARTESIAN_POINT('Origin',(158.575,-0.75,-1.75));
#1556=CARTESIAN_POINT('',(159.5,-0.75,1.675));
#1557=CARTESIAN_POINT('',(157.65,-0.75,-5.175));
#1558=CARTESIAN_POINT('Origin',(159.5,-0.75,-5.175));
#1559=CARTESIAN_POINT('Origin',(157.65,-0.75,1.675));
#1560=CARTESIAN_POINT('Origin',(0.724999999999998,-2.6,1.175));
#1561=CARTESIAN_POINT('',(-1.12499999999999,-2.6,1.675));
#1562=CARTESIAN_POINT('',(-1.12499999999999,-2.6,1.175));
#1563=CARTESIAN_POINT('',(-1.12499999999999,-2.6,1.425));
#1564=CARTESIAN_POINT('',(0.724999999999998,-2.6,1.675));
#1565=CARTESIAN_POINT('',(0.724999999999998,-2.6,1.675));
#1566=CARTESIAN_POINT('',(0.724999999999998,-2.6,1.175));
#1567=CARTESIAN_POINT('',(0.724999999999998,-2.6,-2.));
#1568=CARTESIAN_POINT('',(0.724999999999998,-2.6,1.175));
#1569=CARTESIAN_POINT('Origin',(0.724999999999998,-0.75,1.175));
#1570=CARTESIAN_POINT('',(-1.12499999999999,-0.75,1.175));
#1571=CARTESIAN_POINT('',(-1.12499999999999,-0.75,1.175));
#1572=CARTESIAN_POINT('',(0.724999999999998,-0.75,1.175));
#1573=CARTESIAN_POINT('',(0.724999999999998,-0.75,1.175));
#1574=CARTESIAN_POINT('',(0.262499999999992,-0.75,1.175));
#1575=CARTESIAN_POINT('Origin',(0.724999999999998,-2.6,-5.175));
#1576=CARTESIAN_POINT('',(-1.12499999999999,-2.6,-4.675));
#1577=CARTESIAN_POINT('',(-1.12499999999999,-2.6,-5.175));
#1578=CARTESIAN_POINT('',(-1.12499999999999,-2.6,-1.75));
#1579=CARTESIAN_POINT('',(0.724999999999998,-2.6,-4.675));
#1580=CARTESIAN_POINT('',(0.724999999999998,-2.6,-4.675));
#1581=CARTESIAN_POINT('',(0.724999999999998,-2.6,-5.175));
#1582=CARTESIAN_POINT('',(0.724999999999998,-2.6,-5.175));
#1583=CARTESIAN_POINT('',(-0.199999999999996,-2.6,-5.175));
#1584=CARTESIAN_POINT('Origin',(0.724999999999998,-2.6,-4.675));
#1585=CARTESIAN_POINT('',(-1.12499999999999,-0.75,-4.675));
#1586=CARTESIAN_POINT('',(-1.12499999999999,-1.675,-4.675));
#1587=CARTESIAN_POINT('',(0.724999999999998,-0.75,-4.675));
#1588=CARTESIAN_POINT('',(0.262499999999992,-0.75,-4.675));
#1589=CARTESIAN_POINT('',(0.724999999999998,-1.675,-4.675));
#1590=CARTESIAN_POINT('Origin',(0.724999999999998,-5.6,-4.125));
#1591=CARTESIAN_POINT('',(-1.12499999999999,-5.6,-4.125));
#1592=CARTESIAN_POINT('',(-1.12499999999999,-4.34387527839644,-4.56464365256125));
#1593=CARTESIAN_POINT('',(0.724999999999998,-5.6,-4.125));
#1594=CARTESIAN_POINT('',(0.724999999999998,-3.27594654788419,-4.93841870824054));
#1595=CARTESIAN_POINT('',(0.262499999999992,-5.6,-4.125));
#1596=CARTESIAN_POINT('Origin',(0.724999999999998,-1.15,-1.75));
#1597=CARTESIAN_POINT('',(-1.12499999999999,-1.15,-1.75));
#1598=CARTESIAN_POINT('',(-1.12499999999999,-0.282988405512295,-1.2872690928296));
#1599=CARTESIAN_POINT('',(0.724999999999998,-1.15,-1.75));
#1600=CARTESIAN_POINT('',(0.724999999999998,-1.7056897737601,-2.04657600284949));
#1601=CARTESIAN_POINT('',(0.724999999999998,-1.15,-1.75));
#1602=CARTESIAN_POINT('Origin',(0.724999999999998,-5.6,0.624999999999999));
#1603=CARTESIAN_POINT('',(-1.12499999999999,-5.6,0.624999999999999));
#1604=CARTESIAN_POINT('',(-1.12499999999999,-3.9306897737601,-0.265923997150508));
#1605=CARTESIAN_POINT('',(0.724999999999998,-5.6,0.624999999999999));
#1606=CARTESIAN_POINT('',(0.724999999999998,-2.50798840551229,-1.02523090717041));
#1607=CARTESIAN_POINT('',(0.262499999999992,-5.6,0.624999999999999));
#1608=CARTESIAN_POINT('Origin',(0.724999999999998,-2.6,1.675));
#1609=CARTESIAN_POINT('',(-1.12499999999999,-1.77594654788419,1.96341870824053));
#1610=CARTESIAN_POINT('',(0.724999999999998,-2.84387527839644,1.58964365256125));
#1611=CARTESIAN_POINT('Origin',(-0.199999999999996,-0.75,-1.75));
#1612=CARTESIAN_POINT('',(0.724999999999998,-0.75,1.675));
#1613=CARTESIAN_POINT('',(-1.12499999999999,-0.75,-5.175));
#1614=CARTESIAN_POINT('Origin',(0.724999999999998,-0.75,-5.175));
#1615=CARTESIAN_POINT('Origin',(-1.12499999999999,-0.75,1.675));
#1616=CARTESIAN_POINT('Origin',(80.925,-2.6,1.175));
#1617=CARTESIAN_POINT('',(79.075,-2.6,1.675));
#1618=CARTESIAN_POINT('',(79.075,-2.6,1.175));
#1619=CARTESIAN_POINT('',(79.075,-2.6,1.425));
#1620=CARTESIAN_POINT('',(80.925,-2.6,1.675));
#1621=CARTESIAN_POINT('',(80.925,-2.6,1.675));
#1622=CARTESIAN_POINT('',(80.925,-2.6,1.175));
#1623=CARTESIAN_POINT('',(80.925,-2.6,-2.));
#1624=CARTESIAN_POINT('',(80.925,-2.6,1.175));
#1625=CARTESIAN_POINT('Origin',(80.925,-0.75,1.175));
#1626=CARTESIAN_POINT('',(79.075,-0.75,1.175));
#1627=CARTESIAN_POINT('',(79.075,-0.75,1.175));
#1628=CARTESIAN_POINT('',(80.925,-0.75,1.175));
#1629=CARTESIAN_POINT('',(80.925,-0.75,1.175));
#1630=CARTESIAN_POINT('',(80.4625,-0.75,1.175));
#1631=CARTESIAN_POINT('Origin',(80.925,-2.6,-5.175));
#1632=CARTESIAN_POINT('',(79.075,-2.6,-4.675));
#1633=CARTESIAN_POINT('',(79.075,-2.6,-5.175));
#1634=CARTESIAN_POINT('',(79.075,-2.6,-1.75));
#1635=CARTESIAN_POINT('',(80.925,-2.6,-4.675));
#1636=CARTESIAN_POINT('',(80.925,-2.6,-4.675));
#1637=CARTESIAN_POINT('',(80.925,-2.6,-5.175));
#1638=CARTESIAN_POINT('',(80.925,-2.6,-5.175));
#1639=CARTESIAN_POINT('',(80.,-2.6,-5.175));
#1640=CARTESIAN_POINT('Origin',(80.925,-2.6,-4.675));
#1641=CARTESIAN_POINT('',(79.075,-0.75,-4.675));
#1642=CARTESIAN_POINT('',(79.075,-1.675,-4.675));
#1643=CARTESIAN_POINT('',(80.925,-0.75,-4.675));
#1644=CARTESIAN_POINT('',(80.4625,-0.75,-4.675));
#1645=CARTESIAN_POINT('',(80.925,-1.675,-4.675));
#1646=CARTESIAN_POINT('Origin',(80.925,-5.6,-4.125));
#1647=CARTESIAN_POINT('',(79.075,-5.6,-4.125));
#1648=CARTESIAN_POINT('',(79.075,-4.34387527839644,-4.56464365256125));
#1649=CARTESIAN_POINT('',(80.925,-5.6,-4.125));
#1650=CARTESIAN_POINT('',(80.925,-3.27594654788419,-4.93841870824054));
#1651=CARTESIAN_POINT('',(80.4625,-5.6,-4.125));
#1652=CARTESIAN_POINT('Origin',(80.925,-1.15,-1.75));
#1653=CARTESIAN_POINT('',(79.075,-1.15,-1.75));
#1654=CARTESIAN_POINT('',(79.075,-0.282988405512295,-1.2872690928296));
#1655=CARTESIAN_POINT('',(80.925,-1.15,-1.75));
#1656=CARTESIAN_POINT('',(80.925,-1.7056897737601,-2.04657600284949));
#1657=CARTESIAN_POINT('',(80.925,-1.15,-1.75));
#1658=CARTESIAN_POINT('Origin',(80.925,-5.6,0.624999999999999));
#1659=CARTESIAN_POINT('',(79.075,-5.6,0.624999999999999));
#1660=CARTESIAN_POINT('',(79.075,-3.9306897737601,-0.265923997150508));
#1661=CARTESIAN_POINT('',(80.925,-5.6,0.624999999999999));
#1662=CARTESIAN_POINT('',(80.925,-2.50798840551229,-1.02523090717041));
#1663=CARTESIAN_POINT('',(80.4625,-5.6,0.624999999999999));
#1664=CARTESIAN_POINT('Origin',(80.925,-2.6,1.675));
#1665=CARTESIAN_POINT('',(79.075,-1.77594654788419,1.96341870824053));
#1666=CARTESIAN_POINT('',(80.925,-2.84387527839644,1.58964365256125));
#1667=CARTESIAN_POINT('Origin',(80.,-0.75,-1.75));
#1668=CARTESIAN_POINT('',(80.925,-0.75,1.675));
#1669=CARTESIAN_POINT('',(79.075,-0.75,-5.175));
#1670=CARTESIAN_POINT('Origin',(80.925,-0.75,-5.175));
#1671=CARTESIAN_POINT('Origin',(79.075,-0.75,1.675));
#1672=UNCERTAINTY_MEASURE_WITH_UNIT(LENGTH_MEASURE(0.01),#1676,
'DISTANCE_ACCURACY_VALUE',
'Maximum model space distance between geometric entities at asserted c
onnectivities');
#1673=UNCERTAINTY_MEASURE_WITH_UNIT(LENGTH_MEASURE(0.01),#1676,
'DISTANCE_ACCURACY_VALUE',
'Maximum model space distance between geometric entities at asserted c
onnectivities');
#1674=(
GEOMETRIC_REPRESENTATION_CONTEXT(3)
GLOBAL_UNCERTAINTY_ASSIGNED_CONTEXT((#1672))
GLOBAL_UNIT_ASSIGNED_CONTEXT((#1676,#1678,#1679))
REPRESENTATION_CONTEXT('','3D')
);
#1675=(
GEOMETRIC_REPRESENTATION_CONTEXT(3)
GLOBAL_UNCERTAINTY_ASSIGNED_CONTEXT((#1673))
GLOBAL_UNIT_ASSIGNED_CONTEXT((#1676,#1678,#1679))
REPRESENTATION_CONTEXT('','3D')
);
#1676=(
LENGTH_UNIT()
NAMED_UNIT(*)
SI_UNIT(.MILLI.,.METRE.)
);
#1677=(
LENGTH_UNIT()
NAMED_UNIT(*)
SI_UNIT($,.METRE.)
);
#1678=(
NAMED_UNIT(*)
PLANE_ANGLE_UNIT()
SI_UNIT($,.RADIAN.)
);
#1679=(
NAMED_UNIT(*)
SI_UNIT($,.STERADIAN.)
SOLID_ANGLE_UNIT()
);
#1680=SHAPE_DEFINITION_REPRESENTATION(#1681,#1682);
#1681=PRODUCT_DEFINITION_SHAPE('',$,#1684);
#1682=SHAPE_REPRESENTATION('',(#1040),#1674);
#1683=PRODUCT_DEFINITION_CONTEXT('part definition',#1688,'design');
#1684=PRODUCT_DEFINITION('guide','guide',#1685,#1683);
#1685=PRODUCT_DEFINITION_FORMATION('',$,#1690);
#1686=PRODUCT_RELATED_PRODUCT_CATEGORY('guide','guide',(#1690));
#1687=APPLICATION_PROTOCOL_DEFINITION('international standard',
'automotive_design',2009,#1688);
#1688=APPLICATION_CONTEXT(
'Core Data for Automotive Mechanical Design Process');
#1689=PRODUCT_CONTEXT('part definition',#1688,'mechanical');
#1690=PRODUCT('guide','guide',$,(#1689));
#1691=PRESENTATION_STYLE_ASSIGNMENT((#1692));
#1692=SURFACE_STYLE_USAGE(.BOTH.,#1693);
#1693=SURFACE_SIDE_STYLE('',(#1694));
#1694=SURFACE_STYLE_FILL_AREA(#1695);
#1695=FILL_AREA_STYLE('Plastic - Glossy (Black)',(#1696));
#1696=FILL_AREA_STYLE_COLOUR('Plastic - Glossy (Black)',#1697);
#1697=COLOUR_RGB('Plastic - Glossy (Black)',0.0980392156862745,0.0980392156862745,
0.0980392156862745);
ENDSEC;
END-ISO-10303-21;
