G75*
G70*
%OFA0B0*%
%FSAX24Y24*%
%IPPOS*%
%LPD*%
%AMOC8*
5,1,8,0,0,1.08239X$1,22.5*
*%
%ADD10C,0.0150*%
%ADD11C,0.0100*%
%ADD12R,0.0840X0.0840*%
%ADD13OC8,0.0600*%
%ADD14OC8,0.0560*%
%ADD15C,0.0041*%
%ADD16C,0.0554*%
%ADD17OC8,0.0554*%
%ADD18C,0.1378*%
%ADD19O,0.1120X0.0560*%
%ADD20OC8,0.0850*%
%ADD21C,0.0600*%
%ADD22C,0.0520*%
%ADD23C,0.0060*%
%ADD24C,0.0500*%
%ADD25C,0.0240*%
%ADD26C,0.0380*%
%ADD27C,0.0320*%
%ADD28C,0.0290*%
%ADD29C,0.0070*%
%ADD30C,0.0300*%
%ADD31R,0.0380X0.0380*%
D10*
X008094Y035064D02*
X008094Y033713D01*
X007418Y033713D01*
X007193Y033939D01*
X007193Y034164D01*
X007418Y034389D01*
X008094Y034389D01*
X008094Y035064D02*
X007418Y035064D01*
X007193Y034839D01*
X007193Y034614D01*
X007418Y034389D01*
X006713Y034389D02*
X006713Y033939D01*
X006488Y033713D01*
X006037Y033713D01*
X005812Y033939D01*
X005812Y034389D01*
X006037Y034614D01*
X006488Y034614D01*
X006713Y034389D01*
X005332Y034614D02*
X004881Y034614D01*
X005107Y034839D02*
X005107Y033939D01*
X004881Y033713D01*
X003956Y033939D02*
X003730Y033713D01*
X003956Y033939D02*
X003956Y034839D01*
X004181Y034614D02*
X003730Y034614D01*
X003030Y034389D02*
X003030Y033939D01*
X002805Y033713D01*
X002354Y033713D01*
X002129Y033939D01*
X002129Y034389D01*
X002354Y034614D01*
X002805Y034614D01*
X003030Y034389D01*
X001649Y034614D02*
X001424Y034614D01*
X001198Y034389D01*
X000973Y034614D01*
X000748Y034389D01*
X000748Y033713D01*
X001198Y033713D02*
X001198Y034389D01*
X001649Y034614D02*
X001649Y033713D01*
D11*
X015908Y011619D02*
X015908Y011218D01*
X015842Y011419D02*
X016109Y011419D01*
X015908Y011619D01*
X016302Y011218D02*
X016569Y011218D01*
X016569Y011619D01*
X021759Y013003D02*
X021759Y015418D01*
X021699Y015553D01*
X021699Y018538D01*
X021759Y018673D01*
X022119Y019033D01*
X022119Y021403D01*
X022779Y022063D01*
X025449Y022453D02*
X026424Y023428D01*
X026424Y031423D01*
X026394Y031423D01*
X026394Y032083D01*
X026019Y032458D01*
X027369Y031633D02*
X027369Y031423D01*
X026424Y031423D01*
X026394Y031423D02*
X026079Y031423D01*
X032694Y029563D02*
X032739Y029428D01*
X032739Y018373D01*
X033459Y017653D01*
X022059Y012703D02*
X021759Y013003D01*
X045879Y021973D02*
X045879Y022198D01*
X045874Y022488D01*
X045879Y022783D01*
X045879Y023203D01*
X045884Y023488D01*
X046554Y023488D02*
X046794Y023203D01*
X046794Y023083D01*
X046959Y022918D01*
X046794Y022603D02*
X046544Y022488D01*
X046449Y022198D01*
X046449Y018658D01*
X048459Y019303D02*
X048539Y019428D01*
X050544Y019813D02*
X050544Y020078D01*
X050919Y019428D02*
X050919Y019018D01*
X050859Y018883D01*
X050859Y017728D01*
X050799Y017473D01*
X050799Y016804D02*
X050514Y016798D01*
X050274Y016798D01*
X050799Y016804D02*
X051084Y016798D01*
X051459Y016798D01*
X051749Y016804D01*
X052044Y017233D02*
X051749Y017473D01*
X052044Y017233D02*
X052404Y017233D01*
X054969Y018988D02*
X054969Y019273D01*
X054909Y019428D01*
X054309Y021073D02*
X054159Y021073D01*
X054909Y022408D02*
X054939Y022408D01*
X054909Y022453D02*
X054969Y022453D01*
X054309Y022723D02*
X054159Y022723D01*
X056454Y022633D02*
X056454Y024733D01*
X056649Y024928D01*
X056649Y025138D01*
X056094Y025693D01*
X055434Y025693D01*
X055299Y025753D01*
X055059Y025753D01*
X054909Y025708D01*
X054804Y025708D01*
X054849Y025818D01*
X053274Y025483D02*
X053274Y025138D01*
X051639Y025868D02*
X051639Y027553D01*
X051919Y027804D01*
X051919Y028473D02*
X051624Y028468D01*
X051459Y028468D01*
X051444Y028483D01*
X051249Y028483D01*
X050959Y028483D01*
X050664Y028483D01*
X050439Y028483D01*
X050959Y027814D02*
X050679Y027568D01*
X050679Y027523D01*
X050499Y027343D01*
X050559Y027208D01*
X050559Y027073D01*
X051369Y026263D01*
X048539Y025868D02*
X048444Y025993D01*
X048174Y026263D01*
X048039Y025663D02*
X048539Y025663D01*
X049074Y022888D02*
X049229Y022888D01*
X048539Y022603D02*
X048384Y022618D01*
X048249Y022603D01*
X046794Y022603D01*
X048444Y022603D02*
X048539Y022603D01*
X056454Y022633D02*
X056589Y022498D01*
X056824Y022208D01*
X056814Y022738D02*
X056814Y023143D01*
X056834Y023428D01*
X057504Y023428D02*
X057504Y023143D01*
X057504Y022843D01*
X057489Y022828D01*
X057489Y022498D01*
X057494Y022208D01*
X057489Y021913D01*
X057489Y021688D01*
X049359Y028888D02*
X049359Y029323D01*
X048924Y029758D01*
X048909Y029893D01*
X048909Y034093D01*
X045894Y032998D02*
X045894Y031903D01*
X044814Y030823D01*
X045894Y032998D02*
X045834Y033133D01*
X045834Y040393D01*
X045879Y040408D01*
X048234Y040408D01*
X050199Y042373D01*
X045834Y040393D02*
X043854Y042373D01*
X043719Y042313D01*
X042084Y040678D01*
X032949Y040678D01*
X032904Y040663D01*
X032904Y032788D01*
X032964Y032653D01*
X032964Y029833D01*
X032694Y029563D01*
X017604Y034168D02*
X017469Y034108D01*
X017394Y034033D01*
X017394Y033418D01*
X017604Y034168D02*
X017604Y041293D01*
X017229Y041668D01*
X029634Y042328D02*
X031314Y042328D01*
X031374Y042193D01*
X032904Y040663D01*
X066144Y030508D02*
X067944Y028708D01*
X071514Y028708D01*
X071514Y028498D01*
X071693Y028290D01*
X066759Y013993D02*
X066759Y010648D01*
X066204Y010093D01*
X057609Y008728D02*
X057294Y008413D01*
X057169Y008128D01*
X057609Y008728D02*
X057609Y012523D01*
X057294Y012838D01*
X057169Y013128D01*
D12*
X036009Y010968D03*
X028109Y010968D03*
X028109Y020718D03*
X036009Y020718D03*
D13*
X045169Y013128D03*
X046169Y013128D03*
X047169Y013128D03*
X048169Y013128D03*
X048169Y012128D03*
X047169Y012128D03*
X046169Y012128D03*
X045169Y012128D03*
X049169Y012128D03*
X050169Y012128D03*
X051169Y012128D03*
X052169Y012128D03*
X053169Y012128D03*
X054169Y012128D03*
X055169Y012128D03*
X056169Y012128D03*
X057169Y012128D03*
X057169Y013128D03*
X056169Y013128D03*
X055169Y013128D03*
X054169Y013128D03*
X053169Y013128D03*
X052169Y013128D03*
X051169Y013128D03*
X050169Y013128D03*
X049169Y013128D03*
X049169Y008128D03*
X050169Y008128D03*
X051169Y008128D03*
X052169Y008128D03*
X052169Y007128D03*
X051169Y007128D03*
X050169Y007128D03*
X049169Y007128D03*
X048169Y007128D03*
X047169Y007128D03*
X046169Y007128D03*
X045169Y007128D03*
X045169Y008128D03*
X046169Y008128D03*
X047169Y008128D03*
X048169Y008128D03*
X053169Y008128D03*
X054169Y008128D03*
X055169Y008128D03*
X055169Y007128D03*
X054169Y007128D03*
X053169Y007128D03*
X056169Y007128D03*
X057169Y007128D03*
X057169Y008128D03*
X056169Y008128D03*
X070169Y009108D03*
X071169Y009648D03*
X070169Y010198D03*
X071169Y010738D03*
X070169Y011278D03*
X071169Y011828D03*
X070169Y012368D03*
X071169Y012908D03*
X070169Y013458D03*
X071169Y013998D03*
X070169Y014538D03*
X071169Y015088D03*
X070169Y015628D03*
X071169Y016168D03*
X070169Y016718D03*
X071169Y017258D03*
X070169Y017798D03*
X071169Y018348D03*
X070169Y018888D03*
X071169Y019428D03*
X070169Y019978D03*
X071169Y020518D03*
X070169Y021058D03*
X071169Y021608D03*
X070169Y022148D03*
X060389Y021488D03*
X060389Y020488D03*
X059389Y020488D03*
X059389Y019488D03*
X060389Y019488D03*
D14*
X070708Y028290D03*
X071693Y028290D03*
X071693Y029117D03*
X071693Y030140D03*
X071693Y030967D03*
X070728Y030967D03*
X065619Y033358D03*
X064619Y033358D03*
X063619Y033358D03*
X062619Y033358D03*
X061619Y033358D03*
X061619Y034358D03*
X062619Y034358D03*
X063619Y034358D03*
X064619Y034358D03*
X065619Y034358D03*
X065669Y037128D03*
X064669Y037128D03*
X063669Y037128D03*
X062669Y037128D03*
X061669Y037128D03*
X061669Y038128D03*
X062669Y038128D03*
X063669Y038128D03*
X064669Y038128D03*
X065669Y038128D03*
X065619Y040908D03*
X064619Y040908D03*
X063619Y040908D03*
X062619Y040908D03*
X061619Y040908D03*
X061619Y041908D03*
X062619Y041908D03*
X063619Y041908D03*
X064619Y041908D03*
X065619Y041908D03*
X041669Y029628D03*
X040669Y029628D03*
X040669Y028628D03*
X041669Y028628D03*
X041669Y027628D03*
X040669Y027628D03*
X040669Y026628D03*
X041669Y026628D03*
X041669Y025628D03*
X040669Y025628D03*
X040669Y024628D03*
X041669Y024628D03*
X041669Y023628D03*
X040669Y023628D03*
X040669Y022628D03*
X041669Y022628D03*
X041669Y021628D03*
X040669Y021628D03*
X040669Y020628D03*
X041669Y020628D03*
X041669Y019628D03*
X040669Y019628D03*
X040669Y018628D03*
X041669Y018628D03*
X041669Y017628D03*
X040669Y017628D03*
X040669Y016628D03*
X041669Y016628D03*
X041669Y015628D03*
X040669Y015628D03*
X040669Y014628D03*
X041669Y014628D03*
X041669Y013628D03*
X040669Y013628D03*
X040669Y012628D03*
X041669Y012628D03*
X041669Y011628D03*
X040669Y011628D03*
X040669Y010628D03*
X041669Y010628D03*
X041669Y009628D03*
X040669Y009628D03*
X040669Y008628D03*
X041669Y008628D03*
X041669Y007628D03*
X040669Y007628D03*
X040669Y006628D03*
X041669Y006628D03*
X041669Y005628D03*
X040669Y005628D03*
D15*
X050524Y016568D02*
X050524Y017040D01*
X051074Y017040D01*
X051074Y016568D01*
X050524Y016568D01*
X050524Y016608D02*
X051074Y016608D01*
X051074Y016648D02*
X050524Y016648D01*
X050524Y016688D02*
X051074Y016688D01*
X051074Y016728D02*
X050524Y016728D01*
X050524Y016768D02*
X051074Y016768D01*
X051074Y016808D02*
X050524Y016808D01*
X050524Y016848D02*
X051074Y016848D01*
X051074Y016888D02*
X050524Y016888D01*
X050524Y016928D02*
X051074Y016928D01*
X051074Y016968D02*
X050524Y016968D01*
X050524Y017008D02*
X051074Y017008D01*
X051474Y017237D02*
X051474Y017709D01*
X052024Y017709D01*
X052024Y017237D01*
X051474Y017237D01*
X051474Y017277D02*
X052024Y017277D01*
X052024Y017317D02*
X051474Y017317D01*
X051474Y017357D02*
X052024Y017357D01*
X052024Y017397D02*
X051474Y017397D01*
X051474Y017437D02*
X052024Y017437D01*
X052024Y017477D02*
X051474Y017477D01*
X051474Y017517D02*
X052024Y017517D01*
X052024Y017557D02*
X051474Y017557D01*
X051474Y017597D02*
X052024Y017597D01*
X052024Y017637D02*
X051474Y017637D01*
X051474Y017677D02*
X052024Y017677D01*
X050524Y017709D02*
X050524Y017237D01*
X050524Y017709D02*
X051074Y017709D01*
X051074Y017237D01*
X050524Y017237D01*
X050524Y017277D02*
X051074Y017277D01*
X051074Y017317D02*
X050524Y017317D01*
X050524Y017357D02*
X051074Y017357D01*
X051074Y017397D02*
X050524Y017397D01*
X050524Y017437D02*
X051074Y017437D01*
X051074Y017477D02*
X050524Y017477D01*
X050524Y017517D02*
X051074Y017517D01*
X051074Y017557D02*
X050524Y017557D01*
X050524Y017597D02*
X051074Y017597D01*
X051074Y017637D02*
X050524Y017637D01*
X050524Y017677D02*
X051074Y017677D01*
X051474Y017040D02*
X051474Y016568D01*
X051474Y017040D02*
X052024Y017040D01*
X052024Y016568D01*
X051474Y016568D01*
X051474Y016608D02*
X052024Y016608D01*
X052024Y016648D02*
X051474Y016648D01*
X051474Y016688D02*
X052024Y016688D01*
X052024Y016728D02*
X051474Y016728D01*
X051474Y016768D02*
X052024Y016768D01*
X052024Y016808D02*
X051474Y016808D01*
X051474Y016848D02*
X052024Y016848D01*
X052024Y016888D02*
X051474Y016888D01*
X051474Y016928D02*
X052024Y016928D01*
X052024Y016968D02*
X051474Y016968D01*
X051474Y017008D02*
X052024Y017008D01*
X056588Y021933D02*
X056588Y022484D01*
X057060Y022484D01*
X057060Y021933D01*
X056588Y021933D01*
X056588Y021973D02*
X057060Y021973D01*
X057060Y022013D02*
X056588Y022013D01*
X056588Y022053D02*
X057060Y022053D01*
X057060Y022093D02*
X056588Y022093D01*
X056588Y022133D02*
X057060Y022133D01*
X057060Y022173D02*
X056588Y022173D01*
X056588Y022213D02*
X057060Y022213D01*
X057060Y022253D02*
X056588Y022253D01*
X056588Y022293D02*
X057060Y022293D01*
X057060Y022333D02*
X056588Y022333D01*
X056588Y022373D02*
X057060Y022373D01*
X057060Y022413D02*
X056588Y022413D01*
X056588Y022453D02*
X057060Y022453D01*
X057258Y022484D02*
X057258Y021933D01*
X057258Y022484D02*
X057730Y022484D01*
X057730Y021933D01*
X057258Y021933D01*
X057258Y021973D02*
X057730Y021973D01*
X057730Y022013D02*
X057258Y022013D01*
X057258Y022053D02*
X057730Y022053D01*
X057730Y022093D02*
X057258Y022093D01*
X057258Y022133D02*
X057730Y022133D01*
X057730Y022173D02*
X057258Y022173D01*
X057258Y022213D02*
X057730Y022213D01*
X057730Y022253D02*
X057258Y022253D01*
X057258Y022293D02*
X057730Y022293D01*
X057730Y022333D02*
X057258Y022333D01*
X057258Y022373D02*
X057730Y022373D01*
X057730Y022413D02*
X057258Y022413D01*
X057258Y022453D02*
X057730Y022453D01*
X057268Y023153D02*
X057268Y023704D01*
X057740Y023704D01*
X057740Y023153D01*
X057268Y023153D01*
X057268Y023193D02*
X057740Y023193D01*
X057740Y023233D02*
X057268Y023233D01*
X057268Y023273D02*
X057740Y023273D01*
X057740Y023313D02*
X057268Y023313D01*
X057268Y023353D02*
X057740Y023353D01*
X057740Y023393D02*
X057268Y023393D01*
X057268Y023433D02*
X057740Y023433D01*
X057740Y023473D02*
X057268Y023473D01*
X057268Y023513D02*
X057740Y023513D01*
X057740Y023553D02*
X057268Y023553D01*
X057268Y023593D02*
X057740Y023593D01*
X057740Y023633D02*
X057268Y023633D01*
X057268Y023673D02*
X057740Y023673D01*
X056598Y023704D02*
X056598Y023153D01*
X056598Y023704D02*
X057070Y023704D01*
X057070Y023153D01*
X056598Y023153D01*
X056598Y023193D02*
X057070Y023193D01*
X057070Y023233D02*
X056598Y023233D01*
X056598Y023273D02*
X057070Y023273D01*
X057070Y023313D02*
X056598Y023313D01*
X056598Y023353D02*
X057070Y023353D01*
X057070Y023393D02*
X056598Y023393D01*
X056598Y023433D02*
X057070Y023433D01*
X057070Y023473D02*
X056598Y023473D01*
X056598Y023513D02*
X057070Y023513D01*
X057070Y023553D02*
X056598Y023553D01*
X056598Y023593D02*
X057070Y023593D01*
X057070Y023633D02*
X056598Y023633D01*
X056598Y023673D02*
X057070Y023673D01*
X051644Y027568D02*
X051644Y028040D01*
X052194Y028040D01*
X052194Y027568D01*
X051644Y027568D01*
X051644Y027608D02*
X052194Y027608D01*
X052194Y027648D02*
X051644Y027648D01*
X051644Y027688D02*
X052194Y027688D01*
X052194Y027728D02*
X051644Y027728D01*
X051644Y027768D02*
X052194Y027768D01*
X052194Y027808D02*
X051644Y027808D01*
X051644Y027848D02*
X052194Y027848D01*
X052194Y027888D02*
X051644Y027888D01*
X051644Y027928D02*
X052194Y027928D01*
X052194Y027968D02*
X051644Y027968D01*
X051644Y028008D02*
X052194Y028008D01*
X051644Y028237D02*
X051644Y028709D01*
X052194Y028709D01*
X052194Y028237D01*
X051644Y028237D01*
X051644Y028277D02*
X052194Y028277D01*
X052194Y028317D02*
X051644Y028317D01*
X051644Y028357D02*
X052194Y028357D01*
X052194Y028397D02*
X051644Y028397D01*
X051644Y028437D02*
X052194Y028437D01*
X052194Y028477D02*
X051644Y028477D01*
X051644Y028517D02*
X052194Y028517D01*
X052194Y028557D02*
X051644Y028557D01*
X051644Y028597D02*
X052194Y028597D01*
X052194Y028637D02*
X051644Y028637D01*
X051644Y028677D02*
X052194Y028677D01*
X050684Y028719D02*
X050684Y028247D01*
X050684Y028719D02*
X051234Y028719D01*
X051234Y028247D01*
X050684Y028247D01*
X050684Y028287D02*
X051234Y028287D01*
X051234Y028327D02*
X050684Y028327D01*
X050684Y028367D02*
X051234Y028367D01*
X051234Y028407D02*
X050684Y028407D01*
X050684Y028447D02*
X051234Y028447D01*
X051234Y028487D02*
X050684Y028487D01*
X050684Y028527D02*
X051234Y028527D01*
X051234Y028567D02*
X050684Y028567D01*
X050684Y028607D02*
X051234Y028607D01*
X051234Y028647D02*
X050684Y028647D01*
X050684Y028687D02*
X051234Y028687D01*
X050684Y028050D02*
X050684Y027578D01*
X050684Y028050D02*
X051234Y028050D01*
X051234Y027578D01*
X050684Y027578D01*
X050684Y027618D02*
X051234Y027618D01*
X051234Y027658D02*
X050684Y027658D01*
X050684Y027698D02*
X051234Y027698D01*
X051234Y027738D02*
X050684Y027738D01*
X050684Y027778D02*
X051234Y027778D01*
X051234Y027818D02*
X050684Y027818D01*
X050684Y027858D02*
X051234Y027858D01*
X051234Y027898D02*
X050684Y027898D01*
X050684Y027938D02*
X051234Y027938D01*
X051234Y027978D02*
X050684Y027978D01*
X050684Y028018D02*
X051234Y028018D01*
X046318Y023764D02*
X046318Y023213D01*
X046318Y023764D02*
X046790Y023764D01*
X046790Y023213D01*
X046318Y023213D01*
X046318Y023253D02*
X046790Y023253D01*
X046790Y023293D02*
X046318Y023293D01*
X046318Y023333D02*
X046790Y023333D01*
X046790Y023373D02*
X046318Y023373D01*
X046318Y023413D02*
X046790Y023413D01*
X046790Y023453D02*
X046318Y023453D01*
X046318Y023493D02*
X046790Y023493D01*
X046790Y023533D02*
X046318Y023533D01*
X046318Y023573D02*
X046790Y023573D01*
X046790Y023613D02*
X046318Y023613D01*
X046318Y023653D02*
X046790Y023653D01*
X046790Y023693D02*
X046318Y023693D01*
X046318Y023733D02*
X046790Y023733D01*
X045648Y023764D02*
X045648Y023213D01*
X045648Y023764D02*
X046120Y023764D01*
X046120Y023213D01*
X045648Y023213D01*
X045648Y023253D02*
X046120Y023253D01*
X046120Y023293D02*
X045648Y023293D01*
X045648Y023333D02*
X046120Y023333D01*
X046120Y023373D02*
X045648Y023373D01*
X045648Y023413D02*
X046120Y023413D01*
X046120Y023453D02*
X045648Y023453D01*
X045648Y023493D02*
X046120Y023493D01*
X046120Y023533D02*
X045648Y023533D01*
X045648Y023573D02*
X046120Y023573D01*
X046120Y023613D02*
X045648Y023613D01*
X045648Y023653D02*
X046120Y023653D01*
X046120Y023693D02*
X045648Y023693D01*
X045648Y023733D02*
X046120Y023733D01*
X046308Y022764D02*
X046308Y022213D01*
X046308Y022764D02*
X046780Y022764D01*
X046780Y022213D01*
X046308Y022213D01*
X046308Y022253D02*
X046780Y022253D01*
X046780Y022293D02*
X046308Y022293D01*
X046308Y022333D02*
X046780Y022333D01*
X046780Y022373D02*
X046308Y022373D01*
X046308Y022413D02*
X046780Y022413D01*
X046780Y022453D02*
X046308Y022453D01*
X046308Y022493D02*
X046780Y022493D01*
X046780Y022533D02*
X046308Y022533D01*
X046308Y022573D02*
X046780Y022573D01*
X046780Y022613D02*
X046308Y022613D01*
X046308Y022653D02*
X046780Y022653D01*
X046780Y022693D02*
X046308Y022693D01*
X046308Y022733D02*
X046780Y022733D01*
X045638Y022764D02*
X045638Y022213D01*
X045638Y022764D02*
X046110Y022764D01*
X046110Y022213D01*
X045638Y022213D01*
X045638Y022253D02*
X046110Y022253D01*
X046110Y022293D02*
X045638Y022293D01*
X045638Y022333D02*
X046110Y022333D01*
X046110Y022373D02*
X045638Y022373D01*
X045638Y022413D02*
X046110Y022413D01*
X046110Y022453D02*
X045638Y022453D01*
X045638Y022493D02*
X046110Y022493D01*
X046110Y022533D02*
X045638Y022533D01*
X045638Y022573D02*
X046110Y022573D01*
X046110Y022613D02*
X045638Y022613D01*
X045638Y022653D02*
X046110Y022653D01*
X046110Y022693D02*
X045638Y022693D01*
X045638Y022733D02*
X046110Y022733D01*
D16*
X069669Y037233D03*
X070669Y037683D03*
X069669Y038133D03*
X070669Y038583D03*
X069669Y039033D03*
X070669Y039483D03*
X069669Y039933D03*
X070669Y040383D03*
X070669Y041283D03*
X071669Y040833D03*
X071669Y039933D03*
X071669Y039033D03*
X071669Y038133D03*
X071669Y037233D03*
D17*
X069669Y040833D03*
D18*
X072874Y032286D03*
X073189Y029628D03*
X072874Y026951D03*
D19*
X067659Y026668D03*
X067659Y025668D03*
X057949Y026168D03*
X057949Y027168D03*
X057949Y028168D03*
X053169Y010628D03*
X053169Y009628D03*
D20*
X016949Y029128D03*
X014389Y029128D03*
D21*
X059389Y021488D03*
D22*
X060669Y008128D03*
X061669Y008128D03*
D23*
X017259Y015998D02*
X016759Y015998D01*
X015759Y015998D02*
X015761Y016043D01*
X015767Y016089D01*
X015778Y016133D01*
X015792Y016176D01*
X015810Y016218D01*
X015832Y016258D01*
X015857Y016296D01*
X015886Y016331D01*
X015918Y016363D01*
X015952Y016393D01*
X015990Y016419D01*
X016029Y016442D01*
X016070Y016461D01*
X016113Y016476D01*
X016157Y016488D01*
X016202Y016495D01*
X016248Y016498D01*
X016293Y016497D01*
X016338Y016492D01*
X016383Y016482D01*
X016426Y016469D01*
X016469Y016452D01*
X016509Y016431D01*
X016547Y016406D01*
X016583Y016379D01*
X016617Y016348D01*
X016647Y016314D01*
X016674Y016277D01*
X016698Y016238D01*
X016718Y016197D01*
X016734Y016155D01*
X016746Y016111D01*
X016754Y016066D01*
X016758Y016021D01*
X016758Y015975D01*
X016754Y015930D01*
X016746Y015885D01*
X016734Y015841D01*
X016718Y015799D01*
X016698Y015758D01*
X016674Y015719D01*
X016647Y015682D01*
X016617Y015648D01*
X016583Y015617D01*
X016547Y015590D01*
X016509Y015565D01*
X016469Y015544D01*
X016426Y015527D01*
X016383Y015514D01*
X016338Y015504D01*
X016293Y015499D01*
X016248Y015498D01*
X016202Y015501D01*
X016157Y015508D01*
X016113Y015520D01*
X016070Y015535D01*
X016029Y015554D01*
X015990Y015577D01*
X015952Y015603D01*
X015918Y015633D01*
X015886Y015665D01*
X015857Y015700D01*
X015832Y015738D01*
X015810Y015778D01*
X015792Y015820D01*
X015778Y015863D01*
X015767Y015907D01*
X015761Y015953D01*
X015759Y015998D01*
X015259Y015998D01*
X015809Y015968D02*
X016258Y015997D01*
X016258Y015997D01*
X016229Y015548D01*
X016229Y015549D01*
X016189Y015554D01*
X016149Y015562D01*
X016111Y015573D01*
X016073Y015588D01*
X016037Y015607D01*
X016003Y015628D01*
X015971Y015653D01*
X015941Y015680D01*
X015914Y015710D01*
X015889Y015742D01*
X015868Y015776D01*
X015849Y015812D01*
X015834Y015850D01*
X015823Y015888D01*
X015815Y015928D01*
X015810Y015968D01*
X015866Y015968D01*
X015871Y015928D01*
X015880Y015890D01*
X015893Y015852D01*
X015910Y015816D01*
X015930Y015781D01*
X015954Y015749D01*
X015980Y015719D01*
X016010Y015693D01*
X016042Y015669D01*
X016077Y015649D01*
X016113Y015632D01*
X016151Y015619D01*
X016189Y015610D01*
X016229Y015605D01*
X016229Y015661D01*
X016193Y015666D01*
X016158Y015675D01*
X016124Y015688D01*
X016092Y015704D01*
X016061Y015724D01*
X016033Y015747D01*
X016008Y015772D01*
X015985Y015800D01*
X015965Y015831D01*
X015949Y015863D01*
X015936Y015897D01*
X015927Y015932D01*
X015922Y015968D01*
X015979Y015968D01*
X015984Y015937D01*
X015992Y015906D01*
X016005Y015876D01*
X016020Y015848D01*
X016038Y015822D01*
X016060Y015799D01*
X016083Y015777D01*
X016109Y015759D01*
X016137Y015744D01*
X016167Y015731D01*
X016198Y015723D01*
X016229Y015718D01*
X016229Y015774D01*
X016200Y015780D01*
X016172Y015789D01*
X016146Y015802D01*
X016121Y015819D01*
X016099Y015838D01*
X016080Y015860D01*
X016063Y015885D01*
X016050Y015911D01*
X016041Y015939D01*
X016035Y015968D01*
X016092Y015968D01*
X016098Y015943D01*
X016108Y015919D01*
X016122Y015897D01*
X016139Y015878D01*
X016158Y015861D01*
X016180Y015847D01*
X016204Y015837D01*
X016229Y015831D01*
X016229Y015888D01*
X016211Y015895D01*
X016194Y015905D01*
X016178Y015917D01*
X016166Y015933D01*
X016156Y015950D01*
X016149Y015968D01*
X016209Y015969D01*
X016214Y015961D01*
X016222Y015953D01*
X016230Y015948D01*
X016257Y015998D01*
X016257Y015997D01*
X016258Y015996D01*
X016259Y015996D01*
X016708Y016027D02*
X016259Y015998D01*
X016260Y015999D02*
X016260Y015999D01*
X016288Y016447D01*
X016289Y016447D01*
X016329Y016442D01*
X016369Y016434D01*
X016407Y016423D01*
X016445Y016408D01*
X016481Y016389D01*
X016515Y016368D01*
X016547Y016343D01*
X016577Y016316D01*
X016604Y016286D01*
X016629Y016254D01*
X016650Y016220D01*
X016669Y016184D01*
X016684Y016146D01*
X016695Y016108D01*
X016703Y016068D01*
X016708Y016028D01*
X016652Y016028D01*
X016647Y016068D01*
X016638Y016106D01*
X016625Y016144D01*
X016608Y016180D01*
X016588Y016215D01*
X016564Y016247D01*
X016538Y016277D01*
X016508Y016303D01*
X016476Y016327D01*
X016441Y016347D01*
X016405Y016364D01*
X016367Y016377D01*
X016329Y016386D01*
X016289Y016391D01*
X016289Y016335D01*
X016325Y016330D01*
X016360Y016321D01*
X016394Y016308D01*
X016426Y016292D01*
X016457Y016272D01*
X016485Y016249D01*
X016510Y016224D01*
X016533Y016196D01*
X016553Y016165D01*
X016569Y016133D01*
X016582Y016099D01*
X016591Y016064D01*
X016596Y016028D01*
X016539Y016028D01*
X016534Y016059D01*
X016526Y016090D01*
X016513Y016120D01*
X016498Y016148D01*
X016480Y016174D01*
X016458Y016197D01*
X016435Y016219D01*
X016409Y016237D01*
X016381Y016252D01*
X016351Y016265D01*
X016320Y016273D01*
X016289Y016278D01*
X016289Y016222D01*
X016318Y016216D01*
X016346Y016207D01*
X016372Y016194D01*
X016397Y016177D01*
X016419Y016158D01*
X016438Y016136D01*
X016455Y016111D01*
X016468Y016085D01*
X016477Y016057D01*
X016483Y016028D01*
X016426Y016028D01*
X016420Y016053D01*
X016410Y016077D01*
X016396Y016099D01*
X016379Y016118D01*
X016360Y016135D01*
X016338Y016149D01*
X016314Y016159D01*
X016289Y016165D01*
X016289Y016108D01*
X016307Y016101D01*
X016324Y016091D01*
X016340Y016079D01*
X016352Y016063D01*
X016362Y016046D01*
X016369Y016028D01*
X016309Y016027D01*
X016304Y016035D01*
X016296Y016043D01*
X016288Y016048D01*
X016261Y015998D01*
X016261Y015999D01*
X016260Y016000D01*
X016259Y016000D01*
X016259Y016498D02*
X016259Y016998D01*
X016259Y015498D02*
X016259Y014998D01*
D24*
X012439Y042858D02*
X012439Y045858D01*
X015439Y045858D01*
X074899Y006398D02*
X074899Y003398D01*
X071899Y003398D01*
D25*
X054849Y025818D02*
X055879Y026848D01*
X056489Y026848D01*
X056859Y027218D01*
X056859Y028908D01*
X056899Y028948D01*
X058379Y028948D01*
X058979Y029548D01*
X058979Y034578D01*
X059679Y035278D01*
X054489Y035888D02*
X054489Y029468D01*
X055469Y028388D01*
X055649Y028188D01*
X056089Y027728D01*
D26*
X056089Y027728D03*
X054159Y025108D03*
X055899Y035338D03*
X054489Y035888D03*
X059679Y035278D03*
X055379Y039788D03*
D27*
X054909Y025868D02*
X051639Y025868D01*
X048559Y025868D01*
X048539Y025868D02*
X048539Y025663D01*
X048539Y022603D01*
X048539Y019428D01*
X050919Y019428D01*
X054909Y019428D01*
X054909Y022408D01*
X054909Y022453D01*
X054909Y025708D01*
X054909Y025868D01*
X054209Y025138D02*
X053274Y025138D01*
X049229Y025138D01*
X049229Y022888D01*
X049229Y020078D01*
X050544Y020078D01*
X054159Y020078D01*
X054159Y021073D01*
X054159Y022723D01*
X054159Y025108D01*
D28*
X053604Y024763D03*
X053154Y024763D03*
X052704Y024748D03*
X052254Y024763D03*
X053274Y025483D03*
X053544Y026263D03*
X053994Y026263D03*
X054444Y026263D03*
X055299Y025753D03*
X056244Y026338D03*
X056619Y026083D03*
X056379Y025033D03*
X055299Y024868D03*
X055299Y023908D03*
X054534Y023518D03*
X054309Y022723D03*
X053784Y022828D03*
X053634Y022378D03*
X053349Y022033D03*
X053634Y021628D03*
X054309Y021073D03*
X053784Y020458D03*
X053349Y020653D03*
X052974Y020908D03*
X052914Y020458D03*
X052464Y020458D03*
X052014Y020458D03*
X051324Y020458D03*
X050619Y020458D03*
X050109Y020458D03*
X050544Y019813D03*
X050469Y018988D03*
X050919Y019018D03*
X051369Y018988D03*
X052284Y019048D03*
X052944Y018988D03*
X053499Y019048D03*
X054519Y018988D03*
X054969Y018988D03*
X055299Y019558D03*
X054534Y019813D03*
X055299Y020758D03*
X055299Y021208D03*
X056394Y020578D03*
X056664Y020938D03*
X056544Y021523D03*
X057489Y021688D03*
X057939Y021598D03*
X057594Y021193D03*
X057579Y020488D03*
X058749Y020203D03*
X058899Y019738D03*
X058899Y018748D03*
X058749Y017878D03*
X058089Y017878D03*
X058089Y017113D03*
X058089Y016303D03*
X059514Y016453D03*
X060324Y016918D03*
X060834Y017218D03*
X061389Y018133D03*
X062544Y016378D03*
X063774Y016633D03*
X065019Y015913D03*
X067734Y017128D03*
X069399Y018013D03*
X068859Y019378D03*
X068169Y019558D03*
X066504Y020383D03*
X060879Y021238D03*
X059544Y022588D03*
X060204Y023248D03*
X059739Y023788D03*
X059199Y023608D03*
X058749Y023518D03*
X057984Y023398D03*
X057774Y022738D03*
X058089Y022168D03*
X056814Y022738D03*
X055299Y022138D03*
X054939Y022408D03*
X053784Y023878D03*
X052719Y021883D03*
X052719Y021373D03*
X051579Y021118D03*
X050919Y022633D03*
X050334Y022633D03*
X050439Y023098D03*
X049929Y023308D03*
X049074Y022888D03*
X048384Y022618D03*
X048039Y022333D03*
X046959Y022918D03*
X048039Y023158D03*
X048099Y023608D03*
X046959Y024103D03*
X046509Y024223D03*
X046059Y024223D03*
X046959Y024643D03*
X046404Y025348D03*
X045849Y025153D03*
X045579Y025603D03*
X045069Y025648D03*
X045324Y026068D03*
X044139Y027088D03*
X042699Y027628D03*
X042699Y028723D03*
X043449Y029728D03*
X044964Y030238D03*
X044814Y030823D03*
X043014Y031723D03*
X042954Y032233D03*
X042579Y032488D03*
X042129Y032443D03*
X041559Y031903D03*
X043464Y032563D03*
X044679Y032983D03*
X045894Y032998D03*
X047334Y032398D03*
X047124Y031438D03*
X047214Y030988D03*
X047589Y030733D03*
X048624Y031348D03*
X049194Y030838D03*
X049284Y031813D03*
X048624Y032653D03*
X049434Y033088D03*
X048909Y034093D03*
X048309Y035068D03*
X047184Y034558D03*
X045474Y034873D03*
X046809Y036358D03*
X047589Y037138D03*
X047844Y037528D03*
X052164Y037708D03*
X052464Y037378D03*
X052464Y036883D03*
X051864Y035518D03*
X052059Y034618D03*
X052569Y034618D03*
X054834Y034363D03*
X055509Y033838D03*
X058614Y034363D03*
X059319Y033118D03*
X061254Y032203D03*
X061914Y032353D03*
X062424Y031243D03*
X063309Y031498D03*
X064059Y031138D03*
X063714Y030643D03*
X065019Y030118D03*
X066144Y030508D03*
X065004Y031693D03*
X067944Y031693D03*
X068604Y031453D03*
X069159Y031498D03*
X064959Y029293D03*
X065064Y028543D03*
X063504Y029503D03*
X062424Y028528D03*
X062169Y028048D03*
X061449Y028783D03*
X061914Y029293D03*
X060954Y030538D03*
X059769Y029503D03*
X059319Y029413D03*
X059004Y029098D03*
X059214Y028588D03*
X059664Y028588D03*
X058734Y028108D03*
X059109Y027718D03*
X059739Y027283D03*
X060999Y026353D03*
X063759Y027043D03*
X060369Y024613D03*
X057204Y027718D03*
X055389Y026833D03*
X055119Y027343D03*
X054444Y027343D03*
X054279Y027808D03*
X054024Y028183D03*
X054654Y028183D03*
X053904Y027343D03*
X053514Y027703D03*
X052989Y027613D03*
X052629Y027343D03*
X052629Y028213D03*
X052434Y028648D03*
X052809Y028903D03*
X053769Y029098D03*
X052239Y029788D03*
X053634Y030448D03*
X052239Y030823D03*
X051729Y031078D03*
X051309Y030583D03*
X050724Y030358D03*
X050724Y030808D03*
X050904Y031348D03*
X052239Y031903D03*
X050724Y032638D03*
X054834Y030448D03*
X056394Y031348D03*
X057594Y030013D03*
X052524Y026248D03*
X051969Y026263D03*
X051369Y026263D03*
X050199Y026263D03*
X049434Y026263D03*
X048624Y026263D03*
X048174Y026263D03*
X047949Y026758D03*
X047499Y026578D03*
X047049Y026578D03*
X046959Y026068D03*
X048039Y025663D03*
X048039Y025198D03*
X048099Y024673D03*
X048924Y025378D03*
X049899Y024763D03*
X050049Y027343D03*
X050499Y027343D03*
X050184Y028003D03*
X049734Y027868D03*
X049179Y027853D03*
X048729Y027853D03*
X049359Y028888D03*
X048639Y029413D03*
X048924Y029758D03*
X049374Y029818D03*
X048174Y029473D03*
X047799Y029728D03*
X047304Y029983D03*
X046314Y028768D03*
X045864Y028903D03*
X050439Y028483D03*
X044214Y024373D03*
X044289Y023713D03*
X044079Y023293D03*
X045069Y022918D03*
X044769Y022168D03*
X045249Y021778D03*
X045879Y021973D03*
X046959Y020953D03*
X048159Y020458D03*
X048039Y019948D03*
X048159Y019498D03*
X048429Y018988D03*
X047784Y018883D03*
X046959Y018928D03*
X046959Y019378D03*
X046449Y018658D03*
X045909Y018688D03*
X044709Y018958D03*
X044259Y019423D03*
X044514Y020038D03*
X045894Y019783D03*
X046959Y020143D03*
X048954Y019813D03*
X049149Y018988D03*
X049599Y018988D03*
X047754Y018028D03*
X049404Y017428D03*
X049824Y016978D03*
X049599Y016573D03*
X050229Y016348D03*
X050274Y016798D03*
X050274Y017338D03*
X049809Y017923D03*
X048894Y017083D03*
X048894Y016348D03*
X048474Y016138D03*
X049854Y015763D03*
X050289Y015478D03*
X050604Y015793D03*
X049599Y015148D03*
X049344Y014008D03*
X048684Y014263D03*
X046959Y013918D03*
X046449Y014263D03*
X044709Y014938D03*
X042939Y014188D03*
X042789Y013468D03*
X042279Y013318D03*
X041724Y013123D03*
X043809Y012958D03*
X045504Y011293D03*
X044724Y010783D03*
X042939Y009673D03*
X043194Y008833D03*
X042384Y008383D03*
X043884Y007468D03*
X044319Y006673D03*
X044904Y005728D03*
X046989Y005983D03*
X047364Y005728D03*
X047889Y006238D03*
X048609Y007828D03*
X049749Y008668D03*
X050349Y009928D03*
X050859Y010573D03*
X051354Y010438D03*
X051339Y011563D03*
X052074Y013708D03*
X051369Y014773D03*
X052779Y015688D03*
X053289Y016438D03*
X053634Y016963D03*
X053394Y017473D03*
X053844Y017593D03*
X053544Y017923D03*
X052374Y017923D03*
X052404Y017233D03*
X052764Y016963D03*
X052149Y016348D03*
X051354Y017923D03*
X054144Y016348D03*
X054969Y016303D03*
X056379Y015898D03*
X054969Y015028D03*
X054969Y014143D03*
X056004Y014188D03*
X056889Y013798D03*
X059004Y012553D03*
X059004Y011713D03*
X058374Y010183D03*
X058044Y009628D03*
X061179Y010543D03*
X061914Y009763D03*
X062559Y009763D03*
X063564Y009763D03*
X063819Y010633D03*
X063819Y011623D03*
X066234Y011128D03*
X066234Y012133D03*
X066234Y013123D03*
X066759Y013993D03*
X062184Y015433D03*
X061944Y015028D03*
X061134Y014323D03*
X061944Y013873D03*
X059559Y014323D03*
X054729Y011833D03*
X054144Y011608D03*
X054429Y011173D03*
X054099Y010783D03*
X054429Y008983D03*
X050304Y006433D03*
X047499Y010333D03*
X053154Y014698D03*
X056139Y017248D03*
X054819Y017728D03*
X057099Y018478D03*
X057429Y019168D03*
X056919Y019423D03*
X046704Y016573D03*
X046419Y016228D03*
X045654Y016498D03*
X042024Y018193D03*
X039759Y018088D03*
X039654Y017473D03*
X038994Y016243D03*
X039759Y015988D03*
X041274Y015238D03*
X038079Y012658D03*
X035229Y012688D03*
X033279Y012688D03*
X032559Y012688D03*
X034809Y014713D03*
X034809Y015223D03*
X034824Y015688D03*
X036099Y015973D03*
X036414Y015208D03*
X036939Y017158D03*
X035229Y017668D03*
X033459Y017653D03*
X038079Y019408D03*
X040449Y020143D03*
X042129Y021913D03*
X043194Y022138D03*
X044514Y020863D03*
X041319Y022978D03*
X042939Y023713D03*
X040059Y025468D03*
X038949Y025723D03*
X036804Y026353D03*
X037014Y027568D03*
X037014Y028558D03*
X037014Y029068D03*
X037014Y029563D03*
X038439Y030493D03*
X038214Y030958D03*
X039099Y030718D03*
X038844Y029848D03*
X040059Y029848D03*
X037014Y030763D03*
X036984Y031213D03*
X034494Y031468D03*
X032964Y032653D03*
X031344Y030868D03*
X032679Y030298D03*
X031629Y029968D03*
X031389Y029578D03*
X031494Y029113D03*
X032169Y028213D03*
X032454Y027853D03*
X033024Y028468D03*
X033084Y028978D03*
X032694Y029563D03*
X034494Y029023D03*
X034494Y027478D03*
X033024Y027223D03*
X034494Y025468D03*
X035589Y024373D03*
X038589Y022498D03*
X035229Y021268D03*
X030384Y021268D03*
X025449Y022453D03*
X023799Y021238D03*
X022779Y022063D03*
X022044Y021748D03*
X020859Y021253D03*
X021834Y020713D03*
X021699Y018538D03*
X022044Y018253D03*
X022044Y017248D03*
X022044Y016753D03*
X022044Y016243D03*
X021759Y015418D03*
X023304Y015253D03*
X023559Y014878D03*
X023799Y016048D03*
X022044Y014248D03*
X022044Y013753D03*
X022059Y012703D03*
X022059Y012253D03*
X022059Y011803D03*
X022059Y011308D03*
X023289Y010798D03*
X022044Y009493D03*
X028779Y012838D03*
X019419Y020593D03*
X019119Y021253D03*
X018369Y021283D03*
X024309Y025018D03*
X026109Y027373D03*
X026139Y028213D03*
X026139Y030118D03*
X025749Y030868D03*
X026079Y031423D03*
X026109Y031873D03*
X026019Y032458D03*
X026394Y033493D03*
X025644Y034363D03*
X024564Y035398D03*
X023814Y035863D03*
X022404Y035863D03*
X022494Y035353D03*
X022464Y034873D03*
X020754Y036118D03*
X021039Y036883D03*
X020424Y036883D03*
X019614Y035458D03*
X019239Y035203D03*
X018729Y035188D03*
X018084Y035188D03*
X017319Y035188D03*
X018099Y036118D03*
X018474Y036373D03*
X018204Y036733D03*
X019929Y034933D03*
X018969Y034108D03*
X018249Y034108D03*
X017469Y034108D03*
X017019Y034108D03*
X017394Y033418D03*
X015714Y034108D03*
X015489Y035203D03*
X016329Y032083D03*
X017499Y032323D03*
X023829Y033088D03*
X024294Y031708D03*
X024879Y030253D03*
X027369Y031633D03*
X029034Y031588D03*
X030099Y030943D03*
X029589Y030358D03*
X028524Y030103D03*
X030099Y028213D03*
X028524Y025273D03*
X020274Y027973D03*
X019929Y026188D03*
X029964Y034873D03*
X028839Y037378D03*
X027579Y037123D03*
X027159Y037378D03*
X023754Y039628D03*
X025389Y040483D03*
X024879Y041473D03*
X025134Y041983D03*
X024564Y042928D03*
X023889Y041983D03*
X023964Y040858D03*
X021279Y041233D03*
X019614Y040663D03*
X018669Y041668D03*
X017889Y041383D03*
X017229Y041668D03*
X016884Y042748D03*
X017679Y042748D03*
X018474Y042748D03*
X019869Y042643D03*
X020319Y039238D03*
X021789Y038128D03*
X026649Y039973D03*
X027579Y041143D03*
X029139Y040738D03*
X029709Y041878D03*
X029634Y042328D03*
X029334Y042658D03*
X031314Y042328D03*
X034734Y041623D03*
X034869Y040018D03*
X034734Y039403D03*
X033984Y039223D03*
X033729Y037903D03*
X035034Y036898D03*
X036519Y037318D03*
X036669Y036358D03*
X036924Y035908D03*
X037449Y035848D03*
X038844Y035353D03*
X037464Y034873D03*
X036279Y034603D03*
X036339Y035398D03*
X038499Y033088D03*
X039849Y034033D03*
X041529Y034468D03*
X041019Y036373D03*
X040104Y038128D03*
X039204Y038758D03*
X038799Y038998D03*
X039594Y039658D03*
X037449Y041893D03*
X042534Y042028D03*
X043854Y042373D03*
X043884Y041008D03*
X043794Y040138D03*
X050199Y042373D03*
X054174Y041593D03*
X053964Y038953D03*
X055959Y037378D03*
X055959Y036883D03*
X061554Y034858D03*
X057669Y041593D03*
X027054Y042628D03*
X015399Y038638D03*
X062319Y008998D03*
X063819Y006628D03*
X066234Y009133D03*
X066204Y010093D03*
D29*
X063564Y009763D02*
X063564Y012253D01*
X061944Y013873D01*
X061134Y014323D02*
X061134Y023848D01*
X060369Y024613D01*
X060114Y024523D02*
X060114Y027088D01*
X061704Y028678D01*
X061704Y029143D01*
X061659Y029188D01*
X061659Y032098D01*
X061914Y032353D01*
X061509Y032683D02*
X062019Y033193D01*
X062019Y036913D01*
X062229Y037123D01*
X062229Y041368D01*
X062499Y041638D01*
X062619Y041908D01*
X063619Y041908D02*
X063744Y041638D01*
X064209Y041173D01*
X064209Y033208D01*
X064314Y033103D01*
X064314Y027598D01*
X063759Y027043D01*
X062424Y027943D02*
X062289Y027808D01*
X062289Y015538D01*
X062184Y015433D01*
X061929Y015043D02*
X061929Y027928D01*
X061914Y027943D01*
X061914Y029293D01*
X061509Y028843D02*
X061509Y032683D01*
X061254Y032203D02*
X061254Y029818D01*
X059484Y028048D01*
X059484Y026623D01*
X056529Y026623D01*
X056244Y026338D01*
X055389Y026833D02*
X055989Y027433D01*
X056394Y027433D01*
X056394Y031348D01*
X054279Y029338D02*
X053889Y029728D01*
X053889Y035098D01*
X052164Y036823D01*
X052164Y037708D01*
X051864Y035518D02*
X052314Y035068D01*
X052314Y031978D01*
X052239Y031903D01*
X052569Y031153D02*
X052569Y034618D01*
X052059Y034618D02*
X051984Y034543D01*
X051984Y030043D01*
X052239Y029788D01*
X053514Y030328D02*
X053634Y030448D01*
X053514Y030328D02*
X053514Y028738D01*
X052734Y027958D01*
X052734Y027448D01*
X052629Y027343D01*
X053514Y027193D02*
X053514Y027703D01*
X053769Y027478D02*
X053769Y029098D01*
X054279Y029338D02*
X054279Y027808D01*
X053904Y027343D02*
X053769Y027478D01*
X053514Y027193D02*
X054444Y026263D01*
X052524Y026248D02*
X052464Y026383D01*
X052374Y026473D01*
X052374Y028588D01*
X052434Y028648D01*
X052809Y028903D02*
X050499Y028903D01*
X050184Y028588D01*
X050184Y028378D01*
X050439Y028123D01*
X050439Y027748D01*
X050094Y027748D01*
X049794Y027448D01*
X049794Y026623D01*
X049434Y026263D01*
X048924Y025378D02*
X048819Y025273D01*
X048819Y019948D01*
X048954Y019813D01*
X049149Y018988D02*
X049149Y014173D01*
X049089Y014113D01*
X049089Y013633D01*
X048759Y013303D01*
X048759Y012703D01*
X049044Y012418D01*
X049169Y012128D01*
X050169Y012128D02*
X050289Y011833D01*
X050289Y009988D01*
X050349Y009928D01*
X050859Y010573D02*
X051594Y011308D01*
X051594Y013228D01*
X052074Y013708D01*
X052194Y013948D02*
X052614Y013948D01*
X052614Y010738D01*
X053169Y010628D01*
X053604Y011038D02*
X053844Y010798D01*
X053844Y008383D01*
X053574Y008113D01*
X053574Y007708D01*
X053289Y007423D01*
X053169Y007128D01*
X053619Y006988D02*
X052074Y005443D01*
X046734Y005443D01*
X046704Y005428D01*
X046704Y005188D01*
X043254Y005188D01*
X042076Y006366D01*
X042054Y006343D01*
X042054Y005233D01*
X040374Y005233D01*
X031914Y013693D01*
X031914Y028618D01*
X031554Y028978D01*
X031494Y029113D01*
X031389Y029578D02*
X032169Y028798D01*
X032169Y028213D01*
X032199Y028078D01*
X032199Y013768D01*
X033279Y012688D01*
X032559Y012688D02*
X031134Y014113D01*
X031134Y029908D01*
X030099Y030943D01*
X029589Y030358D02*
X029394Y030553D01*
X029394Y041713D01*
X029334Y041773D01*
X029334Y042658D01*
X029709Y041878D02*
X029709Y034768D01*
X029844Y034633D01*
X029844Y028468D01*
X030099Y028213D01*
X032424Y027883D02*
X032424Y029788D01*
X031344Y030868D01*
X029139Y031693D02*
X029139Y040738D01*
X029004Y040678D01*
X027054Y042628D01*
X026799Y042913D02*
X026799Y041998D01*
X027519Y041278D01*
X027579Y041143D01*
X026904Y040468D01*
X026904Y035623D01*
X025771Y034491D01*
X025794Y034468D01*
X027639Y032623D01*
X027639Y030988D01*
X028524Y030103D01*
X029034Y031588D02*
X029139Y031693D01*
X026394Y033493D02*
X025749Y032848D01*
X025749Y030868D01*
X025389Y030868D02*
X026139Y030118D01*
X025389Y030868D02*
X025389Y040483D01*
X024819Y040003D02*
X023964Y040858D01*
X024879Y041473D02*
X024309Y042043D01*
X024309Y043003D01*
X018369Y043003D01*
X018219Y042853D01*
X018219Y042748D01*
X017679Y042748D01*
X017319Y043183D02*
X050469Y043183D01*
X050469Y031063D01*
X050724Y030808D01*
X050724Y030358D02*
X049779Y031303D01*
X049779Y033598D01*
X048309Y035068D01*
X047439Y035728D02*
X046809Y036358D01*
X047439Y035728D02*
X047439Y032503D01*
X047334Y032398D01*
X047184Y032818D02*
X047184Y034558D01*
X047184Y032818D02*
X044469Y030103D01*
X044469Y023893D01*
X044289Y023713D01*
X044514Y023578D02*
X044619Y023683D01*
X044619Y027658D01*
X045864Y028903D01*
X046314Y028768D02*
X045834Y028288D01*
X045834Y025498D01*
X045324Y024988D01*
X045324Y022213D01*
X044769Y021658D01*
X044769Y020293D01*
X044514Y020038D01*
X044259Y019423D02*
X044259Y023113D01*
X044079Y023293D01*
X044514Y023578D02*
X044514Y020863D01*
X044964Y021493D02*
X044964Y013513D01*
X044724Y013273D01*
X044724Y010783D01*
X045294Y011083D02*
X045504Y011293D01*
X045654Y011503D02*
X045759Y011398D01*
X045759Y007708D01*
X046044Y007423D01*
X046169Y007128D01*
X046734Y007543D02*
X047034Y007843D01*
X047169Y008128D01*
X047754Y007888D02*
X047289Y007423D01*
X047169Y007128D01*
X046734Y007543D02*
X046734Y005443D01*
X046989Y005983D02*
X047754Y006748D01*
X047754Y007558D01*
X048039Y007843D01*
X048169Y008128D01*
X047754Y007888D02*
X047754Y018028D01*
X048009Y018658D02*
X048009Y013378D01*
X048169Y013128D01*
X048609Y013363D02*
X048939Y013693D01*
X048939Y016303D01*
X048894Y016348D01*
X049344Y016468D02*
X049794Y016018D01*
X050289Y016018D01*
X050289Y015478D01*
X050604Y015793D02*
X050604Y008713D01*
X050304Y008413D01*
X050169Y008128D01*
X049749Y008668D02*
X049749Y013288D01*
X049854Y013393D01*
X049854Y015763D01*
X050229Y016348D02*
X051114Y016348D01*
X051114Y013423D01*
X051169Y013128D01*
X052194Y013948D02*
X051369Y014773D01*
X052764Y014668D02*
X052764Y012703D01*
X053049Y012418D01*
X053169Y012128D01*
X053754Y012703D02*
X054039Y012418D01*
X054169Y012128D01*
X054729Y011833D02*
X054729Y013273D01*
X055224Y013768D01*
X055224Y019483D01*
X055299Y019558D01*
X054564Y019843D02*
X054534Y019813D01*
X054564Y019843D02*
X054564Y023488D01*
X054534Y023518D01*
X053784Y022828D02*
X053889Y022723D01*
X053889Y020563D01*
X053784Y020458D01*
X052974Y020908D02*
X052974Y024583D01*
X053154Y024763D01*
X052704Y024748D02*
X051579Y023623D01*
X051579Y021118D01*
X051609Y020863D02*
X051174Y020863D01*
X051174Y023488D01*
X049899Y024763D01*
X049929Y023308D02*
X049929Y021853D01*
X051324Y020458D01*
X051609Y020863D02*
X052014Y020458D01*
X052284Y019048D02*
X053034Y018298D01*
X053034Y014938D01*
X052764Y014668D01*
X053154Y014698D02*
X053154Y013423D01*
X053169Y013128D01*
X053754Y013303D02*
X053754Y012703D01*
X054169Y013128D02*
X054294Y013423D01*
X054294Y013468D01*
X054969Y014143D01*
X055554Y013693D02*
X055284Y013423D01*
X055169Y013128D01*
X055554Y013693D02*
X055554Y020953D01*
X055299Y021208D01*
X056394Y020578D02*
X056394Y016273D01*
X056004Y015883D01*
X056004Y014188D01*
X056574Y013843D02*
X056574Y010123D01*
X054579Y008128D01*
X054579Y007948D01*
X054174Y007543D01*
X053619Y007543D01*
X053619Y006988D01*
X053169Y008128D02*
X053034Y008413D01*
X051354Y010093D01*
X051354Y010438D01*
X049599Y009028D02*
X049299Y008728D01*
X049299Y008413D01*
X049169Y008128D01*
X049044Y007843D01*
X048759Y007558D01*
X048759Y007108D01*
X047889Y006238D01*
X047364Y005728D02*
X049884Y005728D01*
X049884Y007003D01*
X050169Y007128D01*
X048609Y007828D02*
X048609Y013363D01*
X047574Y013303D02*
X047574Y012703D01*
X047289Y012418D01*
X047169Y012128D01*
X046584Y012703D02*
X046299Y012418D01*
X046169Y012128D01*
X046584Y012703D02*
X046584Y013903D01*
X046959Y014278D01*
X046959Y018928D01*
X047499Y019408D02*
X047499Y013378D01*
X047574Y013303D01*
X047214Y013423D02*
X047169Y013128D01*
X047214Y013423D02*
X047214Y019888D01*
X046959Y020143D01*
X046194Y019873D02*
X046194Y016453D01*
X046419Y016228D01*
X045654Y016498D02*
X045654Y011503D01*
X045294Y011083D02*
X045294Y008413D01*
X045169Y008128D01*
X044469Y008008D02*
X045054Y007423D01*
X045169Y007128D01*
X044319Y006673D02*
X044319Y018568D01*
X044709Y018958D01*
X045909Y018688D02*
X046044Y018553D01*
X046044Y014668D01*
X046449Y014263D01*
X048159Y014788D02*
X048684Y014263D01*
X048159Y014788D02*
X048159Y019498D01*
X048039Y019948D02*
X047499Y019408D01*
X047784Y018883D02*
X048009Y018658D01*
X048429Y018988D02*
X048474Y018943D01*
X048474Y016138D01*
X049344Y016468D02*
X049344Y017368D01*
X049404Y017428D01*
X049569Y017083D02*
X049569Y016603D01*
X049599Y016573D01*
X049824Y016978D02*
X049914Y016978D01*
X050274Y017338D01*
X050064Y017578D02*
X049569Y017083D01*
X050064Y017578D02*
X050064Y018583D01*
X050469Y018988D01*
X051354Y017923D02*
X052119Y017923D01*
X052119Y017818D01*
X052449Y017488D01*
X052764Y017488D01*
X052764Y016963D01*
X053289Y016438D02*
X053604Y016123D01*
X053604Y011038D01*
X054174Y010498D02*
X054429Y010753D01*
X054429Y011173D01*
X054174Y010498D02*
X054174Y008413D01*
X054169Y008128D01*
X055284Y007423D02*
X055169Y007128D01*
X055284Y007423D02*
X055584Y007723D01*
X055584Y008128D01*
X056724Y009268D01*
X056724Y013543D01*
X056994Y013543D01*
X057144Y013693D01*
X057144Y015358D01*
X058089Y016303D01*
X058089Y017113D02*
X057684Y017518D01*
X057684Y018913D01*
X057429Y019168D01*
X057174Y018913D02*
X056844Y018583D01*
X056844Y013843D01*
X056889Y013798D01*
X056664Y013933D02*
X056574Y013843D01*
X056664Y013933D02*
X056664Y020938D01*
X057594Y021193D02*
X057834Y020953D01*
X057834Y018133D01*
X058089Y017878D01*
X058644Y017983D02*
X058749Y017878D01*
X058644Y017983D02*
X058644Y020098D01*
X058749Y020203D01*
X058899Y019738D02*
X058974Y019663D01*
X058974Y019033D01*
X059259Y018748D01*
X059259Y011068D01*
X058374Y010183D01*
X058044Y010213D02*
X058044Y009628D01*
X058044Y010213D02*
X058344Y010513D01*
X058344Y023038D01*
X057984Y023398D01*
X058749Y023518D02*
X059544Y022723D01*
X059544Y022588D01*
X060204Y023248D02*
X060879Y022573D01*
X060879Y021238D01*
X060804Y020893D02*
X060804Y017548D01*
X060579Y017323D01*
X060579Y015343D01*
X059559Y014323D01*
X059004Y012553D02*
X059004Y018643D01*
X058899Y018748D01*
X060324Y019198D02*
X060389Y019488D01*
X060324Y019198D02*
X060324Y016918D01*
X059979Y016918D02*
X059979Y019918D01*
X060264Y020203D01*
X060389Y020488D01*
X060399Y020893D02*
X060804Y020893D01*
X060399Y020893D02*
X059949Y021343D01*
X059949Y023578D01*
X059739Y023788D01*
X059199Y023608D02*
X060114Y024523D01*
X061689Y025663D02*
X061689Y010633D01*
X062559Y009763D01*
X062319Y008998D02*
X061539Y009778D01*
X061539Y017983D01*
X061389Y018133D01*
X060834Y017218D02*
X060834Y010888D01*
X061179Y010543D01*
X059004Y011713D02*
X058494Y012223D01*
X058494Y026038D01*
X057949Y026168D01*
X056379Y025033D02*
X055704Y024358D01*
X055704Y010258D01*
X054429Y008983D01*
X049599Y009028D02*
X049599Y015148D01*
X052149Y016348D02*
X052779Y015718D01*
X052779Y015688D01*
X054144Y016348D02*
X054969Y015523D01*
X054969Y015028D01*
X054969Y016303D02*
X054414Y016858D01*
X054414Y017923D01*
X053544Y017923D01*
X053844Y017593D02*
X053889Y017548D01*
X053889Y013438D01*
X053754Y013303D01*
X059514Y016453D02*
X059979Y016918D01*
X061929Y015043D02*
X061944Y015028D01*
X063774Y016633D02*
X063504Y016903D01*
X063504Y029503D01*
X062424Y028528D02*
X062424Y027943D01*
X062169Y028048D02*
X062169Y036463D01*
X062559Y036853D01*
X062669Y037128D01*
X061554Y034858D02*
X060999Y034303D01*
X060999Y030583D01*
X060954Y030538D01*
X062424Y031243D02*
X062499Y031318D01*
X062499Y033088D01*
X062619Y033358D01*
X063504Y033088D02*
X063619Y033358D01*
X063504Y033088D02*
X063504Y031693D01*
X063309Y031498D01*
X063054Y031303D02*
X063054Y040318D01*
X062739Y040633D01*
X062619Y040908D01*
X063619Y040908D02*
X063729Y040633D01*
X064059Y040303D01*
X064059Y031138D01*
X063714Y030643D02*
X063054Y031303D01*
X064959Y029293D02*
X066984Y027268D01*
X066984Y026203D01*
X067254Y025933D01*
X067659Y025668D01*
X061689Y025663D02*
X060999Y026353D01*
X059109Y027718D02*
X057204Y027718D01*
X057949Y028168D02*
X058494Y028228D01*
X059259Y028993D01*
X059259Y029353D01*
X059319Y029413D01*
X059319Y033118D01*
X058614Y034363D02*
X054834Y034363D01*
X052569Y031153D02*
X052239Y030823D01*
X051729Y031078D02*
X051309Y030658D01*
X051309Y030583D01*
X049194Y030838D02*
X049194Y031723D01*
X049284Y031813D01*
X048624Y031348D02*
X048174Y030898D01*
X048174Y029473D01*
X048429Y029203D02*
X047544Y029203D01*
X047544Y029863D01*
X047559Y029878D01*
X047559Y030088D01*
X047409Y030238D01*
X047049Y030238D01*
X047049Y026578D01*
X047304Y026773D02*
X047304Y029983D01*
X047799Y029728D02*
X047844Y029773D01*
X047844Y037528D01*
X047589Y037138D02*
X047589Y030733D01*
X047214Y030988D02*
X046704Y030478D01*
X046704Y024388D01*
X047229Y024388D01*
X048039Y025198D01*
X048099Y024673D02*
X048099Y023608D01*
X046959Y024643D02*
X046959Y025408D01*
X048204Y026653D01*
X048204Y026878D01*
X049179Y027853D01*
X049629Y027973D02*
X049629Y032893D01*
X049434Y033088D01*
X047124Y031438D02*
X046164Y031438D01*
X044964Y030238D01*
X043269Y029908D02*
X043194Y029833D01*
X043194Y022138D01*
X042534Y022078D02*
X042534Y008593D01*
X043629Y007498D01*
X043629Y007003D01*
X044904Y005728D01*
X042076Y006366D02*
X041934Y006508D01*
X041669Y006628D01*
X041544Y006013D02*
X041544Y005893D01*
X041669Y005628D01*
X041544Y006013D02*
X039954Y006013D01*
X035484Y010483D01*
X035484Y021193D01*
X035844Y021553D01*
X035844Y026053D01*
X034554Y027343D01*
X034494Y027478D01*
X034494Y029023D01*
X033084Y028978D02*
X033084Y028528D01*
X033024Y028468D01*
X032424Y027883D02*
X032454Y027853D01*
X032514Y027718D01*
X032574Y027658D01*
X032574Y015343D01*
X035229Y012688D01*
X036414Y011383D02*
X036009Y010968D01*
X036414Y011383D02*
X036414Y015208D01*
X036669Y015328D02*
X036159Y015838D01*
X036099Y015973D01*
X036099Y020308D01*
X036009Y020718D01*
X036534Y020953D02*
X036534Y029128D01*
X034749Y030913D01*
X034749Y036898D01*
X034734Y036913D01*
X034734Y039403D01*
X034239Y039388D02*
X034869Y040018D01*
X034239Y039388D02*
X034239Y022258D01*
X035229Y021268D01*
X036534Y020953D02*
X038079Y019408D01*
X039594Y018253D02*
X039594Y039658D01*
X038799Y038998D02*
X038244Y038443D01*
X038244Y032983D01*
X038694Y032533D01*
X038694Y030388D01*
X038589Y030283D01*
X038589Y025723D01*
X038844Y025468D01*
X038844Y016393D01*
X038994Y016243D01*
X039399Y016348D02*
X039399Y038563D01*
X039204Y038758D01*
X040104Y037228D02*
X040104Y030253D01*
X039804Y029953D01*
X039804Y024628D01*
X040539Y023893D01*
X040669Y023628D01*
X040554Y023353D01*
X040134Y022933D01*
X040134Y017953D01*
X039654Y017473D01*
X039759Y018088D02*
X039594Y018253D01*
X040284Y019978D02*
X040284Y010168D01*
X040554Y009898D01*
X040669Y009628D01*
X039249Y008488D02*
X040494Y007243D01*
X041394Y007243D01*
X041394Y007513D01*
X041669Y007628D01*
X041296Y008091D02*
X041274Y008113D01*
X041274Y014578D01*
X041019Y014833D01*
X041019Y015343D01*
X041064Y015388D01*
X041064Y025018D01*
X040509Y025018D01*
X040059Y025468D01*
X039249Y025423D02*
X039249Y008488D01*
X038334Y009118D02*
X040554Y006898D01*
X040669Y006628D01*
X040669Y007628D02*
X040944Y007738D01*
X041296Y008091D01*
X041439Y008233D01*
X042384Y008233D01*
X042384Y008383D01*
X043194Y008833D02*
X043194Y013423D01*
X042684Y013933D01*
X042684Y027613D01*
X042699Y027628D01*
X042444Y028468D02*
X042444Y022168D01*
X042534Y022078D01*
X042384Y022018D02*
X042384Y013783D01*
X041724Y013123D01*
X042054Y013093D02*
X042054Y012148D01*
X041799Y011893D01*
X041669Y011628D01*
X042054Y013093D02*
X042279Y013318D01*
X042789Y013468D02*
X042849Y013333D01*
X042849Y009763D01*
X042939Y009673D01*
X043464Y007888D02*
X043884Y007468D01*
X043464Y007888D02*
X043464Y026413D01*
X044139Y027088D01*
X045579Y025603D02*
X044769Y024793D01*
X044769Y022168D01*
X045249Y021778D02*
X044964Y021493D01*
X045504Y020563D02*
X046194Y019873D01*
X045504Y020563D02*
X045504Y024448D01*
X046404Y025348D01*
X047499Y026578D02*
X047304Y026773D01*
X049629Y027973D02*
X049734Y027868D01*
X048429Y029203D02*
X048639Y029413D01*
X043269Y029908D02*
X043269Y032368D01*
X043464Y032563D01*
X043014Y032173D02*
X043014Y031723D01*
X042954Y031588D01*
X042954Y023728D01*
X042939Y023713D01*
X043809Y023968D02*
X044214Y024373D01*
X043809Y023968D02*
X043809Y012958D01*
X044469Y014698D02*
X044469Y008008D01*
X046169Y008128D02*
X046299Y008413D01*
X046299Y009133D01*
X047499Y010333D01*
X044469Y014698D02*
X044709Y014938D01*
X041274Y015238D02*
X041274Y022093D01*
X041544Y022363D01*
X041669Y022628D01*
X041319Y022978D02*
X041274Y023023D01*
X041274Y037618D01*
X043794Y040138D01*
X043884Y041008D02*
X040104Y037228D01*
X041019Y036373D02*
X041019Y030808D01*
X040059Y029848D01*
X038844Y029848D02*
X038844Y035353D01*
X037719Y035578D02*
X037449Y035848D01*
X037719Y035578D02*
X037719Y031453D01*
X038214Y030958D01*
X038439Y030493D02*
X038439Y024928D01*
X038589Y024778D01*
X038589Y022498D01*
X035589Y024373D02*
X034494Y025468D01*
X036804Y026353D02*
X038334Y024823D01*
X038334Y009118D01*
X038079Y012658D02*
X036669Y014068D01*
X036669Y015328D01*
X034824Y015688D02*
X033729Y016783D01*
X033729Y037903D01*
X033984Y039223D02*
X033984Y018913D01*
X035229Y017668D01*
X039399Y016348D02*
X039759Y015988D01*
X040284Y019978D02*
X040449Y020143D01*
X042129Y021913D02*
X042054Y021988D01*
X042054Y025108D01*
X041799Y025363D01*
X041669Y025628D01*
X039249Y025423D02*
X038949Y025723D01*
X037014Y027568D02*
X036684Y027898D01*
X036684Y029188D01*
X035034Y030838D01*
X035034Y036898D01*
X036669Y036358D02*
X036669Y031108D01*
X037014Y030763D01*
X036279Y030298D02*
X036279Y034603D01*
X036024Y035083D02*
X036339Y035398D01*
X036024Y035083D02*
X036024Y030058D01*
X037014Y029068D01*
X037269Y028813D02*
X037269Y034708D01*
X036924Y035053D01*
X036924Y035908D01*
X041529Y034468D02*
X042744Y033253D01*
X044679Y033253D01*
X044679Y032983D01*
X043014Y032173D02*
X042954Y032233D01*
X042579Y032488D02*
X042294Y032203D01*
X042294Y022108D01*
X042384Y022018D01*
X042444Y028468D02*
X042699Y028723D01*
X037269Y028813D02*
X037014Y028558D01*
X037014Y029563D02*
X036279Y030298D01*
X028524Y025273D02*
X027579Y024328D01*
X027579Y019828D01*
X023799Y016048D01*
X023544Y015373D02*
X023559Y015358D01*
X023559Y014878D01*
X023544Y015373D02*
X023544Y025018D01*
X024309Y025018D01*
X023544Y025018D02*
X023544Y035083D01*
X020064Y038563D01*
X020064Y039208D01*
X017889Y041383D01*
X018669Y041668D02*
X019209Y041128D01*
X019209Y040348D01*
X020319Y039238D01*
X020649Y039628D02*
X023754Y039628D01*
X024819Y040003D02*
X024819Y030313D01*
X024879Y030253D01*
X025134Y029218D02*
X025134Y041983D01*
X024564Y042928D02*
X026649Y040843D01*
X026649Y039973D01*
X027159Y037378D02*
X028839Y037378D01*
X028779Y037243D01*
X028779Y012838D01*
X023289Y010798D02*
X023049Y011038D01*
X023049Y023773D01*
X023289Y024013D01*
X023289Y034483D01*
X022554Y035218D01*
X022494Y035353D01*
X022494Y035773D01*
X022404Y035863D01*
X020754Y036118D02*
X020754Y021793D01*
X021834Y020713D01*
X020859Y021253D02*
X020529Y021583D01*
X020529Y034258D01*
X019989Y034798D01*
X019929Y034933D01*
X019674Y035323D02*
X019614Y035458D01*
X021039Y036883D01*
X020424Y036883D02*
X018729Y035188D01*
X018789Y035053D01*
X019374Y034468D01*
X019374Y020638D01*
X019419Y020593D01*
X019119Y021253D02*
X018969Y021403D01*
X018969Y034108D01*
X018774Y033943D02*
X018474Y034243D01*
X018474Y036373D01*
X018204Y036733D02*
X017829Y036358D01*
X017829Y034528D01*
X018249Y034108D01*
X018774Y033943D02*
X018774Y015088D01*
X022059Y011803D01*
X022059Y012253D02*
X019674Y014638D01*
X019674Y035323D01*
X018099Y035203D02*
X018099Y036118D01*
X018099Y035203D02*
X018084Y035188D01*
X017019Y034108D02*
X017079Y033973D01*
X017079Y033358D01*
X018624Y031813D01*
X018624Y014743D01*
X022059Y011308D01*
X023799Y021238D02*
X024564Y022003D01*
X024564Y035398D01*
X025644Y034363D02*
X025771Y034491D01*
X021789Y038128D02*
X019359Y040558D01*
X019359Y041863D01*
X018474Y042748D01*
X017319Y043183D02*
X016884Y042748D01*
X019869Y042643D02*
X021279Y041233D01*
X020649Y039628D02*
X019614Y040663D01*
X015744Y038293D02*
X015744Y034243D01*
X015714Y034108D01*
X017499Y032323D01*
X017559Y032188D01*
X017559Y022093D01*
X018369Y021283D01*
X026139Y028213D02*
X025134Y029218D01*
X015744Y038293D02*
X015399Y038638D01*
X026799Y042913D02*
X033444Y042913D01*
X034734Y041623D01*
X037449Y041893D02*
X037449Y042028D01*
X042534Y042028D01*
X059769Y029503D02*
X059769Y029143D01*
X059214Y028588D01*
X061449Y028783D02*
X061509Y028843D01*
X067944Y031693D02*
X067944Y038938D01*
X069564Y040558D01*
X069669Y040833D01*
X069669Y039933D02*
X069564Y039658D01*
X068604Y038698D01*
X068604Y031453D01*
X069159Y031498D02*
X069159Y038353D01*
X069564Y038758D01*
X069669Y039033D01*
X070169Y022148D02*
X070044Y021853D01*
X065019Y016828D01*
X065019Y015913D01*
X067734Y017128D02*
X068604Y017998D01*
X068604Y019483D01*
X068979Y019858D01*
X069879Y019858D01*
X070169Y019978D01*
X070584Y020383D02*
X070584Y015133D01*
X070284Y014833D01*
X070169Y014538D01*
X070044Y013753D02*
X070169Y013458D01*
X070044Y013753D02*
X069144Y014653D01*
X069144Y019093D01*
X068859Y019378D01*
X068469Y019558D02*
X069294Y020383D01*
X070584Y020383D01*
X068469Y019558D02*
X068169Y019558D01*
X069399Y018013D02*
X069759Y017653D01*
X069759Y016198D01*
X070044Y015913D01*
X070169Y015628D01*
X058089Y021748D02*
X057939Y021598D01*
X058089Y021748D02*
X058089Y022168D01*
X057579Y020488D02*
X057174Y020083D01*
X057174Y018913D01*
X054819Y017728D02*
X053499Y019048D01*
X053394Y017473D02*
X053634Y017233D01*
X053634Y016963D01*
D30*
X051639Y025868D03*
D31*
X060169Y006128D03*
X062169Y006128D03*
M02*
