G75*
G70*
%OFA0B0*%
%FSAX24Y24*%
%IPPOS*%
%LPD*%
%AMOC8*
5,1,8,0,0,1.08239X$1,22.5*
*%
%ADD10C,0.0070*%
%ADD11C,0.0010*%
%ADD12C,0.0000*%
%ADD13C,0.0060*%
D10*
X012659Y045638D02*
X012659Y003618D01*
X074679Y003618D01*
X074679Y045638D01*
X012659Y045638D01*
D11*
X014269Y044228D02*
X015069Y045028D01*
X015069Y044228D02*
X014269Y045028D01*
X014269Y044628D02*
X015069Y044628D01*
X016884Y043148D02*
X016884Y042748D01*
X016484Y042348D01*
X017284Y042348D01*
X016884Y042748D01*
X017679Y042748D02*
X017679Y043148D01*
X017679Y042748D02*
X017279Y042348D01*
X018079Y042348D01*
X017679Y042748D01*
X018474Y042748D02*
X018474Y043148D01*
X018474Y042748D02*
X018074Y042348D01*
X018874Y042348D01*
X018474Y042748D01*
X018669Y042068D02*
X018669Y041668D01*
X018269Y041268D01*
X019069Y041268D01*
X018669Y041668D01*
X017889Y041783D02*
X017889Y041383D01*
X017489Y040983D01*
X018289Y040983D01*
X017889Y041383D01*
X017229Y041668D02*
X017229Y042068D01*
X017229Y041668D02*
X016829Y041268D01*
X017629Y041268D01*
X017229Y041668D01*
X019614Y041063D02*
X019614Y040663D01*
X019214Y040263D01*
X020014Y040263D01*
X019614Y040663D01*
X021279Y041233D02*
X021279Y041633D01*
X021279Y041233D02*
X020879Y040833D01*
X021679Y040833D01*
X021279Y041233D01*
X019869Y042643D02*
X019869Y043043D01*
X019869Y042643D02*
X019469Y042243D01*
X020269Y042243D01*
X019869Y042643D01*
X023889Y042383D02*
X023889Y041983D01*
X023489Y041583D01*
X024289Y041583D01*
X023889Y041983D01*
X024879Y041873D02*
X024879Y041473D01*
X024479Y041073D01*
X025279Y041073D01*
X024879Y041473D01*
X025134Y041983D02*
X025134Y042383D01*
X025134Y041983D02*
X024734Y041583D01*
X025534Y041583D01*
X025134Y041983D01*
X024564Y042928D02*
X024564Y043328D01*
X024564Y042928D02*
X024164Y042528D01*
X024964Y042528D01*
X024564Y042928D01*
X027054Y043028D02*
X027054Y042628D01*
X026654Y042228D01*
X027454Y042228D01*
X027054Y042628D01*
X027579Y041543D02*
X027579Y041143D01*
X027179Y040743D01*
X027979Y040743D01*
X027579Y041143D01*
X029139Y041138D02*
X029139Y040738D01*
X028739Y040338D01*
X029539Y040338D01*
X029139Y040738D01*
X029709Y041878D02*
X029709Y042278D01*
X029709Y041878D02*
X029309Y041478D01*
X030109Y041478D01*
X029709Y041878D01*
X029634Y042328D02*
X029634Y042728D01*
X029634Y042328D02*
X029234Y041928D01*
X030034Y041928D01*
X029634Y042328D01*
X029334Y042658D02*
X029334Y043058D01*
X029334Y042658D02*
X028934Y042258D01*
X029734Y042258D01*
X029334Y042658D01*
X031314Y042728D02*
X031314Y042328D01*
X030914Y041928D01*
X031714Y041928D01*
X031314Y042328D01*
X034734Y042023D02*
X034734Y041623D01*
X034334Y041223D01*
X035134Y041223D01*
X034734Y041623D01*
X034869Y040418D02*
X034869Y040018D01*
X034469Y039618D01*
X035269Y039618D01*
X034869Y040018D01*
X034734Y039803D02*
X034734Y039403D01*
X034334Y039003D01*
X035134Y039003D01*
X034734Y039403D01*
X033984Y039223D02*
X033984Y039623D01*
X033984Y039223D02*
X033584Y038823D01*
X034384Y038823D01*
X033984Y039223D01*
X033729Y038303D02*
X033729Y037903D01*
X033329Y037503D01*
X034129Y037503D01*
X033729Y037903D01*
X035034Y037298D02*
X035034Y036898D01*
X034634Y036498D01*
X035434Y036498D01*
X035034Y036898D01*
X036519Y037318D02*
X036519Y037718D01*
X036519Y037318D02*
X036119Y036918D01*
X036919Y036918D01*
X036519Y037318D01*
X036669Y036758D02*
X036669Y036358D01*
X036269Y035958D01*
X037069Y035958D01*
X036669Y036358D01*
X036924Y036308D02*
X036924Y035908D01*
X036524Y035508D01*
X037324Y035508D01*
X036924Y035908D01*
X037449Y035848D02*
X037449Y036248D01*
X037449Y035848D02*
X037049Y035448D01*
X037849Y035448D01*
X037449Y035848D01*
X038844Y035753D02*
X038844Y035353D01*
X038444Y034953D01*
X039244Y034953D01*
X038844Y035353D01*
X037464Y035273D02*
X037464Y034873D01*
X037064Y034473D01*
X037864Y034473D01*
X037464Y034873D01*
X036279Y035003D02*
X036279Y034603D01*
X035879Y034203D01*
X036679Y034203D01*
X036279Y034603D01*
X036339Y035398D02*
X036339Y035798D01*
X036339Y035398D02*
X035939Y034998D01*
X036739Y034998D01*
X036339Y035398D01*
X038499Y033488D02*
X038499Y033088D01*
X038099Y032688D01*
X038899Y032688D01*
X038499Y033088D01*
X039849Y034033D02*
X039849Y034433D01*
X039849Y034033D02*
X039449Y033633D01*
X040249Y033633D01*
X039849Y034033D01*
X041529Y034468D02*
X041529Y034868D01*
X041529Y034468D02*
X041129Y034068D01*
X041929Y034068D01*
X041529Y034468D01*
X041019Y036373D02*
X041019Y036773D01*
X041019Y036373D02*
X040619Y035973D01*
X041419Y035973D01*
X041019Y036373D01*
X040104Y038128D02*
X040104Y038528D01*
X040104Y038128D02*
X039704Y037728D01*
X040504Y037728D01*
X040104Y038128D01*
X039204Y038758D02*
X039204Y039158D01*
X039204Y038758D02*
X038804Y038358D01*
X039604Y038358D01*
X039204Y038758D01*
X038799Y038998D02*
X038799Y039398D01*
X038799Y038998D02*
X038399Y038598D01*
X039199Y038598D01*
X038799Y038998D01*
X039594Y039658D02*
X039594Y040058D01*
X039594Y039658D02*
X039194Y039258D01*
X039994Y039258D01*
X039594Y039658D01*
X037449Y041893D02*
X037449Y042293D01*
X037449Y041893D02*
X037049Y041493D01*
X037849Y041493D01*
X037449Y041893D01*
X042534Y042028D02*
X042534Y042428D01*
X042534Y042028D02*
X042134Y041628D01*
X042934Y041628D01*
X042534Y042028D01*
X043854Y042373D02*
X043854Y042773D01*
X043854Y042373D02*
X043454Y041973D01*
X044254Y041973D01*
X043854Y042373D01*
X043884Y041408D02*
X043884Y041008D01*
X043484Y040608D01*
X044284Y040608D01*
X043884Y041008D01*
X043794Y040538D02*
X043794Y040138D01*
X043394Y039738D01*
X044194Y039738D01*
X043794Y040138D01*
X047844Y037928D02*
X047844Y037528D01*
X047444Y037128D01*
X048244Y037128D01*
X047844Y037528D01*
X047589Y037538D02*
X047589Y037138D01*
X047189Y036738D01*
X047989Y036738D01*
X047589Y037138D01*
X046809Y036758D02*
X046809Y036358D01*
X046409Y035958D01*
X047209Y035958D01*
X046809Y036358D01*
X048309Y035468D02*
X048309Y035068D01*
X047909Y034668D01*
X048709Y034668D01*
X048309Y035068D01*
X048909Y034493D02*
X048909Y034093D01*
X048509Y033693D01*
X049309Y033693D01*
X048909Y034093D01*
X049434Y033488D02*
X049434Y033088D01*
X049034Y032688D01*
X049834Y032688D01*
X049434Y033088D01*
X048624Y033053D02*
X048624Y032653D01*
X048224Y032253D01*
X049024Y032253D01*
X048624Y032653D01*
X049284Y032213D02*
X049284Y031813D01*
X048884Y031413D01*
X049684Y031413D01*
X049284Y031813D01*
X048624Y031748D02*
X048624Y031348D01*
X048224Y030948D01*
X049024Y030948D01*
X048624Y031348D01*
X049194Y031238D02*
X049194Y030838D01*
X048794Y030438D01*
X049594Y030438D01*
X049194Y030838D01*
X049374Y030218D02*
X049374Y029818D01*
X048974Y029418D01*
X049774Y029418D01*
X049374Y029818D01*
X048924Y029758D02*
X048924Y030158D01*
X048924Y029758D02*
X048524Y029358D01*
X049324Y029358D01*
X048924Y029758D01*
X048639Y029813D02*
X048639Y029413D01*
X048239Y029013D01*
X049039Y029013D01*
X048639Y029413D01*
X048174Y029473D02*
X048174Y029873D01*
X048174Y029473D02*
X047774Y029073D01*
X048574Y029073D01*
X048174Y029473D01*
X047799Y029728D02*
X047799Y030128D01*
X047799Y029728D02*
X047399Y029328D01*
X048199Y029328D01*
X047799Y029728D01*
X047304Y029983D02*
X047304Y030383D01*
X047304Y029983D02*
X046904Y029583D01*
X047704Y029583D01*
X047304Y029983D01*
X047589Y030733D02*
X047589Y031133D01*
X047589Y030733D02*
X047189Y030333D01*
X047989Y030333D01*
X047589Y030733D01*
X047214Y030988D02*
X047214Y031388D01*
X047214Y030988D02*
X046814Y030588D01*
X047614Y030588D01*
X047214Y030988D01*
X047124Y031438D02*
X047124Y031838D01*
X047124Y031438D02*
X046724Y031038D01*
X047524Y031038D01*
X047124Y031438D01*
X047334Y032398D02*
X047334Y032798D01*
X047334Y032398D02*
X046934Y031998D01*
X047734Y031998D01*
X047334Y032398D01*
X045894Y032998D02*
X045894Y033398D01*
X045894Y032998D02*
X045494Y032598D01*
X046294Y032598D01*
X045894Y032998D01*
X044679Y032983D02*
X044679Y033383D01*
X044679Y032983D02*
X044279Y032583D01*
X045079Y032583D01*
X044679Y032983D01*
X043464Y032963D02*
X043464Y032563D01*
X043064Y032163D01*
X043864Y032163D01*
X043464Y032563D01*
X042954Y032633D02*
X042954Y032233D01*
X042554Y031833D01*
X043354Y031833D01*
X042954Y032233D01*
X042579Y032488D02*
X042579Y032888D01*
X042579Y032488D02*
X042179Y032088D01*
X042979Y032088D01*
X042579Y032488D01*
X042129Y032443D02*
X042129Y032843D01*
X042129Y032443D02*
X041729Y032043D01*
X042529Y032043D01*
X042129Y032443D01*
X041559Y032303D02*
X041559Y031903D01*
X041159Y031503D01*
X041959Y031503D01*
X041559Y031903D01*
X043014Y031723D02*
X043014Y032123D01*
X043014Y031723D02*
X042614Y031323D01*
X043414Y031323D01*
X043014Y031723D01*
X044814Y031223D02*
X044814Y030823D01*
X044414Y030423D01*
X045214Y030423D01*
X044814Y030823D01*
X044964Y030638D02*
X044964Y030238D01*
X044564Y029838D01*
X045364Y029838D01*
X044964Y030238D01*
X043449Y030128D02*
X043449Y029728D01*
X043049Y029328D01*
X043849Y029328D01*
X043449Y029728D01*
X042699Y029123D02*
X042699Y028723D01*
X042299Y028323D01*
X043099Y028323D01*
X042699Y028723D01*
X042069Y028628D02*
X041269Y028628D01*
X041669Y028228D02*
X041669Y029028D01*
X041069Y028628D02*
X040269Y028628D01*
X040669Y028228D02*
X040669Y029028D01*
X040269Y029628D02*
X041069Y029628D01*
X040669Y029228D02*
X040669Y030028D01*
X040059Y029848D02*
X040059Y030248D01*
X040059Y029848D02*
X039659Y029448D01*
X040459Y029448D01*
X040059Y029848D01*
X038844Y029848D02*
X038844Y030248D01*
X038844Y029848D02*
X038444Y029448D01*
X039244Y029448D01*
X038844Y029848D01*
X038439Y030493D02*
X038439Y030893D01*
X038439Y030493D02*
X038039Y030093D01*
X038839Y030093D01*
X038439Y030493D01*
X038214Y030958D02*
X038214Y031358D01*
X038214Y030958D02*
X037814Y030558D01*
X038614Y030558D01*
X038214Y030958D01*
X039099Y031118D02*
X039099Y030718D01*
X038699Y030318D01*
X039499Y030318D01*
X039099Y030718D01*
X037014Y030763D02*
X037014Y031163D01*
X037014Y030763D02*
X036614Y030363D01*
X037414Y030363D01*
X037014Y030763D01*
X036984Y031213D02*
X036984Y031613D01*
X036984Y031213D02*
X036584Y030813D01*
X037384Y030813D01*
X036984Y031213D01*
X034494Y031468D02*
X034494Y031868D01*
X034494Y031468D02*
X034094Y031068D01*
X034894Y031068D01*
X034494Y031468D01*
X032964Y032653D02*
X032964Y033053D01*
X032964Y032653D02*
X032564Y032253D01*
X033364Y032253D01*
X032964Y032653D01*
X031344Y031268D02*
X031344Y030868D01*
X030944Y030468D01*
X031744Y030468D01*
X031344Y030868D01*
X032679Y030698D02*
X032679Y030298D01*
X032279Y029898D01*
X033079Y029898D01*
X032679Y030298D01*
X031629Y030368D02*
X031629Y029968D01*
X031229Y029568D01*
X032029Y029568D01*
X031629Y029968D01*
X031389Y029978D02*
X031389Y029578D01*
X030989Y029178D01*
X031789Y029178D01*
X031389Y029578D01*
X031494Y029513D02*
X031494Y029113D01*
X031094Y028713D01*
X031894Y028713D01*
X031494Y029113D01*
X032169Y028613D02*
X032169Y028213D01*
X031769Y027813D01*
X032569Y027813D01*
X032169Y028213D01*
X032454Y028253D02*
X032454Y027853D01*
X032054Y027453D01*
X032854Y027453D01*
X032454Y027853D01*
X033024Y028468D02*
X033024Y028868D01*
X033024Y028468D02*
X032624Y028068D01*
X033424Y028068D01*
X033024Y028468D01*
X033084Y028978D02*
X033084Y029378D01*
X033084Y028978D02*
X032684Y028578D01*
X033484Y028578D01*
X033084Y028978D01*
X032694Y029563D02*
X032694Y029963D01*
X032694Y029563D02*
X032294Y029163D01*
X033094Y029163D01*
X032694Y029563D01*
X034494Y029423D02*
X034494Y029023D01*
X034094Y028623D01*
X034894Y028623D01*
X034494Y029023D01*
X034494Y027878D02*
X034494Y027478D01*
X034094Y027078D01*
X034894Y027078D01*
X034494Y027478D01*
X033024Y027623D02*
X033024Y027223D01*
X032624Y026823D01*
X033424Y026823D01*
X033024Y027223D01*
X034494Y025868D02*
X034494Y025468D01*
X034094Y025068D01*
X034894Y025068D01*
X034494Y025468D01*
X035589Y024773D02*
X035589Y024373D01*
X035189Y023973D01*
X035989Y023973D01*
X035589Y024373D01*
X038589Y022898D02*
X038589Y022498D01*
X038189Y022098D01*
X038989Y022098D01*
X038589Y022498D01*
X040269Y022628D02*
X041069Y022628D01*
X040669Y022228D02*
X040669Y023028D01*
X041319Y022978D02*
X041319Y023378D01*
X041319Y022978D02*
X040919Y022578D01*
X041719Y022578D01*
X041319Y022978D01*
X041269Y022628D02*
X042069Y022628D01*
X041669Y022228D02*
X041669Y023028D01*
X041269Y023628D02*
X042069Y023628D01*
X041669Y023228D02*
X041669Y024028D01*
X041069Y023628D02*
X040269Y023628D01*
X040669Y023228D02*
X040669Y024028D01*
X040269Y024628D02*
X041069Y024628D01*
X040669Y024228D02*
X040669Y025028D01*
X040269Y025628D02*
X041069Y025628D01*
X040669Y025228D02*
X040669Y026028D01*
X040269Y026628D02*
X041069Y026628D01*
X040669Y026228D02*
X040669Y027028D01*
X040269Y027628D02*
X041069Y027628D01*
X040669Y027228D02*
X040669Y028028D01*
X041269Y027628D02*
X042069Y027628D01*
X041669Y027228D02*
X041669Y028028D01*
X042699Y028028D02*
X042699Y027628D01*
X042299Y027228D01*
X043099Y027228D01*
X042699Y027628D01*
X042069Y026628D02*
X041269Y026628D01*
X041669Y026228D02*
X041669Y027028D01*
X041269Y025628D02*
X042069Y025628D01*
X041669Y025228D02*
X041669Y026028D01*
X040059Y025868D02*
X040059Y025468D01*
X039659Y025068D01*
X040459Y025068D01*
X040059Y025468D01*
X038949Y025723D02*
X038949Y026123D01*
X038949Y025723D02*
X038549Y025323D01*
X039349Y025323D01*
X038949Y025723D01*
X036804Y026353D02*
X036804Y026753D01*
X036804Y026353D02*
X036404Y025953D01*
X037204Y025953D01*
X036804Y026353D01*
X037014Y027568D02*
X037014Y027968D01*
X037014Y027568D02*
X036614Y027168D01*
X037414Y027168D01*
X037014Y027568D01*
X037014Y028558D02*
X037014Y028958D01*
X037014Y028558D02*
X036614Y028158D01*
X037414Y028158D01*
X037014Y028558D01*
X037014Y029068D02*
X037014Y029468D01*
X037014Y029068D02*
X036614Y028668D01*
X037414Y028668D01*
X037014Y029068D01*
X037014Y029563D02*
X037014Y029963D01*
X037014Y029563D02*
X036614Y029163D01*
X037414Y029163D01*
X037014Y029563D01*
X041269Y029628D02*
X042069Y029628D01*
X041669Y029228D02*
X041669Y030028D01*
X045864Y029303D02*
X045864Y028903D01*
X045464Y028503D01*
X046264Y028503D01*
X045864Y028903D01*
X046314Y028768D02*
X046314Y029168D01*
X046314Y028768D02*
X045914Y028368D01*
X046714Y028368D01*
X046314Y028768D01*
X048729Y028253D02*
X048729Y027853D01*
X048329Y027453D01*
X049129Y027453D01*
X048729Y027853D01*
X049179Y027853D02*
X049179Y028253D01*
X049179Y027853D02*
X048779Y027453D01*
X049579Y027453D01*
X049179Y027853D01*
X049734Y027868D02*
X049734Y028268D01*
X049734Y027868D02*
X049334Y027468D01*
X050134Y027468D01*
X049734Y027868D01*
X050184Y028003D02*
X050184Y028403D01*
X050184Y028003D02*
X049784Y027603D01*
X050584Y027603D01*
X050184Y028003D01*
X050439Y028483D02*
X050439Y028883D01*
X050439Y028483D02*
X050039Y028083D01*
X050839Y028083D01*
X050439Y028483D01*
X049359Y028888D02*
X049359Y029288D01*
X049359Y028888D02*
X048959Y028488D01*
X049759Y028488D01*
X049359Y028888D01*
X050049Y027743D02*
X050049Y027343D01*
X049649Y026943D01*
X050449Y026943D01*
X050049Y027343D01*
X050499Y027343D02*
X050499Y027743D01*
X050499Y027343D02*
X050099Y026943D01*
X050899Y026943D01*
X050499Y027343D01*
X050199Y026663D02*
X050199Y026263D01*
X049799Y025863D01*
X050599Y025863D01*
X050199Y026263D01*
X049434Y026263D02*
X049434Y026663D01*
X049434Y026263D02*
X049034Y025863D01*
X049834Y025863D01*
X049434Y026263D01*
X048624Y026263D02*
X048624Y026663D01*
X048624Y026263D02*
X048224Y025863D01*
X049024Y025863D01*
X048624Y026263D01*
X048174Y026263D02*
X048174Y026663D01*
X048174Y026263D02*
X047774Y025863D01*
X048574Y025863D01*
X048174Y026263D01*
X047949Y026758D02*
X047949Y027158D01*
X047949Y026758D02*
X047549Y026358D01*
X048349Y026358D01*
X047949Y026758D01*
X047499Y026578D02*
X047499Y026978D01*
X047499Y026578D02*
X047099Y026178D01*
X047899Y026178D01*
X047499Y026578D01*
X047049Y026578D02*
X047049Y026978D01*
X047049Y026578D02*
X046649Y026178D01*
X047449Y026178D01*
X047049Y026578D01*
X046959Y026468D02*
X046959Y026068D01*
X046559Y025668D01*
X047359Y025668D01*
X046959Y026068D01*
X048039Y026063D02*
X048039Y025663D01*
X047639Y025263D01*
X048439Y025263D01*
X048039Y025663D01*
X048039Y025598D02*
X048039Y025198D01*
X047639Y024798D01*
X048439Y024798D01*
X048039Y025198D01*
X048099Y025073D02*
X048099Y024673D01*
X047699Y024273D01*
X048499Y024273D01*
X048099Y024673D01*
X048924Y025378D02*
X048924Y025778D01*
X048924Y025378D02*
X048524Y024978D01*
X049324Y024978D01*
X048924Y025378D01*
X049899Y025163D02*
X049899Y024763D01*
X049499Y024363D01*
X050299Y024363D01*
X049899Y024763D01*
X051239Y025868D02*
X051639Y025868D01*
X052039Y026268D01*
X052039Y025468D01*
X051639Y025868D01*
X051369Y026263D02*
X051369Y026663D01*
X051369Y026263D02*
X050969Y025863D01*
X051769Y025863D01*
X051369Y026263D01*
X051969Y026263D02*
X051969Y026663D01*
X051969Y026263D02*
X051569Y025863D01*
X052369Y025863D01*
X051969Y026263D01*
X052524Y026248D02*
X052524Y026648D01*
X052524Y026248D02*
X052124Y025848D01*
X052924Y025848D01*
X052524Y026248D01*
X053544Y026263D02*
X053544Y026663D01*
X053544Y026263D02*
X053144Y025863D01*
X053944Y025863D01*
X053544Y026263D01*
X053994Y026263D02*
X053994Y026663D01*
X053994Y026263D02*
X053594Y025863D01*
X054394Y025863D01*
X053994Y026263D01*
X054444Y026263D02*
X054444Y026663D01*
X054444Y026263D02*
X054044Y025863D01*
X054844Y025863D01*
X054444Y026263D01*
X053274Y025883D02*
X053274Y025483D01*
X052874Y025083D01*
X053674Y025083D01*
X053274Y025483D01*
X054159Y025108D02*
X054159Y024708D01*
X054159Y025108D02*
X053759Y025508D01*
X054559Y025508D01*
X054159Y025108D01*
X053604Y025163D02*
X053604Y024763D01*
X053204Y024363D01*
X054004Y024363D01*
X053604Y024763D01*
X053154Y024763D02*
X053154Y025163D01*
X053154Y024763D02*
X052754Y024363D01*
X053554Y024363D01*
X053154Y024763D01*
X052704Y024748D02*
X052704Y025148D01*
X052704Y024748D02*
X052304Y024348D01*
X053104Y024348D01*
X052704Y024748D01*
X052254Y024763D02*
X052254Y025163D01*
X052254Y024763D02*
X051854Y024363D01*
X052654Y024363D01*
X052254Y024763D01*
X053784Y024278D02*
X053784Y023878D01*
X053384Y023478D01*
X054184Y023478D01*
X053784Y023878D01*
X054534Y023918D02*
X054534Y023518D01*
X054134Y023118D01*
X054934Y023118D01*
X054534Y023518D01*
X054309Y023123D02*
X054309Y022723D01*
X053909Y022323D01*
X054709Y022323D01*
X054309Y022723D01*
X053784Y022828D02*
X053784Y023228D01*
X053784Y022828D02*
X053384Y022428D01*
X054184Y022428D01*
X053784Y022828D01*
X053634Y022778D02*
X053634Y022378D01*
X053234Y021978D01*
X054034Y021978D01*
X053634Y022378D01*
X053349Y022433D02*
X053349Y022033D01*
X052949Y021633D01*
X053749Y021633D01*
X053349Y022033D01*
X053634Y022028D02*
X053634Y021628D01*
X053234Y021228D01*
X054034Y021228D01*
X053634Y021628D01*
X054309Y021473D02*
X054309Y021073D01*
X053909Y020673D01*
X054709Y020673D01*
X054309Y021073D01*
X053784Y020858D02*
X053784Y020458D01*
X053384Y020058D01*
X054184Y020058D01*
X053784Y020458D01*
X053349Y020653D02*
X053349Y021053D01*
X053349Y020653D02*
X052949Y020253D01*
X053749Y020253D01*
X053349Y020653D01*
X052974Y020908D02*
X052974Y021308D01*
X052974Y020908D02*
X052574Y020508D01*
X053374Y020508D01*
X052974Y020908D01*
X052914Y020858D02*
X052914Y020458D01*
X052514Y020058D01*
X053314Y020058D01*
X052914Y020458D01*
X052464Y020458D02*
X052464Y020858D01*
X052464Y020458D02*
X052064Y020058D01*
X052864Y020058D01*
X052464Y020458D01*
X052014Y020458D02*
X052014Y020858D01*
X052014Y020458D02*
X051614Y020058D01*
X052414Y020058D01*
X052014Y020458D01*
X051324Y020458D02*
X051324Y020858D01*
X051324Y020458D02*
X050924Y020058D01*
X051724Y020058D01*
X051324Y020458D01*
X050619Y020458D02*
X050619Y020858D01*
X050619Y020458D02*
X050219Y020058D01*
X051019Y020058D01*
X050619Y020458D01*
X050109Y020458D02*
X050109Y020858D01*
X050109Y020458D02*
X049709Y020058D01*
X050509Y020058D01*
X050109Y020458D01*
X050544Y020213D02*
X050544Y019813D01*
X050144Y019413D01*
X050944Y019413D01*
X050544Y019813D01*
X050469Y019388D02*
X050469Y018988D01*
X050069Y018588D01*
X050869Y018588D01*
X050469Y018988D01*
X050919Y019018D02*
X050919Y019418D01*
X050919Y019018D02*
X050519Y018618D01*
X051319Y018618D01*
X050919Y019018D01*
X051369Y018988D02*
X051369Y019388D01*
X051369Y018988D02*
X050969Y018588D01*
X051769Y018588D01*
X051369Y018988D01*
X052284Y019048D02*
X052284Y019448D01*
X052284Y019048D02*
X051884Y018648D01*
X052684Y018648D01*
X052284Y019048D01*
X052944Y018988D02*
X052944Y019388D01*
X052944Y018988D02*
X052544Y018588D01*
X053344Y018588D01*
X052944Y018988D01*
X053499Y019048D02*
X053499Y019448D01*
X053499Y019048D02*
X053099Y018648D01*
X053899Y018648D01*
X053499Y019048D01*
X054519Y018988D02*
X054519Y019388D01*
X054519Y018988D02*
X054119Y018588D01*
X054919Y018588D01*
X054519Y018988D01*
X054969Y018988D02*
X054969Y019388D01*
X054969Y018988D02*
X054569Y018588D01*
X055369Y018588D01*
X054969Y018988D01*
X055299Y019558D02*
X055299Y019958D01*
X055299Y019558D02*
X054899Y019158D01*
X055699Y019158D01*
X055299Y019558D01*
X054534Y019813D02*
X054534Y020213D01*
X054534Y019813D02*
X054134Y019413D01*
X054934Y019413D01*
X054534Y019813D01*
X055299Y020758D02*
X055299Y021158D01*
X055299Y020758D02*
X054899Y020358D01*
X055699Y020358D01*
X055299Y020758D01*
X055299Y021208D02*
X055299Y021608D01*
X055299Y021208D02*
X054899Y020808D01*
X055699Y020808D01*
X055299Y021208D01*
X056394Y020978D02*
X056394Y020578D01*
X055994Y020178D01*
X056794Y020178D01*
X056394Y020578D01*
X056664Y020938D02*
X056664Y021338D01*
X056664Y020938D02*
X056264Y020538D01*
X057064Y020538D01*
X056664Y020938D01*
X056544Y021523D02*
X056544Y021923D01*
X056544Y021523D02*
X056144Y021123D01*
X056944Y021123D01*
X056544Y021523D01*
X057489Y021688D02*
X057489Y022088D01*
X057489Y021688D02*
X057089Y021288D01*
X057889Y021288D01*
X057489Y021688D01*
X057939Y021598D02*
X057939Y021998D01*
X057939Y021598D02*
X057539Y021198D01*
X058339Y021198D01*
X057939Y021598D01*
X057594Y021593D02*
X057594Y021193D01*
X057194Y020793D01*
X057994Y020793D01*
X057594Y021193D01*
X057579Y020888D02*
X057579Y020488D01*
X057179Y020088D01*
X057979Y020088D01*
X057579Y020488D01*
X058749Y020603D02*
X058749Y020203D01*
X058349Y019803D01*
X059149Y019803D01*
X058749Y020203D01*
X058899Y020138D02*
X058899Y019738D01*
X058499Y019338D01*
X059299Y019338D01*
X058899Y019738D01*
X058989Y019888D02*
X059789Y019088D01*
X058989Y019088D02*
X059789Y019888D01*
X059989Y019888D02*
X060789Y019088D01*
X059989Y019088D02*
X060789Y019888D01*
X060789Y020088D02*
X059989Y020888D01*
X059989Y020088D02*
X060789Y020888D01*
X060879Y021238D02*
X060879Y021638D01*
X060879Y021238D02*
X060479Y020838D01*
X061279Y020838D01*
X060879Y021238D01*
X060789Y021088D02*
X059989Y021888D01*
X059989Y021088D02*
X060789Y021888D01*
X059544Y022588D02*
X059544Y022988D01*
X059544Y022588D02*
X059144Y022188D01*
X059944Y022188D01*
X059544Y022588D01*
X060204Y023248D02*
X060204Y023648D01*
X060204Y023248D02*
X059804Y022848D01*
X060604Y022848D01*
X060204Y023248D01*
X059739Y023788D02*
X059739Y024188D01*
X059739Y023788D02*
X059339Y023388D01*
X060139Y023388D01*
X059739Y023788D01*
X059199Y023608D02*
X059199Y024008D01*
X059199Y023608D02*
X058799Y023208D01*
X059599Y023208D01*
X059199Y023608D01*
X058749Y023518D02*
X058749Y023918D01*
X058749Y023518D02*
X058349Y023118D01*
X059149Y023118D01*
X058749Y023518D01*
X057984Y023398D02*
X057984Y023798D01*
X057984Y023398D02*
X057584Y022998D01*
X058384Y022998D01*
X057984Y023398D01*
X057774Y023138D02*
X057774Y022738D01*
X057374Y022338D01*
X058174Y022338D01*
X057774Y022738D01*
X058089Y022568D02*
X058089Y022168D01*
X057689Y021768D01*
X058489Y021768D01*
X058089Y022168D01*
X056814Y022738D02*
X056814Y023138D01*
X056814Y022738D02*
X056414Y022338D01*
X057214Y022338D01*
X056814Y022738D01*
X055299Y022538D02*
X055299Y022138D01*
X054899Y021738D01*
X055699Y021738D01*
X055299Y022138D01*
X054939Y022408D02*
X054939Y022808D01*
X054939Y022408D02*
X054539Y022008D01*
X055339Y022008D01*
X054939Y022408D01*
X055299Y023908D02*
X055299Y024308D01*
X055299Y023908D02*
X054899Y023508D01*
X055699Y023508D01*
X055299Y023908D01*
X055299Y024868D02*
X055299Y025268D01*
X055299Y024868D02*
X054899Y024468D01*
X055699Y024468D01*
X055299Y024868D01*
X056379Y025033D02*
X056379Y025433D01*
X056379Y025033D02*
X055979Y024633D01*
X056779Y024633D01*
X056379Y025033D01*
X055299Y025753D02*
X055299Y026153D01*
X055299Y025753D02*
X054899Y025353D01*
X055699Y025353D01*
X055299Y025753D01*
X056244Y026338D02*
X056244Y026738D01*
X056244Y026338D02*
X055844Y025938D01*
X056644Y025938D01*
X056244Y026338D01*
X056619Y026483D02*
X056619Y026083D01*
X056219Y025683D01*
X057019Y025683D01*
X056619Y026083D01*
X057549Y026168D02*
X058349Y026168D01*
X057949Y025768D02*
X057949Y026568D01*
X057549Y027168D02*
X058349Y027168D01*
X057949Y026768D02*
X057949Y027568D01*
X057549Y028168D02*
X058349Y028168D01*
X057949Y027768D02*
X057949Y028568D01*
X058734Y028508D02*
X058734Y028108D01*
X058334Y027708D01*
X059134Y027708D01*
X058734Y028108D01*
X059109Y028118D02*
X059109Y027718D01*
X058709Y027318D01*
X059509Y027318D01*
X059109Y027718D01*
X059739Y027683D02*
X059739Y027283D01*
X059339Y026883D01*
X060139Y026883D01*
X059739Y027283D01*
X059664Y028588D02*
X059664Y028988D01*
X059664Y028588D02*
X059264Y028188D01*
X060064Y028188D01*
X059664Y028588D01*
X059214Y028588D02*
X059214Y028988D01*
X059214Y028588D02*
X058814Y028188D01*
X059614Y028188D01*
X059214Y028588D01*
X059004Y029098D02*
X059004Y029498D01*
X059004Y029098D02*
X058604Y028698D01*
X059404Y028698D01*
X059004Y029098D01*
X059319Y029413D02*
X059319Y029813D01*
X059319Y029413D02*
X058919Y029013D01*
X059719Y029013D01*
X059319Y029413D01*
X059769Y029503D02*
X059769Y029903D01*
X059769Y029503D02*
X059369Y029103D01*
X060169Y029103D01*
X059769Y029503D01*
X061449Y029183D02*
X061449Y028783D01*
X061049Y028383D01*
X061849Y028383D01*
X061449Y028783D01*
X061914Y029293D02*
X061914Y029693D01*
X061914Y029293D02*
X061514Y028893D01*
X062314Y028893D01*
X061914Y029293D01*
X062424Y028928D02*
X062424Y028528D01*
X062024Y028128D01*
X062824Y028128D01*
X062424Y028528D01*
X062169Y028448D02*
X062169Y028048D01*
X061769Y027648D01*
X062569Y027648D01*
X062169Y028048D01*
X063759Y027443D02*
X063759Y027043D01*
X063359Y026643D01*
X064159Y026643D01*
X063759Y027043D01*
X065064Y028543D02*
X065064Y028943D01*
X065064Y028543D02*
X064664Y028143D01*
X065464Y028143D01*
X065064Y028543D01*
X064959Y029293D02*
X064959Y029693D01*
X064959Y029293D02*
X064559Y028893D01*
X065359Y028893D01*
X064959Y029293D01*
X065019Y030118D02*
X065019Y030518D01*
X065019Y030118D02*
X064619Y029718D01*
X065419Y029718D01*
X065019Y030118D01*
X066144Y030508D02*
X066144Y030908D01*
X066144Y030508D02*
X065744Y030108D01*
X066544Y030108D01*
X066144Y030508D01*
X065004Y031693D02*
X065004Y032093D01*
X065004Y031693D02*
X064604Y031293D01*
X065404Y031293D01*
X065004Y031693D01*
X064059Y031538D02*
X064059Y031138D01*
X063659Y030738D01*
X064459Y030738D01*
X064059Y031138D01*
X063714Y031043D02*
X063714Y030643D01*
X063314Y030243D01*
X064114Y030243D01*
X063714Y030643D01*
X062424Y031243D02*
X062424Y031643D01*
X062424Y031243D02*
X062024Y030843D01*
X062824Y030843D01*
X062424Y031243D01*
X063309Y031498D02*
X063309Y031898D01*
X063309Y031498D02*
X062909Y031098D01*
X063709Y031098D01*
X063309Y031498D01*
X061914Y032353D02*
X061914Y032753D01*
X061914Y032353D02*
X061514Y031953D01*
X062314Y031953D01*
X061914Y032353D01*
X061254Y032203D02*
X061254Y032603D01*
X061254Y032203D02*
X060854Y031803D01*
X061654Y031803D01*
X061254Y032203D01*
X059319Y033118D02*
X059319Y033518D01*
X059319Y033118D02*
X058919Y032718D01*
X059719Y032718D01*
X059319Y033118D01*
X058614Y034363D02*
X058614Y034763D01*
X058614Y034363D02*
X058214Y033963D01*
X059014Y033963D01*
X058614Y034363D01*
X059679Y034878D02*
X059679Y035278D01*
X059279Y035678D01*
X060079Y035678D01*
X059679Y035278D01*
X061554Y035258D02*
X061554Y034858D01*
X061154Y034458D01*
X061954Y034458D01*
X061554Y034858D01*
X061219Y034358D02*
X062019Y034358D01*
X061619Y033958D02*
X061619Y034758D01*
X062219Y034358D02*
X063019Y034358D01*
X062619Y033958D02*
X062619Y034758D01*
X063219Y034358D02*
X064019Y034358D01*
X063619Y033958D02*
X063619Y034758D01*
X064219Y034358D02*
X065019Y034358D01*
X064619Y033958D02*
X064619Y034758D01*
X065219Y034358D02*
X066019Y034358D01*
X065619Y033958D02*
X065619Y034758D01*
X065219Y033358D02*
X066019Y033358D01*
X065619Y032958D02*
X065619Y033758D01*
X065019Y033358D02*
X064219Y033358D01*
X064619Y032958D02*
X064619Y033758D01*
X064019Y033358D02*
X063219Y033358D01*
X063619Y032958D02*
X063619Y033758D01*
X063019Y033358D02*
X062219Y033358D01*
X062619Y032958D02*
X062619Y033758D01*
X062019Y033358D02*
X061219Y033358D01*
X061619Y032958D02*
X061619Y033758D01*
X060954Y030938D02*
X060954Y030538D01*
X060554Y030138D01*
X061354Y030138D01*
X060954Y030538D01*
X063504Y029903D02*
X063504Y029503D01*
X063104Y029103D01*
X063904Y029103D01*
X063504Y029503D01*
X060999Y026753D02*
X060999Y026353D01*
X060599Y025953D01*
X061399Y025953D01*
X060999Y026353D01*
X060369Y025013D02*
X060369Y024613D01*
X059969Y024213D01*
X060769Y024213D01*
X060369Y024613D01*
X057204Y027718D02*
X057204Y028118D01*
X057204Y027718D02*
X056804Y027318D01*
X057604Y027318D01*
X057204Y027718D01*
X056089Y027728D02*
X056089Y027328D01*
X056089Y027728D02*
X055689Y028128D01*
X056489Y028128D01*
X056089Y027728D01*
X055389Y027233D02*
X055389Y026833D01*
X054989Y026433D01*
X055789Y026433D01*
X055389Y026833D01*
X055119Y027343D02*
X055119Y027743D01*
X055119Y027343D02*
X054719Y026943D01*
X055519Y026943D01*
X055119Y027343D01*
X054444Y027343D02*
X054444Y027743D01*
X054444Y027343D02*
X054044Y026943D01*
X054844Y026943D01*
X054444Y027343D01*
X054279Y027808D02*
X054279Y028208D01*
X054279Y027808D02*
X053879Y027408D01*
X054679Y027408D01*
X054279Y027808D01*
X054024Y028183D02*
X054024Y028583D01*
X054024Y028183D02*
X053624Y027783D01*
X054424Y027783D01*
X054024Y028183D01*
X054654Y028183D02*
X054654Y028583D01*
X054654Y028183D02*
X054254Y027783D01*
X055054Y027783D01*
X054654Y028183D01*
X053904Y027743D02*
X053904Y027343D01*
X053504Y026943D01*
X054304Y026943D01*
X053904Y027343D01*
X053514Y027703D02*
X053514Y028103D01*
X053514Y027703D02*
X053114Y027303D01*
X053914Y027303D01*
X053514Y027703D01*
X052989Y027613D02*
X052989Y028013D01*
X052989Y027613D02*
X052589Y027213D01*
X053389Y027213D01*
X052989Y027613D01*
X052629Y027743D02*
X052629Y027343D01*
X052229Y026943D01*
X053029Y026943D01*
X052629Y027343D01*
X052629Y028213D02*
X052629Y028613D01*
X052629Y028213D02*
X052229Y027813D01*
X053029Y027813D01*
X052629Y028213D01*
X052434Y028648D02*
X052434Y029048D01*
X052434Y028648D02*
X052034Y028248D01*
X052834Y028248D01*
X052434Y028648D01*
X052809Y028903D02*
X052809Y029303D01*
X052809Y028903D02*
X052409Y028503D01*
X053209Y028503D01*
X052809Y028903D01*
X053769Y029098D02*
X053769Y029498D01*
X053769Y029098D02*
X053369Y028698D01*
X054169Y028698D01*
X053769Y029098D01*
X052239Y029788D02*
X052239Y030188D01*
X052239Y029788D02*
X051839Y029388D01*
X052639Y029388D01*
X052239Y029788D01*
X053634Y030448D02*
X053634Y030848D01*
X053634Y030448D02*
X053234Y030048D01*
X054034Y030048D01*
X053634Y030448D01*
X052239Y030823D02*
X052239Y031223D01*
X052239Y030823D02*
X051839Y030423D01*
X052639Y030423D01*
X052239Y030823D01*
X051729Y031078D02*
X051729Y031478D01*
X051729Y031078D02*
X051329Y030678D01*
X052129Y030678D01*
X051729Y031078D01*
X051309Y030983D02*
X051309Y030583D01*
X050909Y030183D01*
X051709Y030183D01*
X051309Y030583D01*
X050724Y030758D02*
X050724Y030358D01*
X050324Y029958D01*
X051124Y029958D01*
X050724Y030358D01*
X050724Y030808D02*
X050724Y031208D01*
X050724Y030808D02*
X050324Y030408D01*
X051124Y030408D01*
X050724Y030808D01*
X050904Y031348D02*
X050904Y031748D01*
X050904Y031348D02*
X050504Y030948D01*
X051304Y030948D01*
X050904Y031348D01*
X052239Y031903D02*
X052239Y032303D01*
X052239Y031903D02*
X051839Y031503D01*
X052639Y031503D01*
X052239Y031903D01*
X050724Y032638D02*
X050724Y033038D01*
X050724Y032638D02*
X050324Y032238D01*
X051124Y032238D01*
X050724Y032638D01*
X052059Y034618D02*
X052059Y035018D01*
X052059Y034618D02*
X051659Y034218D01*
X052459Y034218D01*
X052059Y034618D01*
X052569Y034618D02*
X052569Y035018D01*
X052569Y034618D02*
X052169Y034218D01*
X052969Y034218D01*
X052569Y034618D01*
X051864Y035518D02*
X051864Y035918D01*
X051864Y035518D02*
X051464Y035118D01*
X052264Y035118D01*
X051864Y035518D01*
X052464Y036883D02*
X052464Y037283D01*
X052464Y036883D02*
X052064Y036483D01*
X052864Y036483D01*
X052464Y036883D01*
X052464Y037378D02*
X052464Y037778D01*
X052464Y037378D02*
X052064Y036978D01*
X052864Y036978D01*
X052464Y037378D01*
X052164Y037708D02*
X052164Y038108D01*
X052164Y037708D02*
X051764Y037308D01*
X052564Y037308D01*
X052164Y037708D01*
X053964Y038953D02*
X053964Y039353D01*
X053964Y038953D02*
X053564Y038553D01*
X054364Y038553D01*
X053964Y038953D01*
X055379Y039388D02*
X055379Y039788D01*
X054979Y040188D01*
X055779Y040188D01*
X055379Y039788D01*
X054174Y041593D02*
X054174Y041993D01*
X054174Y041593D02*
X053774Y041193D01*
X054574Y041193D01*
X054174Y041593D01*
X057669Y041593D02*
X057669Y041993D01*
X057669Y041593D02*
X057269Y041193D01*
X058069Y041193D01*
X057669Y041593D01*
X061219Y041908D02*
X062019Y041908D01*
X061619Y041508D02*
X061619Y042308D01*
X062219Y041908D02*
X063019Y041908D01*
X062619Y041508D02*
X062619Y042308D01*
X063219Y041908D02*
X064019Y041908D01*
X063619Y041508D02*
X063619Y042308D01*
X064219Y041908D02*
X065019Y041908D01*
X064619Y041508D02*
X064619Y042308D01*
X065219Y041908D02*
X066019Y041908D01*
X065619Y041508D02*
X065619Y042308D01*
X065219Y040908D02*
X066019Y040908D01*
X065619Y040508D02*
X065619Y041308D01*
X065019Y040908D02*
X064219Y040908D01*
X064619Y040508D02*
X064619Y041308D01*
X064019Y040908D02*
X063219Y040908D01*
X063619Y040508D02*
X063619Y041308D01*
X063019Y040908D02*
X062219Y040908D01*
X062619Y040508D02*
X062619Y041308D01*
X062019Y040908D02*
X061219Y040908D01*
X061619Y040508D02*
X061619Y041308D01*
X061269Y038128D02*
X062069Y038128D01*
X061669Y037728D02*
X061669Y038528D01*
X062269Y038128D02*
X063069Y038128D01*
X062669Y037728D02*
X062669Y038528D01*
X063269Y038128D02*
X064069Y038128D01*
X063669Y037728D02*
X063669Y038528D01*
X064269Y038128D02*
X065069Y038128D01*
X064669Y037728D02*
X064669Y038528D01*
X065269Y038128D02*
X066069Y038128D01*
X065669Y037728D02*
X065669Y038528D01*
X065269Y037128D02*
X066069Y037128D01*
X065669Y036728D02*
X065669Y037528D01*
X065069Y037128D02*
X064269Y037128D01*
X064669Y036728D02*
X064669Y037528D01*
X064069Y037128D02*
X063269Y037128D01*
X063669Y036728D02*
X063669Y037528D01*
X063069Y037128D02*
X062269Y037128D01*
X062669Y036728D02*
X062669Y037528D01*
X062069Y037128D02*
X061269Y037128D01*
X061669Y036728D02*
X061669Y037528D01*
X055959Y037378D02*
X055959Y037778D01*
X055959Y037378D02*
X055559Y036978D01*
X056359Y036978D01*
X055959Y037378D01*
X055959Y037283D02*
X055959Y036883D01*
X055559Y036483D01*
X056359Y036483D01*
X055959Y036883D01*
X054489Y035888D02*
X054489Y035488D01*
X054489Y035888D02*
X054089Y036288D01*
X054889Y036288D01*
X054489Y035888D01*
X055899Y035338D02*
X055899Y034938D01*
X055899Y035338D02*
X055499Y035738D01*
X056299Y035738D01*
X055899Y035338D01*
X054834Y034763D02*
X054834Y034363D01*
X054434Y033963D01*
X055234Y033963D01*
X054834Y034363D01*
X055509Y034238D02*
X055509Y033838D01*
X055109Y033438D01*
X055909Y033438D01*
X055509Y033838D01*
X056394Y031748D02*
X056394Y031348D01*
X055994Y030948D01*
X056794Y030948D01*
X056394Y031348D01*
X054834Y030848D02*
X054834Y030448D01*
X054434Y030048D01*
X055234Y030048D01*
X054834Y030448D01*
X057594Y030413D02*
X057594Y030013D01*
X057194Y029613D01*
X057994Y029613D01*
X057594Y030013D01*
X067259Y026668D02*
X068059Y026668D01*
X067659Y026268D02*
X067659Y027068D01*
X067259Y025668D02*
X068059Y025668D01*
X067659Y025268D02*
X067659Y026068D01*
X070269Y024888D02*
X071069Y024888D01*
X070669Y024488D01*
X070669Y025288D01*
X070269Y024888D01*
X072874Y026951D02*
X072874Y027351D01*
X073274Y026951D01*
X072874Y026551D01*
X072474Y026951D01*
X072874Y027351D01*
X072093Y028690D02*
X071293Y027890D01*
X072093Y027890D02*
X072093Y028690D01*
X072093Y027890D02*
X071293Y028690D01*
X071293Y027890D01*
X071108Y028690D02*
X070308Y027890D01*
X071108Y027890D02*
X071108Y028690D01*
X071108Y027890D02*
X070308Y028690D01*
X070308Y027890D01*
X071293Y028717D02*
X072093Y029517D01*
X072093Y028717D01*
X071293Y029517D01*
X071293Y028717D01*
X073189Y029628D02*
X073189Y030028D01*
X073589Y029628D01*
X073189Y029228D01*
X072789Y029628D01*
X073189Y030028D01*
X072093Y030540D02*
X071293Y029740D01*
X072093Y029740D02*
X072093Y030540D01*
X072093Y029740D02*
X071293Y030540D01*
X071293Y029740D01*
X071293Y030567D02*
X072093Y031367D01*
X072093Y030567D01*
X071293Y031367D01*
X071293Y030567D01*
X071128Y031367D02*
X070328Y030567D01*
X071128Y030567D02*
X071128Y031367D01*
X071128Y030567D02*
X070328Y031367D01*
X070328Y030567D01*
X069159Y031498D02*
X069159Y031898D01*
X069159Y031498D02*
X068759Y031098D01*
X069559Y031098D01*
X069159Y031498D01*
X068604Y031453D02*
X068604Y031853D01*
X068604Y031453D02*
X068204Y031053D01*
X069004Y031053D01*
X068604Y031453D01*
X067944Y031693D02*
X067944Y032093D01*
X067944Y031693D02*
X067544Y031293D01*
X068344Y031293D01*
X067944Y031693D01*
X070269Y034207D02*
X071069Y034207D01*
X070669Y034607D01*
X070669Y033807D01*
X070269Y034207D01*
X072874Y032686D02*
X072874Y032286D01*
X072874Y032686D02*
X073274Y032286D01*
X072874Y031886D01*
X072474Y032286D01*
X072874Y032686D01*
X071269Y036833D02*
X072069Y037633D01*
X072069Y036833D01*
X071269Y037633D01*
X071269Y036833D01*
X070269Y037283D02*
X071069Y038083D01*
X071069Y037283D01*
X070269Y038083D01*
X070269Y037283D01*
X070069Y037633D02*
X069269Y036833D01*
X070069Y036833D02*
X070069Y037633D01*
X070069Y036833D02*
X069269Y037633D01*
X069269Y036833D01*
X069269Y037733D02*
X070069Y038533D01*
X070069Y037733D01*
X069269Y038533D01*
X069269Y037733D01*
X070269Y038183D02*
X071069Y038983D01*
X071069Y038183D01*
X070269Y038983D01*
X070269Y038183D01*
X069269Y038633D02*
X070069Y039433D01*
X070069Y038633D01*
X069269Y039433D01*
X069269Y038633D01*
X070269Y039083D02*
X071069Y039883D01*
X071069Y039083D01*
X070269Y039883D01*
X070269Y039083D01*
X069269Y039533D02*
X070069Y040333D01*
X070069Y039533D01*
X069269Y040333D01*
X069269Y039533D01*
X070269Y039983D02*
X071069Y040783D01*
X071069Y039983D01*
X070269Y040783D01*
X070269Y039983D01*
X069269Y040433D02*
X070069Y041233D01*
X070069Y040433D01*
X069269Y041233D01*
X069269Y040433D01*
X070269Y040883D02*
X071069Y041683D01*
X071069Y040883D01*
X070269Y041683D01*
X070269Y040883D01*
X071269Y040433D02*
X072069Y041233D01*
X072069Y040433D01*
X071269Y041233D01*
X071269Y040433D01*
X072069Y040333D02*
X071269Y039533D01*
X072069Y039533D02*
X072069Y040333D01*
X072069Y039533D02*
X071269Y040333D01*
X071269Y039533D01*
X072069Y039433D02*
X071269Y038633D01*
X072069Y038633D02*
X072069Y039433D01*
X072069Y038633D02*
X071269Y039433D01*
X071269Y038633D01*
X072069Y038533D02*
X071269Y037733D01*
X072069Y037733D02*
X072069Y038533D01*
X072069Y037733D02*
X071269Y038533D01*
X071269Y037733D01*
X071069Y044050D02*
X070269Y044050D01*
X070669Y044450D02*
X071069Y044050D01*
X070669Y044450D02*
X070669Y043650D01*
X070269Y044050D01*
X067069Y045028D02*
X066269Y044228D01*
X067069Y044228D02*
X066269Y045028D01*
X066269Y044628D02*
X067069Y044628D01*
X050199Y042773D02*
X050199Y042373D01*
X049799Y041973D01*
X050599Y041973D01*
X050199Y042373D01*
X044069Y045028D02*
X043269Y044228D01*
X044069Y044228D02*
X043269Y045028D01*
X043269Y044628D02*
X044069Y044628D01*
X028839Y037778D02*
X028839Y037378D01*
X028439Y036978D01*
X029239Y036978D01*
X028839Y037378D01*
X027579Y037523D02*
X027579Y037123D01*
X027179Y036723D01*
X027979Y036723D01*
X027579Y037123D01*
X027159Y037378D02*
X027159Y037778D01*
X027159Y037378D02*
X026759Y036978D01*
X027559Y036978D01*
X027159Y037378D01*
X024564Y035798D02*
X024564Y035398D01*
X024164Y034998D01*
X024964Y034998D01*
X024564Y035398D01*
X023814Y035863D02*
X023814Y036263D01*
X023814Y035863D02*
X023414Y035463D01*
X024214Y035463D01*
X023814Y035863D01*
X022404Y035863D02*
X022404Y036263D01*
X022404Y035863D02*
X022004Y035463D01*
X022804Y035463D01*
X022404Y035863D01*
X022494Y035753D02*
X022494Y035353D01*
X022094Y034953D01*
X022894Y034953D01*
X022494Y035353D01*
X022464Y035273D02*
X022464Y034873D01*
X022064Y034473D01*
X022864Y034473D01*
X022464Y034873D01*
X020754Y036118D02*
X020754Y036518D01*
X020754Y036118D02*
X020354Y035718D01*
X021154Y035718D01*
X020754Y036118D01*
X021039Y036883D02*
X021039Y037283D01*
X021039Y036883D02*
X020639Y036483D01*
X021439Y036483D01*
X021039Y036883D01*
X020424Y036883D02*
X020424Y037283D01*
X020424Y036883D02*
X020024Y036483D01*
X020824Y036483D01*
X020424Y036883D01*
X019614Y035858D02*
X019614Y035458D01*
X019214Y035058D01*
X020014Y035058D01*
X019614Y035458D01*
X019239Y035603D02*
X019239Y035203D01*
X018839Y034803D01*
X019639Y034803D01*
X019239Y035203D01*
X018729Y035188D02*
X018729Y035588D01*
X018729Y035188D02*
X018329Y034788D01*
X019129Y034788D01*
X018729Y035188D01*
X018084Y035188D02*
X018084Y035588D01*
X018084Y035188D02*
X017684Y034788D01*
X018484Y034788D01*
X018084Y035188D01*
X017319Y035188D02*
X017319Y035588D01*
X017319Y035188D02*
X016919Y034788D01*
X017719Y034788D01*
X017319Y035188D01*
X018099Y036118D02*
X018099Y036518D01*
X018099Y036118D02*
X017699Y035718D01*
X018499Y035718D01*
X018099Y036118D01*
X018474Y036373D02*
X018474Y036773D01*
X018474Y036373D02*
X018074Y035973D01*
X018874Y035973D01*
X018474Y036373D01*
X018204Y036733D02*
X018204Y037133D01*
X018204Y036733D02*
X017804Y036333D01*
X018604Y036333D01*
X018204Y036733D01*
X019929Y035333D02*
X019929Y034933D01*
X019529Y034533D01*
X020329Y034533D01*
X019929Y034933D01*
X018969Y034508D02*
X018969Y034108D01*
X018569Y033708D01*
X019369Y033708D01*
X018969Y034108D01*
X018249Y034108D02*
X018249Y034508D01*
X018249Y034108D02*
X017849Y033708D01*
X018649Y033708D01*
X018249Y034108D01*
X017469Y034108D02*
X017469Y034508D01*
X017469Y034108D02*
X017069Y033708D01*
X017869Y033708D01*
X017469Y034108D01*
X017019Y034108D02*
X017019Y034508D01*
X017019Y034108D02*
X016619Y033708D01*
X017419Y033708D01*
X017019Y034108D01*
X017394Y033818D02*
X017394Y033418D01*
X016994Y033018D01*
X017794Y033018D01*
X017394Y033418D01*
X015714Y034108D02*
X015714Y034508D01*
X015714Y034108D02*
X015314Y033708D01*
X016114Y033708D01*
X015714Y034108D01*
X015489Y035203D02*
X015489Y035603D01*
X015489Y035203D02*
X015089Y034803D01*
X015889Y034803D01*
X015489Y035203D01*
X016329Y032483D02*
X016329Y032083D01*
X015929Y031683D01*
X016729Y031683D01*
X016329Y032083D01*
X017499Y032323D02*
X017499Y032723D01*
X017499Y032323D02*
X017099Y031923D01*
X017899Y031923D01*
X017499Y032323D01*
X017349Y029128D02*
X016549Y029128D01*
X016949Y028728D02*
X016949Y029528D01*
X014789Y029128D02*
X013989Y029128D01*
X014389Y028728D02*
X014389Y029528D01*
X019929Y026588D02*
X019929Y026188D01*
X019529Y025788D01*
X020329Y025788D01*
X019929Y026188D01*
X020274Y027973D02*
X020274Y028373D01*
X020274Y027973D02*
X019874Y027573D01*
X020674Y027573D01*
X020274Y027973D01*
X024879Y030253D02*
X024879Y030653D01*
X024879Y030253D02*
X024479Y029853D01*
X025279Y029853D01*
X024879Y030253D01*
X025749Y030868D02*
X025749Y031268D01*
X025749Y030868D02*
X025349Y030468D01*
X026149Y030468D01*
X025749Y030868D01*
X026079Y031423D02*
X026079Y031823D01*
X026079Y031423D02*
X025679Y031023D01*
X026479Y031023D01*
X026079Y031423D01*
X026109Y031873D02*
X026109Y032273D01*
X026109Y031873D02*
X025709Y031473D01*
X026509Y031473D01*
X026109Y031873D01*
X026019Y032458D02*
X026019Y032858D01*
X026019Y032458D02*
X025619Y032058D01*
X026419Y032058D01*
X026019Y032458D01*
X026394Y033493D02*
X026394Y033893D01*
X026394Y033493D02*
X025994Y033093D01*
X026794Y033093D01*
X026394Y033493D01*
X025644Y034363D02*
X025644Y034763D01*
X025644Y034363D02*
X025244Y033963D01*
X026044Y033963D01*
X025644Y034363D01*
X023829Y033488D02*
X023829Y033088D01*
X023429Y032688D01*
X024229Y032688D01*
X023829Y033088D01*
X024294Y032108D02*
X024294Y031708D01*
X023894Y031308D01*
X024694Y031308D01*
X024294Y031708D01*
X026139Y030518D02*
X026139Y030118D01*
X025739Y029718D01*
X026539Y029718D01*
X026139Y030118D01*
X027369Y031633D02*
X027369Y032033D01*
X027369Y031633D02*
X026969Y031233D01*
X027769Y031233D01*
X027369Y031633D01*
X029034Y031588D02*
X029034Y031988D01*
X029034Y031588D02*
X028634Y031188D01*
X029434Y031188D01*
X029034Y031588D01*
X030099Y031343D02*
X030099Y030943D01*
X029699Y030543D01*
X030499Y030543D01*
X030099Y030943D01*
X029589Y030758D02*
X029589Y030358D01*
X029189Y029958D01*
X029989Y029958D01*
X029589Y030358D01*
X028524Y030503D02*
X028524Y030103D01*
X028124Y029703D01*
X028924Y029703D01*
X028524Y030103D01*
X030099Y028613D02*
X030099Y028213D01*
X029699Y027813D01*
X030499Y027813D01*
X030099Y028213D01*
X026139Y028213D02*
X026139Y028613D01*
X026139Y028213D02*
X025739Y027813D01*
X026539Y027813D01*
X026139Y028213D01*
X026109Y027773D02*
X026109Y027373D01*
X025709Y026973D01*
X026509Y026973D01*
X026109Y027373D01*
X024309Y025418D02*
X024309Y025018D01*
X023909Y024618D01*
X024709Y024618D01*
X024309Y025018D01*
X022998Y024709D02*
X022198Y023909D01*
X022198Y024709D02*
X022998Y024709D01*
X022198Y024709D02*
X022998Y023909D01*
X022198Y023909D01*
X021644Y023796D02*
X021644Y024196D01*
X022044Y023796D01*
X021644Y023396D01*
X021244Y023796D01*
X021644Y024196D01*
X022779Y022463D02*
X022779Y022063D01*
X022379Y021663D01*
X023179Y021663D01*
X022779Y022063D01*
X022044Y022148D02*
X022044Y021748D01*
X021644Y021348D01*
X022444Y021348D01*
X022044Y021748D01*
X020859Y021653D02*
X020859Y021253D01*
X020459Y020853D01*
X021259Y020853D01*
X020859Y021253D01*
X021834Y021113D02*
X021834Y020713D01*
X021434Y020313D01*
X022234Y020313D01*
X021834Y020713D01*
X023799Y021238D02*
X023799Y021638D01*
X023799Y021238D02*
X023399Y020838D01*
X024199Y020838D01*
X023799Y021238D01*
X025449Y022453D02*
X025449Y022853D01*
X025449Y022453D02*
X025049Y022053D01*
X025849Y022053D01*
X025449Y022453D01*
X028109Y021118D02*
X028109Y020718D01*
X028109Y021118D02*
X028509Y021118D01*
X028509Y020318D01*
X027709Y020318D01*
X027709Y021118D01*
X028109Y021118D01*
X030384Y021268D02*
X030384Y021668D01*
X030384Y021268D02*
X029984Y020868D01*
X030784Y020868D01*
X030384Y021268D01*
X035229Y021268D02*
X035229Y021668D01*
X035229Y021268D02*
X034829Y020868D01*
X035629Y020868D01*
X035229Y021268D01*
X036009Y021118D02*
X036009Y020718D01*
X036009Y021118D02*
X036409Y021118D01*
X036409Y020318D01*
X035609Y020318D01*
X035609Y021118D01*
X036009Y021118D01*
X038079Y019808D02*
X038079Y019408D01*
X037679Y019008D01*
X038479Y019008D01*
X038079Y019408D01*
X039759Y018488D02*
X039759Y018088D01*
X039359Y017688D01*
X040159Y017688D01*
X039759Y018088D01*
X040269Y017628D02*
X041069Y017628D01*
X040669Y017228D02*
X040669Y018028D01*
X040269Y018628D02*
X041069Y018628D01*
X040669Y018228D02*
X040669Y019028D01*
X040269Y019628D02*
X041069Y019628D01*
X040669Y019228D02*
X040669Y020028D01*
X040449Y020143D02*
X040449Y020543D01*
X040449Y020143D02*
X040049Y019743D01*
X040849Y019743D01*
X040449Y020143D01*
X040269Y020628D02*
X041069Y020628D01*
X040669Y020228D02*
X040669Y021028D01*
X040269Y021628D02*
X041069Y021628D01*
X040669Y021228D02*
X040669Y022028D01*
X041269Y021628D02*
X042069Y021628D01*
X041669Y021228D02*
X041669Y022028D01*
X042129Y021913D02*
X042129Y022313D01*
X042129Y021913D02*
X041729Y021513D01*
X042529Y021513D01*
X042129Y021913D01*
X043194Y022138D02*
X043194Y022538D01*
X043194Y022138D02*
X042794Y021738D01*
X043594Y021738D01*
X043194Y022138D01*
X044769Y022168D02*
X044769Y022568D01*
X044769Y022168D02*
X044369Y021768D01*
X045169Y021768D01*
X044769Y022168D01*
X045249Y022178D02*
X045249Y021778D01*
X044849Y021378D01*
X045649Y021378D01*
X045249Y021778D01*
X045879Y021973D02*
X045879Y022373D01*
X045879Y021973D02*
X045479Y021573D01*
X046279Y021573D01*
X045879Y021973D01*
X045069Y022918D02*
X045069Y023318D01*
X045069Y022918D02*
X044669Y022518D01*
X045469Y022518D01*
X045069Y022918D01*
X044079Y023293D02*
X044079Y023693D01*
X044079Y023293D02*
X043679Y022893D01*
X044479Y022893D01*
X044079Y023293D01*
X044289Y023713D02*
X044289Y024113D01*
X044289Y023713D02*
X043889Y023313D01*
X044689Y023313D01*
X044289Y023713D01*
X044214Y024373D02*
X044214Y024773D01*
X044214Y024373D02*
X043814Y023973D01*
X044614Y023973D01*
X044214Y024373D01*
X042939Y024113D02*
X042939Y023713D01*
X042539Y023313D01*
X043339Y023313D01*
X042939Y023713D01*
X042069Y024628D02*
X041269Y024628D01*
X041669Y024228D02*
X041669Y025028D01*
X044139Y027088D02*
X044139Y027488D01*
X044139Y027088D02*
X043739Y026688D01*
X044539Y026688D01*
X044139Y027088D01*
X045324Y026468D02*
X045324Y026068D01*
X044924Y025668D01*
X045724Y025668D01*
X045324Y026068D01*
X045069Y026048D02*
X045069Y025648D01*
X044669Y025248D01*
X045469Y025248D01*
X045069Y025648D01*
X045579Y025603D02*
X045579Y026003D01*
X045579Y025603D02*
X045179Y025203D01*
X045979Y025203D01*
X045579Y025603D01*
X045849Y025553D02*
X045849Y025153D01*
X045449Y024753D01*
X046249Y024753D01*
X045849Y025153D01*
X046404Y025348D02*
X046404Y025748D01*
X046404Y025348D02*
X046004Y024948D01*
X046804Y024948D01*
X046404Y025348D01*
X046959Y025043D02*
X046959Y024643D01*
X046559Y024243D01*
X047359Y024243D01*
X046959Y024643D01*
X046959Y024503D02*
X046959Y024103D01*
X046559Y023703D01*
X047359Y023703D01*
X046959Y024103D01*
X046509Y024223D02*
X046509Y024623D01*
X046509Y024223D02*
X046109Y023823D01*
X046909Y023823D01*
X046509Y024223D01*
X046059Y024223D02*
X046059Y024623D01*
X046059Y024223D02*
X045659Y023823D01*
X046459Y023823D01*
X046059Y024223D01*
X048099Y024008D02*
X048099Y023608D01*
X047699Y023208D01*
X048499Y023208D01*
X048099Y023608D01*
X048039Y023558D02*
X048039Y023158D01*
X047639Y022758D01*
X048439Y022758D01*
X048039Y023158D01*
X046959Y023318D02*
X046959Y022918D01*
X046559Y022518D01*
X047359Y022518D01*
X046959Y022918D01*
X048039Y022733D02*
X048039Y022333D01*
X047639Y021933D01*
X048439Y021933D01*
X048039Y022333D01*
X048384Y022618D02*
X048384Y023018D01*
X048384Y022618D02*
X047984Y022218D01*
X048784Y022218D01*
X048384Y022618D01*
X049074Y022888D02*
X049074Y023288D01*
X049074Y022888D02*
X048674Y022488D01*
X049474Y022488D01*
X049074Y022888D01*
X049929Y023308D02*
X049929Y023708D01*
X049929Y023308D02*
X049529Y022908D01*
X050329Y022908D01*
X049929Y023308D01*
X050439Y023498D02*
X050439Y023098D01*
X050039Y022698D01*
X050839Y022698D01*
X050439Y023098D01*
X050334Y023033D02*
X050334Y022633D01*
X049934Y022233D01*
X050734Y022233D01*
X050334Y022633D01*
X050919Y022633D02*
X050919Y023033D01*
X050919Y022633D02*
X050519Y022233D01*
X051319Y022233D01*
X050919Y022633D01*
X052719Y022283D02*
X052719Y021883D01*
X052319Y021483D01*
X053119Y021483D01*
X052719Y021883D01*
X052719Y021773D02*
X052719Y021373D01*
X052319Y020973D01*
X053119Y020973D01*
X052719Y021373D01*
X051579Y021518D02*
X051579Y021118D01*
X051179Y020718D01*
X051979Y020718D01*
X051579Y021118D01*
X049599Y019388D02*
X049599Y018988D01*
X049199Y018588D01*
X049999Y018588D01*
X049599Y018988D01*
X049149Y018988D02*
X049149Y019388D01*
X049149Y018988D02*
X048749Y018588D01*
X049549Y018588D01*
X049149Y018988D01*
X048429Y018988D02*
X048429Y019388D01*
X048429Y018988D02*
X048029Y018588D01*
X048829Y018588D01*
X048429Y018988D01*
X048159Y019498D02*
X048159Y019898D01*
X048159Y019498D02*
X047759Y019098D01*
X048559Y019098D01*
X048159Y019498D01*
X048039Y019948D02*
X048039Y020348D01*
X048039Y019948D02*
X047639Y019548D01*
X048439Y019548D01*
X048039Y019948D01*
X048159Y020458D02*
X048159Y020858D01*
X048159Y020458D02*
X047759Y020058D01*
X048559Y020058D01*
X048159Y020458D01*
X046959Y020543D02*
X046959Y020143D01*
X046559Y019743D01*
X047359Y019743D01*
X046959Y020143D01*
X046959Y019778D02*
X046959Y019378D01*
X046559Y018978D01*
X047359Y018978D01*
X046959Y019378D01*
X046959Y019328D02*
X046959Y018928D01*
X046559Y018528D01*
X047359Y018528D01*
X046959Y018928D01*
X046449Y019058D02*
X046449Y018658D01*
X046049Y018258D01*
X046849Y018258D01*
X046449Y018658D01*
X045909Y018688D02*
X045909Y019088D01*
X045909Y018688D02*
X045509Y018288D01*
X046309Y018288D01*
X045909Y018688D01*
X044709Y018958D02*
X044709Y019358D01*
X044709Y018958D02*
X044309Y018558D01*
X045109Y018558D01*
X044709Y018958D01*
X044259Y019423D02*
X044259Y019823D01*
X044259Y019423D02*
X043859Y019023D01*
X044659Y019023D01*
X044259Y019423D01*
X044514Y020038D02*
X044514Y020438D01*
X044514Y020038D02*
X044114Y019638D01*
X044914Y019638D01*
X044514Y020038D01*
X045894Y020183D02*
X045894Y019783D01*
X045494Y019383D01*
X046294Y019383D01*
X045894Y019783D01*
X046959Y020953D02*
X046959Y021353D01*
X046959Y020953D02*
X046559Y020553D01*
X047359Y020553D01*
X046959Y020953D01*
X048954Y020213D02*
X048954Y019813D01*
X048554Y019413D01*
X049354Y019413D01*
X048954Y019813D01*
X047784Y019283D02*
X047784Y018883D01*
X047384Y018483D01*
X048184Y018483D01*
X047784Y018883D01*
X047754Y018428D02*
X047754Y018028D01*
X047354Y017628D01*
X048154Y017628D01*
X047754Y018028D01*
X049404Y017828D02*
X049404Y017428D01*
X049004Y017028D01*
X049804Y017028D01*
X049404Y017428D01*
X049824Y017378D02*
X049824Y016978D01*
X049424Y016578D01*
X050224Y016578D01*
X049824Y016978D01*
X049599Y016973D02*
X049599Y016573D01*
X049199Y016173D01*
X049999Y016173D01*
X049599Y016573D01*
X050229Y016748D02*
X050229Y016348D01*
X049829Y015948D01*
X050629Y015948D01*
X050229Y016348D01*
X050274Y016798D02*
X050274Y017198D01*
X050274Y016798D02*
X049874Y016398D01*
X050674Y016398D01*
X050274Y016798D01*
X050274Y017338D02*
X050274Y017738D01*
X050274Y017338D02*
X049874Y016938D01*
X050674Y016938D01*
X050274Y017338D01*
X049809Y017923D02*
X049809Y018323D01*
X049809Y017923D02*
X049409Y017523D01*
X050209Y017523D01*
X049809Y017923D01*
X048894Y017483D02*
X048894Y017083D01*
X048494Y016683D01*
X049294Y016683D01*
X048894Y017083D01*
X048894Y016748D02*
X048894Y016348D01*
X048494Y015948D01*
X049294Y015948D01*
X048894Y016348D01*
X048474Y016538D02*
X048474Y016138D01*
X048074Y015738D01*
X048874Y015738D01*
X048474Y016138D01*
X049854Y016163D02*
X049854Y015763D01*
X049454Y015363D01*
X050254Y015363D01*
X049854Y015763D01*
X050289Y015878D02*
X050289Y015478D01*
X049889Y015078D01*
X050689Y015078D01*
X050289Y015478D01*
X050604Y015793D02*
X050604Y016193D01*
X050604Y015793D02*
X050204Y015393D01*
X051004Y015393D01*
X050604Y015793D01*
X049599Y015548D02*
X049599Y015148D01*
X049199Y014748D01*
X049999Y014748D01*
X049599Y015148D01*
X049344Y014408D02*
X049344Y014008D01*
X048944Y013608D01*
X049744Y013608D01*
X049344Y014008D01*
X048684Y014263D02*
X048684Y014663D01*
X048684Y014263D02*
X048284Y013863D01*
X049084Y013863D01*
X048684Y014263D01*
X048769Y013528D02*
X049569Y012728D01*
X048769Y012728D02*
X049569Y013528D01*
X049769Y013528D02*
X050569Y012728D01*
X049769Y012728D02*
X050569Y013528D01*
X050769Y013528D02*
X051569Y012728D01*
X050769Y012728D02*
X051569Y013528D01*
X052074Y013708D02*
X052074Y014108D01*
X052074Y013708D02*
X051674Y013308D01*
X052474Y013308D01*
X052074Y013708D01*
X051769Y013528D02*
X052569Y012728D01*
X051769Y012728D02*
X052569Y013528D01*
X052769Y013528D02*
X053569Y012728D01*
X052769Y012728D02*
X053569Y013528D01*
X053769Y013528D02*
X054569Y012728D01*
X053769Y012728D02*
X054569Y013528D01*
X054769Y013528D02*
X055569Y012728D01*
X054769Y012728D02*
X055569Y013528D01*
X055769Y013528D02*
X056569Y012728D01*
X055769Y012728D02*
X056569Y013528D01*
X056889Y013798D02*
X056889Y014198D01*
X056889Y013798D02*
X056489Y013398D01*
X057289Y013398D01*
X056889Y013798D01*
X056769Y013528D02*
X057569Y012728D01*
X056769Y012728D02*
X057569Y013528D01*
X056004Y014188D02*
X056004Y014588D01*
X056004Y014188D02*
X055604Y013788D01*
X056404Y013788D01*
X056004Y014188D01*
X054969Y014143D02*
X054969Y014543D01*
X054969Y014143D02*
X054569Y013743D01*
X055369Y013743D01*
X054969Y014143D01*
X054969Y015028D02*
X054969Y015428D01*
X054969Y015028D02*
X054569Y014628D01*
X055369Y014628D01*
X054969Y015028D01*
X056379Y015898D02*
X056379Y016298D01*
X056379Y015898D02*
X055979Y015498D01*
X056779Y015498D01*
X056379Y015898D01*
X054969Y016303D02*
X054969Y016703D01*
X054969Y016303D02*
X054569Y015903D01*
X055369Y015903D01*
X054969Y016303D01*
X054144Y016348D02*
X054144Y016748D01*
X054144Y016348D02*
X053744Y015948D01*
X054544Y015948D01*
X054144Y016348D01*
X053634Y016963D02*
X053634Y017363D01*
X053634Y016963D02*
X053234Y016563D01*
X054034Y016563D01*
X053634Y016963D01*
X053394Y017473D02*
X053394Y017873D01*
X053394Y017473D02*
X052994Y017073D01*
X053794Y017073D01*
X053394Y017473D01*
X053844Y017593D02*
X053844Y017993D01*
X053844Y017593D02*
X053444Y017193D01*
X054244Y017193D01*
X053844Y017593D01*
X053544Y017923D02*
X053544Y018323D01*
X053544Y017923D02*
X053144Y017523D01*
X053944Y017523D01*
X053544Y017923D01*
X052374Y017923D02*
X052374Y018323D01*
X052374Y017923D02*
X051974Y017523D01*
X052774Y017523D01*
X052374Y017923D01*
X052404Y017633D02*
X052404Y017233D01*
X052004Y016833D01*
X052804Y016833D01*
X052404Y017233D01*
X052764Y017363D02*
X052764Y016963D01*
X052364Y016563D01*
X053164Y016563D01*
X052764Y016963D01*
X053289Y016838D02*
X053289Y016438D01*
X052889Y016038D01*
X053689Y016038D01*
X053289Y016438D01*
X052779Y016088D02*
X052779Y015688D01*
X052379Y015288D01*
X053179Y015288D01*
X052779Y015688D01*
X052149Y016348D02*
X052149Y016748D01*
X052149Y016348D02*
X051749Y015948D01*
X052549Y015948D01*
X052149Y016348D01*
X051354Y017923D02*
X051354Y018323D01*
X051354Y017923D02*
X050954Y017523D01*
X051754Y017523D01*
X051354Y017923D01*
X054819Y017728D02*
X054819Y018128D01*
X054819Y017728D02*
X054419Y017328D01*
X055219Y017328D01*
X054819Y017728D01*
X056139Y017648D02*
X056139Y017248D01*
X055739Y016848D01*
X056539Y016848D01*
X056139Y017248D01*
X057099Y018478D02*
X057099Y018878D01*
X057099Y018478D02*
X056699Y018078D01*
X057499Y018078D01*
X057099Y018478D01*
X058089Y018278D02*
X058089Y017878D01*
X057689Y017478D01*
X058489Y017478D01*
X058089Y017878D01*
X058749Y017878D02*
X058749Y018278D01*
X058749Y017878D02*
X058349Y017478D01*
X059149Y017478D01*
X058749Y017878D01*
X058089Y017513D02*
X058089Y017113D01*
X057689Y016713D01*
X058489Y016713D01*
X058089Y017113D01*
X058089Y016703D02*
X058089Y016303D01*
X057689Y015903D01*
X058489Y015903D01*
X058089Y016303D01*
X059514Y016453D02*
X059514Y016853D01*
X059514Y016453D02*
X059114Y016053D01*
X059914Y016053D01*
X059514Y016453D01*
X060324Y016918D02*
X060324Y017318D01*
X060324Y016918D02*
X059924Y016518D01*
X060724Y016518D01*
X060324Y016918D01*
X060834Y017218D02*
X060834Y017618D01*
X060834Y017218D02*
X060434Y016818D01*
X061234Y016818D01*
X060834Y017218D01*
X061389Y018133D02*
X061389Y018533D01*
X061389Y018133D02*
X060989Y017733D01*
X061789Y017733D01*
X061389Y018133D01*
X058899Y018748D02*
X058899Y019148D01*
X058899Y018748D02*
X058499Y018348D01*
X059299Y018348D01*
X058899Y018748D01*
X057429Y019168D02*
X057429Y019568D01*
X057429Y019168D02*
X057029Y018768D01*
X057829Y018768D01*
X057429Y019168D01*
X056919Y019423D02*
X056919Y019823D01*
X056919Y019423D02*
X056519Y019023D01*
X057319Y019023D01*
X056919Y019423D01*
X058989Y020888D02*
X059789Y020088D01*
X058989Y020088D02*
X059789Y020888D01*
X059789Y021088D02*
X058989Y021888D01*
X058989Y021088D02*
X059789Y021888D01*
X066504Y020783D02*
X066504Y020383D01*
X066104Y019983D01*
X066904Y019983D01*
X066504Y020383D01*
X068169Y019958D02*
X068169Y019558D01*
X067769Y019158D01*
X068569Y019158D01*
X068169Y019558D01*
X068859Y019378D02*
X068859Y019778D01*
X068859Y019378D02*
X068459Y018978D01*
X069259Y018978D01*
X068859Y019378D01*
X069769Y019288D02*
X070569Y018488D01*
X069769Y018488D02*
X070569Y019288D01*
X070769Y019828D02*
X071569Y019028D01*
X070769Y019028D02*
X071569Y019828D01*
X070569Y019578D02*
X069769Y020378D01*
X069769Y019578D02*
X070569Y020378D01*
X070769Y020918D02*
X071569Y020118D01*
X070769Y020118D02*
X071569Y020918D01*
X071569Y021208D02*
X070769Y022008D01*
X070769Y021208D02*
X071569Y022008D01*
X070569Y021748D02*
X069769Y022548D01*
X069769Y021748D02*
X070569Y022548D01*
X069769Y021458D02*
X070569Y020658D01*
X069769Y020658D02*
X070569Y021458D01*
X070769Y018748D02*
X071569Y017948D01*
X070769Y017948D02*
X071569Y018748D01*
X070569Y017398D02*
X069769Y018198D01*
X069769Y017398D02*
X070569Y018198D01*
X069399Y018013D02*
X069399Y018413D01*
X069399Y018013D02*
X068999Y017613D01*
X069799Y017613D01*
X069399Y018013D01*
X069769Y017118D02*
X070569Y016318D01*
X069769Y016318D02*
X070569Y017118D01*
X070769Y017658D02*
X071569Y016858D01*
X070769Y016858D02*
X071569Y017658D01*
X070769Y016568D02*
X071569Y015768D01*
X070769Y015768D02*
X071569Y016568D01*
X070569Y015228D02*
X069769Y016028D01*
X069769Y015228D02*
X070569Y016028D01*
X070769Y015488D02*
X071569Y014688D01*
X070769Y014688D02*
X071569Y015488D01*
X070569Y014138D02*
X069769Y014938D01*
X069769Y014138D02*
X070569Y014938D01*
X070769Y014398D02*
X071569Y013598D01*
X070769Y013598D02*
X071569Y014398D01*
X070569Y013058D02*
X069769Y013858D01*
X069769Y013058D02*
X070569Y013858D01*
X070769Y013308D02*
X071569Y012508D01*
X070769Y012508D02*
X071569Y013308D01*
X070569Y011968D02*
X069769Y012768D01*
X069769Y011968D02*
X070569Y012768D01*
X070769Y012228D02*
X071569Y011428D01*
X070769Y011428D02*
X071569Y012228D01*
X070569Y010878D02*
X069769Y011678D01*
X069769Y010878D02*
X070569Y011678D01*
X070769Y011138D02*
X071569Y010338D01*
X070769Y010338D02*
X071569Y011138D01*
X070569Y009798D02*
X069769Y010598D01*
X069769Y009798D02*
X070569Y010598D01*
X070769Y010048D02*
X071569Y009248D01*
X070769Y009248D02*
X071569Y010048D01*
X070569Y008708D02*
X069769Y009508D01*
X069769Y008708D02*
X070569Y009508D01*
X066234Y009533D02*
X066234Y009133D01*
X065834Y008733D01*
X066634Y008733D01*
X066234Y009133D01*
X066204Y010093D02*
X066204Y010493D01*
X066204Y010093D02*
X065804Y009693D01*
X066604Y009693D01*
X066204Y010093D01*
X066234Y011128D02*
X066234Y011528D01*
X066234Y011128D02*
X065834Y010728D01*
X066634Y010728D01*
X066234Y011128D01*
X066234Y012133D02*
X066234Y012533D01*
X066234Y012133D02*
X065834Y011733D01*
X066634Y011733D01*
X066234Y012133D01*
X066234Y013123D02*
X066234Y013523D01*
X066234Y013123D02*
X065834Y012723D01*
X066634Y012723D01*
X066234Y013123D01*
X066759Y013993D02*
X066759Y014393D01*
X066759Y013993D02*
X066359Y013593D01*
X067159Y013593D01*
X066759Y013993D01*
X065019Y015913D02*
X065019Y016313D01*
X065019Y015913D02*
X064619Y015513D01*
X065419Y015513D01*
X065019Y015913D01*
X063774Y016633D02*
X063774Y017033D01*
X063774Y016633D02*
X063374Y016233D01*
X064174Y016233D01*
X063774Y016633D01*
X062544Y016778D02*
X062544Y016378D01*
X062144Y015978D01*
X062944Y015978D01*
X062544Y016378D01*
X062184Y015833D02*
X062184Y015433D01*
X061784Y015033D01*
X062584Y015033D01*
X062184Y015433D01*
X061944Y015428D02*
X061944Y015028D01*
X061544Y014628D01*
X062344Y014628D01*
X061944Y015028D01*
X061134Y014723D02*
X061134Y014323D01*
X060734Y013923D01*
X061534Y013923D01*
X061134Y014323D01*
X061944Y014273D02*
X061944Y013873D01*
X061544Y013473D01*
X062344Y013473D01*
X061944Y013873D01*
X059559Y014323D02*
X059559Y014723D01*
X059559Y014323D02*
X059159Y013923D01*
X059959Y013923D01*
X059559Y014323D01*
X059004Y012953D02*
X059004Y012553D01*
X058604Y012153D01*
X059404Y012153D01*
X059004Y012553D01*
X059004Y012113D02*
X059004Y011713D01*
X058604Y011313D01*
X059404Y011313D01*
X059004Y011713D01*
X057569Y011728D02*
X056769Y012528D01*
X056769Y011728D02*
X057569Y012528D01*
X056569Y011728D02*
X055769Y012528D01*
X055769Y011728D02*
X056569Y012528D01*
X055569Y011728D02*
X054769Y012528D01*
X054769Y011728D02*
X055569Y012528D01*
X054729Y012233D02*
X054729Y011833D01*
X054329Y011433D01*
X055129Y011433D01*
X054729Y011833D01*
X054144Y012008D02*
X054144Y011608D01*
X053744Y011208D01*
X054544Y011208D01*
X054144Y011608D01*
X054429Y011573D02*
X054429Y011173D01*
X054029Y010773D01*
X054829Y010773D01*
X054429Y011173D01*
X054099Y011183D02*
X054099Y010783D01*
X053699Y010383D01*
X054499Y010383D01*
X054099Y010783D01*
X053569Y010628D02*
X052769Y010628D01*
X053169Y010228D02*
X053169Y011028D01*
X053569Y011728D02*
X052769Y012528D01*
X052769Y011728D02*
X053569Y012528D01*
X053769Y012528D02*
X054569Y011728D01*
X053769Y011728D02*
X054569Y012528D01*
X052569Y011728D02*
X051769Y012528D01*
X051769Y011728D02*
X052569Y012528D01*
X051569Y011728D02*
X050769Y012528D01*
X050769Y011728D02*
X051569Y012528D01*
X051339Y011963D02*
X051339Y011563D01*
X050939Y011163D01*
X051739Y011163D01*
X051339Y011563D01*
X050569Y011728D02*
X049769Y012528D01*
X049769Y011728D02*
X050569Y012528D01*
X049569Y011728D02*
X048769Y012528D01*
X048769Y011728D02*
X049569Y012528D01*
X048569Y011728D02*
X047769Y012528D01*
X047769Y011728D02*
X048569Y012528D01*
X048569Y012728D02*
X047769Y013528D01*
X047769Y012728D02*
X048569Y013528D01*
X047569Y012728D02*
X046769Y013528D01*
X046769Y012728D02*
X047569Y013528D01*
X046959Y013918D02*
X046959Y014318D01*
X046959Y013918D02*
X046559Y013518D01*
X047359Y013518D01*
X046959Y013918D01*
X046449Y014263D02*
X046449Y014663D01*
X046449Y014263D02*
X046049Y013863D01*
X046849Y013863D01*
X046449Y014263D01*
X045769Y013528D02*
X046569Y012728D01*
X045769Y012728D02*
X046569Y013528D01*
X045569Y012728D02*
X044769Y013528D01*
X044769Y012728D02*
X045569Y013528D01*
X043809Y013358D02*
X043809Y012958D01*
X043409Y012558D01*
X044209Y012558D01*
X043809Y012958D01*
X042789Y013468D02*
X042789Y013868D01*
X042789Y013468D02*
X042389Y013068D01*
X043189Y013068D01*
X042789Y013468D01*
X042279Y013318D02*
X042279Y013718D01*
X042279Y013318D02*
X041879Y012918D01*
X042679Y012918D01*
X042279Y013318D01*
X041724Y013123D02*
X041724Y013523D01*
X041724Y013123D02*
X041324Y012723D01*
X042124Y012723D01*
X041724Y013123D01*
X042069Y012628D02*
X041269Y012628D01*
X041669Y012228D02*
X041669Y013028D01*
X041269Y013628D02*
X042069Y013628D01*
X041669Y013228D02*
X041669Y014028D01*
X041269Y014628D02*
X042069Y014628D01*
X041669Y014228D02*
X041669Y015028D01*
X041274Y015238D02*
X041274Y015638D01*
X041274Y015238D02*
X040874Y014838D01*
X041674Y014838D01*
X041274Y015238D01*
X041269Y015628D02*
X042069Y015628D01*
X041669Y015228D02*
X041669Y016028D01*
X041269Y016628D02*
X042069Y016628D01*
X041669Y016228D02*
X041669Y017028D01*
X041069Y016628D02*
X040269Y016628D01*
X040669Y016228D02*
X040669Y017028D01*
X039654Y017473D02*
X039654Y017873D01*
X039654Y017473D02*
X039254Y017073D01*
X040054Y017073D01*
X039654Y017473D01*
X038994Y016643D02*
X038994Y016243D01*
X038594Y015843D01*
X039394Y015843D01*
X038994Y016243D01*
X039759Y016388D02*
X039759Y015988D01*
X039359Y015588D01*
X040159Y015588D01*
X039759Y015988D01*
X040269Y015628D02*
X041069Y015628D01*
X040669Y015228D02*
X040669Y016028D01*
X040269Y014628D02*
X041069Y014628D01*
X040669Y014228D02*
X040669Y015028D01*
X040269Y013628D02*
X041069Y013628D01*
X040669Y013228D02*
X040669Y014028D01*
X040269Y012628D02*
X041069Y012628D01*
X040669Y012228D02*
X040669Y013028D01*
X040269Y011628D02*
X041069Y011628D01*
X040669Y011228D02*
X040669Y012028D01*
X041269Y011628D02*
X042069Y011628D01*
X041669Y011228D02*
X041669Y012028D01*
X041269Y010628D02*
X042069Y010628D01*
X041669Y010228D02*
X041669Y011028D01*
X041069Y010628D02*
X040269Y010628D01*
X040669Y010228D02*
X040669Y011028D01*
X040269Y009628D02*
X041069Y009628D01*
X040669Y009228D02*
X040669Y010028D01*
X041269Y009628D02*
X042069Y009628D01*
X041669Y009228D02*
X041669Y010028D01*
X042939Y010073D02*
X042939Y009673D01*
X042539Y009273D01*
X043339Y009273D01*
X042939Y009673D01*
X043194Y009233D02*
X043194Y008833D01*
X042794Y008433D01*
X043594Y008433D01*
X043194Y008833D01*
X042384Y008783D02*
X042384Y008383D01*
X041984Y007983D01*
X042784Y007983D01*
X042384Y008383D01*
X042069Y008628D02*
X041269Y008628D01*
X041669Y008228D02*
X041669Y009028D01*
X041069Y008628D02*
X040269Y008628D01*
X040669Y008228D02*
X040669Y009028D01*
X040269Y007628D02*
X041069Y007628D01*
X040669Y007228D02*
X040669Y008028D01*
X041269Y007628D02*
X042069Y007628D01*
X041669Y007228D02*
X041669Y008028D01*
X041269Y006628D02*
X042069Y006628D01*
X041669Y006228D02*
X041669Y007028D01*
X041069Y006628D02*
X040269Y006628D01*
X040669Y006228D02*
X040669Y007028D01*
X040269Y005628D02*
X041069Y005628D01*
X040669Y005228D02*
X040669Y006028D01*
X041269Y005628D02*
X042069Y005628D01*
X041669Y005228D02*
X041669Y006028D01*
X043884Y007468D02*
X043884Y007868D01*
X043884Y007468D02*
X043484Y007068D01*
X044284Y007068D01*
X043884Y007468D01*
X044319Y007073D02*
X044319Y006673D01*
X043919Y006273D01*
X044719Y006273D01*
X044319Y006673D01*
X044769Y007528D02*
X045569Y006728D01*
X044769Y006728D02*
X045569Y007528D01*
X045769Y007528D02*
X046569Y006728D01*
X045769Y006728D02*
X046569Y007528D01*
X046769Y007528D02*
X047569Y006728D01*
X046769Y006728D02*
X047569Y007528D01*
X047769Y007528D02*
X048569Y006728D01*
X047769Y006728D02*
X048569Y007528D01*
X048609Y007828D02*
X048609Y008228D01*
X048609Y007828D02*
X048209Y007428D01*
X049009Y007428D01*
X048609Y007828D01*
X048569Y007728D02*
X047769Y008528D01*
X047769Y007728D02*
X048569Y008528D01*
X048769Y008528D02*
X049569Y007728D01*
X048769Y007728D02*
X049569Y008528D01*
X049749Y008668D02*
X049749Y009068D01*
X049749Y008668D02*
X049349Y008268D01*
X050149Y008268D01*
X049749Y008668D01*
X049769Y008528D02*
X050569Y007728D01*
X049769Y007728D02*
X050569Y008528D01*
X050769Y008528D02*
X051569Y007728D01*
X050769Y007728D02*
X051569Y008528D01*
X051769Y008528D02*
X052569Y007728D01*
X051769Y007728D02*
X052569Y008528D01*
X052769Y008528D02*
X053569Y007728D01*
X052769Y007728D02*
X053569Y008528D01*
X053769Y008528D02*
X054569Y007728D01*
X053769Y007728D02*
X054569Y008528D01*
X054429Y008983D02*
X054429Y009383D01*
X054429Y008983D02*
X054029Y008583D01*
X054829Y008583D01*
X054429Y008983D01*
X053569Y009628D02*
X052769Y009628D01*
X053169Y009228D02*
X053169Y010028D01*
X051354Y010438D02*
X051354Y010838D01*
X051354Y010438D02*
X050954Y010038D01*
X051754Y010038D01*
X051354Y010438D01*
X050859Y010573D02*
X050859Y010973D01*
X050859Y010573D02*
X050459Y010173D01*
X051259Y010173D01*
X050859Y010573D01*
X050349Y010328D02*
X050349Y009928D01*
X049949Y009528D01*
X050749Y009528D01*
X050349Y009928D01*
X047499Y010333D02*
X047499Y010733D01*
X047499Y010333D02*
X047099Y009933D01*
X047899Y009933D01*
X047499Y010333D01*
X045504Y011293D02*
X045504Y011693D01*
X045504Y011293D02*
X045104Y010893D01*
X045904Y010893D01*
X045504Y011293D01*
X044724Y011183D02*
X044724Y010783D01*
X044324Y010383D01*
X045124Y010383D01*
X044724Y010783D01*
X045569Y011728D02*
X044769Y012528D01*
X044769Y011728D02*
X045569Y012528D01*
X045769Y012528D02*
X046569Y011728D01*
X045769Y011728D02*
X046569Y012528D01*
X046769Y012528D02*
X047569Y011728D01*
X046769Y011728D02*
X047569Y012528D01*
X051369Y014773D02*
X051369Y015173D01*
X051369Y014773D02*
X050969Y014373D01*
X051769Y014373D01*
X051369Y014773D01*
X053154Y014698D02*
X053154Y015098D01*
X053154Y014698D02*
X052754Y014298D01*
X053554Y014298D01*
X053154Y014698D01*
X046704Y016573D02*
X046704Y016973D01*
X046704Y016573D02*
X046304Y016173D01*
X047104Y016173D01*
X046704Y016573D01*
X046419Y016628D02*
X046419Y016228D01*
X046019Y015828D01*
X046819Y015828D01*
X046419Y016228D01*
X045654Y016498D02*
X045654Y016898D01*
X045654Y016498D02*
X045254Y016098D01*
X046054Y016098D01*
X045654Y016498D01*
X044709Y015338D02*
X044709Y014938D01*
X044309Y014538D01*
X045109Y014538D01*
X044709Y014938D01*
X042939Y014588D02*
X042939Y014188D01*
X042539Y013788D01*
X043339Y013788D01*
X042939Y014188D01*
X038079Y013058D02*
X038079Y012658D01*
X037679Y012258D01*
X038479Y012258D01*
X038079Y012658D01*
X035229Y012688D02*
X035229Y013088D01*
X035229Y012688D02*
X034829Y012288D01*
X035629Y012288D01*
X035229Y012688D01*
X033279Y012688D02*
X033279Y013088D01*
X033279Y012688D02*
X032879Y012288D01*
X033679Y012288D01*
X033279Y012688D01*
X032559Y012688D02*
X032559Y013088D01*
X032559Y012688D02*
X032159Y012288D01*
X032959Y012288D01*
X032559Y012688D01*
X034809Y014713D02*
X034809Y015113D01*
X034809Y014713D02*
X034409Y014313D01*
X035209Y014313D01*
X034809Y014713D01*
X034809Y015223D02*
X034809Y015623D01*
X034809Y015223D02*
X034409Y014823D01*
X035209Y014823D01*
X034809Y015223D01*
X034824Y015688D02*
X034824Y016088D01*
X034824Y015688D02*
X034424Y015288D01*
X035224Y015288D01*
X034824Y015688D01*
X036099Y015973D02*
X036099Y016373D01*
X036099Y015973D02*
X035699Y015573D01*
X036499Y015573D01*
X036099Y015973D01*
X036414Y015608D02*
X036414Y015208D01*
X036014Y014808D01*
X036814Y014808D01*
X036414Y015208D01*
X036939Y017158D02*
X036939Y017558D01*
X036939Y017158D02*
X036539Y016758D01*
X037339Y016758D01*
X036939Y017158D01*
X035229Y017668D02*
X035229Y018068D01*
X035229Y017668D02*
X034829Y017268D01*
X035629Y017268D01*
X035229Y017668D01*
X033459Y017653D02*
X033459Y018053D01*
X033459Y017653D02*
X033059Y017253D01*
X033859Y017253D01*
X033459Y017653D01*
X028779Y013238D02*
X028779Y012838D01*
X028379Y012438D01*
X029179Y012438D01*
X028779Y012838D01*
X028109Y011368D02*
X028109Y010968D01*
X028109Y011368D02*
X028509Y011368D01*
X028509Y010568D01*
X027709Y010568D01*
X027709Y011368D01*
X028109Y011368D01*
X023289Y011198D02*
X023289Y010798D01*
X022889Y010398D01*
X023689Y010398D01*
X023289Y010798D01*
X022059Y011308D02*
X022059Y011708D01*
X022059Y011308D02*
X021659Y010908D01*
X022459Y010908D01*
X022059Y011308D01*
X022059Y011803D02*
X022059Y012203D01*
X022059Y011803D02*
X021659Y011403D01*
X022459Y011403D01*
X022059Y011803D01*
X022059Y012253D02*
X022059Y012653D01*
X022059Y012253D02*
X021659Y011853D01*
X022459Y011853D01*
X022059Y012253D01*
X022059Y012703D02*
X022059Y013103D01*
X022059Y012703D02*
X021659Y012303D01*
X022459Y012303D01*
X022059Y012703D01*
X022044Y013753D02*
X022044Y014153D01*
X022044Y013753D02*
X021644Y013353D01*
X022444Y013353D01*
X022044Y013753D01*
X022044Y014248D02*
X022044Y014648D01*
X022044Y014248D02*
X021644Y013848D01*
X022444Y013848D01*
X022044Y014248D01*
X023559Y014878D02*
X023559Y015278D01*
X023559Y014878D02*
X023159Y014478D01*
X023959Y014478D01*
X023559Y014878D01*
X023304Y015253D02*
X023304Y015653D01*
X023304Y015253D02*
X022904Y014853D01*
X023704Y014853D01*
X023304Y015253D01*
X023799Y016048D02*
X023799Y016448D01*
X023799Y016048D02*
X023399Y015648D01*
X024199Y015648D01*
X023799Y016048D01*
X022044Y016243D02*
X022044Y016643D01*
X022044Y016243D02*
X021644Y015843D01*
X022444Y015843D01*
X022044Y016243D01*
X022044Y016753D02*
X022044Y017153D01*
X022044Y016753D02*
X021644Y016353D01*
X022444Y016353D01*
X022044Y016753D01*
X022044Y017248D02*
X022044Y017648D01*
X022044Y017248D02*
X021644Y016848D01*
X022444Y016848D01*
X022044Y017248D01*
X022044Y018253D02*
X022044Y018653D01*
X022044Y018253D02*
X021644Y017853D01*
X022444Y017853D01*
X022044Y018253D01*
X021699Y018538D02*
X021699Y018938D01*
X021699Y018538D02*
X021299Y018138D01*
X022099Y018138D01*
X021699Y018538D01*
X019419Y020593D02*
X019419Y020993D01*
X019419Y020593D02*
X019019Y020193D01*
X019819Y020193D01*
X019419Y020593D01*
X019119Y021253D02*
X019119Y021653D01*
X019119Y021253D02*
X018719Y020853D01*
X019519Y020853D01*
X019119Y021253D01*
X018369Y021283D02*
X018369Y021683D01*
X018369Y021283D02*
X017969Y020883D01*
X018769Y020883D01*
X018369Y021283D01*
X021759Y015818D02*
X021759Y015418D01*
X021359Y015018D01*
X022159Y015018D01*
X021759Y015418D01*
X022044Y009893D02*
X022044Y009493D01*
X021644Y009093D01*
X022444Y009093D01*
X022044Y009493D01*
X021656Y007871D02*
X021656Y007471D01*
X021656Y007871D02*
X022056Y007471D01*
X021656Y007071D01*
X021256Y007471D01*
X021656Y007871D01*
X022198Y006543D02*
X022998Y007343D01*
X022198Y007343D01*
X022998Y006543D01*
X022198Y006543D01*
X031769Y004228D02*
X032569Y005028D01*
X032569Y004228D02*
X031769Y005028D01*
X031769Y004628D02*
X032569Y004628D01*
X036009Y010968D02*
X036009Y011368D01*
X036409Y011368D01*
X036409Y010568D01*
X035609Y010568D01*
X035609Y011368D01*
X036009Y011368D01*
X044769Y008528D02*
X045569Y007728D01*
X044769Y007728D02*
X045569Y008528D01*
X045769Y008528D02*
X046569Y007728D01*
X045769Y007728D02*
X046569Y008528D01*
X046769Y008528D02*
X047569Y007728D01*
X046769Y007728D02*
X047569Y008528D01*
X048769Y007528D02*
X049569Y006728D01*
X048769Y006728D02*
X049569Y007528D01*
X049769Y007528D02*
X050569Y006728D01*
X049769Y006728D02*
X050569Y007528D01*
X050769Y007528D02*
X051569Y006728D01*
X050769Y006728D02*
X051569Y007528D01*
X051769Y007528D02*
X052569Y006728D01*
X051769Y006728D02*
X052569Y007528D01*
X052769Y007528D02*
X053569Y006728D01*
X052769Y006728D02*
X053569Y007528D01*
X053769Y007528D02*
X054569Y006728D01*
X053769Y006728D02*
X054569Y007528D01*
X054769Y007528D02*
X055569Y006728D01*
X054769Y006728D02*
X055569Y007528D01*
X055769Y007528D02*
X056569Y006728D01*
X055769Y006728D02*
X056569Y007528D01*
X056769Y007528D02*
X057569Y006728D01*
X056769Y006728D02*
X057569Y007528D01*
X057569Y007728D02*
X056769Y008528D01*
X056769Y007728D02*
X057569Y008528D01*
X056569Y007728D02*
X055769Y008528D01*
X055769Y007728D02*
X056569Y008528D01*
X055569Y007728D02*
X054769Y008528D01*
X054769Y007728D02*
X055569Y008528D01*
X058044Y009628D02*
X058044Y010028D01*
X058044Y009628D02*
X057644Y009228D01*
X058444Y009228D01*
X058044Y009628D01*
X058374Y010183D02*
X058374Y010583D01*
X058374Y010183D02*
X057974Y009783D01*
X058774Y009783D01*
X058374Y010183D01*
X061179Y010543D02*
X061179Y010943D01*
X061179Y010543D02*
X060779Y010143D01*
X061579Y010143D01*
X061179Y010543D01*
X061914Y010163D02*
X061914Y009763D01*
X061514Y009363D01*
X062314Y009363D01*
X061914Y009763D01*
X062559Y009763D02*
X062559Y010163D01*
X062559Y009763D02*
X062159Y009363D01*
X062959Y009363D01*
X062559Y009763D01*
X063564Y009763D02*
X063564Y010163D01*
X063564Y009763D02*
X063164Y009363D01*
X063964Y009363D01*
X063564Y009763D01*
X063819Y010633D02*
X063819Y011033D01*
X063819Y010633D02*
X063419Y010233D01*
X064219Y010233D01*
X063819Y010633D01*
X063819Y011623D02*
X063819Y012023D01*
X063819Y011623D02*
X063419Y011223D01*
X064219Y011223D01*
X063819Y011623D01*
X062319Y009398D02*
X062319Y008998D01*
X061919Y008598D01*
X062719Y008598D01*
X062319Y008998D01*
X062069Y008528D02*
X061269Y007728D01*
X062069Y007728D02*
X061269Y008528D01*
X061669Y008528D02*
X061669Y007728D01*
X061069Y008528D02*
X060269Y007728D01*
X061069Y007728D02*
X060269Y008528D01*
X060669Y008528D02*
X060669Y007728D01*
X060169Y006128D02*
X060169Y005728D01*
X060169Y006128D02*
X059769Y006528D01*
X060569Y006528D01*
X060169Y006128D01*
X062169Y006128D02*
X062169Y005728D01*
X062169Y006128D02*
X061769Y006528D01*
X062569Y006528D01*
X062169Y006128D01*
X063819Y006628D02*
X063819Y007028D01*
X063819Y006628D02*
X063419Y006228D01*
X064219Y006228D01*
X063819Y006628D01*
X067769Y004228D02*
X068569Y005028D01*
X068569Y004228D02*
X067769Y005028D01*
X067769Y004628D02*
X068569Y004628D01*
X070269Y006368D02*
X071069Y006368D01*
X070669Y005968D01*
X070669Y006768D01*
X070269Y006368D01*
X067734Y017128D02*
X067734Y017528D01*
X067734Y017128D02*
X067334Y016728D01*
X068134Y016728D01*
X067734Y017128D01*
X050304Y006833D02*
X050304Y006433D01*
X049904Y006033D01*
X050704Y006033D01*
X050304Y006433D01*
X047889Y006238D02*
X047889Y006638D01*
X047889Y006238D02*
X047489Y005838D01*
X048289Y005838D01*
X047889Y006238D01*
X047364Y006128D02*
X047364Y005728D01*
X046964Y005328D01*
X047764Y005328D01*
X047364Y005728D01*
X046989Y005983D02*
X046989Y006383D01*
X046989Y005983D02*
X046589Y005583D01*
X047389Y005583D01*
X046989Y005983D01*
X044904Y006128D02*
X044904Y005728D01*
X044504Y005328D01*
X045304Y005328D01*
X044904Y005728D01*
X042069Y017628D02*
X041269Y017628D01*
X041669Y017228D02*
X041669Y018028D01*
X042024Y018193D02*
X042024Y018593D01*
X042024Y018193D02*
X041624Y017793D01*
X042424Y017793D01*
X042024Y018193D01*
X042069Y018628D02*
X041269Y018628D01*
X041669Y018228D02*
X041669Y019028D01*
X041269Y019628D02*
X042069Y019628D01*
X041669Y019228D02*
X041669Y020028D01*
X041269Y020628D02*
X042069Y020628D01*
X041669Y020228D02*
X041669Y021028D01*
X044514Y020863D02*
X044514Y021263D01*
X044514Y020863D02*
X044114Y020463D01*
X044914Y020463D01*
X044514Y020863D01*
X028524Y025273D02*
X028524Y025673D01*
X028524Y025273D02*
X028124Y024873D01*
X028924Y024873D01*
X028524Y025273D01*
X029964Y034873D02*
X029964Y035273D01*
X029964Y034873D02*
X029564Y034473D01*
X030364Y034473D01*
X029964Y034873D01*
X023754Y039628D02*
X023754Y040028D01*
X023754Y039628D02*
X023354Y039228D01*
X024154Y039228D01*
X023754Y039628D01*
X025389Y040483D02*
X025389Y040883D01*
X025389Y040483D02*
X024989Y040083D01*
X025789Y040083D01*
X025389Y040483D01*
X026649Y040373D02*
X026649Y039973D01*
X026249Y039573D01*
X027049Y039573D01*
X026649Y039973D01*
X023964Y040858D02*
X023964Y041258D01*
X023964Y040858D02*
X023564Y040458D01*
X024364Y040458D01*
X023964Y040858D01*
X020319Y039638D02*
X020319Y039238D01*
X019919Y038838D01*
X020719Y038838D01*
X020319Y039238D01*
X021789Y038528D02*
X021789Y038128D01*
X021389Y037728D01*
X022189Y037728D01*
X021789Y038128D01*
X015399Y038638D02*
X015399Y039038D01*
X015399Y038638D02*
X014999Y038238D01*
X015799Y038238D01*
X015399Y038638D01*
X045474Y035273D02*
X045474Y034873D01*
X045074Y034473D01*
X045874Y034473D01*
X045474Y034873D01*
X047184Y034958D02*
X047184Y034558D01*
X046784Y034158D01*
X047584Y034158D01*
X047184Y034558D01*
D12*
X043044Y044628D02*
X043047Y044685D01*
X043054Y044741D01*
X043067Y044797D01*
X043085Y044851D01*
X043108Y044903D01*
X043135Y044953D01*
X043167Y045000D01*
X043203Y045044D01*
X043242Y045085D01*
X043286Y045122D01*
X043332Y045154D01*
X043381Y045183D01*
X043433Y045207D01*
X043487Y045226D01*
X043542Y045240D01*
X043598Y045249D01*
X043655Y045253D01*
X043712Y045252D01*
X043768Y045245D01*
X043824Y045234D01*
X043878Y045217D01*
X043931Y045195D01*
X043981Y045169D01*
X044029Y045139D01*
X044074Y045104D01*
X044116Y045065D01*
X044154Y045022D01*
X044188Y044977D01*
X044217Y044928D01*
X044242Y044877D01*
X044263Y044824D01*
X044278Y044769D01*
X044288Y044713D01*
X044293Y044656D01*
X044293Y044600D01*
X044288Y044543D01*
X044278Y044487D01*
X044263Y044432D01*
X044242Y044379D01*
X044217Y044328D01*
X044188Y044279D01*
X044154Y044234D01*
X044116Y044191D01*
X044074Y044152D01*
X044029Y044117D01*
X043982Y044087D01*
X043931Y044061D01*
X043878Y044039D01*
X043824Y044022D01*
X043768Y044011D01*
X043712Y044004D01*
X043655Y044003D01*
X043598Y044007D01*
X043542Y044016D01*
X043487Y044030D01*
X043433Y044049D01*
X043381Y044073D01*
X043332Y044102D01*
X043286Y044134D01*
X043242Y044171D01*
X043203Y044212D01*
X043167Y044256D01*
X043135Y044303D01*
X043108Y044353D01*
X043085Y044405D01*
X043067Y044459D01*
X043054Y044515D01*
X043047Y044571D01*
X043044Y044628D01*
X066044Y044628D02*
X066047Y044685D01*
X066054Y044741D01*
X066067Y044797D01*
X066085Y044851D01*
X066108Y044903D01*
X066135Y044953D01*
X066167Y045000D01*
X066203Y045044D01*
X066242Y045085D01*
X066286Y045122D01*
X066332Y045154D01*
X066381Y045183D01*
X066433Y045207D01*
X066487Y045226D01*
X066542Y045240D01*
X066598Y045249D01*
X066655Y045253D01*
X066712Y045252D01*
X066768Y045245D01*
X066824Y045234D01*
X066878Y045217D01*
X066931Y045195D01*
X066981Y045169D01*
X067029Y045139D01*
X067074Y045104D01*
X067116Y045065D01*
X067154Y045022D01*
X067188Y044977D01*
X067217Y044928D01*
X067242Y044877D01*
X067263Y044824D01*
X067278Y044769D01*
X067288Y044713D01*
X067293Y044656D01*
X067293Y044600D01*
X067288Y044543D01*
X067278Y044487D01*
X067263Y044432D01*
X067242Y044379D01*
X067217Y044328D01*
X067188Y044279D01*
X067154Y044234D01*
X067116Y044191D01*
X067074Y044152D01*
X067029Y044117D01*
X066982Y044087D01*
X066931Y044061D01*
X066878Y044039D01*
X066824Y044022D01*
X066768Y044011D01*
X066712Y044004D01*
X066655Y044003D01*
X066598Y044007D01*
X066542Y044016D01*
X066487Y044030D01*
X066433Y044049D01*
X066381Y044073D01*
X066332Y044102D01*
X066286Y044134D01*
X066242Y044171D01*
X066203Y044212D01*
X066167Y044256D01*
X066135Y044303D01*
X066108Y044353D01*
X066085Y044405D01*
X066067Y044459D01*
X066054Y044515D01*
X066047Y044571D01*
X066044Y044628D01*
X070078Y044050D02*
X070080Y044104D01*
X070088Y044157D01*
X070100Y044209D01*
X070117Y044261D01*
X070138Y044310D01*
X070164Y044357D01*
X070194Y044402D01*
X070228Y044443D01*
X070266Y044482D01*
X070307Y044517D01*
X070351Y044548D01*
X070397Y044575D01*
X070446Y044597D01*
X070497Y044615D01*
X070549Y044629D01*
X070602Y044637D01*
X070656Y044641D01*
X070709Y044640D01*
X070763Y044634D01*
X070815Y044623D01*
X070867Y044607D01*
X070917Y044587D01*
X070964Y044562D01*
X071010Y044533D01*
X071052Y044500D01*
X071092Y044463D01*
X071127Y044423D01*
X071159Y044380D01*
X071187Y044334D01*
X071211Y044285D01*
X071230Y044235D01*
X071245Y044183D01*
X071254Y044130D01*
X071259Y044077D01*
X071259Y044023D01*
X071254Y043970D01*
X071245Y043917D01*
X071230Y043865D01*
X071211Y043815D01*
X071187Y043766D01*
X071159Y043720D01*
X071127Y043677D01*
X071092Y043637D01*
X071052Y043600D01*
X071010Y043567D01*
X070965Y043538D01*
X070917Y043513D01*
X070867Y043493D01*
X070815Y043477D01*
X070763Y043466D01*
X070709Y043460D01*
X070656Y043459D01*
X070602Y043463D01*
X070549Y043471D01*
X070497Y043485D01*
X070446Y043503D01*
X070397Y043525D01*
X070351Y043552D01*
X070307Y043583D01*
X070266Y043618D01*
X070228Y043657D01*
X070194Y043698D01*
X070164Y043743D01*
X070138Y043790D01*
X070117Y043839D01*
X070100Y043891D01*
X070088Y043943D01*
X070080Y043996D01*
X070078Y044050D01*
X070078Y034207D02*
X070080Y034261D01*
X070088Y034314D01*
X070100Y034366D01*
X070117Y034418D01*
X070138Y034467D01*
X070164Y034514D01*
X070194Y034559D01*
X070228Y034600D01*
X070266Y034639D01*
X070307Y034674D01*
X070351Y034705D01*
X070397Y034732D01*
X070446Y034754D01*
X070497Y034772D01*
X070549Y034786D01*
X070602Y034794D01*
X070656Y034798D01*
X070709Y034797D01*
X070763Y034791D01*
X070815Y034780D01*
X070867Y034764D01*
X070917Y034744D01*
X070964Y034719D01*
X071010Y034690D01*
X071052Y034657D01*
X071092Y034620D01*
X071127Y034580D01*
X071159Y034537D01*
X071187Y034491D01*
X071211Y034442D01*
X071230Y034392D01*
X071245Y034340D01*
X071254Y034287D01*
X071259Y034234D01*
X071259Y034180D01*
X071254Y034127D01*
X071245Y034074D01*
X071230Y034022D01*
X071211Y033972D01*
X071187Y033923D01*
X071159Y033877D01*
X071127Y033834D01*
X071092Y033794D01*
X071052Y033757D01*
X071010Y033724D01*
X070965Y033695D01*
X070917Y033670D01*
X070867Y033650D01*
X070815Y033634D01*
X070763Y033623D01*
X070709Y033617D01*
X070656Y033616D01*
X070602Y033620D01*
X070549Y033628D01*
X070497Y033642D01*
X070446Y033660D01*
X070397Y033682D01*
X070351Y033709D01*
X070307Y033740D01*
X070266Y033775D01*
X070228Y033814D01*
X070194Y033855D01*
X070164Y033900D01*
X070138Y033947D01*
X070117Y033996D01*
X070100Y034048D01*
X070088Y034100D01*
X070080Y034153D01*
X070078Y034207D01*
X070019Y024888D02*
X070022Y024947D01*
X070030Y025006D01*
X070043Y025063D01*
X070062Y025120D01*
X070085Y025174D01*
X070114Y025226D01*
X070147Y025275D01*
X070184Y025321D01*
X070225Y025363D01*
X070270Y025401D01*
X070319Y025436D01*
X070370Y025465D01*
X070424Y025490D01*
X070479Y025510D01*
X070537Y025524D01*
X070595Y025534D01*
X070654Y025538D01*
X070713Y025536D01*
X070772Y025530D01*
X070830Y025518D01*
X070887Y025500D01*
X070941Y025478D01*
X070994Y025451D01*
X071044Y025419D01*
X071091Y025383D01*
X071134Y025342D01*
X071173Y025298D01*
X071208Y025251D01*
X071239Y025200D01*
X071265Y025147D01*
X071286Y025092D01*
X071302Y025035D01*
X071313Y024977D01*
X071318Y024918D01*
X071318Y024858D01*
X071313Y024799D01*
X071302Y024741D01*
X071286Y024684D01*
X071265Y024629D01*
X071239Y024576D01*
X071208Y024525D01*
X071173Y024478D01*
X071134Y024434D01*
X071091Y024393D01*
X071044Y024357D01*
X070994Y024325D01*
X070941Y024298D01*
X070887Y024276D01*
X070830Y024258D01*
X070772Y024246D01*
X070713Y024240D01*
X070654Y024238D01*
X070595Y024242D01*
X070537Y024252D01*
X070479Y024266D01*
X070424Y024286D01*
X070370Y024311D01*
X070319Y024340D01*
X070270Y024375D01*
X070225Y024413D01*
X070184Y024455D01*
X070147Y024501D01*
X070114Y024550D01*
X070085Y024602D01*
X070062Y024656D01*
X070043Y024713D01*
X070030Y024770D01*
X070022Y024829D01*
X070019Y024888D01*
X070019Y006368D02*
X070022Y006427D01*
X070030Y006486D01*
X070043Y006543D01*
X070062Y006600D01*
X070085Y006654D01*
X070114Y006706D01*
X070147Y006755D01*
X070184Y006801D01*
X070225Y006843D01*
X070270Y006881D01*
X070319Y006916D01*
X070370Y006945D01*
X070424Y006970D01*
X070479Y006990D01*
X070537Y007004D01*
X070595Y007014D01*
X070654Y007018D01*
X070713Y007016D01*
X070772Y007010D01*
X070830Y006998D01*
X070887Y006980D01*
X070941Y006958D01*
X070994Y006931D01*
X071044Y006899D01*
X071091Y006863D01*
X071134Y006822D01*
X071173Y006778D01*
X071208Y006731D01*
X071239Y006680D01*
X071265Y006627D01*
X071286Y006572D01*
X071302Y006515D01*
X071313Y006457D01*
X071318Y006398D01*
X071318Y006338D01*
X071313Y006279D01*
X071302Y006221D01*
X071286Y006164D01*
X071265Y006109D01*
X071239Y006056D01*
X071208Y006005D01*
X071173Y005958D01*
X071134Y005914D01*
X071091Y005873D01*
X071044Y005837D01*
X070994Y005805D01*
X070941Y005778D01*
X070887Y005756D01*
X070830Y005738D01*
X070772Y005726D01*
X070713Y005720D01*
X070654Y005718D01*
X070595Y005722D01*
X070537Y005732D01*
X070479Y005746D01*
X070424Y005766D01*
X070370Y005791D01*
X070319Y005820D01*
X070270Y005855D01*
X070225Y005893D01*
X070184Y005935D01*
X070147Y005981D01*
X070114Y006030D01*
X070085Y006082D01*
X070062Y006136D01*
X070043Y006193D01*
X070030Y006250D01*
X070022Y006309D01*
X070019Y006368D01*
X067544Y004628D02*
X067547Y004685D01*
X067554Y004741D01*
X067567Y004797D01*
X067585Y004851D01*
X067608Y004903D01*
X067635Y004953D01*
X067667Y005000D01*
X067703Y005044D01*
X067742Y005085D01*
X067786Y005122D01*
X067832Y005154D01*
X067881Y005183D01*
X067933Y005207D01*
X067987Y005226D01*
X068042Y005240D01*
X068098Y005249D01*
X068155Y005253D01*
X068212Y005252D01*
X068268Y005245D01*
X068324Y005234D01*
X068378Y005217D01*
X068431Y005195D01*
X068481Y005169D01*
X068529Y005139D01*
X068574Y005104D01*
X068616Y005065D01*
X068654Y005022D01*
X068688Y004977D01*
X068717Y004928D01*
X068742Y004877D01*
X068763Y004824D01*
X068778Y004769D01*
X068788Y004713D01*
X068793Y004656D01*
X068793Y004600D01*
X068788Y004543D01*
X068778Y004487D01*
X068763Y004432D01*
X068742Y004379D01*
X068717Y004328D01*
X068688Y004279D01*
X068654Y004234D01*
X068616Y004191D01*
X068574Y004152D01*
X068529Y004117D01*
X068482Y004087D01*
X068431Y004061D01*
X068378Y004039D01*
X068324Y004022D01*
X068268Y004011D01*
X068212Y004004D01*
X068155Y004003D01*
X068098Y004007D01*
X068042Y004016D01*
X067987Y004030D01*
X067933Y004049D01*
X067881Y004073D01*
X067832Y004102D01*
X067786Y004134D01*
X067742Y004171D01*
X067703Y004212D01*
X067667Y004256D01*
X067635Y004303D01*
X067608Y004353D01*
X067585Y004405D01*
X067567Y004459D01*
X067554Y004515D01*
X067547Y004571D01*
X067544Y004628D01*
X031544Y004628D02*
X031547Y004685D01*
X031554Y004741D01*
X031567Y004797D01*
X031585Y004851D01*
X031608Y004903D01*
X031635Y004953D01*
X031667Y005000D01*
X031703Y005044D01*
X031742Y005085D01*
X031786Y005122D01*
X031832Y005154D01*
X031881Y005183D01*
X031933Y005207D01*
X031987Y005226D01*
X032042Y005240D01*
X032098Y005249D01*
X032155Y005253D01*
X032212Y005252D01*
X032268Y005245D01*
X032324Y005234D01*
X032378Y005217D01*
X032431Y005195D01*
X032481Y005169D01*
X032529Y005139D01*
X032574Y005104D01*
X032616Y005065D01*
X032654Y005022D01*
X032688Y004977D01*
X032717Y004928D01*
X032742Y004877D01*
X032763Y004824D01*
X032778Y004769D01*
X032788Y004713D01*
X032793Y004656D01*
X032793Y004600D01*
X032788Y004543D01*
X032778Y004487D01*
X032763Y004432D01*
X032742Y004379D01*
X032717Y004328D01*
X032688Y004279D01*
X032654Y004234D01*
X032616Y004191D01*
X032574Y004152D01*
X032529Y004117D01*
X032482Y004087D01*
X032431Y004061D01*
X032378Y004039D01*
X032324Y004022D01*
X032268Y004011D01*
X032212Y004004D01*
X032155Y004003D01*
X032098Y004007D01*
X032042Y004016D01*
X031987Y004030D01*
X031933Y004049D01*
X031881Y004073D01*
X031832Y004102D01*
X031786Y004134D01*
X031742Y004171D01*
X031703Y004212D01*
X031667Y004256D01*
X031635Y004303D01*
X031608Y004353D01*
X031585Y004405D01*
X031567Y004459D01*
X031554Y004515D01*
X031547Y004571D01*
X031544Y004628D01*
X022348Y006943D02*
X022350Y006975D01*
X022356Y007006D01*
X022366Y007037D01*
X022380Y007066D01*
X022398Y007093D01*
X022418Y007117D01*
X022442Y007138D01*
X022468Y007157D01*
X022497Y007172D01*
X022527Y007183D01*
X022558Y007190D01*
X022590Y007193D01*
X022622Y007192D01*
X022654Y007187D01*
X022684Y007178D01*
X022714Y007165D01*
X022741Y007148D01*
X022766Y007128D01*
X022788Y007105D01*
X022808Y007079D01*
X022823Y007051D01*
X022835Y007022D01*
X022843Y006991D01*
X022847Y006959D01*
X022847Y006927D01*
X022843Y006895D01*
X022835Y006864D01*
X022823Y006835D01*
X022808Y006807D01*
X022788Y006781D01*
X022766Y006758D01*
X022741Y006738D01*
X022714Y006721D01*
X022684Y006708D01*
X022654Y006699D01*
X022622Y006694D01*
X022590Y006693D01*
X022558Y006696D01*
X022527Y006703D01*
X022497Y006714D01*
X022468Y006729D01*
X022442Y006748D01*
X022418Y006769D01*
X022398Y006793D01*
X022380Y006820D01*
X022366Y006849D01*
X022356Y006880D01*
X022350Y006911D01*
X022348Y006943D01*
X021203Y007471D02*
X021205Y007514D01*
X021211Y007557D01*
X021221Y007599D01*
X021235Y007639D01*
X021253Y007679D01*
X021275Y007716D01*
X021300Y007751D01*
X021328Y007784D01*
X021359Y007813D01*
X021393Y007840D01*
X021429Y007863D01*
X021468Y007883D01*
X021508Y007899D01*
X021549Y007911D01*
X021592Y007919D01*
X021634Y007923D01*
X021678Y007923D01*
X021720Y007919D01*
X021763Y007911D01*
X021804Y007899D01*
X021844Y007883D01*
X021882Y007863D01*
X021919Y007840D01*
X021953Y007813D01*
X021984Y007784D01*
X022012Y007751D01*
X022037Y007716D01*
X022059Y007679D01*
X022077Y007639D01*
X022091Y007599D01*
X022101Y007557D01*
X022107Y007514D01*
X022109Y007471D01*
X022107Y007428D01*
X022101Y007385D01*
X022091Y007343D01*
X022077Y007303D01*
X022059Y007263D01*
X022037Y007226D01*
X022012Y007191D01*
X021984Y007158D01*
X021953Y007129D01*
X021919Y007102D01*
X021883Y007079D01*
X021844Y007059D01*
X021804Y007043D01*
X021763Y007031D01*
X021720Y007023D01*
X021678Y007019D01*
X021634Y007019D01*
X021592Y007023D01*
X021549Y007031D01*
X021508Y007043D01*
X021468Y007059D01*
X021430Y007079D01*
X021393Y007102D01*
X021359Y007129D01*
X021328Y007158D01*
X021300Y007191D01*
X021275Y007226D01*
X021253Y007263D01*
X021235Y007303D01*
X021221Y007343D01*
X021211Y007385D01*
X021205Y007428D01*
X021203Y007471D01*
X021191Y023796D02*
X021193Y023839D01*
X021199Y023882D01*
X021209Y023924D01*
X021223Y023964D01*
X021241Y024004D01*
X021263Y024041D01*
X021288Y024076D01*
X021316Y024109D01*
X021347Y024138D01*
X021381Y024165D01*
X021417Y024188D01*
X021456Y024208D01*
X021496Y024224D01*
X021537Y024236D01*
X021580Y024244D01*
X021622Y024248D01*
X021666Y024248D01*
X021708Y024244D01*
X021751Y024236D01*
X021792Y024224D01*
X021832Y024208D01*
X021870Y024188D01*
X021907Y024165D01*
X021941Y024138D01*
X021972Y024109D01*
X022000Y024076D01*
X022025Y024041D01*
X022047Y024004D01*
X022065Y023964D01*
X022079Y023924D01*
X022089Y023882D01*
X022095Y023839D01*
X022097Y023796D01*
X022095Y023753D01*
X022089Y023710D01*
X022079Y023668D01*
X022065Y023628D01*
X022047Y023588D01*
X022025Y023551D01*
X022000Y023516D01*
X021972Y023483D01*
X021941Y023454D01*
X021907Y023427D01*
X021871Y023404D01*
X021832Y023384D01*
X021792Y023368D01*
X021751Y023356D01*
X021708Y023348D01*
X021666Y023344D01*
X021622Y023344D01*
X021580Y023348D01*
X021537Y023356D01*
X021496Y023368D01*
X021456Y023384D01*
X021418Y023404D01*
X021381Y023427D01*
X021347Y023454D01*
X021316Y023483D01*
X021288Y023516D01*
X021263Y023551D01*
X021241Y023588D01*
X021223Y023628D01*
X021209Y023668D01*
X021199Y023710D01*
X021193Y023753D01*
X021191Y023796D01*
X022348Y024309D02*
X022350Y024341D01*
X022356Y024372D01*
X022366Y024403D01*
X022380Y024432D01*
X022398Y024459D01*
X022418Y024483D01*
X022442Y024504D01*
X022468Y024523D01*
X022497Y024538D01*
X022527Y024549D01*
X022558Y024556D01*
X022590Y024559D01*
X022622Y024558D01*
X022654Y024553D01*
X022684Y024544D01*
X022714Y024531D01*
X022741Y024514D01*
X022766Y024494D01*
X022788Y024471D01*
X022808Y024445D01*
X022823Y024417D01*
X022835Y024388D01*
X022843Y024357D01*
X022847Y024325D01*
X022847Y024293D01*
X022843Y024261D01*
X022835Y024230D01*
X022823Y024201D01*
X022808Y024173D01*
X022788Y024147D01*
X022766Y024124D01*
X022741Y024104D01*
X022714Y024087D01*
X022684Y024074D01*
X022654Y024065D01*
X022622Y024060D01*
X022590Y024059D01*
X022558Y024062D01*
X022527Y024069D01*
X022497Y024080D01*
X022468Y024095D01*
X022442Y024114D01*
X022418Y024135D01*
X022398Y024159D01*
X022380Y024186D01*
X022366Y024215D01*
X022356Y024246D01*
X022350Y024277D01*
X022348Y024309D01*
X014044Y044628D02*
X014047Y044685D01*
X014054Y044741D01*
X014067Y044797D01*
X014085Y044851D01*
X014108Y044903D01*
X014135Y044953D01*
X014167Y045000D01*
X014203Y045044D01*
X014242Y045085D01*
X014286Y045122D01*
X014332Y045154D01*
X014381Y045183D01*
X014433Y045207D01*
X014487Y045226D01*
X014542Y045240D01*
X014598Y045249D01*
X014655Y045253D01*
X014712Y045252D01*
X014768Y045245D01*
X014824Y045234D01*
X014878Y045217D01*
X014931Y045195D01*
X014981Y045169D01*
X015029Y045139D01*
X015074Y045104D01*
X015116Y045065D01*
X015154Y045022D01*
X015188Y044977D01*
X015217Y044928D01*
X015242Y044877D01*
X015263Y044824D01*
X015278Y044769D01*
X015288Y044713D01*
X015293Y044656D01*
X015293Y044600D01*
X015288Y044543D01*
X015278Y044487D01*
X015263Y044432D01*
X015242Y044379D01*
X015217Y044328D01*
X015188Y044279D01*
X015154Y044234D01*
X015116Y044191D01*
X015074Y044152D01*
X015029Y044117D01*
X014982Y044087D01*
X014931Y044061D01*
X014878Y044039D01*
X014824Y044022D01*
X014768Y044011D01*
X014712Y044004D01*
X014655Y044003D01*
X014598Y044007D01*
X014542Y044016D01*
X014487Y044030D01*
X014433Y044049D01*
X014381Y044073D01*
X014332Y044102D01*
X014286Y044134D01*
X014242Y044171D01*
X014203Y044212D01*
X014167Y044256D01*
X014135Y044303D01*
X014108Y044353D01*
X014085Y044405D01*
X014067Y044459D01*
X014054Y044515D01*
X014047Y044571D01*
X014044Y044628D01*
D13*
X009694Y029889D02*
X009480Y029889D01*
X009374Y029782D01*
X009156Y029782D02*
X009156Y029569D01*
X009049Y029462D01*
X008729Y029462D01*
X008943Y029462D02*
X009156Y029248D01*
X009374Y029248D02*
X009801Y029675D01*
X009801Y029782D01*
X009694Y029889D01*
X009156Y029782D02*
X009049Y029889D01*
X008729Y029889D01*
X008729Y029248D01*
X008298Y029569D02*
X008084Y029569D01*
X008084Y029889D02*
X008084Y029248D01*
X008084Y029889D02*
X008511Y029889D01*
X007010Y029675D02*
X007010Y029569D01*
X006903Y029569D01*
X006903Y029675D01*
X007010Y029675D01*
X007010Y029355D02*
X006903Y029355D01*
X006903Y029248D01*
X007010Y029248D01*
X007010Y029355D01*
X006579Y029248D02*
X006366Y029248D01*
X006473Y029248D02*
X006473Y029889D01*
X006366Y029889D01*
X006148Y029569D02*
X006148Y029248D01*
X005828Y029248D01*
X005721Y029355D01*
X005828Y029462D01*
X006148Y029462D01*
X006148Y029569D02*
X006041Y029675D01*
X005828Y029675D01*
X005291Y029675D02*
X005291Y029248D01*
X005184Y029248D02*
X005398Y029248D01*
X005291Y029675D02*
X005184Y029675D01*
X005291Y029889D02*
X005291Y029996D01*
X004860Y029675D02*
X004753Y029675D01*
X004540Y029462D01*
X004540Y029675D02*
X004540Y029248D01*
X004322Y029462D02*
X003895Y029462D01*
X003895Y029569D02*
X004002Y029675D01*
X004215Y029675D01*
X004322Y029569D01*
X004322Y029462D01*
X004215Y029248D02*
X004002Y029248D01*
X003895Y029355D01*
X003895Y029569D01*
X003572Y029675D02*
X003358Y029675D01*
X003465Y029782D02*
X003465Y029355D01*
X003572Y029248D01*
X003141Y029248D02*
X002820Y029248D01*
X002714Y029355D01*
X002820Y029462D01*
X003141Y029462D01*
X003141Y029569D02*
X003141Y029248D01*
X003141Y029569D02*
X003034Y029675D01*
X002820Y029675D01*
X002496Y029889D02*
X002496Y029248D01*
X002069Y029248D02*
X002069Y029889D01*
X002282Y029675D01*
X002496Y029889D01*
X003475Y028746D02*
X003475Y028639D01*
X003475Y028425D02*
X003475Y027998D01*
X003368Y027998D02*
X003582Y027998D01*
X003905Y028105D02*
X003905Y028319D01*
X004012Y028425D01*
X004332Y028425D01*
X004550Y028212D02*
X004870Y028425D01*
X005194Y028425D02*
X005514Y028425D01*
X005621Y028319D01*
X005621Y027998D01*
X005839Y028105D02*
X005839Y028319D01*
X005945Y028425D01*
X006159Y028425D01*
X006266Y028319D01*
X006266Y028212D01*
X005839Y028212D01*
X005839Y028105D02*
X005945Y027998D01*
X006159Y027998D01*
X006483Y027998D02*
X006803Y027998D01*
X006910Y028105D01*
X006803Y028212D01*
X006590Y028212D01*
X006483Y028319D01*
X006590Y028425D01*
X006910Y028425D01*
X007128Y028319D02*
X007234Y028425D01*
X007555Y028425D01*
X007772Y028425D02*
X007772Y028319D01*
X007879Y028319D01*
X007879Y028425D01*
X007772Y028425D01*
X007772Y028105D02*
X007772Y027998D01*
X007879Y027998D01*
X007879Y028105D01*
X007772Y028105D01*
X007555Y028105D02*
X007448Y028212D01*
X007234Y028212D01*
X007128Y028319D01*
X007128Y027998D02*
X007448Y027998D01*
X007555Y028105D01*
X007234Y027379D02*
X007234Y026738D01*
X007128Y026738D02*
X007341Y026738D01*
X008309Y026845D02*
X008416Y026738D01*
X008630Y026738D01*
X008736Y026845D01*
X008736Y027059D01*
X008630Y027165D01*
X008416Y027165D01*
X008309Y027059D01*
X008309Y026845D01*
X008954Y026738D02*
X009381Y026738D01*
X009381Y027165D02*
X008954Y026738D01*
X008954Y027165D02*
X009381Y027165D01*
X009274Y027998D02*
X009061Y027998D01*
X008954Y028105D01*
X009381Y028532D01*
X009381Y028105D01*
X009274Y027998D01*
X009598Y027998D02*
X009705Y027998D01*
X009705Y028105D01*
X009598Y028105D01*
X009598Y027998D01*
X010136Y028105D02*
X010563Y028532D01*
X010563Y028105D01*
X010456Y027998D01*
X010242Y027998D01*
X010136Y028105D01*
X010136Y028532D01*
X010242Y028639D01*
X010456Y028639D01*
X010563Y028532D01*
X010780Y028319D02*
X011100Y028319D01*
X011207Y028212D01*
X011207Y028105D01*
X011100Y027998D01*
X010887Y027998D01*
X010780Y028105D01*
X010780Y028319D01*
X010994Y028532D01*
X011207Y028639D01*
X011425Y028532D02*
X011531Y028639D01*
X011745Y028639D01*
X011852Y028532D01*
X011852Y028425D01*
X011425Y027998D01*
X011852Y027998D01*
X012069Y028425D02*
X012176Y028532D01*
X012176Y028746D01*
X012389Y028746D02*
X012389Y028532D01*
X012283Y028425D01*
X009801Y029248D02*
X009374Y029248D01*
X009274Y028639D02*
X009381Y028532D01*
X009274Y028639D02*
X009061Y028639D01*
X008954Y028532D01*
X008954Y028105D01*
X007234Y027379D02*
X007128Y027272D01*
X006053Y027165D02*
X006053Y027059D01*
X005946Y027059D01*
X005946Y027165D01*
X006053Y027165D01*
X006053Y026845D02*
X006053Y026738D01*
X005946Y026738D01*
X005946Y026845D01*
X006053Y026845D01*
X005622Y027165D02*
X005515Y027165D01*
X005302Y026952D01*
X005302Y027165D02*
X005302Y026738D01*
X005084Y026952D02*
X004657Y026952D01*
X004657Y027059D02*
X004764Y027165D01*
X004977Y027165D01*
X005084Y027059D01*
X005084Y026952D01*
X004977Y026738D02*
X004764Y026738D01*
X004657Y026845D01*
X004657Y027059D01*
X004440Y027059D02*
X004440Y026845D01*
X004333Y026738D01*
X004013Y026738D01*
X004013Y026525D02*
X004013Y027165D01*
X004333Y027165D01*
X004440Y027059D01*
X003795Y027059D02*
X003795Y026845D01*
X003688Y026738D01*
X003368Y026738D01*
X003368Y026525D02*
X003368Y027165D01*
X003688Y027165D01*
X003795Y027059D01*
X003151Y027059D02*
X003044Y027165D01*
X002830Y027165D01*
X002724Y027059D01*
X002724Y026845D01*
X002830Y026738D01*
X003044Y026738D01*
X003151Y026845D01*
X003151Y027059D01*
X002506Y027272D02*
X002399Y027379D01*
X002186Y027379D01*
X002079Y027272D01*
X002079Y026845D01*
X002186Y026738D01*
X002399Y026738D01*
X002506Y026845D01*
X002292Y027998D02*
X002292Y028639D01*
X002079Y028639D02*
X002506Y028639D01*
X002724Y028639D02*
X002724Y027998D01*
X002724Y028319D02*
X002830Y028425D01*
X003044Y028425D01*
X003151Y028319D01*
X003151Y027998D01*
X003368Y028425D02*
X003475Y028425D01*
X003905Y028105D02*
X004012Y027998D01*
X004332Y027998D01*
X004550Y027998D02*
X004550Y028639D01*
X004550Y028212D02*
X004870Y027998D01*
X005194Y027998D02*
X005194Y028425D01*
M02*
