G75*
G70*
%OFA0B0*%
%FSAX24Y24*%
%IPPOS*%
%LPD*%
%AMOC8*
5,1,8,0,0,1.08239X$1,22.5*
*%
%ADD10C,0.0150*%
%ADD11C,0.0100*%
%ADD12C,0.0840*%
%ADD13C,0.0600*%
%ADD14C,0.0560*%
%ADD15C,0.0554*%
%ADD16C,0.1378*%
%ADD17C,0.0850*%
%ADD18C,0.0520*%
%ADD19C,0.0380*%
%ADD20C,0.0240*%
%ADD21C,0.0290*%
%ADD22C,0.0070*%
%ADD23C,0.0300*%
D10*
X009942Y038829D02*
X009942Y038604D01*
X009041Y037703D01*
X009942Y037703D01*
X009942Y038829D02*
X009716Y039054D01*
X009266Y039054D01*
X009041Y038829D01*
X006954Y038604D02*
X006729Y038604D01*
X006279Y038154D01*
X006279Y038604D02*
X006279Y037703D01*
X005798Y038154D02*
X004897Y038154D01*
X004897Y037929D02*
X004897Y038379D01*
X005123Y038604D01*
X005573Y038604D01*
X005798Y038379D01*
X005798Y038154D01*
X005573Y037703D02*
X005123Y037703D01*
X004897Y037929D01*
X004417Y037703D02*
X003741Y037703D01*
X003516Y037929D01*
X003516Y038604D01*
X003036Y038379D02*
X003036Y037703D01*
X002360Y037703D01*
X002135Y037929D01*
X002360Y038154D01*
X003036Y038154D01*
X003036Y038379D02*
X002811Y038604D01*
X002360Y038604D01*
X001655Y037703D02*
X000754Y037703D01*
X000754Y039054D01*
X003967Y037253D02*
X004192Y037253D01*
X004417Y037478D01*
X004417Y038604D01*
D11*
X015959Y013148D02*
X016226Y013148D01*
X016419Y013148D02*
X016686Y013415D01*
X016686Y013482D01*
X016619Y013549D01*
X016486Y013549D01*
X016419Y013482D01*
X016419Y013148D02*
X016686Y013148D01*
X015959Y013148D02*
X015959Y013549D01*
X041559Y031903D02*
X041669Y031903D01*
X048909Y034093D02*
X048909Y034208D01*
X051864Y026533D02*
X052614Y026533D01*
X053214Y025933D01*
X053214Y025618D01*
X053274Y025483D01*
X051864Y026533D02*
X051654Y026323D01*
X051504Y026323D01*
X051369Y026263D01*
X054309Y021073D02*
X055074Y020308D01*
X056664Y020308D01*
X057699Y019273D01*
X057699Y016498D01*
X055074Y013873D01*
X054864Y013873D01*
X054699Y014038D01*
X054699Y014143D01*
X052464Y016378D01*
X052464Y017098D01*
X052404Y017233D01*
X050019Y018823D02*
X050019Y019288D01*
X050544Y019813D01*
X050019Y018823D02*
X049809Y018613D01*
X049809Y017923D01*
D12*
X036009Y020718D03*
X028109Y020718D03*
X028109Y010968D03*
X036009Y010968D03*
D13*
X045169Y012128D03*
X046169Y012128D03*
X047169Y012128D03*
X048169Y012128D03*
X049169Y012128D03*
X050169Y012128D03*
X051169Y012128D03*
X052169Y012128D03*
X053169Y012128D03*
X054169Y012128D03*
X055169Y012128D03*
X056169Y012128D03*
X057169Y012128D03*
X057169Y013128D03*
X056169Y013128D03*
X055169Y013128D03*
X054169Y013128D03*
X053169Y013128D03*
X052169Y013128D03*
X051169Y013128D03*
X050169Y013128D03*
X049169Y013128D03*
X048169Y013128D03*
X047169Y013128D03*
X046169Y013128D03*
X045169Y013128D03*
X045169Y008128D03*
X046169Y008128D03*
X047169Y008128D03*
X048169Y008128D03*
X048169Y007128D03*
X047169Y007128D03*
X046169Y007128D03*
X045169Y007128D03*
X049169Y007128D03*
X050169Y007128D03*
X051169Y007128D03*
X052169Y007128D03*
X053169Y007128D03*
X054169Y007128D03*
X055169Y007128D03*
X056169Y007128D03*
X057169Y007128D03*
X057169Y008128D03*
X056169Y008128D03*
X055169Y008128D03*
X054169Y008128D03*
X053169Y008128D03*
X052169Y008128D03*
X051169Y008128D03*
X050169Y008128D03*
X049169Y008128D03*
X059389Y019488D03*
X060389Y019488D03*
X060389Y020488D03*
X059389Y020488D03*
X059389Y021488D03*
X060389Y021488D03*
X070169Y021058D03*
X071169Y020518D03*
X070169Y019978D03*
X071169Y019428D03*
X070169Y018888D03*
X071169Y018348D03*
X070169Y017798D03*
X071169Y017258D03*
X070169Y016718D03*
X071169Y016168D03*
X070169Y015628D03*
X071169Y015088D03*
X070169Y014538D03*
X071169Y013998D03*
X070169Y013458D03*
X071169Y012908D03*
X070169Y012368D03*
X071169Y011828D03*
X070169Y011278D03*
X071169Y010738D03*
X070169Y010198D03*
X071169Y009648D03*
X070169Y009108D03*
X071169Y021608D03*
X070169Y022148D03*
D14*
X067659Y025668D03*
X067659Y026668D03*
X070708Y028290D03*
X071693Y028290D03*
X071693Y029117D03*
X071693Y030140D03*
X071693Y030967D03*
X070728Y030967D03*
X065619Y033358D03*
X064619Y033358D03*
X063619Y033358D03*
X062619Y033358D03*
X061619Y033358D03*
X061619Y034358D03*
X062619Y034358D03*
X063619Y034358D03*
X064619Y034358D03*
X065619Y034358D03*
X065669Y037128D03*
X064669Y037128D03*
X063669Y037128D03*
X062669Y037128D03*
X061669Y037128D03*
X061669Y038128D03*
X062669Y038128D03*
X063669Y038128D03*
X064669Y038128D03*
X065669Y038128D03*
X065619Y040908D03*
X064619Y040908D03*
X063619Y040908D03*
X062619Y040908D03*
X061619Y040908D03*
X061619Y041908D03*
X062619Y041908D03*
X063619Y041908D03*
X064619Y041908D03*
X065619Y041908D03*
X057949Y028168D03*
X057949Y027168D03*
X057949Y026168D03*
X041669Y026628D03*
X040669Y026628D03*
X040669Y025628D03*
X041669Y025628D03*
X041669Y024628D03*
X040669Y024628D03*
X040669Y023628D03*
X041669Y023628D03*
X041669Y022628D03*
X040669Y022628D03*
X040669Y021628D03*
X041669Y021628D03*
X041669Y020628D03*
X040669Y020628D03*
X040669Y019628D03*
X041669Y019628D03*
X041669Y018628D03*
X040669Y018628D03*
X040669Y017628D03*
X041669Y017628D03*
X041669Y016628D03*
X040669Y016628D03*
X040669Y015628D03*
X041669Y015628D03*
X041669Y014628D03*
X040669Y014628D03*
X040669Y013628D03*
X041669Y013628D03*
X041669Y012628D03*
X040669Y012628D03*
X040669Y011628D03*
X041669Y011628D03*
X041669Y010628D03*
X040669Y010628D03*
X040669Y009628D03*
X041669Y009628D03*
X041669Y008628D03*
X040669Y008628D03*
X040669Y007628D03*
X041669Y007628D03*
X041669Y006628D03*
X040669Y006628D03*
X040669Y005628D03*
X041669Y005628D03*
X053169Y009628D03*
X053169Y010628D03*
X041669Y027628D03*
X040669Y027628D03*
X040669Y028628D03*
X041669Y028628D03*
X041669Y029628D03*
X040669Y029628D03*
D15*
X069669Y037233D03*
X070669Y037683D03*
X069669Y038133D03*
X070669Y038583D03*
X069669Y039033D03*
X070669Y039483D03*
X069669Y039933D03*
X070669Y040383D03*
X069669Y040833D03*
X070669Y041283D03*
X071669Y040833D03*
X071669Y039933D03*
X071669Y039033D03*
X071669Y038133D03*
X071669Y037233D03*
D16*
X072874Y032286D03*
X073189Y029628D03*
X072874Y026951D03*
D17*
X016949Y029128D03*
X014389Y029128D03*
D18*
X060669Y008128D03*
X061669Y008128D03*
D19*
X062169Y006128D03*
X060169Y006128D03*
X054159Y025108D03*
X056089Y027728D03*
X055899Y035338D03*
X054489Y035888D03*
X059679Y035278D03*
X055379Y039788D03*
D20*
X055379Y036598D01*
X054479Y035878D01*
X054489Y035888D01*
X055899Y035338D02*
X052279Y035338D01*
X051159Y034208D01*
X048909Y034208D01*
X042099Y034208D01*
X041669Y033778D01*
X041669Y031903D01*
X041669Y029628D01*
D21*
X042699Y028723D03*
X043449Y029728D03*
X044964Y030238D03*
X044814Y030823D03*
X043014Y031723D03*
X042954Y032233D03*
X042579Y032488D03*
X042129Y032443D03*
X041559Y031903D03*
X043464Y032563D03*
X044679Y032983D03*
X045894Y032998D03*
X047334Y032398D03*
X047124Y031438D03*
X047214Y030988D03*
X047589Y030733D03*
X048624Y031348D03*
X049194Y030838D03*
X049284Y031813D03*
X048624Y032653D03*
X049434Y033088D03*
X048909Y034093D03*
X048309Y035068D03*
X047184Y034558D03*
X045474Y034873D03*
X046809Y036358D03*
X047589Y037138D03*
X047844Y037528D03*
X052164Y037708D03*
X052464Y037378D03*
X052464Y036883D03*
X051864Y035518D03*
X052059Y034618D03*
X052569Y034618D03*
X054834Y034363D03*
X055509Y033838D03*
X058614Y034363D03*
X059319Y033118D03*
X061254Y032203D03*
X061914Y032353D03*
X062424Y031243D03*
X063309Y031498D03*
X064059Y031138D03*
X063714Y030643D03*
X065019Y030118D03*
X066144Y030508D03*
X065004Y031693D03*
X067944Y031693D03*
X068604Y031453D03*
X069159Y031498D03*
X064959Y029293D03*
X065064Y028543D03*
X063504Y029503D03*
X062424Y028528D03*
X062169Y028048D03*
X061449Y028783D03*
X061914Y029293D03*
X060954Y030538D03*
X059769Y029503D03*
X059319Y029413D03*
X059004Y029098D03*
X059214Y028588D03*
X059664Y028588D03*
X058734Y028108D03*
X059109Y027718D03*
X059739Y027283D03*
X060999Y026353D03*
X063759Y027043D03*
X060369Y024613D03*
X059739Y023788D03*
X059199Y023608D03*
X058749Y023518D03*
X057984Y023398D03*
X057774Y022738D03*
X058089Y022168D03*
X057939Y021598D03*
X057489Y021688D03*
X057594Y021193D03*
X057579Y020488D03*
X056664Y020938D03*
X056394Y020578D03*
X055299Y020758D03*
X055299Y021208D03*
X056544Y021523D03*
X055299Y022138D03*
X054939Y022408D03*
X054309Y022723D03*
X053784Y022828D03*
X053634Y022378D03*
X053349Y022033D03*
X053634Y021628D03*
X054309Y021073D03*
X053784Y020458D03*
X053349Y020653D03*
X052974Y020908D03*
X052914Y020458D03*
X052464Y020458D03*
X052014Y020458D03*
X051324Y020458D03*
X050619Y020458D03*
X050109Y020458D03*
X050544Y019813D03*
X050469Y018988D03*
X050919Y019018D03*
X051369Y018988D03*
X052284Y019048D03*
X052944Y018988D03*
X053499Y019048D03*
X054519Y018988D03*
X054969Y018988D03*
X055299Y019558D03*
X054534Y019813D03*
X056919Y019423D03*
X057429Y019168D03*
X057099Y018478D03*
X058089Y017878D03*
X058749Y017878D03*
X058089Y017113D03*
X058089Y016303D03*
X059514Y016453D03*
X060324Y016918D03*
X060834Y017218D03*
X061389Y018133D03*
X058899Y018748D03*
X058899Y019738D03*
X058749Y020203D03*
X060879Y021238D03*
X059544Y022588D03*
X060204Y023248D03*
X056814Y022738D03*
X055299Y023908D03*
X054534Y023518D03*
X053784Y023878D03*
X053604Y024763D03*
X053154Y024763D03*
X052704Y024748D03*
X052254Y024763D03*
X053274Y025483D03*
X053544Y026263D03*
X053994Y026263D03*
X054444Y026263D03*
X055299Y025753D03*
X056244Y026338D03*
X056619Y026083D03*
X056379Y025033D03*
X055299Y024868D03*
X052524Y026248D03*
X051969Y026263D03*
X051369Y026263D03*
X050199Y026263D03*
X049434Y026263D03*
X048624Y026263D03*
X048174Y026263D03*
X047949Y026758D03*
X047499Y026578D03*
X047049Y026578D03*
X046959Y026068D03*
X048039Y025663D03*
X048039Y025198D03*
X048099Y024673D03*
X048924Y025378D03*
X049899Y024763D03*
X049929Y023308D03*
X050439Y023098D03*
X050334Y022633D03*
X050919Y022633D03*
X049074Y022888D03*
X048384Y022618D03*
X048039Y022333D03*
X046959Y022918D03*
X048039Y023158D03*
X048099Y023608D03*
X046959Y024103D03*
X046509Y024223D03*
X046059Y024223D03*
X046959Y024643D03*
X046404Y025348D03*
X045849Y025153D03*
X045579Y025603D03*
X045069Y025648D03*
X045324Y026068D03*
X044139Y027088D03*
X042699Y027628D03*
X040059Y025468D03*
X038949Y025723D03*
X036804Y026353D03*
X037014Y027568D03*
X037014Y028558D03*
X037014Y029068D03*
X037014Y029563D03*
X038439Y030493D03*
X038214Y030958D03*
X039099Y030718D03*
X038844Y029848D03*
X040059Y029848D03*
X037014Y030763D03*
X036984Y031213D03*
X034494Y031468D03*
X032964Y032653D03*
X031344Y030868D03*
X032679Y030298D03*
X031629Y029968D03*
X031389Y029578D03*
X031494Y029113D03*
X032169Y028213D03*
X032454Y027853D03*
X033024Y028468D03*
X033084Y028978D03*
X032694Y029563D03*
X034494Y029023D03*
X034494Y027478D03*
X033024Y027223D03*
X034494Y025468D03*
X035589Y024373D03*
X038589Y022498D03*
X041319Y022978D03*
X042129Y021913D03*
X043194Y022138D03*
X044769Y022168D03*
X045249Y021778D03*
X045879Y021973D03*
X045069Y022918D03*
X044079Y023293D03*
X044289Y023713D03*
X044214Y024373D03*
X042939Y023713D03*
X044514Y020863D03*
X044514Y020038D03*
X044259Y019423D03*
X044709Y018958D03*
X045909Y018688D03*
X046449Y018658D03*
X046959Y018928D03*
X046959Y019378D03*
X047784Y018883D03*
X048429Y018988D03*
X048159Y019498D03*
X048039Y019948D03*
X048159Y020458D03*
X046959Y020143D03*
X046959Y020953D03*
X045894Y019783D03*
X047754Y018028D03*
X049149Y018988D03*
X049599Y018988D03*
X048954Y019813D03*
X049809Y017923D03*
X049404Y017428D03*
X049824Y016978D03*
X049599Y016573D03*
X050229Y016348D03*
X050274Y016798D03*
X050274Y017338D03*
X051354Y017923D03*
X052374Y017923D03*
X052404Y017233D03*
X052764Y016963D03*
X053289Y016438D03*
X053634Y016963D03*
X053394Y017473D03*
X053844Y017593D03*
X053544Y017923D03*
X054819Y017728D03*
X056139Y017248D03*
X054969Y016303D03*
X054144Y016348D03*
X052779Y015688D03*
X052149Y016348D03*
X050604Y015793D03*
X050289Y015478D03*
X049854Y015763D03*
X049599Y015148D03*
X049344Y014008D03*
X048684Y014263D03*
X046959Y013918D03*
X046449Y014263D03*
X044709Y014938D03*
X042939Y014188D03*
X042789Y013468D03*
X042279Y013318D03*
X041724Y013123D03*
X043809Y012958D03*
X045504Y011293D03*
X044724Y010783D03*
X042939Y009673D03*
X043194Y008833D03*
X042384Y008383D03*
X043884Y007468D03*
X044319Y006673D03*
X044904Y005728D03*
X046989Y005983D03*
X047364Y005728D03*
X047889Y006238D03*
X048609Y007828D03*
X049749Y008668D03*
X050349Y009928D03*
X050859Y010573D03*
X051354Y010438D03*
X051339Y011563D03*
X052074Y013708D03*
X051369Y014773D03*
X053154Y014698D03*
X054969Y015028D03*
X054969Y014143D03*
X056004Y014188D03*
X056889Y013798D03*
X059004Y012553D03*
X059004Y011713D03*
X058374Y010183D03*
X058044Y009628D03*
X061179Y010543D03*
X061914Y009763D03*
X062559Y009763D03*
X063564Y009763D03*
X063819Y010633D03*
X063819Y011623D03*
X066234Y011128D03*
X066234Y012133D03*
X066234Y013123D03*
X066759Y013993D03*
X065019Y015913D03*
X063774Y016633D03*
X062544Y016378D03*
X062184Y015433D03*
X061944Y015028D03*
X061134Y014323D03*
X061944Y013873D03*
X059559Y014323D03*
X056379Y015898D03*
X054729Y011833D03*
X054144Y011608D03*
X054429Y011173D03*
X054099Y010783D03*
X054429Y008983D03*
X050304Y006433D03*
X047499Y010333D03*
X041274Y015238D03*
X039759Y015988D03*
X038994Y016243D03*
X039654Y017473D03*
X039759Y018088D03*
X042024Y018193D03*
X040449Y020143D03*
X038079Y019408D03*
X035229Y017668D03*
X036939Y017158D03*
X036099Y015973D03*
X036414Y015208D03*
X034809Y015223D03*
X034824Y015688D03*
X034809Y014713D03*
X035229Y012688D03*
X033279Y012688D03*
X032559Y012688D03*
X028779Y012838D03*
X023559Y014878D03*
X023304Y015253D03*
X023799Y016048D03*
X022044Y016243D03*
X022044Y016753D03*
X022044Y017248D03*
X022044Y018253D03*
X021699Y018538D03*
X021834Y020713D03*
X020859Y021253D03*
X022044Y021748D03*
X022779Y022063D03*
X023799Y021238D03*
X025449Y022453D03*
X024309Y025018D03*
X026109Y027373D03*
X026139Y028213D03*
X026139Y030118D03*
X025749Y030868D03*
X026079Y031423D03*
X026109Y031873D03*
X026019Y032458D03*
X026394Y033493D03*
X025644Y034363D03*
X024564Y035398D03*
X023814Y035863D03*
X022404Y035863D03*
X022494Y035353D03*
X022464Y034873D03*
X020754Y036118D03*
X021039Y036883D03*
X020424Y036883D03*
X019614Y035458D03*
X019239Y035203D03*
X018729Y035188D03*
X018084Y035188D03*
X017319Y035188D03*
X018099Y036118D03*
X018474Y036373D03*
X018204Y036733D03*
X019929Y034933D03*
X018969Y034108D03*
X018249Y034108D03*
X017469Y034108D03*
X017019Y034108D03*
X017394Y033418D03*
X015714Y034108D03*
X015489Y035203D03*
X016329Y032083D03*
X017499Y032323D03*
X023829Y033088D03*
X024294Y031708D03*
X024879Y030253D03*
X027369Y031633D03*
X029034Y031588D03*
X030099Y030943D03*
X029589Y030358D03*
X028524Y030103D03*
X030099Y028213D03*
X028524Y025273D03*
X030384Y021268D03*
X035229Y021268D03*
X033459Y017653D03*
X038079Y012658D03*
X045654Y016498D03*
X046419Y016228D03*
X046704Y016573D03*
X048474Y016138D03*
X048894Y016348D03*
X048894Y017083D03*
X051579Y021118D03*
X052719Y021373D03*
X052719Y021883D03*
X055389Y026833D03*
X055119Y027343D03*
X054444Y027343D03*
X054279Y027808D03*
X054024Y028183D03*
X054654Y028183D03*
X053904Y027343D03*
X053514Y027703D03*
X052989Y027613D03*
X052629Y027343D03*
X052629Y028213D03*
X052434Y028648D03*
X052809Y028903D03*
X053769Y029098D03*
X052239Y029788D03*
X053634Y030448D03*
X052239Y030823D03*
X051729Y031078D03*
X051309Y030583D03*
X050724Y030358D03*
X050724Y030808D03*
X050904Y031348D03*
X052239Y031903D03*
X050724Y032638D03*
X054834Y030448D03*
X056394Y031348D03*
X057594Y030013D03*
X057204Y027718D03*
X050499Y027343D03*
X050049Y027343D03*
X049734Y027868D03*
X050184Y028003D03*
X050439Y028483D03*
X049359Y028888D03*
X048639Y029413D03*
X048924Y029758D03*
X049374Y029818D03*
X048174Y029473D03*
X047799Y029728D03*
X047304Y029983D03*
X046314Y028768D03*
X045864Y028903D03*
X048729Y027853D03*
X049179Y027853D03*
X039849Y034033D03*
X038499Y033088D03*
X036279Y034603D03*
X036339Y035398D03*
X036924Y035908D03*
X036669Y036358D03*
X037449Y035848D03*
X038844Y035353D03*
X037464Y034873D03*
X035034Y036898D03*
X036519Y037318D03*
X033729Y037903D03*
X033984Y039223D03*
X034734Y039403D03*
X034869Y040018D03*
X034734Y041623D03*
X037449Y041893D03*
X039594Y039658D03*
X038799Y038998D03*
X039204Y038758D03*
X040104Y038128D03*
X041019Y036373D03*
X041529Y034468D03*
X043794Y040138D03*
X043884Y041008D03*
X042534Y042028D03*
X043854Y042373D03*
X050199Y042373D03*
X054174Y041593D03*
X053964Y038953D03*
X055959Y037378D03*
X055959Y036883D03*
X061554Y034858D03*
X057669Y041593D03*
X031314Y042328D03*
X029709Y041878D03*
X029634Y042328D03*
X029334Y042658D03*
X027054Y042628D03*
X025134Y041983D03*
X024879Y041473D03*
X023964Y040858D03*
X023889Y041983D03*
X024564Y042928D03*
X027579Y041143D03*
X029139Y040738D03*
X026649Y039973D03*
X025389Y040483D03*
X023754Y039628D03*
X021789Y038128D03*
X020319Y039238D03*
X019614Y040663D03*
X021279Y041233D03*
X019869Y042643D03*
X018474Y042748D03*
X017679Y042748D03*
X016884Y042748D03*
X017229Y041668D03*
X017889Y041383D03*
X018669Y041668D03*
X015399Y038638D03*
X027159Y037378D03*
X027579Y037123D03*
X028839Y037378D03*
X029964Y034873D03*
X020274Y027973D03*
X019929Y026188D03*
X018369Y021283D03*
X019119Y021253D03*
X019419Y020593D03*
X021759Y015418D03*
X022044Y014248D03*
X022044Y013753D03*
X022059Y012703D03*
X022059Y012253D03*
X022059Y011803D03*
X022059Y011308D03*
X023289Y010798D03*
X022044Y009493D03*
X062319Y008998D03*
X063819Y006628D03*
X066234Y009133D03*
X066204Y010093D03*
X067734Y017128D03*
X069399Y018013D03*
X068859Y019378D03*
X068169Y019558D03*
X066504Y020383D03*
D22*
X060389Y021488D02*
X060264Y021193D01*
X059979Y020908D01*
X059979Y017623D01*
X055764Y013408D01*
X055764Y012133D01*
X055344Y011713D01*
X055224Y011713D01*
X055089Y011578D01*
X054624Y011578D01*
X054594Y011608D01*
X054144Y011608D01*
X053859Y011023D02*
X052479Y011023D01*
X051939Y011563D01*
X051339Y011563D01*
X051169Y012128D02*
X051294Y012418D01*
X051579Y012703D01*
X051579Y013303D01*
X051339Y013543D01*
X050844Y013543D01*
X049344Y015043D01*
X049344Y016858D01*
X050184Y017698D01*
X050184Y019063D01*
X050364Y019243D01*
X050469Y019243D01*
X051579Y020353D01*
X051579Y020383D01*
X051834Y020638D01*
X051834Y021223D01*
X050919Y022138D01*
X050919Y022633D01*
X051174Y022543D02*
X051174Y022738D01*
X050049Y023863D01*
X047079Y023863D01*
X047064Y023848D01*
X046434Y023848D01*
X046059Y024223D01*
X045804Y024328D02*
X045804Y022408D01*
X046704Y021508D01*
X046704Y016573D01*
X046704Y015943D02*
X046704Y009178D01*
X047754Y008128D01*
X047754Y007723D01*
X048054Y007423D01*
X048169Y007128D01*
X047754Y007123D02*
X047754Y006958D01*
X048279Y006433D01*
X050304Y006433D01*
X051804Y006178D02*
X048309Y006178D01*
X047769Y006718D01*
X046989Y006718D01*
X046584Y007123D01*
X046584Y007303D01*
X046164Y007723D01*
X045984Y007723D01*
X045579Y008128D01*
X045579Y008308D01*
X041649Y012238D01*
X041499Y012238D01*
X041274Y012463D01*
X041274Y013093D01*
X041544Y013363D01*
X041669Y013628D01*
X041934Y012613D02*
X042789Y013468D01*
X042939Y014188D02*
X044874Y012253D01*
X045169Y012128D01*
X045654Y011503D02*
X046554Y010603D01*
X046554Y008323D01*
X046764Y008113D01*
X046764Y007948D01*
X047169Y007543D01*
X047334Y007543D01*
X047754Y007123D01*
X051174Y008533D02*
X051354Y008533D01*
X051759Y008128D01*
X051759Y007708D01*
X052044Y007423D01*
X052169Y007128D01*
X052584Y007123D02*
X052584Y006958D01*
X051804Y006178D01*
X052584Y007123D02*
X053004Y007543D01*
X055164Y007543D01*
X055614Y007993D01*
X055884Y007993D01*
X056169Y008128D01*
X056574Y008308D02*
X056574Y007708D01*
X056289Y007423D01*
X056169Y007128D01*
X056574Y008308D02*
X054864Y010018D01*
X052524Y010018D01*
X050754Y011788D01*
X050754Y013123D01*
X049194Y014683D01*
X049194Y016408D01*
X048894Y016708D01*
X048894Y017083D01*
X048189Y017218D02*
X048189Y015163D01*
X049344Y014008D01*
X049599Y015148D02*
X052119Y017668D01*
X052119Y018523D01*
X053784Y020188D01*
X053784Y020458D01*
X054039Y020563D02*
X053694Y020908D01*
X053334Y020908D01*
X053079Y021163D01*
X052869Y021163D01*
X052711Y021006D01*
X052689Y021028D01*
X051174Y022543D01*
X050589Y022738D02*
X050589Y021928D01*
X048159Y019498D01*
X047214Y019183D02*
X046959Y018928D01*
X047214Y019183D02*
X047214Y022078D01*
X048039Y022903D01*
X048039Y023158D01*
X048294Y023263D02*
X048099Y023458D01*
X048099Y023608D01*
X048294Y023263D02*
X048294Y022948D01*
X047784Y022438D01*
X047784Y018883D01*
X048009Y018208D02*
X048009Y017248D01*
X046704Y015943D01*
X045654Y014353D02*
X045654Y011503D01*
X047754Y011953D02*
X051174Y008533D01*
X053859Y011023D02*
X054099Y010783D01*
X052464Y012253D02*
X052169Y012128D01*
X052464Y012253D02*
X052749Y012538D01*
X054174Y012538D01*
X054579Y012943D01*
X054579Y013123D01*
X055899Y014443D01*
X056589Y014443D01*
X059799Y017653D01*
X059799Y023368D01*
X057564Y025603D01*
X057564Y026683D01*
X053799Y030448D01*
X053634Y030448D01*
X052494Y030898D02*
X052494Y030928D01*
X050784Y032638D01*
X050724Y032638D01*
X050469Y032638D02*
X050469Y032743D01*
X050619Y032893D01*
X053949Y032893D01*
X058734Y028108D01*
X059664Y028588D02*
X059154Y029098D01*
X059004Y029098D01*
X057564Y027718D02*
X057564Y026893D01*
X058014Y026443D01*
X057949Y026168D01*
X056619Y026083D02*
X056619Y026773D01*
X052494Y030898D01*
X050904Y031348D02*
X050469Y030913D01*
X050469Y030553D01*
X049479Y029563D01*
X049179Y029563D01*
X045264Y025648D01*
X045069Y025648D01*
X044814Y025543D02*
X044814Y029488D01*
X048699Y033373D01*
X059649Y033373D01*
X061269Y031753D01*
X064944Y031753D01*
X065004Y031693D01*
X062019Y029848D02*
X071259Y029848D01*
X071424Y030013D01*
X071693Y030140D01*
X062019Y029848D02*
X058719Y033148D01*
X050064Y033148D01*
X048369Y031453D01*
X048369Y031153D01*
X047694Y030478D01*
X047439Y030478D01*
X045864Y028903D01*
X045324Y027418D02*
X047544Y029638D01*
X047544Y029833D01*
X049269Y031558D01*
X049389Y031558D01*
X050469Y032638D01*
X054834Y030448D02*
X057564Y027718D01*
X055644Y027193D02*
X055644Y026728D01*
X055044Y026128D01*
X055044Y025573D01*
X053214Y023743D01*
X053214Y023503D01*
X053349Y023368D01*
X053349Y022033D01*
X053019Y021883D02*
X053694Y021208D01*
X053814Y021208D01*
X055209Y019813D01*
X055764Y019813D01*
X057099Y018478D01*
X057354Y018583D02*
X057354Y016513D01*
X054984Y014143D01*
X054969Y014143D01*
X056574Y013138D02*
X056574Y012703D01*
X056289Y012418D01*
X056169Y012128D01*
X056574Y013138D02*
X056889Y013453D01*
X056889Y013798D01*
X056379Y015898D02*
X055884Y016393D01*
X055884Y018433D01*
X055044Y019273D01*
X055044Y019768D01*
X053754Y021058D01*
X053634Y021058D01*
X053319Y021373D01*
X052719Y021373D01*
X052711Y021006D02*
X052464Y020758D01*
X052464Y020458D01*
X052914Y020458D02*
X052914Y020248D01*
X051624Y018958D01*
X051624Y017743D01*
X050229Y016348D01*
X050004Y015763D02*
X049854Y015763D01*
X050004Y015763D02*
X051774Y017533D01*
X051774Y018898D01*
X053349Y020473D01*
X053349Y020653D01*
X054039Y020563D02*
X054039Y020233D01*
X053244Y019438D01*
X053244Y018928D01*
X052374Y018058D01*
X052374Y017923D01*
X049854Y018883D02*
X048189Y017218D01*
X048009Y018208D02*
X050109Y020308D01*
X050109Y020458D01*
X050619Y020458D02*
X049149Y018988D01*
X049854Y018883D02*
X049854Y019483D01*
X050439Y020068D01*
X050589Y020068D01*
X050874Y020353D01*
X050874Y020368D01*
X051579Y021073D01*
X051579Y021118D01*
X052719Y021883D02*
X053019Y021883D01*
X053634Y021628D02*
X056289Y021628D01*
X056439Y021778D01*
X056649Y021778D01*
X058644Y019783D01*
X058644Y019363D01*
X059154Y018853D01*
X059154Y017368D01*
X058089Y016303D01*
X057354Y018583D02*
X056919Y019018D01*
X056919Y019423D01*
X057324Y020323D02*
X058899Y018748D01*
X057324Y020323D02*
X057324Y020758D01*
X057114Y020968D01*
X057099Y020968D01*
X056544Y021523D01*
X056709Y022483D02*
X058074Y022483D01*
X059199Y023608D01*
X057774Y022738D02*
X055644Y024868D01*
X055299Y024868D01*
X053784Y025228D02*
X055389Y026833D01*
X055644Y027193D02*
X054654Y028183D01*
X054024Y028183D02*
X054024Y028258D01*
X052974Y029308D01*
X049374Y029308D01*
X046659Y026593D01*
X046659Y025183D01*
X045804Y024328D01*
X045624Y024358D02*
X045624Y020413D01*
X046164Y019873D01*
X046164Y013423D01*
X046169Y013128D01*
X046959Y013918D02*
X047754Y013123D01*
X047754Y011953D01*
X045654Y014353D02*
X042024Y017983D01*
X042024Y018193D01*
X040669Y019628D02*
X040779Y019903D01*
X041064Y020188D01*
X041064Y021583D01*
X041499Y022018D01*
X041619Y022018D01*
X042129Y022528D01*
X042129Y032443D01*
X040104Y033928D02*
X040104Y038128D01*
X036519Y037318D02*
X039804Y034033D01*
X039849Y034033D01*
X040104Y033928D02*
X039804Y033628D01*
X039804Y025363D01*
X040014Y025153D01*
X040014Y015718D01*
X040539Y015193D01*
X040539Y014893D01*
X040669Y014628D01*
X041669Y012628D02*
X041934Y012613D01*
X050604Y015793D02*
X054534Y019723D01*
X054534Y019813D01*
X054549Y022378D02*
X053634Y022378D01*
X054549Y022378D02*
X054834Y022663D01*
X056529Y022663D01*
X056709Y022483D01*
X053784Y023878D02*
X056244Y026338D01*
X054444Y027343D02*
X054294Y027343D01*
X053889Y026938D01*
X049644Y026938D01*
X048729Y027853D01*
X049179Y027853D02*
X049944Y027088D01*
X050604Y027088D01*
X051129Y027613D01*
X052989Y027613D01*
X053514Y027703D02*
X053514Y028558D01*
X052914Y029158D01*
X051474Y029158D01*
X050319Y028003D01*
X050184Y028003D01*
X050139Y027343D02*
X051009Y028213D01*
X052629Y028213D01*
X050139Y027343D02*
X050049Y027343D01*
X048654Y026008D02*
X048069Y026008D01*
X047499Y026578D01*
X047949Y026758D02*
X053409Y026758D01*
X053904Y026263D01*
X053994Y026263D01*
X053784Y025228D02*
X052824Y025228D01*
X052359Y024763D01*
X052254Y024763D01*
X051999Y024658D02*
X052164Y024493D01*
X053244Y024493D01*
X053514Y024763D01*
X053604Y024763D01*
X051999Y024658D02*
X051999Y025723D01*
X052524Y026248D01*
X049899Y024763D02*
X048654Y026008D01*
X048579Y025378D02*
X048129Y024928D01*
X047604Y024928D01*
X047034Y024358D01*
X046644Y024358D01*
X046509Y024223D01*
X045849Y024583D02*
X045624Y024358D01*
X045849Y024583D02*
X045849Y025153D01*
X045069Y025288D02*
X044814Y025543D01*
X045069Y025288D02*
X045069Y022918D01*
X042129Y021913D02*
X044259Y019783D01*
X045894Y019783D01*
X048159Y020458D02*
X050334Y022633D01*
X050589Y022738D02*
X050439Y022888D01*
X050439Y023098D01*
X048924Y025378D02*
X048579Y025378D01*
X045324Y026068D02*
X045324Y027418D01*
X039099Y030718D02*
X037194Y028813D01*
X036909Y028813D01*
X033009Y024913D01*
X033009Y023893D01*
X030384Y021268D01*
X031494Y029113D02*
X032679Y030298D01*
X033774Y031468D02*
X028119Y037123D01*
X027579Y037123D01*
X023814Y035863D02*
X022569Y034618D01*
X017604Y034618D01*
X017094Y034108D01*
X017019Y034108D01*
X017979Y034933D02*
X019929Y034933D01*
X017979Y034933D02*
X017724Y035188D01*
X017319Y035188D01*
X023889Y041983D02*
X024774Y041983D01*
X025029Y041728D01*
X029484Y041728D01*
X029574Y041818D01*
X029709Y041878D01*
X033774Y031468D02*
X034494Y031468D01*
D23*
X051639Y025868D03*
M02*
