solid CBRack
facet normal 4.95351281436323e-034 2.13954859094835e-017 -1.0
  outer loop
    vertex 0.0 48.1584 1.05748743095546e-015
    vertex 4.08695399716766 43.1546 -8.67139693383478e-014
    vertex 0.0 0.0 0.0
  endloop
endfacet
facet normal 4.95351281436323e-034 2.13954859094835e-017 -1.0
  outer loop
    vertex 4.08695399716766 43.1546 -8.67139693383478e-014
    vertex 0.0 48.1584 1.05748743095546e-015
    vertex 137.668 48.1584 1.05748743095546e-015
  endloop
endfacet
facet normal 4.95351281436323e-034 2.13954859094835e-017 -1.0
  outer loop
    vertex 4.08695399716766 43.1546 -8.67139693383478e-014
    vertex 137.668 48.1584 1.05748743095546e-015
    vertex 62.484 43.1546 7.04991620636974e-016
  endloop
endfacet
facet normal 4.95351281436323e-034 2.13954859094835e-017 -1.0
  outer loop
    vertex 62.484 43.1546 7.04991620636974e-016
    vertex 137.668 48.1584 1.05748743095546e-015
    vertex 73.914 43.1546 1.23373533611471e-014
  endloop
endfacet
facet normal 4.95351281436323e-034 2.13954859094835e-017 -1.0
  outer loop
    vertex 62.484 43.1546 7.04991620636974e-016
    vertex 73.914 43.1546 1.23373533611471e-014
    vertex 62.484 41.1226 7.04991620636974e-016
  endloop
endfacet
facet normal 4.95351281436323e-034 2.13954859094835e-017 -1.0
  outer loop
    vertex 62.484 41.1226 7.04991620636974e-016
    vertex 73.914 43.1546 1.23373533611471e-014
    vertex 62.484 31.115 3.52495810318487e-016
  endloop
endfacet
facet normal 4.95351281436323e-034 2.13954859094835e-017 -1.0
  outer loop
    vertex 62.484 31.115 3.52495810318487e-016
    vertex 73.914 43.1546 1.23373533611471e-014
    vertex 62.484 29.083 3.52495810318487e-016
  endloop
endfacet
facet normal 4.95351281436323e-034 2.13954859094835e-017 -1.0
  outer loop
    vertex 62.484 29.083 3.52495810318487e-016
    vertex 73.914 43.1546 1.23373533611471e-014
    vertex 62.484 19.0754 0.0
  endloop
endfacet
facet normal 4.95351281436323e-034 2.13954859094835e-017 -1.0
  outer loop
    vertex 62.484 19.0754 0.0
    vertex 73.914 43.1546 1.23373533611471e-014
    vertex 62.484 17.0434 0.0
  endloop
endfacet
facet normal 4.95351281436323e-034 2.13954859094835e-017 -1.0
  outer loop
    vertex 62.484 17.0434 0.0
    vertex 73.914 43.1546 1.23373533611471e-014
    vertex 62.484 7.0358 -3.52495810318487e-016
  endloop
endfacet
facet normal 4.95351281436323e-034 2.13954859094835e-017 -1.0
  outer loop
    vertex 62.484 7.0358 -3.52495810318487e-016
    vertex 73.914 43.1546 1.23373533611471e-014
    vertex 62.484 5.0038 -3.52495810318487e-016
  endloop
endfacet
facet normal 4.95351281436323e-034 2.13954859094835e-017 -1.0
  outer loop
    vertex 73.914 43.1546 1.23373533611471e-014
    vertex 137.668 48.1584 1.05748743095546e-015
    vertex 132.334 43.1546 1.23373533611471e-014
  endloop
endfacet
facet normal 4.95351281436323e-034 2.13954859094835e-017 -1.0
  outer loop
    vertex 132.334 43.1546 1.23373533611471e-014
    vertex 137.668 48.1584 1.05748743095546e-015
    vertex 132.334 41.1226 1.23373533611471e-014
  endloop
endfacet
facet normal 4.95351281436323e-034 2.13954859094835e-017 -1.0
  outer loop
    vertex 132.334 41.1226 1.23373533611471e-014
    vertex 137.668 48.1584 1.05748743095546e-015
    vertex 132.334 31.115 1.19848575508286e-014
  endloop
endfacet
facet normal 4.95351281436323e-034 2.13954859094835e-017 -1.0
  outer loop
    vertex 132.334 31.115 1.19848575508286e-014
    vertex 137.668 48.1584 1.05748743095546e-015
    vertex 132.334 29.083 1.19848575508286e-014
  endloop
endfacet
facet normal 4.95351281436323e-034 2.13954859094835e-017 -1.0
  outer loop
    vertex 132.334 29.083 1.19848575508286e-014
    vertex 137.668 48.1584 1.05748743095546e-015
    vertex 132.334 19.0754 1.16323617405101e-014
  endloop
endfacet
facet normal 4.95351281436323e-034 2.13954859094835e-017 -1.0
  outer loop
    vertex 132.334 19.0754 1.16323617405101e-014
    vertex 137.668 48.1584 1.05748743095546e-015
    vertex 132.334 17.0434 1.16323617405101e-014
  endloop
endfacet
facet normal 4.95351281436323e-034 2.13954859094835e-017 -1.0
  outer loop
    vertex 132.334 17.0434 1.16323617405101e-014
    vertex 137.668 48.1584 1.05748743095546e-015
    vertex 132.334 7.0358 1.12798659301916e-014
  endloop
endfacet
facet normal 4.95351281436323e-034 2.13954859094835e-017 -1.0
  outer loop
    vertex 132.334 7.0358 1.12798659301916e-014
    vertex 137.668 48.1584 1.05748743095546e-015
    vertex 132.334 5.0038 1.12798659301916e-014
  endloop
endfacet
facet normal 4.95351281436323e-034 2.13954859094835e-017 -1.0
  outer loop
    vertex 0.0 0.0 0.0
    vertex 4.08695399716766 5.00380000000004 -8.77714567693033e-014
    vertex 137.668 0.0 0.0
  endloop
endfacet
facet normal 4.95351281436323e-034 2.13954859094835e-017 -1.0
  outer loop
    vertex 4.08695399716766 5.00380000000004 -8.77714567693033e-014
    vertex 0.0 0.0 0.0
    vertex 4.08695399716766 43.1546 -8.67139693383478e-014
  endloop
endfacet
facet normal 4.95351281436323e-034 2.13954859094835e-017 -1.0
  outer loop
    vertex 4.08695399716766 5.00380000000004 -8.77714567693033e-014
    vertex 4.08695399716766 43.1546 -8.67139693383478e-014
    vertex 4.08695399716766 41.1226 -8.67139693383478e-014
  endloop
endfacet
facet normal 4.95351281436323e-034 2.13954859094835e-017 -1.0
  outer loop
    vertex 4.08695399716766 5.00380000000004 -8.77714567693033e-014
    vertex 4.08695399716766 41.1226 -8.67139693383478e-014
    vertex 4.08695399716766 31.115 -8.70664651486663e-014
  endloop
endfacet
facet normal 4.95351281436323e-034 2.13954859094835e-017 -1.0
  outer loop
    vertex 4.08695399716766 5.00380000000004 -8.77714567693033e-014
    vertex 4.08695399716766 31.115 -8.70664651486663e-014
    vertex 4.08695399716766 29.083 -8.70664651486663e-014
  endloop
endfacet
facet normal 4.95351281436323e-034 2.13954859094835e-017 -1.0
  outer loop
    vertex 4.08695399716766 5.00380000000004 -8.77714567693033e-014
    vertex 4.08695399716766 29.083 -8.70664651486663e-014
    vertex 4.08695399716766 19.0754 -8.74189609589848e-014
  endloop
endfacet
facet normal 4.95351281436323e-034 2.13954859094835e-017 -1.0
  outer loop
    vertex 4.08695399716766 5.00380000000004 -8.77714567693033e-014
    vertex 4.08695399716766 19.0754 -8.74189609589848e-014
    vertex 4.08695399716766 17.0434 -8.74189609589848e-014
  endloop
endfacet
facet normal 4.95351281436323e-034 2.13954859094835e-017 -1.0
  outer loop
    vertex 4.08695399716766 5.00380000000004 -8.77714567693033e-014
    vertex 4.08695399716766 17.0434 -8.74189609589848e-014
    vertex 4.08695399716766 7.03580000000004 -8.77714567693033e-014
  endloop
endfacet
facet normal 4.95351281436323e-034 2.13954859094835e-017 -1.0
  outer loop
    vertex 137.668 0.0 0.0
    vertex 4.08695399716766 5.00380000000004 -8.77714567693033e-014
    vertex 62.484 5.0038 -3.52495810318487e-016
  endloop
endfacet
facet normal 4.95351281436323e-034 2.13954859094835e-017 -1.0
  outer loop
    vertex 137.668 0.0 0.0
    vertex 62.484 5.0038 -3.52495810318487e-016
    vertex 73.914 5.0038 1.12798659301916e-014
  endloop
endfacet
facet normal 4.95351281436323e-034 2.13954859094835e-017 -1.0
  outer loop
    vertex 73.914 5.0038 1.12798659301916e-014
    vertex 62.484 5.0038 -3.52495810318487e-016
    vertex 73.914 43.1546 1.23373533611471e-014
  endloop
endfacet
facet normal 4.95351281436323e-034 2.13954859094835e-017 -1.0
  outer loop
    vertex 73.914 5.0038 1.12798659301916e-014
    vertex 73.914 43.1546 1.23373533611471e-014
    vertex 73.914 41.1226 1.23373533611471e-014
  endloop
endfacet
facet normal 4.95351281436323e-034 2.13954859094835e-017 -1.0
  outer loop
    vertex 73.914 5.0038 1.12798659301916e-014
    vertex 73.914 41.1226 1.23373533611471e-014
    vertex 73.914 31.115 1.19848575508286e-014
  endloop
endfacet
facet normal 4.95351281436323e-034 2.13954859094835e-017 -1.0
  outer loop
    vertex 73.914 5.0038 1.12798659301916e-014
    vertex 73.914 31.115 1.19848575508286e-014
    vertex 73.914 29.083 1.19848575508286e-014
  endloop
endfacet
facet normal 4.95351281436323e-034 2.13954859094835e-017 -1.0
  outer loop
    vertex 73.914 5.0038 1.12798659301916e-014
    vertex 73.914 29.083 1.19848575508286e-014
    vertex 73.914 19.0754 1.16323617405101e-014
  endloop
endfacet
facet normal 4.95351281436323e-034 2.13954859094835e-017 -1.0
  outer loop
    vertex 73.914 5.0038 1.12798659301916e-014
    vertex 73.914 19.0754 1.16323617405101e-014
    vertex 73.914 17.0434 1.16323617405101e-014
  endloop
endfacet
facet normal 4.95351281436323e-034 2.13954859094835e-017 -1.0
  outer loop
    vertex 73.914 5.0038 1.12798659301916e-014
    vertex 73.914 17.0434 1.16323617405101e-014
    vertex 73.914 7.0358 1.12798659301916e-014
  endloop
endfacet
facet normal 4.95351281436323e-034 2.13954859094835e-017 -1.0
  outer loop
    vertex 137.668 0.0 0.0
    vertex 73.914 5.0038 1.12798659301916e-014
    vertex 132.334 5.0038 1.12798659301916e-014
  endloop
endfacet
facet normal 4.95351281436323e-034 2.13954859094835e-017 -1.0
  outer loop
    vertex 137.668 0.0 0.0
    vertex 132.334 5.0038 1.12798659301916e-014
    vertex 137.668 48.1584 1.05748743095546e-015
  endloop
endfacet
facet normal 4.95351281436323e-034 2.13954859094835e-017 -1.0
  outer loop
    vertex 132.334 17.0434 1.16323617405101e-014
    vertex 73.914 7.0358 1.12798659301916e-014
    vertex 73.914 17.0434 1.16323617405101e-014
  endloop
endfacet
facet normal 4.95351281436323e-034 2.13954859094835e-017 -1.0
  outer loop
    vertex 73.914 7.0358 1.12798659301916e-014
    vertex 132.334 17.0434 1.16323617405101e-014
    vertex 132.334 7.0358 1.12798659301916e-014
  endloop
endfacet
facet normal 4.95351281436323e-034 2.13954859094835e-017 -1.0
  outer loop
    vertex 132.334 29.083 1.19848575508286e-014
    vertex 73.914 19.0754 1.16323617405101e-014
    vertex 73.914 29.083 1.19848575508286e-014
  endloop
endfacet
facet normal 4.95351281436323e-034 2.13954859094835e-017 -1.0
  outer loop
    vertex 73.914 19.0754 1.16323617405101e-014
    vertex 132.334 29.083 1.19848575508286e-014
    vertex 132.334 19.0754 1.16323617405101e-014
  endloop
endfacet
facet normal 4.95351281436323e-034 2.13954859094835e-017 -1.0
  outer loop
    vertex 132.334 41.1226 1.23373533611471e-014
    vertex 73.914 31.115 1.19848575508286e-014
    vertex 73.914 41.1226 1.23373533611471e-014
  endloop
endfacet
facet normal 4.95351281436323e-034 2.13954859094835e-017 -1.0
  outer loop
    vertex 73.914 31.115 1.19848575508286e-014
    vertex 132.334 41.1226 1.23373533611471e-014
    vertex 132.334 31.115 1.19848575508286e-014
  endloop
endfacet
facet normal 4.95351281436323e-034 2.13954859094835e-017 -1.0
  outer loop
    vertex 62.484 17.0434 0.0
    vertex 4.08695399716766 7.03580000000004 -8.77714567693033e-014
    vertex 4.08695399716766 17.0434 -8.74189609589848e-014
  endloop
endfacet
facet normal 4.95351281436323e-034 2.13954859094835e-017 -1.0
  outer loop
    vertex 4.08695399716766 7.03580000000004 -8.77714567693033e-014
    vertex 62.484 17.0434 0.0
    vertex 62.484 7.0358 -3.52495810318487e-016
  endloop
endfacet
facet normal 4.95351281436323e-034 2.13954859094835e-017 -1.0
  outer loop
    vertex 62.484 29.083 3.52495810318487e-016
    vertex 4.08695399716766 19.0754 -8.74189609589848e-014
    vertex 4.08695399716766 29.083 -8.70664651486663e-014
  endloop
endfacet
facet normal 4.95351281436323e-034 2.13954859094835e-017 -1.0
  outer loop
    vertex 4.08695399716766 19.0754 -8.74189609589848e-014
    vertex 62.484 29.083 3.52495810318487e-016
    vertex 62.484 19.0754 0.0
  endloop
endfacet
facet normal 4.95351281436323e-034 2.13954859094835e-017 -1.0
  outer loop
    vertex 62.484 41.1226 7.04991620636974e-016
    vertex 4.08695399716766 31.115 -8.70664651486663e-014
    vertex 4.08695399716766 41.1226 -8.67139693383478e-014
  endloop
endfacet
facet normal 4.95351281436323e-034 2.13954859094835e-017 -1.0
  outer loop
    vertex 4.08695399716766 31.115 -8.70664651486663e-014
    vertex 62.484 41.1226 7.04991620636974e-016
    vertex 62.484 31.115 3.52495810318487e-016
  endloop
endfacet
facet normal 0.0 -0.894427190999916 0.447213595499958
  outer loop
    vertex 132.334 31.3944 15.24
    vertex 73.914 31.115 14.6812
    vertex 132.334 31.115 14.6812
  endloop
endfacet
facet normal 0.0 -0.894427190999916 0.447213595499958
  outer loop
    vertex 73.914 31.115 14.6812
    vertex 132.334 31.3944 15.24
    vertex 73.6346 31.3944 15.24
  endloop
endfacet
facet normal -1.0 -5.55111512312578e-015 4.80200270166591e-016
  outer loop
    vertex 4.08695399716768 29.083 14.6811999999999
    vertex 4.08695399716766 31.115 -8.70664651486663e-014
    vertex 4.08695399716766 29.083 -8.70664651486663e-014
  endloop
endfacet
facet normal -1.0 -5.55111512312578e-015 4.80200270166591e-016
  outer loop
    vertex 4.08695399716766 31.115 -8.70664651486663e-014
    vertex 4.08695399716768 29.083 14.6811999999999
    vertex 4.08695399716766 31.115 14.6811999999999
  endloop
endfacet
facet normal -0.894427190999912 -3.54909569579571e-015 -0.447213595499966
  outer loop
    vertex 3.80755399716766 31.3944 15.2399999999999
    vertex 4.08695399716768 29.083 14.6811999999999
    vertex 3.80755399716766 28.8036 15.2399999999999
  endloop
endfacet
facet normal -0.894427190999912 -3.54909569579571e-015 -0.447213595499966
  outer loop
    vertex 4.08695399716768 29.083 14.6811999999999
    vertex 3.80755399716766 31.3944 15.2399999999999
    vertex 4.08695399716766 31.115 14.6811999999999
  endloop
endfacet
facet normal 0.0 1.0 0.0
  outer loop
    vertex 73.914 31.115 14.6812
    vertex 132.334 31.115 1.19848575508286e-014
    vertex 73.914 31.115 1.19848575508286e-014
  endloop
endfacet
facet normal 0.0 1.0 0.0
  outer loop
    vertex 132.334 31.115 1.19848575508286e-014
    vertex 73.914 31.115 14.6812
    vertex 132.334 31.115 14.6812
  endloop
endfacet
facet normal 5.06547822362275e-020 -0.894427190999917 -0.447213595499956
  outer loop
    vertex 62.484 29.083 14.6812
    vertex 3.80755399716766 28.8036 15.2399999999999
    vertex 4.08695399716768 29.083 14.6811999999999
  endloop
endfacet
facet normal 5.06547822362275e-020 -0.894427190999917 -0.447213595499956
  outer loop
    vertex 3.80755399716766 28.8036 15.2399999999999
    vertex 62.484 29.083 14.6812
    vertex 62.484 28.8036 15.24
  endloop
endfacet
facet normal -1.33578502749014e-015 -0.894427190999916 0.447213595499958
  outer loop
    vertex 62.484 31.115 14.6812
    vertex 3.80755399716766 31.3944 15.2399999999999
    vertex 4.08695399716766 31.115 14.6811999999999
  endloop
endfacet
facet normal -1.33578502749014e-015 -0.894427190999916 0.447213595499958
  outer loop
    vertex 3.80755399716766 31.3944 15.2399999999999
    vertex 62.484 31.115 14.6812
    vertex 62.484 31.3944 15.24
  endloop
endfacet
facet normal 0.0 0.0 1.0
  outer loop
    vertex 65.659 0.0 19.304
    vertex 62.484 48.1584 19.304
    vertex 62.484 0.0 19.304
  endloop
endfacet
facet normal 0.0 0.0 1.0
  outer loop
    vertex 62.484 48.1584 19.304
    vertex 65.659 0.0 19.304
    vertex 65.659 48.1584 19.304
  endloop
endfacet
facet normal -1.0 0.0 0.0
  outer loop
    vertex 0.0 48.1584 15.24
    vertex 0.0 0.0 0.0
    vertex 0.0 0.0 15.24
  endloop
endfacet
facet normal -1.0 0.0 0.0
  outer loop
    vertex 0.0 0.0 0.0
    vertex 0.0 48.1584 15.24
    vertex 0.0 48.1584 1.05748743095546e-015
  endloop
endfacet
facet normal -1.04560423453722e-015 1.34504357551551e-016 1.0
  outer loop
    vertex 0.0 0.0 15.24
    vertex 3.80755399716766 4.72440000000004 15.2399999999999
    vertex 0.0 48.1584 15.24
  endloop
endfacet
facet normal -1.04560423453722e-015 1.34504357551551e-016 1.0
  outer loop
    vertex 3.80755399716766 4.72440000000004 15.2399999999999
    vertex 0.0 0.0 15.24
    vertex 62.484 0.0 15.24
  endloop
endfacet
facet normal -1.04560423453722e-015 1.34504357551551e-016 1.0
  outer loop
    vertex 3.80755399716766 4.72440000000004 15.2399999999999
    vertex 62.484 0.0 15.24
    vertex 62.484 4.7244 15.24
  endloop
endfacet
facet normal -1.04560423453722e-015 1.34504357551551e-016 1.0
  outer loop
    vertex 62.484 7.3152 15.24
    vertex 3.80755399716766 16.764 15.2399999999999
    vertex 3.80755399716766 7.31520000000004 15.2399999999999
  endloop
endfacet
facet normal -1.04560423453722e-015 1.34504357551551e-016 1.0
  outer loop
    vertex 3.80755399716766 16.764 15.2399999999999
    vertex 62.484 7.3152 15.24
    vertex 62.484 16.764 15.24
  endloop
endfacet
facet normal -1.04560423453722e-015 1.34504357551551e-016 1.0
  outer loop
    vertex 62.484 19.3548 15.24
    vertex 3.80755399716766 28.8036 15.2399999999999
    vertex 3.80755399716766 19.3548 15.2399999999999
  endloop
endfacet
facet normal -1.04560423453722e-015 1.34504357551551e-016 1.0
  outer loop
    vertex 3.80755399716766 28.8036 15.2399999999999
    vertex 62.484 19.3548 15.24
    vertex 62.484 28.8036 15.24
  endloop
endfacet
facet normal -1.04560423453722e-015 1.34504357551551e-016 1.0
  outer loop
    vertex 62.484 31.3944 15.24
    vertex 3.80755399716766 40.8432 15.2399999999999
    vertex 3.80755399716766 31.3944 15.2399999999999
  endloop
endfacet
facet normal -1.04560423453722e-015 1.34504357551551e-016 1.0
  outer loop
    vertex 3.80755399716766 40.8432 15.2399999999999
    vertex 62.484 31.3944 15.24
    vertex 62.484 40.8432 15.24
  endloop
endfacet
facet normal -1.04560423453722e-015 1.34504357551551e-016 1.0
  outer loop
    vertex 0.0 48.1584 15.24
    vertex 3.80755399716766 43.434 15.2399999999999
    vertex 62.484 48.1584 15.24
  endloop
endfacet
facet normal -1.04560423453722e-015 1.34504357551551e-016 1.0
  outer loop
    vertex 3.80755399716766 43.434 15.2399999999999
    vertex 0.0 48.1584 15.24
    vertex 3.80755399716766 4.72440000000004 15.2399999999999
  endloop
endfacet
facet normal -1.04560423453722e-015 1.34504357551551e-016 1.0
  outer loop
    vertex 3.80755399716766 43.434 15.2399999999999
    vertex 3.80755399716766 4.72440000000004 15.2399999999999
    vertex 3.80755399716766 7.31520000000004 15.2399999999999
  endloop
endfacet
facet normal -1.04560423453722e-015 1.34504357551551e-016 1.0
  outer loop
    vertex 3.80755399716766 43.434 15.2399999999999
    vertex 3.80755399716766 7.31520000000004 15.2399999999999
    vertex 3.80755399716766 16.764 15.2399999999999
  endloop
endfacet
facet normal -1.04560423453722e-015 1.34504357551551e-016 1.0
  outer loop
    vertex 3.80755399716766 43.434 15.2399999999999
    vertex 3.80755399716766 16.764 15.2399999999999
    vertex 3.80755399716766 19.3548 15.2399999999999
  endloop
endfacet
facet normal -1.04560423453722e-015 1.34504357551551e-016 1.0
  outer loop
    vertex 3.80755399716766 43.434 15.2399999999999
    vertex 3.80755399716766 19.3548 15.2399999999999
    vertex 3.80755399716766 28.8036 15.2399999999999
  endloop
endfacet
facet normal -1.04560423453722e-015 1.34504357551551e-016 1.0
  outer loop
    vertex 3.80755399716766 43.434 15.2399999999999
    vertex 3.80755399716766 28.8036 15.2399999999999
    vertex 3.80755399716766 31.3944 15.2399999999999
  endloop
endfacet
facet normal -1.04560423453722e-015 1.34504357551551e-016 1.0
  outer loop
    vertex 3.80755399716766 43.434 15.2399999999999
    vertex 3.80755399716766 31.3944 15.2399999999999
    vertex 3.80755399716766 40.8432 15.2399999999999
  endloop
endfacet
facet normal -1.04560423453722e-015 1.34504357551551e-016 1.0
  outer loop
    vertex 62.484 48.1584 15.24
    vertex 3.80755399716766 43.434 15.2399999999999
    vertex 62.484 43.434 15.24
  endloop
endfacet
facet normal 7.48487868331088e-016 1.0 -3.84160216133273e-016
  outer loop
    vertex 4.08695399716768 29.083 14.6811999999999
    vertex 62.484 29.083 3.52495810318487e-016
    vertex 4.08695399716766 29.083 -8.70664651486663e-014
  endloop
endfacet
facet normal 7.48487868331088e-016 1.0 -3.84160216133273e-016
  outer loop
    vertex 62.484 29.083 3.52495810318487e-016
    vertex 4.08695399716768 29.083 14.6811999999999
    vertex 62.484 29.083 14.6812
  endloop
endfacet
facet normal 0.0 0.0 1.0
  outer loop
    vertex 65.659 0.0 15.24
    vertex 73.6346 4.7244 15.24
    vertex 65.659 48.1584 15.24
  endloop
endfacet
facet normal 0.0 0.0 1.0
  outer loop
    vertex 73.6346 4.7244 15.24
    vertex 65.659 0.0 15.24
    vertex 132.334 0.0 15.24
  endloop
endfacet
facet normal 0.0 0.0 1.0
  outer loop
    vertex 73.6346 4.7244 15.24
    vertex 132.334 0.0 15.24
    vertex 132.334 4.7244 15.24
  endloop
endfacet
facet normal 0.0 0.0 1.0
  outer loop
    vertex 132.334 7.3152 15.24
    vertex 73.6346 16.764 15.24
    vertex 73.6346 7.3152 15.24
  endloop
endfacet
facet normal 0.0 0.0 1.0
  outer loop
    vertex 73.6346 16.764 15.24
    vertex 132.334 7.3152 15.24
    vertex 132.334 16.764 15.24
  endloop
endfacet
facet normal 0.0 0.0 1.0
  outer loop
    vertex 132.334 19.3548 15.24
    vertex 73.6346 28.8036 15.24
    vertex 73.6346 19.3548 15.24
  endloop
endfacet
facet normal 0.0 0.0 1.0
  outer loop
    vertex 73.6346 28.8036 15.24
    vertex 132.334 19.3548 15.24
    vertex 132.334 28.8036 15.24
  endloop
endfacet
facet normal 0.0 0.0 1.0
  outer loop
    vertex 132.334 31.3944 15.24
    vertex 73.6346 40.8432 15.24
    vertex 73.6346 31.3944 15.24
  endloop
endfacet
facet normal 0.0 0.0 1.0
  outer loop
    vertex 73.6346 40.8432 15.24
    vertex 132.334 31.3944 15.24
    vertex 132.334 40.8432 15.24
  endloop
endfacet
facet normal 0.0 0.0 1.0
  outer loop
    vertex 65.659 48.1584 15.24
    vertex 73.6346 43.434 15.24
    vertex 132.334 48.1584 15.24
  endloop
endfacet
facet normal 0.0 0.0 1.0
  outer loop
    vertex 73.6346 43.434 15.24
    vertex 65.659 48.1584 15.24
    vertex 73.6346 4.7244 15.24
  endloop
endfacet
facet normal 0.0 0.0 1.0
  outer loop
    vertex 73.6346 43.434 15.24
    vertex 73.6346 4.7244 15.24
    vertex 73.6346 7.3152 15.24
  endloop
endfacet
facet normal 0.0 0.0 1.0
  outer loop
    vertex 73.6346 43.434 15.24
    vertex 73.6346 7.3152 15.24
    vertex 73.6346 16.764 15.24
  endloop
endfacet
facet normal 0.0 0.0 1.0
  outer loop
    vertex 73.6346 43.434 15.24
    vertex 73.6346 16.764 15.24
    vertex 73.6346 19.3548 15.24
  endloop
endfacet
facet normal 0.0 0.0 1.0
  outer loop
    vertex 73.6346 43.434 15.24
    vertex 73.6346 19.3548 15.24
    vertex 73.6346 28.8036 15.24
  endloop
endfacet
facet normal 0.0 0.0 1.0
  outer loop
    vertex 73.6346 43.434 15.24
    vertex 73.6346 28.8036 15.24
    vertex 73.6346 31.3944 15.24
  endloop
endfacet
facet normal 0.0 0.0 1.0
  outer loop
    vertex 73.6346 43.434 15.24
    vertex 73.6346 31.3944 15.24
    vertex 73.6346 40.8432 15.24
  endloop
endfacet
facet normal 0.0 0.0 1.0
  outer loop
    vertex 132.334 48.1584 15.24
    vertex 73.6346 43.434 15.24
    vertex 132.334 43.434 15.24
  endloop
endfacet
facet normal 7.48487868331088e-016 1.0 -3.84160216133273e-016
  outer loop
    vertex 4.08695399716768 41.1226 14.6811999999999
    vertex 62.484 41.1226 7.04991620636974e-016
    vertex 4.08695399716766 41.1226 -8.67139693383478e-014
  endloop
endfacet
facet normal 7.48487868331088e-016 1.0 -3.84160216133273e-016
  outer loop
    vertex 62.484 41.1226 7.04991620636974e-016
    vertex 4.08695399716768 41.1226 14.6811999999999
    vertex 62.484 41.1226 14.6812
  endloop
endfacet
facet normal 0.0 -0.894427190999916 0.447213595499958
  outer loop
    vertex 132.334 19.3548 15.24
    vertex 73.914 19.0754 14.6812
    vertex 132.334 19.0754 14.6812
  endloop
endfacet
facet normal 0.0 -0.894427190999916 0.447213595499958
  outer loop
    vertex 73.914 19.0754 14.6812
    vertex 132.334 19.3548 15.24
    vertex 73.6346 19.3548 15.24
  endloop
endfacet
facet normal -0.894427190999912 -3.54909569579571e-015 -0.447213595499966
  outer loop
    vertex 3.80755399716766 43.434 15.2399999999999
    vertex 4.08695399716768 41.1226 14.6811999999999
    vertex 3.80755399716766 40.8432 15.2399999999999
  endloop
endfacet
facet normal -0.894427190999912 -3.54909569579571e-015 -0.447213595499966
  outer loop
    vertex 4.08695399716768 41.1226 14.6811999999999
    vertex 3.80755399716766 43.434 15.2399999999999
    vertex 4.08695399716766 43.1546 14.6811999999999
  endloop
endfacet
facet normal -1.33578502749014e-015 -0.894427190999916 0.447213595499958
  outer loop
    vertex 62.484 43.1546 14.6812
    vertex 3.80755399716766 43.434 15.2399999999999
    vertex 4.08695399716766 43.1546 14.6811999999999
  endloop
endfacet
facet normal -1.33578502749014e-015 -0.894427190999916 0.447213595499958
  outer loop
    vertex 3.80755399716766 43.434 15.2399999999999
    vertex 62.484 43.1546 14.6812
    vertex 62.484 43.434 15.24
  endloop
endfacet
facet normal -1.0 -5.55111512312578e-015 4.80200270166591e-016
  outer loop
    vertex 4.08695399716768 41.1226 14.6811999999999
    vertex 4.08695399716766 43.1546 -8.67139693383478e-014
    vertex 4.08695399716766 41.1226 -8.67139693383478e-014
  endloop
endfacet
facet normal -1.0 -5.55111512312578e-015 4.80200270166591e-016
  outer loop
    vertex 4.08695399716766 43.1546 -8.67139693383478e-014
    vertex 4.08695399716768 41.1226 14.6811999999999
    vertex 4.08695399716766 43.1546 14.6811999999999
  endloop
endfacet
facet normal 0.0 -0.894427190999916 0.447213595499958
  outer loop
    vertex 132.334 43.434 15.24
    vertex 73.914 43.1546 14.6812
    vertex 132.334 43.1546 14.6812
  endloop
endfacet
facet normal 0.0 -0.894427190999916 0.447213595499958
  outer loop
    vertex 73.914 43.1546 14.6812
    vertex 132.334 43.434 15.24
    vertex 73.6346 43.434 15.24
  endloop
endfacet
facet normal -1.0 0.0 0.0
  outer loop
    vertex 73.914 43.1546 14.6812
    vertex 73.914 41.1226 1.23373533611471e-014
    vertex 73.914 41.1226 14.6812
  endloop
endfacet
facet normal -1.0 0.0 0.0
  outer loop
    vertex 73.914 41.1226 1.23373533611471e-014
    vertex 73.914 43.1546 14.6812
    vertex 73.914 43.1546 1.23373533611471e-014
  endloop
endfacet
facet normal -1.0 0.0 0.0
  outer loop
    vertex 73.914 19.0754 14.6812
    vertex 73.914 17.0434 1.16323617405101e-014
    vertex 73.914 17.0434 14.6812
  endloop
endfacet
facet normal -1.0 0.0 0.0
  outer loop
    vertex 73.914 17.0434 1.16323617405101e-014
    vertex 73.914 19.0754 14.6812
    vertex 73.914 19.0754 1.16323617405101e-014
  endloop
endfacet
facet normal 0.0 0.0 1.0
  outer loop
    vertex 135.509 0.0 19.304
    vertex 132.334 48.1584 19.304
    vertex 132.334 0.0 19.304
  endloop
endfacet
facet normal 0.0 0.0 1.0
  outer loop
    vertex 132.334 48.1584 19.304
    vertex 135.509 0.0 19.304
    vertex 135.509 48.1584 19.304
  endloop
endfacet
facet normal 1.30614473485314e-015 2.29300530071282e-046 1.0
  outer loop
    vertex 137.668 0.0 15.24
    vertex 135.509 48.1584 15.24
    vertex 135.509 0.0 15.24
  endloop
endfacet
facet normal 1.30614473485314e-015 2.29300530071282e-046 1.0
  outer loop
    vertex 135.509 48.1584 15.24
    vertex 137.668 0.0 15.24
    vertex 137.668 48.1584 15.24
  endloop
endfacet
facet normal 5.06547822362275e-020 -0.894427190999917 -0.447213595499956
  outer loop
    vertex 62.484 41.1226 14.6812
    vertex 3.80755399716766 40.8432 15.2399999999999
    vertex 4.08695399716768 41.1226 14.6811999999999
  endloop
endfacet
facet normal 5.06547822362275e-020 -0.894427190999917 -0.447213595499956
  outer loop
    vertex 3.80755399716766 40.8432 15.2399999999999
    vertex 62.484 41.1226 14.6812
    vertex 62.484 40.8432 15.24
  endloop
endfacet
facet normal 0.0 1.0 0.0
  outer loop
    vertex 62.484 48.1584 19.304
    vertex 65.659 48.1584 15.24
    vertex 62.484 48.1584 15.24
  endloop
endfacet
facet normal 0.0 1.0 0.0
  outer loop
    vertex 65.659 48.1584 15.24
    vertex 62.484 48.1584 19.304
    vertex 65.659 48.1584 19.304
  endloop
endfacet
facet normal 0.0 1.0 0.0
  outer loop
    vertex 0.0 48.1584 15.24
    vertex 137.668 48.1584 1.05748743095546e-015
    vertex 0.0 48.1584 1.05748743095546e-015
  endloop
endfacet
facet normal 0.0 1.0 0.0
  outer loop
    vertex 137.668 48.1584 1.05748743095546e-015
    vertex 0.0 48.1584 15.24
    vertex 137.668 48.1584 15.24
  endloop
endfacet
facet normal 0.0 1.0 0.0
  outer loop
    vertex 137.668 48.1584 15.24
    vertex 0.0 48.1584 15.24
    vertex 62.484 48.1584 15.24
  endloop
endfacet
facet normal 0.0 1.0 0.0
  outer loop
    vertex 137.668 48.1584 15.24
    vertex 62.484 48.1584 15.24
    vertex 135.509 48.1584 15.24
  endloop
endfacet
facet normal 0.0 1.0 0.0
  outer loop
    vertex 135.509 48.1584 15.24
    vertex 62.484 48.1584 15.24
    vertex 65.659 48.1584 15.24
  endloop
endfacet
facet normal 0.0 1.0 0.0
  outer loop
    vertex 135.509 48.1584 15.24
    vertex 65.659 48.1584 15.24
    vertex 132.334 48.1584 15.24
  endloop
endfacet
facet normal 0.0 1.0 0.0
  outer loop
    vertex 135.509 48.1584 15.24
    vertex 132.334 48.1584 15.24
    vertex 132.334 48.1584 19.304
  endloop
endfacet
facet normal 0.0 1.0 0.0
  outer loop
    vertex 135.509 48.1584 15.24
    vertex 132.334 48.1584 19.304
    vertex 135.509 48.1584 19.304
  endloop
endfacet
facet normal 0.0 1.0 0.0
  outer loop
    vertex 73.914 43.1546 14.6812
    vertex 132.334 43.1546 1.23373533611471e-014
    vertex 73.914 43.1546 1.23373533611471e-014
  endloop
endfacet
facet normal 0.0 1.0 0.0
  outer loop
    vertex 132.334 43.1546 1.23373533611471e-014
    vertex 73.914 43.1546 14.6812
    vertex 132.334 43.1546 14.6812
  endloop
endfacet
facet normal -7.48487868331087e-016 -1.0 4.48267519189699e-031
  outer loop
    vertex 62.484 43.1546 7.04991620636974e-016
    vertex 4.08695399716766 43.1546 14.6811999999999
    vertex 4.08695399716766 43.1546 -8.67139693383478e-014
  endloop
endfacet
facet normal -7.48487868331087e-016 -1.0 4.48267519189699e-031
  outer loop
    vertex 4.08695399716766 43.1546 14.6811999999999
    vertex 62.484 43.1546 7.04991620636974e-016
    vertex 62.484 43.1546 14.6812
  endloop
endfacet
facet normal 0.0 0.894427190999916 0.447213595499958
  outer loop
    vertex 73.6346 16.764 15.24
    vertex 132.334 17.0434 14.6812
    vertex 73.914 17.0434 14.6812
  endloop
endfacet
facet normal 0.0 0.894427190999916 0.447213595499958
  outer loop
    vertex 132.334 17.0434 14.6812
    vertex 73.6346 16.764 15.24
    vertex 132.334 16.764 15.24
  endloop
endfacet
facet normal 0.894427190999914 0.0 0.447213595499961
  outer loop
    vertex 73.914 41.1226 14.6812
    vertex 73.6346 43.434 15.24
    vertex 73.6346 40.8432 15.24
  endloop
endfacet
facet normal 0.894427190999914 0.0 0.447213595499961
  outer loop
    vertex 73.6346 43.434 15.24
    vertex 73.914 41.1226 14.6812
    vertex 73.914 43.1546 14.6812
  endloop
endfacet
facet normal 0.0 -1.0 0.0
  outer loop
    vertex 132.334 41.1226 14.6812
    vertex 73.914 41.1226 1.23373533611471e-014
    vertex 132.334 41.1226 1.23373533611471e-014
  endloop
endfacet
facet normal 0.0 -1.0 0.0
  outer loop
    vertex 73.914 41.1226 1.23373533611471e-014
    vertex 132.334 41.1226 14.6812
    vertex 73.914 41.1226 14.6812
  endloop
endfacet
facet normal 0.894427190999914 0.0 0.447213595499961
  outer loop
    vertex 73.914 17.0434 14.6812
    vertex 73.6346 19.3548 15.24
    vertex 73.6346 16.764 15.24
  endloop
endfacet
facet normal 0.894427190999914 0.0 0.447213595499961
  outer loop
    vertex 73.6346 19.3548 15.24
    vertex 73.914 17.0434 14.6812
    vertex 73.914 19.0754 14.6812
  endloop
endfacet
facet normal 0.0 -1.0 0.0
  outer loop
    vertex 132.334 17.0434 14.6812
    vertex 73.914 17.0434 1.16323617405101e-014
    vertex 132.334 17.0434 1.16323617405101e-014
  endloop
endfacet
facet normal 0.0 -1.0 0.0
  outer loop
    vertex 73.914 17.0434 1.16323617405101e-014
    vertex 132.334 17.0434 14.6812
    vertex 73.914 17.0434 14.6812
  endloop
endfacet
facet normal 0.0 0.894427190999916 0.447213595499958
  outer loop
    vertex 73.6346 40.8432 15.24
    vertex 132.334 41.1226 14.6812
    vertex 73.914 41.1226 14.6812
  endloop
endfacet
facet normal 0.0 0.894427190999916 0.447213595499958
  outer loop
    vertex 132.334 41.1226 14.6812
    vertex 73.6346 40.8432 15.24
    vertex 132.334 40.8432 15.24
  endloop
endfacet
facet normal 0.0 -1.0 0.0
  outer loop
    vertex 135.509 0.0 19.304
    vertex 132.334 0.0 15.24
    vertex 135.509 0.0 15.24
  endloop
endfacet
facet normal 0.0 -1.0 0.0
  outer loop
    vertex 132.334 0.0 15.24
    vertex 135.509 0.0 19.304
    vertex 132.334 0.0 19.304
  endloop
endfacet
facet normal 0.0 -1.0 0.0
  outer loop
    vertex 137.668 0.0 15.24
    vertex 0.0 0.0 0.0
    vertex 137.668 0.0 0.0
  endloop
endfacet
facet normal 0.0 -1.0 0.0
  outer loop
    vertex 0.0 0.0 0.0
    vertex 137.668 0.0 15.24
    vertex 0.0 0.0 15.24
  endloop
endfacet
facet normal 0.0 -1.0 0.0
  outer loop
    vertex 0.0 0.0 15.24
    vertex 137.668 0.0 15.24
    vertex 135.509 0.0 15.24
  endloop
endfacet
facet normal 0.0 -1.0 0.0
  outer loop
    vertex 0.0 0.0 15.24
    vertex 135.509 0.0 15.24
    vertex 62.484 0.0 15.24
  endloop
endfacet
facet normal 0.0 -1.0 0.0
  outer loop
    vertex 62.484 0.0 15.24
    vertex 135.509 0.0 15.24
    vertex 132.334 0.0 15.24
  endloop
endfacet
facet normal 0.0 -1.0 0.0
  outer loop
    vertex 62.484 0.0 15.24
    vertex 132.334 0.0 15.24
    vertex 65.659 0.0 15.24
  endloop
endfacet
facet normal 0.0 -1.0 0.0
  outer loop
    vertex 62.484 0.0 15.24
    vertex 65.659 0.0 15.24
    vertex 65.659 0.0 19.304
  endloop
endfacet
facet normal 0.0 -1.0 0.0
  outer loop
    vertex 62.484 0.0 15.24
    vertex 65.659 0.0 19.304
    vertex 62.484 0.0 19.304
  endloop
endfacet
facet normal -0.894427190999912 -3.54909569579571e-015 -0.447213595499966
  outer loop
    vertex 3.80755399716766 7.31520000000004 15.2399999999999
    vertex 4.08695399716768 5.00380000000005 14.6811999999999
    vertex 3.80755399716766 4.72440000000004 15.2399999999999
  endloop
endfacet
facet normal -0.894427190999912 -3.54909569579571e-015 -0.447213595499966
  outer loop
    vertex 4.08695399716768 5.00380000000005 14.6811999999999
    vertex 3.80755399716766 7.31520000000004 15.2399999999999
    vertex 4.08695399716766 7.03580000000004 14.6811999999999
  endloop
endfacet
facet normal 5.06547822362275e-020 -0.894427190999917 -0.447213595499956
  outer loop
    vertex 62.484 5.0038 14.6812
    vertex 3.80755399716766 4.72440000000004 15.2399999999999
    vertex 4.08695399716768 5.00380000000005 14.6811999999999
  endloop
endfacet
facet normal 5.06547822362275e-020 -0.894427190999917 -0.447213595499956
  outer loop
    vertex 3.80755399716766 4.72440000000004 15.2399999999999
    vertex 62.484 5.0038 14.6812
    vertex 62.484 4.7244 15.24
  endloop
endfacet
facet normal -1.0 -5.55111512312578e-015 4.80200270166591e-016
  outer loop
    vertex 4.08695399716768 5.00380000000005 14.6811999999999
    vertex 4.08695399716766 7.03580000000004 -8.77714567693033e-014
    vertex 4.08695399716766 5.00380000000004 -8.77714567693033e-014
  endloop
endfacet
facet normal -1.0 -5.55111512312578e-015 4.80200270166591e-016
  outer loop
    vertex 4.08695399716766 7.03580000000004 -8.77714567693033e-014
    vertex 4.08695399716768 5.00380000000005 14.6811999999999
    vertex 4.08695399716766 7.03580000000004 14.6811999999999
  endloop
endfacet
facet normal 7.48487868331088e-016 1.0 -3.84160216133273e-016
  outer loop
    vertex 4.08695399716768 5.00380000000005 14.6811999999999
    vertex 62.484 5.0038 -3.52495810318487e-016
    vertex 4.08695399716766 5.00380000000004 -8.77714567693033e-014
  endloop
endfacet
facet normal 7.48487868331088e-016 1.0 -3.84160216133273e-016
  outer loop
    vertex 62.484 5.0038 -3.52495810318487e-016
    vertex 4.08695399716768 5.00380000000005 14.6811999999999
    vertex 62.484 5.0038 14.6812
  endloop
endfacet
facet normal -1.33578502749014e-015 -0.894427190999916 0.447213595499958
  outer loop
    vertex 62.484 7.0358 14.6812
    vertex 3.80755399716766 7.31520000000004 15.2399999999999
    vertex 4.08695399716766 7.03580000000004 14.6811999999999
  endloop
endfacet
facet normal -1.33578502749014e-015 -0.894427190999916 0.447213595499958
  outer loop
    vertex 3.80755399716766 7.31520000000004 15.2399999999999
    vertex 62.484 7.0358 14.6812
    vertex 62.484 7.3152 15.24
  endloop
endfacet
facet normal 1.0 0.0 0.0
  outer loop
    vertex 135.509 48.1584 15.24
    vertex 135.509 0.0 19.304
    vertex 135.509 0.0 15.24
  endloop
endfacet
facet normal 1.0 0.0 0.0
  outer loop
    vertex 135.509 0.0 19.304
    vertex 135.509 48.1584 15.24
    vertex 135.509 48.1584 19.304
  endloop
endfacet
facet normal 1.0 0.0 0.0
  outer loop
    vertex 137.668 48.1584 1.05748743095546e-015
    vertex 137.668 0.0 15.24
    vertex 137.668 0.0 0.0
  endloop
endfacet
facet normal 1.0 0.0 0.0
  outer loop
    vertex 137.668 0.0 15.24
    vertex 137.668 48.1584 1.05748743095546e-015
    vertex 137.668 48.1584 15.24
  endloop
endfacet
facet normal -1.0 -4.9827396353859e-031 1.00621586114435e-030
  outer loop
    vertex 132.334 48.1584 19.304
    vertex 132.334 0.0 15.24
    vertex 132.334 0.0 19.304
  endloop
endfacet
facet normal -1.0 -4.9827396353859e-031 1.00621586114435e-030
  outer loop
    vertex 132.334 0.0 15.24
    vertex 132.334 48.1584 19.304
    vertex 132.334 4.7244 15.24
  endloop
endfacet
facet normal -1.0 -4.9827396353859e-031 1.00621586114435e-030
  outer loop
    vertex 132.334 4.7244 15.24
    vertex 132.334 48.1584 19.304
    vertex 132.334 7.3152 15.24
  endloop
endfacet
facet normal -1.0 -4.9827396353859e-031 1.00621586114435e-030
  outer loop
    vertex 132.334 4.7244 15.24
    vertex 132.334 7.3152 15.24
    vertex 132.334 5.0038 14.6812
  endloop
endfacet
facet normal -1.0 -4.9827396353859e-031 1.00621586114435e-030
  outer loop
    vertex 132.334 5.0038 14.6812
    vertex 132.334 7.3152 15.24
    vertex 132.334 7.0358 14.6812
  endloop
endfacet
facet normal -1.0 -4.9827396353859e-031 1.00621586114435e-030
  outer loop
    vertex 132.334 5.0038 14.6812
    vertex 132.334 7.0358 14.6812
    vertex 132.334 5.0038 1.12798659301916e-014
  endloop
endfacet
facet normal -1.0 -4.9827396353859e-031 1.00621586114435e-030
  outer loop
    vertex 132.334 7.3152 15.24
    vertex 132.334 48.1584 19.304
    vertex 132.334 16.764 15.24
  endloop
endfacet
facet normal -1.0 -4.9827396353859e-031 1.00621586114435e-030
  outer loop
    vertex 132.334 16.764 15.24
    vertex 132.334 48.1584 19.304
    vertex 132.334 19.3548 15.24
  endloop
endfacet
facet normal -1.0 -4.9827396353859e-031 1.00621586114435e-030
  outer loop
    vertex 132.334 16.764 15.24
    vertex 132.334 19.3548 15.24
    vertex 132.334 17.0434 14.6812
  endloop
endfacet
facet normal -1.0 -4.9827396353859e-031 1.00621586114435e-030
  outer loop
    vertex 132.334 17.0434 14.6812
    vertex 132.334 19.3548 15.24
    vertex 132.334 19.0754 14.6812
  endloop
endfacet
facet normal -1.0 -4.9827396353859e-031 1.00621586114435e-030
  outer loop
    vertex 132.334 17.0434 14.6812
    vertex 132.334 19.0754 14.6812
    vertex 132.334 17.0434 1.16323617405101e-014
  endloop
endfacet
facet normal -1.0 -4.9827396353859e-031 1.00621586114435e-030
  outer loop
    vertex 132.334 19.3548 15.24
    vertex 132.334 48.1584 19.304
    vertex 132.334 28.8036 15.24
  endloop
endfacet
facet normal -1.0 -4.9827396353859e-031 1.00621586114435e-030
  outer loop
    vertex 132.334 28.8036 15.24
    vertex 132.334 48.1584 19.304
    vertex 132.334 29.083 14.6812
  endloop
endfacet
facet normal -1.0 -4.9827396353859e-031 1.00621586114435e-030
  outer loop
    vertex 132.334 29.083 14.6812
    vertex 132.334 48.1584 19.304
    vertex 132.334 31.3944 15.24
  endloop
endfacet
facet normal -1.0 -4.9827396353859e-031 1.00621586114435e-030
  outer loop
    vertex 132.334 29.083 14.6812
    vertex 132.334 31.3944 15.24
    vertex 132.334 31.115 14.6812
  endloop
endfacet
facet normal -1.0 -4.9827396353859e-031 1.00621586114435e-030
  outer loop
    vertex 132.334 29.083 14.6812
    vertex 132.334 31.115 14.6812
    vertex 132.334 29.083 1.19848575508286e-014
  endloop
endfacet
facet normal -1.0 -4.9827396353859e-031 1.00621586114435e-030
  outer loop
    vertex 132.334 31.3944 15.24
    vertex 132.334 48.1584 19.304
    vertex 132.334 40.8432 15.24
  endloop
endfacet
facet normal -1.0 -4.9827396353859e-031 1.00621586114435e-030
  outer loop
    vertex 132.334 40.8432 15.24
    vertex 132.334 48.1584 19.304
    vertex 132.334 41.1226 14.6812
  endloop
endfacet
facet normal -1.0 -4.9827396353859e-031 1.00621586114435e-030
  outer loop
    vertex 132.334 41.1226 14.6812
    vertex 132.334 48.1584 19.304
    vertex 132.334 43.434 15.24
  endloop
endfacet
facet normal -1.0 -4.9827396353859e-031 1.00621586114435e-030
  outer loop
    vertex 132.334 41.1226 14.6812
    vertex 132.334 43.434 15.24
    vertex 132.334 43.1546 14.6812
  endloop
endfacet
facet normal -1.0 -4.9827396353859e-031 1.00621586114435e-030
  outer loop
    vertex 132.334 41.1226 14.6812
    vertex 132.334 43.1546 14.6812
    vertex 132.334 41.1226 1.23373533611471e-014
  endloop
endfacet
facet normal -1.0 -4.9827396353859e-031 1.00621586114435e-030
  outer loop
    vertex 132.334 43.434 15.24
    vertex 132.334 48.1584 19.304
    vertex 132.334 48.1584 15.24
  endloop
endfacet
facet normal -1.0 -4.9827396353859e-031 1.00621586114435e-030
  outer loop
    vertex 132.334 43.1546 1.23373533611471e-014
    vertex 132.334 41.1226 1.23373533611471e-014
    vertex 132.334 43.1546 14.6812
  endloop
endfacet
facet normal -1.0 -4.9827396353859e-031 1.00621586114435e-030
  outer loop
    vertex 132.334 31.115 1.19848575508286e-014
    vertex 132.334 29.083 1.19848575508286e-014
    vertex 132.334 31.115 14.6812
  endloop
endfacet
facet normal -1.0 -4.9827396353859e-031 1.00621586114435e-030
  outer loop
    vertex 132.334 19.0754 1.16323617405101e-014
    vertex 132.334 17.0434 1.16323617405101e-014
    vertex 132.334 19.0754 14.6812
  endloop
endfacet
facet normal -1.0 -4.9827396353859e-031 1.00621586114435e-030
  outer loop
    vertex 132.334 7.0358 1.12798659301916e-014
    vertex 132.334 5.0038 1.12798659301916e-014
    vertex 132.334 7.0358 14.6812
  endloop
endfacet
facet normal 0.894427190999914 0.0 0.447213595499961
  outer loop
    vertex 73.914 5.0038 14.6812
    vertex 73.6346 7.3152 15.24
    vertex 73.6346 4.7244 15.24
  endloop
endfacet
facet normal 0.894427190999914 0.0 0.447213595499961
  outer loop
    vertex 73.6346 7.3152 15.24
    vertex 73.914 5.0038 14.6812
    vertex 73.914 7.0358 14.6812
  endloop
endfacet
facet normal 0.0 -1.0 0.0
  outer loop
    vertex 132.334 5.0038 14.6812
    vertex 73.914 5.0038 1.12798659301916e-014
    vertex 132.334 5.0038 1.12798659301916e-014
  endloop
endfacet
facet normal 0.0 -1.0 0.0
  outer loop
    vertex 73.914 5.0038 1.12798659301916e-014
    vertex 132.334 5.0038 14.6812
    vertex 73.914 5.0038 14.6812
  endloop
endfacet
facet normal 0.0 0.894427190999916 0.447213595499958
  outer loop
    vertex 73.6346 4.7244 15.24
    vertex 132.334 5.0038 14.6812
    vertex 73.914 5.0038 14.6812
  endloop
endfacet
facet normal 0.0 0.894427190999916 0.447213595499958
  outer loop
    vertex 132.334 5.0038 14.6812
    vertex 73.6346 4.7244 15.24
    vertex 132.334 4.7244 15.24
  endloop
endfacet
facet normal -7.48487868331087e-016 -1.0 4.48267519189699e-031
  outer loop
    vertex 62.484 7.0358 -3.52495810318487e-016
    vertex 4.08695399716766 7.03580000000004 14.6811999999999
    vertex 4.08695399716766 7.03580000000004 -8.77714567693033e-014
  endloop
endfacet
facet normal -7.48487868331087e-016 -1.0 4.48267519189699e-031
  outer loop
    vertex 4.08695399716766 7.03580000000004 14.6811999999999
    vertex 62.484 7.0358 -3.52495810318487e-016
    vertex 62.484 7.0358 14.6812
  endloop
endfacet
facet normal 0.0 1.0 0.0
  outer loop
    vertex 73.914 7.0358 14.6812
    vertex 132.334 7.0358 1.12798659301916e-014
    vertex 73.914 7.0358 1.12798659301916e-014
  endloop
endfacet
facet normal 0.0 1.0 0.0
  outer loop
    vertex 132.334 7.0358 1.12798659301916e-014
    vertex 73.914 7.0358 14.6812
    vertex 132.334 7.0358 14.6812
  endloop
endfacet
facet normal 1.0 0.0 0.0
  outer loop
    vertex 65.659 48.1584 15.24
    vertex 65.659 0.0 19.304
    vertex 65.659 0.0 15.24
  endloop
endfacet
facet normal 1.0 0.0 0.0
  outer loop
    vertex 65.659 0.0 19.304
    vertex 65.659 48.1584 15.24
    vertex 65.659 48.1584 19.304
  endloop
endfacet
facet normal 0.0 -0.894427190999916 0.447213595499958
  outer loop
    vertex 132.334 7.3152 15.24
    vertex 73.914 7.0358 14.6812
    vertex 132.334 7.0358 14.6812
  endloop
endfacet
facet normal 0.0 -0.894427190999916 0.447213595499958
  outer loop
    vertex 73.914 7.0358 14.6812
    vertex 132.334 7.3152 15.24
    vertex 73.6346 7.3152 15.24
  endloop
endfacet
facet normal -1.0 0.0 0.0
  outer loop
    vertex 73.914 31.115 14.6812
    vertex 73.914 29.083 1.19848575508286e-014
    vertex 73.914 29.083 14.6812
  endloop
endfacet
facet normal -1.0 0.0 0.0
  outer loop
    vertex 73.914 29.083 1.19848575508286e-014
    vertex 73.914 31.115 14.6812
    vertex 73.914 31.115 1.19848575508286e-014
  endloop
endfacet
facet normal 0.894427190999914 0.0 0.447213595499961
  outer loop
    vertex 73.914 29.083 14.6812
    vertex 73.6346 31.3944 15.24
    vertex 73.6346 28.8036 15.24
  endloop
endfacet
facet normal 0.894427190999914 0.0 0.447213595499961
  outer loop
    vertex 73.6346 31.3944 15.24
    vertex 73.914 29.083 14.6812
    vertex 73.914 31.115 14.6812
  endloop
endfacet
facet normal -7.48487868331087e-016 -1.0 4.48267519189699e-031
  outer loop
    vertex 62.484 31.115 3.52495810318487e-016
    vertex 4.08695399716766 31.115 14.6811999999999
    vertex 4.08695399716766 31.115 -8.70664651486663e-014
  endloop
endfacet
facet normal -7.48487868331087e-016 -1.0 4.48267519189699e-031
  outer loop
    vertex 4.08695399716766 31.115 14.6811999999999
    vertex 62.484 31.115 3.52495810318487e-016
    vertex 62.484 31.115 14.6812
  endloop
endfacet
facet normal 0.0 -1.0 0.0
  outer loop
    vertex 132.334 29.083 14.6812
    vertex 73.914 29.083 1.19848575508286e-014
    vertex 132.334 29.083 1.19848575508286e-014
  endloop
endfacet
facet normal 0.0 -1.0 0.0
  outer loop
    vertex 73.914 29.083 1.19848575508286e-014
    vertex 132.334 29.083 14.6812
    vertex 73.914 29.083 14.6812
  endloop
endfacet
facet normal -1.0 5.95401417556414e-017 4.37139399217659e-016
  outer loop
    vertex 62.484 48.1584 19.304
    vertex 62.484 0.0 15.24
    vertex 62.484 0.0 19.304
  endloop
endfacet
facet normal -1.0 5.95401417556414e-017 4.37139399217659e-016
  outer loop
    vertex 62.484 0.0 15.24
    vertex 62.484 48.1584 19.304
    vertex 62.484 4.7244 15.24
  endloop
endfacet
facet normal -1.0 5.95401417556414e-017 4.37139399217659e-016
  outer loop
    vertex 62.484 4.7244 15.24
    vertex 62.484 48.1584 19.304
    vertex 62.484 7.3152 15.24
  endloop
endfacet
facet normal -1.0 5.95401417556414e-017 4.37139399217659e-016
  outer loop
    vertex 62.484 4.7244 15.24
    vertex 62.484 7.3152 15.24
    vertex 62.484 5.0038 14.6812
  endloop
endfacet
facet normal -1.0 5.95401417556414e-017 4.37139399217659e-016
  outer loop
    vertex 62.484 5.0038 14.6812
    vertex 62.484 7.3152 15.24
    vertex 62.484 7.0358 14.6812
  endloop
endfacet
facet normal -1.0 5.95401417556414e-017 4.37139399217659e-016
  outer loop
    vertex 62.484 7.3152 15.24
    vertex 62.484 48.1584 19.304
    vertex 62.484 16.764 15.24
  endloop
endfacet
facet normal -1.0 5.95401417556414e-017 4.37139399217659e-016
  outer loop
    vertex 62.484 16.764 15.24
    vertex 62.484 48.1584 19.304
    vertex 62.484 19.3548 15.24
  endloop
endfacet
facet normal -1.0 5.95401417556414e-017 4.37139399217659e-016
  outer loop
    vertex 62.484 16.764 15.24
    vertex 62.484 19.3548 15.24
    vertex 62.484 17.0434 14.6812
  endloop
endfacet
facet normal -1.0 5.95401417556414e-017 4.37139399217659e-016
  outer loop
    vertex 62.484 17.0434 14.6812
    vertex 62.484 19.3548 15.24
    vertex 62.484 19.0754 14.6812
  endloop
endfacet
facet normal -1.0 5.95401417556414e-017 4.37139399217659e-016
  outer loop
    vertex 62.484 19.3548 15.24
    vertex 62.484 48.1584 19.304
    vertex 62.484 28.8036 15.24
  endloop
endfacet
facet normal -1.0 5.95401417556414e-017 4.37139399217659e-016
  outer loop
    vertex 62.484 28.8036 15.24
    vertex 62.484 48.1584 19.304
    vertex 62.484 29.083 14.6812
  endloop
endfacet
facet normal -1.0 5.95401417556414e-017 4.37139399217659e-016
  outer loop
    vertex 62.484 29.083 14.6812
    vertex 62.484 48.1584 19.304
    vertex 62.484 31.3944 15.24
  endloop
endfacet
facet normal -1.0 5.95401417556414e-017 4.37139399217659e-016
  outer loop
    vertex 62.484 29.083 14.6812
    vertex 62.484 31.3944 15.24
    vertex 62.484 31.115 14.6812
  endloop
endfacet
facet normal -1.0 5.95401417556414e-017 4.37139399217659e-016
  outer loop
    vertex 62.484 31.3944 15.24
    vertex 62.484 48.1584 19.304
    vertex 62.484 40.8432 15.24
  endloop
endfacet
facet normal -1.0 5.95401417556414e-017 4.37139399217659e-016
  outer loop
    vertex 62.484 40.8432 15.24
    vertex 62.484 48.1584 19.304
    vertex 62.484 41.1226 14.6812
  endloop
endfacet
facet normal -1.0 5.95401417556414e-017 4.37139399217659e-016
  outer loop
    vertex 62.484 41.1226 14.6812
    vertex 62.484 48.1584 19.304
    vertex 62.484 43.434 15.24
  endloop
endfacet
facet normal -1.0 5.95401417556414e-017 4.37139399217659e-016
  outer loop
    vertex 62.484 41.1226 14.6812
    vertex 62.484 43.434 15.24
    vertex 62.484 43.1546 14.6812
  endloop
endfacet
facet normal -1.0 5.95401417556414e-017 4.37139399217659e-016
  outer loop
    vertex 62.484 43.434 15.24
    vertex 62.484 48.1584 19.304
    vertex 62.484 48.1584 15.24
  endloop
endfacet
facet normal -1.0 5.95401417556414e-017 4.37139399217659e-016
  outer loop
    vertex 62.484 41.1226 14.6812
    vertex 62.484 43.1546 7.04991620636974e-016
    vertex 62.484 41.1226 7.04991620636974e-016
  endloop
endfacet
facet normal -1.0 5.95401417556414e-017 4.37139399217659e-016
  outer loop
    vertex 62.484 43.1546 7.04991620636974e-016
    vertex 62.484 41.1226 14.6812
    vertex 62.484 43.1546 14.6812
  endloop
endfacet
facet normal -1.0 5.95401417556414e-017 4.37139399217659e-016
  outer loop
    vertex 62.484 29.083 14.6812
    vertex 62.484 31.115 3.52495810318487e-016
    vertex 62.484 29.083 3.52495810318487e-016
  endloop
endfacet
facet normal -1.0 5.95401417556414e-017 4.37139399217659e-016
  outer loop
    vertex 62.484 31.115 3.52495810318487e-016
    vertex 62.484 29.083 14.6812
    vertex 62.484 31.115 14.6812
  endloop
endfacet
facet normal -1.0 5.95401417556414e-017 4.37139399217659e-016
  outer loop
    vertex 62.484 17.0434 14.6812
    vertex 62.484 19.0754 0.0
    vertex 62.484 17.0434 0.0
  endloop
endfacet
facet normal -1.0 5.95401417556414e-017 4.37139399217659e-016
  outer loop
    vertex 62.484 19.0754 0.0
    vertex 62.484 17.0434 14.6812
    vertex 62.484 19.0754 14.6812
  endloop
endfacet
facet normal -1.0 5.95401417556414e-017 4.37139399217659e-016
  outer loop
    vertex 62.484 5.0038 14.6812
    vertex 62.484 7.0358 -3.52495810318487e-016
    vertex 62.484 5.0038 -3.52495810318487e-016
  endloop
endfacet
facet normal -1.0 5.95401417556414e-017 4.37139399217659e-016
  outer loop
    vertex 62.484 7.0358 -3.52495810318487e-016
    vertex 62.484 5.0038 14.6812
    vertex 62.484 7.0358 14.6812
  endloop
endfacet
facet normal -1.0 0.0 0.0
  outer loop
    vertex 73.914 7.0358 14.6812
    vertex 73.914 5.0038 1.12798659301916e-014
    vertex 73.914 5.0038 14.6812
  endloop
endfacet
facet normal -1.0 0.0 0.0
  outer loop
    vertex 73.914 5.0038 1.12798659301916e-014
    vertex 73.914 7.0358 14.6812
    vertex 73.914 7.0358 1.12798659301916e-014
  endloop
endfacet
facet normal 0.0 0.894427190999916 0.447213595499958
  outer loop
    vertex 73.6346 28.8036 15.24
    vertex 132.334 29.083 14.6812
    vertex 73.914 29.083 14.6812
  endloop
endfacet
facet normal 0.0 0.894427190999916 0.447213595499958
  outer loop
    vertex 132.334 29.083 14.6812
    vertex 73.6346 28.8036 15.24
    vertex 132.334 28.8036 15.24
  endloop
endfacet
facet normal -7.48487868331087e-016 -1.0 4.48267519189699e-031
  outer loop
    vertex 62.484 19.0754 0.0
    vertex 4.08695399716766 19.0754 14.6811999999999
    vertex 4.08695399716766 19.0754 -8.74189609589848e-014
  endloop
endfacet
facet normal -7.48487868331087e-016 -1.0 4.48267519189699e-031
  outer loop
    vertex 4.08695399716766 19.0754 14.6811999999999
    vertex 62.484 19.0754 0.0
    vertex 62.484 19.0754 14.6812
  endloop
endfacet
facet normal -1.0 -5.55111512312578e-015 4.80200270166591e-016
  outer loop
    vertex 4.08695399716768 17.0434 14.6811999999999
    vertex 4.08695399716766 19.0754 -8.74189609589848e-014
    vertex 4.08695399716766 17.0434 -8.74189609589848e-014
  endloop
endfacet
facet normal -1.0 -5.55111512312578e-015 4.80200270166591e-016
  outer loop
    vertex 4.08695399716766 19.0754 -8.74189609589848e-014
    vertex 4.08695399716768 17.0434 14.6811999999999
    vertex 4.08695399716766 19.0754 14.6811999999999
  endloop
endfacet
facet normal -0.894427190999912 -3.54909569579571e-015 -0.447213595499966
  outer loop
    vertex 3.80755399716766 19.3548 15.2399999999999
    vertex 4.08695399716768 17.0434 14.6811999999999
    vertex 3.80755399716766 16.764 15.2399999999999
  endloop
endfacet
facet normal -0.894427190999912 -3.54909569579571e-015 -0.447213595499966
  outer loop
    vertex 4.08695399716768 17.0434 14.6811999999999
    vertex 3.80755399716766 19.3548 15.2399999999999
    vertex 4.08695399716766 19.0754 14.6811999999999
  endloop
endfacet
facet normal 5.06547822362275e-020 -0.894427190999917 -0.447213595499956
  outer loop
    vertex 62.484 17.0434 14.6812
    vertex 3.80755399716766 16.764 15.2399999999999
    vertex 4.08695399716768 17.0434 14.6811999999999
  endloop
endfacet
facet normal 5.06547822362275e-020 -0.894427190999917 -0.447213595499956
  outer loop
    vertex 3.80755399716766 16.764 15.2399999999999
    vertex 62.484 17.0434 14.6812
    vertex 62.484 16.764 15.24
  endloop
endfacet
facet normal 7.48487868331088e-016 1.0 -3.84160216133273e-016
  outer loop
    vertex 4.08695399716768 17.0434 14.6811999999999
    vertex 62.484 17.0434 0.0
    vertex 4.08695399716766 17.0434 -8.74189609589848e-014
  endloop
endfacet
facet normal 7.48487868331088e-016 1.0 -3.84160216133273e-016
  outer loop
    vertex 62.484 17.0434 0.0
    vertex 4.08695399716768 17.0434 14.6811999999999
    vertex 62.484 17.0434 14.6812
  endloop
endfacet
facet normal -1.33578502749014e-015 -0.894427190999916 0.447213595499958
  outer loop
    vertex 62.484 19.0754 14.6812
    vertex 3.80755399716766 19.3548 15.2399999999999
    vertex 4.08695399716766 19.0754 14.6811999999999
  endloop
endfacet
facet normal -1.33578502749014e-015 -0.894427190999916 0.447213595499958
  outer loop
    vertex 3.80755399716766 19.3548 15.2399999999999
    vertex 62.484 19.0754 14.6812
    vertex 62.484 19.3548 15.24
  endloop
endfacet
facet normal 0.0 1.0 0.0
  outer loop
    vertex 73.914 19.0754 14.6812
    vertex 132.334 19.0754 1.16323617405101e-014
    vertex 73.914 19.0754 1.16323617405101e-014
  endloop
endfacet
facet normal 0.0 1.0 0.0
  outer loop
    vertex 132.334 19.0754 1.16323617405101e-014
    vertex 73.914 19.0754 14.6812
    vertex 132.334 19.0754 14.6812
  endloop
endfacet
endsolid CBRack
