solid ModuleRack
facet normal 0.894427190999847 0.0 0.447213595500096
  outer loop
    vertex 3.52815399716777 4.44500000000004 14.1223999999999
    vertex 3.24875399716766 7.88670000000004 14.6811999999999
    vertex 3.24875399716766 4.16560000000004 14.6811999999999
  endloop
endfacet
facet normal 0.894427190999847 0.0 0.447213595500096
  outer loop
    vertex 3.24875399716766 7.88670000000004 14.6811999999999
    vertex 3.52815399716777 4.44500000000004 14.1223999999999
    vertex 3.52815399716777 7.60730000000004 14.1223999999999
  endloop
endfacet
facet normal 0.0 -0.894427190999916 -0.447213595499958
  outer loop
    vertex 133.1722 4.1656 14.6812
    vertex 73.3552 4.445 14.1224
    vertex 132.8928 4.445 14.1224
  endloop
endfacet
facet normal 0.0 -0.894427190999916 -0.447213595499958
  outer loop
    vertex 73.3552 4.445 14.1224
    vertex 133.1722 4.1656 14.6812
    vertex 73.0666126841598 4.1656 14.6812
  endloop
endfacet
facet normal 0.0 -0.894427190999916 -0.447213595499958
  outer loop
    vertex 63.0428 4.445 14.1224
    vertex 3.24875399716766 4.16560000000004 14.6811999999999
    vertex 3.52815399716777 4.44500000000004 14.1223999999999
  endloop
endfacet
facet normal 0.0 -0.894427190999916 -0.447213595499958
  outer loop
    vertex 3.24875399716766 4.16560000000004 14.6811999999999
    vertex 63.0428 4.445 14.1224
    vertex 63.3222 4.1656 14.6812
  endloop
endfacet
facet normal 0.0 -1.0 0.0
  outer loop
    vertex 137.668 0.0 15.24
    vertex 0.0 0.0 0.0
    vertex 137.668 0.0 0.0
  endloop
endfacet
facet normal 0.0 -1.0 0.0
  outer loop
    vertex 0.0 0.0 0.0
    vertex 137.668 0.0 15.24
    vertex 0.0 0.0 15.24
  endloop
endfacet
facet normal 0.0 -1.0 0.0
  outer loop
    vertex 0.0 0.0 15.24
    vertex 137.668 0.0 15.24
    vertex 135.509 0.0 15.24
  endloop
endfacet
facet normal 0.0 -1.0 0.0
  outer loop
    vertex 0.0 0.0 15.24
    vertex 135.509 0.0 15.24
    vertex 62.484 0.0 15.24
  endloop
endfacet
facet normal 0.0 -1.0 0.0
  outer loop
    vertex 62.484 0.0 15.24
    vertex 135.509 0.0 15.24
    vertex 132.334 0.0 15.24
  endloop
endfacet
facet normal 0.0 -1.0 0.0
  outer loop
    vertex 62.484 0.0 15.24
    vertex 132.334 0.0 15.24
    vertex 65.659 0.0 15.24
  endloop
endfacet
facet normal 0.0 -1.0 0.0
  outer loop
    vertex 62.484 0.0 15.24
    vertex 65.659 0.0 15.24
    vertex 65.659 0.0 19.304
  endloop
endfacet
facet normal 0.0 -1.0 0.0
  outer loop
    vertex 62.484 0.0 15.24
    vertex 65.659 0.0 19.304
    vertex 62.484 0.0 19.304
  endloop
endfacet
facet normal 0.0 1.0 0.0
  outer loop
    vertex 73.3552 4.445 14.1224
    vertex 132.8928 4.445 1.12798659301916e-014
    vertex 73.3552 4.445 1.12798659301916e-014
  endloop
endfacet
facet normal 0.0 1.0 0.0
  outer loop
    vertex 132.8928 4.445 1.12798659301916e-014
    vertex 73.3552 4.445 14.1224
    vertex 132.8928 4.445 14.1224
  endloop
endfacet
facet normal 1.0 0.0 0.0
  outer loop
    vertex 0.558799999999989 11.4808 0.0
    vertex 0.558799999999989 0.5588 14.6812
    vertex 0.558799999999989 0.5588 0.0
  endloop
endfacet
facet normal 1.0 0.0 0.0
  outer loop
    vertex 0.558799999999989 0.5588 14.6812
    vertex 0.558799999999989 11.4808 0.0
    vertex 0.558799999999989 11.4808 14.6812
  endloop
endfacet
facet normal 0.0 -1.0 0.0
  outer loop
    vertex 137.1092 11.4808 14.6812
    vertex 0.558799999999989 11.4808 0.0
    vertex 137.1092 11.4808 0.0
  endloop
endfacet
facet normal 0.0 -1.0 0.0
  outer loop
    vertex 0.558799999999989 11.4808 0.0
    vertex 137.1092 11.4808 14.6812
    vertex 0.558799999999989 11.4808 14.6812
  endloop
endfacet
facet normal 0.0 0.0 -1.0
  outer loop
    vertex 0.0 12.0396 0.0
    vertex 0.558799999999989 11.4808 0.0
    vertex 0.0 0.0 0.0
  endloop
endfacet
facet normal 0.0 0.0 -1.0
  outer loop
    vertex 0.558799999999989 11.4808 0.0
    vertex 0.0 12.0396 0.0
    vertex 137.668 12.0396 0.0
  endloop
endfacet
facet normal 0.0 0.0 -1.0
  outer loop
    vertex 0.558799999999989 11.4808 0.0
    vertex 137.668 12.0396 0.0
    vertex 137.1092 11.4808 0.0
  endloop
endfacet
facet normal 0.0 0.0 -1.0
  outer loop
    vertex 137.1092 11.4808 0.0
    vertex 137.668 12.0396 0.0
    vertex 137.1092 0.5588 0.0
  endloop
endfacet
facet normal 0.0 0.0 -1.0
  outer loop
    vertex 0.0 0.0 0.0
    vertex 0.558799999999989 0.5588 0.0
    vertex 137.668 0.0 0.0
  endloop
endfacet
facet normal 0.0 0.0 -1.0
  outer loop
    vertex 0.558799999999989 0.5588 0.0
    vertex 0.0 0.0 0.0
    vertex 0.558799999999989 11.4808 0.0
  endloop
endfacet
facet normal 0.0 0.0 -1.0
  outer loop
    vertex 137.668 0.0 0.0
    vertex 0.558799999999989 0.5588 0.0
    vertex 137.1092 0.5588 0.0
  endloop
endfacet
facet normal 0.0 0.0 -1.0
  outer loop
    vertex 137.668 0.0 0.0
    vertex 137.1092 0.5588 0.0
    vertex 137.668 12.0396 0.0
  endloop
endfacet
facet normal -1.0 0.0 0.0
  outer loop
    vertex 0.0 12.0396 15.24
    vertex 0.0 0.0 0.0
    vertex 0.0 0.0 15.24
  endloop
endfacet
facet normal -1.0 0.0 0.0
  outer loop
    vertex 0.0 0.0 0.0
    vertex 0.0 12.0396 15.24
    vertex 0.0 12.0396 0.0
  endloop
endfacet
facet normal -1.0 -5.55111512312578e-015 4.80200270166591e-016
  outer loop
    vertex 4.08695399716768 5.00380000000005 14.6811999999999
    vertex 4.08695399716766 7.03580000000004 -8.77714567693033e-014
    vertex 4.08695399716766 5.00380000000004 -8.77714567693033e-014
  endloop
endfacet
facet normal -1.0 -5.55111512312578e-015 4.80200270166591e-016
  outer loop
    vertex 4.08695399716766 7.03580000000004 -8.77714567693033e-014
    vertex 4.08695399716768 5.00380000000005 14.6811999999999
    vertex 4.08695399716766 7.03580000000004 14.6811999999999
  endloop
endfacet
facet normal -4.34492665909284e-014 -0.894427190998104 0.447213595503582
  outer loop
    vertex 63.0427999999992 7.6073 14.1224000000113
    vertex 3.24875399716766 7.88670000000004 14.6811999999999
    vertex 3.52815399716777 7.60730000000004 14.1223999999999
  endloop
endfacet
facet normal -4.34492665909284e-014 -0.894427190998104 0.447213595503582
  outer loop
    vertex 3.24875399716766 7.88670000000004 14.6811999999999
    vertex 63.0427999999992 7.6073 14.1224000000113
    vertex 63.3222 7.8867 14.6812
  endloop
endfacet
facet normal -0.894427190999912 -3.54909569579571e-015 -0.447213595499966
  outer loop
    vertex 3.80755399716766 7.31520000000004 15.2399999999999
    vertex 4.08695399716768 5.00380000000005 14.6811999999999
    vertex 3.80755399716766 4.72440000000004 15.2399999999999
  endloop
endfacet
facet normal -0.894427190999912 -3.54909569579571e-015 -0.447213595499966
  outer loop
    vertex 4.08695399716768 5.00380000000005 14.6811999999999
    vertex 3.80755399716766 7.31520000000004 15.2399999999999
    vertex 4.08695399716766 7.03580000000004 14.6811999999999
  endloop
endfacet
facet normal -0.894427190998093 -6.74795081119216e-013 0.447213595503604
  outer loop
    vertex 63.3222 7.8867 14.6812
    vertex 63.0428 4.445 14.1224
    vertex 63.3222 4.1656 14.6812
  endloop
endfacet
facet normal -0.894427190998093 -6.74795081119216e-013 0.447213595503604
  outer loop
    vertex 63.0428 4.445 14.1224
    vertex 63.3222 7.8867 14.6812
    vertex 63.0427999999992 7.6073 14.1224000000113
  endloop
endfacet
facet normal 5.06547822362275e-020 -0.894427190999917 -0.447213595499956
  outer loop
    vertex 62.484 5.0038 14.6812
    vertex 3.80755399716766 4.72440000000004 15.2399999999999
    vertex 4.08695399716768 5.00380000000005 14.6811999999999
  endloop
endfacet
facet normal 5.06547822362275e-020 -0.894427190999917 -0.447213595499956
  outer loop
    vertex 3.80755399716766 4.72440000000004 15.2399999999999
    vertex 62.484 5.0038 14.6812
    vertex 62.484 4.7244 15.24
  endloop
endfacet
facet normal -6.99521661345168e-016 2.60792006048327e-029 1.0
  outer loop
    vertex 0.0 12.0396 15.24
    vertex 3.80755399716766 7.31520000000004 15.2399999999999
    vertex 62.484 12.0396 15.24
  endloop
endfacet
facet normal -6.99521661345168e-016 2.60792006048327e-029 1.0
  outer loop
    vertex 3.80755399716766 7.31520000000004 15.2399999999999
    vertex 0.0 12.0396 15.24
    vertex 3.80755399716766 4.72440000000004 15.2399999999999
  endloop
endfacet
facet normal -6.99521661345168e-016 2.60792006048327e-029 1.0
  outer loop
    vertex 62.484 12.0396 15.24
    vertex 3.80755399716766 7.31520000000004 15.2399999999999
    vertex 62.484 7.3152 15.24
  endloop
endfacet
facet normal -6.99521661345168e-016 2.60792006048327e-029 1.0
  outer loop
    vertex 0.0 0.0 15.24
    vertex 3.80755399716766 4.72440000000004 15.2399999999999
    vertex 0.0 12.0396 15.24
  endloop
endfacet
facet normal -6.99521661345168e-016 2.60792006048327e-029 1.0
  outer loop
    vertex 3.80755399716766 4.72440000000004 15.2399999999999
    vertex 0.0 0.0 15.24
    vertex 62.484 0.0 15.24
  endloop
endfacet
facet normal -6.99521661345168e-016 2.60792006048327e-029 1.0
  outer loop
    vertex 3.80755399716766 4.72440000000004 15.2399999999999
    vertex 62.484 0.0 15.24
    vertex 62.484 4.7244 15.24
  endloop
endfacet
facet normal 7.48487868331088e-016 1.0 -3.84160216133273e-016
  outer loop
    vertex 4.08695399716768 5.00380000000005 14.6811999999999
    vertex 62.484 5.0038 -3.52495810318487e-016
    vertex 4.08695399716766 5.00380000000004 -8.77714567693033e-014
  endloop
endfacet
facet normal 7.48487868331088e-016 1.0 -3.84160216133273e-016
  outer loop
    vertex 62.484 5.0038 -3.52495810318487e-016
    vertex 4.08695399716768 5.00380000000005 14.6811999999999
    vertex 62.484 5.0038 14.6812
  endloop
endfacet
facet normal -1.33578502749014e-015 -0.894427190999916 0.447213595499958
  outer loop
    vertex 62.484 7.0358 14.6812
    vertex 3.80755399716766 7.31520000000004 15.2399999999999
    vertex 4.08695399716766 7.03580000000004 14.6811999999999
  endloop
endfacet
facet normal -1.33578502749014e-015 -0.894427190999916 0.447213595499958
  outer loop
    vertex 3.80755399716766 7.31520000000004 15.2399999999999
    vertex 62.484 7.0358 14.6812
    vertex 62.484 7.3152 15.24
  endloop
endfacet
facet normal 0.0 0.0 1.0
  outer loop
    vertex 65.659 0.0 19.304
    vertex 62.484 12.0396 19.304
    vertex 62.484 0.0 19.304
  endloop
endfacet
facet normal 0.0 0.0 1.0
  outer loop
    vertex 62.484 12.0396 19.304
    vertex 65.659 0.0 19.304
    vertex 65.659 12.0396 19.304
  endloop
endfacet
facet normal 0.0 0.0 1.0
  outer loop
    vertex 135.509 0.0 19.304
    vertex 132.334 12.0396 19.304
    vertex 132.334 0.0 19.304
  endloop
endfacet
facet normal 0.0 0.0 1.0
  outer loop
    vertex 132.334 12.0396 19.304
    vertex 135.509 0.0 19.304
    vertex 135.509 12.0396 19.304
  endloop
endfacet
facet normal 1.0 7.59134359996985e-033 -6.93889390390721e-016
  outer loop
    vertex 65.659 12.0396 15.24
    vertex 65.659 0.0 19.304
    vertex 65.659 0.0 15.24
  endloop
endfacet
facet normal 1.0 7.59134359996985e-033 -6.93889390390721e-016
  outer loop
    vertex 65.659 0.0 19.304
    vertex 65.659 12.0396 15.24
    vertex 65.659 12.0396 19.304
  endloop
endfacet
facet normal 1.30614473485313e-015 0.0 1.0
  outer loop
    vertex 137.668 0.0 15.24
    vertex 135.509 12.0396 15.24
    vertex 135.509 0.0 15.24
  endloop
endfacet
facet normal 1.30614473485313e-015 0.0 1.0
  outer loop
    vertex 135.509 12.0396 15.24
    vertex 137.668 0.0 15.24
    vertex 137.668 12.0396 15.24
  endloop
endfacet
facet normal 1.0 0.0 0.0
  outer loop
    vertex 135.509 12.0396 15.24
    vertex 135.509 0.0 19.304
    vertex 135.509 0.0 15.24
  endloop
endfacet
facet normal 1.0 0.0 0.0
  outer loop
    vertex 135.509 0.0 19.304
    vertex 135.509 12.0396 15.24
    vertex 135.509 12.0396 19.304
  endloop
endfacet
facet normal 0.0 -1.0 0.0
  outer loop
    vertex 135.509 0.0 19.304
    vertex 132.334 0.0 15.24
    vertex 135.509 0.0 15.24
  endloop
endfacet
facet normal 0.0 -1.0 0.0
  outer loop
    vertex 132.334 0.0 15.24
    vertex 135.509 0.0 19.304
    vertex 132.334 0.0 19.304
  endloop
endfacet
facet normal 1.0 1.30194828590528e-013 2.9153338416416e-014
  outer loop
    vertex 63.0428 7.6073 -3.52495810318487e-016
    vertex 63.0428 4.445 14.1224
    vertex 63.0428 4.445 -3.52495810318487e-016
  endloop
endfacet
facet normal 1.0 1.30194828590528e-013 2.9153338416416e-014
  outer loop
    vertex 63.0428 4.445 14.1224
    vertex 63.0428 7.6073 -3.52495810318487e-016
    vertex 63.0427999999992 7.6073 14.1224000000113
  endloop
endfacet
facet normal -1.0 1.78349080261069e-014 -3.99360800224877e-015
  outer loop
    vertex 132.8928 7.6073 14.1224
    vertex 132.8928 4.445 1.12798659301916e-014
    vertex 132.8928 4.445 14.1224
  endloop
endfacet
facet normal -1.0 1.78349080261069e-014 -3.99360800224877e-015
  outer loop
    vertex 132.8928 4.445 1.12798659301916e-014
    vertex 132.8928 7.6073 14.1224
    vertex 132.8928 7.6073 1.12798659301916e-014
  endloop
endfacet
facet normal 0.0 1.0 0.0
  outer loop
    vertex 62.484 12.0396 19.304
    vertex 65.659 12.0396 15.24
    vertex 62.484 12.0396 15.24
  endloop
endfacet
facet normal 0.0 1.0 0.0
  outer loop
    vertex 65.659 12.0396 15.24
    vertex 62.484 12.0396 19.304
    vertex 65.659 12.0396 19.304
  endloop
endfacet
facet normal 0.0 1.0 0.0
  outer loop
    vertex 0.0 12.0396 15.24
    vertex 137.668 12.0396 0.0
    vertex 0.0 12.0396 0.0
  endloop
endfacet
facet normal 0.0 1.0 0.0
  outer loop
    vertex 137.668 12.0396 0.0
    vertex 0.0 12.0396 15.24
    vertex 137.668 12.0396 15.24
  endloop
endfacet
facet normal 0.0 1.0 0.0
  outer loop
    vertex 137.668 12.0396 15.24
    vertex 0.0 12.0396 15.24
    vertex 62.484 12.0396 15.24
  endloop
endfacet
facet normal 0.0 1.0 0.0
  outer loop
    vertex 137.668 12.0396 15.24
    vertex 62.484 12.0396 15.24
    vertex 135.509 12.0396 15.24
  endloop
endfacet
facet normal 0.0 1.0 0.0
  outer loop
    vertex 135.509 12.0396 15.24
    vertex 62.484 12.0396 15.24
    vertex 65.659 12.0396 15.24
  endloop
endfacet
facet normal 0.0 1.0 0.0
  outer loop
    vertex 135.509 12.0396 15.24
    vertex 65.659 12.0396 15.24
    vertex 132.334 12.0396 15.24
  endloop
endfacet
facet normal 0.0 1.0 0.0
  outer loop
    vertex 135.509 12.0396 15.24
    vertex 132.334 12.0396 15.24
    vertex 132.334 12.0396 19.304
  endloop
endfacet
facet normal 0.0 1.0 0.0
  outer loop
    vertex 135.509 12.0396 15.24
    vertex 132.334 12.0396 19.304
    vertex 135.509 12.0396 19.304
  endloop
endfacet
facet normal -1.0 0.0 0.0
  outer loop
    vertex 137.1092 0.558800000000001 14.6812
    vertex 137.1092 11.4808 0.0
    vertex 137.1092 0.5588 0.0
  endloop
endfacet
facet normal -1.0 0.0 0.0
  outer loop
    vertex 137.1092 11.4808 0.0
    vertex 137.1092 0.558800000000001 14.6812
    vertex 137.1092 11.4808 14.6812
  endloop
endfacet
facet normal -1.0 3.42072627128684e-016 9.86769030386294e-017
  outer loop
    vertex 62.484 12.0396 19.304
    vertex 62.484 0.0 15.24
    vertex 62.484 0.0 19.304
  endloop
endfacet
facet normal -1.0 3.42072627128684e-016 9.86769030386294e-017
  outer loop
    vertex 62.484 0.0 15.24
    vertex 62.484 12.0396 19.304
    vertex 62.484 4.7244 15.24
  endloop
endfacet
facet normal -1.0 3.42072627128684e-016 9.86769030386294e-017
  outer loop
    vertex 62.484 4.7244 15.24
    vertex 62.484 12.0396 19.304
    vertex 62.484 5.0038 14.6812
  endloop
endfacet
facet normal -1.0 3.42072627128684e-016 9.86769030386294e-017
  outer loop
    vertex 62.484 5.0038 14.6812
    vertex 62.484 12.0396 19.304
    vertex 62.484 7.3152 15.24
  endloop
endfacet
facet normal -1.0 3.42072627128684e-016 9.86769030386294e-017
  outer loop
    vertex 62.484 5.0038 14.6812
    vertex 62.484 7.3152 15.24
    vertex 62.484 7.0358 14.6812
  endloop
endfacet
facet normal -1.0 3.42072627128684e-016 9.86769030386294e-017
  outer loop
    vertex 62.484 7.3152 15.24
    vertex 62.484 12.0396 19.304
    vertex 62.484 12.0396 15.24
  endloop
endfacet
facet normal -1.0 3.42072627128684e-016 9.86769030386294e-017
  outer loop
    vertex 62.484 5.0038 14.6812
    vertex 62.484 7.0358 -3.52495810318487e-016
    vertex 62.484 5.0038 -3.52495810318487e-016
  endloop
endfacet
facet normal -1.0 3.42072627128684e-016 9.86769030386294e-017
  outer loop
    vertex 62.484 7.0358 -3.52495810318487e-016
    vertex 62.484 5.0038 14.6812
    vertex 62.484 7.0358 14.6812
  endloop
endfacet
facet normal 1.0 0.0 0.0
  outer loop
    vertex 137.668 12.0396 0.0
    vertex 137.668 0.0 15.24
    vertex 137.668 0.0 0.0
  endloop
endfacet
facet normal 1.0 0.0 0.0
  outer loop
    vertex 137.668 0.0 15.24
    vertex 137.668 12.0396 0.0
    vertex 137.668 12.0396 15.24
  endloop
endfacet
facet normal -1.0 0.0 7.68769540432887e-015
  outer loop
    vertex 3.52815399716777 7.60730000000004 14.1223999999999
    vertex 3.52815399716766 4.44500000000004 -8.77714567693033e-014
    vertex 3.52815399716777 4.44500000000004 14.1223999999999
  endloop
endfacet
facet normal -1.0 0.0 7.68769540432887e-015
  outer loop
    vertex 3.52815399716766 4.44500000000004 -8.77714567693033e-014
    vertex 3.52815399716777 7.60730000000004 14.1223999999999
    vertex 3.52815399716766 7.60730000000004 -8.77714567693033e-014
  endloop
endfacet
facet normal 0.0 0.0 -1.0
  outer loop
    vertex 73.3552 7.6073 1.12798659301916e-014
    vertex 73.914 7.0358 1.12798659301916e-014
    vertex 73.3552 4.445 1.12798659301916e-014
  endloop
endfacet
facet normal 0.0 0.0 -1.0
  outer loop
    vertex 73.914 7.0358 1.12798659301916e-014
    vertex 73.3552 7.6073 1.12798659301916e-014
    vertex 132.8928 7.6073 1.12798659301916e-014
  endloop
endfacet
facet normal 0.0 0.0 -1.0
  outer loop
    vertex 73.914 7.0358 1.12798659301916e-014
    vertex 132.8928 7.6073 1.12798659301916e-014
    vertex 132.334 7.0358 1.12798659301916e-014
  endloop
endfacet
facet normal 0.0 0.0 -1.0
  outer loop
    vertex 132.334 7.0358 1.12798659301916e-014
    vertex 132.8928 7.6073 1.12798659301916e-014
    vertex 132.334 5.0038 1.12798659301916e-014
  endloop
endfacet
facet normal 0.0 0.0 -1.0
  outer loop
    vertex 73.3552 4.445 1.12798659301916e-014
    vertex 73.914 5.0038 1.12798659301916e-014
    vertex 132.8928 4.445 1.12798659301916e-014
  endloop
endfacet
facet normal 0.0 0.0 -1.0
  outer loop
    vertex 73.914 5.0038 1.12798659301916e-014
    vertex 73.3552 4.445 1.12798659301916e-014
    vertex 73.914 7.0358 1.12798659301916e-014
  endloop
endfacet
facet normal 0.0 0.0 -1.0
  outer loop
    vertex 132.8928 4.445 1.12798659301916e-014
    vertex 73.914 5.0038 1.12798659301916e-014
    vertex 132.334 5.0038 1.12798659301916e-014
  endloop
endfacet
facet normal 0.0 0.0 -1.0
  outer loop
    vertex 132.8928 4.445 1.12798659301916e-014
    vertex 132.334 5.0038 1.12798659301916e-014
    vertex 132.8928 7.6073 1.12798659301916e-014
  endloop
endfacet
facet normal 0.0 1.0 0.0
  outer loop
    vertex 73.914 7.0358 14.6812
    vertex 132.334 7.0358 1.12798659301916e-014
    vertex 73.914 7.0358 1.12798659301916e-014
  endloop
endfacet
facet normal 0.0 1.0 0.0
  outer loop
    vertex 132.334 7.0358 1.12798659301916e-014
    vertex 73.914 7.0358 14.6812
    vertex 132.334 7.0358 14.6812
  endloop
endfacet
facet normal -7.34432335822216e-016 -1.0 2.74589884517261e-030
  outer loop
    vertex 63.0428 4.445 -3.52495810318487e-016
    vertex 3.52815399716777 4.44500000000004 14.1223999999999
    vertex 3.52815399716766 4.44500000000004 -8.77714567693033e-014
  endloop
endfacet
facet normal -7.34432335822216e-016 -1.0 2.74589884517261e-030
  outer loop
    vertex 3.52815399716777 4.44500000000004 14.1223999999999
    vertex 63.0428 4.445 -3.52495810318487e-016
    vertex 63.0428 4.445 14.1224
  endloop
endfacet
facet normal 1.46886467164443e-015 -1.90815924372652e-030 -1.0
  outer loop
    vertex 3.52815399716766 7.60730000000004 -8.77714567693033e-014
    vertex 4.08695399716766 7.03580000000004 -8.77714567693033e-014
    vertex 3.52815399716766 4.44500000000004 -8.77714567693033e-014
  endloop
endfacet
facet normal 1.46886467164443e-015 -1.90815924372652e-030 -1.0
  outer loop
    vertex 4.08695399716766 7.03580000000004 -8.77714567693033e-014
    vertex 3.52815399716766 7.60730000000004 -8.77714567693033e-014
    vertex 63.0428 7.6073 -3.52495810318487e-016
  endloop
endfacet
facet normal 1.46886467164443e-015 -1.90815924372652e-030 -1.0
  outer loop
    vertex 4.08695399716766 7.03580000000004 -8.77714567693033e-014
    vertex 63.0428 7.6073 -3.52495810318487e-016
    vertex 62.484 7.0358 -3.52495810318487e-016
  endloop
endfacet
facet normal 1.46886467164443e-015 -1.90815924372652e-030 -1.0
  outer loop
    vertex 62.484 7.0358 -3.52495810318487e-016
    vertex 63.0428 7.6073 -3.52495810318487e-016
    vertex 62.484 5.0038 -3.52495810318487e-016
  endloop
endfacet
facet normal 1.46886467164443e-015 -1.90815924372652e-030 -1.0
  outer loop
    vertex 3.52815399716766 4.44500000000004 -8.77714567693033e-014
    vertex 4.08695399716766 5.00380000000004 -8.77714567693033e-014
    vertex 63.0428 4.445 -3.52495810318487e-016
  endloop
endfacet
facet normal 1.46886467164443e-015 -1.90815924372652e-030 -1.0
  outer loop
    vertex 4.08695399716766 5.00380000000004 -8.77714567693033e-014
    vertex 3.52815399716766 4.44500000000004 -8.77714567693033e-014
    vertex 4.08695399716766 7.03580000000004 -8.77714567693033e-014
  endloop
endfacet
facet normal 1.46886467164443e-015 -1.90815924372652e-030 -1.0
  outer loop
    vertex 63.0428 4.445 -3.52495810318487e-016
    vertex 4.08695399716766 5.00380000000004 -8.77714567693033e-014
    vertex 62.484 5.0038 -3.52495810318487e-016
  endloop
endfacet
facet normal 1.46886467164443e-015 -1.90815924372652e-030 -1.0
  outer loop
    vertex 63.0428 4.445 -3.52495810318487e-016
    vertex 62.484 5.0038 -3.52495810318487e-016
    vertex 63.0428 7.6073 -3.52495810318487e-016
  endloop
endfacet
facet normal -2.58143374401311e-018 1.0 -2.20983882290039e-017
  outer loop
    vertex 0.558799999999989 0.5588 14.6812
    vertex 137.1092 0.5588 0.0
    vertex 0.558799999999989 0.5588 0.0
  endloop
endfacet
facet normal -2.58143374401311e-018 1.0 -2.20983882290039e-017
  outer loop
    vertex 137.1092 0.5588 0.0
    vertex 0.558799999999989 0.5588 14.6812
    vertex 137.1092 0.558800000000001 14.6812
  endloop
endfacet
facet normal -1.0 0.0 0.0
  outer loop
    vertex 132.334 12.0396 19.304
    vertex 132.334 0.0 15.24
    vertex 132.334 0.0 19.304
  endloop
endfacet
facet normal -1.0 0.0 0.0
  outer loop
    vertex 132.334 0.0 15.24
    vertex 132.334 12.0396 19.304
    vertex 132.334 4.7244 15.24
  endloop
endfacet
facet normal -1.0 0.0 0.0
  outer loop
    vertex 132.334 4.7244 15.24
    vertex 132.334 12.0396 19.304
    vertex 132.334 5.0038 14.6812
  endloop
endfacet
facet normal -1.0 0.0 0.0
  outer loop
    vertex 132.334 5.0038 14.6812
    vertex 132.334 12.0396 19.304
    vertex 132.334 7.3152 15.24
  endloop
endfacet
facet normal -1.0 0.0 0.0
  outer loop
    vertex 132.334 5.0038 14.6812
    vertex 132.334 7.3152 15.24
    vertex 132.334 7.0358 14.6812
  endloop
endfacet
facet normal -1.0 0.0 0.0
  outer loop
    vertex 132.334 5.0038 14.6812
    vertex 132.334 7.0358 14.6812
    vertex 132.334 5.0038 1.12798659301916e-014
  endloop
endfacet
facet normal -1.0 0.0 0.0
  outer loop
    vertex 132.334 7.3152 15.24
    vertex 132.334 12.0396 19.304
    vertex 132.334 12.0396 15.24
  endloop
endfacet
facet normal -1.0 0.0 0.0
  outer loop
    vertex 132.334 7.0358 1.12798659301916e-014
    vertex 132.334 5.0038 1.12798659301916e-014
    vertex 132.334 7.0358 14.6812
  endloop
endfacet
facet normal 0.0 0.0 1.0
  outer loop
    vertex 65.659 12.0396 15.24
    vertex 73.6346 7.3152 15.24
    vertex 132.334 12.0396 15.24
  endloop
endfacet
facet normal 0.0 0.0 1.0
  outer loop
    vertex 73.6346 7.3152 15.24
    vertex 65.659 12.0396 15.24
    vertex 73.6346 4.7244 15.24
  endloop
endfacet
facet normal 0.0 0.0 1.0
  outer loop
    vertex 132.334 12.0396 15.24
    vertex 73.6346 7.3152 15.24
    vertex 132.334 7.3152 15.24
  endloop
endfacet
facet normal 0.0 0.0 1.0
  outer loop
    vertex 65.659 0.0 15.24
    vertex 73.6346 4.7244 15.24
    vertex 65.659 12.0396 15.24
  endloop
endfacet
facet normal 0.0 0.0 1.0
  outer loop
    vertex 73.6346 4.7244 15.24
    vertex 65.659 0.0 15.24
    vertex 132.334 0.0 15.24
  endloop
endfacet
facet normal 0.0 0.0 1.0
  outer loop
    vertex 73.6346 4.7244 15.24
    vertex 132.334 0.0 15.24
    vertex 132.334 4.7244 15.24
  endloop
endfacet
facet normal 0.0 -0.894427190999916 0.447213595499958
  outer loop
    vertex 132.334 7.3152 15.24
    vertex 73.914 7.0358 14.6812
    vertex 132.334 7.0358 14.6812
  endloop
endfacet
facet normal 0.0 -0.894427190999916 0.447213595499958
  outer loop
    vertex 73.914 7.0358 14.6812
    vertex 132.334 7.3152 15.24
    vertex 73.6346 7.3152 15.24
  endloop
endfacet
facet normal -1.0 0.0 0.0
  outer loop
    vertex 73.914 7.0358 14.6812
    vertex 73.914 5.0038 1.12798659301916e-014
    vertex 73.914 5.0038 14.6812
  endloop
endfacet
facet normal -1.0 0.0 0.0
  outer loop
    vertex 73.914 5.0038 1.12798659301916e-014
    vertex 73.914 7.0358 14.6812
    vertex 73.914 7.0358 1.12798659301916e-014
  endloop
endfacet
facet normal 0.894427190999914 0.0 0.447213595499961
  outer loop
    vertex 73.914 5.0038 14.6812
    vertex 73.6346 7.3152 15.24
    vertex 73.6346 4.7244 15.24
  endloop
endfacet
facet normal 0.894427190999914 0.0 0.447213595499961
  outer loop
    vertex 73.6346 7.3152 15.24
    vertex 73.914 5.0038 14.6812
    vertex 73.914 7.0358 14.6812
  endloop
endfacet
facet normal 0.0 -1.0 0.0
  outer loop
    vertex 132.334 5.0038 14.6812
    vertex 73.914 5.0038 1.12798659301916e-014
    vertex 132.334 5.0038 1.12798659301916e-014
  endloop
endfacet
facet normal 0.0 -1.0 0.0
  outer loop
    vertex 73.914 5.0038 1.12798659301916e-014
    vertex 132.334 5.0038 14.6812
    vertex 73.914 5.0038 14.6812
  endloop
endfacet
facet normal 0.0 0.894427190999916 0.447213595499958
  outer loop
    vertex 73.6346 4.7244 15.24
    vertex 132.334 5.0038 14.6812
    vertex 73.914 5.0038 14.6812
  endloop
endfacet
facet normal 0.0 0.894427190999916 0.447213595499958
  outer loop
    vertex 132.334 5.0038 14.6812
    vertex 73.6346 4.7244 15.24
    vertex 132.334 4.7244 15.24
  endloop
endfacet
facet normal 1.0 0.0 0.0
  outer loop
    vertex 73.3552 7.6073 1.12798659301916e-014
    vertex 73.3552 4.445 14.1224
    vertex 73.3552 4.445 1.12798659301916e-014
  endloop
endfacet
facet normal 1.0 0.0 0.0
  outer loop
    vertex 73.3552 4.445 14.1224
    vertex 73.3552 7.6073 1.12798659301916e-014
    vertex 73.3552 7.6073 14.1224
  endloop
endfacet
facet normal -0.888507605273428 3.84468825218443e-018 -0.458861891391384
  outer loop
    vertex 73.0666126841598 7.6073 14.6812
    vertex 73.3552 4.445 14.1224
    vertex 73.0666126841598 4.1656 14.6812
  endloop
endfacet
facet normal -0.888507605273428 3.84468825218443e-018 -0.458861891391384
  outer loop
    vertex 73.3552 4.445 14.1224
    vertex 73.0666126841598 7.6073 14.6812
    vertex 73.3552 7.6073 14.1224
  endloop
endfacet
facet normal -0.888507605273428 3.84468825218443e-018 -0.458861891391384
  outer loop
    vertex 73.3552 7.6073 14.1224
    vertex 73.0666126841598 7.6073 14.6812
    vertex 73.0666126841598 7.8867 14.6812
  endloop
endfacet
facet normal 0.0 -1.0 0.0
  outer loop
    vertex 132.8928 7.6073 14.1224
    vertex 73.3552 7.6073 1.12798659301916e-014
    vertex 132.8928 7.6073 1.12798659301916e-014
  endloop
endfacet
facet normal 0.0 -1.0 0.0
  outer loop
    vertex 73.3552 7.6073 1.12798659301916e-014
    vertex 132.8928 7.6073 14.1224
    vertex 73.3552 7.6073 14.1224
  endloop
endfacet
facet normal 0.894427190999878 -1.3377622640564e-014 -0.447213595500034
  outer loop
    vertex 132.8928 4.445 14.1224
    vertex 133.1722 7.8867 14.6812
    vertex 133.1722 4.1656 14.6812
  endloop
endfacet
facet normal 0.894427190999878 -1.3377622640564e-014 -0.447213595500034
  outer loop
    vertex 133.1722 7.8867 14.6812
    vertex 132.8928 4.445 14.1224
    vertex 132.8928 7.6073 14.1224
  endloop
endfacet
facet normal 2.01829224823935e-019 0.894427190999916 -0.447213595499958
  outer loop
    vertex 73.0666126841598 7.8867 14.6812
    vertex 132.8928 7.6073 14.1224
    vertex 73.3552 7.6073 14.1224
  endloop
endfacet
facet normal 2.01829224823935e-019 0.894427190999916 -0.447213595499958
  outer loop
    vertex 132.8928 7.6073 14.1224
    vertex 73.0666126841598 7.8867 14.6812
    vertex 133.1722 7.8867 14.6812
  endloop
endfacet
facet normal 2.01829224823935e-019 0.894427190999916 -0.447213595499958
  outer loop
    vertex 133.1722 7.8867 14.6812
    vertex 73.0666126841598 7.8867 14.6812
    vertex 132.8928 7.8867 14.6812
  endloop
endfacet
facet normal 7.34432335822221e-016 1.0 1.85294578860655e-029
  outer loop
    vertex 3.52815399716777 7.60730000000004 14.1223999999999
    vertex 63.0428 7.6073 -3.52495810318487e-016
    vertex 3.52815399716766 7.60730000000004 -8.77714567693033e-014
  endloop
endfacet
facet normal 7.34432335822221e-016 1.0 1.85294578860655e-029
  outer loop
    vertex 63.0428 7.6073 -3.52495810318487e-016
    vertex 3.52815399716777 7.60730000000004 14.1223999999999
    vertex 63.0427999999992 7.6073 14.1224000000113
  endloop
endfacet
facet normal -7.48487868331087e-016 -1.0 4.48267519189699e-031
  outer loop
    vertex 62.484 7.0358 -3.52495810318487e-016
    vertex 4.08695399716766 7.03580000000004 14.6811999999999
    vertex 4.08695399716766 7.03580000000004 -8.77714567693033e-014
  endloop
endfacet
facet normal -7.48487868331087e-016 -1.0 4.48267519189699e-031
  outer loop
    vertex 4.08695399716766 7.03580000000004 14.6811999999999
    vertex 62.484 7.0358 -3.52495810318487e-016
    vertex 62.484 7.0358 14.6812
  endloop
endfacet
facet normal 0.0 0.0 -1.0
  outer loop
    vertex 0.558799999999989 11.4808 14.6812
    vertex 3.24875399716766 7.88670000000004 14.6811999999999
    vertex 0.558799999999989 0.5588 14.6812
  endloop
endfacet
facet normal 0.0 0.0 -1.0
  outer loop
    vertex 3.24875399716766 7.88670000000004 14.6811999999999
    vertex 0.558799999999989 11.4808 14.6812
    vertex 137.1092 11.4808 14.6812
  endloop
endfacet
facet normal 0.0 0.0 -1.0
  outer loop
    vertex 3.24875399716766 7.88670000000004 14.6811999999999
    vertex 137.1092 11.4808 14.6812
    vertex 63.3222 7.8867 14.6812
  endloop
endfacet
facet normal 0.0 0.0 -1.0
  outer loop
    vertex 63.3222 7.8867 14.6812
    vertex 137.1092 11.4808 14.6812
    vertex 73.0666126841598 7.8867 14.6812
  endloop
endfacet
facet normal 0.0 0.0 -1.0
  outer loop
    vertex 63.3222 7.8867 14.6812
    vertex 73.0666126841598 7.8867 14.6812
    vertex 63.3222 4.1656 14.6812
  endloop
endfacet
facet normal 0.0 0.0 -1.0
  outer loop
    vertex 73.0666126841598 7.8867 14.6812
    vertex 137.1092 11.4808 14.6812
    vertex 132.8928 7.8867 14.6812
  endloop
endfacet
facet normal 0.0 0.0 -1.0
  outer loop
    vertex 132.8928 7.8867 14.6812
    vertex 137.1092 11.4808 14.6812
    vertex 133.1722 7.8867 14.6812
  endloop
endfacet
facet normal 0.0 0.0 -1.0
  outer loop
    vertex 133.1722 7.8867 14.6812
    vertex 137.1092 11.4808 14.6812
    vertex 133.1722 4.1656 14.6812
  endloop
endfacet
facet normal 0.0 0.0 -1.0
  outer loop
    vertex 0.558799999999989 0.5588 14.6812
    vertex 3.24875399716766 4.16560000000004 14.6811999999999
    vertex 137.1092 0.558800000000001 14.6812
  endloop
endfacet
facet normal 0.0 0.0 -1.0
  outer loop
    vertex 3.24875399716766 4.16560000000004 14.6811999999999
    vertex 0.558799999999989 0.5588 14.6812
    vertex 3.24875399716766 7.88670000000004 14.6811999999999
  endloop
endfacet
facet normal 0.0 0.0 -1.0
  outer loop
    vertex 137.1092 0.558800000000001 14.6812
    vertex 3.24875399716766 4.16560000000004 14.6811999999999
    vertex 63.3222 4.1656 14.6812
  endloop
endfacet
facet normal 0.0 0.0 -1.0
  outer loop
    vertex 137.1092 0.558800000000001 14.6812
    vertex 63.3222 4.1656 14.6812
    vertex 73.0666126841598 4.1656 14.6812
  endloop
endfacet
facet normal 0.0 0.0 -1.0
  outer loop
    vertex 73.0666126841598 4.1656 14.6812
    vertex 63.3222 4.1656 14.6812
    vertex 73.0666126841598 7.8867 14.6812
  endloop
endfacet
facet normal 0.0 0.0 -1.0
  outer loop
    vertex 73.0666126841598 4.1656 14.6812
    vertex 73.0666126841598 7.8867 14.6812
    vertex 73.0666126841598 7.6073 14.6812
  endloop
endfacet
facet normal 0.0 0.0 -1.0
  outer loop
    vertex 137.1092 0.558800000000001 14.6812
    vertex 73.0666126841598 4.1656 14.6812
    vertex 133.1722 4.1656 14.6812
  endloop
endfacet
facet normal 0.0 0.0 -1.0
  outer loop
    vertex 137.1092 0.558800000000001 14.6812
    vertex 133.1722 4.1656 14.6812
    vertex 137.1092 11.4808 14.6812
  endloop
endfacet
endsolid ModuleRack
