solid SingleRack
facet normal 1.35623628441169e-015 4.49898474133155e-017 -1.0
  outer loop
    vertex 2.5908 97.3836 -8.49514902867554e-014
    vertex 4.08695399716766 91.313 -1.7237045124574e-013
    vertex 2.5908 -1.0668 -8.77714567693033e-014
  endloop
endfacet
facet normal 1.35623628441169e-015 4.49898474133155e-017 -1.0
  outer loop
    vertex 4.08695399716766 91.313 -1.7237045124574e-013
    vertex 2.5908 97.3836 -8.49514902867554e-014
    vertex 65.2367250000001 97.3836 -6.20392626160537e-014
  endloop
endfacet
facet normal 1.35623628441169e-015 4.49898474133155e-017 -1.0
  outer loop
    vertex 4.08695399716766 91.313 -1.7237045124574e-013
    vertex 65.2367250000001 97.3836 -6.20392626160537e-014
    vertex 62.9062749999999 91.313 -8.49514902867554e-014
  endloop
endfacet
facet normal 1.35623628441169e-015 4.49898474133155e-017 -1.0
  outer loop
    vertex 62.9062749999999 91.313 -8.49514902867554e-014
    vertex 65.2367250000001 97.3836 -6.20392626160537e-014
    vertex 62.9062749999999 89.281 -8.49514902867554e-014
  endloop
endfacet
facet normal 1.35623628441169e-015 4.49898474133155e-017 -1.0
  outer loop
    vertex 62.9062749999999 89.281 -8.49514902867554e-014
    vertex 65.2367250000001 97.3836 -6.20392626160537e-014
    vertex 62.9062749999999 79.2734 -8.63614735280294e-014
  endloop
endfacet
facet normal 1.35623628441169e-015 4.49898474133155e-017 -1.0
  outer loop
    vertex 62.9062749999999 79.2734 -8.63614735280294e-014
    vertex 65.2367250000001 97.3836 -6.20392626160537e-014
    vertex 62.9062749999999 77.2414 -8.63614735280294e-014
  endloop
endfacet
facet normal 1.35623628441169e-015 4.49898474133155e-017 -1.0
  outer loop
    vertex 62.9062749999999 77.2414 -8.63614735280294e-014
    vertex 65.2367250000001 97.3836 -6.20392626160537e-014
    vertex 62.9062749999999 67.2338 -8.63614735280294e-014
  endloop
endfacet
facet normal 1.35623628441169e-015 4.49898474133155e-017 -1.0
  outer loop
    vertex 62.9062749999999 67.2338 -8.63614735280294e-014
    vertex 65.2367250000001 97.3836 -6.20392626160537e-014
    vertex 62.9062749999999 65.2018 -8.63614735280294e-014
  endloop
endfacet
facet normal 1.35623628441169e-015 4.49898474133155e-017 -1.0
  outer loop
    vertex 62.9062749999999 65.2018 -8.63614735280294e-014
    vertex 65.2367250000001 97.3836 -6.20392626160537e-014
    vertex 62.9062749999999 55.1942 -8.77714567693033e-014
  endloop
endfacet
facet normal 1.35623628441169e-015 4.49898474133155e-017 -1.0
  outer loop
    vertex 62.9062749999999 55.1942 -8.77714567693033e-014
    vertex 65.2367250000001 97.3836 -6.20392626160537e-014
    vertex 62.9062749999999 53.1622 -8.77714567693033e-014
  endloop
endfacet
facet normal 1.35623628441169e-015 4.49898474133155e-017 -1.0
  outer loop
    vertex 62.9062749999999 53.1622 -8.77714567693033e-014
    vertex 65.2367250000001 97.3836 -6.20392626160537e-014
    vertex 62.9062749999999 43.1546 -8.63614735280294e-014
  endloop
endfacet
facet normal 1.35623628441169e-015 4.49898474133155e-017 -1.0
  outer loop
    vertex 62.9062749999999 43.1546 -8.63614735280294e-014
    vertex 65.2367250000001 97.3836 -6.20392626160537e-014
    vertex 62.9062749999999 41.1226 -8.63614735280294e-014
  endloop
endfacet
facet normal 1.35623628441169e-015 4.49898474133155e-017 -1.0
  outer loop
    vertex 62.9062749999999 41.1226 -8.63614735280294e-014
    vertex 65.2367250000001 97.3836 -6.20392626160537e-014
    vertex 62.9062749999999 31.115 -8.77714567693033e-014
  endloop
endfacet
facet normal 1.35623628441169e-015 4.49898474133155e-017 -1.0
  outer loop
    vertex 62.9062749999999 31.115 -8.77714567693033e-014
    vertex 65.2367250000001 97.3836 -6.20392626160537e-014
    vertex 62.9062749999999 29.083 -8.77714567693033e-014
  endloop
endfacet
facet normal 1.35623628441169e-015 4.49898474133155e-017 -1.0
  outer loop
    vertex 62.9062749999999 29.083 -8.77714567693033e-014
    vertex 65.2367250000001 97.3836 -6.20392626160537e-014
    vertex 62.9062749999999 19.0754 -8.77714567693033e-014
  endloop
endfacet
facet normal 1.35623628441169e-015 4.49898474133155e-017 -1.0
  outer loop
    vertex 62.9062749999999 19.0754 -8.77714567693033e-014
    vertex 65.2367250000001 97.3836 -6.20392626160537e-014
    vertex 62.9062749999999 17.0434 -8.77714567693033e-014
  endloop
endfacet
facet normal 1.35623628441169e-015 4.49898474133155e-017 -1.0
  outer loop
    vertex 62.9062749999999 17.0434 -8.77714567693033e-014
    vertex 65.2367250000001 97.3836 -6.20392626160537e-014
    vertex 62.9062749999999 7.0358 -8.91814400105773e-014
  endloop
endfacet
facet normal 1.35623628441169e-015 4.49898474133155e-017 -1.0
  outer loop
    vertex 62.9062749999999 7.0358 -8.91814400105773e-014
    vertex 65.2367250000001 97.3836 -6.20392626160537e-014
    vertex 62.9062749999999 5.0038 -8.91814400105773e-014
  endloop
endfacet
facet normal 1.35623628441169e-015 4.49898474133155e-017 -1.0
  outer loop
    vertex 2.5908 -1.0668 -8.77714567693033e-014
    vertex 4.08695399716766 5.00380000000003 -1.75190417728288e-013
    vertex 65.2367250000001 -1.0668 -6.34492458573277e-014
  endloop
endfacet
facet normal 1.35623628441169e-015 4.49898474133155e-017 -1.0
  outer loop
    vertex 4.08695399716766 5.00380000000003 -1.75190417728288e-013
    vertex 2.5908 -1.0668 -8.77714567693033e-014
    vertex 4.08695399716766 91.313 -1.7237045124574e-013
  endloop
endfacet
facet normal 1.35623628441169e-015 4.49898474133155e-017 -1.0
  outer loop
    vertex 4.08695399716766 5.00380000000003 -1.75190417728288e-013
    vertex 4.08695399716766 91.313 -1.7237045124574e-013
    vertex 4.08695399716766 89.281 -1.7237045124574e-013
  endloop
endfacet
facet normal 1.35623628441169e-015 4.49898474133155e-017 -1.0
  outer loop
    vertex 4.08695399716766 5.00380000000003 -1.75190417728288e-013
    vertex 4.08695399716766 89.281 -1.7237045124574e-013
    vertex 4.08695399716766 79.2734 -1.73780434487014e-013
  endloop
endfacet
facet normal 1.35623628441169e-015 4.49898474133155e-017 -1.0
  outer loop
    vertex 4.08695399716766 5.00380000000003 -1.75190417728288e-013
    vertex 4.08695399716766 79.2734 -1.73780434487014e-013
    vertex 4.08695399716766 77.2414 -1.73780434487014e-013
  endloop
endfacet
facet normal 1.35623628441169e-015 4.49898474133155e-017 -1.0
  outer loop
    vertex 4.08695399716766 5.00380000000003 -1.75190417728288e-013
    vertex 4.08695399716766 77.2414 -1.73780434487014e-013
    vertex 4.08695399716766 67.2338 -1.73780434487014e-013
  endloop
endfacet
facet normal 1.35623628441169e-015 4.49898474133155e-017 -1.0
  outer loop
    vertex 4.08695399716766 5.00380000000003 -1.75190417728288e-013
    vertex 4.08695399716766 67.2338 -1.73780434487014e-013
    vertex 4.08695399716766 65.2018 -1.73780434487014e-013
  endloop
endfacet
facet normal 1.35623628441169e-015 4.49898474133155e-017 -1.0
  outer loop
    vertex 4.08695399716766 5.00380000000003 -1.75190417728288e-013
    vertex 4.08695399716766 65.2018 -1.73780434487014e-013
    vertex 4.08695399716766 55.1942 -1.73780434487014e-013
  endloop
endfacet
facet normal 1.35623628441169e-015 4.49898474133155e-017 -1.0
  outer loop
    vertex 4.08695399716766 5.00380000000003 -1.75190417728288e-013
    vertex 4.08695399716766 55.1942 -1.73780434487014e-013
    vertex 4.08695399716766 53.1622 -1.73780434487014e-013
  endloop
endfacet
facet normal 1.35623628441169e-015 4.49898474133155e-017 -1.0
  outer loop
    vertex 4.08695399716766 5.00380000000003 -1.75190417728288e-013
    vertex 4.08695399716766 53.1622 -1.73780434487014e-013
    vertex 4.08695399716766 43.1546 -1.73780434487014e-013
  endloop
endfacet
facet normal 1.35623628441169e-015 4.49898474133155e-017 -1.0
  outer loop
    vertex 4.08695399716766 5.00380000000003 -1.75190417728288e-013
    vertex 4.08695399716766 43.1546 -1.73780434487014e-013
    vertex 4.08695399716766 41.1226 -1.73780434487014e-013
  endloop
endfacet
facet normal 1.35623628441169e-015 4.49898474133155e-017 -1.0
  outer loop
    vertex 4.08695399716766 5.00380000000003 -1.75190417728288e-013
    vertex 4.08695399716766 41.1226 -1.73780434487014e-013
    vertex 4.08695399716766 31.115 -1.75190417728288e-013
  endloop
endfacet
facet normal 1.35623628441169e-015 4.49898474133155e-017 -1.0
  outer loop
    vertex 4.08695399716766 5.00380000000003 -1.75190417728288e-013
    vertex 4.08695399716766 31.115 -1.75190417728288e-013
    vertex 4.08695399716766 29.083 -1.75190417728288e-013
  endloop
endfacet
facet normal 1.35623628441169e-015 4.49898474133155e-017 -1.0
  outer loop
    vertex 4.08695399716766 5.00380000000003 -1.75190417728288e-013
    vertex 4.08695399716766 29.083 -1.75190417728288e-013
    vertex 4.08695399716766 19.0754 -1.75190417728288e-013
  endloop
endfacet
facet normal 1.35623628441169e-015 4.49898474133155e-017 -1.0
  outer loop
    vertex 4.08695399716766 5.00380000000003 -1.75190417728288e-013
    vertex 4.08695399716766 19.0754 -1.75190417728288e-013
    vertex 4.08695399716766 17.0434 -1.75190417728288e-013
  endloop
endfacet
facet normal 1.35623628441169e-015 4.49898474133155e-017 -1.0
  outer loop
    vertex 4.08695399716766 5.00380000000003 -1.75190417728288e-013
    vertex 4.08695399716766 17.0434 -1.75190417728288e-013
    vertex 4.08695399716766 7.03580000000004 -1.75190417728288e-013
  endloop
endfacet
facet normal 1.35623628441169e-015 4.49898474133155e-017 -1.0
  outer loop
    vertex 65.2367250000001 -1.0668 -6.34492458573277e-014
    vertex 4.08695399716766 5.00380000000003 -1.75190417728288e-013
    vertex 62.9062749999999 5.0038 -8.91814400105773e-014
  endloop
endfacet
facet normal 1.35623628441169e-015 4.49898474133155e-017 -1.0
  outer loop
    vertex 65.2367250000001 -1.0668 -6.34492458573277e-014
    vertex 62.9062749999999 5.0038 -8.91814400105773e-014
    vertex 65.2367250000001 97.3836 -6.20392626160537e-014
  endloop
endfacet
facet normal 1.35623628441169e-015 4.49898474133155e-017 -1.0
  outer loop
    vertex 62.9062749999999 17.0434 -8.77714567693033e-014
    vertex 4.08695399716766 7.03580000000004 -1.75190417728288e-013
    vertex 4.08695399716766 17.0434 -1.75190417728288e-013
  endloop
endfacet
facet normal 1.35623628441169e-015 4.49898474133155e-017 -1.0
  outer loop
    vertex 4.08695399716766 7.03580000000004 -1.75190417728288e-013
    vertex 62.9062749999999 17.0434 -8.77714567693033e-014
    vertex 62.9062749999999 7.0358 -8.91814400105773e-014
  endloop
endfacet
facet normal 1.35623628441169e-015 4.49898474133155e-017 -1.0
  outer loop
    vertex 62.9062749999999 29.083 -8.77714567693033e-014
    vertex 4.08695399716766 19.0754 -1.75190417728288e-013
    vertex 4.08695399716766 29.083 -1.75190417728288e-013
  endloop
endfacet
facet normal 1.35623628441169e-015 4.49898474133155e-017 -1.0
  outer loop
    vertex 4.08695399716766 19.0754 -1.75190417728288e-013
    vertex 62.9062749999999 29.083 -8.77714567693033e-014
    vertex 62.9062749999999 19.0754 -8.77714567693033e-014
  endloop
endfacet
facet normal 1.35623628441169e-015 4.49898474133155e-017 -1.0
  outer loop
    vertex 62.9062749999999 41.1226 -8.63614735280294e-014
    vertex 4.08695399716766 31.115 -1.75190417728288e-013
    vertex 4.08695399716766 41.1226 -1.73780434487014e-013
  endloop
endfacet
facet normal 1.35623628441169e-015 4.49898474133155e-017 -1.0
  outer loop
    vertex 4.08695399716766 31.115 -1.75190417728288e-013
    vertex 62.9062749999999 41.1226 -8.63614735280294e-014
    vertex 62.9062749999999 31.115 -8.77714567693033e-014
  endloop
endfacet
facet normal 1.35623628441169e-015 4.49898474133155e-017 -1.0
  outer loop
    vertex 62.9062749999999 53.1622 -8.77714567693033e-014
    vertex 4.08695399716766 43.1546 -1.73780434487014e-013
    vertex 4.08695399716766 53.1622 -1.73780434487014e-013
  endloop
endfacet
facet normal 1.35623628441169e-015 4.49898474133155e-017 -1.0
  outer loop
    vertex 4.08695399716766 43.1546 -1.73780434487014e-013
    vertex 62.9062749999999 53.1622 -8.77714567693033e-014
    vertex 62.9062749999999 43.1546 -8.63614735280294e-014
  endloop
endfacet
facet normal 1.35623628441169e-015 4.49898474133155e-017 -1.0
  outer loop
    vertex 62.9062749999999 65.2018 -8.63614735280294e-014
    vertex 4.08695399716766 55.1942 -1.73780434487014e-013
    vertex 4.08695399716766 65.2018 -1.73780434487014e-013
  endloop
endfacet
facet normal 1.35623628441169e-015 4.49898474133155e-017 -1.0
  outer loop
    vertex 4.08695399716766 55.1942 -1.73780434487014e-013
    vertex 62.9062749999999 65.2018 -8.63614735280294e-014
    vertex 62.9062749999999 55.1942 -8.77714567693033e-014
  endloop
endfacet
facet normal 1.35623628441169e-015 4.49898474133155e-017 -1.0
  outer loop
    vertex 62.9062749999999 77.2414 -8.63614735280294e-014
    vertex 4.08695399716766 67.2338 -1.73780434487014e-013
    vertex 4.08695399716766 77.2414 -1.73780434487014e-013
  endloop
endfacet
facet normal 1.35623628441169e-015 4.49898474133155e-017 -1.0
  outer loop
    vertex 4.08695399716766 67.2338 -1.73780434487014e-013
    vertex 62.9062749999999 77.2414 -8.63614735280294e-014
    vertex 62.9062749999999 67.2338 -8.63614735280294e-014
  endloop
endfacet
facet normal 1.35623628441169e-015 4.49898474133155e-017 -1.0
  outer loop
    vertex 62.9062749999999 89.281 -8.49514902867554e-014
    vertex 4.08695399716766 79.2734 -1.73780434487014e-013
    vertex 4.08695399716766 89.281 -1.7237045124574e-013
  endloop
endfacet
facet normal 1.35623628441169e-015 4.49898474133155e-017 -1.0
  outer loop
    vertex 4.08695399716766 79.2734 -1.73780434487014e-013
    vertex 62.9062749999999 89.281 -8.49514902867554e-014
    vertex 62.9062749999999 79.2734 -8.63614735280294e-014
  endloop
endfacet
facet normal -1.0 0.0 0.0
  outer loop
    vertex 2.5908 97.3836 15.2399999999999
    vertex 2.5908 -1.0668 -8.77714567693033e-014
    vertex 2.5908 -1.0668 15.2399999999999
  endloop
endfacet
facet normal -1.0 0.0 0.0
  outer loop
    vertex 2.5908 -1.0668 -8.77714567693033e-014
    vertex 2.5908 97.3836 15.2399999999999
    vertex 2.5908 97.3836 -8.49514902867554e-014
  endloop
endfacet
facet normal 0.0 -1.0 0.0
  outer loop
    vertex 65.2367250000001 -1.0668 -6.34492458573277e-014
    vertex 2.5908 -1.0668 15.2399999999999
    vertex 2.5908 -1.0668 -8.77714567693033e-014
  endloop
endfacet
facet normal 0.0 -1.0 0.0
  outer loop
    vertex 2.5908 -1.0668 15.2399999999999
    vertex 65.2367250000001 -1.0668 -6.34492458573277e-014
    vertex 62.9062749999999 -1.0668 15.2399999999999
  endloop
endfacet
facet normal 0.0 -1.0 0.0
  outer loop
    vertex 62.9062749999999 -1.0668 15.2399999999999
    vertex 65.2367250000001 -1.0668 -6.34492458573277e-014
    vertex 65.2367250000001 -1.0668 19.3039999999999
  endloop
endfacet
facet normal 0.0 -1.0 0.0
  outer loop
    vertex 62.9062749999999 -1.0668 15.2399999999999
    vertex 65.2367250000001 -1.0668 19.3039999999999
    vertex 62.9062749999999 -1.0668 19.3039999999999
  endloop
endfacet
facet normal -1.0 -5.55111512312575e-015 5.76240324199908e-016
  outer loop
    vertex 4.08695399716766 31.115 14.6811999999998
    vertex 4.08695399716766 29.083 -1.75190417728288e-013
    vertex 4.08695399716768 29.083 14.6811999999998
  endloop
endfacet
facet normal -1.0 -5.55111512312575e-015 5.76240324199908e-016
  outer loop
    vertex 4.08695399716766 29.083 -1.75190417728288e-013
    vertex 4.08695399716766 31.115 14.6811999999998
    vertex 4.08695399716766 31.115 -1.75190417728288e-013
  endloop
endfacet
facet normal -0.894427190999912 -3.77993118820518e-015 -0.447213595499965
  outer loop
    vertex 3.80755399716766 31.3944 15.2399999999998
    vertex 4.08695399716768 29.083 14.6811999999998
    vertex 3.80755399716766 28.8036 15.2399999999998
  endloop
endfacet
facet normal -0.894427190999912 -3.77993118820518e-015 -0.447213595499965
  outer loop
    vertex 4.08695399716768 29.083 14.6811999999998
    vertex 3.80755399716766 31.3944 15.2399999999998
    vertex 4.08695399716766 31.115 14.6811999999998
  endloop
endfacet
facet normal -2.13605917703426e-017 -0.894427190999915 -0.44721359549996
  outer loop
    vertex 62.9062749999999 29.083 14.6811999999999
    vertex 3.80755399716766 28.8036 15.2399999999998
    vertex 4.08695399716768 29.083 14.6811999999998
  endloop
endfacet
facet normal -2.13605917703426e-017 -0.894427190999915 -0.44721359549996
  outer loop
    vertex 3.80755399716766 28.8036 15.2399999999998
    vertex 62.9062749999999 29.083 14.6811999999999
    vertex 62.9062749999999 28.8036 15.2399999999999
  endloop
endfacet
facet normal -1.3689741464172e-015 -0.894427190999929 0.447213595499932
  outer loop
    vertex 62.9062749999999 31.115 14.6811999999999
    vertex 3.80755399716766 31.3944 15.2399999999998
    vertex 4.08695399716766 31.115 14.6811999999998
  endloop
endfacet
facet normal -1.3689741464172e-015 -0.894427190999929 0.447213595499932
  outer loop
    vertex 3.80755399716766 31.3944 15.2399999999998
    vertex 62.9062749999999 31.115 14.6811999999999
    vertex 62.9062749999999 31.3944 15.2399999999999
  endloop
endfacet
facet normal 7.67085762832825e-016 1.0 -3.36997046362402e-031
  outer loop
    vertex 4.08695399716768 29.083 14.6811999999998
    vertex 62.9062749999999 29.083 -8.77714567693033e-014
    vertex 4.08695399716766 29.083 -1.75190417728288e-013
  endloop
endfacet
facet normal 7.67085762832825e-016 1.0 -3.36997046362402e-031
  outer loop
    vertex 62.9062749999999 29.083 -8.77714567693033e-014
    vertex 4.08695399716768 29.083 14.6811999999998
    vertex 62.9062749999999 29.083 14.6811999999999
  endloop
endfacet
facet normal -1.36888336134883e-015 -0.894427190999914 0.447213595499961
  outer loop
    vertex 62.9062749999999 43.1546 14.6811999999999
    vertex 3.80755399716766 43.434 15.2399999999998
    vertex 4.08695399716766 43.1546 14.6811999999998
  endloop
endfacet
facet normal -1.36888336134883e-015 -0.894427190999914 0.447213595499961
  outer loop
    vertex 3.80755399716766 43.434 15.2399999999998
    vertex 62.9062749999999 43.1546 14.6811999999999
    vertex 62.9062749999999 43.434 15.2399999999999
  endloop
endfacet
facet normal -1.0 -5.55111512312578e-015 5.76240324199912e-016
  outer loop
    vertex 4.08695399716768 41.1226 14.6811999999998
    vertex 4.08695399716766 43.1546 -1.73780434487014e-013
    vertex 4.08695399716766 41.1226 -1.73780434487014e-013
  endloop
endfacet
facet normal -1.0 -5.55111512312578e-015 5.76240324199912e-016
  outer loop
    vertex 4.08695399716766 43.1546 -1.73780434487014e-013
    vertex 4.08695399716768 41.1226 14.6811999999998
    vertex 4.08695399716766 43.1546 14.6811999999998
  endloop
endfacet
facet normal 8.68656826844306e-016 1.0 -1.23953373994844e-015
  outer loop
    vertex 4.08695399716768 41.1226 14.6811999999998
    vertex 62.9062749999999 41.1226 -8.63614735280294e-014
    vertex 4.08695399716766 41.1226 -1.73780434487014e-013
  endloop
endfacet
facet normal 8.68656826844306e-016 1.0 -1.23953373994844e-015
  outer loop
    vertex 62.9062749999999 41.1226 -8.63614735280294e-014
    vertex 4.08695399716768 41.1226 14.6811999999998
    vertex 62.9062749999999 41.1226 14.6811999999999
  endloop
endfacet
facet normal -0.894427190999912 -3.77993118820524e-015 -0.447213595499965
  outer loop
    vertex 3.80755399716766 43.434 15.2399999999998
    vertex 4.08695399716768 41.1226 14.6811999999998
    vertex 3.80755399716766 40.8432 15.2399999999998
  endloop
endfacet
facet normal -0.894427190999912 -3.77993118820524e-015 -0.447213595499965
  outer loop
    vertex 4.08695399716768 41.1226 14.6811999999998
    vertex 3.80755399716766 43.434 15.2399999999998
    vertex 4.08695399716766 43.1546 14.6811999999998
  endloop
endfacet
facet normal -7.67085762832825e-016 -1.0 0.0
  outer loop
    vertex 62.9062749999999 43.1546 -8.63614735280294e-014
    vertex 4.08695399716766 43.1546 14.6811999999998
    vertex 4.08695399716766 43.1546 -1.73780434487014e-013
  endloop
endfacet
facet normal -7.67085762832825e-016 -1.0 0.0
  outer loop
    vertex 4.08695399716766 43.1546 14.6811999999998
    vertex 62.9062749999999 43.1546 -8.63614735280294e-014
    vertex 62.9062749999999 43.1546 14.6811999999999
  endloop
endfacet
facet normal -1.0 -5.55111512312576e-015 5.7624032419991e-016
  outer loop
    vertex 4.08695399716768 5.00380000000004 14.6811999999998
    vertex 4.08695399716766 7.03580000000004 -1.75190417728288e-013
    vertex 4.08695399716766 5.00380000000003 -1.75190417728288e-013
  endloop
endfacet
facet normal -1.0 -5.55111512312576e-015 5.7624032419991e-016
  outer loop
    vertex 4.08695399716766 7.03580000000004 -1.75190417728288e-013
    vertex 4.08695399716768 5.00380000000004 14.6811999999998
    vertex 4.08695399716766 7.03580000000004 14.6811999999998
  endloop
endfacet
facet normal -7.67085762832824e-016 -1.0 -8.42492615906003e-032
  outer loop
    vertex 62.9062749999999 31.115 -8.77714567693033e-014
    vertex 4.08695399716766 31.115 14.6811999999998
    vertex 4.08695399716766 31.115 -1.75190417728288e-013
  endloop
endfacet
facet normal -7.67085762832824e-016 -1.0 -8.42492615906003e-032
  outer loop
    vertex 4.08695399716766 31.115 14.6811999999998
    vertex 62.9062749999999 31.115 -8.77714567693033e-014
    vertex 62.9062749999999 31.115 14.6811999999999
  endloop
endfacet
facet normal -0.894427190999912 -3.77993118820517e-015 -0.447213595499965
  outer loop
    vertex 3.80755399716766 7.31520000000005 15.2399999999998
    vertex 4.08695399716768 5.00380000000004 14.6811999999998
    vertex 3.80755399716766 4.72440000000004 15.2399999999998
  endloop
endfacet
facet normal -0.894427190999912 -3.77993118820517e-015 -0.447213595499965
  outer loop
    vertex 4.08695399716768 5.00380000000004 14.6811999999998
    vertex 3.80755399716766 7.31520000000005 15.2399999999998
    vertex 4.08695399716766 7.03580000000004 14.6811999999998
  endloop
endfacet
facet normal -1.36892534944294e-015 -0.894427190999912 0.447213595499965
  outer loop
    vertex 62.9062749999999 7.0358 14.6811999999999
    vertex 3.80755399716766 7.31520000000005 15.2399999999998
    vertex 4.08695399716766 7.03580000000004 14.6811999999998
  endloop
endfacet
facet normal -1.36892534944294e-015 -0.894427190999912 0.447213595499965
  outer loop
    vertex 3.80755399716766 7.31520000000005 15.2399999999998
    vertex 62.9062749999999 7.0358 14.6811999999999
    vertex 62.9062749999999 7.3152 15.2399999999999
  endloop
endfacet
facet normal -2.13605917703426e-017 -0.894427190999915 -0.44721359549996
  outer loop
    vertex 62.9062749999999 41.1226 14.6811999999999
    vertex 3.80755399716766 40.8432 15.2399999999998
    vertex 4.08695399716768 41.1226 14.6811999999998
  endloop
endfacet
facet normal -2.13605917703426e-017 -0.894427190999915 -0.44721359549996
  outer loop
    vertex 3.80755399716766 40.8432 15.2399999999998
    vertex 62.9062749999999 41.1226 14.6811999999999
    vertex 62.9062749999999 40.8432 15.2399999999999
  endloop
endfacet
facet normal 6.81915789731933e-016 1.0 -3.52815414489592e-016
  outer loop
    vertex 4.08695399716768 5.00380000000004 14.6811999999998
    vertex 62.9062749999999 5.0038 -8.91814400105773e-014
    vertex 4.08695399716766 5.00380000000003 -1.75190417728288e-013
  endloop
endfacet
facet normal 6.81915789731933e-016 1.0 -3.52815414489592e-016
  outer loop
    vertex 62.9062749999999 5.0038 -8.91814400105773e-014
    vertex 4.08695399716768 5.00380000000004 14.6811999999998
    vertex 62.9062749999999 5.0038 14.6811999999999
  endloop
endfacet
facet normal -2.13605917703426e-017 -0.894427190999915 -0.44721359549996
  outer loop
    vertex 62.9062749999999 5.0038 14.6811999999999
    vertex 3.80755399716766 4.72440000000004 15.2399999999998
    vertex 4.08695399716768 5.00380000000004 14.6811999999998
  endloop
endfacet
facet normal -2.13605917703426e-017 -0.894427190999915 -0.44721359549996
  outer loop
    vertex 3.80755399716766 4.72440000000004 15.2399999999998
    vertex 62.9062749999999 5.0038 14.6811999999999
    vertex 62.9062749999999 4.7244 15.2399999999999
  endloop
endfacet
facet normal -7.67085762832825e-016 -1.0 2.52747784771801e-031
  outer loop
    vertex 62.9062749999999 7.0358 -8.91814400105773e-014
    vertex 4.08695399716766 7.03580000000004 14.6811999999998
    vertex 4.08695399716766 7.03580000000004 -1.75190417728288e-013
  endloop
endfacet
facet normal -7.67085762832825e-016 -1.0 2.52747784771801e-031
  outer loop
    vertex 4.08695399716766 7.03580000000004 14.6811999999998
    vertex 62.9062749999999 7.0358 -8.91814400105773e-014
    vertex 62.9062749999999 7.0358 14.6811999999999
  endloop
endfacet
facet normal -7.67085762832824e-016 -1.0 -8.42492615906003e-032
  outer loop
    vertex 62.9062749999999 19.0754 -8.77714567693033e-014
    vertex 4.08695399716766 19.0754 14.6811999999998
    vertex 4.08695399716766 19.0754 -1.75190417728288e-013
  endloop
endfacet
facet normal -7.67085762832824e-016 -1.0 -8.42492615906003e-032
  outer loop
    vertex 4.08695399716766 19.0754 14.6811999999998
    vertex 62.9062749999999 19.0754 -8.77714567693033e-014
    vertex 62.9062749999999 19.0754 14.6811999999999
  endloop
endfacet
facet normal -1.0 -5.55111512312578e-015 5.7624032419991e-016
  outer loop
    vertex 4.08695399716768 17.0434 14.6811999999998
    vertex 4.08695399716766 19.0754 -1.75190417728288e-013
    vertex 4.08695399716766 17.0434 -1.75190417728288e-013
  endloop
endfacet
facet normal -1.0 -5.55111512312578e-015 5.7624032419991e-016
  outer loop
    vertex 4.08695399716766 19.0754 -1.75190417728288e-013
    vertex 4.08695399716768 17.0434 14.6811999999998
    vertex 4.08695399716766 19.0754 14.6811999999998
  endloop
endfacet
facet normal -0.894427190999912 -3.78570207551543e-015 -0.447213595499965
  outer loop
    vertex 3.80755399716766 19.3548 15.2399999999998
    vertex 4.08695399716768 17.0434 14.6811999999998
    vertex 3.80755399716766 16.764 15.2399999999998
  endloop
endfacet
facet normal -0.894427190999912 -3.78570207551543e-015 -0.447213595499965
  outer loop
    vertex 4.08695399716768 17.0434 14.6811999999998
    vertex 3.80755399716766 19.3548 15.2399999999998
    vertex 4.08695399716766 19.0754 14.6811999999998
  endloop
endfacet
facet normal -2.14196020647726e-017 -0.894427190999911 -0.447213595499967
  outer loop
    vertex 62.9062749999999 17.0434 14.6811999999999
    vertex 3.80755399716766 16.764 15.2399999999998
    vertex 4.08695399716768 17.0434 14.6811999999998
  endloop
endfacet
facet normal -2.14196020647726e-017 -0.894427190999911 -0.447213595499967
  outer loop
    vertex 3.80755399716766 16.764 15.2399999999998
    vertex 62.9062749999999 17.0434 14.6811999999999
    vertex 62.9062749999999 16.764 15.2399999999999
  endloop
endfacet
facet normal -1.36888336134883e-015 -0.894427190999914 0.447213595499961
  outer loop
    vertex 62.9062749999999 19.0754 14.6811999999999
    vertex 3.80755399716766 19.3548 15.2399999999998
    vertex 4.08695399716766 19.0754 14.6811999999998
  endloop
endfacet
facet normal -1.36888336134883e-015 -0.894427190999914 0.447213595499961
  outer loop
    vertex 3.80755399716766 19.3548 15.2399999999998
    vertex 62.9062749999999 19.0754 14.6811999999999
    vertex 62.9062749999999 19.3548 15.2399999999999
  endloop
endfacet
facet normal -1.0 -4.17828929211537e-017 5.67254264763854e-016
  outer loop
    vertex 62.9062749999999 97.3836 19.3039999999999
    vertex 62.9062749999999 -1.0668 15.2399999999999
    vertex 62.9062749999999 -1.0668 19.3039999999999
  endloop
endfacet
facet normal -1.0 -4.17828929211537e-017 5.67254264763854e-016
  outer loop
    vertex 62.9062749999999 -1.0668 15.2399999999999
    vertex 62.9062749999999 97.3836 19.3039999999999
    vertex 62.9062749999999 4.7244 15.2399999999999
  endloop
endfacet
facet normal -1.0 -4.17828929211537e-017 5.67254264763854e-016
  outer loop
    vertex 62.9062749999999 4.7244 15.2399999999999
    vertex 62.9062749999999 97.3836 19.3039999999999
    vertex 62.9062749999999 7.3152 15.2399999999999
  endloop
endfacet
facet normal -1.0 -4.17828929211537e-017 5.67254264763854e-016
  outer loop
    vertex 62.9062749999999 4.7244 15.2399999999999
    vertex 62.9062749999999 7.3152 15.2399999999999
    vertex 62.9062749999999 5.0038 14.6811999999999
  endloop
endfacet
facet normal -1.0 -4.17828929211537e-017 5.67254264763854e-016
  outer loop
    vertex 62.9062749999999 5.0038 14.6811999999999
    vertex 62.9062749999999 7.3152 15.2399999999999
    vertex 62.9062749999999 7.0358 14.6811999999999
  endloop
endfacet
facet normal -1.0 -4.17828929211537e-017 5.67254264763854e-016
  outer loop
    vertex 62.9062749999999 5.0038 14.6811999999999
    vertex 62.9062749999999 7.0358 14.6811999999999
    vertex 62.9062749999999 5.0038 -8.91814400105773e-014
  endloop
endfacet
facet normal -1.0 -4.17828929211537e-017 5.67254264763854e-016
  outer loop
    vertex 62.9062749999999 7.3152 15.2399999999999
    vertex 62.9062749999999 97.3836 19.3039999999999
    vertex 62.9062749999999 16.764 15.2399999999999
  endloop
endfacet
facet normal -1.0 -4.17828929211537e-017 5.67254264763854e-016
  outer loop
    vertex 62.9062749999999 16.764 15.2399999999999
    vertex 62.9062749999999 97.3836 19.3039999999999
    vertex 62.9062749999999 19.3548 15.2399999999999
  endloop
endfacet
facet normal -1.0 -4.17828929211537e-017 5.67254264763854e-016
  outer loop
    vertex 62.9062749999999 16.764 15.2399999999999
    vertex 62.9062749999999 19.3548 15.2399999999999
    vertex 62.9062749999999 17.0434 14.6811999999999
  endloop
endfacet
facet normal -1.0 -4.17828929211537e-017 5.67254264763854e-016
  outer loop
    vertex 62.9062749999999 17.0434 14.6811999999999
    vertex 62.9062749999999 19.3548 15.2399999999999
    vertex 62.9062749999999 19.0754 14.6811999999999
  endloop
endfacet
facet normal -1.0 -4.17828929211537e-017 5.67254264763854e-016
  outer loop
    vertex 62.9062749999999 19.3548 15.2399999999999
    vertex 62.9062749999999 97.3836 19.3039999999999
    vertex 62.9062749999999 28.8036 15.2399999999999
  endloop
endfacet
facet normal -1.0 -4.17828929211537e-017 5.67254264763854e-016
  outer loop
    vertex 62.9062749999999 28.8036 15.2399999999999
    vertex 62.9062749999999 97.3836 19.3039999999999
    vertex 62.9062749999999 31.3944 15.2399999999999
  endloop
endfacet
facet normal -1.0 -4.17828929211537e-017 5.67254264763854e-016
  outer loop
    vertex 62.9062749999999 28.8036 15.2399999999999
    vertex 62.9062749999999 31.3944 15.2399999999999
    vertex 62.9062749999999 29.083 14.6811999999999
  endloop
endfacet
facet normal -1.0 -4.17828929211537e-017 5.67254264763854e-016
  outer loop
    vertex 62.9062749999999 29.083 14.6811999999999
    vertex 62.9062749999999 31.3944 15.2399999999999
    vertex 62.9062749999999 31.115 14.6811999999999
  endloop
endfacet
facet normal -1.0 -4.17828929211537e-017 5.67254264763854e-016
  outer loop
    vertex 62.9062749999999 29.083 14.6811999999999
    vertex 62.9062749999999 31.115 14.6811999999999
    vertex 62.9062749999999 29.083 -8.77714567693033e-014
  endloop
endfacet
facet normal -1.0 -4.17828929211537e-017 5.67254264763854e-016
  outer loop
    vertex 62.9062749999999 31.3944 15.2399999999999
    vertex 62.9062749999999 97.3836 19.3039999999999
    vertex 62.9062749999999 40.8432 15.2399999999999
  endloop
endfacet
facet normal -1.0 -4.17828929211537e-017 5.67254264763854e-016
  outer loop
    vertex 62.9062749999999 40.8432 15.2399999999999
    vertex 62.9062749999999 97.3836 19.3039999999999
    vertex 62.9062749999999 43.434 15.2399999999999
  endloop
endfacet
facet normal -1.0 -4.17828929211537e-017 5.67254264763854e-016
  outer loop
    vertex 62.9062749999999 40.8432 15.2399999999999
    vertex 62.9062749999999 43.434 15.2399999999999
    vertex 62.9062749999999 41.1226 14.6811999999999
  endloop
endfacet
facet normal -1.0 -4.17828929211537e-017 5.67254264763854e-016
  outer loop
    vertex 62.9062749999999 41.1226 14.6811999999999
    vertex 62.9062749999999 43.434 15.2399999999999
    vertex 62.9062749999999 43.1546 14.6811999999999
  endloop
endfacet
facet normal -1.0 -4.17828929211537e-017 5.67254264763854e-016
  outer loop
    vertex 62.9062749999999 43.434 15.2399999999999
    vertex 62.9062749999999 97.3836 19.3039999999999
    vertex 62.9062749999999 52.8828 15.2399999999999
  endloop
endfacet
facet normal -1.0 -4.17828929211537e-017 5.67254264763854e-016
  outer loop
    vertex 62.9062749999999 52.8828 15.2399999999999
    vertex 62.9062749999999 97.3836 19.3039999999999
    vertex 62.9062749999999 55.4736 15.2399999999999
  endloop
endfacet
facet normal -1.0 -4.17828929211537e-017 5.67254264763854e-016
  outer loop
    vertex 62.9062749999999 52.8828 15.2399999999999
    vertex 62.9062749999999 55.4736 15.2399999999999
    vertex 62.9062749999999 53.1622 14.6811999999999
  endloop
endfacet
facet normal -1.0 -4.17828929211537e-017 5.67254264763854e-016
  outer loop
    vertex 62.9062749999999 53.1622 14.6811999999999
    vertex 62.9062749999999 55.4736 15.2399999999999
    vertex 62.9062749999999 55.1942 14.6811999999999
  endloop
endfacet
facet normal -1.0 -4.17828929211537e-017 5.67254264763854e-016
  outer loop
    vertex 62.9062749999999 53.1622 14.6811999999999
    vertex 62.9062749999999 55.1942 14.6811999999999
    vertex 62.9062749999999 53.1622 -8.77714567693033e-014
  endloop
endfacet
facet normal -1.0 -4.17828929211537e-017 5.67254264763854e-016
  outer loop
    vertex 62.9062749999999 55.4736 15.2399999999999
    vertex 62.9062749999999 97.3836 19.3039999999999
    vertex 62.9062749999999 64.9224 15.2399999999999
  endloop
endfacet
facet normal -1.0 -4.17828929211537e-017 5.67254264763854e-016
  outer loop
    vertex 62.9062749999999 64.9224 15.2399999999999
    vertex 62.9062749999999 97.3836 19.3039999999999
    vertex 62.9062749999999 67.5132 15.2399999999999
  endloop
endfacet
facet normal -1.0 -4.17828929211537e-017 5.67254264763854e-016
  outer loop
    vertex 62.9062749999999 64.9224 15.2399999999999
    vertex 62.9062749999999 67.5132 15.2399999999999
    vertex 62.9062749999999 65.2018 14.6811999999999
  endloop
endfacet
facet normal -1.0 -4.17828929211537e-017 5.67254264763854e-016
  outer loop
    vertex 62.9062749999999 65.2018 14.6811999999999
    vertex 62.9062749999999 67.5132 15.2399999999999
    vertex 62.9062749999999 67.2338 14.6811999999999
  endloop
endfacet
facet normal -1.0 -4.17828929211537e-017 5.67254264763854e-016
  outer loop
    vertex 62.9062749999999 67.5132 15.2399999999999
    vertex 62.9062749999999 97.3836 19.3039999999999
    vertex 62.9062749999999 76.962 15.2399999999999
  endloop
endfacet
facet normal -1.0 -4.17828929211537e-017 5.67254264763854e-016
  outer loop
    vertex 62.9062749999999 76.962 15.2399999999999
    vertex 62.9062749999999 97.3836 19.3039999999999
    vertex 62.9062749999999 79.5528 15.2399999999999
  endloop
endfacet
facet normal -1.0 -4.17828929211537e-017 5.67254264763854e-016
  outer loop
    vertex 62.9062749999999 76.962 15.2399999999999
    vertex 62.9062749999999 79.5528 15.2399999999999
    vertex 62.9062749999999 77.2414 14.6811999999999
  endloop
endfacet
facet normal -1.0 -4.17828929211537e-017 5.67254264763854e-016
  outer loop
    vertex 62.9062749999999 77.2414 14.6811999999999
    vertex 62.9062749999999 79.5528 15.2399999999999
    vertex 62.9062749999999 79.2734 14.6811999999999
  endloop
endfacet
facet normal -1.0 -4.17828929211537e-017 5.67254264763854e-016
  outer loop
    vertex 62.9062749999999 77.2414 14.6811999999999
    vertex 62.9062749999999 79.2734 14.6811999999999
    vertex 62.9062749999999 77.2414 -8.63614735280294e-014
  endloop
endfacet
facet normal -1.0 -4.17828929211537e-017 5.67254264763854e-016
  outer loop
    vertex 62.9062749999999 79.5528 15.2399999999999
    vertex 62.9062749999999 97.3836 19.3039999999999
    vertex 62.9062749999999 89.0016 15.2399999999999
  endloop
endfacet
facet normal -1.0 -4.17828929211537e-017 5.67254264763854e-016
  outer loop
    vertex 62.9062749999999 89.0016 15.2399999999999
    vertex 62.9062749999999 97.3836 19.3039999999999
    vertex 62.9062749999999 89.281 14.6811999999999
  endloop
endfacet
facet normal -1.0 -4.17828929211537e-017 5.67254264763854e-016
  outer loop
    vertex 62.9062749999999 89.281 14.6811999999999
    vertex 62.9062749999999 97.3836 19.3039999999999
    vertex 62.9062749999999 91.5924 15.2399999999999
  endloop
endfacet
facet normal -1.0 -4.17828929211537e-017 5.67254264763854e-016
  outer loop
    vertex 62.9062749999999 89.281 14.6811999999999
    vertex 62.9062749999999 91.5924 15.2399999999999
    vertex 62.9062749999999 91.313 14.6811999999999
  endloop
endfacet
facet normal -1.0 -4.17828929211537e-017 5.67254264763854e-016
  outer loop
    vertex 62.9062749999999 91.5924 15.2399999999999
    vertex 62.9062749999999 97.3836 19.3039999999999
    vertex 62.9062749999999 97.3836 15.2399999999999
  endloop
endfacet
facet normal -1.0 -4.17828929211537e-017 5.67254264763854e-016
  outer loop
    vertex 62.9062749999999 89.281 14.6811999999999
    vertex 62.9062749999999 91.313 -8.49514902867554e-014
    vertex 62.9062749999999 89.281 -8.49514902867554e-014
  endloop
endfacet
facet normal -1.0 -4.17828929211537e-017 5.67254264763854e-016
  outer loop
    vertex 62.9062749999999 91.313 -8.49514902867554e-014
    vertex 62.9062749999999 89.281 14.6811999999999
    vertex 62.9062749999999 91.313 14.6811999999999
  endloop
endfacet
facet normal -1.0 -4.17828929211537e-017 5.67254264763854e-016
  outer loop
    vertex 62.9062749999999 79.2734 -8.63614735280294e-014
    vertex 62.9062749999999 77.2414 -8.63614735280294e-014
    vertex 62.9062749999999 79.2734 14.6811999999999
  endloop
endfacet
facet normal -1.0 -4.17828929211537e-017 5.67254264763854e-016
  outer loop
    vertex 62.9062749999999 65.2018 14.6811999999999
    vertex 62.9062749999999 67.2338 -8.63614735280294e-014
    vertex 62.9062749999999 65.2018 -8.63614735280294e-014
  endloop
endfacet
facet normal -1.0 -4.17828929211537e-017 5.67254264763854e-016
  outer loop
    vertex 62.9062749999999 67.2338 -8.63614735280294e-014
    vertex 62.9062749999999 65.2018 14.6811999999999
    vertex 62.9062749999999 67.2338 14.6811999999999
  endloop
endfacet
facet normal -1.0 -4.17828929211537e-017 5.67254264763854e-016
  outer loop
    vertex 62.9062749999999 55.1942 -8.77714567693033e-014
    vertex 62.9062749999999 53.1622 -8.77714567693033e-014
    vertex 62.9062749999999 55.1942 14.6811999999999
  endloop
endfacet
facet normal -1.0 -4.17828929211537e-017 5.67254264763854e-016
  outer loop
    vertex 62.9062749999999 41.1226 14.6811999999999
    vertex 62.9062749999999 43.1546 -8.63614735280294e-014
    vertex 62.9062749999999 41.1226 -8.63614735280294e-014
  endloop
endfacet
facet normal -1.0 -4.17828929211537e-017 5.67254264763854e-016
  outer loop
    vertex 62.9062749999999 43.1546 -8.63614735280294e-014
    vertex 62.9062749999999 41.1226 14.6811999999999
    vertex 62.9062749999999 43.1546 14.6811999999999
  endloop
endfacet
facet normal -1.0 -4.17828929211537e-017 5.67254264763854e-016
  outer loop
    vertex 62.9062749999999 31.115 -8.77714567693033e-014
    vertex 62.9062749999999 29.083 -8.77714567693033e-014
    vertex 62.9062749999999 31.115 14.6811999999999
  endloop
endfacet
facet normal -1.0 -4.17828929211537e-017 5.67254264763854e-016
  outer loop
    vertex 62.9062749999999 17.0434 14.6811999999999
    vertex 62.9062749999999 19.0754 -8.77714567693033e-014
    vertex 62.9062749999999 17.0434 -8.77714567693033e-014
  endloop
endfacet
facet normal -1.0 -4.17828929211537e-017 5.67254264763854e-016
  outer loop
    vertex 62.9062749999999 19.0754 -8.77714567693033e-014
    vertex 62.9062749999999 17.0434 14.6811999999999
    vertex 62.9062749999999 19.0754 14.6811999999999
  endloop
endfacet
facet normal -1.0 -4.17828929211537e-017 5.67254264763854e-016
  outer loop
    vertex 62.9062749999999 7.0358 -8.91814400105773e-014
    vertex 62.9062749999999 5.0038 -8.91814400105773e-014
    vertex 62.9062749999999 7.0358 14.6811999999999
  endloop
endfacet
facet normal 8.17871294838565e-016 1.0 -6.19766869974219e-016
  outer loop
    vertex 4.08695399716768 17.0434 14.6811999999998
    vertex 62.9062749999999 17.0434 -8.77714567693033e-014
    vertex 4.08695399716766 17.0434 -1.75190417728288e-013
  endloop
endfacet
facet normal 8.17871294838565e-016 1.0 -6.19766869974219e-016
  outer loop
    vertex 62.9062749999999 17.0434 -8.77714567693033e-014
    vertex 4.08695399716768 17.0434 14.6811999999998
    vertex 62.9062749999999 17.0434 14.6811999999999
  endloop
endfacet
facet normal -1.3689741464172e-015 -0.894427190999929 0.447213595499932
  outer loop
    vertex 62.9062749999999 79.2734 14.6811999999999
    vertex 3.80755399716766 79.5528 15.2399999999998
    vertex 4.08695399716766 79.2734 14.6811999999998
  endloop
endfacet
facet normal -1.3689741464172e-015 -0.894427190999929 0.447213595499932
  outer loop
    vertex 3.80755399716766 79.5528 15.2399999999998
    vertex 62.9062749999999 79.2734 14.6811999999999
    vertex 62.9062749999999 79.5528 15.2399999999999
  endloop
endfacet
facet normal -1.35883407216915e-015 2.21560677578707e-031 1.0
  outer loop
    vertex 2.5908 -1.0668 15.2399999999999
    vertex 3.80755399716766 4.72440000000004 15.2399999999998
    vertex 2.5908 97.3836 15.2399999999999
  endloop
endfacet
facet normal -1.35883407216915e-015 2.21560677578707e-031 1.0
  outer loop
    vertex 3.80755399716766 4.72440000000004 15.2399999999998
    vertex 2.5908 -1.0668 15.2399999999999
    vertex 62.9062749999999 -1.0668 15.2399999999999
  endloop
endfacet
facet normal -1.35883407216915e-015 2.21560677578707e-031 1.0
  outer loop
    vertex 3.80755399716766 4.72440000000004 15.2399999999998
    vertex 62.9062749999999 -1.0668 15.2399999999999
    vertex 62.9062749999999 4.7244 15.2399999999999
  endloop
endfacet
facet normal -1.35883407216915e-015 2.21560677578707e-031 1.0
  outer loop
    vertex 62.9062749999999 7.3152 15.2399999999999
    vertex 3.80755399716766 16.764 15.2399999999998
    vertex 3.80755399716766 7.31520000000005 15.2399999999998
  endloop
endfacet
facet normal -1.35883407216915e-015 2.21560677578707e-031 1.0
  outer loop
    vertex 3.80755399716766 16.764 15.2399999999998
    vertex 62.9062749999999 7.3152 15.2399999999999
    vertex 62.9062749999999 16.764 15.2399999999999
  endloop
endfacet
facet normal -1.35883407216915e-015 2.21560677578707e-031 1.0
  outer loop
    vertex 62.9062749999999 19.3548 15.2399999999999
    vertex 3.80755399716766 28.8036 15.2399999999998
    vertex 3.80755399716766 19.3548 15.2399999999998
  endloop
endfacet
facet normal -1.35883407216915e-015 2.21560677578707e-031 1.0
  outer loop
    vertex 3.80755399716766 28.8036 15.2399999999998
    vertex 62.9062749999999 19.3548 15.2399999999999
    vertex 62.9062749999999 28.8036 15.2399999999999
  endloop
endfacet
facet normal -1.35883407216915e-015 2.21560677578707e-031 1.0
  outer loop
    vertex 62.9062749999999 31.3944 15.2399999999999
    vertex 3.80755399716766 40.8432 15.2399999999998
    vertex 3.80755399716766 31.3944 15.2399999999998
  endloop
endfacet
facet normal -1.35883407216915e-015 2.21560677578707e-031 1.0
  outer loop
    vertex 3.80755399716766 40.8432 15.2399999999998
    vertex 62.9062749999999 31.3944 15.2399999999999
    vertex 62.9062749999999 40.8432 15.2399999999999
  endloop
endfacet
facet normal -1.35883407216915e-015 2.21560677578707e-031 1.0
  outer loop
    vertex 62.9062749999999 43.434 15.2399999999999
    vertex 3.80755399716766 52.8828 15.2399999999998
    vertex 3.80755399716766 43.434 15.2399999999998
  endloop
endfacet
facet normal -1.35883407216915e-015 2.21560677578707e-031 1.0
  outer loop
    vertex 3.80755399716766 52.8828 15.2399999999998
    vertex 62.9062749999999 43.434 15.2399999999999
    vertex 62.9062749999999 52.8828 15.2399999999999
  endloop
endfacet
facet normal -1.35883407216915e-015 2.21560677578707e-031 1.0
  outer loop
    vertex 62.9062749999999 55.4736 15.2399999999999
    vertex 3.80755399716766 64.9224 15.2399999999998
    vertex 3.80755399716766 55.4736 15.2399999999998
  endloop
endfacet
facet normal -1.35883407216915e-015 2.21560677578707e-031 1.0
  outer loop
    vertex 3.80755399716766 64.9224 15.2399999999998
    vertex 62.9062749999999 55.4736 15.2399999999999
    vertex 62.9062749999999 64.9224 15.2399999999999
  endloop
endfacet
facet normal -1.35883407216915e-015 2.21560677578707e-031 1.0
  outer loop
    vertex 62.9062749999999 67.5132 15.2399999999999
    vertex 3.80755399716766 76.962 15.2399999999998
    vertex 3.80755399716766 67.5132 15.2399999999998
  endloop
endfacet
facet normal -1.35883407216915e-015 2.21560677578707e-031 1.0
  outer loop
    vertex 3.80755399716766 76.962 15.2399999999998
    vertex 62.9062749999999 67.5132 15.2399999999999
    vertex 62.9062749999999 76.962 15.2399999999999
  endloop
endfacet
facet normal -1.35883407216915e-015 2.21560677578707e-031 1.0
  outer loop
    vertex 62.9062749999999 79.5528 15.2399999999999
    vertex 3.80755399716766 89.0016 15.2399999999998
    vertex 3.80755399716766 79.5528 15.2399999999998
  endloop
endfacet
facet normal -1.35883407216915e-015 2.21560677578707e-031 1.0
  outer loop
    vertex 3.80755399716766 89.0016 15.2399999999998
    vertex 62.9062749999999 79.5528 15.2399999999999
    vertex 62.9062749999999 89.0016 15.2399999999999
  endloop
endfacet
facet normal -1.35883407216915e-015 2.21560677578707e-031 1.0
  outer loop
    vertex 2.5908 97.3836 15.2399999999999
    vertex 3.80755399716766 91.5924 15.2399999999998
    vertex 62.9062749999999 97.3836 15.2399999999999
  endloop
endfacet
facet normal -1.35883407216915e-015 2.21560677578707e-031 1.0
  outer loop
    vertex 3.80755399716766 91.5924 15.2399999999998
    vertex 2.5908 97.3836 15.2399999999999
    vertex 3.80755399716766 4.72440000000004 15.2399999999998
  endloop
endfacet
facet normal -1.35883407216915e-015 2.21560677578707e-031 1.0
  outer loop
    vertex 3.80755399716766 91.5924 15.2399999999998
    vertex 3.80755399716766 4.72440000000004 15.2399999999998
    vertex 3.80755399716766 7.31520000000005 15.2399999999998
  endloop
endfacet
facet normal -1.35883407216915e-015 2.21560677578707e-031 1.0
  outer loop
    vertex 3.80755399716766 91.5924 15.2399999999998
    vertex 3.80755399716766 7.31520000000005 15.2399999999998
    vertex 3.80755399716766 16.764 15.2399999999998
  endloop
endfacet
facet normal -1.35883407216915e-015 2.21560677578707e-031 1.0
  outer loop
    vertex 3.80755399716766 91.5924 15.2399999999998
    vertex 3.80755399716766 16.764 15.2399999999998
    vertex 3.80755399716766 19.3548 15.2399999999998
  endloop
endfacet
facet normal -1.35883407216915e-015 2.21560677578707e-031 1.0
  outer loop
    vertex 3.80755399716766 91.5924 15.2399999999998
    vertex 3.80755399716766 19.3548 15.2399999999998
    vertex 3.80755399716766 28.8036 15.2399999999998
  endloop
endfacet
facet normal -1.35883407216915e-015 2.21560677578707e-031 1.0
  outer loop
    vertex 3.80755399716766 91.5924 15.2399999999998
    vertex 3.80755399716766 28.8036 15.2399999999998
    vertex 3.80755399716766 31.3944 15.2399999999998
  endloop
endfacet
facet normal -1.35883407216915e-015 2.21560677578707e-031 1.0
  outer loop
    vertex 3.80755399716766 91.5924 15.2399999999998
    vertex 3.80755399716766 31.3944 15.2399999999998
    vertex 3.80755399716766 40.8432 15.2399999999998
  endloop
endfacet
facet normal -1.35883407216915e-015 2.21560677578707e-031 1.0
  outer loop
    vertex 3.80755399716766 91.5924 15.2399999999998
    vertex 3.80755399716766 40.8432 15.2399999999998
    vertex 3.80755399716766 43.434 15.2399999999998
  endloop
endfacet
facet normal -1.35883407216915e-015 2.21560677578707e-031 1.0
  outer loop
    vertex 3.80755399716766 91.5924 15.2399999999998
    vertex 3.80755399716766 43.434 15.2399999999998
    vertex 3.80755399716766 52.8828 15.2399999999998
  endloop
endfacet
facet normal -1.35883407216915e-015 2.21560677578707e-031 1.0
  outer loop
    vertex 3.80755399716766 91.5924 15.2399999999998
    vertex 3.80755399716766 52.8828 15.2399999999998
    vertex 3.80755399716766 55.4736 15.2399999999998
  endloop
endfacet
facet normal -1.35883407216915e-015 2.21560677578707e-031 1.0
  outer loop
    vertex 3.80755399716766 91.5924 15.2399999999998
    vertex 3.80755399716766 55.4736 15.2399999999998
    vertex 3.80755399716766 64.9224 15.2399999999998
  endloop
endfacet
facet normal -1.35883407216915e-015 2.21560677578707e-031 1.0
  outer loop
    vertex 3.80755399716766 91.5924 15.2399999999998
    vertex 3.80755399716766 64.9224 15.2399999999998
    vertex 3.80755399716766 67.5132 15.2399999999998
  endloop
endfacet
facet normal -1.35883407216915e-015 2.21560677578707e-031 1.0
  outer loop
    vertex 3.80755399716766 91.5924 15.2399999999998
    vertex 3.80755399716766 67.5132 15.2399999999998
    vertex 3.80755399716766 76.962 15.2399999999998
  endloop
endfacet
facet normal -1.35883407216915e-015 2.21560677578707e-031 1.0
  outer loop
    vertex 3.80755399716766 91.5924 15.2399999999998
    vertex 3.80755399716766 76.962 15.2399999999998
    vertex 3.80755399716766 79.5528 15.2399999999998
  endloop
endfacet
facet normal -1.35883407216915e-015 2.21560677578707e-031 1.0
  outer loop
    vertex 3.80755399716766 91.5924 15.2399999999998
    vertex 3.80755399716766 79.5528 15.2399999999998
    vertex 3.80755399716766 89.0016 15.2399999999998
  endloop
endfacet
facet normal -1.35883407216915e-015 2.21560677578707e-031 1.0
  outer loop
    vertex 62.9062749999999 97.3836 15.2399999999999
    vertex 3.80755399716766 91.5924 15.2399999999998
    vertex 62.9062749999999 91.5924 15.2399999999999
  endloop
endfacet
facet normal -1.0 -5.55111512312575e-015 5.76240324199908e-016
  outer loop
    vertex 4.08695399716766 79.2734 14.6811999999998
    vertex 4.08695399716766 77.2414 -1.73780434487014e-013
    vertex 4.08695399716768 77.2414 14.6811999999998
  endloop
endfacet
facet normal -1.0 -5.55111512312575e-015 5.76240324199908e-016
  outer loop
    vertex 4.08695399716766 77.2414 -1.73780434487014e-013
    vertex 4.08695399716766 79.2734 14.6811999999998
    vertex 4.08695399716766 79.2734 -1.73780434487014e-013
  endloop
endfacet
facet normal -0.894427190999912 -3.77993118820518e-015 -0.447213595499965
  outer loop
    vertex 3.80755399716766 79.5528 15.2399999999998
    vertex 4.08695399716768 77.2414 14.6811999999998
    vertex 3.80755399716766 76.962 15.2399999999998
  endloop
endfacet
facet normal -0.894427190999912 -3.77993118820518e-015 -0.447213595499965
  outer loop
    vertex 4.08695399716768 77.2414 14.6811999999998
    vertex 3.80755399716766 79.5528 15.2399999999998
    vertex 4.08695399716766 79.2734 14.6811999999998
  endloop
endfacet
facet normal -2.13605917703426e-017 -0.894427190999915 -0.44721359549996
  outer loop
    vertex 62.9062749999999 77.2414 14.6811999999999
    vertex 3.80755399716766 76.962 15.2399999999998
    vertex 4.08695399716768 77.2414 14.6811999999998
  endloop
endfacet
facet normal -2.13605917703426e-017 -0.894427190999915 -0.44721359549996
  outer loop
    vertex 3.80755399716766 76.962 15.2399999999998
    vertex 62.9062749999999 77.2414 14.6811999999999
    vertex 62.9062749999999 76.962 15.2399999999999
  endloop
endfacet
facet normal 7.67085762832825e-016 1.0 -3.36997046362402e-031
  outer loop
    vertex 4.08695399716768 77.2414 14.6811999999998
    vertex 62.9062749999999 77.2414 -8.63614735280294e-014
    vertex 4.08695399716766 77.2414 -1.73780434487014e-013
  endloop
endfacet
facet normal 7.67085762832825e-016 1.0 -3.36997046362402e-031
  outer loop
    vertex 62.9062749999999 77.2414 -8.63614735280294e-014
    vertex 4.08695399716768 77.2414 14.6811999999998
    vertex 62.9062749999999 77.2414 14.6811999999999
  endloop
endfacet
facet normal 0.0 0.0 1.0
  outer loop
    vertex 65.2367250000001 -1.0668 19.3039999999999
    vertex 62.9062749999999 97.3836 19.3039999999999
    vertex 62.9062749999999 -1.0668 19.3039999999999
  endloop
endfacet
facet normal 0.0 0.0 1.0
  outer loop
    vertex 62.9062749999999 97.3836 19.3039999999999
    vertex 65.2367250000001 -1.0668 19.3039999999999
    vertex 65.2367250000001 97.3836 19.3039999999999
  endloop
endfacet
facet normal 8.68656826844306e-016 1.0 -1.23953373994844e-015
  outer loop
    vertex 4.08695399716768 89.281 14.6811999999998
    vertex 62.9062749999999 89.281 -8.49514902867554e-014
    vertex 4.08695399716766 89.281 -1.7237045124574e-013
  endloop
endfacet
facet normal 8.68656826844306e-016 1.0 -1.23953373994844e-015
  outer loop
    vertex 62.9062749999999 89.281 -8.49514902867554e-014
    vertex 4.08695399716768 89.281 14.6811999999998
    vertex 62.9062749999999 89.281 14.6811999999999
  endloop
endfacet
facet normal -0.894427190999912 -3.77993118820524e-015 -0.447213595499965
  outer loop
    vertex 3.80755399716766 91.5924 15.2399999999998
    vertex 4.08695399716768 89.281 14.6811999999998
    vertex 3.80755399716766 89.0016 15.2399999999998
  endloop
endfacet
facet normal -0.894427190999912 -3.77993118820524e-015 -0.447213595499965
  outer loop
    vertex 4.08695399716768 89.281 14.6811999999998
    vertex 3.80755399716766 91.5924 15.2399999999998
    vertex 4.08695399716766 91.313 14.6811999999998
  endloop
endfacet
facet normal -1.36888336134883e-015 -0.894427190999914 0.447213595499961
  outer loop
    vertex 62.9062749999999 91.313 14.6811999999999
    vertex 3.80755399716766 91.5924 15.2399999999998
    vertex 4.08695399716766 91.313 14.6811999999998
  endloop
endfacet
facet normal -1.36888336134883e-015 -0.894427190999914 0.447213595499961
  outer loop
    vertex 3.80755399716766 91.5924 15.2399999999998
    vertex 62.9062749999999 91.313 14.6811999999999
    vertex 62.9062749999999 91.5924 15.2399999999999
  endloop
endfacet
facet normal -1.0 -5.55111512312578e-015 5.76240324199912e-016
  outer loop
    vertex 4.08695399716768 89.281 14.6811999999998
    vertex 4.08695399716766 91.313 -1.7237045124574e-013
    vertex 4.08695399716766 89.281 -1.7237045124574e-013
  endloop
endfacet
facet normal -1.0 -5.55111512312578e-015 5.76240324199912e-016
  outer loop
    vertex 4.08695399716766 91.313 -1.7237045124574e-013
    vertex 4.08695399716768 89.281 14.6811999999998
    vertex 4.08695399716766 91.313 14.6811999999998
  endloop
endfacet
facet normal -2.13605917703426e-017 -0.894427190999915 -0.44721359549996
  outer loop
    vertex 62.9062749999999 53.1622 14.6811999999999
    vertex 3.80755399716766 52.8828 15.2399999999998
    vertex 4.08695399716768 53.1622 14.6811999999998
  endloop
endfacet
facet normal -2.13605917703426e-017 -0.894427190999915 -0.44721359549996
  outer loop
    vertex 3.80755399716766 52.8828 15.2399999999998
    vertex 62.9062749999999 53.1622 14.6811999999999
    vertex 62.9062749999999 52.8828 15.2399999999999
  endloop
endfacet
facet normal 0.0 1.0 0.0
  outer loop
    vertex 2.5908 97.3836 15.2399999999999
    vertex 65.2367250000001 97.3836 -6.20392626160537e-014
    vertex 2.5908 97.3836 -8.49514902867554e-014
  endloop
endfacet
facet normal 0.0 1.0 0.0
  outer loop
    vertex 65.2367250000001 97.3836 -6.20392626160537e-014
    vertex 2.5908 97.3836 15.2399999999999
    vertex 62.9062749999999 97.3836 15.2399999999999
  endloop
endfacet
facet normal 0.0 1.0 0.0
  outer loop
    vertex 65.2367250000001 97.3836 -6.20392626160537e-014
    vertex 62.9062749999999 97.3836 15.2399999999999
    vertex 65.2367250000001 97.3836 19.3039999999999
  endloop
endfacet
facet normal 0.0 1.0 0.0
  outer loop
    vertex 65.2367250000001 97.3836 19.3039999999999
    vertex 62.9062749999999 97.3836 15.2399999999999
    vertex 62.9062749999999 97.3836 19.3039999999999
  endloop
endfacet
facet normal -1.36892534944294e-015 -0.894427190999912 0.447213595499965
  outer loop
    vertex 62.9062749999999 55.1942 14.6811999999999
    vertex 3.80755399716766 55.4736 15.2399999999998
    vertex 4.08695399716766 55.1942 14.6811999999998
  endloop
endfacet
facet normal -1.36892534944294e-015 -0.894427190999912 0.447213595499965
  outer loop
    vertex 3.80755399716766 55.4736 15.2399999999998
    vertex 62.9062749999999 55.1942 14.6811999999999
    vertex 62.9062749999999 55.4736 15.2399999999999
  endloop
endfacet
facet normal -0.894427190999912 -3.77993118820518e-015 -0.447213595499965
  outer loop
    vertex 3.80755399716766 55.4736 15.2399999999998
    vertex 4.08695399716768 53.1622 14.6811999999998
    vertex 3.80755399716766 52.8828 15.2399999999998
  endloop
endfacet
facet normal -0.894427190999912 -3.77993118820518e-015 -0.447213595499965
  outer loop
    vertex 4.08695399716768 53.1622 14.6811999999998
    vertex 3.80755399716766 55.4736 15.2399999999998
    vertex 4.08695399716766 55.1942 14.6811999999998
  endloop
endfacet
facet normal -7.67085762832825e-016 -1.0 0.0
  outer loop
    vertex 62.9062749999999 91.313 -8.49514902867554e-014
    vertex 4.08695399716766 91.313 14.6811999999998
    vertex 4.08695399716766 91.313 -1.7237045124574e-013
  endloop
endfacet
facet normal -7.67085762832825e-016 -1.0 0.0
  outer loop
    vertex 4.08695399716766 91.313 14.6811999999998
    vertex 62.9062749999999 91.313 -8.49514902867554e-014
    vertex 62.9062749999999 91.313 14.6811999999999
  endloop
endfacet
facet normal -0.894427190999912 -3.78570207551543e-015 -0.447213595499965
  outer loop
    vertex 3.80755399716766 67.5132 15.2399999999998
    vertex 4.08695399716768 65.2018 14.6811999999998
    vertex 3.80755399716766 64.9224 15.2399999999998
  endloop
endfacet
facet normal -0.894427190999912 -3.78570207551543e-015 -0.447213595499965
  outer loop
    vertex 4.08695399716768 65.2018 14.6811999999998
    vertex 3.80755399716766 67.5132 15.2399999999998
    vertex 4.08695399716766 67.2338 14.6811999999998
  endloop
endfacet
facet normal -1.0 -5.55111512312578e-015 5.7624032419991e-016
  outer loop
    vertex 4.08695399716768 65.2018 14.6811999999998
    vertex 4.08695399716766 67.2338 -1.73780434487014e-013
    vertex 4.08695399716766 65.2018 -1.73780434487014e-013
  endloop
endfacet
facet normal -1.0 -5.55111512312578e-015 5.7624032419991e-016
  outer loop
    vertex 4.08695399716766 67.2338 -1.73780434487014e-013
    vertex 4.08695399716768 65.2018 14.6811999999998
    vertex 4.08695399716766 67.2338 14.6811999999998
  endloop
endfacet
facet normal -1.36888336134883e-015 -0.894427190999914 0.447213595499961
  outer loop
    vertex 62.9062749999999 67.2338 14.6811999999999
    vertex 3.80755399716766 67.5132 15.2399999999998
    vertex 4.08695399716766 67.2338 14.6811999999998
  endloop
endfacet
facet normal -1.36888336134883e-015 -0.894427190999914 0.447213595499961
  outer loop
    vertex 3.80755399716766 67.5132 15.2399999999998
    vertex 62.9062749999999 67.2338 14.6811999999999
    vertex 62.9062749999999 67.5132 15.2399999999999
  endloop
endfacet
facet normal -7.67085762832824e-016 -1.0 -8.42492615906003e-032
  outer loop
    vertex 62.9062749999999 67.2338 -8.63614735280294e-014
    vertex 4.08695399716766 67.2338 14.6811999999998
    vertex 4.08695399716766 67.2338 -1.73780434487014e-013
  endloop
endfacet
facet normal -7.67085762832824e-016 -1.0 -8.42492615906003e-032
  outer loop
    vertex 4.08695399716766 67.2338 14.6811999999998
    vertex 62.9062749999999 67.2338 -8.63614735280294e-014
    vertex 62.9062749999999 67.2338 14.6811999999999
  endloop
endfacet
facet normal -2.14196020647726e-017 -0.894427190999911 -0.447213595499967
  outer loop
    vertex 62.9062749999999 65.2018 14.6811999999999
    vertex 3.80755399716766 64.9224 15.2399999999998
    vertex 4.08695399716768 65.2018 14.6811999999998
  endloop
endfacet
facet normal -2.14196020647726e-017 -0.894427190999911 -0.447213595499967
  outer loop
    vertex 3.80755399716766 64.9224 15.2399999999998
    vertex 62.9062749999999 65.2018 14.6811999999999
    vertex 62.9062749999999 64.9224 15.2399999999999
  endloop
endfacet
facet normal -2.13605917703426e-017 -0.894427190999915 -0.44721359549996
  outer loop
    vertex 62.9062749999999 89.281 14.6811999999999
    vertex 3.80755399716766 89.0016 15.2399999999998
    vertex 4.08695399716768 89.281 14.6811999999998
  endloop
endfacet
facet normal -2.13605917703426e-017 -0.894427190999915 -0.44721359549996
  outer loop
    vertex 3.80755399716766 89.0016 15.2399999999998
    vertex 62.9062749999999 89.281 14.6811999999999
    vertex 62.9062749999999 89.0016 15.2399999999999
  endloop
endfacet
facet normal 6.81915789731933e-016 1.0 -3.52815414489592e-016
  outer loop
    vertex 4.08695399716768 53.1622 14.6811999999998
    vertex 62.9062749999999 53.1622 -8.77714567693033e-014
    vertex 4.08695399716766 53.1622 -1.73780434487014e-013
  endloop
endfacet
facet normal 6.81915789731933e-016 1.0 -3.52815414489592e-016
  outer loop
    vertex 62.9062749999999 53.1622 -8.77714567693033e-014
    vertex 4.08695399716768 53.1622 14.6811999999998
    vertex 62.9062749999999 53.1622 14.6811999999999
  endloop
endfacet
facet normal -1.0 -5.55111512312576e-015 5.7624032419991e-016
  outer loop
    vertex 4.08695399716768 53.1622 14.6811999999998
    vertex 4.08695399716766 55.1942 -1.73780434487014e-013
    vertex 4.08695399716766 53.1622 -1.73780434487014e-013
  endloop
endfacet
facet normal -1.0 -5.55111512312576e-015 5.7624032419991e-016
  outer loop
    vertex 4.08695399716766 55.1942 -1.73780434487014e-013
    vertex 4.08695399716768 53.1622 14.6811999999998
    vertex 4.08695399716766 55.1942 14.6811999999998
  endloop
endfacet
facet normal -7.67085762832825e-016 -1.0 2.52747784771801e-031
  outer loop
    vertex 62.9062749999999 55.1942 -8.77714567693033e-014
    vertex 4.08695399716766 55.1942 14.6811999999998
    vertex 4.08695399716766 55.1942 -1.73780434487014e-013
  endloop
endfacet
facet normal -7.67085762832825e-016 -1.0 2.52747784771801e-031
  outer loop
    vertex 4.08695399716766 55.1942 14.6811999999998
    vertex 62.9062749999999 55.1942 -8.77714567693033e-014
    vertex 62.9062749999999 55.1942 14.6811999999999
  endloop
endfacet
facet normal 8.17871294838565e-016 1.0 -6.19766869974219e-016
  outer loop
    vertex 4.08695399716768 65.2018 14.6811999999998
    vertex 62.9062749999999 65.2018 -8.63614735280294e-014
    vertex 4.08695399716766 65.2018 -1.73780434487014e-013
  endloop
endfacet
facet normal 8.17871294838565e-016 1.0 -6.19766869974219e-016
  outer loop
    vertex 62.9062749999999 65.2018 -8.63614735280294e-014
    vertex 4.08695399716768 65.2018 14.6811999999998
    vertex 62.9062749999999 65.2018 14.6811999999999
  endloop
endfacet
facet normal 1.0 0.0 0.0
  outer loop
    vertex 65.2367250000001 97.3836 -6.20392626160537e-014
    vertex 65.2367250000001 -1.0668 19.3039999999999
    vertex 65.2367250000001 -1.0668 -6.34492458573277e-014
  endloop
endfacet
facet normal 1.0 0.0 0.0
  outer loop
    vertex 65.2367250000001 -1.0668 19.3039999999999
    vertex 65.2367250000001 97.3836 -6.20392626160537e-014
    vertex 65.2367250000001 97.3836 19.3039999999999
  endloop
endfacet
facet normal -7.67085762832824e-016 -1.0 -8.42492615906003e-032
  outer loop
    vertex 62.9062749999999 79.2734 -8.63614735280294e-014
    vertex 4.08695399716766 79.2734 14.6811999999998
    vertex 4.08695399716766 79.2734 -1.73780434487014e-013
  endloop
endfacet
facet normal -7.67085762832824e-016 -1.0 -8.42492615906003e-032
  outer loop
    vertex 4.08695399716766 79.2734 14.6811999999998
    vertex 62.9062749999999 79.2734 -8.63614735280294e-014
    vertex 62.9062749999999 79.2734 14.6811999999999
  endloop
endfacet
endsolid SingleRack
